<svg version="1.1" id="Layer_1" xmlns="http://www.w3.org/2000/svg" x="0px" y="0px" viewBox="0 0 141.7 226.8" style="enable-background:new 0 0 141.7 226.8" xml:space="preserve"><style>.st0{fill:#1D1D1B}.st1{fill:none;stroke:#1D1D1B;stroke-width:1.612;stroke-miterlimit:10}.st2{fill:#FFDC00}.st3{fill:#0080C8}.st4{fill:#DA0812}.st5{fill:none;stroke:#DA0812;stroke-miterlimit:10}</style><path class="st0" d="M15.3,20.5c0,0.3,0,0.6,0.1,0.8c0,0.2,0.1,0.3,0.2,0.4c0.1,0.1,0.2,0.2,0.4,0.3c0.2,0.1,0.4,0.1,0.7,0.1 c0.3,0,0.6,0.1,1.1,0.1v0.8h-7.6v-0.8c0.6,0,1.1-0.1,1.4-0.1c0.3-0.1,0.5-0.1,0.6-0.2c0.1-0.1,0.3-0.2,0.3-0.4 c0.1-0.2,0.1-0.5,0.1-0.9v-6.4c0-0.2,0-0.4-0.1-0.5c-0.1-0.1-0.2-0.2-0.4-0.2c-0.1,0-0.4,0.1-0.6,0.2c-0.3,0.1-0.7,0.4-1.3,0.8 l-0.5-0.9l4.6-2.8h1.1c0,0.6-0.1,1.4-0.1,2.4V20.5z"/><path class="st0" d="M126.8,208.7c0-0.3,0-0.6-0.1-0.8c0-0.2-0.1-0.3-0.2-0.4c-0.1-0.1-0.2-0.2-0.4-0.3c-0.2-0.1-0.4-0.1-0.7-0.1 c-0.3,0-0.6-0.1-1.1-0.1v-0.8h7.6v0.8c-0.6,0-1.1,0.1-1.4,0.1c-0.3,0.1-0.5,0.1-0.6,0.2c-0.1,0.1-0.3,0.2-0.3,0.4 c-0.1,0.2-0.1,0.5-0.1,0.9v6.4c0,0.2,0,0.4,0.1,0.5c0.1,0.1,0.2,0.2,0.4,0.2c0.1,0,0.4-0.1,0.6-0.2c0.3-0.1,0.7-0.4,1.3-0.8 l0.5,0.9l-4.6,2.8h-1.1c0-0.6,0.1-1.3,0.1-2.4V208.7z"/><polyline class="st1" points="38.7,219.7 5.5,219.7 5.5,7 38,7"/><polyline class="st1" points="102.4,7 136.2,7 136.2,219.7 102.2,219.7"/><line class="st1" x1="88.5" y1="219.7" x2="52.6" y2="219.7"/><line class="st1" x1="88.5" y1="7" x2="52.6" y2="7"/><path class="st2" d="M17.3,205.5c-1.9,0-3.5-1.6-3.5-3.5c0-1.9,1.6-3.5,3.5-3.5s3.5,1.6,3.5,3.5C20.9,203.9,19.3,205.5,17.3,205.5"/><path class="st3" d="M69.3,131c1.3-1.8,2.7-2.1,2.7-2.1l55.4-92.4l1.4-16.3l-14.1,8.2l-58.6,98c0,0,5.7-1.5,7.6,2.3 C64.8,128.3,68.8,128.7,69.3,131"/><path class="st2" d="M69.6,102.9l-1.2,2l-11.5,19.1c0,0,5.8-16.9-4.6-40.2C41.4,61,28.9,48.7,28.9,48.7s5.3-5,7.2-7.4 C43.3,47.4,65.7,71.2,69.6,102.9"/><path class="st3" d="M37.3,31.5c0,0,2.6,3.3,0,7.4c-2.6,4.1-7,7.1-8.9,9.8c-1.8,2.7-3,4.8-3,4.8s-2.1-8.3,2-12.4 c4.4-4,7.9-5.5,8.6-7.9C36.6,30.8,37.3,31.5,37.3,31.5"/><path class="st4" d="M30.8,38c0,0-5.4,3.8-6.3,8.5C20.7,43,16.4,35.2,23,26.7c1.9-2.4,8.9-2.4,7.8,3.3C29.5,35.5,29.9,37.3,30.8,38"/><path class="st5" d="M30.8,38c0,0-5.4,3.8-6.3,8.5C20.7,43,16.4,35.2,23,26.7c1.9-2.4,8.9-2.4,7.8,3.3C29.5,35.5,29.9,37.3,30.8,38 z"/><path class="st2" d="M43.5,117.3c0,0-9.3-0.7-10.8,10.8c0.5,2.7,0.8,3.7,0.8,3.7s-1-6.1-6.1-7.6c-5.1-1.5-7.9,2.2-7.9,2.2 s4.9,0.4,7.3,3.4c2.3,3,6.8,12.6,6.8,12.6l8.2,0.8c0,0-3.9-10.4-1.3-18.2C43,117.3,43.5,117.3,43.5,117.3"/><path class="st2" d="M64.7,142.6l-5.6-1.5l-2.3,1.2l-0.5-2.1l-6.5-1.9l0.5,5.1c0,0-16-0.5-18.4-1c-2.4-0.5-9.2-3.1-11.7-5.9 c-2.4-2.7-2.9-3.8-2.9-3.8s-3,3.6,0,7.9c2.4,2.8,5,3.7,5,3.7s-5.7,2.4-5.8,6.9c0,3.5,0.8,4.4,0.8,4.4s2.9-4.9,9-6.9 c6.6-1.5,11.5-1.1,11.5-1.1s3.8,4.1,5.7,5.1c1.9,1,7.5,3.5,9.9,3.7c2.3,0.2,3-0.2,4.8,0.8c1.7,0.9,6.2,4.2,7.3,4 c1-0.2,0.8,5.5-0.3,6.8c-1.1,1.2-3.8,4.6-6.3,5.1c0.5,1.6,3,2.9,4.8,2.9c1.7,0,6.7-1.4,7.2-6.4c2.8,2.5,5.3,3.4,7.1,2.9 c1.8-0.5,4.2-2,4.2-2s-7-4.6-7.8-7.3c2-1.1,3.2-1,5.1-1.7c1.9-0.7,2-0.9,4.5-0.8c2.5,0.1,5.4,1.9,6.8,2.9c1.5,1,2,1.3,2-0.6 c0-1.9-0.8-6.3-6.1-7.7c-2.6,0.1-3.3,0.9-3.3,0.9s2-2,1.3-6.1c-0.7-4.1-2.8-6-2.8-6l-1.3,0.2c0,0,1.6,6.9-0.4,8.7 c-2,1.8-3,3.4-4.6,3.8c-1.7,0.5-4,1.1-4.5,0c-0.5-1.1-4.9-7.4-7.2-8.3c-2.3-1-0.8-3.2-0.8-3.2L64.7,142.6z"/><path class="st4" d="M55.9,157.2c0,0-8.2,0.1-17.2-7.9c-0.6-0.6-2.9,0.8-4.3,2.1s-6.5,8.9-7.9,11c-1.4,2.1-5.6,17.4-5.5,20 c0.1,2.6,0.6,3.2,0.6,3.2s1.6-0.1,3,0.4c1.4,0.6,3.9,2,4.5,4.2c1.8-0.3,3.7-1.6,3.7-1.6s3.1-2.6,4.1-3.1s3-2.6,3.4-2.9 c0.4-0.3,2.4-2,2.4-2.2c0.1-0.2,1.2-1.6,1.2-1.6l1.1-1.2l1.2-1.1c0,0,1.2-1.3,1.6-1.9s1.8-4.2,1.8-4.2l2.1-2.5c0,0,0.7-1.1,0.7-1.2 s0.4-1.2,0.4-1.2l0.5-1.4l0.5-1.6c0,0,0.8-0.8,1.1-1.2c0.2-0.5,0.9-1.6,0.9-1.6V157.2z"/><path class="st5" d="M55.9,157.2c0,0-8.2,0.1-17.2-7.9c-0.6-0.6-2.9,0.8-4.3,2.1s-6.5,8.9-7.9,11c-1.4,2.1-5.6,17.4-5.5,20 c0.1,2.6,0.6,3.2,0.6,3.2s1.6-0.1,3,0.4c1.4,0.6,3.9,2,4.5,4.2c1.8-0.3,3.7-1.6,3.7-1.6s3.1-2.6,4.1-3.1s3-2.6,3.4-2.9 c0.4-0.3,2.4-2,2.4-2.2c0.1-0.2,1.2-1.6,1.2-1.6l1.1-1.2l1.2-1.1c0,0,1.2-1.3,1.6-1.9s1.8-4.2,1.8-4.2l2.1-2.5c0,0,0.7-1.1,0.7-1.2 s0.4-1.2,0.4-1.2l0.5-1.4l0.5-1.6c0,0,0.8-0.8,1.1-1.2c0.2-0.5,0.9-1.6,0.9-1.6V157.2z"/><path class="st2" d="M22.1,200.2c-4.1,0-7.4-3.3-7.4-7.4c0-4.1,3.3-7.4,7.4-7.4c4.1,0,7.4,3.3,7.4,7.4 C29.5,196.8,26.2,200.2,22.1,200.2"/><path class="st2" d="M128.1,140.1c-0.6,1.1-1.3,2.2-2.5,2.7c-0.5,0.2-1.9,0.4-1.5,1c0.1,3-0.3,5.3-3.4,6.3 c-0.4,0.6-2.2,0.4-2.7,0.3c-1.2-0.2-2-0.5-2.9,0.4c-1.5,1.5-3.4,2.2-5.3,1.7c-0.2-0.1-1.4-0.3-1.5-0.6c-1.6-0.8-1.9-2-2.2-3.7 c-0.2-0.9-0.6-0.9-1.3-0.6c-1.5,0.6-3.1,0-4.4-1c-1.6-1.2-1.3-3.1-0.8-5c0.1-0.4,0.3-0.8,0.4-1.2c0.1-0.1,0.2-0.2,0.3-0.3 c0.8-1.2-0.3-0.5-1.7-1c-2.7-1-2.4-5.3-0.4-7.3c0.7-0.7,1.3-1,2.3-0.8c0.9,0.2,0.4-0.1,0.3-0.8c-0.1-1-0.2-1.9,0-2.9 c0.4-2.7,4.1-4.4,6.6-3.3c1.4,0.6,1.6,0.6,2.3-0.9c0.8-0.7,1.4-1.7,2.6-1.7c2.9-0.1,4.6,1.1,5.6,3.9c0.1,0.3,0.1,0.7,0.7,0.6 c0.2,0,0.4,0,0.7,0c0.9,0.1,1.9,0.1,2.8,0.5c1.6,0.6,3.5,1,3.2,3.5c0,0.2-0.1,0.6-0.1,0.8c-0.1,0.2,0.2,0.8,0,0.9 c-0.8,0.7-1.3,1.2-0.5,1.5c0,0.2,0.1,0.3,0.2,0.3c1.9,0.9,3.4,2.2,3.4,4.3c0,0.4,0,0.7,0.1,1.1 C128.3,139.3,128.2,139.7,128.1,140.1"/><path class="st4" d="M82.7,110.7l6.2-9.8c0,0,12.1,8.9,19.7,21.4c0.4,1.2-0.5,0.8-0.5,0.8s-3.3-0.4-4-0.2c-0.7,0.2-3.2,2.6-3.4,4.3 c-0.3,1.7,0.6,2.3-1.1,2.8c-1.7,0.5-3.6,3.4-3.4,5.2c0.2,1.8,3,4.4,3,4.4s-0.9,5.1,0.5,6.6c1.8,2,5.2,1.6,5.9,1.5 c0.1,0,0.1,0,0.2,0.1c0.7,0.5,1.5,4.1,3.7,4.9c2.4,0.9,5.4-1,6-1.5c0.6-0.4-0.1-0.9,4.5-1.1c0.9,2.2,4.1,18.4,2.8,29.2 c-0.3,1.3-4.7,3.6-4.7,3.6l-5.5-4.1l-0.7-15.2l-2.3-9.9c0,0-2.9-2.7-3.9-5.5c-0.2-0.1-0.2-0.4-1-0.3c-0.8,0.1-6.6-0.2-6.1-5.6 c0,0,0-0.8-0.6-0.5c-0.6,0.3-7.7,1.5-9.1,1.6c-1.4,0.1-5.7,0.6-6.5,0.6c-0.9,0-5.8,0-6.2-0.1c-0.4-0.1-10.6-1.2-10.6-1.2l-6.5-1.8 l-9.4-2.8l0.5,5.1l-5.8-0.2l1.7-3.1l-2.1-3.2l4.7-6.5l12.3,3.5l8.7,2l7.8,0.7c0,0,8.9,0.3,10.2,0s8-1.5,8-1.5s0.7-3.4,4-5.3 l-1.7-2.6C97.8,127,86.6,112.5,82.7,110.7"/><path class="st5" d="M82.7,110.7l6.2-9.8c0,0,12.1,8.9,19.7,21.4c0.4,1.2-0.5,0.8-0.5,0.8s-3.3-0.4-4-0.2c-0.7,0.2-3.2,2.6-3.4,4.3 c-0.3,1.7,0.6,2.3-1.1,2.8c-1.7,0.5-3.6,3.4-3.4,5.2c0.2,1.8,3,4.4,3,4.4s-0.9,5.1,0.5,6.6c1.8,2,5.2,1.6,5.9,1.5 c0.1,0,0.1,0,0.2,0.1c0.7,0.5,1.5,4.1,3.7,4.9c2.4,0.9,5.4-1,6-1.5c0.6-0.4-0.1-0.9,4.5-1.1c0.9,2.2,4.1,18.4,2.8,29.2 c-0.3,1.3-4.7,3.6-4.7,3.6l-5.5-4.1l-0.7-15.2l-2.3-9.9c0,0-2.9-2.7-3.9-5.5c-0.2-0.1-0.2-0.4-1-0.3c-0.8,0.1-6.6-0.2-6.1-5.6 c0,0,0-0.8-0.6-0.5c-0.6,0.3-7.7,1.5-9.1,1.6c-1.4,0.1-5.7,0.6-6.5,0.6c-0.9,0-5.8,0-6.2-0.1c-0.4-0.1-10.6-1.2-10.6-1.2l-6.5-1.8 l-9.4-2.8l0.5,5.1l-5.8-0.2l1.7-3.1l-2.1-3.2l4.7-6.5l12.3,3.5l8.7,2l7.8,0.7c0,0,8.9,0.3,10.2,0s8-1.5,8-1.5s0.7-3.4,4-5.3 l-1.7-2.6C97.8,127,86.6,112.5,82.7,110.7z"/><path class="st3" d="M123.2,179.5c0,0,3.7-1.4,6.5-0.5c-0.2,0.9-3.7,4.3-5.3,7.2c-1.7,2.7-5.7,11.7-6.8,15.4 c-1-4.1-3.3-10.9-7.5-17.6c-4.2-6.7-4.2-7.2-4.2-7.2s5.6,0.7,11.5,5.8l0.6,0.4L123.2,179.5z"/><path class="st2" d="M125.1,186c0,0,6.2,5.9,1.5,12.7c-2.8,2.7-6.2,3.9-10,3.7c-3.8-0.2-8.5-4.8-8.8-7.6c-0.3-2.8-0.2-5.8,2.9-8.6 l0.3-0.2c0,0,2,1.8,1.7,3.6c-0.9,1.1-2,3.3-1.2,6.1c1.8,2.5,3.8,3,4.6,3c0.8,0,2.7,0.3,4.6-0.3c1.9-0.6,5.7-3.6,2.3-8.3"/><path class="st2" d="M52.3,129c-1.9,0-3.5-1.6-3.5-3.7c0-2,1.6-3.7,3.5-3.7c1.9,0,3.5,1.6,3.5,3.7C55.8,127.3,54.2,129,52.3,129"/><path class="st2" d="M59.1,132.6c-1.9,0-3.5-1.6-3.5-3.7c0-2,1.6-3.7,3.5-3.7c1.9,0,3.5,1.6,3.5,3.7 C62.6,131,61.1,132.6,59.1,132.6"/><path class="st2" d="M65.6,135c-1.9,0-3.5-1.6-3.5-3.7c0-2,1.6-3.7,3.5-3.7c1.9,0,3.5,1.6,3.5,3.7C69.1,133.3,67.6,135,65.6,135"/><path class="st2" d="M72.6,135.9c-1.9,0-3.5-1.6-3.5-3.7c0-2,1.6-3.7,3.5-3.7c1.9,0,3.5,1.6,3.5,3.7 C76.1,134.3,74.6,135.9,72.6,135.9"/><path class="st0" d="M15.9,202.6c0-0.4,0.3-0.8,0.8-1.2c0.5-0.4,1-0.1,1.3,0.4c0.3,0.5,0.6,0.4,0.8,0.3c0.2-0.1,0.1-0.5,0.1-0.5 c0-0.3-0.8-1.8-2-1.8c-1.2,0.1-1.8,1-1.8,2.2C15.1,203.2,15.8,203,15.9,202.6"/><path class="st0" d="M110.4,138.9c0,1,0.8,1.9,1.7,1.9c1,0,1.7-0.8,1.7-1.9c0-1-0.8-1.9-1.7-1.9C111.1,137,110.4,137.9,110.4,138.9 M113,138.9c0,0.6-0.4,1-1,1c-0.5,0-1-0.5-1-1c0-0.6,0.4-1,1-1C112.5,137.9,113,138.3,113,138.9"/><path class="st0" d="M18.9,190.9c0.6-1.8,5-3.4,6.9,0.4l0.6-0.4c0,0-0.8-3.2-5-2.6c-3.5,0.6-4.8,4.3-3,7c1,1.2,2.4,1.9,3.5,1.9 l-0.1-0.5C21.8,196.8,17.2,195.9,18.9,190.9"/><path class="st0" d="M112.9,129.1c-0.2,1.8-0.7,3.5-0.9,3.5c-0.2,0,0-1.7-0.1-2.6c-0.1-1-0.6-1.7-0.6-1c0.4,3.2-0.7,3.6-1.5,3.2 c-0.9-0.3-2-3.4-2.4-2.9c-0.4,0.5,0.7,1.8,1.2,2.6c0.5,0.9,0.3,1-0.3,0.8c-0.6-0.2-2.3-4.4-2.7-3.7c-0.5,0.8,0.3,1.6,1.4,3.3 c1.1,1.7,1,1.6,0.5,1.3c-0.5-0.3-2.8-3.1-2.8-2.7c-0.1,0.5,0.3,1.3,1.6,2.4c1.3,1.2,1.6,1.6,1.5,2.1s-1.7,0.2-2.6-0.3 c-0.9-0.5-1.9-0.7-1.7-0.3c0.2,0.4,3.2,1.4,3.2,1.8c0,0.4-0.7,0.4-1.8,0.2c-1.1-0.2-4-1.3-3.9-0.8c0,0.5,3.3,1.5,4.4,1.8 c1.1,0.3,0.9,0.9,0.5,1.1c-0.5,0.1-3.1-0.5-3.1-0.2c0,0.2,0.9,0.6,2.1,0.8c1.2,0.1,1.9,0.4,1.8,0.9c-0.1,0.5-3,1.7-2.9,2 s1.2-0.2,1.7-0.4c0.5-0.2,1.2-0.3,1,0c-0.2,0.3-2.3,1.7-2.2,1.9c0.1,0.2,1.3-0.8,2.2-1.4c0.9-0.6,1.9-0.8,1.5-0.4 c-0.3,0.4-2.7,2.5-2.6,2.7c0.1,0.3,0.4-0.1,1.1-0.6c0.7-0.5,2.9-3,3.3-2.2c0.4,0.8-0.2,3.4-0.5,3.9c-0.2,0.5-0.2,0.7,0.2,0.4 c0.4-0.3,0.8-1.3,1-1.3c0.2,0,0.5,0.3,0.3,0.8c-0.2,0.5-1,2.3-0.8,2.6c0.2,0.3,0.4-0.2,0.5-0.6c0.2-0.4,0.6-1.5,1-1.5 c0.3,0,0.2,1.9,0.1,2.5c0,0.7,0.2,0.8,0.6,0.7c0.3-0.1,0.1-2.4,0-3.4c0-0.9,0.2-0.9,0.7-0.8c0.4,0.1,0.6,2.2,0.6,2.9 c0,0.8,0.2,1.4,0.6,0.8c0.4-0.6-0.4-3.8-0.4-3.8s0.5-0.6,0.8-1.1c0.3-0.5,0.7-0.3,1,0.3c0.3,0.6,1.8,2.1,2.2,2.4 c0.4,0.3,0.7-0.1,0.3-0.5c-0.3-0.3-1.8-1.7-2.2-2.8c-0.5-1.1,0.1-1.3,0.4-0.7c0.3,0.6,2.5,2.9,3,3.4c0.6,0.5,1.4,0.2,1.1,0.1 c-0.3-0.1-1.3-1.1-2.5-2.5c-1.2-1.4-0.5-2.4-0.1-1.7c0.4,0.6,1.3,1.8,2.1,2.3c0.7,0.5,1.6,0.6,1.2,0.2c-0.8-0.4-2.3-2.2-2.8-3.3 c-0.4-1-0.2-1.3,1.4-1.2c1.5,0.1,1-0.4,0-0.5c-1-0.1-1.6-0.7-0.8-0.8c1.1,0,4.6,0,5.1-0.6c0.5-0.5-0.4-0.4-2.3,0 c-1.9,0.4-3.9-0.4-3.9-0.4c0.1-0.4,0.9-0.7,1.9-0.8c1-0.1,1.9-0.8,1.4-0.8c-0.5,0-2.2,0.4-2.9,0.5c-0.6,0.1-0.4-0.5-0.4-0.7 c0-0.2,1.2-1.3,2.2-2.1c1-0.8,1-1,0.3-0.8c-0.7,0.2-2.3,1.8-2.5,1.8c-0.2,0,0.2-1.2,1-1.9c0.8-0.7,2.3-2.5,2.6-3 c0.3-0.5-1.7,1.3-2.2,1.7c-0.5,0.4-1.9,2-2.4,2c-0.5,0.1-0.2-0.5,0.3-1c0.5-0.5,1.5-1.8,1.2-1.9c-0.3-0.1-0.8,0.5-1.2,1.2 c-0.4,0.8-1,1-2,1c-0.9,0-0.1-1.1,0.3-1.9c0.3-0.8,0-1.9-0.2-1.1c-0.2,0.9-1.2,2.7-1.4,2.6c-0.3,0,0.3-3.7,0.3-5 C113.7,126.5,113,127.2,112.9,129.1 M110.8,133.2c1.2,0.3,2,1,1.7,1.5c-0.2,0.5,0.9-0.7,1.5-0.7s2.4,0.4,2.5,1.5 c0.1,1.2-0.3,2-1.3,1.7c-0.4-0.1,0,0.5,0,0.5s2.2,1.4,1.5,2.7c-0.7,1.3-1.8,1.7-3,0.9c0.6,1.9-0.2,3.3-1.8,3.4 c-1.6,0-2.1-1.8-1.4-3.4c-2.2,0-3.6-0.9-3.5-2.4s0.8-2.1,2.1-1.9c0.3-0.4-0.6-0.9-0.7-1.5C108.5,135,109.6,133,110.8,133.2"/><path class="st0" d="M18,205.6c4.3-0.9,2.8-5.3,2.8-5.3s1.4,0.5,4.1-0.4c6.4-2.9,5-8.6,5-8.6s2.9-1.5,4.9-3.9 c2.7-0.7,3.5-2.4,4.2-3.1c0.7-0.7,4.6-1,6.2-6.1c1.2-0.6,3.9-2.8,4.9-7.4c1.4-0.5,3.7-3.1,4.2-7.4c1.4-1.4,3.5-6.2,3.5-6.2 s3.2,3.5,7.8,5c-0.1,7.9-3.2,8.6-7.8,11.1c5.5,7.3,11.7,2.5,14.2-2.3c3.3,3.3,10,2.7,11.3-1.1c-5.1-0.5-8.3-6.6-8.3-6.6 s1.1-0.3,5.7-1.6c4.7-1.3,8-0.3,12,4.8c4-9.4-4.5-12.5-7.6-12c1-1.3,1.4-5.6-1.6-9.9c3.9-0.3,9.7-0.5,14.7-2.1 c-0.4,6.2,4.7,6.4,7.2,5.6c-0.4,1.9,1.1,4.5,3.2,5.1c3.3,8.2,2.9,20.1,3.1,25.3c-2.6-2.2-7.3-2.5-7.3-2.5l6,10c0,0-3.5,2.8-3.2,7.3 c0,7.2,6.8,9.6,9.8,9.8c3,0.2,5,0.2,9.2-3.3c4.2-3.5,3.3-11.9-0.9-13.8c1.5-2.5,5.6-6.9,5.6-6.9s-2.9-1.7-7.4,0 c0.5-8.6-0.8-21.3-3.1-28.3c2.2-0.2,5.9-3.6,4-6.7c6.2-2.3,5.3-10.7,0.9-11.5c1.8-5.5-3-10-6.8-7.4c-1.7-4.8-4.7-6.3-10-3.4 c-7.7-12.4-19.1-20.7-19.1-20.7L128,36.5l2-18.3l-15.9,9.2c0,0-26.6,44.8-44.5,74.2c-4.8-36.2-30.5-57.9-33.1-60.5 c4.9-7.3,0.5-12.3-0.1-11.5c-0.3,1.6-0.9,2.9-2,4.2c-1.1,1.4-2,1.8-3.9,3.4c-0.6-0.7-0.4-3.1,0-4.2c0.4-1.1,1.4-3.4,0.8-5 c-2.1-5.7-7.9-3.6-9.6-1C15.2,37.9,22,45.7,24.2,47c-0.5,1.3,0.1,3.8,0.5,5.7c0.4,2,1.2,2.5,1.6,1.5c0.5-2.5,1.9-4.2,1.9-4.2 c29.7,32.2,29.5,56,29.5,56c0.5,11.2-0.1,12.6-1.6,17.4c-1.8-2.9-7.8-3.1-7.8,1.8c0,5,4.5,4.2,4.5,4.2l-0.8,1.2l-4-1.1 c0,0-4.2,5.2-4.5,6.5c-0.4,1.3,1.1,3.6,1.1,3.6l-2.1,3.2c-6-14.2,1-24.7,2.8-26.4c-1.5-0.5-4.7,0.4-4.7,0.4c-8.4,2.9-8.4,10-8.4,10 s-5-5.3-9.4-3.8c-4.4,1.5-5.5,5-4.8,5c5.9-1,11.8,5.5,14.9,13.9c-6.2,0-12.3-4.4-15.2-10c-6.1,6.3,2.7,12.5,2.7,12.5 c-4.8,3.5-5.3,11.2-3,12.6c2-5,6.6-6.6,9.7-7.9c4.2-1.8,10-0.8,10-0.8c-8.2,6.2-10.2,11.1-13.4,18.7c-3.2,7.6-3.3,17.5-3.3,17.5 s-3.4,0.2-5.6,4.3c-2.9,5.2,1.7,9.3,1.7,9.3s-1,0-2.5,1.4C12.1,201.6,13.7,206.6,18,205.6 M45.6,176.8c-0.8,0.2-0.4-1.4-0.4-3.1 c0-1.7-0.7-3.5-1.7-7.2c-1-3.7-2.4-6.2-2.9-8s-1.1-4-1.3-5.3c-0.2-1.2-0.4-2.7-0.6-3.1s1.1,0.4,1.2,2.2c0.2,1.8,1.9,7,2.2,8 c0.3,1,2.1,5.5,2.2,6.5c0.1,1,0.6,1.2,0.5-0.2c0-1.5-1.6-4.2-2.5-7.5s-1.3-6-1.4-7c-0.1-1,0.7-0.3,0.8,0.9 c0.2,1.2,1.4,7.6,2.5,10.1c1.1,2.4,2,3.8,2,3.8s0.3-0.7-0.3-2.5c-0.7-1.8-2.3-5-2.6-7.2c-0.3-2.2-0.3-3.8-0.3-3.8s0.5-0.9,0.9,2 s4.5,12.2,4.9,14.4C49.1,171.9,46.9,175.9,45.6,176.8 M51.8,167c-1.7,2.9-2.2,3-2.5,0.7c-0.3-2.4-2.9-9-4.5-12.7 c-0.5-1,0.5-1,1.1,0.7c0.7,1.8,3.9,10.2,3.9,10.2s0.6,0.4,0.2-2c-0.6-2.4-3-7.5-2.8-8.2c0.2-0.7,1.1,1.1,1.6,2.6 c0.5,1.5,2.1,5.6,2.3,5.9c0.2,0.2,0.6,0.3,0-1.6c-0.6-1.8-2-5.2-2-6c-0.1-0.9,0.8-0.5,1-0.2C50.1,156.3,53.5,164.1,51.8,167 M53.1,157.3l1.6,0.3c0.4,3.8-1.3,5.7-1.4,5.2c-0.1-0.5-1.8-5.8-1.4-5.9c0.3-0.1,1.3,3.7,1.9,3.6C54.4,160.5,53.1,157.3,53.1,157.3 M64.5,160.5c-1.7-0.8-8.8-4.2-11.5-12.6l3.6-0.9c0,0,8,7.2,7.7,10.3c-1.7-1.5-6-5.4-6.8-6.5l-0.5,0.1c0,0,5,7.4,8.6,8.5 C65.9,159.7,66.2,161.2,64.5,160.5 M53.5,152.5c0,0-5.9-2.8-6.1-3.2c-0.3-0.3-0.1-1-0.1-1l-0.1-0.2l3.9-0.3L53.5,152.5z M78.1,168.4l3.1,1.8c0,0,0.2,1-1.9,1.3s-5.8,1.2-8.7-4.1c0,2.8-0.2,5.8-2.8,7.1c-2.7,1.3-6.2,1.1-8.2-0.6c7.9-5.2,10-12.6,5-19.6 c-4-5-4.3-5.1-4.3-5.1s0-0.7,1-0.1c0.9,0.6,1.4,1.3,1.7,0.9c0.2-0.3-0.6-1.5-0.6-1.5s5,2.7,8,8.2C73.4,162.4,75,166.6,78.1,168.4 M83.4,156.5c1.2-0.4,4.1-1.9,7.1,1.2c3,3.2,2.2,6.2,2.2,6.2s-3.2-1.9-4.9-2.9c-1.7-0.9-5.1-1.1-7.8-0.4c-3,1.6-5.7,1.3-5.7,1.3 l-1.6-3.8c0,0,1.7-0.1,3.5-0.9c1.9-0.8,2.8-1.4,5.1-4.3c2.4-3-0.4-8.2-0.4-8.2l1-0.1C85.4,148,84.7,152.3,83.4,156.5 M71.9,157.1 c-2.8-6.5-8.5-9.6-8.5-9.6l2.3-4.2c3.1,0.8,7.8,1.2,14.4,1.2C84.2,154.5,74.2,157.9,71.9,157.1 M61.7,146.8l-1.6-0.2v-1 c0,0,1.8-0.6,2.2-0.3L61.7,146.8z M116.4,151.4c3.5,9.2,2.8,28.1,2.9,28.7c0.1,0.6-0.5,0.6-0.5,0.6c0.1-0.8,0.3-4.3-0.4-4.3 c-0.8,0.1-0.5,2-0.5,3.3c0,1.3-0.5,1.9-0.5,1.9s0-3.2,0.1-4.6c0.1-1.4-0.6-1.4-0.6,0c-0.3,4.1-0.8,3.5-0.8,3.5s-0.1-0.2-0.1-4.1 c0-8-2-21.9-2.8-23.3C113.6,153.1,114.9,152.4,116.4,151.4 M114.3,178.4c0,0,0-1.4,0.1-2.1c0.1-0.7-0.4-1.6-0.6-0.8 c-0.3,0.8-0.1,2.3-0.3,2.6c-0.2,0.4-0.5-0.7-0.5-1.5c0.1-0.8-0.5-6.9-0.7-10.6c-0.2-3.8-2.1-12.6-2.1-12.6c0.2,0.1,1.1,0,2,0 c0.3,0.9,1.8,8.2,2.1,10.8c0.3,2.5,0.7,11.4,0.7,13.2C115.1,179.1,114.3,178.4,114.3,178.4 M108.4,194c-0.9-4.6,2.8-7.1,2.8-7.1 l1.5,2.6c0,0-2.4,2.5-1.3,6c1.1,3.5,5,3.7,5,3.7l0.8,2.8C112.6,201.5,109.3,198.7,108.4,194 M112.9,190.2c1.1,3.2,3,7.9,3,7.9 s-2.8-0.2-3.6-2C111.5,194.3,111.5,192,112.9,190.2 M127.6,196.1c-2.2,4.1-6.4,6.2-9.2,6c0.5-2,0.9-2.8,0.9-2.8s3.6-0.7,5-3.3 c1.5-2.6,0.3-5.9-1.1-6.6c0,0,1.9-3.3,1.9-3.2C125.2,186.5,129.8,192,127.6,196.1 M119.5,198.4c0-1.1,1.9-4.9,3.5-7.9 c1.6,3.8,0.5,4.8-0.3,6C122,197.8,119.5,198.4,119.5,198.4 M129.3,179.7c0,0-4.2,4.3-5.9,7.8c-1.7,3.5-4.4,9-5.3,12.7 c-1-2.4-3.1-8-4.3-10.6c-1.2-2.5-5.2-10.2-7-12.2c0.8-0.2,6.9,2.8,8.1,3.9c1.3,1.1,3.1,2.4,3.1,2.4s2.4-2.6,5.6-3.6 C126.8,179.1,128.8,179.5,129.3,179.7 M122.3,178.7c0,0-0.4,0.8-0.4,0.3c0-0.5,0.3-3.6-0.2-3.1c-0.5,0.5-0.7,3.2-1.2,3.6 c0.2-2.9-0.3-14.8-0.6-17.3c-0.4-2.5-1.9-11.4-1.9-11.4l1.8,0C123,160.5,122.3,178.7,122.3,178.7 M117.8,126.3l0.6,0.3 c0,0,3.6-0.9,5.5,1.3c0.9,1.4,1.4,3.7-0.4,5.2c0,0,6,2.5,3.6,7.9c-1.5,2.2-3.2,2.2-3.6,2.3c0.5,1.9,0.4,5.8-3.4,6.6 c-2.6,0.4-4.4-1-4.4-1s-0.9,3.5-4.6,3.4c-3.7-0.1-4.8-4.3-4.6-5.2c-2.6,0.8-4.5,0.7-5.8-0.5c-1.3-1.2-2.6-3.1,0.3-6.8l-0.1-0.5 c0,0-4.8-0.2-3.9-5.1c0.7-3.2,4.7-2.5,4.7-2.5s-2.1-5.5,2.5-7.3c2.1-0.6,3.7,0.7,3.7,0.7l0.9,0c0,0,0.6-3.3,4.5-3.3 C115.6,121.9,117.4,124.7,117.8,126.3 M53.2,134.7L54,135l-0.8,1.8l-0.8-0.1L53.2,134.7z M51.7,136.1l-0.8-0.1l0.8-1.9l0.8,0.3 L51.7,136.1z M54.4,135.1l1.3,0.1l-0.8,1.8l-1.1-0.1L54.4,135.1z M56.3,135.6l1.1,0.1l-0.8,1.9l-1.1-0.1L56.3,135.6z M57.9,136 l1.1,0.3l-0.7,1.9l-1.2-0.2L57.9,136z M59.9,136.6c0,0,14.2,3,23.3,2.5c9.1-0.6,13.1-1.3,13.1-1.3l1.6,1.8c0,0-5.9,1.2-8.3,1.4 s-5.4,1.2-15.8,0S59,138.2,59,138.2L59.9,136.6z M69.7,132.5c0-1.7,1.4-3.1,3.1-3.1s3.1,1.4,3.1,3.1c0,1.7-1.4,3.1-3.1,3.1 S69.7,134.2,69.7,132.5 M65.7,134.5c-1.7,0-3.1-1.4-3.1-3.1c0-1.7,1.4-3.1,3.1-3.1c1.7,0,3.1,1.4,3.1,3.1 C68.7,133.1,67.4,134.5,65.7,134.5 M76.9,132.3c0.1-3.3-3.6-3.8-3.6-3.8l9.8-16.6c10.2,9.5,13.4,14.8,15.9,18 c-1.6,0.2-3.1,3-3.8,4.7c-4.6,1.5-20.2,1.1-20.2,1.1S76.8,135.7,76.9,132.3 M101.1,124.8c-1.4-2.4-9.5-13.2-15.5-16.9 c1.1-2.9,1.6-3.2,1.6-3.2s12.4,9.5,17.4,18C104.5,122.7,102.5,122.4,101.1,124.8 M100.7,125.4c0,0-0.9,2.5-0.8,3.8 c-1.8-2.7-11.9-15.5-16.2-18.1l1.4-2.5C85.2,108.6,95.8,117.6,100.7,125.4 M104.4,117.2l3.6,4.6l-0.3,1.4l-1.5-0.4 c0,0-8.5-13.1-18.1-19.3l1.1-1.7C89.2,101.8,99.8,110.6,104.4,117.2 M126.8,36.7l-55.1,91.8c0,0-1.2,0.1-2.4,1.8 c-0.7-1.8-3.3-3.1-4.8-2.4c0-0.5,0-0.5,0-0.5l63.9-105.7L126.8,36.7z M43.3,48.8c7.9,8.4,17.7,23.3,21.3,34.2 c3.6,11,4.4,19.5,4.4,19.5l-0.9,1.5c0,0-0.2-0.6-1.9-10C62.6,80.3,56.6,70.3,51,61.3S35.1,43.1,35.1,43.1l1-1.6 C36.1,41.5,36.4,41.8,43.3,48.8 M67.2,105.8l-5.7,9.6c0,0-0.2-0.2-0.2-4.1C62.9,92.8,50.4,72.9,46,65.8 c-4.4-7.1-15.3-18.7-15.3-18.7l3.8-3.2c0,0,9.3,8.8,12.6,13.8c3.3,5,8,9.5,13.2,22.7C65.6,93.6,67.2,105.8,67.2,105.8 M20.2,34.5 c0.9-6.7,4.4-8.8,6.7-8.9c2.3,0,4.4,3.1,3,5.9c-1.3,2.8-0.1,6.4-0.1,6.4l-1,0.8c0,0-2.4-2-1.1-6.1c1.2-4.1-2.3-4.6-3.6-2.3 c-1.3,2.3-3.5,6.4,0.7,13.6l-0.5,1.5C24.3,45.5,19.3,41.2,20.2,34.5 M28,39.7c0,0-2.5,2.3-2.6,3.1c-0.1,0.8-2.3-3.8-2.2-5.7 c0.1-1.9,0.4-5.4,3.2-7.3c1,0.3-0.2,2.6-0.5,3.5C25.7,34.2,27,39.1,28,39.7 M25.7,52.5c-0.7-0.7-1.4-5.8,1.1-10 c2.5-4.1,5.5-4.6,6.6-5.9c1.2-1.3,3.4-2.9,3.5-4.7c0,0,2.1,3.1,0,6.6c-2.1,3.5-6.4,7-7.4,8.2C28.6,47.9,26,51.2,25.7,52.5 M57.1,96.4C52.3,78.9,45.8,71,42.6,66.1c-2.8-5.8-13.8-17-13.8-17l1.5-1.5c0,0,11,11.5,16.5,20.5c5.5,9,9.8,18.7,12,26.4 c2.2,7.7,1.8,21.6,1.7,22.3l-2.6,4C57.9,120.9,60.9,113.8,57.1,96.4 M114.9,29.2l11.5-6.7L63,127.8c0,0-0.2-0.9-2.1-2 c-1.9-1.1-3.7,0.2-3.7,0.2L114.9,29.2z M49.3,125.7c0-1.7,1.4-3.1,3.1-3.1c1.7,0,3.1,1.4,3.1,3.1c0,1.7-1.4,3.1-3.1,3.1 C50.7,128.8,49.3,127.4,49.3,125.7 M56.2,129.3c0-1.7,1.4-3.1,3.1-3.1c1.7,0,3.1,1.4,3.1,3.1c0,1.7-1.4,3.1-3.1,3.1 C57.6,132.4,56.2,131,56.2,129.3 M48.3,131.2c0,0,13.3,4.2,21.4,5.1c8.1,0.9,19.4,1.3,25.9-0.6l0.3,1.1c0,0-4.8,1.2-8.6,1.4 c-3.9,0.2-16.1-0.1-25.3-2S47.9,132,47.9,132L48.3,131.2z M46.2,134.6l0.8-1.9l0.8,0.3l-0.8,1.8L46.2,134.6z M47.7,135.1l0.8-1.9 l0.8,0.3l-0.8,1.8L47.7,135.1z M50.1,133.6l0.8,0.3l-0.8,1.8l-0.8-0.1L50.1,133.6z M44.9,136.6l0.4-1c0,0,11.2,3.7,16.1,4.5 s13.3,2.4,17.6,2.4s8.4-0.2,10.9-0.6s8.2-1.4,8.2-1.4l0.4,1c0,0-1.7,0.3-5.4,1s-11.5,1.1-14.6,1.1s-1.6,0.2-5-0.2 s-12.8-2.4-12.8-2.4L44.9,136.6z M56.9,140.9l1.8,0.4l-1.8,0.9V140.9z M56.4,142.7l-5.5,0.9l-0.2-4.9l5.8,1.6V142.7z M44.3,137.3 l2,0.7l-0.8,1.2L44.3,137.3z M48.6,138.5l1.3,0.2v4.4h-4.7L48.6,138.5z M39.2,139.6v0.9l-0.3,0l-0.2-1.2h-0.8l0.2,2.1l-0.4,0 l-0.6-1.7l-0.5,0.2L37,142l-0.4-0.1l-0.7-2l-0.8,0.3h-0.7v1.4l-0.6,0.1c0,0-0.2-4-4.4-8.9s-5.9-6.4-8.5-6.3l-0.7,0v-0.4 c0,0,4-2.8,7.7-1c3.7,1.8,5.8,6.6,5.8,6.7c0,0.1-2.5-7.8,4-11.8c4.3-2.6,5.2-2.3,5.2-2.3s-3.8,5.8-3.8,12.6 c0.1,5.7,1.8,10.7,2.3,12.3h-0.7l-0.9-3.4L39.2,139.6z M17.8,154.8c-0.5-2.2-1.7-7.1,6-10.1l-0.3-0.7c0,0-6.7-1.9-6.8-7.3 c-0.1-2.5,0.8-3.3,0.8-3.3s1.8,6.1,10.2,8.5c8.4,2.4,17,2.2,17,2.2h8.2c1.2,0,6-1.2,6.8-2.6l4.4,1.2c0,0-4.8,3.4-8.7,4 s-14.6,0.6-15.9,0.7c-1.3,0-5.7-0.4-9,0.3C27,148.3,21.8,149.2,17.8,154.8 M39.3,147.9c2.2,0.2,5.6,0,5.6,0s3.2,3.4,8.3,5.8 l-1.6,0.2c0,0,1.5,1.7,2.3,2c0.7,0.3-0.3,0.4-1.8,0.1C50.4,155.6,41.4,152.1,39.3,147.9 M35.8,151.7c0.2,1,2.2,9.3,2.9,10.9 c0.6,1.7,2.2,5.8,2.5,6.2c0.3,0.4,0.3-0.9-0.3-2.8c-0.6-2-2.5-7-2.9-9.4c-0.5-2.5-1.3-5.9-0.8-6.5c0,0,0.7,0.4,0.7,1.4 c0,1,2,7.6,3.1,10.4c1,2.8,4.8,13.8,2.9,16.6c-1.9,2.8-3.1,3.5-3.1,3.5s0-1.5,0-3.1c0-1.7-0.6-4.9-1.4-6.8c-0.7-1.9-1.6-5-2.5-8 c-0.9-3-2.7-8.7-2.2-9.3c0.5,0.7,0.8,2.7,1.1,3.9c0.3,1.1,2.7,8.2,3.3,9c0.6,0.8,0.5-0.5,0-1.5s-3.1-9.8-3.4-11.7 C35.2,152.4,35.6,150.6,35.8,151.7 M30.4,158c1.1-0.2,2.3,8.8,3,10.6c0.6,1.8,1.3,2.6,0.8,0.7c-0.6-1.9-3.3-12.1-2.4-13.2 c1.5,6.4,3.4,13.1,4.2,13.5c0.2-1.1-2.8-9.7-3-12.2c-0.2-2.5,0.2-2.9,0.2-2.9s0.2-0.3,0.7,2.5c0.5,2.8,3,11.2,3.4,12.8 c0.4,1.6,3.7,9.9,0.9,14c-2,2.6-2.9,2.3-2.9,2.3s0.8-6-1.1-10.5c-1.2-4.2-2.8-11.6-3.2-13.2C30.4,160.8,29.4,158.2,30.4,158 M26.6,165.4c0.7,1.6,2.7,8.4,3.2,11.1c0.5,0.4,1-0.4,0.5-2.1c-0.8-1.4-2.5-7.4-2-8.8c1.2,4,2.5,9.1,3.3,9.2 c0.1-0.9-0.9-3.1-1.1-4.1c-0.2-1-2.3-8.9-1.4-10.1c0,0,2,8.5,2.7,10.6c0.7,2.2,3,13.8,1.9,15.8c-1.1,1.9-3.6,2.5-3.6,2.5 s0.3-4.4,0.2-6.5c-0.1-2.1-1-4.9-1.5-7.1C28.4,173.7,25.9,166.6,26.6,165.4 M22,184c-0.1-0.9-0.2-2.2,0.3-1.8 c0.4,0.4,0.6,2.2,0.6,2.2S22.1,185,22,184 M23.6,184.3c-0.1-0.4-1.7-6.4-1.2-7c0.4-0.6,0.6,0.5,1.3,3.2c0.8,2.7,0.4,4.2,0.4,4.2 S23.7,184.7,23.6,184.3 M25.1,185c0.2-1.7-0.7-5.9-1.7-8.3c-0.4-2.7,0.9-4.6,0.9-4.6s1.6,8.8,2.5,10.3c0.6,0.8,0.7-1.3,0.4-2.6 c-0.4-1.3-1.4-3.9-1.7-5.1c-0.3-1.2-0.7-6.5,0-5.7c0.7,0.8,1.8,5.7,2.4,7.9c0.6,2.2,1.5,11.1,1.1,11.4c0,0,0,0,0-0.1 C28.6,187.8,26.5,185.2,25.1,185 M15.9,191.1c0.6,2.9,0.3,5.4,4.4,7.4c1.5,0.4,1.9,0,0.7-0.4c-1.2-0.4-4.9-2.2-3.7-7.2 c1.1-5,11.1-4.7,10,3l0.6,0c0,0,1.2-3.3-2.2-6.7c0,0,1.4-0.1,2.6,2.6c1.1,2.7,0.8,6.6-2.6,8.6c-3.3,2-6.4,0.8-7.5-0.2 C17.2,197.2,14.8,194.6,15.9,191.1 M14.3,202.6c-0.3-1.6,0.9-3.4,2.2-3.7c1.3-0.3,3.4,1.2,3.6,2.3c0,0,0.8,1.8-1.2,3 C17,205.4,14.7,204.2,14.3,202.6"/><path class="st0" d="M73,134.1c0,0-2-0.5-1.6-2c0.3-1.5,3.1-1.5,2.9,0.9c0,0,0.8,0.4,0.8-0.4c0-0.8-0.7-2.1-2.1-2.3 c-1.4-0.2-2.6,1.3-2.2,2.8c0.4,1.5,1.4,1.6,2.2,1.8C73,134.3,73,134.1,73,134.1"/><path class="st0" d="M118,186.9c0,0-2.6-3.1-3.7-4.1c-1.1-1.1-3-1.9-1.9-0.2c1.3,2.3,4.7,10.4,5,11.1c0.3,0.7,0.7,0.8,1.1,0.4 c0.8-2.4,5.9-10.8,5.9-10.8c0.1-0.2,0.7-1-0.4-0.5C121.2,183.6,118,186.9,118,186.9 M118.1,192.7c-0.4-0.6-3-6.7-4.1-8.6 c1.5,1,3.7,3.9,3.7,3.9s3.6-2.7,4.3-3C122.1,185,118.4,191.7,118.1,192.7"/><path class="st0" d="M65.8,129.1c-1.4-0.2-2.6,1.3-2.2,2.8c0.4,1.5,1.4,1.6,2.2,1.8c0.1-0.5,0-0.7,0-0.7s-2-0.5-1.6-2 c0.3-1.5,3.1-1.5,2.9,0.9c0,0,0.8,0.4,0.8-0.4C67.9,130.6,67.2,129.3,65.8,129.1"/><path class="st0" d="M52.5,127.2c0,0-2-0.5-1.6-2c0.3-1.5,3.1-1.5,2.9,0.9c0,0,0.8,0.4,0.8-0.4c0-0.8-0.7-2.1-2.1-2.3 c-1.4-0.2-2.6,1.3-2.2,2.8c0.4,1.5,1.4,1.6,2.2,1.8C52.6,127.5,52.5,127.2,52.5,127.2"/><path class="st0" d="M59.4,130.8c0,0-2-0.5-1.6-2c0.3-1.5,3.1-1.5,2.9,0.9c0,0,0.8,0.4,0.8-0.4c0-0.8-0.7-2.1-2.1-2.3 c-1.4-0.2-2.6,1.3-2.2,2.8c0.4,1.5,1.4,1.6,2.2,1.8C59.5,131.1,59.4,130.8,59.4,130.8"/><path class="st0" d="M118.4,141.5c0,0,0.3,0.8,0.7,0.8c0.3,0,0.5-0.7,0-0.8C118.5,141.4,118.4,141.3,118.4,141.5"/></svg>