<svg version="1.1" id="Layer_1" xmlns="http://www.w3.org/2000/svg" x="0px" y="0px" viewBox="0 0 141.7 226.8" style="enable-background:new 0 0 141.7 226.8" xml:space="preserve"><style>.st0{fill:#1D1D1B}.st2{fill:#FFDC00}.st3{fill:none;stroke:#1D1D1B;stroke-width:1.5;stroke-miterlimit:10}.st4{fill:none;stroke:#1D1D1B;stroke-miterlimit:10}.st5{fill:none;stroke:#FFDC00;stroke-miterlimit:10}</style><path class="st0" d="M13.6,19.6c0.4,0,0.7,0,0.9-0.1c0.2-0.1,0.3-0.2,0.4-0.3c0.1-0.1,0.2-0.3,0.3-0.6h1L16,21.8h-8v-0.6 C8.2,20.6,8.5,20,9,19.4c0.5-0.7,1-1.4,1.7-2.2c0.6-0.7,1.1-1.4,1.4-1.8c0.3-0.5,0.6-0.9,0.7-1.4c0.2-0.4,0.2-0.9,0.2-1.3 c0-0.6-0.1-1.2-0.4-1.5c-0.3-0.4-0.7-0.6-1.2-0.6c-0.5,0-0.9,0.2-1.2,0.5c-0.3,0.3-0.5,0.9-0.7,1.6H8.1v-2.1 c0.7-0.3,1.3-0.5,1.7-0.6c0.4-0.1,0.8-0.2,1.2-0.3c0.4-0.1,0.8-0.1,1.3-0.1c0.9,0,1.6,0.1,2.1,0.3c0.5,0.2,0.9,0.5,1.2,0.9 c0.2,0.4,0.4,0.9,0.4,1.4c0,0.5-0.1,0.9-0.3,1.3c-0.2,0.4-0.5,0.9-0.9,1.4c-0.4,0.5-1.1,1.2-2.1,2.2c-0.5,0.4-0.9,0.9-1.3,1.3 c-0.4,0.5-0.7,0.8-0.9,1.1v0.1H13.6z"/><path class="st0" d="M126.8,207.3c-0.4,0-0.7,0-0.9,0.1c-0.2,0.1-0.3,0.2-0.4,0.3c-0.1,0.1-0.2,0.3-0.3,0.6h-1l0.2-3.2h8v0.6 c-0.2,0.6-0.6,1.2-1.1,1.8c-0.5,0.7-1,1.4-1.7,2.2c-0.6,0.7-1.1,1.4-1.4,1.8c-0.3,0.5-0.6,0.9-0.7,1.4c-0.2,0.4-0.2,0.9-0.2,1.3 c0,0.6,0.1,1.2,0.4,1.5c0.3,0.4,0.7,0.6,1.2,0.6c0.5,0,0.9-0.2,1.2-0.5c0.3-0.3,0.5-0.9,0.7-1.6h1.6v2.1c-0.7,0.3-1.3,0.5-1.7,0.6 c-0.4,0.1-0.8,0.2-1.2,0.3c-0.4,0.1-0.8,0.1-1.3,0.1c-0.9,0-1.6-0.1-2.1-0.3c-0.5-0.2-0.9-0.5-1.2-0.9c-0.2-0.4-0.4-0.9-0.4-1.4 c0-0.5,0.1-0.9,0.3-1.3c0.2-0.4,0.5-0.9,0.9-1.4c0.4-0.5,1.1-1.2,2.1-2.2c0.5-0.4,0.9-0.9,1.3-1.3c0.4-0.5,0.7-0.8,0.9-1.1v-0.1 H126.8z"/><polygon points="104.9,219.7 82.1,219.7 62.8,219.7 40,219.7 25.3,219.7 5.4,219.7 5.4,7 24.6,7 40,7 62.8,7 82.1,7 104.9,7 118.5,7 136.3,7 136.3,219.7 118.2,219.7" style="fill:none;stroke:#1D1D1B;stroke-width:1.614;stroke-miterlimit:10"/><path class="st2" d="M70.9,108.3c-26.2,0-47.4-21.2-47.4-47.4c0-26.2,21.2-47.4,47.4-47.4c26.2,0,47.4,21.2,47.4,47.4 C118.2,87.1,97,108.3,70.9,108.3"/><circle class="st3" cx="70.9" cy="60.9" r="47.4"/><circle class="st4" cx="71.1" cy="60.9" r="40.2"/><path class="st0" d="M99.3,65.7l8.1,9.1l-12.1,1.4l4,11.5l-11.7-3.3l-0.7,12.2L77.3,89l-5.3,11l-5.9-10.7L57,97.4l-1.4-12.1 l-11.5,4l3.3-11.7l-12.2-0.7l7.6-9.6l-11-5.3l10.7-5.9L34.3,47l12.1-1.4l-4-11.5l11.7,3.3l0.7-12.2l9.6,7.6l5.3-11l5.9,10.7 l9.1-8.1l1.4,12.1l11.5-4l-3.3,11.7l12.2,0.7l-7.6,9.6l11,5.3L99.3,65.7z M70.7,86.6c-14,0-25.4-11.4-25.4-25.6 s11.4-25.6,25.4-25.6c14,0,25.4,11.4,25.4,25.6S84.7,86.6,70.7,86.6"/><path class="st2" d="M93.8,61c0-12.8-10.3-23.2-23-23.2c-12.7,0-23,10.4-23,23.2c0,12.8,10.3,23.2,23,23.2 C83.5,84.1,93.8,73.8,93.8,61 M76.3,63.9l9.6,11.5l-12-9.3l-0.7,0.4c0,0,2.8,10.8,5.3,13.1c-0.4,0.9-3.8,2.4-8.1,2 c-4.2-0.5-6.3-1.3-6.3-1.3s4.3-10.1,3.9-13.5l-0.4-0.2l-11.2,9.2l-0.3-0.2l9.5-11.1l-0.5-1.1c0,0-8.5,2.3-12.7,5.1 c-0.6,0.3-1.2-1.3-1.5-2.8c-0.3-1.4-1.4-7.9,0.6-11.8c2.8,1.1,10.6,4.7,13.8,4.3c0.3-0.3,0.3-0.4,0.3-0.4l-9.6-11.5l12.1,9.2 c0,0,0.2-4.9-4.2-13.4l0-0.7c0,0,9.1-3,14.4,0.3v0.8c0,0-5,8.2-4.6,13l0.4,0.2L85.9,46l0.2,0.4L76.5,58c0,0,5.9,0,13.7-4.2 c0,0,3.7,7.1,0,14.6l-0.6,0c0,0-9.3-4.8-13-4.8L76.3,63.9z"/><path class="st2" d="M76.2,60.8c0-2.9-2.4-5.3-5.3-5.3c-2.9,0-5.3,2.4-5.3,5.3s2.4,5.3,5.3,5.3C73.8,66.1,76.2,63.7,76.2,60.8"/><path class="st2" d="M52.1,55c0,0-2.8,6.5,0,12c4.6-2.4,10-3.7,12.9-4c-0.1-0.7-12.5-1.3-13.3-1.8l0-0.4c0,0,11.6-0.7,13-1.2l0-0.4 C64.7,59.3,57.5,58.3,52.1,55"/><path class="st2" d="M76.9,42.2c0,0-6.5-2.8-12,0c2.4,4.6,3.7,10,4,12.9c0.7-0.1,1.3-12.5,1.8-13.3l0.4,0c0,0,0.7,11.6,1.2,13 l0.4,0C72.7,54.9,73.7,47.6,76.9,42.2"/><path class="st2" d="M65.6,79.6c0,0,6.1,2.7,11.3,0c-2.2-4.5-3.5-9.8-3.7-12.6c-0.7,0.1-1.2,12.2-1.7,13l-0.4,0 c0,0-0.6-11.3-1.2-12.7l-0.4,0C69.6,67.2,68.6,74.3,65.6,79.6"/><path class="st2" d="M89.7,67c0,0,2.8-6.5,0-12c-4.6,2.4-10,3.7-12.9,4c0.1,0.7,12.5,1.3,13.3,1.8l0,0.4c0,0-11.6,0.7-13,1.2l0,0.4 C77.1,62.8,84.4,63.8,89.7,67"/><path class="st5" d="M96,61c0-14-11.2-25.3-25.1-25.3S45.8,47,45.8,61S57,86.3,70.9,86.3S96,75,96,61z"/><path class="st2" d="M70.9,212.6c-26.2,0-47.4-21.2-47.4-47.4c0-26.2,21.2-47.4,47.4-47.4c26.2,0,47.4,21.2,47.4,47.4 C118.2,191.4,97,212.6,70.9,212.6"/><circle class="st3" cx="70.9" cy="165.2" r="47.4"/><circle class="st4" cx="71.1" cy="165.2" r="40.2"/><path class="st0" d="M99.3,170l8.1,9.1l-12.1,1.4l4,11.5l-11.7-3.3l-0.7,12.2l-9.6-7.6l-5.3,11l-5.9-10.7l-9.1,8.1l-1.4-12.1 l-11.5,4l3.3-11.7l-12.2-0.7l7.6-9.6l-11-5.3l10.7-5.9l-8.1-9.1l12.1-1.4l-4-11.5l11.7,3.3l0.7-12.2l9.6,7.6l5.3-11l5.9,10.7 l9.1-8.1l1.4,12.1l11.5-4l-3.3,11.7l12.2,0.7l-7.6,9.6l11,5.3L99.3,170z M70.7,190.8c-14,0-25.4-11.4-25.4-25.6 c0-14.1,11.4-25.6,25.4-25.6c14,0,25.4,11.4,25.4,25.6C96.1,179.4,84.7,190.8,70.7,190.8"/><path class="st2" d="M93.8,165.3c0-12.8-10.3-23.2-23-23.2c-12.7,0-23,10.4-23,23.2c0,12.8,10.3,23.2,23,23.2 C83.5,188.4,93.8,178.1,93.8,165.3 M76.3,168.1l9.6,11.5l-12-9.3l-0.7,0.4c0,0,2.8,10.8,5.3,13.1c-0.4,0.9-3.8,2.4-8.1,2 c-4.2-0.5-6.3-1.3-6.3-1.3s4.3-10.1,3.9-13.5l-0.4-0.2l-11.2,9.2l-0.3-0.2l9.5-11.1l-0.5-1.1c0,0-8.5,2.3-12.7,5.1 c-0.6,0.3-1.2-1.3-1.5-2.8c-0.3-1.4-1.4-7.9,0.6-11.8c2.8,1.1,10.6,4.7,13.8,4.3c0.3-0.3,0.3-0.4,0.3-0.4l-9.6-11.5l12.1,9.2 c0,0,0.2-4.9-4.2-13.4l0-0.7c0,0,9.1-3,14.4,0.3v0.8c0,0-5,8.2-4.6,13l0.4,0.2l11.8-9.6l0.2,0.4l-9.6,11.6c0,0,5.9,0,13.7-4.2 c0,0,3.7,7.1,0,14.6l-0.6,0c0,0-9.3-4.8-13-4.8L76.3,168.1z"/><path class="st2" d="M76.2,165.1c0-2.9-2.4-5.3-5.3-5.3c-2.9,0-5.3,2.4-5.3,5.3c0,2.9,2.4,5.3,5.3,5.3 C73.8,170.4,76.2,168,76.2,165.1"/><path class="st2" d="M52.1,159.3c0,0-2.8,6.5,0,12c4.6-2.4,10-3.7,12.9-4c-0.1-0.7-12.5-1.3-13.3-1.8l0-0.4c0,0,11.6-0.7,13-1.2 l0-0.4C64.7,163.5,57.5,162.5,52.1,159.3"/><path class="st2" d="M76.9,146.5c0,0-6.5-2.8-12,0c2.4,4.6,3.7,10,4,12.9c0.7-0.1,1.3-12.5,1.8-13.3l0.4,0c0,0,0.7,11.6,1.2,13 l0.4,0C72.7,159.2,73.7,151.9,76.9,146.5"/><path class="st2" d="M65.6,183.9c0,0,6.1,2.7,11.3,0c-2.2-4.5-3.5-9.8-3.7-12.6c-0.7,0.1-1.2,12.2-1.7,13l-0.4,0 c0,0-0.6-11.3-1.2-12.7l-0.4,0C69.6,171.5,68.6,178.6,65.6,183.9"/><path class="st2" d="M89.7,171.3c0,0,2.8-6.5,0-12c-4.6,2.4-10,3.7-12.9,4c0.1,0.7,12.5,1.3,13.3,1.8l0,0.4c0,0-11.6,0.7-13,1.2 l0,0.4C77.1,167.1,84.4,168.1,89.7,171.3"/><path class="st5" d="M96,165.3c0-14-11.2-25.3-25.1-25.3s-25.1,11.3-25.1,25.3c0,14,11.2,25.3,25.1,25.3S96,179.3,96,165.3z"/></svg>