<svg version="1.1" id="Layer_1" xmlns="http://www.w3.org/2000/svg" x="0px" y="0px" viewBox="0 0 141.7 226.8" style="enable-background:new 0 0 141.7 226.8" xml:space="preserve"><style>.st0{fill:#1D1D1B}.st1{fill:none;stroke:#1D1D1B;stroke-width:1.613;stroke-miterlimit:10}.st2{fill:#DA0812}.st3{fill:none;stroke:#DA0812;stroke-miterlimit:10}.st4{fill:#FFDC00}.st5{fill:#0080C8}</style><path class="st0" d="M8.3,12.6v-2.1c1.5-0.6,2.8-1,4-1c0.7,0,1.4,0.1,1.9,0.3c0.6,0.2,1,0.5,1.3,0.9c0.3,0.4,0.5,0.9,0.5,1.4 c0,0.5-0.1,0.9-0.3,1.3c-0.2,0.4-0.5,0.7-0.8,1c-0.4,0.3-0.8,0.6-1.4,0.8v0.1c0.5,0.1,1,0.3,1.4,0.5c0.4,0.3,0.8,0.6,1,1 c0.2,0.4,0.4,0.9,0.4,1.5c0,0.7-0.2,1.3-0.5,1.8c-0.3,0.5-0.8,1-1.5,1.3c-0.7,0.3-1.5,0.5-2.4,0.5c-0.7,0-1.3-0.1-1.9-0.2 c-0.6-0.1-1.2-0.3-1.7-0.5V19h1.6c0.2,0.7,0.4,1.2,0.7,1.5c0.3,0.3,0.7,0.5,1.2,0.5c1.2,0,1.9-0.8,1.9-2.3c0-0.8-0.2-1.4-0.7-1.9 c-0.4-0.4-1.1-0.6-2-0.6h-0.7v-1c1,0,1.8-0.3,2.3-0.7c0.5-0.4,0.8-1.1,0.8-1.9c0-0.7-0.1-1.1-0.4-1.5c-0.3-0.3-0.6-0.5-1.1-0.5 c-0.3,0-0.6,0.1-0.8,0.2c-0.2,0.1-0.5,0.3-0.6,0.7c-0.2,0.3-0.3,0.7-0.4,1.2H8.3z"/><path class="st0" d="M133.7,214.3v2.1c-1.5,0.6-2.8,1-4,1c-0.7,0-1.4-0.1-1.9-0.3c-0.6-0.2-1-0.5-1.3-0.9c-0.3-0.4-0.5-0.9-0.5-1.4 c0-0.5,0.1-0.9,0.3-1.3c0.2-0.4,0.5-0.7,0.8-1c0.4-0.3,0.8-0.6,1.4-0.8v-0.1c-0.5-0.1-1-0.3-1.4-0.5c-0.4-0.3-0.8-0.6-1-1 c-0.2-0.4-0.4-0.9-0.4-1.5c0-0.7,0.2-1.3,0.5-1.8c0.3-0.5,0.8-1,1.5-1.3c0.7-0.3,1.5-0.5,2.4-0.5c0.7,0,1.3,0.1,1.9,0.2 c0.6,0.1,1.2,0.3,1.7,0.5v2.2h-1.6c-0.2-0.7-0.4-1.2-0.7-1.5c-0.3-0.3-0.7-0.5-1.2-0.5c-1.2,0-1.9,0.8-1.9,2.3 c0,0.8,0.2,1.4,0.7,1.9c0.4,0.4,1.1,0.6,2,0.6h0.7v1c-1,0-1.8,0.3-2.3,0.7c-0.5,0.4-0.8,1.1-0.8,1.9c0,0.7,0.1,1.1,0.4,1.5 c0.3,0.3,0.6,0.5,1.1,0.5c0.3,0,0.6-0.1,0.8-0.2c0.2-0.1,0.5-0.3,0.6-0.7c0.2-0.3,0.3-0.7,0.4-1.2H133.7z"/><polyline class="st1" points="38.7,219.7 5.5,219.7 5.5,7 38,7"/><polyline class="st1" points="102.5,7 136.3,7 136.3,219.7 102.2,219.7"/><line class="st1" x1="88.5" y1="219.7" x2="52.5" y2="219.7"/><line class="st1" x1="88.5" y1="7" x2="52.5" y2="7"/><path class="st2" d="M100.6,46.4C100.6,46.4,100.6,46.4,100.6,46.4C100.6,46.4,100.6,46.4,100.6,46.4z"/><path class="st3" d="M100.6,46.4C100.6,46.4,100.6,46.4,100.6,46.4C100.6,46.4,100.6,46.4,100.6,46.4z"/><polygon class="st2" points="101,46.1 100.3,46.8 100.2,46.7 100.9,46"/><polygon class="st3" points="101,46.1 100.3,46.8 100.2,46.7 100.9,46"/><path class="st4" d="M126.9,79c0.5,1,0.1,1.9-1,2.1c-0.3,0.1-0.7-0.1-1,0.2c1.1,0.8,2.6,0.6,3.3-0.4c0.6-0.8,0.4-1.8-0.5-2.5 c-0.3-0.2-0.7-0.6-1-0.4C126.4,78.3,126.8,78.7,126.9,79"/><path class="st4" d="M108,21.5c0.9,0.5,1.2,1.1,0.7,1.8c-0.4,0.6-1,0.8-1.7,0.3C108.2,23.2,108.2,23.2,108,21.5"/><path class="st5" d="M103.5,198.5c-0.6-1.4-1.1-2.8-1.9-4c-1.9-3.1-2-6.5-1.9-10c0.1-5.4,0.1-10.8,0.2-16.2 c0.1-7.6,0.2-15.3,0.2-22.9c0.1-10.4,0.2-20.8,0.3-31.2c0.1-9.8,0.2-19.7,0.3-29.6c0-1.7,0.1-3.4,0.1-5.1c0.1,0,0.1,0,0.2,0 c0.2,0,0.3,0,0.5,0.1c1.5,0.9,3,1.7,4.5,2.6c0.4,0.3,0.5,0.7,0.5,1.1c-0.1,7.7-0.2,15.4-0.3,23.1c-0.1,7.4-0.2,14.8-0.3,22.1 c-0.1,9.7-0.2,19.3-0.3,29c-0.1,10.2-0.3,20.4-0.4,30.6c-0.1,4.1-0.1,8.2-0.1,12.3c0,0.2,0.1,0.4-0.2,0.7 C104.4,200.2,103.9,199.4,103.5,198.5"/><path class="st5" d="M107,83.2L107,83.2c-0.1,4.5-0.1,8.9-0.2,13.2l-0.1,10c0,3.6-0.1,7.3-0.1,10.9c-0.1,3.7-0.1,7.5-0.1,11.2 c-0.1,4.1-0.1,8.2-0.1,12.3c-0.1,5.6-0.1,11.1-0.2,16.7c-0.1,5.9-0.2,11.9-0.2,17.8l-0.2,12.8c0,2.3-0.1,4.5-0.1,6.8 c0,1.8,0,3.7-0.1,5.5c0,0.1,0,0.2,0,0.2c0,0.3-0.1,0.6-0.4,0.8l-0.5,0.4l-1.5-3.2c-0.2-0.4-0.4-0.9-0.6-1.3 c-0.4-0.9-0.8-1.9-1.3-2.7c-1.7-2.9-2-5.9-2-8.7c0-0.5,0-1,0-1.6c0.1-3.7,0.1-7.4,0.1-11.1c0-1.7,0-3.4,0-5.2l0.1-10.2 c0-4.2,0.1-8.5,0.1-12.7l0.3-31.2c0.1-9.9,0.2-19.7,0.3-29.6c0-1.2,0-2.3,0.1-3.5l0-2l0.6-0.1c0.4-0.1,0.7,0.1,0.9,0.2l4.4,2.5 C106.9,82.1,107,82.7,107,83.2 M104.5,199.4c0-1.5,0-3,0-4.4c0-2.3,0-4.5,0.1-6.8l0.2-12.8c0.1-5.9,0.2-11.9,0.2-17.8 c0.1-5.6,0.1-11.1,0.2-16.7c0-4.1,0.1-8.2,0.1-12.3c0-3.7,0.1-7.5,0.1-11.2c0-3.6,0.1-7.3,0.1-10.9l0.1-10 c0.1-4.4,0.1-8.8,0.2-13.2l0.5-0.1H106c0-0.4-0.1-0.6-0.2-0.7l-4.4-2.5l0,1c0,1.2-0.1,2.3-0.1,3.5c-0.1,9.9-0.2,19.7-0.3,29.6 l-0.3,31.2c0,4.2-0.1,8.5-0.1,12.7l-0.1,10.2c0,1.7,0,3.4,0,5.2c0,3.6,0,7.4-0.1,11.1c0,0.5,0,1,0,1.5c0,2.7,0.2,5.5,1.8,8.2 c0.5,0.9,1,1.9,1.4,2.8c0.2,0.4,0.4,0.9,0.6,1.3L104.5,199.4z"/><path class="st5" d="M114.5,80.1c-0.1,1.7-0.2,3.4-0.2,5.1c-0.2,10.4-0.4,20.8-0.6,31.2c-0.2,7.6-0.3,15.1-0.5,22.7 c-0.1,6.3-0.3,12.6-0.4,19c-0.2,9-0.4,18.1-0.6,27.2c0,1.5-0.1,3-0.1,4.6c0,0.6-0.1,1.2-0.4,1.8c-1.7,3-3.5,6.1-5.2,9.1 c-0.1,0.1-0.2,0.3-0.2,0.3c-0.1-2.9-0.2-5.9-0.2-8.8c0-3.1,0.1-6.2,0.2-9.3c0.2-9.6,0.3-19.3,0.5-28.9c0.1-6,0.2-12,0.3-18 c0.1-8.6,0.3-17.2,0.4-25.7c0.1-6.6,0.2-13.2,0.4-19.7c0-2.5,0.1-4.9,0.1-7.4c0-0.5,0.2-0.9,0.6-1.2c1.7-1.4,3.6-2.1,5.8-2.4 C114.6,79.6,114.5,79.9,114.5,80.1"/><path class="st5" d="M115,80l-0.1,1.7c0,1.2-0.1,2.3-0.1,3.5c-0.1,4.8-0.2,9.6-0.3,14.4c-0.1,5.6-0.2,11.2-0.3,16.7 c-0.1,4.4-0.2,8.7-0.3,13.1c-0.1,3.2-0.1,6.4-0.2,9.6c-0.1,3.3-0.1,6.6-0.2,9.9c-0.1,3-0.1,6.1-0.2,9.1l-0.1,4.2 c-0.2,7.7-0.3,15.3-0.5,23l0,1.2c0,1-0.1,2-0.1,3.1l0,0.3v0c0,0.8-0.2,1.5-0.5,2c-1,1.8-2.1,3.7-3.1,5.5l-2.1,3.6 c-0.3,0.6-0.6,0.5-0.8,0.5l-0.4-0.1l0-0.4c0-0.9-0.1-1.8-0.1-2.7c-0.1-2-0.1-4.1-0.1-6.2l0-0.5c0-2,0-4,0.1-5.9c0-1,0-1.9,0.1-2.9 l0.1-8.1c0.1-6.9,0.2-13.9,0.4-20.8c0.1-3.2,0.1-6.3,0.1-9.5c0-2.8,0.1-5.7,0.1-8.5c0.1-8.6,0.3-17.2,0.4-25.7 c0.1-5.3,0.2-10.5,0.3-15.8l0.1-6.5c0-1.6,0.1-3.2,0.1-4.9c0-0.6,0.2-1.1,0.8-1.6c1.6-1.4,3.6-2.2,6-2.6l0.2,0l0.2,0.1 c0.4,0.2,0.4,0.7,0.4,0.8L115,80L115,80z M111.7,189.5c0-1,0-2.1,0.1-3.1l0-1.2c0.2-7.7,0.4-15.3,0.5-23l0.1-4.2 c0.1-3,0.1-6.1,0.2-9.1c0.1-3.3,0.1-6.6,0.2-9.9c0.1-3.2,0.1-6.4,0.2-9.6c0.1-4.4,0.2-8.7,0.3-13.1c0.1-5.6,0.2-11.2,0.3-16.7 c0.1-4.8,0.2-9.6,0.3-14.4c0-1.2,0.1-2.3,0.1-3.5l0.1-1.6c0-0.1,0-0.1,0-0.2c-2.1,0.4-3.8,1.1-5.1,2.3c-0.3,0.3-0.4,0.5-0.4,0.9 c0,1.6-0.1,3.3-0.1,4.9l-0.1,6.5c-0.1,5.3-0.2,10.5-0.3,15.8c-0.2,8.6-0.3,17.2-0.4,25.7c0,2.8-0.1,5.7-0.1,8.5 c0,3.2-0.1,6.3-0.1,9.5c-0.1,6.9-0.2,13.9-0.4,20.8l-0.1,8.1c0,1,0,1.9-0.1,2.9c0,1.9-0.1,3.9-0.1,5.9l0,0.5c0,2.1,0.1,4.1,0.1,6.2 c0,0.3,0,0.6,0,1l1.4-2.4c1-1.8,2.1-3.7,3.1-5.5c0.2-0.4,0.4-0.9,0.4-1.5L111.7,189.5z"/><path class="st4" d="M129.4,79.6c0,1.7-1.4,3.2-3,3.3c-1.6,0.1-3.1-1.4-3.2-3.1c0-1.7,1.3-3.3,3-3.3 C127.9,76.3,129.4,77.8,129.4,79.6"/><path class="st4" d="M105.7,28.8c0.2,0,0.4,0.1,0.5,0.4c0,0.3-0.2,0.2-0.4,0.3c-0.6,0.2-1,0.6-0.9,1.3c0,0.3,0.5,0.6-0.1,0.8 c-0.4,0.1-0.7-0.2-0.9-0.5c-0.1-0.1-0.1-0.3-0.1-0.4C103.7,29.6,104.8,28.7,105.7,28.8"/><path class="st4" d="M108.1,31.3c0.2-0.1,0.5,0,0.7,0.2c0.5,0.4,0.5,0.9,0.3,1.4c-0.1,0.6-0.9,1.1-1.6,1.1c-0.3,0-0.6,0-0.7-0.3 c-0.1-0.4,0.3-0.3,0.5-0.4c0.6-0.3,1-0.7,0.7-1.4C108,31.7,107.9,31.4,108.1,31.3"/><path class="st4" d="M106.5,35.6c-0.3-0.1-0.7-0.2-0.7-0.6c0-0.5,0.5-0.3,0.8-0.3c1.2,0.1,2.3-0.1,3-1.1c0.8-1,0.8-2.1,0.4-3.3 c-0.1-0.4-0.4-0.8-0.3-1.4c1.3,0.8,1.6,2,1.5,3.3c-0.1,1.4-0.6,2.5-2,3.1C108.4,35.7,107.4,35.8,106.5,35.6"/><path class="st2" d="M100.9,42.8c0.2-0.8,0.4-1.6,1.2-2.1c0.9-0.5,1.7-1.1,2.6-1.8c-0.6-0.4-1.1-0.1-1.5,0.1 c-0.5,0.2-0.6,0-0.5-0.4c0.2-0.8,0.9-1.1,1.7-0.8c0.9,0.4,1.9,0.5,2.9,0.7c0.6,0.1,0.8,0.3,0.2,0.7c-1.9,1.5-4.1,2.6-6.2,4 C100.8,43.5,100.8,43.1,100.9,42.8"/><path class="st3" d="M100.9,42.8c0.2-0.8,0.4-1.6,1.2-2.1c0.9-0.5,1.7-1.1,2.6-1.8c-0.6-0.4-1.1-0.1-1.5,0.1 c-0.5,0.2-0.6,0-0.5-0.4c0.2-0.8,0.9-1.1,1.7-0.8c0.9,0.4,1.9,0.5,2.9,0.7c0.6,0.1,0.8,0.3,0.2,0.7c-1.9,1.5-4.1,2.6-6.2,4 C100.8,43.5,100.8,43.1,100.9,42.8z"/><path class="st2" d="M108.2,38.8c0,0.4-0.3,0.6-0.5,0.8c-1.2,1-2.5,1.7-3.8,2.5c-0.8,0.5-1.6,1-2.4,1.5c-0.4,0.3-0.7,0.2-0.8,0.1 c-0.3-0.2-0.5-0.6-0.3-1.1l0.1-0.2c0.2-0.8,0.4-1.6,1.4-2.2c0.3-0.2,0.7-0.4,1-0.7c-0.1,0-0.3,0-0.4-0.1c-0.1-0.1-0.4-0.4-0.3-1 c0.1-0.5,0.4-0.9,0.9-1.2c0.4-0.2,1-0.2,1.5,0c0.7,0.3,1.4,0.4,2.2,0.6l0.5,0.1C107.9,38.2,108.2,38.4,108.2,38.8 M101.5,42.5 c0.7-0.4,1.3-0.8,2-1.2c1.2-0.7,2.4-1.5,3.6-2.3l-0.4-0.1c-0.5-0.1-1-0.2-1.5-0.3l0.5,0.3l-0.6,0.4c-0.3,0.2-0.6,0.4-0.8,0.6 c-0.6,0.4-1.2,0.8-1.8,1.2C101.8,41.4,101.6,41.9,101.5,42.5 M103.3,38.4c0.2-0.1,0.5-0.2,0.8-0.2c-0.2-0.1-0.4-0.1-0.6,0 C103.4,38.3,103.3,38.3,103.3,38.4"/><path class="st3" d="M108.2,38.8c0,0.4-0.3,0.6-0.5,0.8c-1.2,1-2.5,1.7-3.8,2.5c-0.8,0.5-1.6,1-2.4,1.5c-0.4,0.3-0.7,0.2-0.8,0.1 c-0.3-0.2-0.5-0.6-0.3-1.1l0.1-0.2c0.2-0.8,0.4-1.6,1.4-2.2c0.3-0.2,0.7-0.4,1-0.7c-0.1,0-0.3,0-0.4-0.1c-0.1-0.1-0.4-0.4-0.3-1 c0.1-0.5,0.4-0.9,0.9-1.2c0.4-0.2,1-0.2,1.5,0c0.7,0.3,1.4,0.4,2.2,0.6l0.5,0.1C107.9,38.2,108.2,38.4,108.2,38.8z M101.5,42.5 c0.7-0.4,1.3-0.8,2-1.2c1.2-0.7,2.4-1.5,3.6-2.3l-0.4-0.1c-0.5-0.1-1-0.2-1.5-0.3l0.5,0.3l-0.6,0.4c-0.3,0.2-0.6,0.4-0.8,0.6 c-0.6,0.4-1.2,0.8-1.8,1.2C101.8,41.4,101.6,41.9,101.5,42.5z M103.3,38.4c0.2-0.1,0.5-0.2,0.8-0.2c-0.2-0.1-0.4-0.1-0.6,0 C103.4,38.3,103.3,38.3,103.3,38.4z"/><path class="st2" d="M102.4,45.4c-0.6,0.3-1.1,0.7-1.7,1c0,0-0.1,0.1-0.1,0.1c0-0.1,0-0.1,0.1-0.2v0c0.1-0.9,0.9-1.3,1.5-1.8 c2-1.8,4.4-3,6.4-4.8c0.9-0.8,1.8-1.6,2.6-2.5c0.7-0.7,0.9-0.6,1.4,0.2c0.9,1.4,0.6,2.3-0.5,3.5c-2.5,2.7-5.3,4.9-8.3,6.9 c-1.1,0.7-2.2,1.6-3.3,2.4c-0.3,0.2-0.6,0.6-1.2,0.7c1-2.6,3.1-4.2,4.9-6.1C103.4,44.8,103.4,44.8,102.4,45.4"/><path class="st3" d="M102.4,45.4c-0.6,0.3-1.1,0.7-1.7,1c0,0-0.1,0.1-0.1,0.1c0-0.1,0-0.1,0.1-0.2v0c0.1-0.9,0.9-1.3,1.5-1.8 c2-1.8,4.4-3,6.4-4.8c0.9-0.8,1.8-1.6,2.6-2.5c0.7-0.7,0.9-0.6,1.4,0.2c0.9,1.4,0.6,2.3-0.5,3.5c-2.5,2.7-5.3,4.9-8.3,6.9 c-1.1,0.7-2.2,1.6-3.3,2.4c-0.3,0.2-0.6,0.6-1.2,0.7c1-2.6,3.1-4.2,4.9-6.1C103.4,44.8,103.4,44.8,102.4,45.4z"/><path class="st2" d="M113.5,39c0,1-0.6,1.8-1.1,2.4c-2.3,2.5-5.1,4.8-8.4,7c-0.7,0.5-1.5,1-2.2,1.6c-0.4,0.3-0.7,0.5-1.1,0.8 c-0.1,0.1-0.1,0.1-0.2,0.2c-0.3,0.2-0.6,0.5-1.2,0.7l-0.9,0.2l0.3-0.8c0.8-2.1,2.2-3.5,3.6-4.9c0,0,0.1-0.1,0.1-0.1l-2.8,1.7 l0.4-1.4c0.1-0.8,0.7-1.3,1.2-1.7c0.1-0.1,0.3-0.2,0.4-0.3c1.1-1,2.3-1.8,3.4-2.6c1-0.7,2-1.4,3-2.2c0.7-0.6,1.3-1.2,1.9-1.8 l0.6-0.6c0.4-0.4,0.7-0.7,1.2-0.6c0.5,0,0.8,0.5,1,0.9C113.4,37.8,113.5,38.4,113.5,39 M100.5,49.6c0.2-0.2,0.4-0.3,0.7-0.5 c0.7-0.6,1.5-1.1,2.2-1.6c3.3-2.1,6-4.3,8.2-6.8c1.1-1.2,1.2-1.8,0.5-2.9c-0.1-0.1-0.2-0.3-0.3-0.4c-0.1,0-0.2,0.1-0.4,0.3 l-0.6,0.6c-0.6,0.6-1.3,1.3-2,1.9c-1,0.8-2,1.6-3.1,2.3c-1,0.7-2.1,1.4-3,2.2c0.6-0.3,0.9-0.3,1.5-0.1l0.8,0.2l-0.5,0.6 c-0.4,0.5-0.9,0.9-1.4,1.4C102.1,47.6,101.2,48.5,100.5,49.6"/><path class="st3" d="M113.5,39c0,1-0.6,1.8-1.1,2.4c-2.3,2.5-5.1,4.8-8.4,7c-0.7,0.5-1.5,1-2.2,1.6c-0.4,0.3-0.7,0.5-1.1,0.8 c-0.1,0.1-0.1,0.1-0.2,0.2c-0.3,0.2-0.6,0.5-1.2,0.7l-0.9,0.2l0.3-0.8c0.8-2.1,2.2-3.5,3.6-4.9c0,0,0.1-0.1,0.1-0.1l-2.8,1.7 l0.4-1.4c0.1-0.8,0.7-1.3,1.2-1.7c0.1-0.1,0.3-0.2,0.4-0.3c1.1-1,2.3-1.8,3.4-2.6c1-0.7,2-1.4,3-2.2c0.7-0.6,1.3-1.2,1.9-1.8 l0.6-0.6c0.4-0.4,0.7-0.7,1.2-0.6c0.5,0,0.8,0.5,1,0.9C113.4,37.8,113.5,38.4,113.5,39z M100.5,49.6c0.2-0.2,0.4-0.3,0.7-0.5 c0.7-0.6,1.5-1.1,2.2-1.6c3.3-2.1,6-4.3,8.2-6.8c1.1-1.2,1.2-1.8,0.5-2.9c-0.1-0.1-0.2-0.3-0.3-0.4c-0.1,0-0.2,0.1-0.4,0.3 l-0.6,0.6c-0.6,0.6-1.3,1.3-2,1.9c-1,0.8-2,1.6-3.1,2.3c-1,0.7-2.1,1.4-3,2.2c0.6-0.3,0.9-0.3,1.5-0.1l0.8,0.2l-0.5,0.6 c-0.4,0.5-0.9,0.9-1.4,1.4C102.1,47.6,101.2,48.5,100.5,49.6z"/><path class="st2" d="M99.9,56c1-2.4,3.1-3.9,4.8-5.7c-1.9,0.5-3.3,2-4.9,3c-0.1-0.1-0.1-0.1-0.2-0.2c0.6-1.3,1.8-2,2.9-2.8 c2.8-2.2,6-3.9,8.5-6.4c0.9-0.9,1.7-1.7,2.4-2.7c0.5-0.7,0.7-0.5,1.1,0.2c1.1,1.7,0.7,2.9-0.7,4.3c-2.3,2.2-4.8,4.1-7.5,5.7 c-2.1,1.3-4.1,2.7-6,4.3C100.3,55.9,100.2,56.1,99.9,56"/><path class="st3" d="M99.9,56c1-2.4,3.1-3.9,4.8-5.7c-1.9,0.5-3.3,2-4.9,3c-0.1-0.1-0.1-0.1-0.2-0.2c0.6-1.3,1.8-2,2.9-2.8 c2.8-2.2,6-3.9,8.5-6.4c0.9-0.9,1.7-1.7,2.4-2.7c0.5-0.7,0.7-0.5,1.1,0.2c1.1,1.7,0.7,2.9-0.7,4.3c-2.3,2.2-4.8,4.1-7.5,5.7 c-2.1,1.3-4.1,2.7-6,4.3C100.3,55.9,100.2,56.1,99.9,56z"/><path class="st2" d="M115.6,43.3c0,0.9-0.5,1.8-1.4,2.8c-2.1,2-4.5,3.9-7.5,5.8c-2.2,1.4-4.1,2.7-5.9,4.2c-0.2,0.2-0.5,0.4-1,0.3 l-0.5-0.2l0.2-0.5c0.5-1.3,1.4-2.4,2.3-3.4c-0.1,0-0.1,0.1-0.2,0.1c-0.5,0.4-1,0.8-1.6,1.1l-0.3,0.2L99,53.2l0.1-0.3 c0.5-1.2,1.4-1.8,2.3-2.5c0.2-0.2,0.5-0.3,0.7-0.5c1-0.8,2.1-1.5,3.1-2.2c1.8-1.2,3.7-2.5,5.3-4.1c1-1,1.8-1.8,2.4-2.6 c0.3-0.3,0.6-0.6,1-0.6c0.5,0,0.7,0.4,1,0.8C115.4,42,115.6,42.7,115.6,43.3 M101.3,54.5c1.5-1.2,3.1-2.3,4.8-3.4 c2.9-1.8,5.3-3.7,7.4-5.7c1.3-1.3,1.5-2.3,0.6-3.7c0-0.1-0.1-0.2-0.2-0.3c0,0-0.1,0.1-0.1,0.1c-0.7,0.8-1.5,1.7-2.5,2.7 c-1.7,1.6-3.6,3-5.5,4.2c-0.8,0.5-1.6,1.1-2.3,1.6c0.3-0.1,0.6-0.3,1-0.4l1.6-0.4l-1.1,1.2c-0.5,0.6-1,1.1-1.6,1.6 C102.7,52.9,101.9,53.6,101.3,54.5"/><path class="st3" d="M115.6,43.3c0,0.9-0.5,1.8-1.4,2.8c-2.1,2-4.5,3.9-7.5,5.8c-2.2,1.4-4.1,2.7-5.9,4.2c-0.2,0.2-0.5,0.4-1,0.3 l-0.5-0.2l0.2-0.5c0.5-1.3,1.4-2.4,2.3-3.4c-0.1,0-0.1,0.1-0.2,0.1c-0.5,0.4-1,0.8-1.6,1.1l-0.3,0.2L99,53.2l0.1-0.3 c0.5-1.2,1.4-1.8,2.3-2.5c0.2-0.2,0.5-0.3,0.7-0.5c1-0.8,2.1-1.5,3.1-2.2c1.8-1.2,3.7-2.5,5.3-4.1c1-1,1.8-1.8,2.4-2.6 c0.3-0.3,0.6-0.6,1-0.6c0.5,0,0.7,0.4,1,0.8C115.4,42,115.6,42.7,115.6,43.3z M101.3,54.5c1.5-1.2,3.1-2.3,4.8-3.4 c2.9-1.8,5.3-3.7,7.4-5.7c1.3-1.3,1.5-2.3,0.6-3.7c0-0.1-0.1-0.2-0.2-0.3c0,0-0.1,0.1-0.1,0.1c-0.7,0.8-1.5,1.7-2.5,2.7 c-1.7,1.6-3.6,3-5.5,4.2c-0.8,0.5-1.6,1.1-2.3,1.6c0.3-0.1,0.6-0.3,1-0.4l1.6-0.4l-1.1,1.2c-0.5,0.6-1,1.1-1.6,1.6 C102.7,52.9,101.9,53.6,101.3,54.5z"/><path class="st2" d="M104.9,56c-1.6,0.9-3,2.1-4.5,3.2c-0.2,0.1-0.4,0.5-0.6,0.3c-0.3-0.2-0.2-0.6-0.1-0.9c0.1-0.2,0.3-0.4,0.5-0.6 c1.7-1.5,3.4-3.1,5.4-4.3c3.4-2.1,6.6-4.3,9.5-7.1c0.2-0.2,0.4-0.7,0.9-0.5c0.4,0.2,0.3,0.6,0.4,1c0.2,0.8,0.2,1.6,0.4,2.4 c0.1,0.7-0.1,1.3-0.7,1.9c-2.8,3.1-6.4,5.1-9.9,7.2c-2.1,1.3-4,2.7-5.7,4.4c-0.1,0.1-0.2,0.1-0.5,0.2c1.4-3.2,4.2-4.9,6.4-7.1 C105.7,55.5,105.3,55.8,104.9,56"/><path class="st3" d="M104.9,56c-1.6,0.9-3,2.1-4.5,3.2c-0.2,0.1-0.4,0.5-0.6,0.3c-0.3-0.2-0.2-0.6-0.1-0.9c0.1-0.2,0.3-0.4,0.5-0.6 c1.7-1.5,3.4-3.1,5.4-4.3c3.4-2.1,6.6-4.3,9.5-7.1c0.2-0.2,0.4-0.7,0.9-0.5c0.4,0.2,0.3,0.6,0.4,1c0.2,0.8,0.2,1.6,0.4,2.4 c0.1,0.7-0.1,1.3-0.7,1.9c-2.8,3.1-6.4,5.1-9.9,7.2c-2.1,1.3-4,2.7-5.7,4.4c-0.1,0.1-0.2,0.1-0.5,0.2c1.4-3.2,4.2-4.9,6.4-7.1 C105.7,55.5,105.3,55.8,104.9,56z"/><path class="st2" d="M117.2,49.8c0,0.8-0.4,1.4-0.8,1.8c-2.4,2.7-5.5,4.6-8.5,6.4c-0.5,0.3-1,0.6-1.5,0.9c-2.4,1.5-4.1,2.8-5.6,4.3 c-0.1,0.1-0.3,0.2-0.4,0.2c-0.1,0-0.2,0-0.3,0.1l-1.1,0.4l0.5-1c1.1-2.4,2.9-3.9,4.6-5.5c0.3-0.2,0.6-0.5,0.9-0.8 c-1,0.6-1.9,1.3-2.8,2c-0.4,0.3-0.8,0.7-1.3,1c0,0-0.1,0.1-0.1,0.1c-0.4,0.4-0.8,0.5-1.2,0.2c-0.2-0.2-0.4-0.5-0.4-0.8 c0-0.3,0.1-0.5,0.2-0.7c0.2-0.3,0.4-0.6,0.6-0.7c0.3-0.3,0.6-0.5,0.9-0.8c1.4-1.2,2.9-2.5,4.5-3.5c4-2.5,6.9-4.6,9.4-7 c0,0,0.1-0.1,0.1-0.1c0.2-0.2,0.6-0.8,1.3-0.5c0.6,0.2,0.6,0.8,0.6,1.1c0,0.1,0,0.1,0,0.2c0.1,0.5,0.2,1,0.2,1.4 c0,0.3,0.1,0.6,0.1,1C117.1,49.5,117.2,49.6,117.2,49.8 M101.9,60.8c1.1-0.9,2.4-1.8,4-2.8c0.5-0.3,1-0.6,1.5-0.9 c2.9-1.8,6-3.6,8.3-6.2c0.5-0.5,0.6-0.9,0.5-1.5c-0.1-0.3-0.1-0.7-0.1-1c-0.1-0.5-0.1-0.9-0.2-1.4c0-0.1,0-0.2,0-0.3 c0-0.1,0-0.2,0-0.3c0,0-0.1,0.1-0.1,0.2c-0.1,0.1-0.1,0.2-0.2,0.2c-2.5,2.4-5.4,4.7-9.5,7.2c-1.6,1-3,2.2-4.4,3.4 c-0.3,0.3-0.6,0.5-0.9,0.8c-0.1,0.1-0.3,0.3-0.3,0.4c0.4-0.3,0.8-0.6,1.2-0.9c1-0.8,2.1-1.6,3.3-2.3c0.5-0.3,1.1-0.6,1.9-0.1 l0.5,0.3l-0.4,0.4c-0.6,0.6-1.3,1.2-2,1.8C103.6,59,102.7,59.8,101.9,60.8"/><path class="st3" d="M117.2,49.8c0,0.8-0.4,1.4-0.8,1.8c-2.4,2.7-5.5,4.6-8.5,6.4c-0.5,0.3-1,0.6-1.5,0.9c-2.4,1.5-4.1,2.8-5.6,4.3 c-0.1,0.1-0.3,0.2-0.4,0.2c-0.1,0-0.2,0-0.3,0.1l-1.1,0.4l0.5-1c1.1-2.4,2.9-3.9,4.6-5.5c0.3-0.2,0.6-0.5,0.9-0.8 c-1,0.6-1.9,1.3-2.8,2c-0.4,0.3-0.8,0.7-1.3,1c0,0-0.1,0.1-0.1,0.1c-0.4,0.4-0.8,0.5-1.2,0.2c-0.2-0.2-0.4-0.5-0.4-0.8 c0-0.3,0.1-0.5,0.2-0.7c0.2-0.3,0.4-0.6,0.6-0.7c0.3-0.3,0.6-0.5,0.9-0.8c1.4-1.2,2.9-2.5,4.5-3.5c4-2.5,6.9-4.6,9.4-7 c0,0,0.1-0.1,0.1-0.1c0.2-0.2,0.6-0.8,1.3-0.5c0.6,0.2,0.6,0.8,0.6,1.1c0,0.1,0,0.1,0,0.2c0.1,0.5,0.2,1,0.2,1.4 c0,0.3,0.1,0.6,0.1,1C117.1,49.5,117.2,49.6,117.2,49.8z M101.9,60.8c1.1-0.9,2.4-1.8,4-2.8c0.5-0.3,1-0.6,1.5-0.9 c2.9-1.8,6-3.6,8.3-6.2c0.5-0.5,0.6-0.9,0.5-1.5c-0.1-0.3-0.1-0.7-0.1-1c-0.1-0.5-0.1-0.9-0.2-1.4c0-0.1,0-0.2,0-0.3 c0-0.1,0-0.2,0-0.3c0,0-0.1,0.1-0.1,0.2c-0.1,0.1-0.1,0.2-0.2,0.2c-2.5,2.4-5.4,4.7-9.5,7.2c-1.6,1-3,2.2-4.4,3.4 c-0.3,0.3-0.6,0.5-0.9,0.8c-0.1,0.1-0.3,0.3-0.3,0.4c0.4-0.3,0.8-0.6,1.2-0.9c1-0.8,2.1-1.6,3.3-2.3c0.5-0.3,1.1-0.6,1.9-0.1 l0.5,0.3l-0.4,0.4c-0.6,0.6-1.3,1.2-2,1.8C103.6,59,102.7,59.8,101.9,60.8z"/><path class="st2" d="M101.1,67.8c0.2-0.6,0.6-1.1,1-1.5c1.3-1.2,2.6-2.4,3.9-3.5c0.3-0.2,0.6-0.4,0.7-0.8c-0.6-0.3-1.1,0-1.5,0.3 c-1.4,0.7-2.6,1.8-3.8,2.8c-0.2,0.2-0.4,0.4-0.7,0.5c0,0-0.1,0.1-0.1,0.1c-0.1-0.1-0.1-0.1,0-0.2c0,0,0.1,0.1,0.1,0.1 c0,0-0.1-0.1-0.1-0.1c0.3-1.6,1.8-2.3,2.9-3.2c4.1-3.3,8.7-5.9,12.7-9.3c0.5-0.4,0.7-0.3,0.7,0.3c0,0.9,0.1,1.9,0.1,2.8 c0,0.8-0.4,1.3-1,1.8c-2.7,2.2-5.5,4.1-8.4,6c-1.6,1.1-3.1,2.3-4.7,3.4c-0.4,0.3-0.9,0.7-1.4,0.9C101.2,68.4,101,68.2,101.1,67.8"/><path class="st3" d="M101.1,67.8c0.2-0.6,0.6-1.1,1-1.5c1.3-1.2,2.6-2.4,3.9-3.5c0.3-0.2,0.6-0.4,0.7-0.8c-0.6-0.3-1.1,0-1.5,0.3 c-1.4,0.7-2.6,1.8-3.8,2.8c-0.2,0.2-0.4,0.4-0.7,0.5c0,0-0.1,0.1-0.1,0.1c-0.1-0.1-0.1-0.1,0-0.2c0,0,0.1,0.1,0.1,0.1 c0,0-0.1-0.1-0.1-0.1c0.3-1.6,1.8-2.3,2.9-3.2c4.1-3.3,8.7-5.9,12.7-9.3c0.5-0.4,0.7-0.3,0.7,0.3c0,0.9,0.1,1.9,0.1,2.8 c0,0.8-0.4,1.3-1,1.8c-2.7,2.2-5.5,4.1-8.4,6c-1.6,1.1-3.1,2.3-4.7,3.4c-0.4,0.3-0.9,0.7-1.4,0.9C101.2,68.4,101,68.2,101.1,67.8z"/><path class="st2" d="M117.5,55.8l0,0.2c0,1.1-0.7,1.8-1.2,2.2c-2.6,2.1-5.3,4-8.4,6c-1.1,0.7-2.2,1.5-3.2,2.3 c-0.5,0.4-1,0.7-1.4,1.1l-0.2,0.1c-0.4,0.3-0.8,0.6-1.2,0.8c-0.4,0.2-0.7,0.1-0.9,0c-0.3-0.2-0.4-0.6-0.3-1 c0.2-0.6,0.6-1.2,1.2-1.7c1-0.9,2.1-1.9,3.1-2.9l0.5-0.5l0,0c-1.2,0.6-2.1,1.4-3.2,2.3l-0.5,0.4c0,0-0.1,0.1-0.1,0.1 c-0.2,0.1-0.4,0.3-0.7,0.4c-0.3,0.3-0.5,0.2-0.7,0.1c-0.3-0.2-0.3-0.4-0.3-0.5c0-0.1,0-0.3,0.1-0.4c0.3-1.4,1.4-2.1,2.3-2.8 c0.3-0.2,0.5-0.4,0.7-0.6c1.9-1.5,3.9-2.9,5.9-4.3c2.3-1.6,4.6-3.2,6.8-5c0.2-0.1,0.6-0.5,1.1-0.3c0.5,0.2,0.5,0.8,0.5,1l0,0.8 C117.5,54.6,117.5,55.2,117.5,55.8 M101.8,67.4c0.2-0.1,0.4-0.3,0.6-0.4l0.2-0.2c0.5-0.4,1-0.7,1.4-1.1c1.1-0.8,2.2-1.6,3.3-2.4 c3-2,5.8-3.9,8.3-6c0.6-0.5,0.9-0.9,0.9-1.5l0-0.2c0-0.6,0-1.2,0-1.8l0-0.6c-2.1,1.8-4.5,3.4-6.7,5c-1.6,1.1-3.3,2.3-5,3.5 c0.1,0,0.1-0.1,0.2-0.1l0.1-0.1c0.5-0.3,1.1-0.6,1.9-0.2l0.3,0.2l-0.1,0.4c-0.1,0.5-0.4,0.8-0.7,1c-0.1,0-0.1,0.1-0.2,0.1l-0.8,0.7 c-1,1-2.1,1.9-3.1,2.9C102.2,66.9,102,67.1,101.8,67.4"/><path class="st3" d="M117.5,55.8l0,0.2c0,1.1-0.7,1.8-1.2,2.2c-2.6,2.1-5.3,4-8.4,6c-1.1,0.7-2.2,1.5-3.2,2.3 c-0.5,0.4-1,0.7-1.4,1.1l-0.2,0.1c-0.4,0.3-0.8,0.6-1.2,0.8c-0.4,0.2-0.7,0.1-0.9,0c-0.3-0.2-0.4-0.6-0.3-1 c0.2-0.6,0.6-1.2,1.2-1.7c1-0.9,2.1-1.9,3.1-2.9l0.5-0.5l0,0c-1.2,0.6-2.1,1.4-3.2,2.3l-0.5,0.4c0,0-0.1,0.1-0.1,0.1 c-0.2,0.1-0.4,0.3-0.7,0.4c-0.3,0.3-0.5,0.2-0.7,0.1c-0.3-0.2-0.3-0.4-0.3-0.5c0-0.1,0-0.3,0.1-0.4c0.3-1.4,1.4-2.1,2.3-2.8 c0.3-0.2,0.5-0.4,0.7-0.6c1.9-1.5,3.9-2.9,5.9-4.3c2.3-1.6,4.6-3.2,6.8-5c0.2-0.1,0.6-0.5,1.1-0.3c0.5,0.2,0.5,0.8,0.5,1l0,0.8 C117.5,54.6,117.5,55.2,117.5,55.8z M101.8,67.4c0.2-0.1,0.4-0.3,0.6-0.4l0.2-0.2c0.5-0.4,1-0.7,1.4-1.1c1.1-0.8,2.2-1.6,3.3-2.4 c3-2,5.8-3.9,8.3-6c0.6-0.5,0.9-0.9,0.9-1.5l0-0.2c0-0.6,0-1.2,0-1.8l0-0.6c-2.1,1.8-4.5,3.4-6.7,5c-1.6,1.1-3.3,2.3-5,3.5 c0.1,0,0.1-0.1,0.2-0.1l0.1-0.1c0.5-0.3,1.1-0.6,1.9-0.2l0.3,0.2l-0.1,0.4c-0.1,0.5-0.4,0.8-0.7,1c-0.1,0-0.1,0.1-0.2,0.1l-0.8,0.7 c-1,1-2.1,1.9-3.1,2.9C102.2,66.9,102,67.1,101.8,67.4z"/><path class="st2" d="M105.5,71.2c-0.5-0.4-0.1-0.9,0.1-1.3c0.8-1.3,1.9-2.2,3.1-3.1c0.2-0.1,0.3-0.3,0.5-0.4c-0.4-0.4-0.7-0.1-1,0 c-1.7,1-3.5,2-4.8,3.6c-0.2,0.2-0.3,0.5-0.6,0.3c-0.4-0.2-0.2-0.5-0.1-0.8c0.2-0.5,0.6-0.8,1-1.1c3.7-2.7,7.4-5.4,11.1-8 c0.6-0.4,1.1-1.1,1.8-1.4l0.1-0.1c0,0,0,0.1-0.1,0.1l-0.1-0.1l0.1,0.1c0,0.1,0,0.1,0,0.2c0.1,2.5-0.5,4.6-2.8,6 c-1.4,0.9-2.7,2.1-4.2,2.9c-1.2,0.6-2.1,1.5-3.1,2.4C106.2,70.9,105.9,71.5,105.5,71.2"/><path class="st3" d="M105.5,71.2c-0.5-0.4-0.1-0.9,0.1-1.3c0.8-1.3,1.9-2.2,3.1-3.1c0.2-0.1,0.3-0.3,0.5-0.4c-0.4-0.4-0.7-0.1-1,0 c-1.7,1-3.5,2-4.8,3.6c-0.2,0.2-0.3,0.5-0.6,0.3c-0.4-0.2-0.2-0.5-0.1-0.8c0.2-0.5,0.6-0.8,1-1.1c3.7-2.7,7.4-5.4,11.1-8 c0.6-0.4,1.1-1.1,1.8-1.4l0.1-0.1c0,0,0,0.1-0.1,0.1l-0.1-0.1l0.1,0.1c0,0.1,0,0.1,0,0.2c0.1,2.5-0.5,4.6-2.8,6 c-1.4,0.9-2.7,2.1-4.2,2.9c-1.2,0.6-2.1,1.5-3.1,2.4C106.2,70.9,105.9,71.5,105.5,71.2z"/><path class="st2" d="M118.1,57.6l-0.9,1.7c0,0,0,0.1,0,0.1c0,0.2,0,0.4,0,0.5c0,2.7-1,4.6-3.1,5.9c-0.6,0.4-1.1,0.8-1.6,1.2 c-0.8,0.6-1.7,1.3-2.6,1.8c-1,0.5-1.8,1.2-2.6,2l-0.4,0.4c0,0-0.1,0.1-0.1,0.1c-0.2,0.2-0.8,0.8-1.5,0.3c-0.3-0.2-0.4-0.5-0.4-0.8 c0-0.4,0.2-0.7,0.4-1c0.3-0.5,0.7-1,1.1-1.4c-0.9,0.6-1.7,1.3-2.4,2.1c-0.2,0.2-0.6,0.7-1.2,0.4c-0.3-0.2-0.5-0.4-0.5-0.8 c0-0.2,0.1-0.4,0.1-0.5c0.2-0.7,0.7-1.1,1.1-1.4l2.3-1.7c3-2.1,5.9-4.3,8.9-6.4c0.2-0.2,0.4-0.3,0.6-0.5c0.4-0.4,0.8-0.7,1.3-0.9 l0,0L118.1,57.6z M105.8,70.7c0.1,0,0.1-0.1,0.2-0.2c0.1-0.1,0.1-0.2,0.2-0.2l0.4-0.3c0.9-0.8,1.8-1.6,2.8-2.1 c0.9-0.4,1.7-1.1,2.5-1.7c0.5-0.4,1.1-0.8,1.7-1.2c1.8-1.1,2.6-2.7,2.6-5.1c-0.1,0.1-0.3,0.2-0.4,0.4c-0.2,0.2-0.4,0.4-0.7,0.6 c-2.5,1.8-5.1,3.6-7.6,5.5c0,0,0.1,0,0.1,0l0.5-0.3c0.2-0.2,0.9-0.6,1.5,0.1l0.4,0.4l-0.6,0.4c-0.1,0.1-0.2,0.2-0.3,0.3l-0.2,0.1 c-1.1,0.9-2.1,1.7-2.8,2.8C105.9,70.4,105.8,70.6,105.8,70.7C105.8,70.7,105.8,70.7,105.8,70.7"/><path class="st3" d="M118.1,57.6l-0.9,1.7c0,0,0,0.1,0,0.1c0,0.2,0,0.4,0,0.5c0,2.7-1,4.6-3.1,5.9c-0.6,0.4-1.1,0.8-1.6,1.2 c-0.8,0.6-1.7,1.3-2.6,1.8c-1,0.5-1.8,1.2-2.6,2l-0.4,0.4c0,0-0.1,0.1-0.1,0.1c-0.2,0.2-0.8,0.8-1.5,0.3c-0.3-0.2-0.4-0.5-0.4-0.8 c0-0.4,0.2-0.7,0.4-1c0.3-0.5,0.7-1,1.1-1.4c-0.9,0.6-1.7,1.3-2.4,2.1c-0.2,0.2-0.6,0.7-1.2,0.4c-0.3-0.2-0.5-0.4-0.5-0.8 c0-0.2,0.1-0.4,0.1-0.5c0.2-0.7,0.7-1.1,1.1-1.4l2.3-1.7c3-2.1,5.9-4.3,8.9-6.4c0.2-0.2,0.4-0.3,0.6-0.5c0.4-0.4,0.8-0.7,1.3-0.9 l0,0L118.1,57.6z M105.8,70.7c0.1,0,0.1-0.1,0.2-0.2c0.1-0.1,0.1-0.2,0.2-0.2l0.4-0.3c0.9-0.8,1.8-1.6,2.8-2.1 c0.9-0.4,1.7-1.1,2.5-1.7c0.5-0.4,1.1-0.8,1.7-1.2c1.8-1.1,2.6-2.7,2.6-5.1c-0.1,0.1-0.3,0.2-0.4,0.4c-0.2,0.2-0.4,0.4-0.7,0.6 c-2.5,1.8-5.1,3.6-7.6,5.5c0,0,0.1,0,0.1,0l0.5-0.3c0.2-0.2,0.9-0.6,1.5,0.1l0.4,0.4l-0.6,0.4c-0.1,0.1-0.2,0.2-0.3,0.3l-0.2,0.1 c-1.1,0.9-2.1,1.7-2.8,2.8C105.9,70.4,105.8,70.6,105.8,70.7C105.8,70.7,105.8,70.7,105.8,70.7z"/><path class="st2" d="M107.7,71.1c2.5-1.7,5.1-3.3,7.6-5c0.1,0.1,0.1,0.1,0.2,0.2c-0.4,1.2-0.8,2.5-1.2,3.7 c-0.1,0.4-0.5,0.5-0.8,0.6c-1.8,0.4-3.5,0.8-5.1,1.7c-0.5,0.3-1,0.3-1.3-0.2C106.8,71.6,107.4,71.4,107.7,71.1"/><path class="st3" d="M107.7,71.1c2.5-1.7,5.1-3.3,7.6-5c0.1,0.1,0.1,0.1,0.2,0.2c-0.4,1.2-0.8,2.5-1.2,3.7 c-0.1,0.4-0.5,0.5-0.8,0.6c-1.8,0.4-3.5,0.8-5.1,1.7c-0.5,0.3-1,0.3-1.3-0.2C106.8,71.6,107.4,71.4,107.7,71.1z"/><path class="st2" d="M116,66.1l0,0.4l-0.3,1c-0.3,0.9-0.6,1.8-0.9,2.7c-0.2,0.7-0.8,0.8-1.2,0.9c-1.6,0.4-3.4,0.8-4.9,1.7 c-0.8,0.4-1.6,0.3-2-0.4c-0.1-0.2-0.2-0.4-0.2-0.6c0-0.5,0.5-0.8,0.8-1l0.1-0.1c1.9-1.3,3.9-2.5,5.8-3.8l2.1-1.4L116,66.1z M107.5,71.9c0.2,0.2,0.5,0.1,0.7,0c1.7-0.9,3.6-1.4,5.2-1.8c0.4-0.1,0.4-0.1,0.5-0.2c0.3-0.9,0.6-1.8,0.9-2.7l0-0.1l-1,0.6 c-1.9,1.3-3.9,2.5-5.8,3.8c-0.1,0-0.1,0.1-0.2,0.1C107.7,71.7,107.5,71.8,107.5,71.9"/><path class="st3" d="M116,66.1l0,0.4l-0.3,1c-0.3,0.9-0.6,1.8-0.9,2.7c-0.2,0.7-0.8,0.8-1.2,0.9c-1.6,0.4-3.4,0.8-4.9,1.7 c-0.8,0.4-1.6,0.3-2-0.4c-0.1-0.2-0.2-0.4-0.2-0.6c0-0.5,0.5-0.8,0.8-1l0.1-0.1c1.9-1.3,3.9-2.5,5.8-3.8l2.1-1.4L116,66.1z M107.5,71.9c0.2,0.2,0.5,0.1,0.7,0c1.7-0.9,3.6-1.4,5.2-1.8c0.4-0.1,0.4-0.1,0.5-0.2c0.3-0.9,0.6-1.8,0.9-2.7l0-0.1l-1,0.6 c-1.9,1.3-3.9,2.5-5.8,3.8c-0.1,0-0.1,0.1-0.2,0.1C107.7,71.7,107.5,71.8,107.5,71.9z"/><path class="st4" d="M90.5,75.9c2.4-2.6,5.4-3.9,8.9-4c2.6,0,5,0.5,7.4,1.6c0.8,0.4,1.3,0.3,2.1,0c3.2-1.3,6.6-1.9,10-1 c2.1,0.6,3.9,1.6,5.4,3.2c0.2,0.2,0.8,0.5,0.3,0.9c-0.4,0.3-0.7,0.9-1.5,0.5c-1.7-1.1-3.7-1.7-5.6-2.1c-3.4-0.6-6.6-0.1-9.6,1.5 c-0.6,0.4-1.1,0.3-1.7,0c-3.9-1.9-7.9-2.6-12.2-1.2c-0.9,0.3-1.9,0.7-2.7,1.3c-0.3,0.2-0.6,0.4-0.9,0 C89.9,76.3,90.3,76.1,90.5,75.9"/><path class="st4" d="M91.4,79.7c0,1.8-1.3,3.2-3,3.3c-1.7,0.1-3.2-1.4-3.2-3.2c0-1.7,1.4-3.2,3.1-3.2C90,76.6,91.4,77.9,91.4,79.7"/><path class="st4" d="M92.5,78.3c-0.3,0.1-0.5,0.5-0.8,0c-0.3-0.5,0-0.6,0.4-0.8c1.8-1.1,3.8-1.6,6-1.7c2.9,0,5.7,0.7,8.2,2.1 c0.5,0.3,0.9,0.3,1.4,0c4.5-2.8,9.1-2.5,13.8-0.4c0.4,0.2,0.8,0.3,1.1,0.6c0.2,0.1,0.8-0.4,0.5,0.4c-0.2,0.5-0.3,0.6-0.9,0.4 c-1.3-0.6-2.8-0.9-4.2-1.1c-3.7-0.4-7.1,0.6-10,2.8c-0.7,0.5-1,0.5-1.7,0c-2.9-1.9-6-3.2-9.6-3.1C95.2,77.4,93.8,77.7,92.5,78.3"/><path class="st4" d="M88.8,79c0.6,1.1,0.2,2-1.1,2.2c-0.3,0-0.6-0.1-0.9,0.3c1.1,0.8,2.6,0.6,3.3-0.4c0.6-0.9,0.4-1.9-0.6-2.6 c-0.3-0.2-0.6-0.5-0.9-0.2C88.3,78.4,88.6,78.7,88.8,79"/><path class="st4" d="M106.9,37.7c-3.2,0-5.9-2.5-5.9-5.6c0-3.1,2.6-5.6,5.9-5.6c3.2,0,5.9,2.5,5.9,5.6 C112.8,35.1,110.1,37.7,106.9,37.7"/><path class="st4" d="M106.7,26.1c-1.8,0-3.3-1.4-3.3-3.2c0-1.8,1.5-3.2,3.3-3.2c1.8,0,3.3,1.4,3.3,3.2 C110.1,24.6,108.6,26.1,106.7,26.1"/><path class="st0" d="M100.2,46.4C100.2,46.4,100.3,46.4,100.2,46.4C100.3,46.4,100.2,46.4,100.2,46.4z M126.5,79 c0.5,1,0.1,1.9-1,2.1c-0.3,0.1-0.7-0.1-1,0.2c1.1,0.8,2.6,0.6,3.3-0.4c0.6-0.8,0.4-1.8-0.5-2.5c-0.3-0.2-0.7-0.6-1-0.4 C126,78.3,126.4,78.7,126.5,79 M98.8,79c0,0-3.8-0.9-6.3,0.9c-0.1,1.1-1.5,6-5.9,4.3c-3.2-1.5-4.1-5.4-0.7-8.2 c2.1-0.6,3.2-0.2,3.2-0.2s2.3-4.9,11.1-4.8c-3.2-7.2-3.7-18.6-1.9-25.3c1.8-6.6,3.8-9.1,3.8-9.1s-2.9-2.6-1.1-7.4 c0,0,0.9-1.7,3.3-2.9l0-0.2c0,0-3-2.7-0.6-5.6c2.4-3,6.7-0.5,6.9,2c0.2,2.5-1.6,3.5-1.7,3.5c-0.1,0,0,0.5,0,0.5s4,1,4.2,4.9 c0.2,3.9-1.2,4-1.2,4s5.6,5.5,6.1,19.2c-0.3,12-2.5,16.3-2.5,16.3s6.1,0,9.6,4.4c4.5,0,5.9,3.5,4.9,6c-0.9,2.5-4,3.6-5.6,2.8 c-1.6-0.8-2.8-2.1-3-4c-2.7-1.1-5.4-1.4-6.5-1.1c0,9.7-2,112.9-2,112.9l-7.7,13.6l-7-13.8L98.8,79z M106.6,23.6 c0.7,0.5,1.3,0.3,1.7-0.3c0.5-0.7,0.2-1.4-0.7-1.8C107.8,23.2,107.8,23.2,106.6,23.6 M104.4,201.1c0.3-0.2,0.2-0.5,0.2-0.7 c0.1-4.1,0.1-8.2,0.1-12.3c0.1-10.2,0.3-20.4,0.4-30.6c0.1-9.7,0.2-19.3,0.3-29c0.1-7.4,0.2-14.8,0.3-22.1 c0.1-7.7,0.2-15.4,0.3-23.1c0-0.5,0-0.9-0.5-1.1c-1.5-0.9-3-1.7-4.5-2.6c-0.1-0.2-0.3-0.2-0.5-0.1c-0.1,0-0.1,0-0.2,0 c0,1.7-0.1,3.4-0.1,5.1c-0.1,9.9-0.2,19.7-0.3,29.6c-0.1,10.4-0.2,20.8-0.3,31.2c-0.1,7.6-0.2,15.3-0.2,22.9 c-0.1,5.4,0,10.8-0.2,16.2c-0.1,3.5,0,6.9,1.9,10c0.8,1.3,1.3,2.7,1.9,4C103.6,199.4,104,200.2,104.4,201.1 M114,79.4 c-2.1,0.3-4.1,1-5.8,2.4c-0.4,0.3-0.6,0.7-0.6,1.2c0,2.5-0.1,4.9-0.1,7.4c-0.1,6.6-0.3,13.2-0.4,19.7c-0.2,8.6-0.3,17.2-0.4,25.7 c-0.1,6-0.2,12-0.3,18c-0.2,9.6-0.3,19.3-0.5,28.9c-0.1,3.1-0.2,6.2-0.2,9.3c0,3,0.1,5.9,0.2,8.8c0,0,0.1-0.1,0.2-0.3 c1.7-3,3.5-6.1,5.2-9.1c0.3-0.6,0.4-1.2,0.4-1.8c0-1.5,0.1-3.1,0.1-4.6c0.2-9.1,0.4-18.1,0.6-27.2c0.1-6.3,0.2-12.6,0.4-19 c0.2-7.6,0.3-15.1,0.5-22.7c0.2-10.4,0.4-20.8,0.6-31.2c0-1.7,0.1-3.4,0.2-5.1C114.1,79.9,114.2,79.6,114,79.4 M125.8,76.4 c-1.6,0.1-3,1.6-3,3.3c0,1.7,1.5,3.2,3.2,3.1c1.7-0.1,3.1-1.6,3-3.3C129,77.8,127.5,76.3,125.8,76.4 M103.4,30.6 c0,0.1,0,0.3,0.1,0.4c0.2,0.3,0.5,0.6,0.9,0.5c0.6-0.1,0.1-0.5,0.1-0.8c-0.1-0.7,0.3-1.1,0.9-1.3c0.2-0.1,0.4,0,0.4-0.3 c0-0.2-0.2-0.3-0.5-0.4C104.4,28.7,103.3,29.6,103.4,30.6 M107.7,31.9c0.3,0.8-0.2,1.1-0.7,1.4c-0.2,0.1-0.6,0-0.5,0.4 c0.1,0.3,0.4,0.3,0.7,0.3c0.7,0,1.4-0.5,1.6-1.1c0.1-0.5,0.1-1-0.3-1.4c-0.2-0.2-0.5-0.3-0.7-0.2C107.5,31.4,107.6,31.7,107.7,31.9 M108.9,35.3c1.4-0.6,1.9-1.7,2-3.1c0.1-1.3-0.2-2.4-1.5-3.3c-0.1,0.6,0.1,1,0.3,1.4c0.4,1.2,0.4,2.3-0.4,3.3c-0.8,1-1.8,1.2-3,1.1 c-0.3,0-0.7-0.2-0.8,0.3c0,0.4,0.3,0.5,0.7,0.6C107.1,35.8,108,35.7,108.9,35.3 M100.9,43.2c2-1.4,4.2-2.5,6.2-4 c0.5-0.4,0.3-0.6-0.2-0.7c-1-0.2-1.9-0.3-2.9-0.7c-0.7-0.3-1.5,0.1-1.7,0.8c-0.1,0.4,0,0.6,0.5,0.4c0.4-0.2,0.9-0.5,1.5-0.1 c-0.9,0.6-1.8,1.3-2.6,1.8c-0.8,0.5-1,1.3-1.2,2.1C100.4,43.1,100.4,43.5,100.9,43.2 M103.7,45c-1.7,1.9-3.9,3.4-4.9,6.1 c0.6-0.1,0.9-0.5,1.2-0.7c1.1-0.8,2.1-1.7,3.3-2.4c3.1-2,5.9-4.2,8.3-6.9c1.1-1.2,1.4-2.1,0.5-3.5c-0.5-0.8-0.7-0.9-1.4-0.2 c-0.9,0.8-1.7,1.7-2.6,2.5c-2,1.7-4.4,3-6.4,4.8c-0.6,0.5-1.4,0.9-1.5,1.8l0,0c0,0.1,0,0.1-0.1,0.2c0,0,0.1-0.1,0.1-0.1 c0.6-0.3,1.1-0.7,1.7-1C103,44.8,103,44.8,103.7,45 M100.1,55.8c1.9-1.6,3.9-3,6-4.3c2.7-1.7,5.2-3.5,7.5-5.7 c1.4-1.3,1.7-2.6,0.7-4.3c-0.4-0.7-0.6-0.8-1.1-0.2c-0.8,0.9-1.6,1.8-2.4,2.7c-2.5,2.5-5.7,4.2-8.5,6.4c-1.1,0.8-2.3,1.4-2.9,2.8 c0.1,0.1,0.1,0.1,0.2,0.2c1.6-1,2.9-2.4,4.9-3c-1.7,1.8-3.8,3.3-4.8,5.7C99.8,56.1,99.9,55.9,100.1,55.8 M105.9,55.9 c-2.2,2.2-5,4-6.4,7.1c0.3-0.1,0.5-0.1,0.5-0.2c1.7-1.7,3.6-3.1,5.7-4.4c3.5-2.1,7.1-4.1,9.9-7.2c0.5-0.6,0.8-1.1,0.7-1.9 c-0.1-0.8-0.2-1.6-0.4-2.4c-0.1-0.3,0-0.8-0.4-1c-0.4-0.2-0.6,0.3-0.9,0.5c-2.8,2.8-6.1,5-9.5,7.1c-2,1.2-3.7,2.8-5.4,4.3 c-0.2,0.2-0.4,0.4-0.5,0.6c-0.2,0.3-0.2,0.7,0.1,0.9c0.2,0.2,0.4-0.1,0.6-0.3c1.5-1.1,2.9-2.3,4.5-3.2 C104.9,55.8,105.3,55.5,105.9,55.9 M101.2,68.2c0.5-0.3,0.9-0.6,1.4-0.9c1.6-1.1,3.1-2.3,4.7-3.4c2.9-1.9,5.7-3.8,8.4-6 c0.6-0.5,1-1.1,1-1.8c0-0.9,0-1.9-0.1-2.8c0-0.6-0.2-0.7-0.7-0.3c-4,3.4-8.6,6-12.7,9.3c-1.1,0.9-2.6,1.6-2.9,3.2 c0,0,0.1,0.1,0.1,0.1c0,0-0.1-0.1-0.1-0.1c-0.1,0.1-0.2,0.1,0,0.2c0,0,0.1-0.1,0.1-0.1c0.3,0,0.5-0.3,0.7-0.5 c1.2-1,2.4-2.1,3.8-2.8c0.5-0.2,0.9-0.6,1.5-0.3c-0.1,0.4-0.4,0.6-0.7,0.8c-1.3,1.2-2.6,2.4-3.9,3.5c-0.5,0.4-0.8,0.9-1,1.5 C100.6,68.2,100.8,68.4,101.2,68.2 M106.1,70.7c1-0.9,1.9-1.8,3.1-2.4c1.6-0.8,2.8-2,4.2-2.9c2.3-1.5,2.9-3.5,2.8-6 c0-0.1,0-0.1,0-0.2l-0.1-0.1l0.1,0.1c0,0,0-0.1,0.1-0.1l-0.1,0.1c-0.7,0.3-1.2,1-1.8,1.4c-3.7,2.7-7.4,5.3-11.1,8 c-0.4,0.3-0.9,0.6-1,1.1c-0.1,0.3-0.2,0.6,0.1,0.8c0.3,0.1,0.5-0.1,0.6-0.3c1.3-1.6,3.1-2.5,4.8-3.6c0.3-0.2,0.6-0.5,1,0 c-0.2,0.1-0.4,0.3-0.5,0.4c-1.2,0.9-2.3,1.8-3.1,3.1c-0.2,0.4-0.6,0.9-0.1,1.3C105.5,71.5,105.8,70.9,106.1,70.7 M106.7,72.1 c0.3,0.4,0.8,0.4,1.3,0.2c1.6-0.9,3.3-1.3,5.1-1.7c0.4-0.1,0.7-0.2,0.8-0.6c0.4-1.2,0.8-2.5,1.2-3.7c-0.1-0.1-0.1-0.1-0.2-0.2 c-2.5,1.7-5.1,3.3-7.6,5C107,71.4,106.4,71.6,106.7,72.1 M89.9,76.7c0.3,0.4,0.6,0.2,0.9,0c0.8-0.6,1.7-1,2.7-1.3 c4.2-1.4,8.3-0.7,12.2,1.2c0.6,0.3,1.1,0.3,1.7,0c3-1.7,6.2-2.2,9.6-1.5c2,0.4,3.9,1,5.6,2.1c0.8,0.5,1.1-0.2,1.5-0.5 c0.5-0.4-0.1-0.7-0.3-0.9c-1.4-1.6-3.3-2.7-5.4-3.2c-3.5-0.9-6.8-0.3-10,1c-0.7,0.3-1.3,0.3-2.1,0c-2.3-1.1-4.8-1.6-7.4-1.6 c-3.5,0.2-6.5,1.4-8.9,4C89.9,76.1,89.5,76.3,89.9,76.7 M87.9,76.6c-1.7,0-3.1,1.5-3.1,3.2c0,1.8,1.5,3.2,3.2,3.2 c1.7-0.1,3-1.5,3-3.3C91,77.9,89.7,76.6,87.9,76.6 M96.2,77.3c3.6-0.1,6.7,1.2,9.6,3.1c0.6,0.4,1,0.5,1.7,0c2.9-2.2,6.3-3.2,10-2.8 c1.5,0.2,2.9,0.5,4.2,1.1c0.5,0.2,0.7,0.1,0.9-0.4c0.3-0.8-0.4-0.2-0.5-0.4c-0.3-0.2-0.7-0.4-1.1-0.6c-4.7-2.1-9.3-2.3-13.8,0.4 c-0.5,0.3-0.9,0.3-1.4,0c-2.6-1.4-5.3-2.1-8.2-2.1c-2.1,0-4.1,0.6-6,1.7c-0.3,0.2-0.6,0.4-0.4,0.8c0.3,0.5,0.6,0.2,0.8,0 C93.4,77.7,94.8,77.4,96.2,77.3 M88.4,79c0.6,1.1,0.2,2-1.1,2.2c-0.3,0-0.6-0.1-0.9,0.3c1.1,0.8,2.6,0.6,3.3-0.4 c0.6-0.9,0.4-1.9-0.6-2.6c-0.3-0.2-0.6-0.5-0.9-0.2C87.9,78.4,88.3,78.7,88.4,79 M109.6,22.9c0-1.5-1.3-2.7-2.8-2.7 s-2.8,1.2-2.8,2.7c0,1.5,1.3,2.7,2.8,2.7S109.6,24.4,109.6,22.9 M112.1,31.9c0-2.9-2.4-5.2-5.3-5.2s-5.3,2.3-5.3,5.2 c0,2.9,2.4,5.2,5.3,5.2S112.1,34.8,112.1,31.9"/><path class="st2" d="M26.5,46.4C26.5,46.4,26.5,46.4,26.5,46.4C26.5,46.4,26.5,46.4,26.5,46.4z"/><path class="st3" d="M26.5,46.4C26.5,46.4,26.5,46.4,26.5,46.4C26.5,46.4,26.5,46.4,26.5,46.4z"/><polygon class="st2" points="26.9,46.1 26.2,46.8 26.1,46.7 26.8,46"/><polygon class="st3" points="26.9,46.1 26.2,46.8 26.1,46.7 26.8,46"/><path class="st4" d="M52.8,79c0.5,1,0.1,1.9-1,2.1c-0.3,0.1-0.7-0.1-1,0.2c1.1,0.8,2.6,0.6,3.3-0.4c0.6-0.8,0.4-1.8-0.5-2.5 c-0.3-0.2-0.7-0.6-1-0.4C52.3,78.3,52.7,78.7,52.8,79"/><path class="st4" d="M33.9,21.5c0.9,0.5,1.2,1.1,0.7,1.8c-0.4,0.6-1,0.8-1.7,0.3C34.1,23.2,34.1,23.2,33.9,21.5"/><path class="st5" d="M29.5,198.5c-0.6-1.4-1.1-2.8-1.9-4c-1.9-3.1-2-6.5-1.9-10c0.1-5.4,0.1-10.8,0.2-16.2 c0.1-7.6,0.2-15.3,0.2-22.9c0.1-10.4,0.2-20.8,0.3-31.2c0.1-9.8,0.2-19.7,0.3-29.6c0-1.7,0.1-3.4,0.1-5.1c0.1,0,0.1,0,0.2,0 c0.2,0,0.3,0,0.5,0.1c1.5,0.9,3,1.7,4.5,2.6c0.4,0.3,0.5,0.7,0.5,1.1c-0.1,7.7-0.2,15.4-0.3,23.1c-0.1,7.4-0.2,14.8-0.3,22.1 c-0.1,9.7-0.2,19.3-0.3,29c-0.1,10.2-0.3,20.4-0.4,30.6c-0.1,4.1-0.1,8.2-0.1,12.3c0,0.2,0.1,0.4-0.2,0.7 C30.3,200.2,29.9,199.4,29.5,198.5"/><path class="st5" d="M32.9,83.2L32.9,83.2c-0.1,4.5-0.1,8.9-0.2,13.2l-0.1,10c0,3.6-0.1,7.3-0.1,10.9c-0.1,3.7-0.1,7.5-0.1,11.2 c-0.1,4.1-0.1,8.2-0.1,12.3c-0.1,5.6-0.1,11.1-0.2,16.7c-0.1,5.9-0.2,11.9-0.2,17.8l-0.2,12.8c0,2.3-0.1,4.5-0.1,6.8 c0,1.8,0,3.7-0.1,5.5c0,0.1,0,0.2,0,0.2c0,0.3-0.1,0.6-0.4,0.8l-0.5,0.4l-1.5-3.2c-0.2-0.4-0.4-0.9-0.6-1.3 c-0.4-0.9-0.8-1.9-1.3-2.7c-1.7-2.9-2-5.9-2-8.7c0-0.5,0-1,0-1.6c0.1-3.7,0.1-7.4,0.1-11.1c0-1.7,0-3.4,0-5.2l0.1-10.2 c0-4.2,0.1-8.5,0.1-12.7l0.3-31.2c0.1-9.9,0.2-19.7,0.3-29.6c0-1.2,0-2.3,0.1-3.5l0-2l0.6-0.1c0.4-0.1,0.7,0.1,0.9,0.2l4.4,2.5 C32.8,82.1,32.9,82.7,32.9,83.2 M30.4,199.4c0-1.5,0-3,0-4.4c0-2.3,0-4.5,0.1-6.8l0.2-12.8c0.1-5.9,0.2-11.9,0.2-17.8 c0.1-5.6,0.1-11.1,0.2-16.7c0-4.1,0.1-8.2,0.1-12.3c0-3.7,0.1-7.5,0.1-11.2c0-3.6,0.1-7.3,0.1-10.9l0.1-10 c0.1-4.4,0.1-8.8,0.2-13.2l0.5-0.1h-0.5c0-0.4-0.1-0.6-0.2-0.7L27.3,80l0,1c0,1.2-0.1,2.3-0.1,3.5c-0.1,9.9-0.2,19.7-0.3,29.6 l-0.3,31.2c0,4.2-0.1,8.5-0.1,12.7l-0.1,10.2c0,1.7,0,3.4,0,5.2c0,3.6,0,7.4-0.1,11.1c0,0.5,0,1,0,1.5c0,2.7,0.2,5.5,1.8,8.2 c0.5,0.9,1,1.9,1.4,2.8c0.2,0.4,0.4,0.9,0.6,1.3L30.4,199.4z"/><path class="st5" d="M40.4,80.1c-0.1,1.7-0.2,3.4-0.2,5.1c-0.2,10.4-0.4,20.8-0.6,31.2c-0.2,7.6-0.3,15.1-0.5,22.7 c-0.1,6.3-0.3,12.6-0.4,19c-0.2,9-0.4,18.1-0.6,27.2c0,1.5-0.1,3-0.1,4.6c0,0.6-0.1,1.2-0.4,1.8c-1.7,3-3.5,6.1-5.2,9.1 c-0.1,0.1-0.2,0.3-0.2,0.3c-0.1-2.9-0.2-5.9-0.2-8.8c0-3.1,0.1-6.2,0.2-9.3c0.2-9.6,0.3-19.3,0.5-28.9c0.1-6,0.2-12,0.3-18 c0.1-8.6,0.3-17.2,0.4-25.7c0.1-6.6,0.2-13.2,0.4-19.7c0-2.5,0.1-4.9,0.1-7.4c0-0.5,0.2-0.9,0.6-1.2c1.7-1.4,3.6-2.1,5.8-2.4 C40.5,79.6,40.4,79.9,40.4,80.1"/><path class="st5" d="M40.9,80l-0.1,1.7c0,1.2-0.1,2.3-0.1,3.5c-0.1,4.8-0.2,9.6-0.3,14.4c-0.1,5.6-0.2,11.2-0.3,16.7 c-0.1,4.4-0.2,8.7-0.3,13.1c-0.1,3.2-0.1,6.4-0.2,9.6c-0.1,3.3-0.1,6.6-0.2,9.9c-0.1,3-0.1,6.1-0.2,9.1l-0.1,4.2 c-0.2,7.7-0.3,15.3-0.5,23l0,1.2c0,1-0.1,2-0.1,3.1l0,0.3v0c0,0.8-0.2,1.5-0.5,2c-1,1.8-2.1,3.7-3.1,5.5l-2.1,3.6 c-0.3,0.6-0.6,0.5-0.8,0.5l-0.4-0.1l0-0.4c0-0.9-0.1-1.8-0.1-2.7c-0.1-2-0.1-4.1-0.1-6.2l0-0.5c0-2,0-4,0.1-5.9c0-1,0-1.9,0.1-2.9 l0.1-8.1c0.1-6.9,0.2-13.9,0.4-20.8c0.1-3.2,0.1-6.3,0.1-9.5c0-2.8,0.1-5.7,0.1-8.5c0.1-8.6,0.3-17.2,0.4-25.7 c0.1-5.3,0.2-10.5,0.3-15.8l0.1-6.5c0-1.6,0.1-3.2,0.1-4.9c0-0.6,0.2-1.1,0.8-1.6c1.6-1.4,3.6-2.2,6-2.6l0.2,0l0.2,0.1 c0.4,0.2,0.4,0.7,0.4,0.8L40.9,80L40.9,80z M37.6,189.5c0-1,0-2.1,0.1-3.1l0-1.2c0.2-7.7,0.4-15.3,0.5-23l0.1-4.2 c0.1-3,0.1-6.1,0.2-9.1c0.1-3.3,0.1-6.6,0.2-9.9c0.1-3.2,0.1-6.4,0.2-9.6c0.1-4.4,0.2-8.7,0.3-13.1c0.1-5.6,0.2-11.2,0.3-16.7 c0.1-4.8,0.2-9.6,0.3-14.4c0-1.2,0.1-2.3,0.1-3.5l0.1-1.6c0-0.1,0-0.1,0-0.2c-2.1,0.4-3.8,1.1-5.1,2.3c-0.3,0.3-0.4,0.5-0.4,0.9 c0,1.6-0.1,3.3-0.1,4.9l-0.1,6.5c-0.1,5.3-0.2,10.5-0.3,15.8c-0.2,8.6-0.3,17.2-0.4,25.7c0,2.8-0.1,5.7-0.1,8.5 c0,3.2-0.1,6.3-0.1,9.5c-0.1,6.9-0.2,13.9-0.4,20.8l-0.1,8.1c0,1,0,1.9-0.1,2.9c0,1.9-0.1,3.9-0.1,5.9l0,0.5c0,2.1,0.1,4.1,0.1,6.2 c0,0.3,0,0.6,0,1l1.4-2.4c1-1.8,2.1-3.7,3.1-5.5c0.2-0.4,0.4-0.9,0.4-1.5L37.6,189.5z"/><path class="st4" d="M55.3,79.6c0,1.7-1.4,3.2-3,3.3c-1.6,0.1-3.1-1.4-3.2-3.1c0-1.7,1.3-3.3,3-3.3C53.8,76.3,55.3,77.8,55.3,79.6"/><path class="st4" d="M31.6,28.8c0.2,0,0.4,0.1,0.5,0.4c0,0.3-0.2,0.2-0.4,0.3c-0.6,0.2-1,0.6-0.9,1.3c0,0.3,0.5,0.6-0.1,0.8 c-0.4,0.1-0.7-0.2-0.9-0.5c-0.1-0.1-0.1-0.3-0.1-0.4C29.6,29.6,30.7,28.7,31.6,28.8"/><path class="st4" d="M34,31.3c0.2-0.1,0.5,0,0.7,0.2c0.5,0.4,0.5,0.9,0.3,1.4c-0.1,0.6-0.9,1.1-1.6,1.1c-0.3,0-0.6,0-0.7-0.3 c-0.1-0.4,0.3-0.3,0.5-0.4c0.6-0.3,1-0.7,0.7-1.4C33.9,31.7,33.8,31.4,34,31.3"/><path class="st4" d="M32.4,35.6c-0.3-0.1-0.7-0.2-0.7-0.6c0-0.5,0.5-0.3,0.8-0.3c1.2,0.1,2.3-0.1,3-1.1c0.8-1,0.8-2.1,0.4-3.3 c-0.1-0.4-0.4-0.8-0.3-1.4c1.3,0.8,1.6,2,1.5,3.3c-0.1,1.4-0.6,2.5-2,3.1C34.3,35.7,33.3,35.8,32.4,35.6"/><path class="st2" d="M26.8,42.8c0.2-0.8,0.4-1.6,1.2-2.1c0.9-0.5,1.7-1.1,2.6-1.8c-0.6-0.4-1.1-0.1-1.5,0.1c-0.5,0.2-0.6,0-0.5-0.4 c0.2-0.8,0.9-1.1,1.7-0.8c0.9,0.4,1.9,0.5,2.9,0.7c0.6,0.1,0.8,0.3,0.2,0.7c-1.9,1.5-4.1,2.6-6.2,4C26.7,43.5,26.7,43.1,26.8,42.8"/><path class="st3" d="M26.8,42.8c0.2-0.8,0.4-1.6,1.2-2.1c0.9-0.5,1.7-1.1,2.6-1.8c-0.6-0.4-1.1-0.1-1.5,0.1c-0.5,0.2-0.6,0-0.5-0.4 c0.2-0.8,0.9-1.1,1.7-0.8c0.9,0.4,1.9,0.5,2.9,0.7c0.6,0.1,0.8,0.3,0.2,0.7c-1.9,1.5-4.1,2.6-6.2,4C26.7,43.5,26.7,43.1,26.8,42.8z"/><path class="st2" d="M34.1,38.8c0,0.4-0.3,0.6-0.5,0.8c-1.2,1-2.5,1.7-3.8,2.5c-0.8,0.5-1.6,1-2.4,1.5c-0.4,0.3-0.7,0.2-0.8,0.1 c-0.3-0.2-0.5-0.6-0.3-1.1l0.1-0.2c0.2-0.8,0.4-1.6,1.4-2.2c0.3-0.2,0.7-0.4,1-0.7c-0.1,0-0.3,0-0.4-0.1c-0.1-0.1-0.4-0.4-0.3-1 c0.1-0.5,0.4-0.9,0.9-1.2c0.4-0.2,1-0.2,1.5,0c0.7,0.3,1.4,0.4,2.2,0.6l0.5,0.1C33.8,38.2,34.1,38.4,34.1,38.8 M27.4,42.5 c0.7-0.4,1.3-0.8,2-1.2c1.2-0.7,2.4-1.5,3.6-2.3l-0.4-0.1c-0.5-0.1-1-0.2-1.5-0.3l0.5,0.3l-0.6,0.4c-0.3,0.2-0.6,0.4-0.8,0.6 c-0.6,0.4-1.2,0.8-1.8,1.2C27.7,41.4,27.5,41.9,27.4,42.5 M29.2,38.4c0.2-0.1,0.5-0.2,0.8-0.2c-0.2-0.1-0.4-0.1-0.6,0 C29.3,38.3,29.2,38.3,29.2,38.4"/><path class="st3" d="M34.1,38.8c0,0.4-0.3,0.6-0.5,0.8c-1.2,1-2.5,1.7-3.8,2.5c-0.8,0.5-1.6,1-2.4,1.5c-0.4,0.3-0.7,0.2-0.8,0.1 c-0.3-0.2-0.5-0.6-0.3-1.1l0.1-0.2c0.2-0.8,0.4-1.6,1.4-2.2c0.3-0.2,0.7-0.4,1-0.7c-0.1,0-0.3,0-0.4-0.1c-0.1-0.1-0.4-0.4-0.3-1 c0.1-0.5,0.4-0.9,0.9-1.2c0.4-0.2,1-0.2,1.5,0c0.7,0.3,1.4,0.4,2.2,0.6l0.5,0.1C33.8,38.2,34.1,38.4,34.1,38.8z M27.4,42.5 c0.7-0.4,1.3-0.8,2-1.2c1.2-0.7,2.4-1.5,3.6-2.3l-0.4-0.1c-0.5-0.1-1-0.2-1.5-0.3l0.5,0.3l-0.6,0.4c-0.3,0.2-0.6,0.4-0.8,0.6 c-0.6,0.4-1.2,0.8-1.8,1.2C27.7,41.4,27.5,41.9,27.4,42.5z M29.2,38.4c0.2-0.1,0.5-0.2,0.8-0.2c-0.2-0.1-0.4-0.1-0.6,0 C29.3,38.3,29.2,38.3,29.2,38.4z"/><path class="st2" d="M28.3,45.4c-0.6,0.3-1.1,0.7-1.7,1c0,0-0.1,0.1-0.1,0.1c0-0.1,0-0.1,0.1-0.2v0c0.1-0.9,0.9-1.3,1.5-1.8 c2-1.8,4.4-3,6.4-4.8c0.9-0.8,1.8-1.6,2.6-2.5c0.7-0.7,0.9-0.6,1.4,0.2c0.9,1.4,0.6,2.3-0.5,3.5c-2.5,2.7-5.3,4.9-8.3,6.9 c-1.1,0.7-2.2,1.6-3.3,2.4c-0.3,0.2-0.6,0.6-1.2,0.7c1-2.6,3.1-4.2,4.9-6.1C29.3,44.8,29.3,44.8,28.3,45.4"/><path class="st3" d="M28.3,45.4c-0.6,0.3-1.1,0.7-1.7,1c0,0-0.1,0.1-0.1,0.1c0-0.1,0-0.1,0.1-0.2v0c0.1-0.9,0.9-1.3,1.5-1.8 c2-1.8,4.4-3,6.4-4.8c0.9-0.8,1.8-1.6,2.6-2.5c0.7-0.7,0.9-0.6,1.4,0.2c0.9,1.4,0.6,2.3-0.5,3.5c-2.5,2.7-5.3,4.9-8.3,6.9 c-1.1,0.7-2.2,1.6-3.3,2.4c-0.3,0.2-0.6,0.6-1.2,0.7c1-2.6,3.1-4.2,4.9-6.1C29.3,44.8,29.3,44.8,28.3,45.4z"/><path class="st2" d="M39.4,39c0,1-0.6,1.8-1.1,2.4c-2.3,2.5-5.1,4.8-8.4,7c-0.7,0.5-1.5,1-2.2,1.6c-0.4,0.3-0.7,0.5-1.1,0.8 c-0.1,0.1-0.1,0.1-0.2,0.2c-0.3,0.2-0.6,0.5-1.2,0.7l-0.9,0.2l0.3-0.8c0.8-2.1,2.2-3.5,3.6-4.9c0,0,0.1-0.1,0.1-0.1l-2.8,1.7 l0.4-1.4c0.1-0.8,0.7-1.3,1.2-1.7c0.1-0.1,0.3-0.2,0.4-0.3c1.1-1,2.3-1.8,3.4-2.6c1-0.7,2-1.4,3-2.2c0.7-0.6,1.3-1.2,1.9-1.8 l0.6-0.6c0.4-0.4,0.7-0.7,1.2-0.6c0.5,0,0.8,0.5,1,0.9C39.3,37.8,39.4,38.4,39.4,39 M26.4,49.6c0.2-0.2,0.4-0.3,0.7-0.5 c0.7-0.6,1.5-1.1,2.2-1.6c3.3-2.1,6-4.3,8.2-6.8c1.1-1.2,1.2-1.8,0.5-2.9c-0.1-0.1-0.2-0.3-0.3-0.4c-0.1,0-0.2,0.1-0.4,0.3 l-0.6,0.6c-0.6,0.6-1.3,1.3-2,1.9c-1,0.8-2,1.6-3.1,2.3c-1,0.7-2.1,1.4-3,2.2c0.6-0.3,0.9-0.3,1.5-0.1l0.8,0.2l-0.5,0.6 c-0.4,0.5-0.9,0.9-1.4,1.4C28.1,47.6,27.1,48.5,26.4,49.6"/><path class="st3" d="M39.4,39c0,1-0.6,1.8-1.1,2.4c-2.3,2.5-5.1,4.8-8.4,7c-0.7,0.5-1.5,1-2.2,1.6c-0.4,0.3-0.7,0.5-1.1,0.8 c-0.1,0.1-0.1,0.1-0.2,0.2c-0.3,0.2-0.6,0.5-1.2,0.7l-0.9,0.2l0.3-0.8c0.8-2.1,2.2-3.5,3.6-4.9c0,0,0.1-0.1,0.1-0.1l-2.8,1.7 l0.4-1.4c0.1-0.8,0.7-1.3,1.2-1.7c0.1-0.1,0.3-0.2,0.4-0.3c1.1-1,2.3-1.8,3.4-2.6c1-0.7,2-1.4,3-2.2c0.7-0.6,1.3-1.2,1.9-1.8 l0.6-0.6c0.4-0.4,0.7-0.7,1.2-0.6c0.5,0,0.8,0.5,1,0.9C39.3,37.8,39.4,38.4,39.4,39z M26.4,49.6c0.2-0.2,0.4-0.3,0.7-0.5 c0.7-0.6,1.5-1.1,2.2-1.6c3.3-2.1,6-4.3,8.2-6.8c1.1-1.2,1.2-1.8,0.5-2.9c-0.1-0.1-0.2-0.3-0.3-0.4c-0.1,0-0.2,0.1-0.4,0.3 l-0.6,0.6c-0.6,0.6-1.3,1.3-2,1.9c-1,0.8-2,1.6-3.1,2.3c-1,0.7-2.1,1.4-3,2.2c0.6-0.3,0.9-0.3,1.5-0.1l0.8,0.2l-0.5,0.6 c-0.4,0.5-0.9,0.9-1.4,1.4C28.1,47.6,27.1,48.5,26.4,49.6z"/><path class="st2" d="M25.8,56c1-2.4,3.1-3.9,4.8-5.7c-1.9,0.5-3.3,2-4.9,3c-0.1-0.1-0.1-0.1-0.2-0.2c0.6-1.3,1.8-2,2.9-2.8 c2.8-2.2,6-3.9,8.5-6.4c0.9-0.9,1.7-1.7,2.4-2.7c0.5-0.7,0.7-0.5,1.1,0.2c1.1,1.7,0.7,2.9-0.7,4.3c-2.3,2.2-4.8,4.1-7.5,5.7 c-2.1,1.3-4.1,2.7-6,4.3C26.2,55.9,26.1,56.1,25.8,56"/><path class="st3" d="M25.8,56c1-2.4,3.1-3.9,4.8-5.7c-1.9,0.5-3.3,2-4.9,3c-0.1-0.1-0.1-0.1-0.2-0.2c0.6-1.3,1.8-2,2.9-2.8 c2.8-2.2,6-3.9,8.5-6.4c0.9-0.9,1.7-1.7,2.4-2.7c0.5-0.7,0.7-0.5,1.1,0.2c1.1,1.7,0.7,2.9-0.7,4.3c-2.3,2.2-4.8,4.1-7.5,5.7 c-2.1,1.3-4.1,2.7-6,4.3C26.2,55.9,26.1,56.1,25.8,56z"/><path class="st2" d="M41.5,43.3c0,0.9-0.5,1.8-1.4,2.8c-2.1,2-4.5,3.9-7.5,5.8c-2.2,1.4-4.1,2.7-5.9,4.2c-0.2,0.2-0.5,0.4-1,0.3 l-0.5-0.2l0.2-0.5c0.5-1.3,1.4-2.4,2.3-3.4c-0.1,0-0.1,0.1-0.2,0.1c-0.5,0.4-1,0.8-1.6,1.1l-0.3,0.2l-0.7-0.6l0.1-0.3 c0.5-1.2,1.4-1.8,2.3-2.5c0.2-0.2,0.5-0.3,0.7-0.5c1-0.8,2.1-1.5,3.1-2.2c1.8-1.2,3.7-2.5,5.3-4.1c1-1,1.8-1.8,2.4-2.6 c0.3-0.3,0.6-0.6,1-0.6c0.5,0,0.7,0.4,1,0.8C41.3,42,41.5,42.7,41.5,43.3 M27.2,54.5c1.5-1.2,3.1-2.3,4.8-3.4 c2.9-1.8,5.3-3.7,7.4-5.7c1.3-1.3,1.5-2.3,0.6-3.7c0-0.1-0.1-0.2-0.2-0.3c0,0-0.1,0.1-0.1,0.1c-0.7,0.8-1.5,1.7-2.5,2.7 c-1.7,1.6-3.6,3-5.5,4.2c-0.8,0.5-1.6,1.1-2.3,1.6c0.3-0.1,0.6-0.3,1-0.4l1.6-0.4l-1.1,1.2c-0.5,0.6-1,1.1-1.6,1.6 C28.6,52.9,27.8,53.6,27.2,54.5"/><path class="st3" d="M41.5,43.3c0,0.9-0.5,1.8-1.4,2.8c-2.1,2-4.5,3.9-7.5,5.8c-2.2,1.4-4.1,2.7-5.9,4.2c-0.2,0.2-0.5,0.4-1,0.3 l-0.5-0.2l0.2-0.5c0.5-1.3,1.4-2.4,2.3-3.4c-0.1,0-0.1,0.1-0.2,0.1c-0.5,0.4-1,0.8-1.6,1.1l-0.3,0.2l-0.7-0.6l0.1-0.3 c0.5-1.2,1.4-1.8,2.3-2.5c0.2-0.2,0.5-0.3,0.7-0.5c1-0.8,2.1-1.5,3.1-2.2c1.8-1.2,3.7-2.5,5.3-4.1c1-1,1.8-1.8,2.4-2.6 c0.3-0.3,0.6-0.6,1-0.6c0.5,0,0.7,0.4,1,0.8C41.3,42,41.5,42.7,41.5,43.3z M27.2,54.5c1.5-1.2,3.1-2.3,4.8-3.4 c2.9-1.8,5.3-3.7,7.4-5.7c1.3-1.3,1.5-2.3,0.6-3.7c0-0.1-0.1-0.2-0.2-0.3c0,0-0.1,0.1-0.1,0.1c-0.7,0.8-1.5,1.7-2.5,2.7 c-1.7,1.6-3.6,3-5.5,4.2c-0.8,0.5-1.6,1.1-2.3,1.6c0.3-0.1,0.6-0.3,1-0.4l1.6-0.4l-1.1,1.2c-0.5,0.6-1,1.1-1.6,1.6 C28.6,52.9,27.8,53.6,27.2,54.5z"/><path class="st2" d="M30.8,56c-1.6,0.9-3,2.1-4.5,3.2c-0.2,0.1-0.4,0.5-0.6,0.3c-0.3-0.2-0.2-0.6-0.1-0.9c0.1-0.2,0.3-0.4,0.5-0.6 c1.7-1.5,3.4-3.1,5.4-4.3c3.4-2.1,6.6-4.3,9.5-7.1c0.2-0.2,0.4-0.7,0.9-0.5c0.4,0.2,0.3,0.6,0.4,1c0.2,0.8,0.2,1.6,0.4,2.4 c0.1,0.7-0.1,1.3-0.7,1.9c-2.8,3.1-6.4,5.1-9.9,7.2c-2.1,1.3-4,2.7-5.7,4.4c-0.1,0.1-0.2,0.1-0.5,0.2c1.4-3.2,4.2-4.9,6.4-7.1 C31.6,55.5,31.2,55.8,30.8,56"/><path class="st3" d="M30.8,56c-1.6,0.9-3,2.1-4.5,3.2c-0.2,0.1-0.4,0.5-0.6,0.3c-0.3-0.2-0.2-0.6-0.1-0.9c0.1-0.2,0.3-0.4,0.5-0.6 c1.7-1.5,3.4-3.1,5.4-4.3c3.4-2.1,6.6-4.3,9.5-7.1c0.2-0.2,0.4-0.7,0.9-0.5c0.4,0.2,0.3,0.6,0.4,1c0.2,0.8,0.2,1.6,0.4,2.4 c0.1,0.7-0.1,1.3-0.7,1.9c-2.8,3.1-6.4,5.1-9.9,7.2c-2.1,1.3-4,2.7-5.7,4.4c-0.1,0.1-0.2,0.1-0.5,0.2c1.4-3.2,4.2-4.9,6.4-7.1 C31.6,55.5,31.2,55.8,30.8,56z"/><path class="st2" d="M43.1,49.8c0,0.8-0.4,1.4-0.8,1.8c-2.4,2.7-5.5,4.6-8.5,6.4c-0.5,0.3-1,0.6-1.5,0.9c-2.4,1.5-4.1,2.8-5.6,4.3 c-0.1,0.1-0.3,0.2-0.4,0.2c-0.1,0-0.2,0-0.3,0.1l-1.1,0.4l0.5-1c1.1-2.4,2.9-3.9,4.6-5.5c0.3-0.2,0.6-0.5,0.9-0.8 c-1,0.6-1.9,1.3-2.8,2c-0.4,0.3-0.8,0.7-1.3,1c0,0-0.1,0.1-0.1,0.1c-0.4,0.4-0.8,0.5-1.2,0.2c-0.2-0.2-0.4-0.5-0.4-0.8 c0-0.3,0.1-0.5,0.2-0.7c0.2-0.3,0.4-0.6,0.6-0.7c0.3-0.3,0.6-0.5,0.9-0.8c1.4-1.2,2.9-2.5,4.5-3.5c4-2.5,6.9-4.6,9.4-7 c0,0,0.1-0.1,0.1-0.1c0.2-0.2,0.6-0.8,1.3-0.5c0.6,0.2,0.6,0.8,0.6,1.1c0,0.1,0,0.1,0,0.2c0.1,0.5,0.2,1,0.2,1.4 c0,0.3,0.1,0.6,0.1,1C43,49.5,43.1,49.6,43.1,49.8 M27.8,60.8c1.1-0.9,2.4-1.8,4-2.8c0.5-0.3,1-0.6,1.5-0.9c2.9-1.8,6-3.6,8.3-6.2 c0.5-0.5,0.6-0.9,0.5-1.5c-0.1-0.3-0.1-0.7-0.1-1c-0.1-0.5-0.1-0.9-0.2-1.4c0-0.1,0-0.2,0-0.3c0-0.1,0-0.2,0-0.3 c0,0-0.1,0.1-0.1,0.2c-0.1,0.1-0.1,0.2-0.2,0.2c-2.5,2.4-5.4,4.7-9.5,7.2c-1.6,1-3,2.2-4.4,3.4c-0.3,0.3-0.6,0.5-0.9,0.8 c-0.1,0.1-0.3,0.3-0.3,0.4c0.4-0.3,0.8-0.6,1.2-0.9c1-0.8,2.1-1.6,3.3-2.3c0.5-0.3,1.1-0.6,1.9-0.1l0.5,0.3l-0.4,0.4 c-0.6,0.6-1.3,1.2-2,1.8C29.6,59,28.6,59.8,27.8,60.8"/><path class="st3" d="M43.1,49.8c0,0.8-0.4,1.4-0.8,1.8c-2.4,2.7-5.5,4.6-8.5,6.4c-0.5,0.3-1,0.6-1.5,0.9c-2.4,1.5-4.1,2.8-5.6,4.3 c-0.1,0.1-0.3,0.2-0.4,0.2c-0.1,0-0.2,0-0.3,0.1l-1.1,0.4l0.5-1c1.1-2.4,2.9-3.9,4.6-5.5c0.3-0.2,0.6-0.5,0.9-0.8 c-1,0.6-1.9,1.3-2.8,2c-0.4,0.3-0.8,0.7-1.3,1c0,0-0.1,0.1-0.1,0.1c-0.4,0.4-0.8,0.5-1.2,0.2c-0.2-0.2-0.4-0.5-0.4-0.8 c0-0.3,0.1-0.5,0.2-0.7c0.2-0.3,0.4-0.6,0.6-0.7c0.3-0.3,0.6-0.5,0.9-0.8c1.4-1.2,2.9-2.5,4.5-3.5c4-2.5,6.9-4.6,9.4-7 c0,0,0.1-0.1,0.1-0.1c0.2-0.2,0.6-0.8,1.3-0.5c0.6,0.2,0.6,0.8,0.6,1.1c0,0.1,0,0.1,0,0.2c0.1,0.5,0.2,1,0.2,1.4 c0,0.3,0.1,0.6,0.1,1C43,49.5,43.1,49.6,43.1,49.8z M27.8,60.8c1.1-0.9,2.4-1.8,4-2.8c0.5-0.3,1-0.6,1.5-0.9c2.9-1.8,6-3.6,8.3-6.2 c0.5-0.5,0.6-0.9,0.5-1.5c-0.1-0.3-0.1-0.7-0.1-1c-0.1-0.5-0.1-0.9-0.2-1.4c0-0.1,0-0.2,0-0.3c0-0.1,0-0.2,0-0.3 c0,0-0.1,0.1-0.1,0.2c-0.1,0.1-0.1,0.2-0.2,0.2c-2.5,2.4-5.4,4.7-9.5,7.2c-1.6,1-3,2.2-4.4,3.4c-0.3,0.3-0.6,0.5-0.9,0.8 c-0.1,0.1-0.3,0.3-0.3,0.4c0.4-0.3,0.8-0.6,1.2-0.9c1-0.8,2.1-1.6,3.3-2.3c0.5-0.3,1.1-0.6,1.9-0.1l0.5,0.3l-0.4,0.4 c-0.6,0.6-1.3,1.2-2,1.8C29.6,59,28.6,59.8,27.8,60.8z"/><path class="st2" d="M27,67.8c0.2-0.6,0.6-1.1,1-1.5c1.3-1.2,2.6-2.4,3.9-3.5c0.3-0.2,0.6-0.4,0.7-0.8c-0.6-0.3-1.1,0-1.5,0.3 c-1.4,0.7-2.6,1.8-3.8,2.8c-0.2,0.2-0.4,0.4-0.7,0.5c0,0-0.1,0.1-0.1,0.1c-0.1-0.1-0.1-0.1,0-0.2c0,0,0.1,0.1,0.1,0.1 c0,0-0.1-0.1-0.1-0.1c0.3-1.6,1.8-2.3,2.9-3.2c4.1-3.3,8.7-5.9,12.7-9.3c0.5-0.4,0.7-0.3,0.7,0.3c0,0.9,0.1,1.9,0.1,2.8 c0,0.8-0.4,1.3-1,1.8c-2.7,2.2-5.5,4.1-8.4,6c-1.6,1.1-3.1,2.3-4.7,3.4c-0.4,0.3-0.9,0.7-1.4,0.9C27.1,68.4,26.9,68.2,27,67.8"/><path class="st3" d="M27,67.8c0.2-0.6,0.6-1.1,1-1.5c1.3-1.2,2.6-2.4,3.9-3.5c0.3-0.2,0.6-0.4,0.7-0.8c-0.6-0.3-1.1,0-1.5,0.3 c-1.4,0.7-2.6,1.8-3.8,2.8c-0.2,0.2-0.4,0.4-0.7,0.5c0,0-0.1,0.1-0.1,0.1c-0.1-0.1-0.1-0.1,0-0.2c0,0,0.1,0.1,0.1,0.1 c0,0-0.1-0.1-0.1-0.1c0.3-1.6,1.8-2.3,2.9-3.2c4.1-3.3,8.7-5.9,12.7-9.3c0.5-0.4,0.7-0.3,0.7,0.3c0,0.9,0.1,1.9,0.1,2.8 c0,0.8-0.4,1.3-1,1.8c-2.7,2.2-5.5,4.1-8.4,6c-1.6,1.1-3.1,2.3-4.7,3.4c-0.4,0.3-0.9,0.7-1.4,0.9C27.1,68.4,26.9,68.2,27,67.8z"/><path class="st2" d="M43.4,55.8l0,0.2c0,1.1-0.7,1.8-1.2,2.2c-2.6,2.1-5.3,4-8.4,6c-1.1,0.7-2.2,1.5-3.2,2.3 c-0.5,0.4-1,0.7-1.4,1.1l-0.2,0.1c-0.4,0.3-0.8,0.6-1.2,0.8c-0.4,0.2-0.7,0.1-0.9,0c-0.3-0.2-0.4-0.6-0.3-1 c0.2-0.6,0.6-1.2,1.2-1.7c1-0.9,2.1-1.9,3.1-2.9l0.5-0.5l0,0c-1.2,0.6-2.1,1.4-3.2,2.3l-0.5,0.4c0,0-0.1,0.1-0.1,0.1 c-0.2,0.1-0.4,0.3-0.7,0.4c-0.3,0.3-0.5,0.2-0.7,0.1C26,65.8,26,65.6,26,65.5c0-0.1,0-0.3,0.1-0.4c0.3-1.4,1.4-2.1,2.3-2.8 c0.3-0.2,0.5-0.4,0.7-0.6c1.9-1.5,3.9-2.9,5.9-4.3c2.3-1.6,4.6-3.2,6.8-5c0.2-0.1,0.6-0.5,1.1-0.3c0.5,0.2,0.5,0.8,0.5,1l0,0.8 C43.4,54.6,43.4,55.2,43.4,55.8 M27.7,67.4c0.2-0.1,0.4-0.3,0.6-0.4l0.2-0.2c0.5-0.4,1-0.7,1.4-1.1c1.1-0.8,2.2-1.6,3.3-2.4 c3-2,5.8-3.9,8.3-6c0.6-0.5,0.9-0.9,0.9-1.5l0-0.2c0-0.6,0-1.2,0-1.8l0-0.6c-2.1,1.8-4.5,3.4-6.7,5c-1.6,1.1-3.3,2.3-5,3.5 c0.1,0,0.1-0.1,0.2-0.1l0.1-0.1c0.5-0.3,1.1-0.6,1.9-0.2l0.3,0.2L33.1,62c-0.1,0.5-0.4,0.8-0.7,1c-0.1,0-0.1,0.1-0.2,0.1l-0.7,0.7 c-1,1-2.1,1.9-3.1,2.9C28.1,66.9,27.9,67.1,27.7,67.4"/><path class="st3" d="M43.4,55.8l0,0.2c0,1.1-0.7,1.8-1.2,2.2c-2.6,2.1-5.3,4-8.4,6c-1.1,0.7-2.2,1.5-3.2,2.3 c-0.5,0.4-1,0.7-1.4,1.1l-0.2,0.1c-0.4,0.3-0.8,0.6-1.2,0.8c-0.4,0.2-0.7,0.1-0.9,0c-0.3-0.2-0.4-0.6-0.3-1 c0.2-0.6,0.6-1.2,1.2-1.7c1-0.9,2.1-1.9,3.1-2.9l0.5-0.5l0,0c-1.2,0.6-2.1,1.4-3.2,2.3l-0.5,0.4c0,0-0.1,0.1-0.1,0.1 c-0.2,0.1-0.4,0.3-0.7,0.4c-0.3,0.3-0.5,0.2-0.7,0.1C26,65.8,26,65.6,26,65.5c0-0.1,0-0.3,0.1-0.4c0.3-1.4,1.4-2.1,2.3-2.8 c0.3-0.2,0.5-0.4,0.7-0.6c1.9-1.5,3.9-2.9,5.9-4.3c2.3-1.6,4.6-3.2,6.8-5c0.2-0.1,0.6-0.5,1.1-0.3c0.5,0.2,0.5,0.8,0.5,1l0,0.8 C43.4,54.6,43.4,55.2,43.4,55.8z M27.7,67.4c0.2-0.1,0.4-0.3,0.6-0.4l0.2-0.2c0.5-0.4,1-0.7,1.4-1.1c1.1-0.8,2.2-1.6,3.3-2.4 c3-2,5.8-3.9,8.3-6c0.6-0.5,0.9-0.9,0.9-1.5l0-0.2c0-0.6,0-1.2,0-1.8l0-0.6c-2.1,1.8-4.5,3.4-6.7,5c-1.6,1.1-3.3,2.3-5,3.5 c0.1,0,0.1-0.1,0.2-0.1l0.1-0.1c0.5-0.3,1.1-0.6,1.9-0.2l0.3,0.2L33.1,62c-0.1,0.5-0.4,0.8-0.7,1c-0.1,0-0.1,0.1-0.2,0.1l-0.7,0.7 c-1,1-2.1,1.9-3.1,2.9C28.1,66.9,27.9,67.1,27.7,67.4z"/><path class="st2" d="M31.4,71.2c-0.5-0.4-0.1-0.9,0.1-1.3c0.8-1.3,1.9-2.2,3.1-3.1c0.2-0.1,0.3-0.3,0.5-0.4c-0.4-0.4-0.7-0.1-1,0 c-1.7,1-3.5,2-4.8,3.6c-0.2,0.2-0.3,0.5-0.6,0.3c-0.4-0.2-0.2-0.5-0.1-0.8c0.2-0.5,0.6-0.8,1-1.1c3.7-2.7,7.4-5.4,11.1-8 c0.6-0.4,1.1-1.1,1.8-1.4l0.1-0.1c0,0,0,0.1-0.1,0.1l-0.1-0.1l0.1,0.1c0,0.1,0,0.1,0,0.2c0.1,2.5-0.5,4.6-2.8,6 c-1.4,0.9-2.7,2.1-4.2,2.9c-1.2,0.6-2.1,1.5-3.1,2.4C32.1,70.9,31.8,71.5,31.4,71.2"/><path class="st3" d="M31.4,71.2c-0.5-0.4-0.1-0.9,0.1-1.3c0.8-1.3,1.9-2.2,3.1-3.1c0.2-0.1,0.3-0.3,0.5-0.4c-0.4-0.4-0.7-0.1-1,0 c-1.7,1-3.5,2-4.8,3.6c-0.2,0.2-0.3,0.5-0.6,0.3c-0.4-0.2-0.2-0.5-0.1-0.8c0.2-0.5,0.6-0.8,1-1.1c3.7-2.7,7.4-5.4,11.1-8 c0.6-0.4,1.1-1.1,1.8-1.4l0.1-0.1c0,0,0,0.1-0.1,0.1l-0.1-0.1l0.1,0.1c0,0.1,0,0.1,0,0.2c0.1,2.5-0.5,4.6-2.8,6 c-1.4,0.9-2.7,2.1-4.2,2.9c-1.2,0.6-2.1,1.5-3.1,2.4C32.1,70.9,31.8,71.5,31.4,71.2z"/><path class="st2" d="M44,57.6l-0.9,1.7c0,0,0,0.1,0,0.1c0,0.2,0,0.4,0,0.5c0,2.7-1,4.6-3.1,5.9c-0.6,0.4-1.1,0.8-1.6,1.2 c-0.8,0.6-1.7,1.3-2.6,1.8c-1,0.5-1.8,1.2-2.6,2l-0.4,0.4c0,0-0.1,0.1-0.1,0.1c-0.2,0.2-0.8,0.8-1.5,0.3c-0.3-0.2-0.4-0.5-0.4-0.8 c0-0.4,0.2-0.7,0.4-1c0.3-0.5,0.7-1,1.1-1.4c-0.9,0.6-1.7,1.3-2.4,2.1c-0.2,0.2-0.6,0.7-1.2,0.4C28.2,70.6,28,70.4,28,70 c0-0.2,0.1-0.4,0.1-0.5c0.2-0.7,0.7-1.1,1.1-1.4l2.3-1.7c3-2.1,5.9-4.3,8.9-6.4c0.2-0.2,0.4-0.3,0.6-0.5c0.4-0.4,0.8-0.7,1.3-0.9 l0,0L44,57.6z M31.7,70.7c0.1,0,0.1-0.1,0.2-0.2c0.1-0.1,0.1-0.2,0.2-0.2l0.4-0.3c0.9-0.8,1.8-1.6,2.8-2.1c0.9-0.4,1.7-1.1,2.5-1.7 c0.5-0.4,1.1-0.8,1.7-1.2c1.8-1.1,2.6-2.7,2.6-5.1c-0.1,0.1-0.3,0.2-0.4,0.4c-0.2,0.2-0.4,0.4-0.7,0.6c-2.5,1.8-5.1,3.6-7.6,5.5 c0,0,0.1,0,0.1,0L34,66c0.2-0.2,0.9-0.6,1.5,0.1l0.4,0.4L35.3,67c-0.1,0.1-0.2,0.2-0.3,0.3l-0.2,0.1c-1.1,0.9-2.1,1.7-2.8,2.8 C31.8,70.4,31.7,70.6,31.7,70.7C31.7,70.7,31.7,70.7,31.7,70.7"/><path class="st3" d="M44,57.6l-0.9,1.7c0,0,0,0.1,0,0.1c0,0.2,0,0.4,0,0.5c0,2.7-1,4.6-3.1,5.9c-0.6,0.4-1.1,0.8-1.6,1.2 c-0.8,0.6-1.7,1.3-2.6,1.8c-1,0.5-1.8,1.2-2.6,2l-0.4,0.4c0,0-0.1,0.1-0.1,0.1c-0.2,0.2-0.8,0.8-1.5,0.3c-0.3-0.2-0.4-0.5-0.4-0.8 c0-0.4,0.2-0.7,0.4-1c0.3-0.5,0.7-1,1.1-1.4c-0.9,0.6-1.7,1.3-2.4,2.1c-0.2,0.2-0.6,0.7-1.2,0.4C28.2,70.6,28,70.4,28,70 c0-0.2,0.1-0.4,0.1-0.5c0.2-0.7,0.7-1.1,1.1-1.4l2.3-1.7c3-2.1,5.9-4.3,8.9-6.4c0.2-0.2,0.4-0.3,0.6-0.5c0.4-0.4,0.8-0.7,1.3-0.9 l0,0L44,57.6z M31.7,70.7c0.1,0,0.1-0.1,0.2-0.2c0.1-0.1,0.1-0.2,0.2-0.2l0.4-0.3c0.9-0.8,1.8-1.6,2.8-2.1c0.9-0.4,1.7-1.1,2.5-1.7 c0.5-0.4,1.1-0.8,1.7-1.2c1.8-1.1,2.6-2.7,2.6-5.1c-0.1,0.1-0.3,0.2-0.4,0.4c-0.2,0.2-0.4,0.4-0.7,0.6c-2.5,1.8-5.1,3.6-7.6,5.5 c0,0,0.1,0,0.1,0L34,66c0.2-0.2,0.9-0.6,1.5,0.1l0.4,0.4L35.3,67c-0.1,0.1-0.2,0.2-0.3,0.3l-0.2,0.1c-1.1,0.9-2.1,1.7-2.8,2.8 C31.8,70.4,31.7,70.6,31.7,70.7C31.7,70.7,31.7,70.7,31.7,70.7z"/><path class="st2" d="M33.6,71.1c2.5-1.7,5.1-3.3,7.6-5c0.1,0.1,0.1,0.1,0.2,0.2c-0.4,1.2-0.8,2.5-1.2,3.7c-0.1,0.4-0.5,0.5-0.8,0.6 c-1.8,0.4-3.5,0.8-5.1,1.7c-0.5,0.3-1,0.3-1.3-0.2C32.7,71.6,33.3,71.4,33.6,71.1"/><path class="st3" d="M33.6,71.1c2.5-1.7,5.1-3.3,7.6-5c0.1,0.1,0.1,0.1,0.2,0.2c-0.4,1.2-0.8,2.5-1.2,3.7c-0.1,0.4-0.5,0.5-0.8,0.6 c-1.8,0.4-3.5,0.8-5.1,1.7c-0.5,0.3-1,0.3-1.3-0.2C32.7,71.6,33.3,71.4,33.6,71.1z"/><path class="st2" d="M41.9,66.1l0,0.4l-0.3,1c-0.3,0.9-0.6,1.8-0.9,2.7c-0.2,0.7-0.8,0.8-1.2,0.9c-1.6,0.4-3.4,0.8-4.9,1.7 c-0.8,0.4-1.6,0.3-2-0.4c-0.1-0.2-0.2-0.4-0.2-0.6c0-0.5,0.5-0.8,0.8-1l0.1-0.1c1.9-1.3,3.9-2.5,5.8-3.8l2.1-1.4L41.9,66.1z M33.4,71.9c0.2,0.2,0.5,0.1,0.7,0c1.7-0.9,3.6-1.4,5.2-1.8c0.4-0.1,0.4-0.1,0.5-0.2c0.3-0.9,0.6-1.8,0.9-2.7l0-0.1l-1,0.6 c-1.9,1.3-3.9,2.5-5.8,3.8c-0.1,0-0.1,0.1-0.2,0.1C33.6,71.7,33.4,71.8,33.4,71.9"/><path class="st3" d="M41.9,66.1l0,0.4l-0.3,1c-0.3,0.9-0.6,1.8-0.9,2.7c-0.2,0.7-0.8,0.8-1.2,0.9c-1.6,0.4-3.4,0.8-4.9,1.7 c-0.8,0.4-1.6,0.3-2-0.4c-0.1-0.2-0.2-0.4-0.2-0.6c0-0.5,0.5-0.8,0.8-1l0.1-0.1c1.9-1.3,3.9-2.5,5.8-3.8l2.1-1.4L41.9,66.1z M33.4,71.9c0.2,0.2,0.5,0.1,0.7,0c1.7-0.9,3.6-1.4,5.2-1.8c0.4-0.1,0.4-0.1,0.5-0.2c0.3-0.9,0.6-1.8,0.9-2.7l0-0.1l-1,0.6 c-1.9,1.3-3.9,2.5-5.8,3.8c-0.1,0-0.1,0.1-0.2,0.1C33.6,71.7,33.4,71.8,33.4,71.9z"/><path class="st4" d="M16.4,75.9c2.4-2.6,5.4-3.9,8.9-4c2.6,0,5,0.5,7.4,1.6c0.8,0.4,1.3,0.3,2.1,0c3.2-1.3,6.6-1.9,10-1 c2.1,0.6,3.9,1.6,5.4,3.2c0.2,0.2,0.8,0.5,0.3,0.9c-0.4,0.3-0.7,0.9-1.5,0.5c-1.7-1.1-3.7-1.7-5.6-2.1c-3.4-0.6-6.6-0.1-9.6,1.5 c-0.6,0.4-1.1,0.3-1.7,0C28,74.7,24,74,19.8,75.4c-0.9,0.3-1.9,0.7-2.7,1.3c-0.3,0.2-0.6,0.4-0.9,0C15.8,76.3,16.2,76.1,16.4,75.9"/><path class="st4" d="M17.3,79.7c0,1.8-1.3,3.2-3,3.3c-1.7,0.1-3.2-1.4-3.2-3.2c0-1.7,1.4-3.2,3.1-3.2 C15.9,76.6,17.3,77.9,17.3,79.7"/><path class="st4" d="M18.4,78.3c-0.3,0.1-0.5,0.5-0.8,0c-0.3-0.5,0-0.6,0.4-0.8c1.8-1.1,3.8-1.6,6-1.7c2.9,0,5.7,0.7,8.2,2.1 c0.5,0.3,0.9,0.3,1.4,0c4.5-2.8,9.1-2.5,13.8-0.4c0.4,0.2,0.8,0.3,1.1,0.6c0.2,0.1,0.8-0.4,0.5,0.4c-0.2,0.5-0.3,0.6-0.9,0.4 c-1.3-0.6-2.8-0.9-4.2-1.1c-3.7-0.4-7.1,0.6-10,2.8c-0.7,0.5-1,0.5-1.7,0c-2.9-1.9-6-3.2-9.6-3.1C21.1,77.4,19.7,77.7,18.4,78.3"/><path class="st4" d="M14.7,79c0.6,1.1,0.2,2-1.1,2.2c-0.3,0-0.6-0.1-0.9,0.3c1.1,0.8,2.6,0.6,3.3-0.4c0.6-0.9,0.4-1.9-0.6-2.6 c-0.3-0.2-0.6-0.5-0.9-0.2C14.2,78.4,14.6,78.7,14.7,79"/><path class="st4" d="M32.8,37.7c-3.2,0-5.9-2.5-5.9-5.6c0-3.1,2.6-5.6,5.9-5.6c3.2,0,5.9,2.5,5.9,5.6 C38.7,35.1,36.1,37.7,32.8,37.7"/><path class="st4" d="M32.6,26.1c-1.8,0-3.3-1.4-3.3-3.2c0-1.8,1.5-3.2,3.3-3.2c1.8,0,3.3,1.4,3.3,3.2C36,24.6,34.5,26.1,32.6,26.1"/><path class="st0" d="M26.1,46.4C26.1,46.4,26.2,46.4,26.1,46.4C26.2,46.4,26.1,46.4,26.1,46.4z M52.4,79c0.5,1,0.1,1.9-1,2.1 c-0.3,0.1-0.7-0.1-1,0.2c1.1,0.8,2.6,0.6,3.3-0.4c0.6-0.8,0.4-1.8-0.5-2.5c-0.3-0.2-0.7-0.6-1-0.4C51.9,78.3,52.3,78.7,52.4,79 M24.7,79c0,0-3.8-0.9-6.3,0.9c-0.1,1.1-1.5,6-5.9,4.3c-3.2-1.5-4.1-5.4-0.7-8.2c2.1-0.6,3.2-0.2,3.2-0.2s2.3-4.9,11.1-4.8 c-3.2-7.2-3.7-18.6-1.9-25.3C26,39,28,36.5,28,36.5s-2.9-2.6-1.1-7.4c0,0,0.9-1.7,3.3-2.9l0-0.2c0,0-3-2.7-0.6-5.6 c2.4-3,6.7-0.5,6.9,2c0.2,2.5-1.6,3.5-1.7,3.5c-0.1,0,0,0.5,0,0.5s4,1,4.2,4.9c0.2,3.9-1.2,4-1.2,4S43.5,41,44,54.6 c-0.3,12-2.5,16.3-2.5,16.3s6.1,0,9.6,4.4c4.5,0,5.9,3.5,4.9,6c-0.9,2.5-4,3.6-5.6,2.8c-1.6-0.8-2.8-2.1-3-4 C44.7,79,42,78.7,40.9,79c0,9.7-2,112.9-2,112.9l-7.7,13.6l-7-13.8L24.7,79z M32.5,23.6c0.7,0.5,1.3,0.3,1.7-0.3 c0.5-0.7,0.2-1.4-0.7-1.8C33.7,23.2,33.7,23.2,32.5,23.6 M30.3,201.1c0.3-0.2,0.2-0.5,0.2-0.7c0.1-4.1,0.1-8.2,0.1-12.3 c0.1-10.2,0.3-20.4,0.4-30.6c0.1-9.7,0.2-19.3,0.3-29c0.1-7.4,0.2-14.8,0.3-22.1c0.1-7.7,0.2-15.4,0.3-23.1c0-0.5,0-0.9-0.5-1.1 c-1.5-0.9-3-1.7-4.5-2.6c-0.1-0.2-0.3-0.2-0.5-0.1c-0.1,0-0.1,0-0.2,0c0,1.7-0.1,3.4-0.1,5.1c-0.1,9.9-0.2,19.7-0.3,29.6 c-0.1,10.4-0.2,20.8-0.3,31.2c-0.1,7.6-0.2,15.3-0.2,22.9c-0.1,5.4,0,10.8-0.2,16.2c-0.1,3.5,0,6.9,1.9,10c0.8,1.3,1.3,2.7,1.9,4 C29.5,199.4,29.9,200.2,30.3,201.1 M39.9,79.4c-2.1,0.3-4.1,1-5.8,2.4c-0.4,0.3-0.6,0.7-0.6,1.2c0,2.5-0.1,4.9-0.1,7.4 c-0.1,6.6-0.3,13.2-0.4,19.7c-0.2,8.6-0.3,17.2-0.4,25.7c-0.1,6-0.2,12-0.3,18c-0.2,9.6-0.3,19.3-0.5,28.9 c-0.1,3.1-0.2,6.2-0.1,9.3c0,3,0.1,5.9,0.2,8.8c0,0,0.1-0.1,0.2-0.3c1.7-3,3.5-6.1,5.2-9.1c0.3-0.6,0.4-1.2,0.4-1.8 c0-1.5,0.1-3.1,0.1-4.6c0.2-9.1,0.4-18.1,0.6-27.2c0.1-6.3,0.2-12.6,0.4-19c0.2-7.6,0.3-15.1,0.5-22.7c0.2-10.4,0.4-20.8,0.6-31.2 c0-1.7,0.1-3.4,0.2-5.1C40,79.9,40.1,79.6,39.9,79.4 M51.7,76.4c-1.6,0.1-3,1.6-3,3.3c0,1.7,1.5,3.2,3.2,3.1c1.7-0.1,3.1-1.6,3-3.3 C54.9,77.8,53.4,76.3,51.7,76.4 M29.3,30.6c0,0.1,0,0.3,0.1,0.4c0.2,0.3,0.5,0.6,0.9,0.5c0.6-0.1,0.1-0.5,0.1-0.8 c-0.1-0.7,0.3-1.1,0.9-1.3c0.2-0.1,0.4,0,0.4-0.3c0-0.2-0.2-0.3-0.5-0.4C30.3,28.7,29.3,29.6,29.3,30.6 M33.6,31.9 c0.3,0.8-0.2,1.1-0.7,1.4c-0.2,0.1-0.6,0-0.5,0.4c0.1,0.3,0.4,0.3,0.7,0.3c0.7,0,1.4-0.5,1.6-1.1c0.1-0.5,0.1-1-0.3-1.4 c-0.2-0.2-0.5-0.3-0.7-0.2C33.4,31.4,33.5,31.7,33.6,31.9 M34.8,35.3c1.4-0.6,1.9-1.7,2-3.1c0.1-1.3-0.2-2.4-1.5-3.3 c-0.1,0.6,0.1,1,0.3,1.4c0.4,1.2,0.4,2.3-0.4,3.3c-0.8,1-1.8,1.2-3,1.1c-0.3,0-0.7-0.2-0.8,0.3c0,0.4,0.3,0.5,0.7,0.6 C33,35.8,33.9,35.7,34.8,35.3 M26.8,43.2c2-1.4,4.2-2.5,6.2-4c0.5-0.4,0.3-0.6-0.2-0.7c-1-0.2-1.9-0.3-2.9-0.7 c-0.7-0.3-1.5,0.1-1.7,0.8c-0.1,0.4,0,0.6,0.5,0.4c0.4-0.2,0.9-0.5,1.5-0.1c-0.9,0.6-1.8,1.3-2.6,1.8c-0.8,0.5-1,1.3-1.2,2.1 C26.3,43.1,26.3,43.5,26.8,43.2 M29.6,45c-1.7,1.9-3.9,3.4-4.9,6.1c0.6-0.1,0.9-0.5,1.2-0.7c1.1-0.8,2.1-1.7,3.3-2.4 c3.1-2,5.9-4.2,8.3-6.9c1.1-1.2,1.4-2.1,0.5-3.5c-0.5-0.8-0.7-0.9-1.4-0.2c-0.9,0.8-1.7,1.7-2.6,2.5c-2,1.7-4.4,3-6.4,4.8 c-0.6,0.5-1.4,0.9-1.5,1.8l0,0c0,0.1,0,0.1-0.1,0.2c0,0,0.1-0.1,0.1-0.1c0.6-0.3,1.1-0.7,1.7-1C28.9,44.8,28.9,44.8,29.6,45 M26,55.8c1.9-1.6,3.9-3,6-4.3c2.7-1.7,5.2-3.5,7.5-5.7c1.4-1.3,1.7-2.6,0.7-4.3c-0.4-0.7-0.6-0.8-1.1-0.2 c-0.8,0.9-1.6,1.8-2.4,2.7c-2.5,2.5-5.7,4.2-8.5,6.4c-1.1,0.8-2.3,1.4-2.9,2.8c0.1,0.1,0.1,0.1,0.2,0.2c1.6-1,2.9-2.4,4.9-3 c-1.7,1.8-3.8,3.3-4.8,5.7C25.7,56.1,25.8,55.9,26,55.8 M31.8,55.9c-2.2,2.2-5,4-6.4,7.1c0.3-0.1,0.5-0.1,0.5-0.2 c1.7-1.7,3.6-3.1,5.7-4.4c3.5-2.1,7.1-4.1,9.9-7.2c0.5-0.6,0.8-1.1,0.7-1.9c-0.1-0.8-0.2-1.6-0.4-2.4c-0.1-0.3,0-0.8-0.4-1 c-0.4-0.2-0.6,0.3-0.9,0.5c-2.8,2.8-6.1,5-9.5,7.1c-2,1.2-3.7,2.8-5.4,4.3c-0.2,0.2-0.4,0.4-0.5,0.6c-0.2,0.3-0.2,0.7,0.1,0.9 c0.2,0.2,0.4-0.1,0.6-0.3c1.5-1.1,2.9-2.3,4.5-3.2C30.8,55.8,31.2,55.5,31.8,55.9 M27.1,68.2c0.5-0.3,0.9-0.6,1.4-0.9 c1.6-1.1,3.1-2.3,4.7-3.4c2.9-1.9,5.7-3.8,8.4-6c0.6-0.5,1-1.1,1-1.8c0-0.9,0-1.9-0.1-2.8c0-0.6-0.2-0.7-0.7-0.3 c-4,3.4-8.6,6-12.7,9.3c-1.1,0.9-2.6,1.6-2.9,3.2c0,0,0.1,0.1,0.1,0.1c0,0-0.1-0.1-0.1-0.1c-0.1,0.1-0.2,0.1,0,0.2 c0,0,0.1-0.1,0.1-0.1c0.3,0,0.5-0.3,0.7-0.5c1.2-1,2.4-2.1,3.8-2.8c0.5-0.2,0.9-0.6,1.5-0.3c-0.1,0.4-0.4,0.6-0.7,0.8 c-1.3,1.2-2.6,2.4-3.9,3.5c-0.5,0.4-0.8,0.9-1,1.5C26.5,68.2,26.7,68.4,27.1,68.2 M32,70.7c1-0.9,1.9-1.8,3.1-2.4 c1.6-0.8,2.8-2,4.2-2.9c2.3-1.5,2.9-3.5,2.8-6c0-0.1,0-0.1,0-0.2l-0.1-0.1l0.1,0.1c0,0,0-0.1,0.1-0.1l-0.1,0.1 c-0.7,0.3-1.2,1-1.8,1.4c-3.7,2.7-7.4,5.3-11.1,8c-0.4,0.3-0.9,0.6-1,1.1c-0.1,0.3-0.2,0.6,0.1,0.8c0.3,0.1,0.5-0.1,0.6-0.3 c1.3-1.6,3.1-2.5,4.8-3.6c0.3-0.2,0.6-0.5,1,0c-0.2,0.1-0.4,0.3-0.5,0.4c-1.2,0.9-2.3,1.8-3.1,3.1c-0.2,0.4-0.6,0.9-0.1,1.3 C31.4,71.5,31.7,70.9,32,70.7 M32.6,72.1c0.3,0.4,0.8,0.4,1.3,0.2c1.6-0.9,3.3-1.3,5.1-1.7c0.4-0.1,0.7-0.2,0.8-0.6 c0.4-1.2,0.8-2.5,1.2-3.7c-0.1-0.1-0.1-0.1-0.2-0.2c-2.5,1.7-5.1,3.3-7.6,5C32.9,71.4,32.3,71.6,32.6,72.1 M15.8,76.7 c0.3,0.4,0.6,0.2,0.9,0c0.8-0.6,1.7-1,2.7-1.3c4.2-1.4,8.3-0.7,12.2,1.2c0.6,0.3,1.1,0.3,1.7,0c3-1.7,6.2-2.2,9.6-1.5 c2,0.4,3.9,1,5.6,2.1c0.8,0.5,1.1-0.2,1.5-0.5c0.5-0.4-0.1-0.7-0.3-0.9c-1.4-1.6-3.3-2.7-5.4-3.2c-3.5-0.9-6.8-0.3-10,1 c-0.7,0.3-1.3,0.3-2.1,0c-2.3-1.1-4.8-1.6-7.4-1.6c-3.5,0.2-6.5,1.4-8.9,4C15.8,76.1,15.4,76.3,15.8,76.7 M13.8,76.6 c-1.7,0-3.1,1.5-3.1,3.2c0,1.8,1.5,3.2,3.2,3.2c1.7-0.1,3-1.5,3-3.3C16.9,77.9,15.6,76.6,13.8,76.6 M22.1,77.3 c3.6-0.1,6.7,1.2,9.6,3.1c0.6,0.4,1,0.5,1.7,0c2.9-2.2,6.3-3.2,10-2.8c1.5,0.2,2.9,0.5,4.2,1.1c0.5,0.2,0.7,0.1,0.9-0.4 c0.3-0.8-0.4-0.2-0.5-0.4c-0.3-0.2-0.7-0.4-1.1-0.6c-4.7-2.1-9.3-2.3-13.8,0.4c-0.5,0.3-0.9,0.3-1.4,0c-2.6-1.4-5.3-2.1-8.2-2.1 c-2.1,0-4.1,0.6-6,1.7c-0.3,0.2-0.6,0.4-0.4,0.8c0.3,0.5,0.6,0.2,0.8,0C19.3,77.7,20.7,77.4,22.1,77.3 M14.3,79 c0.6,1.1,0.2,2-1.1,2.2c-0.3,0-0.6-0.1-0.9,0.3c1.1,0.8,2.6,0.6,3.3-0.4c0.6-0.9,0.4-1.9-0.6-2.6c-0.3-0.2-0.6-0.5-0.9-0.2 C13.8,78.4,14.2,78.7,14.3,79 M35.5,22.9c0-1.5-1.3-2.7-2.8-2.7c-1.5,0-2.8,1.2-2.8,2.7c0,1.5,1.3,2.7,2.8,2.7 C34.2,25.6,35.5,24.4,35.5,22.9 M38,31.9c0-2.9-2.4-5.2-5.3-5.2c-2.9,0-5.3,2.3-5.3,5.2c0,2.9,2.4,5.2,5.3,5.2 C35.6,37.1,38,34.8,38,31.9"/><path class="st2" d="M78.2,180.6C78.2,180.5,78.1,180.5,78.2,180.6C78.1,180.5,78.2,180.5,78.2,180.6"/><path class="st3" d="M78.2,180.6C78.2,180.5,78.1,180.5,78.2,180.6C78.1,180.5,78.2,180.5,78.2,180.6z"/><polygon class="st2" points="77.7,180.8 78.4,180.1 78.5,180.2 77.9,180.9"/><polygon class="st3" points="77.7,180.8 78.4,180.1 78.5,180.2 77.9,180.9"/><path class="st4" d="M51.4,148.3c-0.5-1-0.1-1.9,1-2.1c0.3-0.1,0.7,0.1,1-0.2c-1.2-0.8-2.6-0.6-3.3,0.5c-0.6,0.8-0.3,1.8,0.5,2.5 c0.3,0.2,0.7,0.5,1,0.4C51.9,149,51.5,148.6,51.4,148.3"/><path class="st4" d="M71.1,205.5c-0.9-0.4-1.2-1.1-0.7-1.8c0.4-0.6,1-0.8,1.7-0.3C70.9,203.9,70.9,203.9,71.1,205.5"/><path class="st5" d="M73,28.5c0.6,1.3,1.2,2.8,2,4c1.9,3.1,2.1,6.5,2,10c-0.1,5.4,0,10.8,0.1,16.2c0,7.6,0.1,15.3,0.1,22.9 c0,10.4,0.1,20.8,0.1,31.2c0,9.9,0.1,19.7,0.1,29.6c0,1.7,0,3.4,0,5.1c-0.1,0-0.1,0-0.2,0.1c-0.2,0-0.3,0-0.5-0.1 c-1.5-0.8-3-1.7-4.5-2.5c-0.4-0.3-0.5-0.7-0.5-1.1c0-7.7,0-15.4-0.1-23.1c0-7.4,0-14.8,0-22.1c0-9.7-0.1-19.3-0.1-29 c0-10.2,0-20.4,0-30.6c0-4.1,0-8.2,0-12.3c0-0.2-0.1-0.4,0.2-0.7C72.2,26.8,72.6,27.6,73,28.5"/><path class="st5" d="M71.3,143.9L71.3,143.9c0-4.5,0-8.8,0-13.2l0-10c0-3.6,0-7.3,0-10.9c0-3.7,0-7.5,0-11.2c0-4.1,0-8.2,0-12.3 c0-5.6,0-11.1,0-16.7c0-5.9,0-11.9,0-17.8l0-12.8c0-2.3,0-4.5,0-6.8c0-1.8,0-3.7,0-5.5c0-0.1,0-0.2,0-0.2c0-0.3,0.1-0.6,0.4-0.8 l0.5-0.4l1.5,3.2c0.2,0.4,0.4,0.9,0.6,1.3c0.4,0.9,0.8,1.8,1.3,2.7c1.8,2.8,2.1,5.8,2.1,8.7c0,0.5,0,1,0,1.6c0,3.7,0,7.5,0,11.1 c0,1.7,0,3.4,0,5.2l0,10.2c0,4.2,0,8.5,0,12.7l0.1,31.2c0,9.9,0.1,19.7,0.1,29.6c0,1.2,0,2.3,0,3.5l0,2l-0.6,0.1 c-0.4,0.1-0.7-0.1-0.9-0.2l-4.5-2.4C71.4,144.9,71.3,144.4,71.3,143.9 M72.1,27.6c0,1.5,0,3,0,4.4c0,2.3,0,4.5,0,6.8l0,12.8 c0,5.9,0,11.9,0,17.8c0,5.6,0,11.1,0,16.7c0,4.1,0,8.2,0,12.3c0,3.7,0,7.5,0,11.2c0,3.6,0,7.3,0,10.9l0,10c0,4.4,0,8.8,0,13.2 l-0.5,0.1l0.5,0c0,0.4,0.1,0.6,0.2,0.7l4.4,2.4l0-1c0-1.2,0-2.3,0-3.5c0-9.9-0.1-19.7-0.1-29.6l-0.1-31.2c0-4.2,0-8.5,0-12.7 l0-10.2c0-1.7,0-3.4,0-5.2c0-3.6-0.1-7.4,0-11.1c0-0.5,0-1,0-1.5c0-2.7-0.3-5.5-2-8.2c-0.6-0.9-1-1.9-1.4-2.8 c-0.2-0.4-0.4-0.9-0.6-1.3L72.1,27.6z"/><path class="st5" d="M63.7,147c0-1.7,0.1-3.4,0.1-5.1c0.1-10.4,0.1-20.8,0.2-31.2c0-7.6,0.1-15.1,0.2-22.7c0-6.3,0.1-12.6,0.1-19 c0.1-9.1,0.1-18.1,0.2-27.2c0-1.5,0.1-3.1,0-4.6c0-0.6,0.1-1.2,0.4-1.8c1.7-3.1,3.4-6.1,5.1-9.2c0.1-0.1,0.2-0.3,0.2-0.3 c0.1,2.9,0.3,5.9,0.3,8.8c0.1,3.1,0,6.2,0,9.3c0,9.6-0.1,19.3-0.1,28.9c0,6,0,12,0,18c0,8.6,0,17.2-0.1,25.7 c0,6.6-0.1,13.2-0.1,19.7c0,2.5,0,4.9,0,7.4c0,0.5-0.2,0.9-0.6,1.2c-1.6,1.5-3.6,2.2-5.8,2.5C63.7,147.5,63.8,147.2,63.7,147"/><path class="st5" d="M63.2,147.1l0-1.7c0-1.2,0.1-2.3,0.1-3.5c0-4.8,0-9.6,0.1-14.4c0-5.6,0.1-11.2,0.1-16.7 c0-4.4,0.1-8.7,0.1-13.1c0-3.2,0.1-6.4,0.1-9.6c0-3.3,0-6.6,0.1-9.9c0-3,0-6.1,0.1-9.1l0-4.2c0.1-7.7,0.1-15.3,0.2-23l0-1.2 c0-1,0-2,0-3.1l0-0.3v0c0-0.8,0.1-1.5,0.5-2c1-1.8,2-3.7,3.1-5.5l2-3.6c0.3-0.6,0.6-0.5,0.8-0.5l0.4,0.1l0,0.4 c0,0.9,0.1,1.8,0.1,2.7c0.1,2,0.2,4.1,0.2,6.2l0,0.5c0,2,0,4,0,5.9c0,1,0,1.9,0,2.9l0,8.1c0,6.9,0,13.9-0.1,20.8c0,3.2,0,6.3,0,9.5 c0,2.8,0,5.7,0,8.5c0,8.6,0,17.2-0.1,25.7c0,5.3,0,10.5-0.1,15.8l0,6.5c0,1.6,0,3.2,0,4.9c0,0.6-0.2,1.1-0.7,1.6 c-1.6,1.4-3.5,2.3-6,2.6l-0.2,0l-0.2-0.1c-0.4-0.2-0.4-0.7-0.4-0.8L63.2,147.1L63.2,147.1z M65.1,37.6c0,1,0,2.1,0,3.1l0,1.2 c-0.1,7.7-0.1,15.3-0.2,23l0,4.2c0,3,0,6.1-0.1,9.1c0,3.3,0,6.6-0.1,9.9c0,3.2,0,6.4-0.1,9.6c0,4.4-0.1,8.7-0.1,13.1 c0,5.6-0.1,11.2-0.1,16.7c0,4.8,0,9.6-0.1,14.5c0,1.2,0,2.3-0.1,3.5l0,1.6c0,0.1,0,0.1,0,0.2c2.1-0.4,3.8-1.1,5.1-2.3 c0.3-0.3,0.4-0.5,0.4-0.9c0-1.6,0-3.3,0-4.9l0-6.5c0-5.3,0.1-10.5,0.1-15.8c0-8.6,0-17.2,0.1-25.7c0-2.8,0-5.7,0-8.5 c0-3.2,0-6.3,0-9.5c0-6.9,0-13.9,0.1-20.8l0-8.1c0-1,0-1.9,0-2.9c0-1.9,0-3.9,0-5.9l0-0.5c0-2.1-0.1-4.1-0.2-6.2c0-0.3,0-0.6,0-1 l-1.3,2.4c-1,1.8-2,3.7-3.1,5.5c-0.2,0.4-0.3,0.9-0.3,1.5L65.1,37.6z"/><path class="st4" d="M48.9,147.8c0-1.7,1.3-3.2,3-3.3c1.6-0.1,3.1,1.4,3.2,3.1c0.1,1.7-1.3,3.3-2.9,3.4 C50.5,151,49,149.5,48.9,147.8"/><path class="st4" d="M73.3,198.2c-0.2,0-0.4-0.1-0.5-0.4c0-0.3,0.2-0.2,0.4-0.3c0.6-0.2,1-0.6,0.9-1.3c0-0.3-0.5-0.6,0.1-0.8 c0.4-0.1,0.7,0.2,0.9,0.5c0.1,0.1,0.1,0.3,0.1,0.4C75.3,197.4,74.2,198.3,73.3,198.2"/><path class="st4" d="M70.9,195.7c-0.2,0.1-0.5,0-0.7-0.2c-0.5-0.4-0.5-0.9-0.4-1.4c0.1-0.6,0.9-1.1,1.6-1.2c0.3,0,0.6,0,0.7,0.3 c0.1,0.4-0.3,0.3-0.5,0.4c-0.6,0.3-1,0.7-0.7,1.4C71,195.3,71.1,195.6,70.9,195.7"/><path class="st4" d="M72.4,191.4c0.3,0.1,0.7,0.1,0.7,0.5c0,0.5-0.5,0.3-0.8,0.3c-1.2-0.1-2.3,0.1-3,1.1c-0.8,1-0.8,2.1-0.4,3.3 c0.1,0.4,0.4,0.8,0.3,1.4c-1.3-0.8-1.6-2-1.6-3.2c0.1-1.4,0.6-2.5,2-3.2C70.5,191.4,71.5,191.3,72.4,191.4"/><path class="st2" d="M77.9,184.1c-0.2,0.8-0.4,1.6-1.2,2.1c-0.9,0.5-1.7,1.2-2.6,1.8c0.6,0.4,1.1,0,1.5-0.1c0.5-0.2,0.6,0,0.5,0.4 c-0.2,0.8-0.9,1.2-1.6,0.8c-0.9-0.4-1.9-0.5-2.9-0.7c-0.6-0.1-0.8-0.3-0.2-0.7c1.9-1.5,4.1-2.7,6.1-4.1 C78,183.4,78,183.9,77.9,184.1"/><path class="st3" d="M77.9,184.1c-0.2,0.8-0.4,1.6-1.2,2.1c-0.9,0.5-1.7,1.2-2.6,1.8c0.6,0.4,1.1,0,1.5-0.1c0.5-0.2,0.6,0,0.5,0.4 c-0.2,0.8-0.9,1.2-1.6,0.8c-0.9-0.4-1.9-0.5-2.9-0.7c-0.6-0.1-0.8-0.3-0.2-0.7c1.9-1.5,4.1-2.7,6.1-4.1 C78,183.4,78,183.9,77.9,184.1z"/><path class="st2" d="M70.7,188.2c0-0.4,0.3-0.6,0.5-0.8c1.2-1,2.5-1.8,3.8-2.6c0.8-0.5,1.6-1,2.4-1.5c0.4-0.3,0.7-0.2,0.8-0.1 c0.3,0.2,0.5,0.6,0.3,1.1l-0.1,0.2c-0.2,0.8-0.4,1.7-1.3,2.2c-0.3,0.2-0.7,0.4-1,0.7c0.1,0,0.3,0,0.4,0.1c0.1,0.1,0.4,0.3,0.3,1 c-0.1,0.5-0.4,0.9-0.9,1.2c-0.4,0.2-1,0.2-1.5,0c-0.7-0.3-1.5-0.4-2.2-0.6l-0.5-0.1C71,188.9,70.7,188.6,70.7,188.2 M77.4,184.4 c-0.7,0.4-1.3,0.8-1.9,1.2c-1.2,0.7-2.4,1.5-3.5,2.4l0.4,0.1c0.5,0.1,1,0.2,1.5,0.3l-0.5-0.3l0.6-0.4c0.3-0.2,0.6-0.4,0.8-0.6 c0.6-0.4,1.2-0.9,1.8-1.2C77,185.5,77.2,185,77.4,184.4 M75.6,188.5c-0.2,0.1-0.5,0.2-0.8,0.2c0.2,0.1,0.4,0.1,0.6,0 C75.5,188.7,75.6,188.6,75.6,188.5"/><path class="st3" d="M70.7,188.2c0-0.4,0.3-0.6,0.5-0.8c1.2-1,2.5-1.8,3.8-2.6c0.8-0.5,1.6-1,2.4-1.5c0.4-0.3,0.7-0.2,0.8-0.1 c0.3,0.2,0.5,0.6,0.3,1.1l-0.1,0.2c-0.2,0.8-0.4,1.7-1.3,2.2c-0.3,0.2-0.7,0.4-1,0.7c0.1,0,0.3,0,0.4,0.1c0.1,0.1,0.4,0.3,0.3,1 c-0.1,0.5-0.4,0.9-0.9,1.2c-0.4,0.2-1,0.2-1.5,0c-0.7-0.3-1.5-0.4-2.2-0.6l-0.5-0.1C71,188.9,70.7,188.6,70.7,188.2z M77.4,184.4 c-0.7,0.4-1.3,0.8-1.9,1.2c-1.2,0.7-2.4,1.5-3.5,2.4l0.4,0.1c0.5,0.1,1,0.2,1.5,0.3l-0.5-0.3l0.6-0.4c0.3-0.2,0.6-0.4,0.8-0.6 c0.6-0.4,1.2-0.9,1.8-1.2C77,185.5,77.2,185,77.4,184.4z M75.6,188.5c-0.2,0.1-0.5,0.2-0.8,0.2c0.2,0.1,0.4,0.1,0.6,0 C75.5,188.7,75.6,188.6,75.6,188.5z"/><path class="st2" d="M76.4,181.5c0.6-0.3,1.1-0.7,1.7-1c0,0,0.1-0.1,0.1-0.1c0,0.1,0,0.1-0.1,0.2l0,0c-0.1,0.9-0.9,1.3-1.5,1.8 c-1.9,1.8-4.3,3.1-6.3,4.9c-0.9,0.8-1.7,1.7-2.6,2.5c-0.7,0.7-0.9,0.6-1.4-0.2c-0.9-1.4-0.6-2.3,0.5-3.5c2.4-2.7,5.2-5,8.2-7 c1.1-0.7,2.2-1.6,3.2-2.5c0.3-0.3,0.6-0.6,1.2-0.8c-0.9,2.7-3.1,4.2-4.8,6.1C75.4,182.2,75.4,182.2,76.4,181.5"/><path class="st3" d="M76.4,181.5c0.6-0.3,1.1-0.7,1.7-1c0,0,0.1-0.1,0.1-0.1c0,0.1,0,0.1-0.1,0.2l0,0c-0.1,0.9-0.9,1.3-1.5,1.8 c-1.9,1.8-4.3,3.1-6.3,4.9c-0.9,0.8-1.7,1.7-2.6,2.5c-0.7,0.7-0.9,0.6-1.4-0.2c-0.9-1.4-0.6-2.3,0.5-3.5c2.4-2.7,5.2-5,8.2-7 c1.1-0.7,2.2-1.6,3.2-2.5c0.3-0.3,0.6-0.6,1.2-0.8c-0.9,2.7-3.1,4.2-4.8,6.1C75.4,182.2,75.4,182.2,76.4,181.5z"/><path class="st2" d="M65.3,188.1c0-1,0.6-1.8,1.1-2.4c2.3-2.6,5-4.9,8.3-7.1c0.7-0.5,1.5-1.1,2.1-1.6c0.4-0.3,0.7-0.6,1.1-0.8 c0.1-0.1,0.1-0.1,0.2-0.2c0.3-0.2,0.6-0.5,1.2-0.7l0.9-0.2l-0.3,0.8c-0.7,2.1-2.2,3.5-3.6,4.9c0,0-0.1,0.1-0.1,0.1l2.8-1.7 l-0.4,1.4c-0.1,0.8-0.7,1.3-1.2,1.7c-0.1,0.1-0.3,0.2-0.4,0.3c-1.1,1-2.2,1.8-3.4,2.6c-1,0.7-2,1.4-2.9,2.2 c-0.7,0.6-1.3,1.2-1.9,1.9l-0.6,0.6c-0.4,0.4-0.7,0.7-1.2,0.6c-0.5,0-0.8-0.5-1.1-0.9C65.5,189.3,65.3,188.7,65.3,188.1 M78.2,177.3c-0.2,0.2-0.4,0.3-0.7,0.5c-0.7,0.6-1.4,1.1-2.2,1.7c-3.2,2.2-5.9,4.4-8.1,6.9c-1.1,1.2-1.1,1.9-0.4,2.9 c0.1,0.1,0.2,0.3,0.3,0.4c0.1,0,0.2-0.1,0.4-0.3l0.6-0.6c0.6-0.6,1.3-1.3,2-1.9c1-0.9,2-1.6,3-2.3c1-0.7,2.1-1.5,3-2.3 c-0.6,0.3-0.8,0.3-1.5,0.2l-0.8-0.2l0.5-0.6c0.4-0.5,0.9-1,1.4-1.4C76.6,179.3,77.5,178.4,78.2,177.3"/><path class="st3" d="M65.3,188.1c0-1,0.6-1.8,1.1-2.4c2.3-2.6,5-4.9,8.3-7.1c0.7-0.5,1.5-1.1,2.1-1.6c0.4-0.3,0.7-0.6,1.1-0.8 c0.1-0.1,0.1-0.1,0.2-0.2c0.3-0.2,0.6-0.5,1.2-0.7l0.9-0.2l-0.3,0.8c-0.7,2.1-2.2,3.5-3.6,4.9c0,0-0.1,0.1-0.1,0.1l2.8-1.7 l-0.4,1.4c-0.1,0.8-0.7,1.3-1.2,1.7c-0.1,0.1-0.3,0.2-0.4,0.3c-1.1,1-2.2,1.8-3.4,2.6c-1,0.7-2,1.4-2.9,2.2 c-0.7,0.6-1.3,1.2-1.9,1.9l-0.6,0.6c-0.4,0.4-0.7,0.7-1.2,0.6c-0.5,0-0.8-0.5-1.1-0.9C65.5,189.3,65.3,188.7,65.3,188.1z M78.2,177.3c-0.2,0.2-0.4,0.3-0.7,0.5c-0.7,0.6-1.4,1.1-2.2,1.7c-3.2,2.2-5.9,4.4-8.1,6.9c-1.1,1.2-1.1,1.9-0.4,2.9 c0.1,0.1,0.2,0.3,0.3,0.4c0.1,0,0.2-0.1,0.4-0.3l0.6-0.6c0.6-0.6,1.3-1.3,2-1.9c1-0.9,2-1.6,3-2.3c1-0.7,2.1-1.5,3-2.3 c-0.6,0.3-0.8,0.3-1.5,0.2l-0.8-0.2l0.5-0.6c0.4-0.5,0.9-1,1.4-1.4C76.6,179.3,77.5,178.4,78.2,177.3z"/><path class="st2" d="M78.7,170.9c-0.9,2.4-3,3.9-4.7,5.8c1.9-0.6,3.2-2,4.8-3c0.1,0.1,0.1,0.1,0.2,0.2c-0.5,1.3-1.8,2-2.8,2.8 c-2.8,2.2-5.9,3.9-8.4,6.5c-0.8,0.9-1.7,1.7-2.4,2.7c-0.5,0.7-0.7,0.5-1.1-0.2c-1.1-1.7-0.7-2.9,0.6-4.3c2.2-2.2,4.7-4.1,7.4-5.8 c2.1-1.3,4-2.8,5.9-4.4C78.3,171,78.4,170.9,78.7,170.9"/><path class="st3" d="M78.7,170.9c-0.9,2.4-3,3.9-4.7,5.8c1.9-0.6,3.2-2,4.8-3c0.1,0.1,0.1,0.1,0.2,0.2c-0.5,1.3-1.8,2-2.8,2.8 c-2.8,2.2-5.9,3.9-8.4,6.5c-0.8,0.9-1.7,1.7-2.4,2.7c-0.5,0.7-0.7,0.5-1.1-0.2c-1.1-1.7-0.7-2.9,0.6-4.3c2.2-2.2,4.7-4.1,7.4-5.8 c2.1-1.3,4-2.8,5.9-4.4C78.3,171,78.4,170.9,78.7,170.9z"/><path class="st2" d="M63.2,183.8c0-0.9,0.4-1.8,1.4-2.8c2.1-2.1,4.5-4,7.5-5.9c2.2-1.4,4.1-2.8,5.8-4.3c0.2-0.2,0.5-0.4,1-0.3 l0.5,0.1l-0.2,0.5c-0.5,1.4-1.4,2.4-2.3,3.4c0.1,0,0.1-0.1,0.2-0.1c0.5-0.4,1-0.8,1.6-1.1l0.3-0.2l0.7,0.6l-0.1,0.3 c-0.5,1.2-1.4,1.8-2.3,2.5c-0.2,0.2-0.5,0.3-0.7,0.5c-1,0.8-2.1,1.5-3.1,2.3c-1.8,1.3-3.7,2.6-5.3,4.2c-1,1-1.7,1.8-2.4,2.6 c-0.3,0.3-0.6,0.6-1,0.6c-0.5,0-0.7-0.4-1-0.8C63.4,185.2,63.2,184.5,63.2,183.8 M77.3,172.5c-1.5,1.2-3,2.3-4.8,3.4 c-2.9,1.9-5.3,3.8-7.3,5.8c-1.3,1.3-1.4,2.3-0.5,3.7c0,0.1,0.1,0.2,0.2,0.3c0,0,0.1-0.1,0.1-0.1c0.7-0.8,1.4-1.7,2.4-2.7 c1.6-1.7,3.6-3,5.4-4.3c0.8-0.5,1.5-1.1,2.3-1.6c-0.3,0.1-0.6,0.3-1,0.4l-1.6,0.5l1.1-1.3c0.5-0.6,1-1.1,1.5-1.6 C76,174,76.7,173.3,77.3,172.5"/><path class="st3" d="M63.2,183.8c0-0.9,0.4-1.8,1.4-2.8c2.1-2.1,4.5-4,7.5-5.9c2.2-1.4,4.1-2.8,5.8-4.3c0.2-0.2,0.5-0.4,1-0.3 l0.5,0.1l-0.2,0.5c-0.5,1.4-1.4,2.4-2.3,3.4c0.1,0,0.1-0.1,0.2-0.1c0.5-0.4,1-0.8,1.6-1.1l0.3-0.2l0.7,0.6l-0.1,0.3 c-0.5,1.2-1.4,1.8-2.3,2.5c-0.2,0.2-0.5,0.3-0.7,0.5c-1,0.8-2.1,1.5-3.1,2.3c-1.8,1.3-3.7,2.6-5.3,4.2c-1,1-1.7,1.8-2.4,2.6 c-0.3,0.3-0.6,0.6-1,0.6c-0.5,0-0.7-0.4-1-0.8C63.4,185.2,63.2,184.5,63.2,183.8z M77.3,172.5c-1.5,1.2-3,2.3-4.8,3.4 c-2.9,1.9-5.3,3.8-7.3,5.8c-1.3,1.3-1.4,2.3-0.5,3.7c0,0.1,0.1,0.2,0.2,0.3c0,0,0.1-0.1,0.1-0.1c0.7-0.8,1.4-1.7,2.4-2.7 c1.6-1.7,3.6-3,5.4-4.3c0.8-0.5,1.5-1.1,2.3-1.6c-0.3,0.1-0.6,0.3-1,0.4l-1.6,0.5l1.1-1.3c0.5-0.6,1-1.1,1.5-1.6 C76,174,76.7,173.3,77.3,172.5z"/><path class="st2" d="M73.7,171c1.6-0.9,3-2.1,4.4-3.2c0.2-0.1,0.4-0.5,0.6-0.3c0.3,0.2,0.2,0.6,0.1,0.9c-0.1,0.2-0.3,0.4-0.5,0.6 c-1.7,1.5-3.3,3.1-5.3,4.4c-3.3,2.1-6.6,4.4-9.4,7.2c-0.2,0.2-0.4,0.7-0.9,0.6c-0.4-0.1-0.3-0.6-0.4-1c-0.2-0.8-0.2-1.6-0.4-2.4 c-0.1-0.7,0.1-1.3,0.6-1.9c2.7-3.1,6.3-5.1,9.8-7.3c2-1.3,4-2.7,5.6-4.5c0.1-0.1,0.2-0.1,0.5-0.2c-1.4,3.2-4.1,4.9-6.3,7.2 C72.9,171.5,73.3,171.2,73.7,171"/><path class="st3" d="M73.7,171c1.6-0.9,3-2.1,4.4-3.2c0.2-0.1,0.4-0.5,0.6-0.3c0.3,0.2,0.2,0.6,0.1,0.9c-0.1,0.2-0.3,0.4-0.5,0.6 c-1.7,1.5-3.3,3.1-5.3,4.4c-3.3,2.1-6.6,4.4-9.4,7.2c-0.2,0.2-0.4,0.7-0.9,0.6c-0.4-0.1-0.3-0.6-0.4-1c-0.2-0.8-0.2-1.6-0.4-2.4 c-0.1-0.7,0.1-1.3,0.6-1.9c2.7-3.1,6.3-5.1,9.8-7.3c2-1.3,4-2.7,5.6-4.5c0.1-0.1,0.2-0.1,0.5-0.2c-1.4,3.2-4.1,4.9-6.3,7.2 C72.9,171.5,73.3,171.2,73.7,171z"/><path class="st2" d="M61.6,177.4c0-0.8,0.4-1.4,0.8-1.8c2.4-2.8,5.5-4.7,8.4-6.5c0.5-0.3,1-0.6,1.5-0.9c2.3-1.5,4.1-2.9,5.5-4.4 c0.1-0.1,0.3-0.2,0.4-0.2c0.1,0,0.2,0,0.3-0.1l1.1-0.4l-0.5,1c-1,2.4-2.8,4-4.5,5.5c-0.3,0.3-0.6,0.5-0.8,0.8c1-0.6,1.9-1.3,2.8-2 c0.4-0.3,0.8-0.7,1.3-1c0,0,0.1-0.1,0.1-0.1c0.4-0.4,0.8-0.5,1.2-0.2c0.2,0.2,0.4,0.5,0.4,0.8c0,0.3-0.1,0.5-0.2,0.7 c-0.2,0.3-0.4,0.6-0.6,0.7c-0.3,0.3-0.6,0.5-0.9,0.8c-1.4,1.3-2.8,2.6-4.5,3.6c-4,2.5-6.9,4.7-9.3,7.1c0,0-0.1,0.1-0.1,0.2 c-0.2,0.2-0.6,0.8-1.3,0.5c-0.6-0.2-0.6-0.8-0.7-1.1c0-0.1,0-0.1,0-0.2c-0.1-0.5-0.2-0.9-0.2-1.4c0-0.3-0.1-0.6-0.2-1 C61.6,177.7,61.6,177.5,61.6,177.4 M76.7,166.1c-1.1,0.9-2.4,1.9-3.9,2.8c-0.5,0.3-1,0.6-1.5,0.9c-2.9,1.8-5.9,3.7-8.2,6.3 c-0.5,0.5-0.6,0.9-0.5,1.5c0.1,0.3,0.1,0.7,0.2,1c0.1,0.5,0.1,0.9,0.2,1.4c0,0.1,0,0.2,0,0.3c0,0.1,0,0.2,0,0.3 c0,0,0.1-0.1,0.1-0.2c0.1-0.1,0.1-0.2,0.2-0.2c2.5-2.5,5.4-4.7,9.4-7.3c1.6-1,3-2.3,4.3-3.5c0.3-0.3,0.6-0.5,0.9-0.8 c0.1-0.1,0.3-0.3,0.3-0.4c-0.4,0.3-0.8,0.6-1.2,0.9c-1,0.8-2.1,1.6-3.2,2.3c-0.5,0.3-1.1,0.6-1.9,0.1l-0.5-0.3l0.4-0.4 c0.6-0.7,1.3-1.3,2-1.9C74.9,168,75.9,167.1,76.7,166.1"/><path class="st3" d="M61.6,177.4c0-0.8,0.4-1.4,0.8-1.8c2.4-2.8,5.5-4.7,8.4-6.5c0.5-0.3,1-0.6,1.5-0.9c2.3-1.5,4.1-2.9,5.5-4.4 c0.1-0.1,0.3-0.2,0.4-0.2c0.1,0,0.2,0,0.3-0.1l1.1-0.4l-0.5,1c-1,2.4-2.8,4-4.5,5.5c-0.3,0.3-0.6,0.5-0.8,0.8c1-0.6,1.9-1.3,2.8-2 c0.4-0.3,0.8-0.7,1.3-1c0,0,0.1-0.1,0.1-0.1c0.4-0.4,0.8-0.5,1.2-0.2c0.2,0.2,0.4,0.5,0.4,0.8c0,0.3-0.1,0.5-0.2,0.7 c-0.2,0.3-0.4,0.6-0.6,0.7c-0.3,0.3-0.6,0.5-0.9,0.8c-1.4,1.3-2.8,2.6-4.5,3.6c-4,2.5-6.9,4.7-9.3,7.1c0,0-0.1,0.1-0.1,0.2 c-0.2,0.2-0.6,0.8-1.3,0.5c-0.6-0.2-0.6-0.8-0.7-1.1c0-0.1,0-0.1,0-0.2c-0.1-0.5-0.2-0.9-0.2-1.4c0-0.3-0.1-0.6-0.2-1 C61.6,177.7,61.6,177.5,61.6,177.4z M76.7,166.1c-1.1,0.9-2.4,1.9-3.9,2.8c-0.5,0.3-1,0.6-1.5,0.9c-2.9,1.8-5.9,3.7-8.2,6.3 c-0.5,0.5-0.6,0.9-0.5,1.5c0.1,0.3,0.1,0.7,0.2,1c0.1,0.5,0.1,0.9,0.2,1.4c0,0.1,0,0.2,0,0.3c0,0.1,0,0.2,0,0.3 c0,0,0.1-0.1,0.1-0.2c0.1-0.1,0.1-0.2,0.2-0.2c2.5-2.5,5.4-4.7,9.4-7.3c1.6-1,3-2.3,4.3-3.5c0.3-0.3,0.6-0.5,0.9-0.8 c0.1-0.1,0.3-0.3,0.3-0.4c-0.4,0.3-0.8,0.6-1.2,0.9c-1,0.8-2.1,1.6-3.2,2.3c-0.5,0.3-1.1,0.6-1.9,0.1l-0.5-0.3l0.4-0.4 c0.6-0.7,1.3-1.3,2-1.9C74.9,168,75.9,167.1,76.7,166.1z"/><path class="st2" d="M77.3,159.2c-0.2,0.6-0.6,1.1-1,1.5c-1.3,1.2-2.6,2.4-3.8,3.6c-0.3,0.2-0.6,0.4-0.7,0.9c0.6,0.3,1.1,0,1.5-0.3 c1.4-0.8,2.5-1.8,3.7-2.9c0.2-0.2,0.4-0.5,0.7-0.5c0,0,0.1-0.1,0.1-0.1c0.1,0.1,0.1,0.1,0,0.2c0,0-0.1-0.1-0.1-0.1 c0,0,0.1,0.1,0.1,0.1c-0.3,1.7-1.8,2.3-2.9,3.3c-4,3.3-8.6,6-12.5,9.4c-0.5,0.4-0.7,0.3-0.7-0.3c0-0.9-0.1-1.9-0.1-2.8 c0-0.8,0.4-1.3,1-1.8c2.6-2.2,5.5-4.2,8.3-6.1c1.6-1.1,3.1-2.3,4.7-3.5c0.4-0.3,0.9-0.7,1.3-0.9C77.2,158.6,77.5,158.7,77.3,159.2"/><path class="st3" d="M77.3,159.2c-0.2,0.6-0.6,1.1-1,1.5c-1.3,1.2-2.6,2.4-3.8,3.6c-0.3,0.2-0.6,0.4-0.7,0.9c0.6,0.3,1.1,0,1.5-0.3 c1.4-0.8,2.5-1.8,3.7-2.9c0.2-0.2,0.4-0.5,0.7-0.5c0,0,0.1-0.1,0.1-0.1c0.1,0.1,0.1,0.1,0,0.2c0,0-0.1-0.1-0.1-0.1 c0,0,0.1,0.1,0.1,0.1c-0.3,1.7-1.8,2.3-2.9,3.3c-4,3.3-8.6,6-12.5,9.4c-0.5,0.4-0.7,0.3-0.7-0.3c0-0.9-0.1-1.9-0.1-2.8 c0-0.8,0.4-1.3,1-1.8c2.6-2.2,5.5-4.2,8.3-6.1c1.6-1.1,3.1-2.3,4.7-3.5c0.4-0.3,0.9-0.7,1.3-0.9C77.2,158.6,77.5,158.7,77.3,159.2z"/><path class="st2" d="M61.1,171.4l0-0.2c0-1.1,0.7-1.8,1.2-2.2c2.6-2.2,5.3-4.1,8.3-6.2c1.1-0.8,2.2-1.6,3.2-2.4 c0.5-0.4,1-0.7,1.4-1.1l0.2-0.2c0.4-0.3,0.8-0.6,1.2-0.8c0.4-0.2,0.7-0.1,0.9,0c0.3,0.2,0.4,0.6,0.3,1c-0.2,0.7-0.6,1.2-1.1,1.7 c-1,1-2.1,1.9-3.1,2.9l-0.5,0.5l0,0c1.1-0.6,2.1-1.5,3.1-2.4l0.5-0.4c0,0,0.1-0.1,0.1-0.1c0.1-0.2,0.3-0.4,0.6-0.4 c0.3-0.3,0.5-0.2,0.7-0.1c0.3,0.2,0.3,0.4,0.3,0.5c0,0.1,0,0.3-0.1,0.4c-0.3,1.4-1.4,2.2-2.3,2.8c-0.3,0.2-0.5,0.4-0.7,0.6 c-1.9,1.5-3.9,3-5.8,4.3c-2.3,1.6-4.6,3.2-6.7,5.1c-0.2,0.1-0.6,0.5-1.1,0.3c-0.5-0.2-0.5-0.7-0.5-1l0-0.8 C61.1,172.6,61.1,172,61.1,171.4 M76.6,159.5c-0.2,0.1-0.4,0.3-0.6,0.4l-0.2,0.2c-0.5,0.4-1,0.7-1.4,1.1c-1,0.8-2.1,1.6-3.2,2.4 c-3,2.1-5.7,4-8.2,6.1c-0.6,0.5-0.8,0.9-0.8,1.5l0,0.2c0,0.6,0,1.2,0.1,1.8l0,0.6c2.1-1.8,4.4-3.5,6.7-5.1c1.6-1.2,3.3-2.3,4.9-3.6 c-0.1,0-0.1,0.1-0.2,0.1l-0.1,0.1c-0.5,0.3-1.1,0.6-1.9,0.3l-0.4-0.2l0.1-0.4c0.1-0.5,0.4-0.8,0.7-1c0.1,0,0.1-0.1,0.2-0.1l0.7-0.7 c1-1,2.1-1.9,3.1-2.9C76.2,160.1,76.5,159.8,76.6,159.5"/><path class="st3" d="M61.1,171.4l0-0.2c0-1.1,0.7-1.8,1.2-2.2c2.6-2.2,5.3-4.1,8.3-6.2c1.1-0.8,2.2-1.6,3.2-2.4 c0.5-0.4,1-0.7,1.4-1.1l0.2-0.2c0.4-0.3,0.8-0.6,1.2-0.8c0.4-0.2,0.7-0.1,0.9,0c0.3,0.2,0.4,0.6,0.3,1c-0.2,0.7-0.6,1.2-1.1,1.7 c-1,1-2.1,1.9-3.1,2.9l-0.5,0.5l0,0c1.1-0.6,2.1-1.5,3.1-2.4l0.5-0.4c0,0,0.1-0.1,0.1-0.1c0.1-0.2,0.3-0.4,0.6-0.4 c0.3-0.3,0.5-0.2,0.7-0.1c0.3,0.2,0.3,0.4,0.3,0.5c0,0.1,0,0.3-0.1,0.4c-0.3,1.4-1.4,2.2-2.3,2.8c-0.3,0.2-0.5,0.4-0.7,0.6 c-1.9,1.5-3.9,3-5.8,4.3c-2.3,1.6-4.6,3.2-6.7,5.1c-0.2,0.1-0.6,0.5-1.1,0.3c-0.5-0.2-0.5-0.7-0.5-1l0-0.8 C61.1,172.6,61.1,172,61.1,171.4z M76.6,159.5c-0.2,0.1-0.4,0.3-0.6,0.4l-0.2,0.2c-0.5,0.4-1,0.7-1.4,1.1c-1,0.8-2.1,1.6-3.2,2.4 c-3,2.1-5.7,4-8.2,6.1c-0.6,0.5-0.8,0.9-0.8,1.5l0,0.2c0,0.6,0,1.2,0.1,1.8l0,0.6c2.1-1.8,4.4-3.5,6.7-5.1c1.6-1.2,3.3-2.3,4.9-3.6 c-0.1,0-0.1,0.1-0.2,0.1l-0.1,0.1c-0.5,0.3-1.1,0.6-1.9,0.3l-0.4-0.2l0.1-0.4c0.1-0.5,0.4-0.8,0.7-1c0.1,0,0.1-0.1,0.2-0.1l0.7-0.7 c1-1,2.1-1.9,3.1-2.9C76.2,160.1,76.5,159.8,76.6,159.5z"/><path class="st2" d="M72.9,155.8c0.5,0.3,0.1,0.9-0.1,1.3c-0.7,1.3-1.9,2.2-3.1,3.1c-0.2,0.1-0.3,0.3-0.5,0.4 c0.4,0.4,0.7,0.1,1-0.1c1.7-1.1,3.5-2.1,4.8-3.6c0.2-0.2,0.3-0.5,0.6-0.3c0.4,0.2,0.2,0.5,0.1,0.8c-0.2,0.5-0.6,0.8-1,1.1 c-3.7,2.7-7.3,5.5-11,8.2c-0.6,0.5-1,1.1-1.8,1.4c0,0-0.1,0.1-0.1,0.1c0,0,0-0.1,0.1-0.1l0.1,0l-0.1,0c0-0.1,0-0.1,0-0.2 c-0.1-2.5,0.4-4.6,2.7-6.1c1.4-0.9,2.7-2.2,4.2-3c1.2-0.6,2.1-1.6,3.1-2.4C72.2,156.1,72.5,155.6,72.9,155.8"/><path class="st3" d="M72.9,155.8c0.5,0.3,0.1,0.9-0.1,1.3c-0.7,1.3-1.9,2.2-3.1,3.1c-0.2,0.1-0.3,0.3-0.5,0.4 c0.4,0.4,0.7,0.1,1-0.1c1.7-1.1,3.5-2.1,4.8-3.6c0.2-0.2,0.3-0.5,0.6-0.3c0.4,0.2,0.2,0.5,0.1,0.8c-0.2,0.5-0.6,0.8-1,1.1 c-3.7,2.7-7.3,5.5-11,8.2c-0.6,0.5-1,1.1-1.8,1.4c0,0-0.1,0.1-0.1,0.1c0,0,0-0.1,0.1-0.1l0.1,0l-0.1,0c0-0.1,0-0.1,0-0.2 c-0.1-2.5,0.4-4.6,2.7-6.1c1.4-0.9,2.7-2.2,4.2-3c1.2-0.6,2.1-1.6,3.1-2.4C72.2,156.1,72.5,155.6,72.9,155.8z"/><path class="st2" d="M60.5,169.6l0.9-1.7c0,0,0-0.1,0-0.1c0-0.2,0-0.4,0-0.5c0-2.7,0.9-4.6,3-6c0.6-0.4,1.1-0.8,1.6-1.2 c0.8-0.6,1.7-1.3,2.6-1.8c1-0.5,1.8-1.2,2.6-2l0.4-0.4c0,0,0.1-0.1,0.1-0.2c0.2-0.2,0.8-0.9,1.5-0.4c0.3,0.2,0.4,0.5,0.5,0.8 c0,0.4-0.2,0.7-0.4,1c-0.3,0.5-0.7,1-1.1,1.4c0.9-0.6,1.7-1.3,2.4-2.1c0.2-0.2,0.6-0.7,1.2-0.5c0.3,0.2,0.5,0.4,0.5,0.8 c0,0.2-0.1,0.4-0.1,0.5c-0.2,0.7-0.7,1.1-1.1,1.4l-2.3,1.7c-2.9,2.2-5.9,4.4-8.8,6.5c-0.2,0.2-0.4,0.3-0.6,0.5 c-0.4,0.4-0.7,0.7-1.3,1l0,0L60.5,169.6z M72.6,156.3c-0.1,0.1-0.1,0.1-0.2,0.2c-0.1,0.1-0.1,0.2-0.2,0.2l-0.4,0.4 c-0.9,0.8-1.7,1.6-2.8,2.2c-0.9,0.5-1.7,1.1-2.5,1.7c-0.5,0.4-1.1,0.9-1.7,1.2c-1.8,1.2-2.6,2.7-2.5,5.1c0.1-0.1,0.3-0.2,0.4-0.4 c0.2-0.2,0.4-0.4,0.7-0.6c2.5-1.9,5-3.7,7.5-5.6c0,0-0.1,0-0.1,0l-0.5,0.3c-0.2,0.2-0.9,0.6-1.5-0.1l-0.4-0.4l0.6-0.5 c0.1-0.1,0.2-0.2,0.3-0.3l0.2-0.1c1.1-0.9,2.1-1.7,2.8-2.8C72.5,156.6,72.6,156.4,72.6,156.3C72.6,156.3,72.6,156.3,72.6,156.3"/><path class="st3" d="M60.5,169.6l0.9-1.7c0,0,0-0.1,0-0.1c0-0.2,0-0.4,0-0.5c0-2.7,0.9-4.6,3-6c0.6-0.4,1.1-0.8,1.6-1.2 c0.8-0.6,1.7-1.3,2.6-1.8c1-0.5,1.8-1.2,2.6-2l0.4-0.4c0,0,0.1-0.1,0.1-0.2c0.2-0.2,0.8-0.9,1.5-0.4c0.3,0.2,0.4,0.5,0.5,0.8 c0,0.4-0.2,0.7-0.4,1c-0.3,0.5-0.7,1-1.1,1.4c0.9-0.6,1.7-1.3,2.4-2.1c0.2-0.2,0.6-0.7,1.2-0.5c0.3,0.2,0.5,0.4,0.5,0.8 c0,0.2-0.1,0.4-0.1,0.5c-0.2,0.7-0.7,1.1-1.1,1.4l-2.3,1.7c-2.9,2.2-5.9,4.4-8.8,6.5c-0.2,0.2-0.4,0.3-0.6,0.5 c-0.4,0.4-0.7,0.7-1.3,1l0,0L60.5,169.6z M72.6,156.3c-0.1,0.1-0.1,0.1-0.2,0.2c-0.1,0.1-0.1,0.2-0.2,0.2l-0.4,0.4 c-0.9,0.8-1.7,1.6-2.8,2.2c-0.9,0.5-1.7,1.1-2.5,1.7c-0.5,0.4-1.1,0.9-1.7,1.2c-1.8,1.2-2.6,2.7-2.5,5.1c0.1-0.1,0.3-0.2,0.4-0.4 c0.2-0.2,0.4-0.4,0.7-0.6c2.5-1.9,5-3.7,7.5-5.6c0,0-0.1,0-0.1,0l-0.5,0.3c-0.2,0.2-0.9,0.6-1.5-0.1l-0.4-0.4l0.6-0.5 c0.1-0.1,0.2-0.2,0.3-0.3l0.2-0.1c1.1-0.9,2.1-1.7,2.8-2.8C72.5,156.6,72.6,156.4,72.6,156.3C72.6,156.3,72.6,156.3,72.6,156.3z"/><path class="st2" d="M70.7,155.9c-2.5,1.7-5,3.4-7.5,5.1c-0.1-0.1-0.1-0.1-0.2-0.2c0.4-1.2,0.8-2.5,1.1-3.7 c0.1-0.4,0.5-0.5,0.8-0.6c1.8-0.4,3.5-0.9,5.1-1.8c0.5-0.3,1-0.3,1.3,0.2C71.6,155.4,71,155.7,70.7,155.9"/><path class="st3" d="M70.7,155.9c-2.5,1.7-5,3.4-7.5,5.1c-0.1-0.1-0.1-0.1-0.2-0.2c0.4-1.2,0.8-2.5,1.1-3.7 c0.1-0.4,0.5-0.5,0.8-0.6c1.8-0.4,3.5-0.9,5.1-1.8c0.5-0.3,1-0.3,1.3,0.2C71.6,155.4,71,155.7,70.7,155.9z"/><path class="st2" d="M62.5,161.1l0-0.4l0.3-1c0.3-0.9,0.5-1.8,0.8-2.7c0.2-0.7,0.8-0.8,1.2-0.9c1.6-0.4,3.4-0.8,4.9-1.7 c0.8-0.4,1.5-0.3,2,0.3c0.1,0.2,0.2,0.4,0.2,0.6c0,0.5-0.5,0.8-0.7,1l-0.1,0.1c-1.9,1.3-3.8,2.6-5.8,3.9l-2.1,1.4L62.5,161.1z M70.9,155.2c-0.2-0.2-0.5-0.1-0.7,0c-1.7,1-3.6,1.5-5.2,1.8c-0.4,0.1-0.4,0.1-0.5,0.2c-0.3,0.9-0.6,1.8-0.8,2.7l0,0.1l0.9-0.6 c1.9-1.3,3.8-2.6,5.8-3.9c0.1,0,0.1-0.1,0.2-0.1C70.7,155.3,70.9,155.2,70.9,155.2"/><path class="st3" d="M62.5,161.1l0-0.4l0.3-1c0.3-0.9,0.5-1.8,0.8-2.7c0.2-0.7,0.8-0.8,1.2-0.9c1.6-0.4,3.4-0.8,4.9-1.7 c0.8-0.4,1.5-0.3,2,0.3c0.1,0.2,0.2,0.4,0.2,0.6c0,0.5-0.5,0.8-0.7,1l-0.1,0.1c-1.9,1.3-3.8,2.6-5.8,3.9l-2.1,1.4L62.5,161.1z M70.9,155.2c-0.2-0.2-0.5-0.1-0.7,0c-1.7,1-3.6,1.5-5.2,1.8c-0.4,0.1-0.4,0.1-0.5,0.2c-0.3,0.9-0.6,1.8-0.8,2.7l0,0.1l0.9-0.6 c1.9-1.3,3.8-2.6,5.8-3.9c0.1,0,0.1-0.1,0.2-0.1C70.7,155.3,70.9,155.2,70.9,155.2z"/><path class="st4" d="M87.9,150.9c-2.3,2.6-5.3,3.9-8.8,4.2c-2.6,0-5.1-0.4-7.4-1.5c-0.8-0.3-1.3-0.3-2.1,0c-3.2,1.3-6.5,2-10,1.2 c-2.1-0.5-4-1.5-5.4-3.2c-0.2-0.2-0.8-0.5-0.3-0.9c0.4-0.3,0.7-0.9,1.5-0.5c1.7,1,3.7,1.6,5.7,2c3.4,0.6,6.6,0,9.6-1.7 c0.6-0.4,1.1-0.4,1.7-0.1c3.9,1.8,8,2.5,12.2,1c0.9-0.3,1.8-0.7,2.7-1.3c0.3-0.2,0.6-0.4,0.9,0C88.4,150.5,88.1,150.7,87.9,150.9"/><path class="st4" d="M86.8,147.1c-0.1-1.8,1.2-3.3,2.9-3.3c1.7-0.1,3.2,1.3,3.3,3.1c0.1,1.7-1.3,3.2-3,3.3 C88.3,150.2,86.9,148.9,86.8,147.1"/><path class="st4" d="M85.8,148.5c0.3-0.1,0.5-0.5,0.8,0c0.3,0.5,0,0.6-0.4,0.8c-1.8,1.1-3.8,1.7-5.9,1.8c-2.9,0.1-5.7-0.6-8.2-2 c-0.5-0.3-0.9-0.3-1.4,0c-4.5,2.8-9.1,2.7-13.8,0.6c-0.4-0.2-0.8-0.3-1.1-0.5c-0.2-0.1-0.8,0.5-0.5-0.3c0.2-0.5,0.3-0.6,0.8-0.4 c1.4,0.6,2.8,0.9,4.2,1.1c3.7,0.4,7.1-0.7,10-3c0.6-0.5,1-0.5,1.7-0.1c2.9,1.9,6.1,3.1,9.6,3C83.2,149.5,84.5,149.2,85.8,148.5"/><path class="st4" d="M89.5,147.8c-0.6-1.1-0.2-2,1.1-2.2c0.3,0,0.6,0.1,0.9-0.3c-1.1-0.8-2.6-0.5-3.3,0.5c-0.6,0.9-0.4,1.9,0.6,2.6 c0.3,0.2,0.6,0.5,0.9,0.2C90,148.4,89.7,148.1,89.5,147.8"/><path class="st4" d="M72,189.4c3.2,0,5.9,2.4,5.9,5.5c0,3.1-2.5,5.7-5.8,5.7c-3.2,0-5.9-2.4-5.9-5.5C66.2,192,68.7,189.4,72,189.4"/><path class="st4" d="M72.3,200.9c1.8,0,3.3,1.4,3.4,3.2c0,1.8-1.4,3.2-3.3,3.3c-1.8,0-3.3-1.4-3.4-3.2 C69,202.4,70.5,201,72.3,200.9"/><path class="st0" d="M78.6,180.6C78.5,180.5,78.5,180.5,78.6,180.6C78.5,180.5,78.5,180.5,78.6,180.6z M51.8,148.3 c-0.5-1-0.1-1.9,1-2.1c0.3-0.1,0.7,0.1,1-0.2c-1.2-0.8-2.6-0.6-3.3,0.5c-0.6,0.8-0.3,1.8,0.5,2.5c0.3,0.2,0.7,0.5,1,0.4 C52.3,149,51.9,148.6,51.8,148.3 M79.5,147.9c0,0,3.9,0.8,6.3-1c0.1-1.1,1.4-6,5.8-4.4c3.2,1.5,4.2,5.3,0.8,8.2 c-2,0.6-3.2,0.3-3.2,0.3s-2.2,5-11.1,5c3.3,7.2,4,18.6,2.3,25.2c-1.7,6.6-3.7,9.2-3.7,9.2s3,2.5,1.2,7.4c0,0-0.9,1.7-3.3,2.9l0,0.2 c0,0,3,2.6,0.7,5.6c-2.3,3-6.7,0.6-6.9-1.9c-0.2-2.5,1.5-3.5,1.7-3.5c0.1,0,0-0.5,0-0.5s-4-0.9-4.3-4.9c-0.2-3.9,1.1-4.1,1.1-4.1 s-5.7-5.5-6.4-19.1c0.1-12,2.3-16.3,2.3-16.3s-6.1,0.1-9.7-4.3c-4.5,0-5.9-3.5-5-5.9c0.9-2.5,3.9-3.7,5.5-2.9c1.6,0.8,2.8,2,3.1,4 c2.7,1,5.4,1.3,6.5,1c-0.1-9.7,0.4-113,0.4-113l7.5-13.7l7.2,13.7L79.5,147.9z M72.5,203.4c-0.7-0.5-1.3-0.3-1.7,0.3 c-0.5,0.7-0.2,1.4,0.7,1.8C71.3,203.9,71.3,203.9,72.5,203.4 M72.2,25.9c-0.3,0.2-0.2,0.5-0.2,0.7c0,4.1,0,8.2,0,12.3 c0,10.2,0,20.4,0,30.6c0,9.7,0,19.3,0.1,29c0,7.4,0,14.8,0,22.1c0,7.7,0,15.4,0.1,23.1c0,0.5,0.1,0.9,0.5,1.1 c1.5,0.8,3,1.7,4.5,2.5c0.1,0.2,0.3,0.2,0.5,0.1c0.1,0,0.1,0,0.2-0.1c0-1.7,0-3.4,0-5.1c0-9.9-0.1-19.7-0.1-29.6 c0-10.4-0.1-20.8-0.1-31.2c0-7.6-0.1-15.3-0.1-22.9c0-5.4-0.1-10.8-0.1-16.2c0-3.5-0.1-6.9-2-10c-0.8-1.3-1.3-2.7-2-4 C73,27.6,72.6,26.8,72.2,25.9 M64.3,147.7c2.1-0.3,4.1-1.1,5.8-2.5c0.4-0.3,0.6-0.7,0.6-1.2c0-2.5,0-4.9,0-7.4 c0-6.6,0.1-13.2,0.1-19.7c0-8.6,0-17.2,0.1-25.7c0-6,0-12,0-18c0-9.6,0.1-19.3,0.1-28.9c0-3.1,0.1-6.2,0-9.3 c-0.1-3-0.2-5.9-0.3-8.8c0,0-0.1,0.1-0.2,0.3c-1.7,3.1-3.4,6.1-5.1,9.2c-0.3,0.6-0.4,1.2-0.4,1.8c0,1.5,0,3.1,0,4.6 C64.8,50.9,64.8,60,64.7,69c0,6.3-0.1,12.6-0.1,19c-0.1,7.6-0.1,15.1-0.2,22.7c-0.1,10.4-0.1,20.8-0.2,31.2c0,1.7-0.1,3.4-0.1,5.1 C64.2,147.2,64.1,147.5,64.3,147.7 M52.6,150.9c1.6-0.1,3-1.6,2.9-3.4c-0.1-1.7-1.6-3.2-3.2-3.1c-1.7,0.1-3,1.6-3,3.3 C49.4,149.5,50.9,151,52.6,150.9 M75.6,196.4c0-0.1,0-0.3-0.1-0.4c-0.2-0.3-0.5-0.6-0.9-0.5c-0.6,0.1-0.1,0.5-0.1,0.8 c0.1,0.7-0.3,1.1-0.9,1.3c-0.2,0.1-0.4,0-0.4,0.3c0,0.2,0.2,0.3,0.5,0.4C74.6,198.3,75.7,197.4,75.6,196.4 M71.3,195.1 c-0.3-0.7,0.2-1.1,0.7-1.4c0.2-0.1,0.6,0,0.5-0.4c-0.1-0.3-0.4-0.3-0.7-0.3c-0.7,0.1-1.4,0.6-1.6,1.2c-0.1,0.5-0.1,1,0.4,1.4 c0.2,0.2,0.5,0.3,0.7,0.2C71.5,195.6,71.4,195.3,71.3,195.1 M70,191.8c-1.4,0.6-1.9,1.8-2,3.2c0,1.3,0.3,2.4,1.6,3.2 c0.1-0.6-0.1-1-0.3-1.4c-0.4-1.2-0.4-2.3,0.4-3.3c0.8-1,1.8-1.2,3-1.1c0.3,0,0.7,0.2,0.8-0.3c0-0.4-0.3-0.5-0.7-0.5 C71.9,191.3,70.9,191.4,70,191.8 M77.9,183.7c-2,1.4-4.2,2.5-6.1,4.1c-0.5,0.4-0.3,0.6,0.2,0.7c1,0.2,2,0.3,2.9,0.7 c0.7,0.3,1.5-0.1,1.6-0.8c0.1-0.4,0-0.6-0.5-0.4c-0.4,0.2-0.9,0.6-1.5,0.1c0.9-0.7,1.7-1.3,2.6-1.8c0.8-0.5,1-1.3,1.2-2.1 C78.4,183.9,78.4,183.4,77.9,183.7 M75.1,182c1.7-1.9,3.8-3.5,4.8-6.1c-0.6,0.1-0.9,0.5-1.2,0.8c-1.1,0.8-2.1,1.7-3.2,2.5 c-3,2-5.8,4.3-8.2,7c-1,1.2-1.4,2.1-0.5,3.5c0.6,0.8,0.7,0.9,1.4,0.2c0.9-0.8,1.7-1.7,2.6-2.5c2-1.8,4.4-3,6.3-4.9 c0.6-0.5,1.4-0.9,1.5-1.8v0c0-0.1,0-0.1,0.1-0.2c0,0-0.1,0.1-0.1,0.1c-0.6,0.3-1.1,0.7-1.7,1C75.8,182.2,75.8,182.2,75.1,182 M78.6,171.1c-1.9,1.6-3.8,3-5.9,4.4c-2.6,1.7-5.1,3.6-7.4,5.8c-1.3,1.3-1.7,2.6-0.6,4.3c0.4,0.7,0.6,0.8,1.1,0.2 c0.7-0.9,1.6-1.8,2.4-2.7c2.5-2.6,5.6-4.3,8.4-6.5c1-0.8,2.3-1.5,2.8-2.8c-0.1-0.1-0.1-0.1-0.2-0.2c-1.6,1-2.9,2.5-4.8,3 c1.6-1.9,3.7-3.3,4.7-5.8C78.8,170.8,78.7,171,78.6,171.1 M72.7,171.1c2.2-2.3,4.9-4,6.3-7.2c-0.3,0.1-0.5,0.1-0.5,0.2 c-1.7,1.8-3.6,3.2-5.6,4.5c-3.5,2.2-7.1,4.2-9.8,7.3c-0.5,0.6-0.8,1.1-0.6,1.9c0.1,0.8,0.2,1.6,0.4,2.4c0.1,0.3,0,0.8,0.4,1 c0.4,0.2,0.6-0.3,0.9-0.6c2.8-2.8,6-5.1,9.4-7.2c2-1.2,3.6-2.8,5.3-4.4c0.2-0.2,0.4-0.4,0.5-0.6c0.1-0.3,0.2-0.7-0.1-0.9 c-0.2-0.2-0.4,0.2-0.6,0.3c-1.5,1.1-2.8,2.3-4.4,3.2C73.7,171.2,73.3,171.5,72.7,171.1 M77.3,158.8c-0.5,0.3-0.9,0.6-1.3,0.9 c-1.5,1.2-3,2.4-4.7,3.5c-2.8,1.9-5.7,3.9-8.3,6.1c-0.6,0.5-1,1.1-1,1.8c0,0.9,0.1,1.9,0.1,2.8c0,0.6,0.2,0.7,0.7,0.3 c3.9-3.5,8.5-6.1,12.5-9.4c1.1-0.9,2.6-1.6,2.9-3.3c0,0-0.1-0.1-0.1-0.1c0,0,0.1,0.1,0.1,0.1c0.1-0.1,0.2-0.1,0-0.2 c0,0-0.1,0.1-0.1,0.1c-0.3,0-0.5,0.3-0.7,0.5c-1.2,1-2.3,2.1-3.7,2.9c-0.5,0.3-0.9,0.6-1.5,0.3c0.1-0.4,0.4-0.6,0.7-0.9 c1.3-1.2,2.6-2.4,3.8-3.6c0.5-0.4,0.8-0.9,1-1.5C77.9,158.7,77.6,158.6,77.3,158.8 M72.3,156.3c-1,0.9-1.9,1.8-3.1,2.4 c-1.5,0.8-2.8,2-4.2,3c-2.3,1.5-2.9,3.6-2.7,6.1c0,0.1,0,0.1,0,0.2l0.1,0l-0.1,0c0,0,0,0.1-0.1,0.1c0,0,0.1-0.1,0.1-0.1 c0.7-0.3,1.2-1,1.8-1.4c3.7-2.7,7.4-5.4,11-8.2c0.4-0.3,0.9-0.6,1-1.1c0.1-0.3,0.2-0.6-0.1-0.8c-0.3-0.1-0.5,0.1-0.6,0.3 c-1.3,1.6-3.1,2.6-4.8,3.6c-0.3,0.2-0.6,0.5-1,0.1c0.2-0.1,0.4-0.3,0.5-0.4c1.1-0.9,2.3-1.8,3.1-3.1c0.2-0.4,0.6-0.9,0.1-1.3 C72.9,155.5,72.6,156.1,72.3,156.3 M71.7,154.9c-0.3-0.4-0.8-0.4-1.3-0.2c-1.6,0.9-3.3,1.4-5.1,1.8c-0.4,0.1-0.7,0.2-0.8,0.6 c-0.4,1.2-0.8,2.5-1.1,3.7c0.1,0.1,0.1,0.1,0.2,0.2c2.5-1.7,5-3.4,7.5-5.1C71.4,155.7,72,155.4,71.7,154.9 M88.4,150.1 c-0.3-0.3-0.6-0.2-0.9,0c-0.8,0.6-1.7,1-2.7,1.3c-4.2,1.5-8.2,0.8-12.2-1c-0.6-0.3-1.1-0.3-1.7,0.1c-3,1.7-6.2,2.3-9.6,1.7 c-2-0.4-3.9-0.9-5.7-2c-0.8-0.5-1.1,0.2-1.5,0.5c-0.5,0.4,0.1,0.7,0.3,0.9c1.5,1.6,3.3,2.6,5.4,3.2c3.5,0.9,6.8,0.2,10-1.2 c0.7-0.3,1.3-0.4,2.1,0c2.3,1,4.8,1.5,7.4,1.5c3.5-0.2,6.5-1.5,8.8-4.2C88.4,150.7,88.8,150.5,88.4,150.1 M90.4,150.2 c1.7-0.1,3.1-1.6,3-3.3c-0.1-1.8-1.6-3.2-3.3-3.1c-1.7,0.1-3,1.6-2.9,3.3C87.3,148.9,88.7,150.2,90.4,150.2 M82.1,149.5 c-3.5,0.1-6.7-1.1-9.6-3c-0.7-0.4-1-0.4-1.7,0.1c-2.9,2.3-6.2,3.3-10,3c-1.5-0.1-2.9-0.5-4.2-1.1c-0.5-0.2-0.7-0.1-0.8,0.4 c-0.3,0.8,0.4,0.2,0.5,0.3c0.3,0.2,0.7,0.4,1.1,0.5c4.7,2,9.3,2.2,13.8-0.6c0.5-0.3,0.9-0.3,1.4,0c2.6,1.4,5.3,2.1,8.2,2 c2.1-0.1,4.1-0.7,5.9-1.8c0.3-0.2,0.6-0.4,0.4-0.8c-0.3-0.5-0.6-0.1-0.8,0C84.9,149.2,83.5,149.5,82.1,149.5 M89.9,147.8 c-0.6-1.1-0.2-2,1.1-2.2c0.3,0,0.6,0.1,0.9-0.3c-1.1-0.8-2.6-0.5-3.3,0.5c-0.6,0.9-0.4,1.9,0.6,2.6c0.3,0.2,0.6,0.5,0.9,0.2 C90.4,148.3,90,148.1,89.9,147.8 M69.5,204.2c0,1.5,1.3,2.7,2.8,2.7c1.5,0,2.8-1.3,2.8-2.8c0-1.5-1.3-2.7-2.8-2.7 C70.7,201.5,69.5,202.7,69.5,204.2 M66.9,195.1c0,2.9,2.5,5.1,5.4,5.1c2.9,0,5.3-2.4,5.2-5.3c0-2.9-2.5-5.1-5.4-5.1 C69.2,189.9,66.8,192.3,66.9,195.1"/></svg>