<svg version="1.1" id="Layer_1" xmlns="http://www.w3.org/2000/svg" x="0px" y="0px" viewBox="0 0 141.7 226.8" style="enable-background:new 0 0 141.7 226.8" xml:space="preserve"><style>.st0{fill:#1D1D1B}.st2{fill:#FFDC00}.st3{fill:none;stroke:#1D1D1B;stroke-width:1.5;stroke-miterlimit:10}.st4{fill:none;stroke:#1D1D1B;stroke-miterlimit:10}.st5{fill:#DA0812}.st6{fill:none;stroke:#DA0812;stroke-width:0.8;stroke-linecap:round;stroke-linejoin:round;stroke-miterlimit:10}.st7{fill:#0080C8}.st8{fill:none;stroke:#0080C8;stroke-width:0.8;stroke-linecap:round;stroke-linejoin:round;stroke-miterlimit:10}.st9{fill:none;stroke:#FFDC00;stroke-width:0.8;stroke-linecap:round;stroke-linejoin:round;stroke-miterlimit:10}</style><path class="st0" d="M12.3,20.6c0.2-0.1,0.4-0.1,0.5-0.2c0.1-0.1,0.2-0.2,0.3-0.3c0.1-0.1,0.1-0.3,0.1-0.4c0-0.2,0-0.4,0-0.7v-1.3 H8.6v-1L13.9,9h2v7.5h0.3c0.3,0,0.5,0,0.6-0.1c0.1,0,0.2-0.1,0.3-0.2c0.1-0.1,0.2-0.3,0.2-0.6h0.9l-0.1,2h-2.2V19 c0,0.3,0,0.6,0,0.7c0,0.2,0.1,0.3,0.1,0.4c0.1,0.1,0.2,0.2,0.3,0.2c0.1,0.1,0.3,0.1,0.5,0.2v0.6h-4.5V20.6z M10.3,16.5h3v-2 c0-0.8,0-1.7,0.1-2.7h-0.1l-3,4.6V16.5z"/><path class="st0" d="M129.4,206.9c-0.2,0.1-0.4,0.1-0.5,0.2c-0.1,0.1-0.2,0.2-0.3,0.3c-0.1,0.1-0.1,0.3-0.1,0.4c0,0.2,0,0.4,0,0.7 v1.3h4.7v1l-5.3,7.7h-2v-7.5h-0.3c-0.3,0-0.5,0-0.6,0.1c-0.1,0-0.2,0.1-0.3,0.2c-0.1,0.1-0.2,0.3-0.2,0.6h-0.9l0.1-2h2.2v-1.3 c0-0.3,0-0.6,0-0.7c0-0.2-0.1-0.3-0.1-0.4c-0.1-0.1-0.2-0.2-0.3-0.2c-0.1-0.1-0.3-0.1-0.5-0.2v-0.6h4.5V206.9z M131.5,210.9h-3v2 c0,0.9,0,1.7-0.1,2.7h0.1l3-4.6V210.9z"/><polygon points="104.9,219.8 82.1,219.8 62.8,219.8 40,219.8 25.3,219.8 5.4,219.8 5.4,7 24.6,7 40,7 62.8,7 82.1,7 104.9,7 118.5,7 136.3,7 136.3,219.8 118.2,219.8" style="fill:none;stroke:#1D1D1B;stroke-width:1.614;stroke-miterlimit:10"/><path class="st2" d="M106.3,204.5c-13.2,0-23.9-10.7-23.9-23.9c0-13.2,10.7-23.9,23.9-23.9c13.2,0,23.9,10.7,23.9,23.9 C130.2,193.8,119.5,204.5,106.3,204.5"/><path class="st3" d="M106.3,204.5c-13.2,0-23.9-10.7-23.9-23.9c0-13.2,10.7-23.9,23.9-23.9c13.2,0,23.9,10.7,23.9,23.9 C130.2,193.8,119.5,204.5,106.3,204.5z"/><path class="st4" d="M106.3,199.8c-10.6,0-19.2-8.6-19.2-19.2c0-10.6,8.6-19.2,19.2-19.2c10.6,0,19.2,8.6,19.2,19.2 C125.5,191.2,116.9,199.8,106.3,199.8z"/><path class="st0" d="M106.2,191c-5.7,0-10.4-4.6-10.4-10.4s4.6-10.4,10.4-10.4c5.7,0,10.4,4.6,10.4,10.4S112,191,106.2,191 M124.9,180.4l-7.3-2.2l5.8-5l-7.6,0.8l3.5-6.8l-6.7,3.6l0.6-7.6l-4.8,5.9l-2.3-7.3l-2.2,7.3l-4.9-5.8l0.7,7.6l-6.8-3.5l3.6,6.7 l-7.6-0.6l5.9,4.8l-7.2,2.4l7.3,2.2l-5.8,5l7.6-0.8l-3.5,6.8l6.7-3.6l-0.6,7.6l4.8-5.9l2.3,7.3l2.2-7.3l4.9,5.8l-0.7-7.6l6.8,3.5 L116,187l7.6,0.6l-5.9-4.8L124.9,180.4z"/><path class="st0" d="M104.6,178.9c0,0-1.1-5-4.2-7.1c-2.2,1.9-2.7,2.5-2.7,2.5S100.2,177.4,104.6,178.9"/><path class="st0" d="M107.7,182.5c0,0,1.1,5.1,4.2,7.1c2.2-1.9,2.7-2.5,2.7-2.5S112.1,184,107.7,182.5"/><path class="st0" d="M104.7,182.5c0,0-5,1.1-7.1,4.2c1.9,2.2,2.5,2.7,2.5,2.7S103.2,186.9,104.7,182.5"/><path class="st0" d="M108.1,179.1c0,0,5-1.1,7.1-4.2c-1.9-2.2-2.5-2.7-2.5-2.7S109.6,174.7,108.1,179.1"/><path class="st0" d="M116,184.1c0,0-3-2.4-4.3-2.8c2.8-1.5,3.8-2.4,4.5-3.1C116.8,181.4,116.3,183.1,116,184.1 M116.1,176.7 l-0.5,0.3c-0.7,0.9-1.5,1.3-6.3,4.1c2.4,0.4,6.3,4.3,6.3,4.3C118.4,181.5,116.1,176.7,116.1,176.7"/><path class="st0" d="M96.6,177.7c0,0,2.9,2.4,4.1,2.9c-2.7,1.5-3.7,2.5-4.3,3.1C95.8,180.5,96.3,178.8,96.6,177.7 M96.5,185.2 l0.5-0.3c0.7-0.9,1.4-1.3,6-4.1c-2.3-0.4-6.3-4.8-6.3-4.8C94,180,96.5,185.2,96.5,185.2"/><path class="st0" d="M109.5,170.8c0,0-2.4,2.9-2.9,4.1c-1.5-2.7-2.5-3.7-3.1-4.3C106.8,170,108.5,170.5,109.5,170.8 M102,170.7 l0.3,0.5c0.9,0.7,1.3,1.4,4.1,6c0.4-2.3,4.4-6,4.4-6C106.9,168.5,102,170.7,102,170.7"/><path class="st0" d="M103.4,191c0,0,2.4-2.6,2.9-3.7c1.5,2.4,2.5,3.3,3.1,3.9C106.1,191.7,104.5,191.3,103.4,191 M110.9,191.1 l-0.3-0.4c-0.9-0.6-1.3-1.3-4.1-5.4c-0.4,2-4.4,5.4-4.4,5.4C106.1,193.1,110.9,191.1,110.9,191.1"/><path class="st2" d="M106.3,67.7c-13.2,0-23.9-10.7-23.9-23.9c0-13.2,10.7-23.9,23.9-23.9c13.2,0,23.9,10.7,23.9,23.9 C130.2,57,119.5,67.7,106.3,67.7"/><path class="st3" d="M106.3,67.7c-13.2,0-23.9-10.7-23.9-23.9c0-13.2,10.7-23.9,23.9-23.9c13.2,0,23.9,10.7,23.9,23.9 C130.2,57,119.5,67.7,106.3,67.7z"/><path class="st4" d="M106.3,63c-10.6,0-19.2-8.6-19.2-19.2c0-10.6,8.6-19.2,19.2-19.2c10.6,0,19.2,8.6,19.2,19.2 C125.5,54.4,116.9,63,106.3,63z"/><path class="st0" d="M106.2,54.2c-5.7,0-10.4-4.6-10.4-10.4s4.6-10.4,10.4-10.4c5.7,0,10.4,4.6,10.4,10.4S112,54.2,106.2,54.2 M124.9,43.6l-7.3-2.2l5.8-5l-7.6,0.8l3.5-6.8l-6.7,3.6l0.6-7.6l-4.8,5.9l-2.3-7.3l-2.2,7.3l-4.9-5.8l0.7,7.6l-6.8-3.5l3.6,6.7 l-7.6-0.6l5.9,4.8L87.6,44l7.3,2.2l-5.8,5l7.6-0.8l-3.5,6.8l6.7-3.6l-0.6,7.6l4.8-5.9l2.3,7.3l2.2-7.3l4.9,5.8l-0.7-7.6l6.8,3.5 l-3.6-6.7l7.6,0.6l-5.9-4.8L124.9,43.6z"/><path class="st0" d="M104.6,42.1c0,0-1.1-5-4.2-7.1c-2.2,1.9-2.7,2.5-2.7,2.5S100.2,40.6,104.6,42.1"/><path class="st0" d="M107.7,45.7c0,0,1.1,5.1,4.2,7.1c2.2-1.9,2.7-2.5,2.7-2.5S112.1,47.2,107.7,45.7"/><path class="st0" d="M104.7,45.7c0,0-5,1.1-7.1,4.2c1.9,2.2,2.5,2.7,2.5,2.7S103.2,50.1,104.7,45.7"/><path class="st0" d="M108.1,42.3c0,0,5-1.1,7.1-4.2c-1.9-2.2-2.5-2.7-2.5-2.7S109.6,37.9,108.1,42.3"/><path class="st0" d="M116,47.3c0,0-3-2.4-4.3-2.8c2.8-1.5,3.8-2.4,4.5-3.1C116.8,44.6,116.3,46.2,116,47.3 M116.1,39.9l-0.5,0.3 c-0.7,0.9-1.5,1.3-6.3,4.1c2.4,0.4,6.3,4.3,6.3,4.3C118.4,44.7,116.1,39.9,116.1,39.9"/><path class="st0" d="M96.6,40.9c0,0,2.9,2.4,4.1,2.9c-2.7,1.5-3.7,2.5-4.3,3.1C95.8,43.6,96.3,42,96.6,40.9 M96.5,48.4l0.5-0.3 c0.7-0.9,1.4-1.3,6-4.1c-2.3-0.4-6.3-4.8-6.3-4.8C94,43.2,96.5,48.4,96.5,48.4"/><path class="st0" d="M109.5,34c0,0-2.4,2.9-2.9,4.1c-1.5-2.7-2.5-3.7-3.1-4.3C106.8,33.2,108.5,33.7,109.5,34 M102,33.9l0.3,0.5 c0.9,0.7,1.3,1.4,4.1,6c0.4-2.3,4.4-6,4.4-6C106.9,31.7,102,33.9,102,33.9"/><path class="st0" d="M103.4,54.2c0,0,2.4-2.6,2.9-3.7c1.5,2.4,2.5,3.3,3.1,3.9C106.1,54.9,104.5,54.5,103.4,54.2 M110.9,54.3 l-0.3-0.4c-0.9-0.6-1.3-1.3-4.1-5.4c-0.4,2-4.4,5.4-4.4,5.4C106.1,56.2,110.9,54.3,110.9,54.3"/><path class="st2" d="M37,204.5c-13.2,0-23.9-10.7-23.9-23.9c0-13.2,10.7-23.9,23.9-23.9c13.2,0,23.9,10.7,23.9,23.9 C60.9,193.8,50.2,204.5,37,204.5"/><path class="st3" d="M37,204.5c-13.2,0-23.9-10.7-23.9-23.9c0-13.2,10.7-23.9,23.9-23.9c13.2,0,23.9,10.7,23.9,23.9 C60.9,193.8,50.2,204.5,37,204.5z"/><path class="st4" d="M37,199.8c-10.6,0-19.2-8.6-19.2-19.2c0-10.6,8.6-19.2,19.2-19.2c10.6,0,19.2,8.6,19.2,19.2 C56.2,191.2,47.6,199.8,37,199.8z"/><path class="st0" d="M36.9,191c-5.7,0-10.4-4.6-10.4-10.4s4.6-10.4,10.4-10.4c5.7,0,10.4,4.6,10.4,10.4S42.7,191,36.9,191 M55.6,180.4l-7.3-2.2l5.8-5l-7.6,0.8l3.5-6.8l-6.7,3.6l0.6-7.6l-4.8,5.9l-2.3-7.3l-2.2,7.3l-4.9-5.8l0.7,7.6l-6.8-3.5l3.6,6.7 l-7.6-0.6l5.9,4.8l-7.2,2.4l7.3,2.2l-5.8,5l7.6-0.8l-3.5,6.8l6.7-3.6l-0.6,7.6l4.8-5.9l2.3,7.3l2.2-7.3l4.9,5.8l-0.7-7.6l6.8,3.5 l-3.6-6.7l7.6,0.6l-5.9-4.8L55.6,180.4z"/><path class="st0" d="M35.3,178.9c0,0-1.1-5-4.2-7.1c-2.2,1.9-2.7,2.5-2.7,2.5S30.9,177.4,35.3,178.9"/><path class="st0" d="M38.4,182.5c0,0,1.1,5.1,4.2,7.1c2.2-1.9,2.7-2.5,2.7-2.5S42.8,184,38.4,182.5"/><path class="st0" d="M35.4,182.5c0,0-5,1.1-7.1,4.2c1.9,2.2,2.5,2.7,2.5,2.7S33.9,186.9,35.4,182.5"/><path class="st0" d="M38.8,179.1c0,0,5-1.1,7.1-4.2c-1.9-2.2-2.5-2.7-2.5-2.7S40.3,174.7,38.8,179.1"/><path class="st0" d="M46.7,184.1c0,0-3-2.4-4.3-2.8c2.8-1.5,3.8-2.4,4.5-3.1C47.5,181.4,47,183.1,46.7,184.1 M46.8,176.7l-0.5,0.3 c-0.7,0.9-1.5,1.3-6.3,4.1c2.4,0.4,6.3,4.3,6.3,4.3C49,181.5,46.8,176.7,46.8,176.7"/><path class="st0" d="M27.3,177.7c0,0,2.9,2.4,4.1,2.9c-2.7,1.5-3.7,2.5-4.3,3.1C26.5,180.5,26.9,178.8,27.3,177.7 M27.2,185.2 l0.5-0.3c0.7-0.9,1.4-1.3,6-4.1c-2.3-0.4-6.3-4.8-6.3-4.8C24.7,180,27.2,185.2,27.2,185.2"/><path class="st0" d="M40.2,170.8c0,0-2.4,2.9-2.9,4.1c-1.5-2.7-2.5-3.7-3.1-4.3C37.5,170,39.1,170.5,40.2,170.8 M32.7,170.7 l0.3,0.5c0.9,0.7,1.3,1.4,4.1,6c0.4-2.3,4.4-6,4.4-6C37.6,168.5,32.7,170.7,32.7,170.7"/><path class="st0" d="M34.1,191c0,0,2.4-2.6,2.9-3.7c1.5,2.4,2.5,3.3,3.1,3.9C36.8,191.7,35.2,191.3,34.1,191 M41.6,191.1l-0.3-0.4 c-0.9-0.6-1.3-1.3-4.1-5.4c-0.4,2-4.4,5.4-4.4,5.4C36.7,193.1,41.6,191.1,41.6,191.1"/><path class="st2" d="M37,67.7c-13.2,0-23.9-10.7-23.9-23.9c0-13.2,10.7-23.9,23.9-23.9c13.2,0,23.9,10.7,23.9,23.9 C60.9,57,50.2,67.7,37,67.7"/><path class="st3" d="M37,67.7c-13.2,0-23.9-10.7-23.9-23.9c0-13.2,10.7-23.9,23.9-23.9c13.2,0,23.9,10.7,23.9,23.9 C60.9,57,50.2,67.7,37,67.7z"/><path class="st4" d="M37,63c-10.6,0-19.2-8.6-19.2-19.2c0-10.6,8.6-19.2,19.2-19.2c10.6,0,19.2,8.6,19.2,19.2 C56.2,54.4,47.6,63,37,63z"/><path class="st0" d="M36.9,54.2c-5.7,0-10.4-4.6-10.4-10.4s4.6-10.4,10.4-10.4c5.7,0,10.4,4.6,10.4,10.4S42.7,54.2,36.9,54.2 M55.6,43.6l-7.3-2.2l5.8-5l-7.6,0.8l3.5-6.8L43.3,34l0.6-7.6l-4.8,5.9l-2.3-7.3l-2.2,7.3l-4.9-5.8l0.7,7.6l-6.8-3.5l3.6,6.7 l-7.6-0.6l5.9,4.8L18.3,44l7.3,2.2l-5.8,5l7.6-0.8l-3.5,6.8l6.7-3.6l-0.6,7.6l4.8-5.9l2.3,7.3l2.2-7.3l4.9,5.8l-0.7-7.6l6.8,3.5 l-3.6-6.7l7.6,0.6L48.4,46L55.6,43.6z"/><path class="st0" d="M35.3,42.1c0,0-1.1-5-4.2-7.1c-2.2,1.9-2.7,2.5-2.7,2.5S30.9,40.6,35.3,42.1"/><path class="st0" d="M38.4,45.7c0,0,1.1,5.1,4.2,7.1c2.2-1.9,2.7-2.5,2.7-2.5S42.8,47.2,38.4,45.7"/><path class="st0" d="M35.4,45.7c0,0-5,1.1-7.1,4.2c1.9,2.2,2.5,2.7,2.5,2.7S33.9,50.1,35.4,45.7"/><path class="st0" d="M38.8,42.3c0,0,5-1.1,7.1-4.2c-1.9-2.2-2.5-2.7-2.5-2.7S40.3,37.9,38.8,42.3"/><path class="st0" d="M46.7,47.3c0,0-3-2.4-4.3-2.8c2.8-1.5,3.8-2.4,4.5-3.1C47.5,44.6,47,46.2,46.7,47.3 M46.8,39.9l-0.5,0.3 c-0.7,0.9-1.5,1.3-6.3,4.1c2.4,0.4,6.3,4.3,6.3,4.3C49,44.7,46.8,39.9,46.8,39.9"/><path class="st0" d="M27.3,40.9c0,0,2.9,2.4,4.1,2.9c-2.7,1.5-3.7,2.5-4.3,3.1C26.5,43.6,26.9,42,27.3,40.9 M27.2,48.4l0.5-0.3 c0.7-0.9,1.4-1.3,6-4.1c-2.3-0.4-6.3-4.8-6.3-4.8C24.7,43.2,27.2,48.4,27.2,48.4"/><path class="st0" d="M40.2,34c0,0-2.4,2.9-2.9,4.1c-1.5-2.7-2.5-3.7-3.1-4.3C37.5,33.2,39.1,33.7,40.2,34 M32.7,33.9l0.3,0.5 c0.9,0.7,1.3,1.4,4.1,6c0.4-2.3,4.4-6,4.4-6C37.6,31.7,32.7,33.9,32.7,33.9"/><path class="st0" d="M34.1,54.2c0,0,2.4-2.6,2.9-3.7c1.5,2.4,2.5,3.3,3.1,3.9C36.8,54.9,35.2,54.5,34.1,54.2 M41.6,54.3l-0.3-0.4 c-0.9-0.6-1.3-1.3-4.1-5.4c-0.4,2-4.4,5.4-4.4,5.4C36.7,56.2,41.6,54.3,41.6,54.3"/><path class="st5" d="M33,139.3c0-0.1,0-0.3,0-0.4c2.9-3.5,5.9-7,8.8-10.5c0.3-0.4,0.5-1,1.1-0.9c0.4,0.1,0.9,1.9,0.6,2.3 c-1.9,2.6-3.9,5.2-5.8,7.8c-0.2,0.3-0.5,0.3-0.8,0.3c-1.1,0.2-1.9,0.7-2.4,1.8c-0.1,0-0.1,0-0.2,0.1 C33.9,139.6,33.5,139.5,33,139.3"/><path class="st6" d="M33,139.3c0-0.1,0-0.3,0-0.4c2.9-3.5,5.9-7,8.8-10.5c0.3-0.4,0.5-1,1.1-0.9c0.4,0.1,0.9,1.9,0.6,2.3 c-1.9,2.6-3.9,5.2-5.8,7.8c-0.2,0.3-0.5,0.3-0.8,0.3c-1.1,0.2-1.9,0.7-2.4,1.8c-0.1,0-0.1,0-0.2,0.1 C33.9,139.6,33.5,139.5,33,139.3z"/><path class="st5" d="M108.1,140C108.1,140,108.1,140.1,108.1,140c-0.2,0.2-0.4,0.3-0.6,0.5c0,0-0.1,0-0.1,0 c-0.3-0.7-0.9-1.2-1.6-1.4c-3.7-1.5-7-3.8-10.5-5.7c-0.9-0.5-0.3-1.1-0.2-1.6c0.2-0.7,0.6-0.4,1-0.2c3.8,2,7.6,4,11.3,6 c0.4,0.2,0.6,0.5,0.6,1C108,139,108,139.5,108.1,140"/><path class="st6" d="M108.1,140C108.1,140,108.1,140.1,108.1,140c-0.2,0.2-0.4,0.3-0.6,0.5c0,0-0.1,0-0.1,0 c-0.3-0.7-0.9-1.2-1.6-1.4c-3.7-1.5-7-3.8-10.5-5.7c-0.9-0.5-0.3-1.1-0.2-1.6c0.2-0.7,0.6-0.4,1-0.2c3.8,2,7.6,4,11.3,6 c0.4,0.2,0.6,0.5,0.6,1C108,139,108,139.5,108.1,140z"/><path class="st7" d="M68.2,128c0.3,0.4,0.5,0.6,0.8,0.9c-0.4,0-0.6,0-0.8,0c-3.5-0.6-6.2-2.7-8.5-5.3c-1.1-1.2-2-2.4-2.7-3.9 c-1.2-2.6-0.8-5.2-0.3-7.9c0.7-3.4,2.5-5.9,4.9-8.1c4.3-3.9,9.1-3.9,14.1-1.8c2.8,1.2,5.3,2.8,6.8,5.6c0.3,0.5,0.3,0.5,0.4,1.3 c-0.9-0.3-1-1.5-1.9-1.8c-0.2,0.5,0.2,0.8,0.3,1.1c0.3,0.6,1,1.2,0.1,1.9c-0.2,0.2,0,0.5,0,0.7c1.2,3.9,1,7.7-1.3,11.2 c-0.2,0.3-0.5,0.6,0,1c0.4,0.3,0,0.6-0.2,0.8c-1.7,2.2-4.1,3.3-6.8,3.9C71.8,127.9,70.2,128.2,68.2,128 M79.3,110.4 c-0.4-0.6-1-0.7-1.5-0.7c-1.4-0.1-2.7,0-4,0.4c-0.7,0.2-1.2,0.7-1.5,1.4c-0.5,1.1-0.2,2.5-0.9,3.5c-0.1,0.2,0,0.5,0.2,0.7 c0.3,0.5,0.5,1,0.8,1.5c0.4,0.6,0.2,0.9-0.3,1.2c-1.4,0.8-2,0.7-3.4-0.6c-0.2-0.2-0.3-0.6-0.7-0.3c-0.2,0.2-0.2,0.6-0.1,0.8 c0.2,0.3,0.3,0.6,0.6,0.8c1.5,1.2,2.8,1.3,4.5,0.2c0.9-0.5,1-1.2,0.7-2.1c-0.2-0.5-0.4-1-0.6-1.6c-0.4-1.5,0.1-3.6,1-4 c1-0.5,2-1,3.1-0.9C77.7,110.8,78.5,110.7,79.3,110.4 M65.2,111.6c-0.7,0.1-1.3,0-1.9,0.3c-0.3,0.1-0.6,0.3-0.6,0.6 c0,0.4,0.4,0.4,0.6,0.5c0.7,0.2,1.1,0.7,1.1,1.3c0.1,0.9,0.7,1.4,1.3,1.8c0.5,0.3,0.9-0.6,1.3-1c0.2-0.1,0.3-0.3,0.4-0.5 c0.8-1.1,0.3-2.6-1-2.9C66,111.6,65.6,111.6,65.2,111.6 M75.7,115.1c0.3-0.2,1,0.2,0.9-0.3c-0.4-1.5,0.6-1.2,1.4-1.2 c0.3,0,0.7-0.1,0.8-0.5c0.1-0.4-0.3-0.5-0.5-0.7c-1.2-0.9-3.4-1.1-4.5-0.2c-0.6,0.5-0.7,1.2-0.2,1.8 C74.2,114.7,74.8,115.2,75.7,115.1 M69.4,121.5c-0.8-0.2-1.9,0.3-3.1,0.3c-0.2,0-0.5,0.1-0.5,0.3c-0.1,0.2,0.1,0.5,0.3,0.5 c1.2,0.4,2.4,1,3.7,0.6c0.8-0.3,1.6-0.4,2.4-0.1c0.9,0.3,1.8-0.1,2.7-0.2c0.3-0.1,0.7-0.3,0.6-0.7c-0.1-0.4-0.5-0.4-0.8-0.2 c-0.4,0.2-0.9,0.2-1.3,0.1C72.2,121.7,71,121.6,69.4,121.5 M64.9,109.4c-0.4,0-0.6-0.1-0.8,0c-0.2,0-0.5,0-0.5,0.3 c-0.1,0.4,0.3,0.4,0.5,0.4c1.1,0.1,1.9,1,3,1.3c0.8,0.2,1.3,0.7,1.2,1.6c0,0.4,0.1,0.7,0.6,0.4c0.7-0.6,0.5-2.7-0.4-3 C67.2,109.9,66.1,109.2,64.9,109.4 M69.1,124.3c1.1,1.2,1.9,1.4,2.8,0.7c0.3-0.2,0.6-0.5,0.5-0.9c-0.1-0.4-0.5-0.4-0.8-0.3 C70.8,123.9,70,124.1,69.1,124.3"/><path class="st8" d="M68.2,128c0.3,0.4,0.5,0.6,0.8,0.9c-0.4,0-0.6,0-0.8,0c-3.5-0.6-6.2-2.7-8.5-5.3c-1.1-1.2-2-2.4-2.7-3.9 c-1.2-2.6-0.8-5.2-0.3-7.9c0.7-3.4,2.5-5.9,4.9-8.1c4.3-3.9,9.1-3.9,14.1-1.8c2.8,1.2,5.3,2.8,6.8,5.6c0.3,0.5,0.3,0.5,0.4,1.3 c-0.9-0.3-1-1.5-1.9-1.8c-0.2,0.5,0.2,0.8,0.3,1.1c0.3,0.6,1,1.2,0.1,1.9c-0.2,0.2,0,0.5,0,0.7c1.2,3.9,1,7.7-1.3,11.2 c-0.2,0.3-0.5,0.6,0,1c0.4,0.3,0,0.6-0.2,0.8c-1.7,2.2-4.1,3.3-6.8,3.9C71.8,127.9,70.2,128.2,68.2,128z M79.3,110.4 c-0.4-0.6-1-0.7-1.5-0.7c-1.4-0.1-2.7,0-4,0.4c-0.7,0.2-1.2,0.7-1.5,1.4c-0.5,1.1-0.2,2.5-0.9,3.5c-0.1,0.2,0,0.5,0.2,0.7 c0.3,0.5,0.5,1,0.8,1.5c0.4,0.6,0.2,0.9-0.3,1.2c-1.4,0.8-2,0.7-3.4-0.6c-0.2-0.2-0.3-0.6-0.7-0.3c-0.2,0.2-0.2,0.6-0.1,0.8 c0.2,0.3,0.3,0.6,0.6,0.8c1.5,1.2,2.8,1.3,4.5,0.2c0.9-0.5,1-1.2,0.7-2.1c-0.2-0.5-0.4-1-0.6-1.6c-0.4-1.5,0.1-3.6,1-4 c1-0.5,2-1,3.1-0.9C77.7,110.8,78.5,110.7,79.3,110.4z M65.2,111.6c-0.7,0.1-1.3,0-1.9,0.3c-0.3,0.1-0.6,0.3-0.6,0.6 c0,0.4,0.4,0.4,0.6,0.5c0.7,0.2,1.1,0.7,1.1,1.3c0.1,0.9,0.7,1.4,1.3,1.8c0.5,0.3,0.9-0.6,1.3-1c0.2-0.1,0.3-0.3,0.4-0.5 c0.8-1.1,0.3-2.6-1-2.9C66,111.6,65.6,111.6,65.2,111.6z M75.7,115.1c0.3-0.2,1,0.2,0.9-0.3c-0.4-1.5,0.6-1.2,1.4-1.2 c0.3,0,0.7-0.1,0.8-0.5c0.1-0.4-0.3-0.5-0.5-0.7c-1.2-0.9-3.4-1.1-4.5-0.2c-0.6,0.5-0.7,1.2-0.2,1.8 C74.2,114.7,74.8,115.2,75.7,115.1z M69.4,121.5c-0.8-0.2-1.9,0.3-3.1,0.3c-0.2,0-0.5,0.1-0.5,0.3c-0.1,0.2,0.1,0.5,0.3,0.5 c1.2,0.4,2.4,1,3.7,0.6c0.8-0.3,1.6-0.4,2.4-0.1c0.9,0.3,1.8-0.1,2.7-0.2c0.3-0.1,0.7-0.3,0.6-0.7c-0.1-0.4-0.5-0.4-0.8-0.2 c-0.4,0.2-0.9,0.2-1.3,0.1C72.2,121.7,71,121.6,69.4,121.5z M64.9,109.4c-0.4,0-0.6-0.1-0.8,0c-0.2,0-0.5,0-0.5,0.3 c-0.1,0.4,0.3,0.4,0.5,0.4c1.1,0.1,1.9,1,3,1.3c0.8,0.2,1.3,0.7,1.2,1.6c0,0.4,0.1,0.7,0.6,0.4c0.7-0.6,0.5-2.7-0.4-3 C67.2,109.9,66.1,109.2,64.9,109.4z M69.1,124.3c1.1,1.2,1.9,1.4,2.8,0.7c0.3-0.2,0.6-0.5,0.5-0.9c-0.1-0.4-0.5-0.4-0.8-0.3 C70.8,123.9,70,124.1,69.1,124.3z"/><path class="st2" d="M29.6,108.3c-0.5-1.3,0.2-2.4,0.6-3.5c1.5-4,4.5-6.7,7.9-9c6-4.1,12.7-5.9,19.8-5.8c6.2,0.1,12.4,0.6,18.7,0.7 c6.1,0,12,0.6,17.9,2.2c5.8,1.6,10.8,4.2,14,9.7c1.3,2.2,2.2,4.5,2.8,6.9c-0.8-0.2-1.7-0.6-2.6-0.3c-0.4,0.1-0.4-0.3-0.5-0.6 c-1.4-3.4-3.2-6.7-5.9-9.3c-2.6-2.5-5.9-3.9-9.3-4.9c-3.4-1-6.9-1.4-10.4-1.6c-6.4-0.4-12.7-0.6-19.1-0.8c-5.2-0.1-10.5,0-15.5,1.5 c-6.4,1.9-11.6,5.5-15,11.4c-0.1,0.2-0.3,0.4-0.3,0.6C32.2,107.2,31.4,108.4,29.6,108.3"/><path class="st9" d="M29.6,108.3c-0.5-1.3,0.2-2.4,0.6-3.5c1.5-4,4.5-6.7,7.9-9c6-4.1,12.7-5.9,19.8-5.8c6.2,0.1,12.4,0.6,18.7,0.7 c6.1,0,12,0.6,17.9,2.2c5.8,1.6,10.8,4.2,14,9.7c1.3,2.2,2.2,4.5,2.8,6.9c-0.8-0.2-1.7-0.6-2.6-0.3c-0.4,0.1-0.4-0.3-0.5-0.6 c-1.4-3.4-3.2-6.7-5.9-9.3c-2.6-2.5-5.9-3.9-9.3-4.9c-3.4-1-6.9-1.4-10.4-1.6c-6.4-0.4-12.7-0.6-19.1-0.8c-5.2-0.1-10.5,0-15.5,1.5 c-6.4,1.9-11.6,5.5-15,11.4c-0.1,0.2-0.3,0.4-0.3,0.6C32.2,107.2,31.4,108.4,29.6,108.3z"/><path class="st2" d="M65.9,141.4c1-0.5,1.4,0,1.6,1c0.4,1.6,1,3.2,1.6,5c0.6-2.1,1.2-4,1.8-5.8c0.1-0.3,0-1.1,0.6-0.8 c0.6,0.2,1.6,0.1,1.7,1.1c0.1,0.6,0.2,1.3,0.4,1.8c0.6,2.7,2.2,4.8,4.3,6.5c0.5,0.4,1,0.8,1.7,1.3c-1.8,0.9-3.6,0.7-5.3,0.2 c-0.9-0.3-1.3-0.2-1.7,0.8c-0.8,2.6-1.7,5.1-2.9,7.5c-0.1,0.3-0.3,0.5-0.5,0.9c-0.9-1.4-1.3-2.9-1.7-4.4c-0.4-1.3-0.9-2.5-1.1-3.9 c-0.1-0.4-0.4-0.4-0.8-0.4c-1.2-0.1-2.3,0.3-3.5,0.3c-0.7,0-1.3-0.2-2-0.3c-0.5-0.1-0.9-0.4-0.4-1C62.4,148.3,64.5,145,65.9,141.4"/><path class="st9" d="M65.9,141.4c1-0.5,1.4,0,1.6,1c0.4,1.6,1,3.2,1.6,5c0.6-2.1,1.2-4,1.8-5.8c0.1-0.3,0-1.1,0.6-0.8 c0.6,0.2,1.6,0.1,1.7,1.1c0.1,0.6,0.2,1.3,0.4,1.8c0.6,2.7,2.2,4.8,4.3,6.5c0.5,0.4,1,0.8,1.7,1.3c-1.8,0.9-3.6,0.7-5.3,0.2 c-0.9-0.3-1.3-0.2-1.7,0.8c-0.8,2.6-1.7,5.1-2.9,7.5c-0.1,0.3-0.3,0.5-0.5,0.9c-0.9-1.4-1.3-2.9-1.7-4.4c-0.4-1.3-0.9-2.5-1.1-3.9 c-0.1-0.4-0.4-0.4-0.8-0.4c-1.2-0.1-2.3,0.3-3.5,0.3c-0.7,0-1.3-0.2-2-0.3c-0.5-0.1-0.9-0.4-0.4-1C62.4,148.3,64.5,145,65.9,141.4z"/><path class="st2" d="M110,115.9c-0.4,1.5-1.3,2.7-2.5,3.6c-3.2,2.5-6.3,5.1-9.5,7.4c-2.3,1.7-4.1,3.6-4.6,6.6 c-0.6,3.8,1.1,6.6,4.7,7.6c0.8,0.2,1.6,0.3,2.4,0.5c0.3,0.1,0.6,0.1,0.6,0.5c0,0.1,0,0.1,0,0.2c0,0.1,0.1,0.3,0.1,0.4 c0.3,0.9,0,1.3-1,1.4c-1.7,0.3-3.4,0.5-5-0.5c-2.3-1.5-4-3.4-5-6c-1.8-4.5,0.2-7.8,3.1-10.8c2.2-2.2,4.8-3.9,7.2-5.9 c2.2-1.9,4.6-3.7,6.4-6C107.9,115.6,108.9,115.9,110,115.9"/><path class="st9" d="M110,115.9c-0.4,1.5-1.3,2.7-2.5,3.6c-3.2,2.5-6.3,5.1-9.5,7.4c-2.3,1.7-4.1,3.6-4.6,6.6 c-0.6,3.8,1.1,6.6,4.7,7.6c0.8,0.2,1.6,0.3,2.4,0.5c0.3,0.1,0.6,0.1,0.6,0.5c0,0.1,0,0.1,0,0.2c0,0.1,0.1,0.3,0.1,0.4 c0.3,0.9,0,1.3-1,1.4c-1.7,0.3-3.4,0.5-5-0.5c-2.3-1.5-4-3.4-5-6c-1.8-4.5,0.2-7.8,3.1-10.8c2.2-2.2,4.8-3.9,7.2-5.9 c2.2-1.9,4.6-3.7,6.4-6C107.9,115.6,108.9,115.9,110,115.9z"/><path class="st7" d="M41.7,143.4c2.3-1,4.3-2.2,5.9-4c0.3-0.3,0.6-0.2,0.9-0.1c6.4,0.8,12.7,0.6,18.8-1.6c1.8-0.6,3.2-0.6,4.9,0 c5.1,1.7,10.2,3.3,15.6,2.9c1.9-0.1,3.3,0.1,4.3,1.8c0.3,0.5,0.8,0.7,1.3,1.1c0.4,0.3,0.8,0.6,1.4,1c-2.4,0.2-4.6-0.1-6.8-0.4 c-5.8-0.9-11.3-2.6-16.7-4.8c-0.8-0.3-1.5-0.3-2.3-0.1c-4.2,1.1-8.3,2.7-12.7,3.6c-4.3,0.9-8.7,1.5-13.2,1 C42.7,143.6,42.2,143.5,41.7,143.4"/><path class="st8" d="M41.7,143.4c2.3-1,4.3-2.2,5.9-4c0.3-0.3,0.6-0.2,0.9-0.1c6.4,0.8,12.7,0.6,18.8-1.6c1.8-0.6,3.2-0.6,4.9,0 c5.1,1.7,10.2,3.3,15.6,2.9c1.9-0.1,3.3,0.1,4.3,1.8c0.3,0.5,0.8,0.7,1.3,1.1c0.4,0.3,0.8,0.6,1.4,1c-2.4,0.2-4.6-0.1-6.8-0.4 c-5.8-0.9-11.3-2.6-16.7-4.8c-0.8-0.3-1.5-0.3-2.3-0.1c-4.2,1.1-8.3,2.7-12.7,3.6c-4.3,0.9-8.7,1.5-13.2,1 C42.7,143.6,42.2,143.5,41.7,143.4z"/><path class="st2" d="M40.9,139.8c5.4-3.7,5.8-10.8,1.1-15.3c-2.6-2.5-5.5-4.4-8.3-6.5c-1.2-0.9-2.5-1.9-3.3-3.2 c0.5,0,1.1,0.1,1.5-0.2c0.9-0.5,1.4-0.1,2,0.5c1.9,1.8,4.1,3.3,6.4,4.6c2.5,1.4,4.7,3.2,6.5,5.6c2.2,3,2.8,6.5,2.1,10 c-0.6,3.1-2.9,5-5.7,6.3c-2.2,1-2.2,1-2.1-1.4C40.9,140.1,40.9,139.9,40.9,139.8"/><path class="st9" d="M40.9,139.8c5.4-3.7,5.8-10.8,1.1-15.3c-2.6-2.5-5.5-4.4-8.3-6.5c-1.2-0.9-2.5-1.9-3.3-3.2 c0.5,0,1.1,0.1,1.5-0.2c0.9-0.5,1.4-0.1,2,0.5c1.9,1.8,4.1,3.3,6.4,4.6c2.5,1.4,4.7,3.2,6.5,5.6c2.2,3,2.8,6.5,2.1,10 c-0.6,3.1-2.9,5-5.7,6.3c-2.2,1-2.2,1-2.1-1.4C40.9,140.1,40.9,139.9,40.9,139.8z"/><path class="st7" d="M53.3,137.3c5.5-0.1,10.8-0.3,15.8-2.1c0.5-0.2,0.9-0.1,1.4,0.1c4.2,1.4,8.5,2.4,12.9,3 c1.7,0.2,3.4,0.4,5.1,0.4c0.3,0,0.6,0,0.9,0.1c0.3,0.1,0.5,0.2,0.5,0.5c0,0.3-0.3,0.2-0.5,0.3c-1.5,0.3-3.1,0.2-4.6,0.1 c-4.6-0.5-9.1-1.8-13.5-3.3c-1.1-0.4-2.1-0.3-3.2,0.1c-6.1,2.4-12.4,2.8-18.8,2c-0.2,0-0.6,0-0.5-0.4c0.1-0.4,0.1-1,0.8-0.9 C50.9,137.2,52.2,137.3,53.3,137.3"/><path class="st8" d="M53.3,137.3c5.5-0.1,10.8-0.3,15.8-2.1c0.5-0.2,0.9-0.1,1.4,0.1c4.2,1.4,8.5,2.4,12.9,3 c1.7,0.2,3.4,0.4,5.1,0.4c0.3,0,0.6,0,0.9,0.1c0.3,0.1,0.5,0.2,0.5,0.5c0,0.3-0.3,0.2-0.5,0.3c-1.5,0.3-3.1,0.2-4.6,0.1 c-4.6-0.5-9.1-1.8-13.5-3.3c-1.1-0.4-2.1-0.3-3.2,0.1c-6.1,2.4-12.4,2.8-18.8,2c-0.2,0-0.6,0-0.5-0.4c0.1-0.4,0.1-1,0.8-0.9 C50.9,137.2,52.2,137.3,53.3,137.3z"/><path class="st7" d="M87.1,137.8c-5.2-0.4-10.5-1.4-15.6-3.1c-1.2-0.4-2.3-0.5-3.5,0c-4,1.4-8.2,1.6-12.4,1.8 c-1.7,0.1-3.5,0-5.2-0.1c-0.3,0-0.7,0.1-0.7-0.5c0.1-0.4,0.2-0.7,0.7-0.6c1.1,0.1,2.1,0.1,3.2,0.1c4.8,0,9.6-0.1,14.1-2 c2-0.8,3.5-0.1,5.1,0.5c4.9,1.7,9.9,3,15.1,2.7c0.9-0.1,1,0.5,1.1,1.1c0,0.8-0.7,0.2-1,0.3C87.8,137.8,87.6,137.8,87.1,137.8"/><path class="st8" d="M87.1,137.8c-5.2-0.4-10.5-1.4-15.6-3.1c-1.2-0.4-2.3-0.5-3.5,0c-4,1.4-8.2,1.6-12.4,1.8 c-1.7,0.1-3.5,0-5.2-0.1c-0.3,0-0.7,0.1-0.7-0.5c0.1-0.4,0.2-0.7,0.7-0.6c1.1,0.1,2.1,0.1,3.2,0.1c4.8,0,9.6-0.1,14.1-2 c2-0.8,3.5-0.1,5.1,0.5c4.9,1.7,9.9,3,15.1,2.7c0.9-0.1,1,0.5,1.1,1.1c0,0.8-0.7,0.2-1,0.3C87.8,137.8,87.6,137.8,87.1,137.8z"/><path class="st2" d="M29.4,113.4c-0.9-1-1.1-2-0.7-3.3c0.1-0.1,0.1-0.2,0.2-0.3c0,0,0,0,0,0c0-0.1,0.1-0.1,0.1-0.2 c0.1-0.1,0.2-0.3,0.3-0.4c0.8-0.1,1.6-0.5,2.5,0c1.2,0.6,1.8,2.2,1.1,3.4C32.3,113.9,30.7,114.2,29.4,113.4"/><path class="st9" d="M29.4,113.4c-0.9-1-1.1-2-0.7-3.3c0.1-0.1,0.1-0.2,0.2-0.3c0,0,0,0,0,0c0-0.1,0.1-0.1,0.1-0.2 c0.1-0.1,0.2-0.3,0.3-0.4c0.8-0.1,1.6-0.5,2.5,0c1.2,0.6,1.8,2.2,1.1,3.4C32.3,113.9,30.7,114.2,29.4,113.4z"/><path class="st2" d="M111.5,111.2c0.6,1.7,0.4,2.4-0.9,3.5c-1.5,0.4-2.4,0.1-3.1-0.8c-0.6-0.9-0.6-1.8-0.1-2.7 C108.2,110,110.1,109.4,111.5,111.2"/><path class="st9" d="M111.5,111.2c0.6,1.7,0.4,2.4-0.9,3.5c-1.5,0.4-2.4,0.1-3.1-0.8c-0.6-0.9-0.6-1.8-0.1-2.7 C108.2,110,110.1,109.4,111.5,111.2z"/><path class="st2" d="M102.1,141.4c1.2-2,2.7-2.3,4.3-0.7c1.2,2.1-0.6,4-2.1,3.9C102.9,144.4,101.9,143,102.1,141.4 M103.5,141.3 c-0.6,0.4-0.6,0.9-0.5,1.4c0.1,0.4,0.4,0.8,1.1,0.8C103.7,142.9,103.5,142.2,103.5,141.3"/><path class="st9" d="M102.1,141.4c1.2-2,2.7-2.3,4.3-0.7c1.2,2.1-0.6,4-2.1,3.9C102.9,144.4,101.9,143,102.1,141.4z M103.5,141.3 c-0.6,0.4-0.6,0.9-0.5,1.4c0.1,0.4,0.4,0.8,1.1,0.8C103.7,142.9,103.5,142.2,103.5,141.3z"/><path class="st2" d="M35.4,140c1.5-1.5,2.4-1.5,4-0.2c0.1,0.1,0.1,0.2,0.2,0.2l0,0c0.6,2.2-0.5,3.9-2.5,3.6 C35.4,143.4,34.8,142,35.4,140 M36.9,142.8c-0.5-0.9-0.1-1.8,0.4-2.9C35.6,141,35.5,141.8,36.9,142.8"/><path class="st9" d="M35.4,140c1.5-1.5,2.4-1.5,4-0.2c0.1,0.1,0.1,0.2,0.2,0.2l0,0c0.6,2.2-0.5,3.9-2.5,3.6 C35.4,143.4,34.8,142,35.4,140z M36.9,142.8c-0.5-0.9-0.1-1.8,0.4-2.9C35.6,141,35.5,141.8,36.9,142.8z"/><path class="st2" d="M60.6,75.7c-0.1-0.1-0.1-0.1-0.2-0.2c0-0.4-0.1-0.7-0.6-0.6c-0.2-0.2-0.4-0.4-0.5-0.5c0.2-0.5-0.1-0.6-0.5-0.6 l0,0c0-0.2-0.1-0.3-0.2-0.2l0,0c0-0.2-0.1-0.3-0.3-0.3c-0.7-0.5-1.1-1.2-1.8-1.6c-0.2-0.1-0.4-0.3-0.3-0.5c0.1-0.2,0.4-0.3,0.6-0.3 c1.3-0.3,2.6-0.3,3.8-0.1c0.5,0.1,0.9,0.1,1.6,0.1c-1.6-1.7-1.8-3.5-1.4-5.6c0.3-1.5,0.3-3,0.5-4.8c1.1,0.8,2.1,1.6,3.2,2.5 c0.3-2.6,1.6-4.6,3.1-6.6c0.6-0.8,0.9-0.6,1.4,0c2,2.3,3.2,5,3.5,8.2c1.2-0.6,2.3-1.2,3.5-1.6c0.8-0.2,1-0.1,0.9,0.8 c-0.3,2.4-0.7,4.8-1.2,7.2c-0.2,0.9,0.1,0.9,0.8,0.9c1.5-0.1,3,0,4.5,0.5c0.3,0.1,0.7,0.2,0.8,0.5c0.1,0.4-0.4,0.5-0.6,0.7 c-2.9,2.1-5.5,4.4-7.3,7.6c-0.4,0.7-0.5,0.9-0.5,2c2.8-1.8,5.7-2.9,9-3.2c-0.7,1-1.4,2-2,2.9c-1.4,1.9-2.5,3.9-3.4,6.1 c-0.3,0.7-0.6,0.9-1.3,0.9c-1.5-0.1-3-0.1-4.5-0.2c-0.9,0-1.1-0.4-0.6-1.3c0.5-0.9,1.1-1.8,1.7-2.8c0.1-0.2,0.2-0.3,0.1-0.5 c0,0,0.1,0,0.1-0.1c0,0-0.1,0-0.1,0c0,0,0,0.1-0.1,0.1c-0.1,0-0.2,0.1-0.3,0.1c-0.6,0.3-1.2,1.3-1.7,0.9c-0.5-0.3-0.2-1.3-0.2-2 c0-1.4-0.4-2.7,0.1-4.1c0.4-1.2,1.2-2.1,1.8-3.2c0.2-0.4,0.5-0.9,0.6-1.4c-0.6,0.5-1.2,1.1-1.8,1.6c-0.2,0.2-0.3,0.5-0.6,0.4 c-0.3-0.1-0.3-0.5-0.3-0.8c-0.3-2.8,0.2-5.3,2.4-7.2c0.3-0.2,0.5-0.6,0.7-0.9c0,0,0-0.1,0-0.3c-0.9,0.3-1.7,0.9-2.4,1.5 c-0.6,0.5-0.7,0.2-0.7-0.3c-0.1-1.2-0.1-2.4-0.2-3.6c-0.1-1.4-0.2-2.8-0.2-4.2c-0.1,0-0.2,0-0.3,0c-0.1,0.8-0.2,1.6-0.2,2.4 c0,1.9,0,3.7,0,5.6c0,0.3,0.1,0.7-0.2,0.8c-0.3,0.2-0.5-0.3-0.7-0.4c-0.5-0.3-0.7-1.2-1.6-1c0.3,0.5,0.5,1.1,0.8,1.5 c1.4,1.9,1.9,4,1.6,6.3c0,0.2,0.1,0.5-0.2,0.6c-0.3,0.1-0.4-0.1-0.5-0.3c-0.7-0.8-1.3-1.6-2.1-2.3c1.8,3.5,3.7,7,2.5,11.4 c-1.6-3-3.7-5.3-6-7.4c-0.3-1.1-1-1.9-1.5-2.7C60.9,75.9,60.8,75.7,60.6,75.7"/><path class="st9" d="M60.6,75.7c-0.1-0.1-0.1-0.1-0.2-0.2c0-0.4-0.1-0.7-0.6-0.6c-0.2-0.2-0.4-0.4-0.5-0.5c0.2-0.5-0.1-0.6-0.5-0.6 l0,0c0-0.2-0.1-0.3-0.2-0.2l0,0c0-0.2-0.1-0.3-0.3-0.3c-0.7-0.5-1.1-1.2-1.8-1.6c-0.2-0.1-0.4-0.3-0.3-0.5c0.1-0.2,0.4-0.3,0.6-0.3 c1.3-0.3,2.6-0.3,3.8-0.1c0.5,0.1,0.9,0.1,1.6,0.1c-1.6-1.7-1.8-3.5-1.4-5.6c0.3-1.5,0.3-3,0.5-4.8c1.1,0.8,2.1,1.6,3.2,2.5 c0.3-2.6,1.6-4.6,3.1-6.6c0.6-0.8,0.9-0.6,1.4,0c2,2.3,3.2,5,3.5,8.2c1.2-0.6,2.3-1.2,3.5-1.6c0.8-0.2,1-0.1,0.9,0.8 c-0.3,2.4-0.7,4.8-1.2,7.2c-0.2,0.9,0.1,0.9,0.8,0.9c1.5-0.1,3,0,4.5,0.5c0.3,0.1,0.7,0.2,0.8,0.5c0.1,0.4-0.4,0.5-0.6,0.7 c-2.9,2.1-5.5,4.4-7.3,7.6c-0.4,0.7-0.5,0.9-0.5,2c2.8-1.8,5.7-2.9,9-3.2c-0.7,1-1.4,2-2,2.9c-1.4,1.9-2.5,3.9-3.4,6.1 c-0.3,0.7-0.6,0.9-1.3,0.9c-1.5-0.1-3-0.1-4.5-0.2c-0.9,0-1.1-0.4-0.6-1.3c0.5-0.9,1.1-1.8,1.7-2.8c0.1-0.2,0.2-0.3,0.1-0.5 c0,0,0.1,0,0.1-0.1c0,0-0.1,0-0.1,0c0,0,0,0.1-0.1,0.1c-0.1,0-0.2,0.1-0.3,0.1c-0.6,0.3-1.2,1.3-1.7,0.9c-0.5-0.3-0.2-1.3-0.2-2 c0-1.4-0.4-2.7,0.1-4.1c0.4-1.2,1.2-2.1,1.8-3.2c0.2-0.4,0.5-0.9,0.6-1.4c-0.6,0.5-1.2,1.1-1.8,1.6c-0.2,0.2-0.3,0.5-0.6,0.4 c-0.3-0.1-0.3-0.5-0.3-0.8c-0.3-2.8,0.2-5.3,2.4-7.2c0.3-0.2,0.5-0.6,0.7-0.9c0,0,0-0.1,0-0.3c-0.9,0.3-1.7,0.9-2.4,1.5 c-0.6,0.5-0.7,0.2-0.7-0.3c-0.1-1.2-0.1-2.4-0.2-3.6c-0.1-1.4-0.2-2.8-0.2-4.2c-0.1,0-0.2,0-0.3,0c-0.1,0.8-0.2,1.6-0.2,2.4 c0,1.9,0,3.7,0,5.6c0,0.3,0.1,0.7-0.2,0.8c-0.3,0.2-0.5-0.3-0.7-0.4c-0.5-0.3-0.7-1.2-1.6-1c0.3,0.5,0.5,1.1,0.8,1.5 c1.4,1.9,1.9,4,1.6,6.3c0,0.2,0.1,0.5-0.2,0.6c-0.3,0.1-0.4-0.1-0.5-0.3c-0.7-0.8-1.3-1.6-2.1-2.3c1.8,3.5,3.7,7,2.5,11.4 c-1.6-3-3.7-5.3-6-7.4c-0.3-1.1-1-1.9-1.5-2.7C60.9,75.9,60.8,75.7,60.6,75.7z"/><path class="st2" d="M15,103.8c-0.2-0.5,0.2-0.7,0.4-1c4.3-5.4,8.4-11,13.1-16.1c2.6-2.8,5.3-5.4,9.2-6.3c4.2-1,8.4-1.3,12.7-0.9 c1.8,0.2,3.7,0.2,5.5,0.4c0.2,0,0.4,0.1,0.6,0.1c2.2,0.2,3.1,0.9,4,3.2c-2-0.2-4-0.5-5.9-0.7c-4.1-0.5-8.2,0-12.3,0.5 c-4.5,0.6-7.9,3-11.3,5.8c-4.4,3.7-7.9,8.3-11.6,12.6c-0.7,0.8-1.5,1.7-2.1,2.6c-0.5,0.6-0.8,0.9-1.4,0.2 C15.6,104,15.3,103.9,15,103.8"/><path class="st9" d="M15,103.8c-0.2-0.5,0.2-0.7,0.4-1c4.3-5.4,8.4-11,13.1-16.1c2.6-2.8,5.3-5.4,9.2-6.3c4.2-1,8.4-1.3,12.7-0.9 c1.8,0.2,3.7,0.2,5.5,0.4c0.2,0,0.4,0.1,0.6,0.1c2.2,0.2,3.1,0.9,4,3.2c-2-0.2-4-0.5-5.9-0.7c-4.1-0.5-8.2,0-12.3,0.5 c-4.5,0.6-7.9,3-11.3,5.8c-4.4,3.7-7.9,8.3-11.6,12.6c-0.7,0.8-1.5,1.7-2.1,2.6c-0.5,0.6-0.8,0.9-1.4,0.2 C15.6,104,15.3,103.9,15,103.8z"/><path class="st2" d="M81.2,82.8c0.8-1.6,2.1-1.7,3.7-1.6c3.3,0.2,6.5,0.3,9.8,0.4c8.3,0.4,14.9,4,20,10.7c2.5,3.3,4.7,6.9,7.3,10.1 c1.1,1.4,2.2,2.8,3.4,4c0.4,0.4,0.6,0.7,0.1,1.2c-0.4,0.4-0.7,1-1,1.5c-2.4-2.6-4.3-5.6-6.4-8.4c-1.9-2.7-3.7-5.5-6-7.8 c-2.2-2.3-4.7-4.2-7.6-5.5c-3.4-1.5-6.9-2.4-10.6-3c-4.1-0.7-8.2-1.2-12.4-1.3C81.4,83.1,81.3,83,81.2,82.8"/><path class="st9" d="M81.2,82.8c0.8-1.6,2.1-1.7,3.7-1.6c3.3,0.2,6.5,0.3,9.8,0.4c8.3,0.4,14.9,4,20,10.7c2.5,3.3,4.7,6.9,7.3,10.1 c1.1,1.4,2.2,2.8,3.4,4c0.4,0.4,0.6,0.7,0.1,1.2c-0.4,0.4-0.7,1-1,1.5c-2.4-2.6-4.3-5.6-6.4-8.4c-1.9-2.7-3.7-5.5-6-7.8 c-2.2-2.3-4.7-4.2-7.6-5.5c-3.4-1.5-6.9-2.4-10.6-3c-4.1-0.7-8.2-1.2-12.4-1.3C81.4,83.1,81.3,83,81.2,82.8z"/><path class="st2" d="M28.9,135c-0.7,0-1.1,1.1-1.8,0.8c-0.6-0.3-0.9-0.9-1.4-1.4c-2.8-2.8-6.1-5.1-9.4-7.4c-2.1-1.5-4.3-3-5.7-5.3 c-1.4-2.2-1.9-4.5-1.1-7.1c0.9-2.7,3-3.2,5.4-3.3c0.4,0.1,0.9,0.2,1.4,0.3c-0.9,1.1-1.6,2.2-2.1,3.5c-1,2.7-0.6,5.2,1.4,7.4 c1.9,2.1,4.2,3.7,6.5,5.3C24.9,129.7,27.2,132.1,28.9,135"/><path class="st9" d="M28.9,135c-0.7,0-1.1,1.1-1.8,0.8c-0.6-0.3-0.9-0.9-1.4-1.4c-2.8-2.8-6.1-5.1-9.4-7.4c-2.1-1.5-4.3-3-5.7-5.3 c-1.4-2.2-1.9-4.5-1.1-7.1c0.9-2.7,3-3.2,5.4-3.3c0.4,0.1,0.9,0.2,1.4,0.3c-0.9,1.1-1.6,2.2-2.1,3.5c-1,2.7-0.6,5.2,1.4,7.4 c1.9,2.1,4.2,3.7,6.5,5.3C24.9,129.7,27.2,132.1,28.9,135z"/><path class="st2" d="M127.4,114.2c4,1.5,3.9,4.8,2.4,7.6c-0.9,1.6-2,3-3.6,4.1c-3.5,2.5-7,4.9-10.1,8c-0.3,0.3-0.6,0.6-0.9,0.9 c-0.5,0.6-0.9,1.4-1.5,1.6c-0.5,0.2-1.2-0.5-1.8-0.7c-0.2-0.7,0.3-1.1,0.6-1.6c1.1-1.7,2.7-3,4.3-4.1c2.7-1.9,5.4-3.8,7.6-6.3 c0.7-0.8,1.3-1.6,1.8-2.6c1.2-2.4,0.6-4.4-1.8-5.7C125.2,114.5,125.9,114.3,127.4,114.2"/><path class="st9" d="M127.4,114.2c4,1.5,3.9,4.8,2.4,7.6c-0.9,1.6-2,3-3.6,4.1c-3.5,2.5-7,4.9-10.1,8c-0.3,0.3-0.6,0.6-0.9,0.9 c-0.5,0.6-0.9,1.4-1.5,1.6c-0.5,0.2-1.2-0.5-1.8-0.7c-0.2-0.7,0.3-1.1,0.6-1.6c1.1-1.7,2.7-3,4.3-4.1c2.7-1.9,5.4-3.8,7.6-6.3 c0.7-0.8,1.3-1.6,1.8-2.6c1.2-2.4,0.6-4.4-1.8-5.7C125.2,114.5,125.9,114.3,127.4,114.2z"/><path class="st5" d="M18.8,124c3.6-2.6,7.1-5.1,10.5-7.6c0.4-0.3,0.7-0.3,1,0.1c0.2,0.3,0.5,0.6,0.8,0.8c0.6,0.5,0.5,0.8,0,1.3 c-2.8,2.5-5.5,5.1-8.2,7.7c-0.4,0.4-0.7,0.5-1.1,0.1C20.8,125.7,19.8,125,18.8,124"/><path class="st6" d="M18.8,124c3.6-2.6,7.1-5.1,10.5-7.6c0.4-0.3,0.7-0.3,1,0.1c0.2,0.3,0.5,0.6,0.8,0.8c0.6,0.5,0.5,0.8,0,1.3 c-2.8,2.5-5.5,5.1-8.2,7.7c-0.4,0.4-0.7,0.5-1.1,0.1C20.8,125.7,19.8,125,18.8,124z"/><path class="st5" d="M29.2,115.4c0,0.3-0.2,0.4-0.4,0.6c-3.3,2.4-6.6,4.7-9.9,7.1c-0.5,0.4-0.8,0.3-1.2-0.1c-0.6-0.7-1.2-1.3-1.8-2 c-0.4-0.4-0.4-0.7,0.2-1c3.9-2,7.7-4.1,11.6-6.1C27.9,113.7,29.2,114.9,29.2,115.4"/><path class="st6" d="M29.2,115.4c0,0.3-0.2,0.4-0.4,0.6c-3.3,2.4-6.6,4.7-9.9,7.1c-0.5,0.4-0.8,0.3-1.2-0.1c-0.6-0.7-1.2-1.3-1.8-2 c-0.4-0.4-0.4-0.7,0.2-1c3.9-2,7.7-4.1,11.6-6.1C27.9,113.7,29.2,114.9,29.2,115.4z"/><path class="st5" d="M97.9,128.3c0.3,0.2,0.5,0.2,0.7,0.3c3.8,1.9,7.5,3.7,11.3,5.6c0.3,0.2,0.9,0.2,0.8,0.7c0,0.5-0.3,0.8-0.8,0.9 c-0.2,0.1-0.5,0.2-0.7,0.4c-0.7,1.1-1.4,0.7-2.3,0.2c-3.4-1.9-6.9-3.7-10.4-5.5c-0.8-0.4-0.7-0.7-0.2-1.2 C97,129.2,97.5,128.7,97.9,128.3"/><path class="st6" d="M97.9,128.3c0.3,0.2,0.5,0.2,0.7,0.3c3.8,1.9,7.5,3.7,11.3,5.6c0.3,0.2,0.9,0.2,0.8,0.7c0,0.5-0.3,0.8-0.8,0.9 c-0.2,0.1-0.5,0.2-0.7,0.4c-0.7,1.1-1.4,0.7-2.3,0.2c-3.4-1.9-6.9-3.7-10.4-5.5c-0.8-0.4-0.7-0.7-0.2-1.2 C97,129.2,97.5,128.7,97.9,128.3z"/><path class="st5" d="M37.5,122c-0.2,0.2-0.3,0.4-0.5,0.6c-2.7,3-5.4,6-8.1,9c-0.6,0.6-0.9,0.6-1.3-0.1c-0.4-0.7-1.5-1.2-1.4-1.9 c0.1-0.6,1-1.1,1.5-1.7c2.3-2.3,4.6-4.6,6.9-7c0.3-0.3,0.6-0.7,1.1-0.3C36.4,121.2,37.1,121.4,37.5,122"/><path class="st6" d="M37.5,122c-0.2,0.2-0.3,0.4-0.5,0.6c-2.7,3-5.4,6-8.1,9c-0.6,0.6-0.9,0.6-1.3-0.1c-0.4-0.7-1.5-1.2-1.4-1.9 c0.1-0.6,1-1.1,1.5-1.7c2.3-2.3,4.6-4.6,6.9-7c0.3-0.3,0.6-0.7,1.1-0.3C36.4,121.2,37.1,121.4,37.5,122z"/><path class="st2" d="M58.8,79.4c0.1-0.4-0.4-0.6-0.6-1.1h1.7c1.6,0.5,2.6,1.8,3.7,3c1.8,2,3.1,4.2,4.5,6.5c0.1,0.1,0.1,0.2,0.1,0.3 c0.6,1.4,0.5,1.5-1,1.5c-1.4,0-2.9-0.2-4.3-0.2c-1,0-0.9-0.9-1.2-1.5c0.9-0.2,1.6,0.3,2.5,0.6c-0.5-2.1-1.6-3.7-2.7-5.4 c0-0.3-0.2-0.4-0.4-0.5l0,0c0-0.3-0.1-0.6-0.4-0.7l0,0c-0.1-0.1-0.1-0.1-0.2-0.2c-0.1-0.2-0.2-0.3-0.3-0.5c0-0.1,0-0.1-0.1-0.2 L60.1,81c0-0.3-0.1-0.5-0.4-0.7c-0.1-0.1-0.2-0.1-0.2-0.2c-0.1-0.1-0.1-0.1-0.2-0.2l0,0c-0.1-0.1-0.1-0.1-0.2-0.2l0,0 C59,79.6,58.9,79.5,58.8,79.4L58.8,79.4z"/><path class="st9" d="M58.8,79.4c0.1-0.4-0.4-0.6-0.6-1.1h1.7c1.6,0.5,2.6,1.8,3.7,3c1.8,2,3.1,4.2,4.5,6.5c0.1,0.1,0.1,0.2,0.1,0.3 c0.6,1.4,0.5,1.5-1,1.5c-1.4,0-2.9-0.2-4.3-0.2c-1,0-0.9-0.9-1.2-1.5c0.9-0.2,1.6,0.3,2.5,0.6c-0.5-2.1-1.6-3.7-2.7-5.4 c0-0.3-0.2-0.4-0.4-0.5l0,0c0-0.3-0.1-0.6-0.4-0.7l0,0c-0.1-0.1-0.1-0.1-0.2-0.2c-0.1-0.2-0.2-0.3-0.3-0.5c0-0.1,0-0.1-0.1-0.2 L60.1,81c0-0.3-0.1-0.5-0.4-0.7c-0.1-0.1-0.2-0.1-0.2-0.2c-0.1-0.1-0.1-0.1-0.2-0.2l0,0c-0.1-0.1-0.1-0.1-0.2-0.2l0,0 C59,79.6,58.9,79.5,58.8,79.4L58.8,79.4z"/><path class="st5" d="M27.7,108.5c-3.2-0.5-6.4-1.1-9.7-1.6c-0.9-0.2-1.1-0.8-0.5-1.5c0.6-0.8,1.3-1.5,1.9-2.3 c0.3-0.4,0.6-0.5,1.1-0.3c2.6,1,5.2,2,7.8,2.9c0.4,0.1,0.5,0.3,0.4,0.7c-0.2,0.6-0.2,1.2-0.3,1.8C28.3,108.6,28.1,108.6,27.7,108.5"/><path class="st6" d="M27.7,108.5c-3.2-0.5-6.4-1.1-9.7-1.6c-0.9-0.2-1.1-0.8-0.5-1.5c0.6-0.8,1.3-1.5,1.9-2.3 c0.3-0.4,0.6-0.5,1.1-0.3c2.6,1,5.2,2,7.8,2.9c0.4,0.1,0.5,0.3,0.4,0.7c-0.2,0.6-0.2,1.2-0.3,1.8C28.3,108.6,28.1,108.6,27.7,108.5 z"/><path class="st5" d="M33.5,137.3c-0.4,0-0.5-0.1-0.6-0.3c-0.1-0.3-0.2-0.6-0.5-0.8c-1.2-0.8-0.8-1.5,0-2.4c2.6-2.8,5.1-5.7,7.6-8.6 c0.4-0.5,0.8-0.7,1.2-0.1c0.4,0.6,1.5,0.9,0.7,1.9c-2.7,3.3-5.4,6.5-8.2,9.7C33.7,137,33.5,137.2,33.5,137.3"/><path class="st6" d="M33.5,137.3c-0.4,0-0.5-0.1-0.6-0.3c-0.1-0.3-0.2-0.6-0.5-0.8c-1.2-0.8-0.8-1.5,0-2.4c2.6-2.8,5.1-5.7,7.6-8.6 c0.4-0.5,0.8-0.7,1.2-0.1c0.4,0.6,1.5,0.9,0.7,1.9c-2.7,3.3-5.4,6.5-8.2,9.7C33.7,137,33.5,137.2,33.5,137.3z"/><path class="st5" d="M107.7,120.8c0.6-0.6,1.1-1,1.6-1.5c0.2-0.2,0.5-0.2,0.8-0.1c4.1,1.4,8.1,2.9,12.2,4.3 c0.6,0.2,0.5,0.5,0.1,0.8c-1.9,1.9-1.9,1.8-4.4,0.8c-3-1.3-6-2.4-9-3.7C108.6,121.2,108.2,121,107.7,120.8"/><path class="st6" d="M107.7,120.8c0.6-0.6,1.1-1,1.6-1.5c0.2-0.2,0.5-0.2,0.8-0.1c4.1,1.4,8.1,2.9,12.2,4.3 c0.6,0.2,0.5,0.5,0.1,0.8c-1.9,1.9-1.9,1.8-4.4,0.8c-3-1.3-6-2.4-9-3.7C108.6,121.2,108.2,121,107.7,120.8z"/><path class="st5" d="M116.4,128.9c-0.9,0.7-1.7,1.4-2.5,2c-0.3,0.3-0.6,0.1-0.9-0.1c-3.6-1.6-7.1-3.2-10.7-4.8 c-0.6-0.3-0.6-0.5-0.1-0.9c1-1,1.9-1.2,3.3-0.6c3.1,1.4,6.4,2.6,9.5,3.8C115.5,128.5,115.9,128.7,116.4,128.9"/><path class="st6" d="M116.4,128.9c-0.9,0.7-1.7,1.4-2.5,2c-0.3,0.3-0.6,0.1-0.9-0.1c-3.6-1.6-7.1-3.2-10.7-4.8 c-0.6-0.3-0.6-0.5-0.1-0.9c1-1,1.9-1.2,3.3-0.6c3.1,1.4,6.4,2.6,9.5,3.8C115.5,128.5,115.9,128.7,116.4,128.9z"/><path class="st5" d="M40,124.2c-0.1,0.2-0.2,0.4-0.4,0.5c-2.8,3.2-5.7,6.4-8.5,9.6c-0.6,0.7-0.9,0.7-1.4-0.1 c-0.7-0.9-0.9-1.6,0.1-2.5c2.6-2.7,5.1-5.6,7.6-8.5c0.6-0.7,1.1-0.9,1.7-0.1C39.4,123.5,39.8,123.7,40,124.2"/><path class="st6" d="M40,124.2c-0.1,0.2-0.2,0.4-0.4,0.5c-2.8,3.2-5.7,6.4-8.5,9.6c-0.6,0.7-0.9,0.7-1.4-0.1 c-0.7-0.9-0.9-1.6,0.1-2.5c2.6-2.7,5.1-5.6,7.6-8.5c0.6-0.7,1.1-0.9,1.7-0.1C39.4,123.5,39.8,123.7,40,124.2z"/><path class="st5" d="M104.7,123.4c0.1-0.2,0.1-0.2,0.1-0.3c1.2-1.5,2.5-1.8,4.4-0.9c3.1,1.5,6.4,2.7,9.6,3.9c0.8,0.3,0.7,0.5,0.2,1 c-1.1,1-2.1,1.2-3.5,0.6C111.9,126.1,108.3,124.8,104.7,123.4"/><path class="st6" d="M104.7,123.4c0.1-0.2,0.1-0.2,0.1-0.3c1.2-1.5,2.5-1.8,4.4-0.9c3.1,1.5,6.4,2.7,9.6,3.9c0.8,0.3,0.7,0.5,0.2,1 c-1.1,1-2.1,1.2-3.5,0.6C111.9,126.1,108.3,124.8,104.7,123.4z"/><path class="st5" d="M98.7,127.8c0.6-0.5,1.1-0.8,1.6-1.3c0.4-0.3,0.7-0.3,1.1-0.1c3.6,1.7,7.2,3.3,10.9,4.9 c0.6,0.2,0.5,0.4,0.2,0.9c-1.3,1.8-1.3,1.8-3.2,0.8c-3.2-1.6-6.4-3.2-9.6-4.8C99.4,128.1,99.1,128,98.7,127.8"/><path class="st6" d="M98.7,127.8c0.6-0.5,1.1-0.8,1.6-1.3c0.4-0.3,0.7-0.3,1.1-0.1c3.6,1.7,7.2,3.3,10.9,4.9 c0.6,0.2,0.5,0.4,0.2,0.9c-1.3,1.8-1.3,1.8-3.2,0.8c-3.2-1.6-6.4-3.2-9.6-4.8C99.4,128.1,99.1,128,98.7,127.8z"/><path class="st5" d="M34.6,120c-0.2,0.2-0.3,0.4-0.5,0.6c-2.6,2.6-5.2,5.1-7.7,7.7c-0.6,0.7-1.1,0.7-1.8,0c-1.4-1.3-1.4-1.2,0-2.5 c2.5-2.3,4.9-4.6,7.4-6.9c0.3-0.3,0.6-0.5,1-0.3C33.5,119.1,34,119.6,34.6,120"/><path class="st6" d="M34.6,120c-0.2,0.2-0.3,0.4-0.5,0.6c-2.6,2.6-5.2,5.1-7.7,7.7c-0.6,0.7-1.1,0.7-1.8,0c-1.4-1.3-1.4-1.2,0-2.5 c2.5-2.3,4.9-4.6,7.4-6.9c0.3-0.3,0.6-0.5,1-0.3C33.5,119.1,34,119.6,34.6,120z"/><path class="st5" d="M124.3,121.9c-0.3,0.9-0.8,1.2-1.8,0.8c-3.9-1.4-7.8-2.8-11.7-4.1c-0.7-0.2-0.7-0.5-0.4-1.1 c0.8-1.6,0.8-1.6,2.5-1.1c2.1,0.6,4.2,1.2,6.4,1.8c0.4,0.1,0.7,0.2,0.8,0.7c0.5,2.2,1.6,3,3.9,2.9 C124.1,121.8,124.2,121.9,124.3,121.9"/><path class="st6" d="M124.3,121.9c-0.3,0.9-0.8,1.2-1.8,0.8c-3.9-1.4-7.8-2.8-11.7-4.1c-0.7-0.2-0.7-0.5-0.4-1.1 c0.8-1.6,0.8-1.6,2.5-1.1c2.1,0.6,4.2,1.2,6.4,1.8c0.4,0.1,0.7,0.2,0.8,0.7c0.5,2.2,1.6,3,3.9,2.9 C124.1,121.8,124.2,121.9,124.3,121.9z"/><path class="st5" d="M126.1,113.3c-0.8,0.4-1.5,0.2-2.2,0.2c-3.4-0.3-6.8-0.8-10.2-1c-1.2-0.1-0.9-0.9-1-1.5 c-0.1-0.8,0.7-0.4,1-0.4c3-0.2,6-0.4,9-0.6c0.9-0.1,1.6,0.4,1.9,1C125.1,111.7,125.5,112.5,126.1,113.3"/><path class="st6" d="M126.1,113.3c-0.8,0.4-1.5,0.2-2.2,0.2c-3.4-0.3-6.8-0.8-10.2-1c-1.2-0.1-0.9-0.9-1-1.5 c-0.1-0.8,0.7-0.4,1-0.4c3-0.2,6-0.4,9-0.6c0.9-0.1,1.6,0.4,1.9,1C125.1,111.7,125.5,112.5,126.1,113.3z"/><path class="st5" d="M15.4,110.5c0.8-0.8,1.5-1.5,1.7-2.4c0.1-0.5,0.5-0.5,0.8-0.5c3.1,0.5,6.3,1.1,9.4,1.6c0.2,0,0.4,0,0.4,0.3 c0.2,0.8-0.6,1.9-1.5,1.9c-2.2,0-4.4,0-6.6,0.1C18.2,111.6,17,110.6,15.4,110.5"/><path class="st6" d="M15.4,110.5c0.8-0.8,1.5-1.5,1.7-2.4c0.1-0.5,0.5-0.5,0.8-0.5c3.1,0.5,6.3,1.1,9.4,1.6c0.2,0,0.4,0,0.4,0.3 c0.2,0.8-0.6,1.9-1.5,1.9c-2.2,0-4.4,0-6.6,0.1C18.2,111.6,17,110.6,15.4,110.5z"/><path class="st5" d="M23.4,98.4c0.2,0.1,0.4,0.2,0.5,0.3c1.9,1.1,3.7,2.2,5.6,3.3c0.6,0.3,0.6,0.6,0.3,1.2c-1,2-0.9,2-3,1.2 c-1.9-0.7-3.7-1.4-5.6-2.1c-0.7-0.3-0.9-0.5-0.3-1.1c0.7-0.7,1.2-1.5,1.9-2.2C23,98.7,23.2,98.6,23.4,98.4"/><path class="st6" d="M23.4,98.4c0.2,0.1,0.4,0.2,0.5,0.3c1.9,1.1,3.7,2.2,5.6,3.3c0.6,0.3,0.6,0.6,0.3,1.2c-1,2-0.9,2-3,1.2 c-1.9-0.7-3.7-1.4-5.6-2.1c-0.7-0.3-0.9-0.5-0.3-1.1c0.7-0.7,1.2-1.5,1.9-2.2C23,98.7,23.2,98.6,23.4,98.4z"/><path class="st5" d="M40.7,84.4c0.4-0.1,0.6,0.2,0.8,0.5c1,1.9,2.1,3.7,3.1,5.5c0.4,0.7,0.2,0.9-0.5,1.2c-2.2,0.8-2.2,0.9-3.6-1.1 c-1-1.4-2-2.8-3-4.1c-0.5-0.6-0.1-1,0.3-1.1C38.8,84.9,39.8,84.6,40.7,84.4"/><path class="st6" d="M40.7,84.4c0.4-0.1,0.6,0.2,0.8,0.5c1,1.9,2.1,3.7,3.1,5.5c0.4,0.7,0.2,0.9-0.5,1.2c-2.2,0.8-2.2,0.9-3.6-1.1 c-1-1.4-2-2.8-3-4.1c-0.5-0.6-0.1-1,0.3-1.1C38.8,84.9,39.8,84.6,40.7,84.4z"/><path class="st5" d="M32.6,88.9c0.3,0,0.5,0.2,0.6,0.3c1.5,1.6,3,3.3,4.5,5c0.3,0.4,0.3,0.5-0.1,0.8c-2.1,1.7-2.1,1.7-4.2-0.1 c-1.1-0.9-2.1-1.8-3.3-2.7c-0.6-0.5-0.7-0.9-0.1-1.4c0.7-0.6,1.4-1.2,2.1-1.7C32.4,89,32.5,88.9,32.6,88.9"/><path class="st6" d="M32.6,88.9c0.3,0,0.5,0.2,0.6,0.3c1.5,1.6,3,3.3,4.5,5c0.3,0.4,0.3,0.5-0.1,0.8c-2.1,1.7-2.1,1.7-4.2-0.1 c-1.1-0.9-2.1-1.8-3.3-2.7c-0.6-0.5-0.7-0.9-0.1-1.4c0.7-0.6,1.4-1.2,2.1-1.7C32.4,89,32.5,88.9,32.6,88.9z"/><path class="st5" d="M123.9,114.2c-0.8,0.5-1.4,1-2,1.3c-0.5,0.3-1,0.6-1.1,1c-0.4,1.2-1.2,1-2.1,0.7c-2-0.6-4-1.2-6-1.7 c-0.6-0.2-0.8-0.2-0.5-1c0.5-1.1,1-1.5,2.3-1.3C117.5,113.6,120.6,113.9,123.9,114.2"/><path class="st6" d="M123.9,114.2c-0.8,0.5-1.4,1-2,1.3c-0.5,0.3-1,0.6-1.1,1c-0.4,1.2-1.2,1-2.1,0.7c-2-0.6-4-1.2-6-1.7 c-0.6-0.2-0.8-0.2-0.5-1c0.5-1.1,1-1.5,2.3-1.3C117.5,113.6,120.6,113.9,123.9,114.2z"/><path class="st5" d="M42.1,84.2c1.4-0.5,2.9-0.5,4.2-0.7c0.5-0.1,0.7,0.1,0.9,0.6c0.5,1.8,1,3.5,1.6,5.3c0.2,0.5,0.1,0.7-0.4,0.9 c-2.5,0.7-2.4,0.7-3.7-1.5C43.8,87.3,43,85.8,42.1,84.2"/><path class="st6" d="M42.1,84.2c1.4-0.5,2.9-0.5,4.2-0.7c0.5-0.1,0.7,0.1,0.9,0.6c0.5,1.8,1,3.5,1.6,5.3c0.2,0.5,0.1,0.7-0.4,0.9 c-2.5,0.7-2.4,0.7-3.7-1.5C43.8,87.3,43,85.8,42.1,84.2z"/><path class="st5" d="M36.2,86.3c0.4,0,0.5,0.3,0.7,0.5c1.3,1.8,2.6,3.6,4,5.4c0.4,0.5,0.3,0.8-0.3,1.1c-1.8,1-1.8,1-3.2-0.5 c-1.1-1.3-2.3-2.6-3.4-3.8c-0.5-0.5-0.5-0.8,0.1-1.2C34.9,87.2,35.6,86.7,36.2,86.3"/><path class="st6" d="M36.2,86.3c0.4,0,0.5,0.3,0.7,0.5c1.3,1.8,2.6,3.6,4,5.4c0.4,0.5,0.3,0.8-0.3,1.1c-1.8,1-1.8,1-3.2-0.5 c-1.1-1.3-2.3-2.6-3.4-3.8c-0.5-0.5-0.5-0.8,0.1-1.2C34.9,87.2,35.6,86.7,36.2,86.3z"/><path class="st5" d="M112.6,95.1c0,0.3-0.2,0.4-0.4,0.6c-1.5,1.1-3.1,2.2-4.6,3.3c-0.4,0.3-0.5,0.2-0.8-0.1 c-0.3-0.4-0.6-0.7-0.9-0.9c-1.1-0.6-0.8-1.2-0.1-1.9c1.1-1.1,2.2-2.2,3.3-3.3c0.4-0.4,0.6-0.4,1.1,0c0.7,0.7,1.5,1.4,2.1,2.2 C112.4,94.8,112.5,95,112.6,95.1"/><path class="st6" d="M112.6,95.1c0,0.3-0.2,0.4-0.4,0.6c-1.5,1.1-3.1,2.2-4.6,3.3c-0.4,0.3-0.5,0.2-0.8-0.1 c-0.3-0.4-0.6-0.7-0.9-0.9c-1.1-0.6-0.8-1.2-0.1-1.9c1.1-1.1,2.2-2.2,3.3-3.3c0.4-0.4,0.6-0.4,1.1,0c0.7,0.7,1.5,1.4,2.1,2.2 C112.4,94.8,112.5,95,112.6,95.1z"/><path class="st5" d="M50.2,83.3c2.4,0,2-0.2,2.4,1.7c0.2,1.2,0.5,2.4,0.7,3.6c0.1,0.7-0.1,1-0.8,1c-0.9-0.1-1.9,0.6-2.7,0.1 c-0.7-0.5-0.6-1.6-0.9-2.5c-0.3-1-0.6-2.1-1-3.1c-0.2-0.5,0-0.7,0.5-0.7C49.1,83.4,49.8,83.3,50.2,83.3"/><path class="st6" d="M50.2,83.3c2.4,0,2-0.2,2.4,1.7c0.2,1.2,0.5,2.4,0.7,3.6c0.1,0.7-0.1,1-0.8,1c-0.9-0.1-1.9,0.6-2.7,0.1 c-0.7-0.5-0.6-1.6-0.9-2.5c-0.3-1-0.6-2.1-1-3.1c-0.2-0.5,0-0.7,0.5-0.7C49.1,83.4,49.8,83.3,50.2,83.3z"/><path class="st5" d="M105.2,89.1c-0.1,0.1-0.2,0.3-0.3,0.4c-1.1,1.4-2.2,2.7-3.3,4.1c-0.4,0.6-0.8,0.7-1.5,0.4c-2-0.9-2-0.9-1-2.8 c0.6-1.1,1.1-2.2,1.7-3.3c0.2-0.3,0.3-0.8,0.8-0.6c1.1,0.4,2.1,0.9,3.2,1.3C105,88.8,105.2,88.8,105.2,89.1"/><path class="st6" d="M105.2,89.1c-0.1,0.1-0.2,0.3-0.3,0.4c-1.1,1.4-2.2,2.7-3.3,4.1c-0.4,0.6-0.8,0.7-1.5,0.4c-2-0.9-2-0.9-1-2.8 c0.6-1.1,1.1-2.2,1.7-3.3c0.2-0.3,0.3-0.8,0.8-0.6c1.1,0.4,2.1,0.9,3.2,1.3C105,88.8,105.2,88.8,105.2,89.1z"/><path class="st5" d="M32.2,99.6c-0.5,0.7-0.9,1.4-1.4,1.9c-0.4,0.4-0.8-0.2-1.1-0.4c-1.7-0.9-3.3-2-5-2.9C24,97.9,24,97.6,24.4,97 c1.6-2,1.5-2,3.6-0.5c1.2,0.9,2.4,1.7,3.6,2.6C31.8,99.3,32,99.4,32.2,99.6"/><path class="st6" d="M32.2,99.6c-0.5,0.7-0.9,1.4-1.4,1.9c-0.4,0.4-0.8-0.2-1.1-0.4c-1.7-0.9-3.3-2-5-2.9C24,97.9,24,97.6,24.4,97 c1.6-2,1.5-2,3.6-0.5c1.2,0.9,2.4,1.7,3.6,2.6C31.8,99.3,32,99.4,32.2,99.6z"/><path class="st5" d="M108.9,91.5c0,0.3-0.2,0.5-0.4,0.7c-1.2,1.3-2.5,2.5-3.7,3.8c-0.3,0.4-0.6,0.3-0.9,0.1 c-0.6-0.4-1.2-0.8-1.8-1.1c-0.4-0.2-0.3-0.5-0.1-0.7c1.2-1.5,2.4-3,3.6-4.5c0.2-0.2,0.3-0.4,0.6-0.2c0.8,0.6,1.6,1.1,2.4,1.7 C108.8,91.3,108.9,91.4,108.9,91.5"/><path class="st6" d="M108.9,91.5c0,0.3-0.2,0.5-0.4,0.7c-1.2,1.3-2.5,2.5-3.7,3.8c-0.3,0.4-0.6,0.3-0.9,0.1 c-0.6-0.4-1.2-0.8-1.8-1.1c-0.4-0.2-0.3-0.5-0.1-0.7c1.2-1.5,2.4-3,3.6-4.5c0.2-0.2,0.3-0.4,0.6-0.2c0.8,0.6,1.6,1.1,2.4,1.7 C108.8,91.3,108.9,91.4,108.9,91.5z"/><path class="st5" d="M34.8,97.2c-0.4,0.3-0.8,0.5-1,0.9c-0.7,1-1.3,0.9-2.2,0.2c-1.4-1.2-2.9-2.2-4.4-3.2c-0.5-0.3-0.5-0.6-0.1-1 c1.6-1.9,1.6-1.9,3.5-0.4c1.2,1,2.4,2,3.6,3C34.4,96.7,34.5,96.9,34.8,97.2"/><path class="st6" d="M34.8,97.2c-0.4,0.3-0.8,0.5-1,0.9c-0.7,1-1.3,0.9-2.2,0.2c-1.4-1.2-2.9-2.2-4.4-3.2c-0.5-0.3-0.5-0.6-0.1-1 c1.6-1.9,1.6-1.9,3.5-0.4c1.2,1,2.4,2,3.6,3C34.4,96.7,34.5,96.9,34.8,97.2z"/><path class="st5" d="M103.4,138.8c-0.8,0.5-1.4,0.8-1.8,1.5c-0.3,0.6-0.6,0.2-0.9,0c-1.8-1.1-3.6-2.2-5.3-3.4 c-1.3-0.8-1.4-1.4-0.8-3.1C97.5,135.4,100.4,137.1,103.4,138.8"/><path class="st6" d="M103.4,138.8c-0.8,0.5-1.4,0.8-1.8,1.5c-0.3,0.6-0.6,0.2-0.9,0c-1.8-1.1-3.6-2.2-5.3-3.4 c-1.3-0.8-1.4-1.4-0.8-3.1C97.5,135.4,100.4,137.1,103.4,138.8z"/><path class="st5" d="M123,109.1c-3.5,0.2-6.8,0.4-10.1,0.5c-0.3,0-0.6,0.1-0.7-0.3c-0.1-0.5,0.2-0.6,0.6-0.7 c2.4-0.9,4.8-1.7,7.2-2.6c0.4-0.2,0.7,0,0.9,0.3C121.5,107.3,122.2,108.1,123,109.1"/><path class="st6" d="M123,109.1c-3.5,0.2-6.8,0.4-10.1,0.5c-0.3,0-0.6,0.1-0.7-0.3c-0.1-0.5,0.2-0.6,0.6-0.7 c2.4-0.9,4.8-1.7,7.2-2.6c0.4-0.2,0.7,0,0.9,0.3C121.5,107.3,122.2,108.1,123,109.1z"/><path class="st5" d="M115,98.4c0,0.5-0.3,0.7-0.6,0.8c-1.4,0.9-2.9,1.7-4.3,2.5c-0.6,0.4-0.9,0.3-1.3-0.3c-1-1.7-1-1.6,0.5-2.8 c1.1-0.8,2.2-1.6,3.3-2.4c0.4-0.3,0.7-0.3,1,0.1C114.2,97,114.8,97.6,115,98.4"/><path class="st6" d="M115,98.4c0,0.5-0.3,0.7-0.6,0.8c-1.4,0.9-2.9,1.7-4.3,2.5c-0.6,0.4-0.9,0.3-1.3-0.3c-1-1.7-1-1.6,0.5-2.8 c1.1-0.8,2.2-1.6,3.3-2.4c0.4-0.3,0.7-0.3,1,0.1C114.2,97,114.8,97.6,115,98.4z"/><path class="st5" d="M117.6,102c-0.1,0.3-0.3,0.3-0.5,0.4c-1.9,0.8-3.8,1.6-5.7,2.4c-0.4,0.2-0.7,0.1-0.9-0.3 c-0.1-0.4-0.3-0.8-0.5-1.1c-0.3-0.4-0.2-0.7,0.2-0.9c1.6-0.9,3.2-1.9,4.8-2.9c0.4-0.2,0.7-0.3,0.9,0.1c0.4,0.6,0.9,1.3,1.4,1.9 C117.5,101.8,117.6,101.9,117.6,102"/><path class="st6" d="M117.6,102c-0.1,0.3-0.3,0.3-0.5,0.4c-1.9,0.8-3.8,1.6-5.7,2.4c-0.4,0.2-0.7,0.1-0.9-0.3 c-0.1-0.4-0.3-0.8-0.5-1.1c-0.3-0.4-0.2-0.7,0.2-0.9c1.6-0.9,3.2-1.9,4.8-2.9c0.4-0.2,0.7-0.3,0.9,0.1c0.4,0.6,0.9,1.3,1.4,1.9 C117.5,101.8,117.6,101.9,117.6,102z"/><path class="st5" d="M112.1,108c-0.5-0.2-0.5-0.8-0.6-1.3c-0.1-0.4-0.5-0.9,0.1-1.1c2.1-0.9,4.1-1.8,6.2-2.6c0.6-0.3,0.7,0.3,1,0.6 c1.2,1.6,1.2,1.6-0.7,2.3c-1.7,0.6-3.5,1.2-5.2,1.9C112.7,107.8,112.5,107.9,112.1,108"/><path class="st6" d="M112.1,108c-0.5-0.2-0.5-0.8-0.6-1.3c-0.1-0.4-0.5-0.9,0.1-1.1c2.1-0.9,4.1-1.8,6.2-2.6c0.6-0.3,0.7,0.3,1,0.6 c1.2,1.6,1.2,1.6-0.7,2.3c-1.7,0.6-3.5,1.2-5.2,1.9C112.7,107.8,112.5,107.9,112.1,108z"/><path class="st5" d="M97.8,86.2c2.7,0.3,2.9,0.7,1.6,2.9c-0.5,1-1.1,1.9-1.6,2.9c-0.3,0.6-0.6,0.7-1.3,0.5 c-2.1-0.7-2.1-0.6-1.2-2.6c0.5-1.1,1-2.1,1.6-3.2C97.1,86.4,97.3,86,97.8,86.2"/><path class="st6" d="M97.8,86.2c2.7,0.3,2.9,0.7,1.6,2.9c-0.5,1-1.1,1.9-1.6,2.9c-0.3,0.6-0.6,0.7-1.3,0.5 c-2.1-0.7-2.1-0.6-1.2-2.6c0.5-1.1,1-2.1,1.6-3.2C97.1,86.4,97.3,86,97.8,86.2z"/><path class="st5" d="M56,89.3c-2,0-2,0-2.3-1.6c-0.2-1.2-0.4-2.4-0.6-3.5c-0.1-0.6,0-0.8,0.6-0.7c0.7,0.1,1.4,0.2,2.1,0.2 c0.8,0,1,0.5,1.1,1.1c0.1,1,0.3,2.1,0.5,3.1c0.3,1.4,0.3,1.5-1.1,1.5C56.1,89.3,55.9,89.3,56,89.3"/><path class="st6" d="M56,89.3c-2,0-2,0-2.3-1.6c-0.2-1.2-0.4-2.4-0.6-3.5c-0.1-0.6,0-0.8,0.6-0.7c0.7,0.1,1.4,0.2,2.1,0.2 c0.8,0,1,0.5,1.1,1.1c0.1,1,0.3,2.1,0.5,3.1c0.3,1.4,0.3,1.5-1.1,1.5C56.1,89.3,55.9,89.3,56,89.3z"/><path class="st2" d="M14.1,109.8c-1.7,0.2-2.8-0.4-3.4-1.7c-0.4-0.9-0.1-2.2,0.6-3c0.7-0.7,1.6-0.9,2.5-0.9c2,0.8,2.8,2.1,2.3,3.8 C15.8,109,15,109.4,14.1,109.8 M13.5,105.6c-1.4,0-2,0.5-2.1,1.7c-0.1,1,0.5,1.4,1.4,1.7C12.6,107.7,12.6,106.6,13.5,105.6 M15.3,108.3c-0.1-0.3-0.3-0.5-0.5-0.4c-0.3,0-0.5,0.2-0.4,0.5c0,0.2,0.2,0.4,0.5,0.4C15.1,108.7,15.2,108.6,15.3,108.3"/><path class="st9" d="M14.1,109.8c-1.7,0.2-2.8-0.4-3.4-1.7c-0.4-0.9-0.1-2.2,0.6-3c0.7-0.7,1.6-0.9,2.5-0.9c2,0.8,2.8,2.1,2.3,3.8 C15.8,109,15,109.4,14.1,109.8z M13.5,105.6c-1.4,0-2,0.5-2.1,1.7c-0.1,1,0.5,1.4,1.4,1.7C12.6,107.7,12.6,106.6,13.5,105.6z M15.3,108.3c-0.1-0.3-0.3-0.5-0.5-0.4c-0.3,0-0.5,0.2-0.4,0.5c0,0.2,0.2,0.4,0.5,0.4C15.1,108.7,15.2,108.6,15.3,108.3z"/><path class="st5" d="M43.9,130.6c0.8,2.5-0.3,5.7-2.4,7.5c-0.9,0.7-1.5,1.1-2.5,0.2c-0.4-0.4-0.5-0.5-0.2-0.9 C40.5,135.2,42.2,133,43.9,130.6"/><path class="st6" d="M43.9,130.6c0.8,2.5-0.3,5.7-2.4,7.5c-0.9,0.7-1.5,1.1-2.5,0.2c-0.4-0.4-0.5-0.5-0.2-0.9 C40.5,135.2,42.2,133,43.9,130.6z"/><path class="st5" d="M96.5,85.8c-0.9,1.8-1.7,3.5-2.5,5.3c-0.3,0.7-0.8,0.6-1.3,0.5c-2-0.4-2-0.4-1.2-2.3c0.5-1.1,1-2.2,1.4-3.3 c0.2-0.5,0.5-0.8,1.1-0.6C94.8,85.6,95.6,85.7,96.5,85.8"/><path class="st6" d="M96.5,85.8c-0.9,1.8-1.7,3.5-2.5,5.3c-0.3,0.7-0.8,0.6-1.3,0.5c-2-0.4-2-0.4-1.2-2.3c0.5-1.1,1-2.2,1.4-3.3 c0.2-0.5,0.5-0.8,1.1-0.6C94.8,85.6,95.6,85.7,96.5,85.8z"/><path class="st2" d="M125.6,110.5c0-1.9,1-3.2,2.6-3.2c1.6,0,2.8,1.3,2.7,2.9c0,1.6-1.4,2.8-2.9,2.6c-0.2,0-0.4-0.1-0.6,0 C126.6,112.2,126,111.4,125.6,110.5 M127.9,108.7c-1.7,1.4-1.9,1.9-0.9,2.9c0.1,0.1,0.2,0.3,0.4,0.3c0.2-0.1,0.2-0.3,0.2-0.5 C127.3,110.6,127.5,109.8,127.9,108.7 M129.3,111.1c0.1,0.3,0.2,0.6,0.5,0.5c0.3-0.1,0.4-0.4,0.3-0.6c0-0.2-0.1-0.4-0.4-0.4 C129.3,110.5,129.3,110.8,129.3,111.1"/><path class="st9" d="M125.6,110.5c0-1.9,1-3.2,2.6-3.2c1.6,0,2.8,1.3,2.7,2.9c0,1.6-1.4,2.8-2.9,2.6c-0.2,0-0.4-0.1-0.6,0 C126.6,112.2,126,111.4,125.6,110.5z M127.9,108.7c-1.7,1.4-1.9,1.9-0.9,2.9c0.1,0.1,0.2,0.3,0.4,0.3c0.2-0.1,0.2-0.3,0.2-0.5 C127.3,110.6,127.5,109.8,127.9,108.7z M129.3,111.1c0.1,0.3,0.2,0.6,0.5,0.5c0.3-0.1,0.4-0.4,0.3-0.6c0-0.2-0.1-0.4-0.4-0.4 C129.3,110.5,129.3,110.8,129.3,111.1z"/><path class="st5" d="M92.4,85.1c-0.8,1.8-1.5,3.6-2.3,5.3c-0.3,0.6-0.7,0.4-1.1,0.4c-2-0.4-2-0.4-1.3-2.3c0.4-1.1,0.8-2.2,1.1-3.3 c0.1-0.4,0.3-0.7,0.8-0.6C90.5,84.8,91.4,85,92.4,85.1"/><path class="st6" d="M92.4,85.1c-0.8,1.8-1.5,3.6-2.3,5.3c-0.3,0.6-0.7,0.4-1.1,0.4c-2-0.4-2-0.4-1.3-2.3c0.4-1.1,0.8-2.2,1.1-3.3 c0.1-0.4,0.3-0.7,0.8-0.6C90.5,84.8,91.4,85,92.4,85.1z"/><path class="st5" d="M83,84.2c0.3,0,0.5,0,0.7,0c1-0.1,1.1,0.3,0.8,1.1c-0.4,1.2-0.7,2.3-1,3.5c-0.2,0.9-0.6,1.3-1.6,1.2 C80,89.9,80,90,80.5,88.1c0.2-0.9,0.6-1.7,0.7-2.6C81.4,84.4,82,83.8,83,84.2"/><path class="st6" d="M83,84.2c0.3,0,0.5,0,0.7,0c1-0.1,1.1,0.3,0.8,1.1c-0.4,1.2-0.7,2.3-1,3.5c-0.2,0.9-0.6,1.3-1.6,1.2 C80,89.9,80,90,80.5,88.1c0.2-0.9,0.6-1.7,0.7-2.6C81.4,84.4,82,83.8,83,84.2z"/><path class="st5" d="M59.9,89.3c-1.1,0.3-1.5-0.3-1.7-1.3c-0.1-1.1-0.3-2.3-0.6-3.4c-0.1-0.5,0-0.7,0.5-0.6 c0.9,0.1,1.9,0.3,2.8,0.4c0.5,0.1,1.7,1.8,1.6,2.3c-0.1,0.5-0.5,0.2-0.7,0.2c-1.5,0.1-1.5,0.1-1,1.5C61.4,89.8,60.4,89.2,59.9,89.3"/><path class="st6" d="M59.9,89.3c-1.1,0.3-1.5-0.3-1.7-1.3c-0.1-1.1-0.3-2.3-0.6-3.4c-0.1-0.5,0-0.7,0.5-0.6 c0.9,0.1,1.9,0.3,2.8,0.4c0.5,0.1,1.7,1.8,1.6,2.3c-0.1,0.5-0.5,0.2-0.7,0.2c-1.5,0.1-1.5,0.1-1,1.5C61.4,89.8,60.4,89.2,59.9,89.3 z"/><path class="st2" d="M20.6,114.7c0,1.3-1,2.3-2.3,2.3c-1.2,0-2.3-1.1-2.3-2.4c0-1.2,1-2.3,2.2-2.3 C19.5,112.3,20.6,113.4,20.6,114.7"/><path class="st9" d="M20.6,114.7c0,1.3-1,2.3-2.3,2.3c-1.2,0-2.3-1.1-2.3-2.4c0-1.2,1-2.3,2.2-2.3 C19.5,112.3,20.6,113.4,20.6,114.7z"/><path class="st2" d="M110.6,136.6c1.9-0.1,3,0.7,2.9,2.4c0,1.2-0.8,2.1-2.1,2.4c-0.9,0.2-1.9-0.5-2.3-1.5c-0.1-0.2-0.1-0.3-0.2-0.5 C109,138.1,109.3,137,110.6,136.6"/><path class="st9" d="M110.6,136.6c1.9-0.1,3,0.7,2.9,2.4c0,1.2-0.8,2.1-2.1,2.4c-0.9,0.2-1.9-0.5-2.3-1.5c-0.1-0.2-0.1-0.3-0.2-0.5 C109,138.1,109.3,137,110.6,136.6z"/><path class="st2" d="M121.2,118.4c0-1.3,1-2.3,2.2-2.3c1.3,0,2.3,1.1,2.3,2.4c0,1.3-1,2.4-2.3,2.3 C122.1,120.8,121.2,119.7,121.2,118.4"/><path class="st9" d="M121.2,118.4c0-1.3,1-2.3,2.2-2.3c1.3,0,2.3,1.1,2.3,2.4c0,1.3-1,2.4-2.3,2.3 C122.1,120.8,121.2,119.7,121.2,118.4z"/><path class="st5" d="M21.3,116.3c0.6-1.6,0.2-2.8-0.5-3.9c2.1-0.3,4.1-0.2,6.1-0.3c0.4,0,0.6,0.2,0.7,0.5c0.1,0.3-0.1,0.5-0.3,0.6 C25.4,114.2,23.5,115.2,21.3,116.3"/><path class="st6" d="M21.3,116.3c0.6-1.6,0.2-2.8-0.5-3.9c2.1-0.3,4.1-0.2,6.1-0.3c0.4,0,0.6,0.2,0.7,0.5c0.1,0.3-0.1,0.5-0.3,0.6 C25.4,114.2,23.5,115.2,21.3,116.3z"/><path class="st5" d="M85.7,90.3c-1.7-0.1-1.8-0.2-1.3-1.7c0.3-1.2,0.7-2.4,1-3.5c0.2-0.7,1.3-1,2.3-0.6c0.8,0.3,0.3,0.9,0.1,1.3 c-0.4,1.3-0.8,2.6-1.3,3.8C86.4,90.1,86.2,90.5,85.7,90.3"/><path class="st6" d="M85.7,90.3c-1.7-0.1-1.8-0.2-1.3-1.7c0.3-1.2,0.7-2.4,1-3.5c0.2-0.7,1.3-1,2.3-0.6c0.8,0.3,0.3,0.9,0.1,1.3 c-0.4,1.3-0.8,2.6-1.3,3.8C86.4,90.1,86.2,90.5,85.7,90.3z"/><path class="st2" d="M32.1,138.7c-0.6,1.6-1.8,2.2-3.1,1.8c-1.1-0.4-1.7-1.8-1.4-3c0.2-0.8,0.8-1.2,1.5-1.5 C31.3,135.9,32.1,136.6,32.1,138.7 M29.3,139.8c-0.4-1.1-0.4-1.9,0.3-2.9c-0.9,0.4-1.3,0.8-1.4,1.5C28,139,28.5,139.5,29.3,139.8"/><path class="st9" d="M32.1,138.7c-0.6,1.6-1.8,2.2-3.1,1.8c-1.1-0.4-1.7-1.8-1.4-3c0.2-0.8,0.8-1.2,1.5-1.5 C31.3,135.9,32.1,136.6,32.1,138.7z M29.3,139.8c-0.4-1.1-0.4-1.9,0.3-2.9c-0.9,0.4-1.3,0.8-1.4,1.5C28,139,28.5,139.5,29.3,139.8z"/><path class="st5" d="M80.8,84.2c-0.5,1.8-1,3.6-1.5,5.3c-0.2,0.7-1,0.5-1.4,0.3c-0.5-0.2-0.1-0.6,0-0.9c0.6-1.3,1.3-2.5,2-3.7 C80.1,84.8,80.2,84.3,80.8,84.2"/><path class="st6" d="M80.8,84.2c-0.5,1.8-1,3.6-1.5,5.3c-0.2,0.7-1,0.5-1.4,0.3c-0.5-0.2-0.1-0.6,0-0.9c0.6-1.3,1.3-2.5,2-3.7 C80.1,84.8,80.2,84.3,80.8,84.2z"/><path class="st5" d="M15.1,116.1c0.7,0.9,1.4,1.8,2.9,2c-1,0.5-1.7,0.9-2.5,1.3c-0.5,0.3-0.7-0.1-0.7-0.5 C14.8,118,14.7,117,15.1,116.1"/><path class="st6" d="M15.1,116.1c0.7,0.9,1.4,1.8,2.9,2c-1,0.5-1.7,0.9-2.5,1.3c-0.5,0.3-0.7-0.1-0.7-0.5 C14.8,118,14.7,117,15.1,116.1z"/><path class="st5" d="M95.2,137.7c1.6,0.6,2.8,1.8,4.2,2.6C97.7,140,96,139.6,95.2,137.7L95.2,137.7z"/><path class="st6" d="M95.2,137.7c1.6,0.6,2.8,1.8,4.2,2.6C97.7,140,96,139.6,95.2,137.7L95.2,137.7z"/><path class="st5" d="M95.1,137.8c0,0-0.1-0.1-0.1-0.1C95.1,137.6,95.1,137.6,95.1,137.8L95.1,137.8"/><path class="st6" d="M95.1,137.8c0,0-0.1-0.1-0.1-0.1C95.1,137.6,95.1,137.6,95.1,137.8L95.1,137.8z"/><path class="st0" d="M107.4,140.5c0.1,0.3,0.1,0.6,0.2,0.9c0.3,1.3-0.1,2.5-1.1,3.3c-1,0.8-2.2,1.1-3.4,0.5 c-0.7-0.4-1.4-0.5-2.2-0.2c-3.7,1.3-7.4,0.7-11.1,0.4c-5.2-0.5-10.3-1.7-15.2-3.5c-0.2-0.1-0.4,0-0.5,0c-1.2-1.6-3.2-2.6-5.3-1.6 c-0.6,0.3-1.2,0.4-1.9,0.5c-0.4,0-0.9,0-1,0.6c-1.5,3.6-3.5,6.9-6.2,9.7c-0.5,0.6-0.2,0.9,0.4,1c0.6,0.1,1.3,0.3,2,0.3 c1.2,0.1,2.3-0.3,3.5-0.3c0.3,0,0.7,0,0.8,0.4c0.2,1.3,0.7,2.6,1.1,3.9c0.4,1.5,0.8,3,1.7,4.4c0.2-0.4,0.4-0.7,0.5-0.9 c1.2-2.4,2.1-4.9,2.9-7.5c0.3-1.1,0.7-1.1,1.7-0.8c1.7,0.5,3.5,0.7,5.3-0.2c-0.6-0.5-1.2-0.9-1.7-1.3c-2.1-1.7-3.7-3.8-4.3-6.5 c0.7-0.4,0.4-1,0.5-1.6c0.5,2.2,1.3,4.1,2.8,5.8c1.2,1.3,2.6,2.4,4.2,3.2c-0.5,0.9-1.6,1.6-2.6,1.7c-1.1,0.1-2.3,0.2-3.4,0 c-1.5-0.3-1.5-0.3-2,1.2c-0.8,2.5-1.8,4.9-3,7.3c-0.2,0.4-0.4,1-0.8,1c-0.5,0-0.7-0.5-0.9-1c-1.2-2.2-2-4.6-2.6-7.1 c-0.2-0.9-0.5-1.2-1.5-1c-1.7,0.3-3.4,0.3-5.1-0.4c-1.3-0.6-1.4-0.9-0.4-1.9c2.2-2.3,4.1-4.9,5.4-7.8c0.2-0.3,0.3-0.7,0.4-1 c0-0.1,0-0.2,0-0.4c-2.4,0.8-4.9,1.6-7.3,2.1c-4.6,0.9-9.3,1.5-14.1,1.2c-1.9-0.1-3.7-0.6-5.6-0.2c-1.9,0.4-3.7-1.9-3.3-3.9 c0.1-0.3,0.1-0.6,0.2-0.9c0.1,0,0.1,0,0.2-0.1c0.3,0.1,0.6,0.2,0.8,0.2c-0.6,2,0.1,3.4,1.7,3.6c2,0.3,3.2-1.4,2.5-3.6 c0.5,0.1,1,0.2,1.3-0.3c0,0.1,0,0.3,0,0.4c-0.1,2.4,0,2.4,2.1,1.4c2.8-1.3,5.1-3.2,5.7-6.3c0.7-3.5,0.1-7.1-2.1-10 c-1.7-2.3-4-4.1-6.5-5.6c-2.3-1.3-4.5-2.8-6.4-4.6c-0.6-0.6-1.1-1.1-2-0.5c-0.4,0.3-1,0.2-1.5,0.2c-0.4-0.3-1-0.6-0.9-1.3 c1.2,0.8,2.9,0.4,3.6-0.8c0.7-1.2,0.1-2.8-1.1-3.4c-0.8-0.4-1.6-0.1-2.5,0c0-0.3,0-0.6,0.2-0.9c1.8,0.1,2.6-1.1,3-2.7 c0.1-0.2,0.2-0.4,0.3-0.6c3.5-5.9,8.6-9.5,15-11.4c5.1-1.5,10.3-1.7,15.5-1.5c6.4,0.2,12.7,0.4,19.1,0.8c3.5,0.2,7,0.6,10.4,1.6 c3.4,1,6.7,2.4,9.3,4.9c2.7,2.6,4.5,5.8,5.9,9.3c0.1,0.3,0.1,0.7,0.5,0.6c0.9-0.3,1.7,0.1,2.6,0.3c0.2,0.3,0.4,0.6,0.6,0.9 c0.2,0.3,0.2,0.6-0.3,0.7c-1.4-1.8-3.4-1.2-4.1,0c-0.5,0.9-0.5,1.9,0.1,2.7c0.6,0.9,1.6,1.2,3.1,0.8c0.1,0.5-0.2,0.9-0.5,1.2 c-1.1,0-2.2-0.3-3.1-1.1c-1.8,2.4-4.2,4.1-6.4,6c-2.4,2-5,3.7-7.2,5.9c-2.9,3-4.9,6.3-3.1,10.8c1,2.6,2.8,4.5,5,6 c1.6,1.1,3.2,0.8,5,0.5c1-0.2,1.3-0.5,1-1.4c0.1-0.2,0.1-0.3-0.1-0.4c0-0.1,0-0.1,0-0.2c0.2-0.4,0.4-0.8,1-0.7 c-0.2,1.6,0.8,3,2.2,3.2c1.5,0.2,3.3-1.7,2.1-3.9c0.3,0,0.6-0.1,0.8-0.3C107.3,140.4,107.4,140.5,107.4,140.5 M68.2,128 c1.9,0.2,3.5-0.1,5.1-0.4c2.7-0.6,5-1.6,6.8-3.9c0.2-0.2,0.6-0.5,0.2-0.8c-0.5-0.4-0.2-0.7,0-1c2.3-3.5,2.4-7.3,1.3-11.2 c-0.1-0.3-0.2-0.6,0-0.7c0.9-0.7,0.2-1.3-0.1-1.9c-0.2-0.3-0.6-0.6-0.3-1.1c0.9,0.3,1,1.5,1.9,1.8c-0.1-0.8-0.2-0.8-0.4-1.3 c-1.5-2.8-4-4.5-6.8-5.6c-5-2.1-9.9-2.1-14.1,1.8c-2.4,2.2-4.3,4.8-4.9,8.1c-0.5,2.7-1,5.3,0.3,7.9c0.7,1.5,1.7,2.7,2.7,3.9 c2.3,2.6,5,4.7,8.5,5.3c0.2,0,0.4,0,0.8,0C68.8,128.6,68.6,128.4,68.2,128 M41.7,143.4c0.5,0.1,1,0.2,1.5,0.2 c4.5,0.5,8.8-0.2,13.2-1c4.3-0.9,8.4-2.5,12.7-3.6c0.8-0.2,1.5-0.2,2.3,0.1c5.4,2.2,10.9,4,16.7,4.8c2.2,0.3,4.4,0.7,6.8,0.4 c-0.6-0.4-1-0.7-1.4-1c-0.4-0.3-1-0.6-1.3-1.1c-1-1.7-2.4-1.9-4.3-1.8c-5.4,0.4-10.6-1.2-15.6-2.9c-1.7-0.6-3.2-0.7-4.9,0 c-6.1,2.2-12.4,2.4-18.8,1.6c-0.3,0-0.6-0.2-0.9,0.1C46,141.2,44,142.4,41.7,143.4 M53.7,112.8c0.6-0.1,1.4,0.3,1.6-0.7 c0.2-1-0.5-1.5-1.4-1.7c-0.2,0-0.3-0.1-0.5-0.2c-5.6-1.7-11.2-3.5-16.8-5.2c-2.2-0.7-2.2-0.7-3.2,1.4c-0.5,1-0.8,1.9,0.3,2.7 c0.3,0.2,0.5,0.6,0.6,0.9c0.2,0.7,0.6,0.7,1.2,0.8c3.4,0.3,6.9,0.7,10.3,1C48.4,112.3,51.1,112.5,53.7,112.8 M86.4,112.8 c0.1,0,0.2,0,0.3,0c4.1-0.5,8.2-1,12.3-1.5c2.3-0.3,4.5-0.5,6.7-0.9c1.2-0.2,1.4-0.8,0.9-1.9c-0.5-1-1.1-1.9-1.5-3 c-0.3-0.9-0.9-0.9-1.6-0.7c-3.6,1.1-7.2,2.3-10.8,3.5c-2.2,0.7-4.4,1.4-6.6,2.1c-0.8,0.3-1,0.8-0.8,1.7 C85.4,112.6,85.8,112.8,86.4,112.8 M85.8,109.9c0.8-0.2,1.8-0.6,2.9-0.9c4.8-1.5,9.5-3,14.3-4.5c1.4-0.4,1.4-0.7,0.5-1.8 c-0.6-0.7-1.2-1.4-1.8-2.1c-1.3-1.3-1.6-1.4-3.2-0.5c-4,2.1-8,4.3-12,6.4c-0.5,0.3-1,0.5-1.4,0.8c-0.6,0.4-0.8,1-0.5,1.8 C84.7,109.5,84.8,109.9,85.8,109.9 M102.7,116.6c1.5,0,3.1-1.7,3.1-4.2c0-1.1-0.5-1.5-1.5-1.3c-0.9,0.1-1.9,0.3-2.8,0.4 c-4.9,0.5-9.8,1.1-14.8,1.6c-1.2,0.1-1,1-1.1,1.8c-0.1,0.8,0.5,1,1.1,1.1C91.7,116.1,96.6,116.3,102.7,116.6 M55.2,110.1 c0.8,0,1-0.4,0.8-1.2c-0.2-0.5-0.6-0.7-1-0.9c-4.4-2.3-8.8-4.6-13.2-6.8c-3.4-1.8-3.4-1.8-5.9,1.3c-0.9,1.1-0.8,1.4,0.5,1.8 c5.3,1.7,10.7,3.3,16,5C53.3,109.7,54.2,110.1,55.2,110.1 M44.9,116.1C44.9,116.1,44.9,116.2,44.9,116.1c1.2,0,2.3-0.1,3.5-0.2 c1.9-0.2,3.8-0.3,5.7-0.5c0.5-0.1,1.1-0.2,1.1-1c0-0.7-0.4-0.9-1-1.1c-0.4-0.1-0.7-0.1-1.1-0.2c-2.9-0.2-5.7-0.5-8.6-0.8 c-3-0.3-5.9-0.6-8.9-0.8c-1.1-0.1-1.8,0.9-1.5,2c0.3,1.1,3,3.1,4.1,3C40.4,116.5,42.6,116.3,44.9,116.1 M89.3,116.6 c-1,0-1.9,0-2.9,0c-0.5,0-0.9,0.1-1.1,0.7c-0.5,1.4-0.3,1.9,1.2,2.4c2.5,0.8,5.1,1.2,7.6,2c0.8,0.3,1.8,0.9,2.8,0.1 c1.4-1,2.9-1.9,4.2-3.1c0.4-0.4,1.2-0.7,1-1.4c-0.2-0.6-1.1-0.5-1.7-0.5C96.7,116.9,93,116.7,89.3,116.6 M42.9,96.8 c0.1,0-0.1,0-0.2,0c-0.6,0.4-1.2,0.8-1.8,1.2c-1.4,0.9-1.3,1.4,0.1,2.1c2.8,1.5,5.7,3.1,8.5,4.5c2.1,1.1,4.1,2.3,6.2,3.2 c0.8,0.3,1.2-0.1,1.5-0.6c0.3-0.6,0-1-0.5-1.4c-4.3-2.9-8.6-5.9-12.9-8.8C43.6,96.9,43.3,96.7,42.9,96.8 M82.9,105.7 c0,1.2,0.8,1.6,2.1,0.9c3.8-2,7.5-4.1,11.3-6.1c0.7-0.4,1.5-0.8,2.2-1.3c0.8-0.6,0.8-1.1-0.1-1.5c-0.7-0.4-1.4-0.7-2.1-1.1 c-0.7-0.4-1.3-0.4-1.9,0.1c-0.8,0.6-1.5,1.1-2.3,1.7c-2.8,2.1-5.6,4.2-8.4,6.3C83.1,105,82.8,105.3,82.9,105.7 M68.2,93 c-0.9,0-1.8,0-2.6,0c-0.4,0-1.1,0.3-0.6,0.8c1.3,1.5,1.7,3.3,2.1,5.2c0.1,0.6,0.4,0.8,1,0.8c1.3-0.1,2.6-0.2,3.8-0.2 c0.5,0,0.7-0.3,0.9-0.7c0.6-1.7,1.6-3.2,2.5-4.7c0.4-0.7,0.3-0.8-0.4-0.9C72.6,93.1,70.4,93,68.2,93 M48.3,94.7 c-0.9,0-1.6,0.4-2.3,0.7c-0.4,0.1-1.1,0.1-1.1,0.7c0,0.6,0.4,0.9,0.9,1.2c3,2.1,5.9,4.2,8.9,6.4c0.9,0.6,1.6,1.4,2.7,1.8 c0.6,0.2,1.2,0.3,1.6-0.4c0.3-0.6,0.2-1.1-0.3-1.6c-3-2.6-5.9-5.3-8.9-7.9C49.3,95.2,49,94.6,48.3,94.7 M53.3,137.3 c-1.1-0.1-2.4-0.1-3.7-0.2c-0.7-0.1-0.7,0.6-0.8,0.9c-0.1,0.4,0.3,0.4,0.5,0.4c6.4,0.8,12.7,0.4,18.8-2c1.1-0.4,2-0.5,3.2-0.1 c4.4,1.5,8.8,2.9,13.5,3.3c1.5,0.1,3.1,0.2,4.6-0.1c0.2,0,0.5,0,0.5-0.3c0-0.3-0.2-0.5-0.5-0.5c-0.3-0.1-0.6-0.1-0.9-0.1 c-1.7,0-3.4-0.2-5.1-0.4c-4.4-0.6-8.7-1.6-12.9-3c-0.4-0.1-0.9-0.3-1.4-0.1C64,137,58.8,137.3,53.3,137.3 M87.1,137.8 c0.5,0,0.7,0.1,0.9,0c0.3-0.1,1,0.5,1-0.3c0-0.6-0.1-1.1-1.1-1.1c-5.2,0.3-10.2-1-15.1-2.7c-1.7-0.6-3.1-1.3-5.1-0.5 c-4.5,1.9-9.3,2-14.1,2c-1.1,0-2.1-0.1-3.2-0.1c-0.5,0-0.6,0.2-0.7,0.6c-0.1,0.6,0.4,0.4,0.7,0.5c1.7,0.2,3.5,0.2,5.2,0.1 c4.2-0.1,8.4-0.4,12.4-1.8c1.2-0.4,2.3-0.4,3.5,0C76.6,136.4,81.9,137.4,87.1,137.8 M52.9,115.9c-0.8,0-1.7,0.1-2.5,0.2 c-2.4,0.2-4.8,0.3-7.2,0.5c-1.2,0.1-2.4,0.2-3.6,0.4c-0.2,0-0.6-0.1-0.7,0.2c-0.1,0.4,0.2,0.5,0.5,0.7c1.1,0.7,2.2,1.5,3.3,2.2 c0.3,0.2,0.6,0.1,0.9,0.1c3.6-0.6,7.2-1.2,10.7-1.7c1-0.1,1.1-0.6,1-1.4c-0.1-0.9-0.5-1.2-1.3-1.2 C53.7,115.9,53.3,115.9,52.9,115.9 M86.9,134.6c1,0.3,1.5-0.1,1.4-1.2c0-0.9,0.5-1.8-0.4-2.6c-1.9-1.5-3.8-3.1-5.7-4.7 c-0.7-0.6-1.5-0.3-2.4,0.6c-0.6,0.6-0.2,1.1,0.2,1.7c1.3,1.7,2.9,3,4.2,4.7C84.8,133.7,85.5,135,86.9,134.6 M91.6,125.9 c0.3,0,0.5,0,0.6,0c1.3-0.5,2.1-1.6,2.9-2.6c0.2-0.3-0.1-0.6-0.5-0.7c-1.1-0.3-2.2-0.6-3.2-0.9c-1.7-0.5-3.5-1-5.2-1.5 c-1.1-0.3-1.6,0-2.1,1.3c-0.4,0.9,0.1,1.3,0.7,1.6c2,0.9,4.1,1.8,6.1,2.7C91.1,125.8,91.4,125.9,91.6,125.9 M60.9,102.3 c0.1-0.4-0.2-0.7-0.5-1c-1.6-2-3.4-3.9-4.9-5.9c-1.1-1.5-2.2-2.5-4.2-1.6c-0.4,0.2-0.9,0.1-1.1,0.6c-0.1,0.5,0.3,0.8,0.6,1.1 c1.9,1.8,3.9,3.7,5.9,5.5c0.9,0.8,1.6,1.7,2.7,2.3C60.3,103.8,60.9,103.5,60.9,102.3 M52.8,133.5c1.2-0.1,2.3,0.3,2.9-0.5 c1.5-1.8,2.8-3.8,4.2-5.7c0.4-0.6,0.3-1.1-0.2-1.6c-0.4-0.4-0.9-0.6-1.4-0.2c-2.7,2.3-5.4,4.7-8.2,7c-0.2,0.2-0.3,0.4-0.2,0.6 c0.1,0.3,0.3,0.5,0.6,0.4C51.5,133.2,52.3,133.7,52.8,133.5 M81.4,103.7c0,0.4,0.1,0.7,0.4,0.9c0.4,0.2,0.7-0.1,1-0.3 c1.4-1,2.8-2.1,4.2-3.1c2-1.5,4-3,6-4.5c0.2-0.2,0.5-0.4,0.4-0.7c-0.1-0.4-0.4-0.4-0.7-0.4c-0.5-0.1-1-0.1-1.5-0.3 c-1-0.4-1.6-0.1-2.3,0.6c-2.2,2.2-4.5,4.4-6.8,6.6C81.7,102.7,81.4,103.1,81.4,103.7 M85.6,94.2c-0.7,0-1.1,0.5-1.6,1 c-1.5,1.8-2.9,3.6-4.4,5.3c-0.4,0.5-0.9,1.1-0.4,1.8c0.5,0.7,1.5,0.8,2.2,0.1c2.2-2.2,4.4-4.4,6.7-6.5c0.3-0.3,0.6-0.6,0.4-1 c-0.2-0.4-0.5-0.5-0.9-0.5C86.9,94.3,86.2,94.2,85.6,94.2 M49.5,128.5c0.1,0.6,0.2,1.2,0.4,1.9c0.3,1.3,0.7,1.4,1.7,0.6 c2.1-1.8,4.1-3.5,6.2-5.2c0.6-0.5,1-1,0.5-1.8c-0.5-0.8-1.2-0.8-1.9-0.3c-2.1,1.3-4.2,2.6-6.2,3.9 C49.6,127.8,49.4,128.1,49.5,128.5 M83.4,123.1c-0.8,0-1,0.7-1.3,1.2c-0.3,0.4-0.1,0.9,0.3,1.3c1.9,1.5,3.8,2.9,5.8,4.4 c0.5,0.3,1,0.4,1.3-0.3c0.3-0.6,0.7-1.2,1.1-1.8c0.5-0.7,0.4-1.1-0.4-1.5c-2.1-1-4.2-2-6.3-3C83.9,123.2,83.6,123.1,83.4,123.1 M63.3,100.6c0.1-0.3-0.1-0.6-0.3-0.9c-1.3-2-2.7-4.1-4.1-6.1c-0.2-0.3-0.5-0.7-1-0.6c-0.7,0.2-1.5,0.1-2.2,0.2 c-0.7,0-0.9,0.4-0.5,1c2,2.5,4,4.9,6,7.3c0.3,0.4,0.8,0.6,1.3,0.3C63,101.7,63.4,101.3,63.3,100.6 M49.4,127.3 c0.2-0.1,0.5-0.2,0.7-0.3c0.8-0.5,1.6-1,2.4-1.5c1.2-0.7,2.4-1.4,3.6-2.2c0.6-0.4,0.9-0.8,0.5-1.6c-0.3-0.7-0.8-0.8-1.5-0.6 c-1.7,0.6-3.5,1.2-5.3,1.8c-3.4,1.1-2.8,0.5-1.3,3.7c0.1,0.2,0.2,0.3,0.3,0.4C49.1,127.1,49.3,127.2,49.4,127.3 M47,123.2 c0,0,0.1,0,0.1,0c2.8-0.7,5.5-1.8,8.3-2.8c0.5-0.2,0.4-0.7,0.4-1.1c-0.1-0.5-0.4-0.6-0.8-0.5c-1.1,0.1-2.2,0.3-3.4,0.5 c-2.3,0.4-4.5,0.7-6.8,1.1c-0.4,0.1-0.9,0-0.7,0.7C44.3,121.7,46.4,123.2,47,123.2 M80.7,93.8c-0.4,0.1-1-0.2-1.3,0.4 c-1,1.8-2,3.6-2.9,5.5c-0.4,0.7-0.1,1.1,0.7,1.4c0.8,0.3,1.3,0.1,1.8-0.5c0.7-0.8,1.5-1.7,2.2-2.5c0.8-1,1.6-1.9,2.4-2.9 c0.2-0.3,0.5-0.6,0.3-1c-0.2-0.3-0.5-0.2-0.8-0.2C82.2,94,81.5,93.9,80.7,93.8 M60.8,93.2c-0.3,0.1-0.8-0.3-1,0.2 c-0.3,0.5,0.1,0.8,0.4,1.2c1.2,1.8,2.4,3.5,3.6,5.3c0.5,0.7,1,0.9,1.8,0.5c0.7-0.4,0.8-0.9,0.6-1.6c-0.1-0.5-0.2-1-0.4-1.5 c-0.7-1.8-1.1-4.1-3.8-4.1C61.6,93.2,61.2,93.2,60.8,93.2 M83,134.4c0.4-0.1,0.8,0.2,1-0.2c0.1-0.2,0-0.4-0.2-0.6 c-1.6-1.8-3.2-3.7-4.9-5.4c-0.8-0.9-1.5,0.1-2.2,0.5c-0.6,0.4-0.4,0.9-0.1,1.5c0.6,1,1.3,2.1,1.9,3.1c0.1,0.2,0.4,0.3,0.5,0.3 C80.4,133.9,81.8,134.2,83,134.4 M58.1,133.3c0.7-0.1,1.5,0.2,2.2-0.5c1-1.2,1.7-2.5,2.2-3.9c0.3-0.9-0.4-1.6-1.3-1.4 c-0.5,0.1-0.9,0.4-1.2,0.9c-0.9,1.3-1.9,2.6-2.8,3.9c-0.2,0.3-0.7,0.6-0.4,1.1c0.2,0.3,0.7,0.1,1,0.1 C57.8,133.3,57.9,133.3,58.1,133.3 M77.7,93.6c-0.9-0.1-1.5,0.2-1.9,1c-0.6,1.2-1.3,2.4-2,3.6c-0.3,0.5-0.7,1.1-0.1,1.6 c0.6,0.6,1.9,0.3,2.3-0.4c0.8-1.5,1.7-3.1,2.4-4.7C78.8,94.1,78.6,93.5,77.7,93.6 M65.7,130.1c0.2-0.8-0.4-1.2-1.1-1.3 c-0.6-0.2-1.3-0.1-1.7,0.7c-0.4,0.9-1,1.7-1.5,2.6c-0.1,0.2-0.3,0.3-0.2,0.6c0.1,0.3,0.4,0.2,0.6,0.2c0.6-0.1,1.3-0.2,1.9-0.3 C65.4,132.2,65.7,131.8,65.7,130.1 M74.5,129.4c-0.4,0.2-1.3,0.1-1.3,0.9c0,0.8,0.3,1.7,1,2c0.7,0.3,1.5,0.5,2.3,0.7 c0.3,0.1,0.6,0.3,0.8,0c0.1-0.2,0-0.5-0.1-0.7c-0.5-0.9-1.1-1.7-1.7-2.4C75.3,129.5,75,129.4,74.5,129.4 M66.3,130.9 c-0.1,0.2-0.1,0.5,0.1,0.7c0.3,0.2,0.5,0,0.7-0.1c0.5-0.2,0.9-0.5,1.3-0.7c0.3-0.2,0.5-0.6,0.2-0.7c-0.5-0.2-1.1-0.3-1.7-0.3 C66.6,129.8,66.3,130.3,66.3,130.9 M71.5,129.9c-0.2,0.4-1.1,0-1,0.6c0.1,0.9,1.1,0.8,1.7,1.1c0.3,0.2,0.5-0.1,0.5-0.5 C72.8,130.2,72.1,130.2,71.5,129.9"/><path class="st0" d="M29.6,108.3c-0.2,0.3-0.3,0.6-0.2,0.9c-0.1,0.1-0.2,0.3-0.3,0.4c0,0.1-0.1,0.1-0.1,0.2l0,0 c-0.1,0.1-0.1,0.2-0.2,0.3c-0.5,1.2-0.2,2.3,0.7,3.3c-0.1,0.7,0.4,1,0.9,1.3c0.9,1.4,2.1,2.3,3.3,3.2c2.8,2.1,5.7,4,8.3,6.5 c4.7,4.6,4.3,11.6-1.1,15.3c-0.4,0.5-0.8,0.4-1.3,0.3l0,0c-0.1-0.1-0.1-0.2-0.2-0.2c-1.6-1.3-2.5-1.3-4,0.2 c-0.3-0.1-0.6-0.2-0.8-0.2c0.4-1.1,1.3-1.6,2.4-1.8c0.3-0.1,0.6,0,0.8-0.3c1.9-2.6,3.9-5.2,5.8-7.8c0.3-0.4-0.1-2.2-0.6-2.3 c-0.6-0.2-0.8,0.5-1.1,0.9c-3,3.5-5.9,7-8.8,10.5c-0.3-0.1-0.6-0.2-0.9-0.2c0-2.1-0.8-2.8-2.9-2.7c0.3-0.4,0.2-0.7-0.3-0.9 c-1.7-2.9-4-5.3-6.7-7.2c-2.3-1.6-4.6-3.3-6.5-5.3c-2-2.2-2.4-4.6-1.4-7.4c0.5-1.3,1.2-2.3,2.1-3.5c-0.5-0.1-1-0.2-1.4-0.3 c-1-0.1-1.3-0.6-0.9-1.5c0.8-0.4,1.7-0.8,2-1.8c0.6-1.7-0.2-3-2.3-3.8c0.4,0,0.9-0.1,1.2-0.5c0.3,0.1,0.6,0.2,0.8,0.4 c0.6,0.7,1,0.4,1.4-0.2c0.7-0.9,1.4-1.7,2.2-2.6c3.8-4.3,7.2-8.9,11.6-12.6c3.3-2.8,6.8-5.2,11.3-5.8c4.1-0.5,8.2-1,12.3-0.5 c2,0.2,3.9,0.5,5.9,0.7c-0.9-2.3-1.8-3-4-3.2c-0.2,0-0.4-0.1-0.6-0.1c0.1-0.2,0.2-0.5,0.2-0.7c0.2,0,0.4,0,0.7,0 c0.1,0.1,0.1,0.1,0.2,0c0.2,0,0.3,0,0.5,0c0.4,0.4,0.9,0.1,1.3,0.2l0,0c0.1,0.1,0.1,0.1,0.2,0.2l0,0c0.1,0.1,0.1,0.1,0.2,0.2l0,0 c0.1,0.1,0.1,0.1,0.2,0.2c0.1,0.1,0.2,0.1,0.2,0.2c0,0.3,0,0.6,0.4,0.7l0.1,0.1c0,0.1,0,0.1,0.1,0.2c0.1,0.2,0.2,0.3,0.3,0.5 c0.1,0.1,0.1,0.1,0.2,0.2l0,0c0,0.3,0,0.6,0.4,0.7l0,0c0,0.3,0.1,0.4,0.4,0.5c1,1.7,2.2,3.2,2.7,5.4c-0.9-0.4-1.6-0.8-2.5-0.6 c0.3,0.6,0.1,1.5,1.2,1.5c1.4,0.1,2.9,0.2,4.3,0.2c1.4,0,1.5-0.1,1-1.5c0-0.1-0.1-0.2-0.1-0.3c-1.3-2.3-2.7-4.5-4.5-6.5 c-1.1-1.2-2.1-2.5-3.7-3c0.1-0.2,0.1-0.4,0.2-0.6c0.1,0,0.2,0,0.2,0c0.7,0.3,1.6,0.4,2.1,1.1c2.3,2.1,4.4,4.4,6,7.4 c1.1-4.5-0.7-7.9-2.5-11.4c0.8,0.7,1.5,1.5,2.1,2.3c0.1,0.2,0.3,0.4,0.5,0.3c0.3-0.1,0.2-0.4,0.2-0.6c0.3-2.3-0.2-4.4-1.6-6.3 c-0.3-0.4-0.5-1-0.8-1.5c0.8-0.2,1,0.7,1.6,1c0.2,0.1,0.3,0.6,0.7,0.4c0.3-0.1,0.2-0.5,0.2-0.8c0-1.9,0-3.8,0-5.6 c0-0.8,0.1-1.6,0.2-2.4c0.1,0,0.2,0,0.3,0c0.1,1.4,0.2,2.8,0.2,4.2c0.1,1.2,0.1,2.4,0.2,3.6c0,0.5,0.2,0.8,0.7,0.3 c0.7-0.6,1.5-1.2,2.4-1.5c0,0.2,0,0.3,0,0.3c-0.2,0.3-0.4,0.6-0.7,0.9c-2.2,2-2.7,4.5-2.4,7.2c0,0.3,0,0.7,0.3,0.8 c0.3,0.1,0.4-0.2,0.6-0.4c0.6-0.5,1.2-1.1,1.8-1.6c-0.1,0.6-0.4,1-0.6,1.4c-0.6,1.1-1.4,2-1.8,3.2c-0.5,1.4-0.1,2.8-0.1,4.1 c0,0.7-0.3,1.7,0.2,2c0.5,0.3,1.1-0.6,1.7-0.9c0.1,0,0.2-0.1,0.3-0.1l0,0c0.1,0.2,0,0.4-0.1,0.5c-0.6,0.9-1.2,1.8-1.7,2.8 c-0.5,0.9-0.3,1.2,0.6,1.3c1.5,0.1,3,0.1,4.5,0.2c0.7,0,1-0.2,1.3-0.9c0.9-2.2,2-4.2,3.4-6.1c0.3,0,0.6,0,0.9,0 c0,0.2,0.2,0.2,0.3,0.2c4.2,0.1,8.3,0.6,12.4,1.3c3.7,0.6,7.2,1.5,10.6,3c2.9,1.3,5.4,3.2,7.6,5.5c2.3,2.4,4.1,5.2,6,7.8 c2.1,2.9,4,5.8,6.4,8.4c0,0.8,1,0.8,1.1,1.4c0.4,0.9,1,1.7,1.8,2.3c0.2,0.5,1,0.9,0,1.3c-1.5,0.1-2.2,0.4-2.9,1 c2.3,1.3,3,3.3,1.8,5.7c-0.5,0.9-1,1.8-1.8,2.6c-2.3,2.4-4.9,4.4-7.6,6.3c-1.6,1.2-3.2,2.4-4.3,4.1c-0.3,0.5-0.8,0.9-0.6,1.6 c-0.6,0.2-0.7,0.9-1.3,1.1c-1.3,0.5-1.7,1.5-1.7,2.8c-0.3,0.2-0.6,0.4-0.9,0.7c0-0.5-0.1-1-0.1-1.6c0-0.5-0.2-0.7-0.6-0.9 c-3.8-2-7.6-4-11.3-6c-0.4-0.2-0.8-0.5-1,0.2c-0.2,0.5-0.7,1.1,0.2,1.6c3.5,1.9,6.8,4.2,10.5,5.7c0.7,0.3,1.3,0.7,1.6,1.4 c-0.2,0.2-0.5,0.3-0.8,0.3c-1.6-1.6-3.1-1.4-4.3,0.7c-0.6-0.1-0.8,0.3-1,0.7c0-0.4-0.3-0.4-0.6-0.5c-0.8-0.1-1.6-0.3-2.4-0.5 c-3.6-1-5.3-3.8-4.7-7.6c0.5-3,2.3-4.9,4.6-6.6c3.3-2.4,6.4-4.9,9.5-7.4c1.2-0.9,2.1-2.1,2.5-3.6c0.4-0.3,0.7-0.6,0.5-1.2 c1.3-1.1,1.5-1.8,0.9-3.5c0.5-0.1,0.5-0.4,0.3-0.7c-0.2-0.3-0.4-0.6-0.6-0.9c-0.6-2.4-1.5-4.8-2.8-6.9c-3.2-5.4-8.2-8.1-14-9.7 c-5.9-1.6-11.8-2.2-17.9-2.2c-6.2,0-12.4-0.5-18.7-0.7c-7.2-0.1-13.9,1.6-19.8,5.8c-3.4,2.3-6.4,5-7.9,9 C29.8,105.9,29.2,107,29.6,108.3 M95.2,137.7c0-0.1-0.1-0.2-0.2-0.1C95,137.7,95.1,137.7,95.2,137.7c0.8,1.9,2.5,2.2,4.2,2.6 C97.9,139.5,96.7,138.3,95.2,137.7 M18.8,124c1,1,2,1.6,3,2.4c0.5,0.4,0.7,0.3,1.1-0.1c2.7-2.6,5.5-5.1,8.2-7.7 c0.5-0.5,0.7-0.8,0-1.3c-0.3-0.2-0.6-0.5-0.8-0.8c-0.3-0.4-0.6-0.4-1-0.1C25.9,119,22.4,121.5,18.8,124 M29.2,115.4 c0-0.6-1.3-1.7-1.7-1.5c-3.9,2-7.7,4.1-11.6,6.1c-0.6,0.3-0.5,0.6-0.2,1c0.6,0.7,1.2,1.3,1.8,2c0.4,0.4,0.7,0.4,1.2,0.1 c3.3-2.4,6.6-4.7,9.9-7.1C28.9,115.9,29.2,115.7,29.2,115.4 M97.9,128.3c-0.5,0.5-1,1-1.5,1.4c-0.6,0.5-0.7,0.8,0.2,1.2 c3.5,1.8,6.9,3.6,10.4,5.5c0.9,0.5,1.6,0.9,2.3-0.2c0.1-0.2,0.4-0.3,0.7-0.4c0.5-0.1,0.8-0.4,0.8-0.9c0-0.6-0.5-0.6-0.8-0.7 c-3.8-1.9-7.5-3.8-11.3-5.6C98.4,128.5,98.2,128.4,97.9,128.3 M37.5,122c-0.4-0.6-1.2-0.8-1.7-1.3c-0.5-0.4-0.8,0-1.1,0.3 c-2.3,2.3-4.6,4.6-6.9,7c-0.5,0.6-1.5,1.1-1.5,1.7c-0.1,0.7,1,1.2,1.4,1.9c0.4,0.7,0.8,0.7,1.3,0.1c2.7-3,5.4-6,8.1-9 C37.2,122.4,37.4,122.3,37.5,122 M27.7,108.5c0.4,0.1,0.6,0.1,0.7-0.3c0-0.6,0.1-1.2,0.3-1.8c0.1-0.5,0-0.6-0.4-0.7 c-2.6-1-5.2-2-7.8-2.9c-0.4-0.2-0.8-0.1-1.1,0.3c-0.6,0.8-1.3,1.5-1.9,2.3c-0.6,0.8-0.4,1.3,0.5,1.5 C21.2,107.4,24.5,107.9,27.7,108.5 M33.5,137.3c0-0.1,0.2-0.3,0.3-0.5c2.7-3.2,5.4-6.5,8.2-9.7c0.8-1-0.3-1.3-0.7-1.9 c-0.5-0.6-0.8-0.4-1.2,0.1c-2.5,2.9-5,5.8-7.6,8.6c-0.8,0.9-1.2,1.5,0,2.4c0.2,0.2,0.3,0.5,0.5,0.8C33,137.2,33.1,137.3,33.5,137.3 M107.7,120.8c0.5,0.2,0.9,0.4,1.3,0.6c3,1.2,6,2.4,9,3.7c2.5,1,2.5,1.1,4.4-0.8c0.4-0.4,0.5-0.6-0.1-0.8 c-4.1-1.4-8.1-2.9-12.2-4.3c-0.3-0.1-0.6-0.1-0.8,0.1C108.8,119.8,108.3,120.3,107.7,120.8 M116.4,128.9c-0.5-0.2-0.9-0.4-1.3-0.6 c-3.2-1.3-6.4-2.4-9.5-3.8c-1.4-0.6-2.3-0.4-3.3,0.6c-0.5,0.4-0.5,0.6,0.1,0.9c3.6,1.6,7.1,3.2,10.7,4.8c0.3,0.1,0.6,0.3,0.9,0.1 C114.7,130.2,115.5,129.6,116.4,128.9 M40,124.2c-0.2-0.5-0.6-0.7-0.9-1c-0.6-0.7-1.1-0.6-1.7,0.1c-2.5,2.9-5,5.7-7.6,8.5 c-0.9,1-0.8,1.6-0.1,2.5c0.5,0.7,0.9,0.7,1.4,0.1c2.8-3.2,5.6-6.4,8.5-9.6C39.7,124.6,39.8,124.4,40,124.2 M104.7,123.4 c3.6,1.4,7.3,2.8,10.8,4.4c1.4,0.6,2.4,0.4,3.5-0.6c0.5-0.5,0.6-0.7-0.2-1c-3.2-1.3-6.5-2.4-9.6-3.9c-1.9-0.9-3.2-0.6-4.4,0.9 C104.8,123.1,104.8,123.1,104.7,123.4 M98.7,127.8c0.4,0.2,0.7,0.4,1,0.6c3.2,1.6,6.4,3.2,9.6,4.8c2,1,2,1,3.2-0.8 c0.3-0.4,0.3-0.6-0.2-0.9c-3.6-1.6-7.3-3.3-10.9-4.9c-0.4-0.2-0.8-0.2-1.1,0.1C99.8,126.9,99.3,127.3,98.7,127.8 M34.6,120 c-0.6-0.4-1.1-0.9-1.7-1.3c-0.4-0.3-0.7,0-1,0.3c-2.5,2.3-4.9,4.6-7.4,6.9c-1.4,1.3-1.4,1.2,0,2.5c0.7,0.6,1.2,0.6,1.8,0 c2.5-2.6,5.1-5.2,7.7-7.7C34.2,120.5,34.4,120.3,34.6,120 M124.3,121.9c-0.1,0-0.2-0.1-0.3-0.1c-2.3,0.1-3.4-0.6-3.9-2.9 c-0.1-0.6-0.5-0.6-0.8-0.7c-2.1-0.6-4.2-1.2-6.4-1.8c-1.7-0.5-1.7-0.4-2.5,1.1c-0.3,0.6-0.3,0.9,0.4,1.1c3.9,1.3,7.8,2.7,11.7,4.1 C123.5,123.1,124,122.8,124.3,121.9 M126.1,113.3c-0.6-0.8-1.1-1.6-1.5-2.4c-0.3-0.6-1-1.1-1.9-1c-3,0.3-6,0.4-9,0.6 c-0.3,0-1.1-0.4-1,0.4c0.1,0.6-0.2,1.4,1,1.5c3.4,0.3,6.8,0.7,10.2,1C124.6,113.5,125.3,113.6,126.1,113.3 M15.4,110.5 c1.6,0.1,2.8,1.1,4.3,1c2.2-0.1,4.4-0.1,6.6-0.1c0.9,0,1.7-1.1,1.5-1.9c-0.1-0.2-0.2-0.2-0.4-0.3c-3.1-0.5-6.3-1.1-9.4-1.6 c-0.4-0.1-0.7,0-0.8,0.5C16.9,109,16.2,109.7,15.4,110.5 M23.4,98.4c-0.2,0.2-0.4,0.3-0.6,0.5c-0.6,0.7-1.2,1.5-1.9,2.2 c-0.6,0.6-0.4,0.9,0.3,1.1c1.9,0.7,3.7,1.4,5.6,2.1c2.1,0.8,2,0.8,3-1.2c0.3-0.6,0.2-0.8-0.3-1.2c-1.9-1.1-3.7-2.2-5.6-3.3 C23.8,98.6,23.6,98.5,23.4,98.4 M40.7,84.4c-0.9,0.3-1.9,0.5-2.8,0.9c-0.4,0.2-0.8,0.6-0.3,1.1c1,1.4,2,2.8,3,4.1 c1.4,1.9,1.4,1.9,3.6,1.1c0.7-0.3,0.8-0.5,0.5-1.2c-1.1-1.8-2.1-3.7-3.1-5.5C41.3,84.5,41.1,84.3,40.7,84.4 M32.6,88.9 c-0.1,0.1-0.3,0.1-0.4,0.3c-0.7,0.6-1.4,1.2-2.1,1.7c-0.6,0.5-0.5,0.9,0.1,1.4c1.1,0.9,2.2,1.8,3.3,2.7c2.1,1.8,2.1,1.7,4.2,0.1 c0.4-0.3,0.4-0.5,0.1-0.8c-1.5-1.6-3-3.3-4.5-5C33.1,89.1,33,88.9,32.6,88.9 M123.9,114.2c-3.3-0.3-6.4-0.6-9.5-1 c-1.3-0.2-1.8,0.2-2.3,1.3c-0.3,0.8-0.1,0.8,0.5,1c2,0.6,4,1.1,6,1.7c0.9,0.3,1.7,0.4,2.1-0.7c0.2-0.5,0.7-0.7,1.1-1 C122.5,115.2,123.1,114.7,123.9,114.2 M42.1,84.2c0.9,1.6,1.7,3,2.5,4.5c1.3,2.3,1.3,2.2,3.7,1.5c0.5-0.2,0.6-0.4,0.4-0.9 c-0.5-1.7-1.1-3.5-1.6-5.3c-0.1-0.5-0.4-0.7-0.9-0.6C44.9,83.8,43.5,83.8,42.1,84.2 M36.2,86.3c-0.7,0.4-1.4,1-2.1,1.4 c-0.6,0.4-0.6,0.7-0.1,1.2c1.2,1.2,2.3,2.5,3.4,3.8c1.4,1.5,1.4,1.5,3.2,0.5c0.6-0.3,0.7-0.6,0.3-1.1c-1.3-1.8-2.6-3.6-4-5.4 C36.8,86.6,36.6,86.3,36.2,86.3 M112.6,95.1c-0.1-0.1-0.2-0.3-0.3-0.4c-0.6-0.8-1.3-1.5-2.1-2.2c-0.4-0.4-0.7-0.4-1.1,0 c-1.1,1.1-2.2,2.2-3.3,3.3c-0.7,0.7-1,1.3,0.1,1.9c0.4,0.2,0.7,0.6,0.9,0.9c0.2,0.3,0.4,0.4,0.8,0.1c1.5-1.1,3.1-2.2,4.6-3.3 C112.4,95.5,112.6,95.4,112.6,95.1 M50.2,83.3c-0.4,0-1.1,0.1-1.8,0.1c-0.5,0-0.7,0.1-0.5,0.7c0.3,1,0.6,2.1,1,3.1 c0.3,0.8,0.2,2,0.9,2.5c0.7,0.5,1.8-0.2,2.7-0.1c0.7,0.1,0.9-0.3,0.8-1c-0.2-1.2-0.5-2.4-0.7-3.6C52.2,83,52.6,83.3,50.2,83.3 M105.2,89.1c0-0.3-0.2-0.3-0.3-0.4c-1-0.5-2.1-0.9-3.2-1.3c-0.5-0.2-0.6,0.3-0.8,0.6c-0.6,1.1-1.2,2.2-1.7,3.3 c-1,1.9-1,1.9,0.9,2.8c0.7,0.3,1,0.2,1.5-0.4c1.1-1.4,2.2-2.7,3.3-4.1C105,89.4,105.1,89.2,105.2,89.1 M32.2,99.6 c-0.2-0.2-0.4-0.3-0.6-0.5c-1.2-0.9-2.4-1.7-3.6-2.6C26,95,26,95,24.4,97c-0.4,0.6-0.4,0.8,0.2,1.2c1.7,0.9,3.3,2,5,2.9 c0.3,0.2,0.7,0.8,1.1,0.4C31.3,101,31.7,100.3,32.2,99.6 M108.9,91.5c0-0.1-0.1-0.2-0.2-0.3c-0.8-0.6-1.6-1.1-2.4-1.7 c-0.3-0.2-0.5,0-0.6,0.2c-1.2,1.5-2.4,3-3.6,4.5c-0.2,0.3-0.3,0.5,0.1,0.7c0.6,0.4,1.2,0.7,1.8,1.1c0.4,0.2,0.6,0.3,0.9-0.1 c1.2-1.3,2.5-2.6,3.7-3.8C108.7,92,108.9,91.8,108.9,91.5 M34.8,97.2c-0.3-0.3-0.4-0.4-0.6-0.6c-1.2-1-2.4-2-3.6-3 c-1.9-1.6-1.9-1.5-3.5,0.4c-0.4,0.5-0.4,0.7,0.1,1c1.5,1,3,2.1,4.4,3.2c0.9,0.8,1.5,0.8,2.2-0.2C34.1,97.7,34.5,97.5,34.8,97.2 M103.4,138.8c-3-1.7-5.9-3.4-8.8-5c-0.6,1.6-0.4,2.2,0.8,3.1c1.8,1.1,3.5,2.3,5.3,3.4c0.3,0.2,0.6,0.6,0.9,0 C102,139.6,102.6,139.3,103.4,138.8 M123,109.1c-0.8-1-1.5-1.9-2.1-2.7c-0.2-0.3-0.5-0.5-0.9-0.3c-2.4,0.9-4.8,1.7-7.2,2.6 c-0.3,0.1-0.7,0.2-0.6,0.7c0.1,0.4,0.4,0.4,0.7,0.3C116.2,109.5,119.5,109.3,123,109.1 M115,98.4c-0.2-0.8-0.9-1.4-1.4-2 c-0.3-0.4-0.5-0.5-1-0.1c-1.1,0.8-2.2,1.6-3.3,2.4c-1.6,1.1-1.5,1.1-0.5,2.8c0.4,0.6,0.7,0.7,1.3,0.3c1.4-0.9,2.9-1.7,4.3-2.5 C114.7,99,115.1,98.9,115,98.4 M117.6,102c-0.1-0.1-0.1-0.3-0.2-0.4c-0.5-0.6-0.9-1.3-1.4-1.9c-0.3-0.4-0.6-0.3-0.9-0.1 c-1.6,1-3.2,1.9-4.8,2.9c-0.5,0.3-0.5,0.5-0.2,0.9c0.2,0.3,0.4,0.7,0.5,1.1c0.2,0.5,0.4,0.5,0.9,0.3c1.9-0.8,3.8-1.6,5.7-2.4 C117.3,102.4,117.6,102.3,117.6,102 M112.1,108c0.3-0.1,0.6-0.2,0.8-0.3c1.7-0.6,3.5-1.2,5.2-1.9c1.8-0.7,1.9-0.7,0.7-2.3 c-0.2-0.3-0.3-0.9-1-0.6c-2.1,0.9-4.1,1.8-6.2,2.6c-0.7,0.3-0.2,0.8-0.1,1.1C111.6,107.2,111.6,107.8,112.1,108 M97.8,86.2 c-0.5-0.2-0.7,0.2-0.8,0.6c-0.5,1.1-1,2.1-1.6,3.2c-0.9,2-0.9,1.9,1.2,2.6c0.7,0.2,1,0.1,1.3-0.5c0.5-1,1-2,1.6-2.9 C100.6,86.8,100.4,86.5,97.8,86.2 M56,89.3c-0.1,0,0.1,0,0.3,0c1.4,0,1.4-0.1,1.1-1.5c-0.2-1-0.4-2-0.5-3.1 c-0.1-0.7-0.3-1.1-1.1-1.1c-0.7,0-1.4-0.1-2.1-0.2c-0.6-0.1-0.7,0.2-0.6,0.7c0.2,1.2,0.4,2.3,0.6,3.5C54.1,89.4,54.1,89.4,56,89.3 M43.9,130.6c-1.8,2.4-3.4,4.6-5.1,6.8c-0.3,0.4-0.2,0.5,0.2,0.9c1,0.9,1.7,0.5,2.5-0.2C43.7,136.3,44.8,133.2,43.9,130.6 M96.5,85.8c-0.9-0.2-1.7-0.3-2.5-0.5c-0.6-0.2-0.9,0.1-1.1,0.6c-0.4,1.1-0.9,2.2-1.4,3.3c-0.8,1.9-0.8,1.9,1.2,2.3 c0.5,0.1,1,0.2,1.3-0.5C94.8,89.4,95.6,87.7,96.5,85.8 M92.4,85.1c-1-0.2-1.9-0.3-2.8-0.5c-0.5-0.1-0.7,0.2-0.8,0.6 c-0.4,1.1-0.7,2.2-1.1,3.3c-0.6,1.9-0.6,1.9,1.3,2.3c0.4,0.1,0.8,0.3,1.1-0.4C90.9,88.7,91.7,87,92.4,85.1 M83,84.2 c-1.1-0.3-1.6,0.2-1.8,1.4c-0.2,0.9-0.5,1.7-0.7,2.6C80,90,80,89.9,81.9,90c1,0.1,1.4-0.3,1.6-1.2c0.3-1.2,0.6-2.4,1-3.5 c0.3-0.9,0.2-1.2-0.8-1.1C83.6,84.2,83.4,84.2,83,84.2 M59.9,89.3c0.5-0.1,1.6,0.5,1-0.9c-0.6-1.4-0.5-1.4,1-1.5 c0.2,0,0.6,0.2,0.7-0.2c0.1-0.5-1.1-2.2-1.6-2.3c-0.9-0.2-1.9-0.3-2.8-0.4c-0.5-0.1-0.6,0.1-0.5,0.6c0.2,1.1,0.4,2.3,0.6,3.4 C58.3,89,58.7,89.6,59.9,89.3 M20.6,114.7c0-1.3-1.1-2.4-2.4-2.4c-1.2,0-2.2,1.1-2.2,2.3c0,1.3,1.1,2.4,2.3,2.4 C19.6,117,20.6,116,20.6,114.7 M121.2,118.4c0,1.4,0.9,2.4,2.2,2.5c1.3,0,2.3-1,2.3-2.3c0-1.3-1-2.4-2.3-2.4 C122.1,116.1,121.2,117,121.2,118.4 M21.3,116.3c2.2-1.1,4.1-2.1,6-3.1c0.2-0.1,0.4-0.3,0.3-0.6c-0.1-0.4-0.3-0.5-0.7-0.5 c-2,0.1-4,0-6.1,0.3C21.5,113.5,21.9,114.7,21.3,116.3 M85.7,90.3c0.5,0.2,0.7-0.2,0.9-0.7c0.4-1.3,0.9-2.5,1.3-3.8 c0.1-0.4,0.7-1-0.1-1.3c-1-0.4-2.1-0.1-2.3,0.6c-0.4,1.2-0.7,2.4-1,3.5C83.9,90.1,84,90.2,85.7,90.3 M80.8,84.2 c-0.7,0.1-0.8,0.6-1,0.9c-0.7,1.2-1.3,2.5-2,3.7c-0.1,0.3-0.6,0.7,0,0.9c0.4,0.2,1.2,0.4,1.4-0.3C79.9,87.8,80.3,86,80.8,84.2 M15.1,116.1c-0.4,0.9-0.3,1.9-0.3,2.8c0,0.4,0.1,0.8,0.7,0.5c0.8-0.4,1.5-0.8,2.5-1.3C16.5,117.9,15.9,117,15.1,116.1"/><path class="st0" d="M108.1,140c0.3-0.2,0.6-0.5,0.9-0.7c0.1,0.2,0.2,0.3,0.2,0.5c0.4,1,1.4,1.7,2.3,1.5c1.3-0.3,2-1.1,2.1-2.4 c0-1.7-1-2.5-2.9-2.4c0.6-0.2,0.7-0.9,1.3-1.1c0.6,0.3,1.3,0.9,1.8,0.7c0.6-0.2,1-1,1.5-1.6c0.3-0.3,0.6-0.6,0.9-0.9 c3-3.1,6.6-5.5,10.1-8c1.5-1.1,2.7-2.4,3.6-4.1c1.5-2.8,1.6-6-2.4-7.6c1-0.4,0.3-0.9,0-1.3c0.2-0.1,0.4,0,0.6,0 c1.6,0.2,2.9-1,2.9-2.6c0-1.6-1.2-2.9-2.7-2.9c-1.6,0-2.7,1.2-2.6,3.2c-0.1-0.7-1.1-0.7-1.1-1.4c0.3-0.5,0.6-1.1,1-1.5 c0.5-0.5,0.3-0.8-0.1-1.2c-1.2-1.2-2.3-2.6-3.4-4c-2.6-3.2-4.8-6.8-7.3-10.1c-5.1-6.7-11.7-10.4-20-10.7c-3.3-0.1-6.6-0.2-9.8-0.4 c-1.6-0.1-2.9,0-3.7,1.6c-0.3,0-0.6,0-0.9,0c0.6-0.9,1.3-1.9,2-2.9c-3.3,0.3-6.3,1.4-9,3.2c0.1-1.1,0.1-1.2,0.5-1.9 c1.8-3.1,4.4-5.5,7.3-7.6c0.3-0.2,0.7-0.3,0.6-0.7c-0.1-0.3-0.5-0.4-0.8-0.5c-1.5-0.5-3-0.6-4.5-0.5c-0.7,0-1,0-0.8-0.9 c0.5-2.4,1-4.8,1.2-7.2c0.1-0.9-0.2-1-0.9-0.8c-1.2,0.4-2.3,1.1-3.5,1.6c-0.4-3.2-1.6-5.9-3.5-8.2c-0.5-0.6-0.8-0.8-1.4,0 c-1.5,2-2.7,4-3,6.6c-1.1-0.9-2.1-1.6-3.2-2.5c-0.2,1.8-0.2,3.3-0.5,4.8c-0.4,2.1-0.3,3.9,1.4,5.6c-0.7-0.1-1.2-0.1-1.6-0.1 c-1.3-0.2-2.6-0.2-3.8,0.1c-0.2,0-0.5,0.1-0.6,0.3c-0.1,0.2,0.1,0.5,0.3,0.5c0.8,0.3,1.2,1.1,1.8,1.6c0.1,0.1,0.2,0.2,0.3,0.3l0,0 c0,0.2,0.1,0.2,0.2,0.2l0,0c0.2,0.2,0.3,0.4,0.5,0.6l0.5,0.5c0.2,0.2,0.4,0.4,0.6,0.6c0.1,0.1,0.1,0.1,0.2,0.2 c0.1,0.1,0.2,0.3,0.4,0.4c0.6,0.9,1.3,1.7,1.5,2.7c-0.6-0.7-1.4-0.8-2.1-1.1c0.2-0.1,1,0.3,0.4-0.5c-1.5-2-3.3-3.6-5.2-5.1 c-1-0.8-1-1,0.2-1.6c1.5-0.7,3-0.4,4.7-0.5c-1.2-2-0.3-4-0.2-6c0.1-1.2,0.1-2.5,0.3-3.7c0-0.3-0.1-0.7,0.3-0.8 c0.3-0.1,0.6,0.1,0.9,0.4c0.6,0.5,1.2,0.9,1.7,1.4c0.5,0.4,0.6,0.4,0.9-0.3c0.7-2.2,2-4,3.5-5.8c0.5-0.6,0.7-0.4,1.1,0 c2,2.1,3.5,4.5,4.1,7.4c0.2,0.8,0.5,0.9,1.2,0.5c0.9-0.5,1.8-0.7,2.8-1c0.9-0.3,1,0.1,1,0.8c-0.1,2.4-0.5,4.7-1,7 c-0.2,1.1,0,1.3,1,1.3c1.6,0,3.2,0.2,4.6,1.2c0.7,0.5,0.7,0.8,0,1.3c-2.4,1.6-4.6,3.4-6.6,5.6c-0.5,0.5-0.9,1-1.1,2 c3-1.4,6-2.2,9.2-2.2c0.1,0.5-0.6,0.6-0.5,1.1c0.5,0.2,1,0.2,1.5,0.2c3.7,0.2,7.4,0.2,11.1,0.5c7.6,0.6,13.8,4,18.6,10 c3,3.7,5.4,7.9,8.5,11.6c0.9,1.1,1.7,2.1,2.6,3.2c0.6,0.7,1.2,1.1,2.2,0.9c1.7-0.3,3.3,1,3.8,2.7c0.4,1.6-0.4,3.3-1.9,4.1 c-0.3,0.1-0.6,0.2-0.9,0.4c3.2,2.8,3.5,6,0.8,9.7c-1.2,1.7-2.8,2.9-4.5,4.1c-3.6,2.5-7.2,5.2-10.1,8.6c-0.6,0.7-1,1.3-0.7,2.3 c0.4,1.4-0.4,2.7-1.7,3.4c-1.3,0.7-2.6,0.5-3.7-0.5C108.6,141,108.4,140.5,108.1,140L108.1,140 M74.9,81.2 c-0.1-0.1-0.1-0.1-0.2-0.2c0,0-0.1,0.1-0.1,0.1c0,0.1,0,0.2,0.1,0.3C74.7,81.3,74.8,81.3,74.9,81.2"/><path class="st0" d="M32.1,138.7c0.3,0.1,0.6,0.2,0.9,0.2c0,0.1,0,0.3,0,0.4c-0.8,1.5-2,2.4-3.8,2.1c-1.6-0.3-2.8-1.9-2.5-3.5 c0.2-0.9-0.2-1.4-0.7-2c-2.1-2.3-4.6-4.2-7.1-6c-2.9-2.1-5.9-4.1-8.3-6.8c-2.7-3-3-7.5-0.9-10.6c0.6-0.9,1.7-1.2,2.6-1.8 c-1.4-0.6-2.4-1.6-2.5-3.1c-0.2-2.3,1.1-3.9,3.3-4.2c0.6-0.1,1-0.3,1.3-0.8C18.8,97,23.1,91.4,27.8,86c3.9-4.4,8.7-6.9,14.6-7.3 c4.6-0.3,9.2,0,13.7,0.5c-0.1,0.2-0.2,0.5-0.2,0.7c-1.8-0.1-3.7-0.2-5.5-0.4c-4.3-0.4-8.5,0-12.7,0.9c-3.9,0.9-6.6,3.5-9.2,6.3 c-4.7,5.1-8.8,10.6-13.1,16.1c-0.2,0.3-0.6,0.5-0.4,1c-0.3,0.4-0.7,0.4-1.2,0.5c-0.9,0-1.8,0.2-2.5,0.9c-0.7,0.8-1,2.1-0.6,3 c0.6,1.3,1.6,1.8,3.4,1.7c-0.4,0.9-0.1,1.4,0.9,1.5c-2.4,0-4.6,0.6-5.4,3.3c-0.8,2.5-0.3,4.9,1.1,7.1c1.5,2.2,3.6,3.7,5.7,5.3 c3.2,2.3,6.5,4.6,9.4,7.4c0.5,0.5,0.8,1.1,1.4,1.4c0.7,0.3,1.1-0.7,1.8-0.8c0.5,0.2,0.6,0.5,0.3,0.9c-0.7,0.3-1.3,0.8-1.5,1.5 c-0.4,1.2,0.3,2.6,1.4,3C30.3,140.9,31.5,140.2,32.1,138.7"/><path class="st0" d="M74.1,142c-0.1,0.5,0.3,1.2-0.5,1.6c-0.3-0.6-0.3-1.2-0.4-1.8c-0.1-1-1.1-0.8-1.7-1.1 c-0.6-0.2-0.5,0.5-0.6,0.8c-0.6,1.8-1.1,3.7-1.8,5.8c-0.6-1.8-1.1-3.4-1.6-5c-0.3-0.9-0.6-1.5-1.6-1c0.1-0.6,0.6-0.6,1-0.6 c0.7-0.1,1.3-0.2,1.9-0.5c2.1-1.1,4.1,0,5.3,1.6C74.1,141.9,74.1,142,74.1,142"/><path class="st0" d="M58.8,79.4c-0.4,0-0.9,0.2-1.3-0.2c-0.2-0.6-0.7-0.9-1.1-1.5c1.3-0.4,2.5-0.4,3.7,0c-0.1,0.2-0.1,0.4-0.2,0.6 h-1.7C58.5,78.9,58.9,79,58.8,79.4"/><path class="st0" d="M57.1,79.3c-0.1,0.1-0.2,0.1-0.2,0C56.9,79.3,57,79.3,57.1,79.3"/><path class="st0" d="M101.2,142.7c0-0.1-0.1-0.3-0.1-0.4C101.3,142.4,101.4,142.5,101.2,142.7"/><path class="st0" d="M60.8,81.9c0.3,0.1,0.4,0.4,0.4,0.7C60.8,82.6,60.8,82.3,60.8,81.9"/><path class="st0" d="M59.7,80.3c0.3,0.1,0.5,0.3,0.4,0.7C59.7,81,59.7,80.6,59.7,80.3"/><path class="st0" d="M61.3,82.6c0.2,0.1,0.4,0.2,0.4,0.5C61.4,83,61.3,82.9,61.3,82.6"/><path class="st0" d="M59.1,79.7c0.1,0.1,0.1,0.1,0.2,0.2C59.2,79.8,59.1,79.8,59.1,79.7"/><path class="st0" d="M59.3,79.9c0.1,0.1,0.1,0.1,0.2,0.2C59.4,80.1,59.4,80,59.3,79.9"/><path class="st0" d="M58.8,79.4c0.1,0.1,0.1,0.1,0.2,0.2C59,79.6,58.9,79.5,58.8,79.4"/><path class="st0" d="M60.2,81.1c0.1,0,0.1,0.1,0.1,0.2C60.2,81.2,60.2,81.2,60.2,81.1"/><path class="st0" d="M60.6,81.7c0.1,0.1,0.1,0.1,0.2,0.2C60.8,81.9,60.7,81.8,60.6,81.7"/><path class="st0" d="M29.1,109.6c0,0.1-0.1,0.1-0.1,0.2C29,109.8,29.1,109.7,29.1,109.6"/><path class="st0" d="M29,109.9c-0.1,0.1-0.1,0.2-0.2,0.3C28.8,110,28.9,110,29,109.9"/><path class="st0" d="M39.6,140c-0.1-0.1-0.1-0.2-0.2-0.2C39.4,139.9,39.5,140,39.6,140"/><path class="st0" d="M79.3,110.4c-0.8,0.3-1.5,0.4-2.2,0.3c-1.2-0.1-2.2,0.4-3.1,0.9c-0.9,0.4-1.4,2.5-1,4c0.1,0.5,0.4,1,0.6,1.6 c0.3,0.9,0.2,1.6-0.7,2.1c-1.6,1-3,1-4.5-0.2c-0.2-0.2-0.4-0.5-0.6-0.8c-0.1-0.3-0.2-0.6,0.1-0.8c0.3-0.3,0.5,0.2,0.7,0.3 c1.5,1.3,2,1.4,3.4,0.6c0.6-0.3,0.7-0.7,0.3-1.2c-0.3-0.5-0.5-1-0.8-1.5c-0.1-0.2-0.3-0.5-0.2-0.7c0.8-1.1,0.5-2.4,0.9-3.5 c0.3-0.7,0.8-1.1,1.5-1.4c1.3-0.4,2.7-0.5,4-0.4C78.2,109.7,78.8,109.8,79.3,110.4"/><path class="st0" d="M65.2,111.6c0.4,0,0.8,0,1.2,0.1c1.3,0.3,1.8,1.8,1,2.9c-0.1,0.2-0.3,0.4-0.4,0.5c-0.4,0.4-0.8,1.3-1.3,1 c-0.6-0.3-1.2-0.9-1.3-1.8c0-0.7-0.4-1.2-1.1-1.3c-0.3-0.1-0.7-0.1-0.6-0.5c0-0.3,0.3-0.5,0.6-0.6 C63.9,111.6,64.5,111.6,65.2,111.6"/><path class="st0" d="M75.7,115.1c-0.9,0-1.5-0.5-2.1-1.1c-0.5-0.6-0.4-1.3,0.2-1.8c1.1-0.9,3.4-0.7,4.5,0.2 c0.2,0.2,0.6,0.3,0.5,0.7c-0.1,0.4-0.5,0.5-0.8,0.5c-0.8,0-1.7-0.3-1.4,1.2C76.7,115.3,76,115,75.7,115.1"/><path class="st0" d="M69.4,121.5c1.6,0.1,2.7,0.1,3.9,0.5c0.4,0.1,0.9,0.1,1.3-0.1c0.4-0.2,0.7-0.2,0.8,0.2 c0.1,0.4-0.2,0.6-0.6,0.7c-0.9,0.1-1.8,0.4-2.7,0.2c-0.8-0.2-1.5-0.1-2.3,0.1c-1.3,0.4-2.5-0.1-3.7-0.6c-0.2-0.1-0.4-0.3-0.3-0.5 c0.1-0.2,0.3-0.3,0.5-0.3C67.5,121.8,68.6,121.4,69.4,121.5"/><path class="st0" d="M64.9,109.4c1.2-0.1,2.3,0.6,3.6,0.9c0.9,0.3,1.1,2.4,0.4,3c-0.5,0.4-0.6,0-0.6-0.4c0.1-0.9-0.4-1.4-1.2-1.6 c-1-0.3-1.8-1.2-3-1.3c-0.2,0-0.6-0.1-0.5-0.4c0-0.3,0.3-0.2,0.5-0.3C64.3,109.3,64.5,109.3,64.9,109.4"/><path class="st0" d="M69.1,124.3c0.9-0.2,1.7-0.3,2.5-0.5c0.3-0.1,0.7-0.1,0.8,0.3c0.1,0.4-0.2,0.7-0.5,0.9 C71,125.6,70.1,125.5,69.1,124.3"/><path class="st0" d="M103.5,141.3c0,0.8,0.1,1.5,0.6,2.3c-0.7,0-1-0.4-1.1-0.8C102.9,142.3,102.9,141.8,103.5,141.3"/><path class="st0" d="M36.9,142.8c-1.4-1-1.3-1.8,0.4-2.9C36.8,141,36.5,141.8,36.9,142.8"/><path class="st0" d="M72.3,85.1C72.4,85.1,72.4,85,72.3,85.1c0.1-0.1,0.1-0.1,0.1-0.1C72.4,85,72.4,85,72.3,85.1L72.3,85.1"/><path class="st0" d="M13.5,105.6c-1,1-0.9,2.1-0.7,3.3c-1-0.3-1.5-0.7-1.4-1.7C11.5,106.1,12.1,105.6,13.5,105.6"/><path class="st0" d="M15.3,108.3c0,0.3-0.2,0.4-0.5,0.5c-0.2,0-0.4-0.1-0.5-0.4c-0.1-0.3,0.1-0.5,0.4-0.5 C15,107.8,15.2,108,15.3,108.3"/><path class="st0" d="M127.9,108.7c-0.3,1.1-0.5,1.9-0.3,2.8c0,0.2,0,0.4-0.2,0.5c-0.2,0-0.3-0.1-0.4-0.3 C126,110.6,126.1,110.1,127.9,108.7"/><path class="st0" d="M129.3,111.1c0-0.3,0-0.5,0.4-0.6c0.3,0,0.4,0.2,0.4,0.4c0,0.3,0,0.6-0.3,0.6 C129.4,111.7,129.3,111.4,129.3,111.1"/><path class="st0" d="M29.3,139.8c-0.8-0.4-1.3-0.8-1.1-1.5c0.1-0.6,0.5-1.1,1.4-1.5C28.9,137.9,28.9,138.8,29.3,139.8"/></svg>