<svg version="1.1" id="Layer_1" xmlns="http://www.w3.org/2000/svg" x="0px" y="0px" viewBox="0 0 141.7 226.8" style="enable-background:new 0 0 141.7 226.8" xml:space="preserve"><style>.st0{fill:#1D1D1B}.st1{fill:none;stroke:#1D1D1B;stroke-width:1.613;stroke-miterlimit:10}.st2{fill:#DA0812}.st3{fill:none;stroke:#DA0812;stroke-width:0.5;stroke-miterlimit:10}.st4{fill:#FFDC00}.st5{fill:none;stroke:#FFDC00;stroke-width:0.5;stroke-miterlimit:10}.st6{fill:#0080C8}.st7{fill:none;stroke:#0080C8;stroke-width:0.6;stroke-miterlimit:10}.st8{fill:none;stroke:#DA0812;stroke-width:0.5;stroke-linecap:round;stroke-linejoin:round;stroke-miterlimit:10}.st9{fill:none;stroke:#0080C8;stroke-width:0.5;stroke-linecap:round;stroke-linejoin:round;stroke-miterlimit:10}.st10{fill:none;stroke:#FFDC00;stroke-linecap:round;stroke-linejoin:round;stroke-miterlimit:10}.st11{fill:none;stroke:#0080C8;stroke-linecap:round;stroke-linejoin:round;stroke-miterlimit:10}</style><path class="st0" d="M12,20.7c0.2-0.1,0.4-0.1,0.5-0.2c0.1-0.1,0.2-0.2,0.3-0.3c0.1-0.1,0.1-0.3,0.1-0.4c0-0.2,0-0.4,0-0.7v-1.3 H8.3v-1l5.3-7.7h2v7.5h0.3c0.3,0,0.5,0,0.6-0.1c0.1,0,0.2-0.1,0.3-0.2c0.1-0.1,0.2-0.3,0.2-0.6h0.9l-0.1,2h-2.2v1.3 c0,0.3,0,0.6,0,0.7c0,0.2,0.1,0.3,0.1,0.4c0.1,0.1,0.2,0.2,0.3,0.2c0.1,0.1,0.3,0.1,0.5,0.2v0.6H12V20.7z M10,16.7h3v-2 c0-0.8,0-1.7,0.1-2.7H13l-3,4.5V16.7z"/><path class="st0" d="M129.6,206.7c-0.2,0.1-0.4,0.1-0.5,0.2c-0.1,0.1-0.2,0.2-0.3,0.3c-0.1,0.1-0.1,0.3-0.1,0.4c0,0.2,0,0.4,0,0.7 v1.3h4.7v1l-5.3,7.7h-2v-7.5h-0.3c-0.3,0-0.5,0-0.6,0.1c-0.1,0-0.2,0.1-0.3,0.2c-0.1,0.1-0.2,0.3-0.2,0.6h-0.9l0.1-2h2.2v-1.3 c0-0.3,0-0.6,0-0.7c0-0.2-0.1-0.3-0.1-0.4c-0.1-0.1-0.2-0.2-0.3-0.2c-0.1-0.1-0.3-0.1-0.5-0.2v-0.6h4.5V206.7z M131.7,210.8h-3v2 c0,0.8,0,1.7-0.1,2.7h0.1l3-4.5V210.8z"/><polyline class="st1" points="38.7,219.7 5.4,219.7 5.4,7.1 38,7.1"/><polyline class="st1" points="102.5,7.1 136.3,7.1 136.3,219.7 102.2,219.7"/><line class="st1" x1="88.5" y1="219.7" x2="52.5" y2="219.7"/><line class="st1" x1="88.5" y1="7.1" x2="52.5" y2="7.1"/><path class="st2" d="M118.1,96.8c-0.4,0.1-0.2,0.7-0.7,0.9c-0.1-0.1-0.2-0.2-0.2-0.3c0-2.1,2.4-5.4,4.4-6.1 c1.4-0.4,2.8,0.1,3.6,1.3c0.7,1.1,0.6,2.7-0.3,3.6c-0.1,0.2-0.4,0.4-0.5,0.4c-1.2-0.3-2.4,0.2-3.6-0.2c0.8-0.6,1.7-1.3,2.5-1.9 c-1.4,0.1-2.3,1-3.2,1.9c-0.3,0.3-0.5,0.7-0.8,1c-0.1,0.2-0.3,0.4-0.5,0.3c-0.3-0.1-0.1-0.4-0.1-0.7c1.1-1.5,2.1-3.1,4-4 C121.2,92.9,119.2,94.5,118.1,96.8"/><path class="st3" d="M118.1,96.8c-0.4,0.1-0.2,0.7-0.7,0.9c-0.1-0.1-0.2-0.2-0.2-0.3c0-2.1,2.4-5.4,4.4-6.1 c1.4-0.4,2.8,0.1,3.6,1.3c0.7,1.1,0.6,2.7-0.3,3.6c-0.1,0.2-0.4,0.4-0.5,0.4c-1.2-0.3-2.4,0.2-3.6-0.2c0.8-0.6,1.7-1.3,2.5-1.9 c-1.4,0.1-2.3,1-3.2,1.9c-0.3,0.3-0.5,0.7-0.8,1c-0.1,0.2-0.3,0.4-0.5,0.3c-0.3-0.1-0.1-0.4-0.1-0.7c1.1-1.5,2.1-3.1,4-4 C121.2,92.9,119.2,94.5,118.1,96.8z"/><path class="st2" d="M110.5,95.4c-0.1,0.3-0.3,0.3-0.5,0.2c-1.8-0.7-3.3-1.7-3.8-3.6c-0.6-2.3,1.2-4.4,3.6-4.2 c1.3,0.1,1.7,0.6,1.4,1.8c-0.1,0.5-0.1,1.1-0.4,1.6c-0.5-0.3-0.5-0.9-0.9-1.4c-0.2,1,0,1.8,0.4,2.5c0.1,0.2,0.2,0.4,0.4,0.5 c0.3,0.3,0.4,0.9,0.1,1.1c-0.4,0.3-0.6-0.3-0.9-0.5c-0.9-1-1.1-2.4-1.6-3.6c-0.2,1.5,0,2.9,1,4.1c0,0.1,0.1,0.1,0.1,0.1 C109.5,94.7,110,95.1,110.5,95.4"/><path class="st3" d="M110.5,95.4c-0.1,0.3-0.3,0.3-0.5,0.2c-1.8-0.7-3.3-1.7-3.8-3.6c-0.6-2.3,1.2-4.4,3.6-4.2 c1.3,0.1,1.7,0.6,1.4,1.8c-0.1,0.5-0.1,1.1-0.4,1.6c-0.5-0.3-0.5-0.9-0.9-1.4c-0.2,1,0,1.8,0.4,2.5c0.1,0.2,0.2,0.4,0.4,0.5 c0.3,0.3,0.4,0.9,0.1,1.1c-0.4,0.3-0.6-0.3-0.9-0.5c-0.9-1-1.1-2.4-1.6-3.6c-0.2,1.5,0,2.9,1,4.1c0,0.1,0.1,0.1,0.1,0.1 C109.5,94.7,110,95.1,110.5,95.4z"/><path class="st4" d="M111.6,108.3c-2.8-0.9-4.9-3.4-5-5.9c0-0.3-0.3-0.9,0.3-1c0.6-0.1,0.5,0.5,0.6,0.9c0.2,1.1,0.4,2.1,1,3.1 c1,1.6,2.7,2.4,4.7,2c-1.5-0.1-2.6-1-3.5-2c-0.9-1-1.2-2.3-0.9-3.7c0.9,2.1,2,4.1,5,4.3c-0.9-0.5-1.5-1.1-2.2-1.6 c-1-0.7-1.1-1.8-1.3-2.8c0-0.3-0.1-0.7,0.4-0.8c0.4,0,0.5,0.3,0.5,0.7c0.3,1.6,1.2,2.7,2.7,3.3c0.2,0.1,0.4,0.1,0.6,0.2 c0.1,0,0.2,0,0.5-0.1c-1.2-0.6-1.9-1.4-2.4-2.4c-0.3-0.6-0.4-0.8,0.3-1c0.4-0.1,0.7-0.4,0.5-0.8c-0.2-0.5-0.5-0.3-0.9,0 c-0.8,0.5-0.8-0.5-1.3-0.7c-0.4-0.1-0.1-0.7,0.2-0.9c0.8-0.7,1.6-0.8,2.5-0.2c0.8,0.5,1.5,0.8,2.4,0.2c0.8-0.5,1.7,0.3,1.9,1.4 c0.4,3.1-1.2,6-4.1,7.6c-0.4,0.2-0.8,0.4-1.1,0.7C112.5,108.9,112.2,108.3,111.6,108.3"/><path class="st5" d="M111.6,108.3c-2.8-0.9-4.9-3.4-5-5.9c0-0.3-0.3-0.9,0.3-1c0.6-0.1,0.5,0.5,0.6,0.9c0.2,1.1,0.4,2.1,1,3.1 c1,1.6,2.7,2.4,4.7,2c-1.5-0.1-2.6-1-3.5-2c-0.9-1-1.2-2.3-0.9-3.7c0.9,2.1,2,4.1,5,4.3c-0.9-0.5-1.5-1.1-2.2-1.6 c-1-0.7-1.1-1.8-1.3-2.8c0-0.3-0.1-0.7,0.4-0.8c0.4,0,0.5,0.3,0.5,0.7c0.3,1.6,1.2,2.7,2.7,3.3c0.2,0.1,0.4,0.1,0.6,0.2 c0.1,0,0.2,0,0.5-0.1c-1.2-0.6-1.9-1.4-2.4-2.4c-0.3-0.6-0.4-0.8,0.3-1c0.4-0.1,0.7-0.4,0.5-0.8c-0.2-0.5-0.5-0.3-0.9,0 c-0.8,0.5-0.8-0.5-1.3-0.7c-0.4-0.1-0.1-0.7,0.2-0.9c0.8-0.7,1.6-0.8,2.5-0.2c0.8,0.5,1.5,0.8,2.4,0.2c0.8-0.5,1.7,0.3,1.9,1.4 c0.4,3.1-1.2,6-4.1,7.6c-0.4,0.2-0.8,0.4-1.1,0.7C112.5,108.9,112.2,108.3,111.6,108.3z"/><path class="st4" d="M101.1,114.3c-0.5-0.4-1-0.9-1.5-1.3c0.3-0.5-0.3-0.6-0.5-0.8c-1.8-1.5-2.4-3.6-3.1-5.6 c5.3,1,9.9,5.4,10.5,10.2c-1.9-2.1-3.5-4.2-5.7-5.7c0.7,1.3,1.8,2.4,2.9,3.4c0.1,0.1,0.1,0.1,0.2,0.2l0,0c0.1,0.3,0.2,0.5,0.5,0.6 c0.3,0.4,0.6,0.9,1.1,1.5c-1.6-0.4-2.5-1.3-3.6-2C101.8,114.5,101.7,114.1,101.1,114.3"/><path class="st5" d="M101.1,114.3c-0.5-0.4-1-0.9-1.5-1.3c0.3-0.5-0.3-0.6-0.5-0.8c-1.8-1.5-2.4-3.6-3.1-5.6 c5.3,1,9.9,5.4,10.5,10.2c-1.9-2.1-3.5-4.2-5.7-5.7c0.7,1.3,1.8,2.4,2.9,3.4c0.1,0.1,0.1,0.1,0.2,0.2l0,0c0.1,0.3,0.2,0.5,0.5,0.6 c0.3,0.4,0.6,0.9,1.1,1.5c-1.6-0.4-2.5-1.3-3.6-2C101.8,114.5,101.7,114.1,101.1,114.3z"/><path class="st4" d="M119,125.5c-1.2,0.7-2.3,1.5-3.4,2.4c-1,0.9-1.9,1.9-2.9,2.9c0.4-2,1.5-3.7,2.9-5.1c1.5-1.4,3.2-2.3,5.3-2.6 c0.3,0,0.6-0.2,0.9-0.2c0.5,0,1.1-0.6,1.4-0.2c0.4,0.5-0.3,1-0.6,1.5c-1.9,2.7-4.2,4.9-7.5,6.1c-0.4,0.1-0.7,0.4-1.3,0.1 c1.6-1.8,3.6-3.1,5.3-4.8c0.1-0.1,0.2-0.1,0.2-0.2c0.2,0,0.3-0.1,0.4-0.3c0,0,0.1-0.1,0.1-0.1c-0.1,0-0.1,0-0.2,0 c0,0.1,0,0.1,0,0.2c-0.2-0.1-0.4,0-0.5,0.2C119.2,125.4,119.1,125.5,119,125.5"/><path class="st5" d="M119,125.5c-1.2,0.7-2.3,1.5-3.4,2.4c-1,0.9-1.9,1.9-2.9,2.9c0.4-2,1.5-3.7,2.9-5.1c1.5-1.4,3.2-2.3,5.3-2.6 c0.3,0,0.6-0.2,0.9-0.2c0.5,0,1.1-0.6,1.4-0.2c0.4,0.5-0.3,1-0.6,1.5c-1.9,2.7-4.2,4.9-7.5,6.1c-0.4,0.1-0.7,0.4-1.3,0.1 c1.6-1.8,3.6-3.1,5.3-4.8c0.1-0.1,0.2-0.1,0.2-0.2c0.2,0,0.3-0.1,0.4-0.3c0,0,0.1-0.1,0.1-0.1c-0.1,0-0.1,0-0.2,0 c0,0.1,0,0.1,0,0.2c-0.2-0.1-0.4,0-0.5,0.2C119.2,125.4,119.1,125.5,119,125.5z"/><path class="st6" d="M111.6,108.3c0.6,0,0.9,0.6,1.5,0.6c-0.5,2-1.4,4-1.8,6c-1.3,5.5-1.5,11.1-0.9,16.8c0.3,3,0.8,6,1.5,8.9 c0.1,0.2,0.1,0.5,0,0.6c-0.2,0.2-0.5,0-0.7-0.1c-0.6-0.3-0.9-0.8-1.1-1.4c-1.2-5.9-1.6-11.9-1.4-17.9c0.1-4,0.7-7.9,2.1-11.6 C110.9,109.5,111.3,108.9,111.6,108.3"/><path class="st7" d="M111.6,108.3c0.6,0,0.9,0.6,1.5,0.6c-0.5,2-1.4,4-1.8,6c-1.3,5.5-1.5,11.1-0.9,16.8c0.3,3,0.8,6,1.5,8.9 c0.1,0.2,0.1,0.5,0,0.6c-0.2,0.2-0.5,0-0.7-0.1c-0.6-0.3-0.9-0.8-1.1-1.4c-1.2-5.9-1.6-11.9-1.4-17.9c0.1-4,0.7-7.9,2.1-11.6 C110.9,109.5,111.3,108.9,111.6,108.3z"/><path class="st6" d="M113.4,97.1c-1.5-2.5-1.9-5.1-0.9-7.8c0.7-1.8,2.6-2.5,4.7-2.1c1.7,0.3,2.8,1.5,2.9,3.1c0,0.3,0,0.6-0.3,0.9 c-2.1,1.7-3.4,3.8-3.6,6.5c0,0.1-0.1,0.2-0.2,0.3c-0.7-1-0.6-1.4,1-6.6c-1.2,0.6-1.5,1.5-2.3,6.3c-1-2.9-0.2-5.2,0.8-7.5 C114.4,90.6,113.5,93.6,113.4,97.1"/><path class="st7" d="M113.4,97.1c-1.5-2.5-1.9-5.1-0.9-7.8c0.7-1.8,2.6-2.5,4.7-2.1c1.7,0.3,2.8,1.5,2.9,3.1c0,0.3,0,0.6-0.3,0.9 c-2.1,1.7-3.4,3.8-3.6,6.5c0,0.1-0.1,0.2-0.2,0.3c-0.7-1-0.6-1.4,1-6.6c-1.2,0.6-1.5,1.5-2.3,6.3c-1-2.9-0.2-5.2,0.8-7.5 C114.4,90.6,113.5,93.6,113.4,97.1z"/><path class="st6" d="M99.3,125.5c1.4,1.5,3.1,2.5,5,3.4c0.6,0.3,1.4,0.6,1.3,1.2c-0.2,0.6-1,0.2-1.6,0.2c-2.6-0.3-4.5-1.7-6-3.7 c-0.7-0.9-1.3-1.9-2-2.9c4.5-1.4,8.4,0.5,9.5,4.6c-2.1-0.8-4-2-6-3c-0.1-0.2-0.3-0.2-0.5-0.2c0,0-0.1,0-0.1-0.1 c0,0,0.1,0.1,0.1,0.1C99,125.3,99.1,125.4,99.3,125.5"/><path class="st7" d="M99.3,125.5c1.4,1.5,3.1,2.5,5,3.4c0.6,0.3,1.4,0.6,1.3,1.2c-0.2,0.6-1,0.2-1.6,0.2c-2.6-0.3-4.5-1.7-6-3.7 c-0.7-0.9-1.3-1.9-2-2.9c4.5-1.4,8.4,0.5,9.5,4.6c-2.1-0.8-4-2-6-3c-0.1-0.2-0.3-0.2-0.5-0.2c0,0-0.1,0-0.1-0.1 c0,0,0.1,0.1,0.1,0.1C99,125.3,99.1,125.4,99.3,125.5z"/><path class="st6" d="M107.6,96.5c-0.4,0.6,0.7,0.9,0.2,1.3c-0.4,0.3-0.9-0.2-1.4-0.4c-0.2-0.1-0.4-0.3-0.6-0.1 c-0.2,0.3,0.1,0.4,0.3,0.5c0.8,0.6,1.7,0.9,2.7,0.9c0.5,0,1,0.1,1.3,0.5c0.3,0.4,0.3,0.9-0.3,1c-2.3,0.6-5.8,0-6.9-3.2 c-0.4-1.1-0.2-2.1,0.5-3.1c0.9-1.2,1.5-1.2,2.4,0c1.3,1.6,3,2.6,5,2.9c0.6,0.1,1.3,0.1,1,0.9c-0.2,0.7-0.8,0.7-1.4,0.4 C109.4,97.9,108.4,97.4,107.6,96.5"/><path class="st7" d="M107.6,96.5c-0.4,0.6,0.7,0.9,0.2,1.3c-0.4,0.3-0.9-0.2-1.4-0.4c-0.2-0.1-0.4-0.3-0.6-0.1 c-0.2,0.3,0.1,0.4,0.3,0.5c0.8,0.6,1.7,0.9,2.7,0.9c0.5,0,1,0.1,1.3,0.5c0.3,0.4,0.3,0.9-0.3,1c-2.3,0.6-5.8,0-6.9-3.2 c-0.4-1.1-0.2-2.1,0.5-3.1c0.9-1.2,1.5-1.2,2.4,0c1.3,1.6,3,2.6,5,2.9c0.6,0.1,1.3,0.1,1,0.9c-0.2,0.7-0.8,0.7-1.4,0.4 C109.4,97.9,108.4,97.4,107.6,96.5z"/><path class="st6" d="M112.2,120.8c2.1-3,5.4-4.5,7-7.6c-2,1.9-4.2,3.6-6.5,5.4c0.2-2.4,2.4-4.9,8.5-7.8 C121.9,114.1,117.5,119.1,112.2,120.8"/><path class="st7" d="M112.2,120.8c2.1-3,5.4-4.5,7-7.6c-2,1.9-4.2,3.6-6.5,5.4c0.2-2.4,2.4-4.9,8.5-7.8 C121.9,114.1,117.5,119.1,112.2,120.8z"/><path class="st6" d="M124.7,101.3c-1-0.6-2.1,0-3.2-0.6c1.3-0.5,2.5-0.9,3.8-1.7c-1.5-0.2-2.5,0.5-3.7,0.6 c-0.5,0.1-1.1,0.3-1.6,0.4c-0.3,0.1-0.6,0-0.7-0.3c-0.1-0.3-0.1-0.5,0.1-0.8c1.3-1.5,4.9-1.7,6.4-0.4c1.1,0.9,1.4,2.3,0.7,3.6 c-0.6,1.1-1.6,1.4-3,1.2c-1.2-0.2-2.2-1-3.5-1.1c-0.2,0-0.4-0.2-0.4-0.5c0-0.2,0.2-0.3,0.4-0.4c0.4-0.2,0.8-0.1,1.2,0 C122.3,101.6,123.5,101.4,124.7,101.3"/><path class="st7" d="M124.7,101.3c-1-0.6-2.1,0-3.2-0.6c1.3-0.5,2.5-0.9,3.8-1.7c-1.5-0.2-2.5,0.5-3.7,0.6 c-0.5,0.1-1.1,0.3-1.6,0.4c-0.3,0.1-0.6,0-0.7-0.3c-0.1-0.3-0.1-0.5,0.1-0.8c1.3-1.5,4.9-1.7,6.4-0.4c1.1,0.9,1.4,2.3,0.7,3.6 c-0.6,1.1-1.6,1.4-3,1.2c-1.2-0.2-2.2-1-3.5-1.1c-0.2,0-0.4-0.2-0.4-0.5c0-0.2,0.2-0.3,0.4-0.4c0.4-0.2,0.8-0.1,1.2,0 C122.3,101.6,123.5,101.4,124.7,101.3z"/><path class="st0" d="M112,116.5c0-0.2-0.1-0.5,0-0.7c0.4-2,1-4,1.8-5.9c0.3-0.6,0.7-1.1,1.4-1.5c1.8-1.1,3.2-2.5,3.8-4.5 c0.2-0.8,0.6-0.8,1.3-0.5c1,0.5,2,0.8,3,1.1c0.6,0.2,1.3,0.4,2,0c2.6-1.3,3.7-3.9,1.5-6.3c-0.8-0.9-0.8-1.4-0.4-2.4 c1.2-3-0.9-5.6-4.3-5.2c-0.7,0.1-0.7-0.2-0.8-0.7c-1-4.5-5.6-4.6-8-2.7c-0.7,0.5-1.1,0.5-1.7,0.1c-2-1.1-4.2-0.7-5.5,1 c-0.6,0.8-0.8,1.9-0.9,2.9c-0.1,0.7-0.4,1-1,1.2c-1.5,0.6-2.3,1.6-2.5,3.2c-0.3,2.3,0.9,3.7,2.7,4.7c1,0.6,1.3,1.3,1.5,2.3 c0.3,2.5,1.5,4.4,3.7,5.7c0.7,0.4,0.8,0.8,0.5,1.5c-0.7,1.8-1.3,3.7-1.9,5.5c-0.1,0.2,0,0.5-0.3,0.5c-0.2,0-0.3-0.2-0.4-0.4 c-0.4-0.9-0.8-1.7-1.2-2.5c-1.3-2.5-3-4.5-5.8-5.5c-1.8-0.6-3.6-1.4-5.1-2.5c-0.1-0.1-0.3-0.1-0.4,0c1.1,5.7,4.3,10,9.4,12.9 c3.6,2.1,3.1,1.6,3.2,5.6c0.1,1.7,0,3.3,0,5.1c-0.5-0.2-0.6-0.5-0.8-0.8c-0.4-1-1.1-1.8-1.8-2.6c-1.7-1.9-3.8-3.4-6.6-2.9 c-1.7,0.3-3.3,0.5-5-0.1c-0.1,0.5,0.3,0.7,0.6,0.9c1.3,1.1,2.3,2.3,3.2,3.7c1.9,3,4.7,4.7,8.4,4.7c1.2,0,2,0.7,2.2,1.8 c0.4,1.8,0.7,3.7,1.1,5.5c0.2,0.9,0.1,1.9,1.1,2.5c0.8,0.5,1.6,1,2.4,1.5c0.2,0.1,0.5,0.4,0.8,0.2c0.3-0.2,0.2-0.5,0.1-0.9 c-0.5-2.5-1.3-4.9-1.6-7.4c-0.1-0.4-0.1-0.8,0.2-1.1c0.9-0.9,1.7-1.7,2.9-2.1c2.2-0.8,4.1-2,5.8-3.5c1.9-1.7,3.2-3.8,4.3-6.2 c-1.9,0.4-3.5,0.7-5.2,1c-2.6,0.3-4.4,1.7-5.7,3.9c-0.7,1.1-1.3,2.3-1.8,3.5c-0.2,0.4-0.3,0.9-0.9,1.1c-0.5-1.5-0.2-3.1-0.5-4.6 c-0.6-2.9,0.6-4.6,3.3-5.6c1.7-0.6,3.3-1.5,4.6-2.8c1.9-1.9,2.8-4.3,3.3-6.9c0.2-0.9,0.5-1.8,0.3-2.9c-0.5,0.6-1.1,1-1.6,1.3 c-1.2,0.9-2.5,1.5-3.8,2.2C114.9,112.9,113.3,114.5,112,116.5 M111.6,108.3c-2.8-0.9-4.9-3.4-5-5.9c0-0.3-0.3-0.9,0.3-1 c0.6-0.1,0.5,0.5,0.6,0.9c0.2,1.1,0.4,2.1,1,3.1c1,1.6,2.7,2.4,4.7,2c-1.5-0.1-2.6-1-3.5-2c-0.9-1-1.2-2.3-0.9-3.7 c0.9,2.1,2,4.1,5,4.3c-0.9-0.5-1.5-1.1-2.2-1.6c-1-0.7-1.1-1.8-1.3-2.8c0-0.3-0.1-0.7,0.4-0.8c0.4,0,0.5,0.3,0.5,0.7 c0.3,1.6,1.2,2.7,2.7,3.3c0.2,0.1,0.4,0.1,0.6,0.2c0.1,0,0.2,0,0.5-0.1c-1.2-0.6-1.9-1.4-2.4-2.4c-0.3-0.6-0.4-0.8,0.3-1 c0.4-0.1,0.7-0.4,0.5-0.8c-0.2-0.5-0.5-0.3-0.9,0c-0.8,0.5-0.8-0.5-1.3-0.7c-0.4-0.1-0.1-0.7,0.2-0.9c0.8-0.7,1.6-0.8,2.5-0.2 c0.8,0.5,1.5,0.8,2.4,0.2c0.8-0.5,1.7,0.3,1.9,1.4c0.4,3.1-1.2,6-4.1,7.6c-0.4,0.2-0.8,0.4-1.1,0.7 C112.5,108.9,112.2,108.3,111.6,108.3 M111.6,108.3c0.6,0,0.9,0.6,1.5,0.6c-0.5,2-1.4,4-1.8,6c-1.3,5.5-1.5,11.1-0.9,16.8 c0.3,3,0.8,6,1.5,8.9c0.1,0.2,0.1,0.5,0,0.6c-0.2,0.2-0.5,0-0.7-0.1c-0.6-0.3-0.9-0.8-1.1-1.4c-1.2-5.9-1.6-11.9-1.4-17.9 c0.1-4,0.7-7.9,2.1-11.6C110.9,109.5,111.3,108.9,111.6,108.3 M113.4,97.1c-1.5-2.5-1.9-5.1-0.9-7.8c0.7-1.8,2.6-2.5,4.7-2.1 c1.7,0.4,2.8,1.5,2.9,3.1c0,0.3,0,0.6-0.3,0.9c-2.1,1.7-3.4,3.8-3.6,6.5c0,0.1-0.1,0.2-0.2,0.3c-0.7-1-0.6-1.4,1-6.6 c-1.2,0.6-1.5,1.5-2.3,6.3c-1-2.9-0.2-5.2,0.8-7.5C114.4,90.6,113.5,93.6,113.4,97.1 M101.1,114.3c-0.5-0.4-1-0.9-1.5-1.3 c0.3-0.5-0.3-0.6-0.5-0.8c-1.8-1.5-2.4-3.6-3.1-5.6c5.3,1,9.9,5.4,10.5,10.2c-1.9-2.1-3.5-4.2-5.7-5.7c0.7,1.3,1.8,2.4,2.9,3.4 c0.1,0.1,0.1,0.1,0.2,0.2l0,0c0.1,0.3,0.2,0.5,0.5,0.6c0.3,0.4,0.6,0.9,1.1,1.5c-1.6-0.4-2.5-1.3-3.6-2 C101.8,114.5,101.7,114.1,101.1,114.3 M99.9,110.1c-0.1,0.4,0.1,0.5,0.4,0.6c0,0,0.2-0.1,0.2-0.2 C100.4,110.3,100.3,110.2,99.9,110.1 M99.3,125.5c1.4,1.5,3.1,2.5,5,3.4c0.6,0.3,1.4,0.6,1.3,1.2c-0.2,0.6-1,0.2-1.6,0.2 c-2.6-0.3-4.5-1.7-6-3.7c-0.7-0.9-1.3-1.9-2-2.9c4.5-1.4,8.4,0.5,9.5,4.6c-2.1-0.8-4-2-6-3c-0.1-0.2-0.3-0.2-0.5-0.2 c0,0-0.1,0-0.1-0.1c0,0,0.1,0.1,0.1,0.1C99,125.3,99.1,125.4,99.3,125.5 M107.6,96.5c-0.4,0.6,0.7,0.9,0.2,1.3 c-0.4,0.3-0.9-0.2-1.4-0.4c-0.2-0.1-0.4-0.3-0.6-0.1c-0.2,0.3,0.1,0.4,0.3,0.5c0.8,0.6,1.7,0.9,2.7,0.9c0.5,0,1,0.1,1.3,0.5 c0.3,0.4,0.3,0.9-0.3,1c-2.3,0.6-5.8,0-6.9-3.2c-0.4-1.1-0.2-2.1,0.5-3.1c0.9-1.2,1.5-1.2,2.4,0c1.3,1.6,3,2.6,5,2.9 c0.6,0.1,1.3,0.1,1,0.9c-0.2,0.7-0.8,0.7-1.4,0.4C109.4,97.9,108.4,97.4,107.6,96.5 M119,125.5c-1.2,0.7-2.3,1.5-3.4,2.4 c-1,0.9-1.9,1.9-2.9,2.9c0.4-2,1.5-3.7,2.9-5.1c1.5-1.4,3.2-2.3,5.3-2.6c0.3,0,0.6-0.2,0.9-0.2c0.5,0,1.1-0.6,1.4-0.2 c0.4,0.5-0.3,1-0.6,1.5c-1.9,2.7-4.2,4.9-7.5,6.1c-0.4,0.1-0.7,0.4-1.3,0.1c1.6-1.8,3.6-3.1,5.3-4.8c0.1-0.1,0.2-0.1,0.2-0.2 c0.2,0,0.3-0.1,0.4-0.3c0,0,0.1-0.1,0.1-0.1c-0.1,0-0.1,0-0.2,0c0,0.1,0,0.1,0,0.2c-0.2-0.1-0.4,0-0.5,0.2 C119.2,125.4,119.1,125.5,119,125.5 M112.2,120.8c2.1-3,5.4-4.5,7-7.6c-2,1.9-4.2,3.6-6.5,5.4c0.2-2.4,2.4-4.9,8.5-7.8 C121.9,114.1,117.5,119.2,112.2,120.8 M118.1,96.8c-0.4,0.1-0.2,0.7-0.7,0.9c-0.1-0.1-0.2-0.2-0.2-0.3c0-2.1,2.4-5.4,4.4-6.1 c1.4-0.4,2.8,0.1,3.6,1.3c0.7,1.1,0.6,2.7-0.3,3.6c-0.1,0.2-0.4,0.4-0.5,0.4c-1.2-0.3-2.4,0.2-3.6-0.2c0.8-0.6,1.7-1.3,2.5-1.9 c-1.4,0.1-2.3,1-3.2,1.9c-0.3,0.3-0.5,0.7-0.8,1c-0.1,0.2-0.3,0.4-0.6,0.3c-0.3-0.1-0.1-0.4-0.1-0.7c1.1-1.5,2.1-3.1,4-4 C121.2,92.9,119.2,94.5,118.1,96.8 M124.7,101.3c-1-0.6-2.1,0-3.2-0.6c1.3-0.5,2.5-0.9,3.8-1.7c-1.5-0.2-2.5,0.5-3.7,0.6 c-0.5,0.1-1.1,0.3-1.6,0.4c-0.3,0.1-0.6,0-0.7-0.3c-0.1-0.3-0.1-0.5,0.1-0.8c1.3-1.5,4.9-1.7,6.4-0.4c1.1,0.9,1.4,2.3,0.7,3.6 c-0.6,1.1-1.6,1.4-3,1.2c-1.2-0.2-2.2-1-3.5-1.1c-0.2,0-0.4-0.2-0.4-0.5c0-0.2,0.2-0.3,0.4-0.4c0.4-0.2,0.8-0.1,1.2,0 C122.3,101.6,123.5,101.4,124.7,101.3 M110.5,95.4c-0.1,0.3-0.3,0.3-0.5,0.2c-1.8-0.7-3.3-1.7-3.8-3.6c-0.6-2.3,1.2-4.4,3.6-4.2 c1.3,0.1,1.7,0.6,1.4,1.8c-0.1,0.5-0.1,1.1-0.4,1.6c-0.5-0.3-0.5-0.9-0.9-1.4c-0.2,1,0,1.8,0.4,2.5c0.1,0.2,0.2,0.4,0.4,0.5 c0.3,0.3,0.4,0.9,0.1,1.1c-0.4,0.3-0.6-0.3-0.9-0.5c-0.9-1-1.1-2.4-1.6-3.6c-0.2,1.5,0,2.9,1,4.1c0,0.1,0.1,0.1,0.1,0.1 C109.5,94.7,110,95.1,110.5,95.4"/><path class="st2" d="M21.1,96.8c0.4,0.1,0.2,0.7,0.7,0.9c0.1-0.1,0.2-0.2,0.2-0.3c0-2.1-2.4-5.4-4.4-6.1c-1.4-0.4-2.8,0.1-3.6,1.3 c-0.7,1.1-0.6,2.7,0.3,3.6c0.1,0.2,0.4,0.4,0.5,0.4c1.2-0.3,2.4,0.2,3.6-0.2c-0.8-0.6-1.7-1.3-2.5-1.9c1.4,0.1,2.3,1,3.2,1.9 c0.3,0.3,0.5,0.7,0.8,1c0.1,0.2,0.3,0.4,0.5,0.3c0.3-0.1,0.1-0.4,0.1-0.7c-1.1-1.5-2.1-3.1-4-4C18,92.9,20,94.5,21.1,96.8"/><path class="st3" d="M21.1,96.8c0.4,0.1,0.2,0.7,0.7,0.9c0.1-0.1,0.2-0.2,0.2-0.3c0-2.1-2.4-5.4-4.4-6.1c-1.4-0.4-2.8,0.1-3.6,1.3 c-0.7,1.1-0.6,2.7,0.3,3.6c0.1,0.2,0.4,0.4,0.5,0.4c1.2-0.3,2.4,0.2,3.6-0.2c-0.8-0.6-1.7-1.3-2.5-1.9c1.4,0.1,2.3,1,3.2,1.9 c0.3,0.3,0.5,0.7,0.8,1c0.1,0.2,0.3,0.4,0.5,0.3c0.3-0.1,0.1-0.4,0.1-0.7c-1.1-1.5-2.1-3.1-4-4C18,92.9,20,94.5,21.1,96.8z"/><path class="st2" d="M28.7,95.4c0.1,0.3,0.3,0.3,0.5,0.2C31,94.9,32.5,94,33,92c0.6-2.3-1.2-4.4-3.6-4.2c-1.3,0.1-1.7,0.6-1.4,1.8 c0.1,0.5,0.1,1.1,0.4,1.6c0.5-0.3,0.5-0.9,0.9-1.4c0.2,1,0,1.8-0.4,2.5c-0.1,0.2-0.2,0.4-0.4,0.5c-0.3,0.3-0.4,0.9-0.1,1.1 c0.4,0.3,0.6-0.3,0.9-0.5c0.9-1,1.1-2.4,1.6-3.6c0.2,1.5,0,2.9-1,4.1c0,0.1-0.1,0.1-0.1,0.1C29.7,94.7,29.2,95.1,28.7,95.4"/><path class="st3" d="M28.7,95.4c0.1,0.3,0.3,0.3,0.5,0.2C31,94.9,32.5,94,33,92c0.6-2.3-1.2-4.4-3.6-4.2c-1.3,0.1-1.7,0.6-1.4,1.8 c0.1,0.5,0.1,1.1,0.4,1.6c0.5-0.3,0.5-0.9,0.9-1.4c0.2,1,0,1.8-0.4,2.5c-0.1,0.2-0.2,0.4-0.4,0.5c-0.3,0.3-0.4,0.9-0.1,1.1 c0.4,0.3,0.6-0.3,0.9-0.5c0.9-1,1.1-2.4,1.6-3.6c0.2,1.5,0,2.9-1,4.1c0,0.1-0.1,0.1-0.1,0.1C29.7,94.7,29.2,95.1,28.7,95.4z"/><path class="st4" d="M27.7,108.3c2.8-0.9,4.9-3.4,5-5.9c0-0.3,0.3-0.9-0.3-1c-0.6-0.1-0.5,0.5-0.6,0.9c-0.2,1.1-0.4,2.1-1,3.1 c-1,1.6-2.7,2.4-4.7,2c1.5-0.1,2.6-1,3.5-2c0.9-1,1.2-2.3,0.9-3.7c-0.9,2.1-2,4.1-5,4.3c0.9-0.5,1.5-1.1,2.2-1.6 c1-0.7,1.1-1.8,1.3-2.8c0-0.3,0.1-0.7-0.4-0.8c-0.4,0-0.5,0.3-0.5,0.7c-0.3,1.6-1.2,2.7-2.7,3.3c-0.2,0.1-0.4,0.1-0.6,0.2 c-0.1,0-0.2,0-0.5-0.1c1.2-0.6,1.9-1.4,2.4-2.4c0.3-0.6,0.4-0.8-0.3-1c-0.4-0.1-0.7-0.4-0.5-0.8c0.2-0.5,0.5-0.3,0.9,0 c0.8,0.5,0.8-0.5,1.3-0.7c0.4-0.1,0.1-0.7-0.2-0.9c-0.8-0.7-1.6-0.8-2.5-0.2c-0.8,0.5-1.5,0.8-2.4,0.2c-0.8-0.5-1.7,0.3-1.9,1.4 c-0.4,3.1,1.2,6,4.1,7.6c0.4,0.2,0.8,0.4,1.1,0.7C26.7,108.9,27.1,108.3,27.7,108.3"/><path class="st5" d="M27.7,108.3c2.8-0.9,4.9-3.4,5-5.9c0-0.3,0.3-0.9-0.3-1c-0.6-0.1-0.5,0.5-0.6,0.9c-0.2,1.1-0.4,2.1-1,3.1 c-1,1.6-2.7,2.4-4.7,2c1.5-0.1,2.6-1,3.5-2c0.9-1,1.2-2.3,0.9-3.7c-0.9,2.1-2,4.1-5,4.3c0.9-0.5,1.5-1.1,2.2-1.6 c1-0.7,1.1-1.8,1.3-2.8c0-0.3,0.1-0.7-0.4-0.8c-0.4,0-0.5,0.3-0.5,0.7c-0.3,1.6-1.2,2.7-2.7,3.3c-0.2,0.1-0.4,0.1-0.6,0.2 c-0.1,0-0.2,0-0.5-0.1c1.2-0.6,1.9-1.4,2.4-2.4c0.3-0.6,0.4-0.8-0.3-1c-0.4-0.1-0.7-0.4-0.5-0.8c0.2-0.5,0.5-0.3,0.9,0 c0.8,0.5,0.8-0.5,1.3-0.7c0.4-0.1,0.1-0.7-0.2-0.9c-0.8-0.7-1.6-0.8-2.5-0.2c-0.8,0.5-1.5,0.8-2.4,0.2c-0.8-0.5-1.7,0.3-1.9,1.4 c-0.4,3.1,1.2,6,4.1,7.6c0.4,0.2,0.8,0.4,1.1,0.7C26.7,108.9,27.1,108.3,27.7,108.3z"/><path class="st4" d="M37.3,114.9c-1.1,0.7-2,1.6-3.6,2c0.5-0.7,0.8-1.1,1.1-1.5c0.2-0.2,0.4-0.4,0.5-0.6v0c0.1-0.1,0.1-0.1,0.2-0.2 c1-1.1,2.1-2.1,2.9-3.4c-2.2,1.5-3.8,3.6-5.7,5.7c0.6-4.8,5.2-9.2,10.5-10.2c-0.8,2.1-1.3,4.2-3.1,5.6c-0.2,0.2-0.7,0.3-0.5,0.8 c-0.5,0.4-1,0.9-1.5,1.3C37.5,114.1,37.4,114.5,37.3,114.9"/><path class="st5" d="M37.3,114.9c-1.1,0.7-2,1.6-3.6,2c0.5-0.7,0.8-1.1,1.1-1.5c0.2-0.2,0.4-0.4,0.5-0.6v0c0.1-0.1,0.1-0.1,0.2-0.2 c1-1.1,2.1-2.1,2.9-3.4c-2.2,1.5-3.8,3.6-5.7,5.7c0.6-4.8,5.2-9.2,10.5-10.2c-0.8,2.1-1.3,4.2-3.1,5.6c-0.2,0.2-0.7,0.3-0.5,0.8 c-0.5,0.4-1,0.9-1.5,1.3C37.5,114.1,37.4,114.5,37.3,114.9z"/><path class="st4" d="M20.2,125.5c1.2,0.7,2.3,1.5,3.4,2.4c1,0.9,1.9,1.9,2.9,2.9c-0.4-2-1.5-3.7-2.9-5.1c-1.5-1.4-3.2-2.3-5.3-2.6 c-0.3,0-0.6-0.2-0.9-0.2c-0.5,0-1.1-0.6-1.4-0.2c-0.4,0.5,0.3,1,0.6,1.5c1.9,2.7,4.2,4.9,7.5,6.1c0.4,0.1,0.7,0.4,1.3,0.1 c-1.6-1.8-3.6-3.1-5.3-4.8c-0.1-0.1-0.2-0.1-0.2-0.2c-0.2,0-0.3-0.1-0.4-0.3c0,0-0.1-0.1-0.1-0.1c0,0,0.1,0,0.2,0 c0,0.1,0,0.1,0,0.2c0.2-0.1,0.4,0,0.5,0.2C20,125.4,20.1,125.5,20.2,125.5"/><path class="st5" d="M20.2,125.5c1.2,0.7,2.3,1.5,3.4,2.4c1,0.9,1.9,1.9,2.9,2.9c-0.4-2-1.5-3.7-2.9-5.1c-1.5-1.4-3.2-2.3-5.3-2.6 c-0.3,0-0.6-0.2-0.9-0.2c-0.5,0-1.1-0.6-1.4-0.2c-0.4,0.5,0.3,1,0.6,1.5c1.9,2.7,4.2,4.9,7.5,6.1c0.4,0.1,0.7,0.4,1.3,0.1 c-1.6-1.8-3.6-3.1-5.3-4.8c-0.1-0.1-0.2-0.1-0.2-0.2c-0.2,0-0.3-0.1-0.4-0.3c0,0-0.1-0.1-0.1-0.1c0,0,0.1,0,0.2,0 c0,0.1,0,0.1,0,0.2c0.2-0.1,0.4,0,0.5,0.2C20,125.4,20.1,125.5,20.2,125.5z"/><path class="st6" d="M27.7,108.3c-0.6,0-0.9,0.6-1.5,0.6c0.5,2,1.4,4,1.8,6c1.3,5.5,1.5,11.1,0.9,16.8c-0.3,3-0.8,6-1.5,8.9 c-0.1,0.2-0.1,0.5,0,0.6c0.2,0.2,0.5,0,0.7-0.1c0.6-0.3,0.9-0.8,1.1-1.4c1.2-5.9,1.6-11.9,1.4-17.9c-0.1-4-0.7-7.9-2.1-11.6 C28.3,109.5,27.9,108.9,27.7,108.3"/><path class="st7" d="M27.7,108.3c-0.6,0-0.9,0.6-1.5,0.6c0.5,2,1.4,4,1.8,6c1.3,5.5,1.5,11.1,0.9,16.8c-0.3,3-0.8,6-1.5,8.9 c-0.1,0.2-0.1,0.5,0,0.6c0.2,0.2,0.5,0,0.7-0.1c0.6-0.3,0.9-0.8,1.1-1.4c1.2-5.9,1.6-11.9,1.4-17.9c-0.1-4-0.7-7.9-2.1-11.6 C28.3,109.5,27.9,108.9,27.7,108.3z"/><path class="st6" d="M25.8,97.1c1.5-2.5,1.9-5.1,0.9-7.8c-0.7-1.8-2.6-2.5-4.7-2.1c-1.7,0.3-2.8,1.5-2.9,3.1c0,0.3,0,0.6,0.3,0.9 c2.1,1.7,3.4,3.8,3.6,6.5c0,0.1,0.1,0.2,0.2,0.3c0.7-1,0.6-1.4-1-6.6c1.2,0.6,1.5,1.5,2.3,6.3c1-2.9,0.2-5.2-0.8-7.5 C24.8,90.6,25.8,93.6,25.8,97.1"/><path class="st7" d="M25.8,97.1c1.5-2.5,1.9-5.1,0.9-7.8c-0.7-1.8-2.6-2.5-4.7-2.1c-1.7,0.3-2.8,1.5-2.9,3.1c0,0.3,0,0.6,0.3,0.9 c2.1,1.7,3.4,3.8,3.6,6.5c0,0.1,0.1,0.2,0.2,0.3c0.7-1,0.6-1.4-1-6.6c1.2,0.6,1.5,1.5,2.3,6.3c1-2.9,0.2-5.2-0.8-7.5 C24.8,90.6,25.8,93.6,25.8,97.1z"/><path class="st6" d="M40,125.5c-1.4,1.5-3.1,2.5-5,3.4c-0.6,0.3-1.4,0.6-1.3,1.2c0.2,0.6,1,0.2,1.6,0.2c2.6-0.3,4.5-1.7,6-3.7 c0.7-0.9,1.3-1.9,2-2.9c-4.5-1.4-8.4,0.5-9.5,4.6c2.1-0.8,4-2,6-3c0.1-0.2,0.3-0.2,0.5-0.2c0,0,0.1,0,0.1-0.1c0,0-0.1,0.1-0.1,0.1 C40.2,125.3,40.1,125.4,40,125.5"/><path class="st7" d="M40,125.5c-1.4,1.5-3.1,2.5-5,3.4c-0.6,0.3-1.4,0.6-1.3,1.2c0.2,0.6,1,0.2,1.6,0.2c2.6-0.3,4.5-1.7,6-3.7 c0.7-0.9,1.3-1.9,2-2.9c-4.5-1.4-8.4,0.5-9.5,4.6c2.1-0.8,4-2,6-3c0.1-0.2,0.3-0.2,0.5-0.2c0,0,0.1,0,0.1-0.1c0,0-0.1,0.1-0.1,0.1 C40.2,125.3,40.1,125.4,40,125.5z"/><path class="st6" d="M31.6,96.5c0.4,0.6-0.7,0.9-0.2,1.3c0.4,0.3,0.9-0.2,1.4-0.4c0.2-0.1,0.4-0.3,0.6-0.1c0.2,0.3-0.1,0.4-0.3,0.5 c-0.8,0.6-1.7,0.9-2.7,0.9c-0.5,0-1,0.1-1.3,0.5c-0.3,0.4-0.3,0.9,0.3,1c2.3,0.6,5.8,0,6.9-3.2c0.4-1.1,0.2-2.1-0.5-3.1 c-0.9-1.2-1.5-1.2-2.4,0c-1.3,1.6-3,2.6-5,2.9c-0.6,0.1-1.3,0.1-1,0.9c0.2,0.7,0.8,0.7,1.4,0.4C29.8,97.9,30.8,97.4,31.6,96.5"/><path class="st7" d="M31.6,96.5c0.4,0.6-0.7,0.9-0.2,1.3c0.4,0.3,0.9-0.2,1.4-0.4c0.2-0.1,0.4-0.3,0.6-0.1c0.2,0.3-0.1,0.4-0.3,0.5 c-0.8,0.6-1.7,0.9-2.7,0.9c-0.5,0-1,0.1-1.3,0.5c-0.3,0.4-0.3,0.9,0.3,1c2.3,0.6,5.8,0,6.9-3.2c0.4-1.1,0.2-2.1-0.5-3.1 c-0.9-1.2-1.5-1.2-2.4,0c-1.3,1.6-3,2.6-5,2.9c-0.6,0.1-1.3,0.1-1,0.9c0.2,0.7,0.8,0.7,1.4,0.4C29.8,97.9,30.8,97.4,31.6,96.5z"/><path class="st6" d="M27.1,120.8c-2.1-3-5.4-4.5-7-7.6c2,1.9,4.2,3.6,6.5,5.4c-0.2-2.4-2.4-4.9-8.5-7.8 C17.4,114.1,21.7,119.1,27.1,120.8"/><path class="st7" d="M27.1,120.8c-2.1-3-5.4-4.5-7-7.6c2,1.9,4.2,3.6,6.5,5.4c-0.2-2.4-2.4-4.9-8.5-7.8 C17.4,114.1,21.7,119.1,27.1,120.8z"/><path class="st6" d="M14.5,101.3c1-0.6,2.1,0,3.2-0.6c-1.3-0.5-2.5-0.9-3.8-1.7c1.5-0.2,2.5,0.5,3.7,0.6c0.5,0.1,1.1,0.3,1.6,0.4 c0.3,0.1,0.6,0,0.7-0.3c0.1-0.3,0.1-0.5-0.1-0.8c-1.3-1.5-4.9-1.7-6.4-0.4c-1.1,0.9-1.4,2.3-0.7,3.6c0.6,1.1,1.6,1.4,3,1.2 c1.2-0.2,2.2-1,3.5-1.1c0.2,0,0.4-0.2,0.4-0.5c0-0.2-0.2-0.3-0.4-0.4c-0.4-0.2-0.8-0.1-1.2,0C17,101.6,15.7,101.4,14.5,101.3"/><path class="st7" d="M14.5,101.3c1-0.6,2.1,0,3.2-0.6c-1.3-0.5-2.5-0.9-3.8-1.7c1.5-0.2,2.5,0.5,3.7,0.6c0.5,0.1,1.1,0.3,1.6,0.4 c0.3,0.1,0.6,0,0.7-0.3c0.1-0.3,0.1-0.5-0.1-0.8c-1.3-1.5-4.9-1.7-6.4-0.4c-1.1,0.9-1.4,2.3-0.7,3.6c0.6,1.1,1.6,1.4,3,1.2 c1.2-0.2,2.2-1,3.5-1.1c0.2,0,0.4-0.2,0.4-0.5c0-0.2-0.2-0.3-0.4-0.4c-0.4-0.2-0.8-0.1-1.2,0C17,101.6,15.7,101.4,14.5,101.3z"/><path class="st0" d="M22.2,111.9c-1.3-0.6-2.6-1.3-3.8-2.2c-0.5-0.4-1.1-0.7-1.6-1.3c-0.2,1.1,0.1,2,0.3,2.9 c0.6,2.5,1.4,4.9,3.3,6.9c1.3,1.3,2.9,2.1,4.6,2.8c2.7,1.1,3.9,2.8,3.3,5.6c-0.3,1.5,0,3-0.5,4.6c-0.6-0.2-0.7-0.7-0.9-1.1 c-0.5-1.2-1.1-2.3-1.8-3.5c-1.3-2.1-3.1-3.5-5.7-3.9c-1.7-0.2-3.3-0.6-5.2-1c1.1,2.5,2.4,4.5,4.3,6.2c1.7,1.5,3.6,2.7,5.8,3.5 c1.2,0.4,2.1,1.3,2.9,2.1c0.3,0.3,0.3,0.6,0.2,1.1c-0.3,2.5-1.1,5-1.6,7.4c-0.1,0.3-0.2,0.6,0.1,0.9c0.3,0.2,0.6,0,0.8-0.2 c0.8-0.5,1.6-1,2.4-1.5c0.9-0.6,0.9-1.6,1.1-2.5c0.4-1.8,0.7-3.7,1.1-5.5c0.2-1.1,1.1-1.8,2.2-1.8c3.7,0,6.4-1.7,8.4-4.7 c0.9-1.4,1.9-2.6,3.2-3.7c0.3-0.2,0.7-0.4,0.6-0.9c-1.6,0.6-3.3,0.4-5,0.1c-2.8-0.4-4.8,1-6.6,2.9c-0.7,0.8-1.4,1.6-1.8,2.6 c-0.1,0.3-0.3,0.6-0.8,0.8c0-1.7-0.1-3.4,0-5.1c0.1-3.9-0.4-3.5,3.2-5.6c5.1-3,8.3-7.2,9.4-12.9c-0.1-0.1-0.3-0.1-0.4,0 c-1.6,1.1-3.3,1.9-5.1,2.5c-2.8,1-4.5,3-5.8,5.5c-0.4,0.8-0.8,1.7-1.2,2.5c-0.1,0.2-0.2,0.4-0.4,0.4c-0.3,0-0.2-0.3-0.3-0.5 c-0.6-1.8-1.3-3.7-1.9-5.5c-0.2-0.7-0.2-1.1,0.5-1.5c2.2-1.3,3.5-3.2,3.7-5.7c0.1-1.1,0.5-1.8,1.5-2.3c1.8-1,3-2.4,2.7-4.7 c-0.2-1.6-1-2.6-2.5-3.2c-0.6-0.2-0.9-0.5-1-1.2c-0.1-1-0.3-2-0.9-2.9c-1.3-1.8-3.5-2.2-5.5-1c-0.6,0.4-1,0.4-1.7-0.1 c-2.5-1.9-7.1-1.8-8,2.7c-0.1,0.5-0.1,0.8-0.8,0.7c-3.3-0.4-5.4,2.1-4.3,5.2c0.4,1,0.4,1.5-0.4,2.4c-2.1,2.4-1.1,5.1,1.5,6.3 c0.6,0.3,1.3,0.1,2,0c1-0.3,2-0.6,3-1.1c0.6-0.3,1-0.3,1.3,0.5c0.6,2,2,3.4,3.8,4.5c0.6,0.4,1.1,0.9,1.4,1.5 c0.8,1.9,1.4,3.9,1.8,5.9c0,0.2,0,0.5,0,0.7C25.9,114.5,24.3,112.9,22.2,111.9 M26.1,108.9c-0.3-0.4-0.7-0.5-1.1-0.7 c-2.9-1.5-4.5-4.4-4.1-7.6c0.1-1.1,1.1-1.9,1.9-1.4c1,0.6,1.6,0.3,2.4-0.2c0.9-0.6,1.7-0.5,2.5,0.2c0.3,0.2,0.6,0.8,0.2,0.9 c-0.5,0.2-0.5,1.2-1.3,0.7c-0.4-0.2-0.7-0.4-0.9,0c-0.2,0.4,0.1,0.7,0.5,0.8c0.7,0.2,0.6,0.4,0.3,1c-0.5,1-1.2,1.8-2.4,2.4 c0.3,0,0.4,0.1,0.5,0.1c0.2,0,0.4-0.1,0.6-0.2c1.5-0.7,2.4-1.7,2.7-3.3c0.1-0.4,0.1-0.7,0.5-0.7c0.5,0,0.4,0.5,0.4,0.8 c-0.1,1.1-0.3,2.1-1.3,2.8c-0.6,0.5-1.2,1-2.2,1.6c3-0.2,4.1-2.2,5-4.3c0.3,1.4,0,2.7-0.9,3.7c-0.9,1-2,1.8-3.5,2 c2,0.4,3.7-0.4,4.7-2c0.6-1,0.8-2,1-3.1c0.1-0.4,0-0.9,0.6-0.9c0.6,0.1,0.3,0.6,0.3,1c-0.1,2.5-2.2,5-5,5.9 C27.1,108.3,26.7,108.9,26.1,108.9 M28.6,110.1c1.4,3.8,1.9,7.7,2.1,11.6c0.2,6-0.3,12-1.4,17.9c-0.1,0.7-0.5,1.1-1.1,1.4 c-0.2,0.1-0.5,0.3-0.7,0.1c-0.2-0.1-0.1-0.4,0-0.6c0.8-2.9,1.2-5.9,1.5-8.9c0.6-5.6,0.4-11.2-0.9-16.8c-0.5-2.1-1.3-4-1.8-6 c0.6,0,0.9-0.6,1.5-0.6C27.9,108.9,28.3,109.5,28.6,110.1 M23.5,90.3c1,2.3,1.8,4.6,0.8,7.5c-0.8-4.8-1.1-5.6-2.3-6.3 c1.7,5.2,1.7,5.6,1,6.6c-0.1-0.1-0.2-0.2-0.2-0.3c-0.1-2.7-1.5-4.8-3.6-6.5c-0.3-0.2-0.3-0.5-0.3-0.9c0.1-1.6,1.1-2.8,2.9-3.1 c2.2-0.4,4.1,0.3,4.7,2.1c1.1,2.7,0.6,5.3-0.9,7.8C25.8,93.6,24.8,90.6,23.5,90.3 M37.3,114.9c-1.1,0.7-2,1.6-3.6,2 c0.5-0.7,0.8-1.1,1.1-1.5c0.2-0.2,0.4-0.4,0.5-0.6l0,0c0.1-0.1,0.1-0.1,0.2-0.2c1-1.1,2.1-2.1,2.9-3.4c-2.2,1.5-3.8,3.6-5.7,5.7 c0.6-4.8,5.2-9.2,10.5-10.2c-0.8,2.1-1.3,4.2-3.1,5.6c-0.2,0.2-0.8,0.3-0.5,0.8c-0.5,0.4-1,0.9-1.5,1.3 C37.5,114.1,37.4,114.5,37.3,114.9 M38.7,110.6c0,0,0.1,0.2,0.2,0.2c0.2-0.1,0.4-0.2,0.4-0.6C39,110.2,38.8,110.3,38.7,110.6 M40.3,125.1c0,0,0.1-0.1,0.1-0.1C40.3,125,40.2,125.1,40.3,125.1c-0.3-0.1-0.4,0-0.5,0.1c-2,1-3.9,2.2-6,3c1.1-4.1,5-6,9.5-4.6 c-0.7,1-1.2,2-2,2.9c-1.5,1.9-3.4,3.4-6,3.7c-0.6,0.1-1.4,0.4-1.6-0.2c-0.2-0.6,0.7-0.9,1.3-1.2c1.9-0.9,3.6-1.9,5-3.4 C40.1,125.4,40.2,125.3,40.3,125.1 M28.8,98.3c-0.7,0.2-1.2,0.3-1.4-0.4c-0.2-0.8,0.5-0.8,1-0.9c2.1-0.3,3.8-1.3,5-2.9 c0.9-1.2,1.5-1.2,2.4,0c0.7,0.9,0.9,1.9,0.5,3.1c-1.1,3.2-4.6,3.7-6.9,3.2c-0.6-0.2-0.6-0.6-0.3-1c0.3-0.5,0.8-0.5,1.3-0.5 c1,0,1.9-0.3,2.7-0.9c0.2-0.1,0.5-0.2,0.3-0.5c-0.2-0.2-0.4,0-0.6,0.1c-0.4,0.2-0.9,0.8-1.4,0.4c-0.5-0.4,0.6-0.7,0.2-1.3 C30.8,97.4,29.8,97.9,28.8,98.3 M19.9,125.4c-0.1-0.2-0.2-0.3-0.5-0.2c0-0.1,0-0.1,0-0.2c-0.1,0-0.1,0-0.2,0c0,0,0.1,0.1,0.1,0.1 c0.1,0.2,0.2,0.2,0.4,0.3c0.1,0.1,0.2,0.1,0.2,0.2c1.7,1.7,3.7,3,5.3,4.8c-0.6,0.2-0.9,0-1.3-0.1c-3.2-1.2-5.6-3.4-7.5-6.1 c-0.3-0.4-1-0.9-0.6-1.5c0.3-0.4,0.9,0.2,1.4,0.2c0.3,0,0.6,0.2,0.9,0.2c2.1,0.3,3.8,1.2,5.3,2.6c1.5,1.4,2.5,3.1,2.9,5.1 c-1-1-1.8-2-2.9-2.9c-1.1-0.9-2.2-1.7-3.4-2.4C20.1,125.5,20,125.4,19.9,125.4 M18.1,110.8c6.1,2.9,8.3,5.4,8.5,7.8 c-2.3-1.8-4.5-3.4-6.5-5.4c1.6,3.1,4.9,4.6,7,7.6C21.7,119.2,17.4,114.1,18.1,110.8 M16.5,93.1c1.9,0.9,2.9,2.6,4,4 c0,0.2,0.2,0.5-0.1,0.7c-0.2,0.1-0.4-0.1-0.6-0.3c-0.3-0.3-0.5-0.7-0.8-1c-0.9-0.9-1.7-1.9-3.2-1.9c0.8,0.6,1.7,1.3,2.5,1.9 c-1.2,0.4-2.4-0.1-3.6,0.2c-0.1,0-0.4-0.2-0.5-0.4c-0.9-1-1-2.5-0.3-3.6c0.8-1.2,2.2-1.7,3.6-1.3c2,0.6,4.4,3.9,4.4,6.1 c0,0.1-0.1,0.2-0.2,0.3c-0.4-0.2-0.2-0.8-0.7-0.9C20,94.5,18,92.9,16.5,93.1 M18.2,101.4c0.4-0.1,0.8-0.2,1.2,0 c0.2,0.1,0.3,0.2,0.4,0.4c0,0.3-0.1,0.4-0.4,0.5c-1.2,0.1-2.3,0.9-3.5,1.1c-1.5,0.2-2.5-0.1-3-1.2c-0.7-1.4-0.5-2.7,0.7-3.7 c1.5-1.3,5.1-1,6.4,0.4c0.2,0.3,0.2,0.5,0.1,0.8c-0.1,0.3-0.4,0.4-0.7,0.3c-0.5-0.1-1.1-0.3-1.6-0.4c-1.2-0.1-2.2-0.8-3.7-0.6 c1.3,0.8,2.5,1.2,3.8,1.7c-1.1,0.6-2.3,0-3.2,0.6C15.7,101.4,17,101.6,18.2,101.4 M29.9,94.1c0.1,0,0.1-0.1,0.1-0.1 c1-1.2,1.2-2.6,1-4.1c-0.5,1.2-0.7,2.6-1.6,3.6c-0.3,0.2-0.5,0.8-0.9,0.5c-0.3-0.2-0.1-0.7,0.1-1.1c0.1-0.2,0.3-0.4,0.4-0.5 c0.4-0.8,0.6-1.5,0.4-2.5c-0.4,0.5-0.4,1-0.9,1.4c-0.3-0.5-0.3-1-0.4-1.6c-0.3-1.2,0.1-1.7,1.4-1.8c2.3-0.2,4.1,1.9,3.6,4.2 c-0.5,2-2,2.9-3.8,3.6c-0.2,0.1-0.4,0.1-0.5-0.2C29.2,95.1,29.7,94.7,29.9,94.1"/><path class="st2" d="M73.1,60.3c0.7-1.6,1.3-3.2,1.4-5c-0.9,1.8-1.8,3.7-2.8,5.8c-0.5-1.2,0-2.2,0.2-3.1c0.7-2.3,1.5-4.5,2.8-6.6 c0.9-1.5,2.3-2.6,3.4-4c0.5-0.7,0.6,0,0.7,0.3c1.2,4.1,0.4,7.7-2.3,11c-0.4,0.5-0.9,0.9-1.5,1.3c0.9-3.1,2-6.2,2.7-9.3 C76.4,53.9,75.3,57.4,73.1,60.3"/><path class="st8" d="M73.1,60.3c0.7-1.6,1.3-3.2,1.4-5c-0.9,1.8-1.8,3.7-2.8,5.8c-0.5-1.2,0-2.2,0.2-3.1c0.7-2.3,1.5-4.5,2.8-6.6 c0.9-1.5,2.3-2.6,3.4-4c0.5-0.7,0.6,0,0.7,0.3c1.2,4.1,0.4,7.7-2.3,11c-0.4,0.5-0.9,0.9-1.5,1.3c0.9-3.1,2-6.2,2.7-9.3 C76.4,53.9,75.3,57.4,73.1,60.3z"/><path class="st6" d="M67.9,65.6c0-0.4,0.1-0.7,0.1-1.1c0.2-0.2,0.3-0.5,0.5-0.7c1.5,0,1.6,0.1,1.4,1.5c-0.6,3.7,0,7.3,0.6,10.9 c0.8,4.9,2,9.6,3.6,14.3c0.1,0.2,0.2,0.5-0.1,0.9c-1-0.8-2-1.4-2.4-2.7c-1.2-4-2.1-8-2.8-12.1c-0.6-3.6-0.7-7.3-0.9-10.9 C67.9,65.7,67.9,65.7,67.9,65.6"/><path class="st9" d="M67.9,65.6c0-0.4,0.1-0.7,0.1-1.1c0.2-0.2,0.3-0.5,0.5-0.7c1.5,0,1.6,0.1,1.4,1.5c-0.6,3.7,0,7.3,0.6,10.9 c0.8,4.9,2,9.6,3.6,14.3c0.1,0.2,0.2,0.5-0.1,0.9c-1-0.8-2-1.4-2.4-2.7c-1.2-4-2.1-8-2.8-12.1c-0.6-3.6-0.7-7.3-0.9-10.9 C67.9,65.7,67.9,65.7,67.9,65.6z"/><path class="st2" d="M72.3,47.4c-2.2,2.7-3.7,5.7-4.6,9c-0.2-0.8,0.2-1.6,0.3-2.4c0.3-2.2,1.7-3.8,2.7-5.7c0.5-0.9,1-1.8,1.5-2.8 c0.3-0.5,0.6-0.6,0.9-0.1c1,1.7,1.5,3.5,0.5,5.4c-1.6,3-2.7,6.2-3.6,9.5c0,0.1-0.1,0.2-0.1,0.3c-0.6-0.8-0.5-2.2-0.1-3.3 c1.1-2.8,2.1-5.7,3.4-8.5c0-0.1,0-0.2-0.1-0.3c-2.3,2.8-3.2,6.2-4.3,9.7c-0.6-2.2,0.4-3.9,1.1-5.7C70.6,50.9,71.5,49.2,72.3,47.4"/><path class="st8" d="M72.3,47.4c-2.2,2.7-3.7,5.7-4.6,9c-0.2-0.8,0.2-1.6,0.3-2.4c0.3-2.2,1.7-3.8,2.7-5.7c0.5-0.9,1-1.8,1.5-2.8 c0.3-0.5,0.6-0.6,0.9-0.1c1,1.7,1.5,3.5,0.5,5.4c-1.6,3-2.7,6.2-3.6,9.5c0,0.1-0.1,0.2-0.1,0.3c-0.6-0.8-0.5-2.2-0.1-3.3 c1.1-2.8,2.1-5.7,3.4-8.5c0-0.1,0-0.2-0.1-0.3c-2.3,2.8-3.2,6.2-4.3,9.7c-0.6-2.2,0.4-3.9,1.1-5.7C70.6,50.9,71.5,49.2,72.3,47.4z"/><path class="st2" d="M66,46.5c-0.4,0-0.5,0.2-0.5,0.4c-0.8,4-1,7.9,0.5,11.8c0.3,0.8,0.8,1.5,1.3,2.3c0.1,0.2,0.4,0.5,0,0.6 c-0.3,0.2-0.5-0.1-0.6-0.3c-1.1-2.1-2-4.3-2.4-6.6c-0.5-2.7,0-5.4,0.3-8.1c0.1-1,0.2-1.9,0.2-2.9c0.1-0.7,0.4-0.8,1-0.5 c1.6,1,2.9,2.3,3.5,4.2c0.1,0.4,0.2,0.9,0.1,1.3c-0.1,0.4-0.3,0.8-0.7,0.9c-0.4,0.1-0.2-0.6-0.8-0.6c-0.2,1.1,0.5,2.6-1.1,3.4 c0.1-1.1,0.6-1.9,0.6-2.9c0-0.8,0.1-1.6,0.1-2.4c0-0.2,0-0.6-0.3-0.6c-0.5,0-0.4,0.4-0.4,0.6c0.1,1.6-0.4,3.2-0.6,4.7 c0,0.2,0,0.4-0.3,0.6C65.6,50.4,65.9,48.5,66,46.5"/><path class="st8" d="M66,46.5c-0.4,0-0.5,0.2-0.5,0.4c-0.8,4-1,7.9,0.5,11.8c0.3,0.8,0.8,1.5,1.3,2.3c0.1,0.2,0.4,0.5,0,0.6 c-0.3,0.2-0.5-0.1-0.6-0.3c-1.1-2.1-2-4.3-2.4-6.6c-0.5-2.7,0-5.4,0.3-8.1c0.1-1,0.2-1.9,0.2-2.9c0.1-0.7,0.4-0.8,1-0.5 c1.6,1,2.9,2.3,3.5,4.2c0.1,0.4,0.2,0.9,0.1,1.3c-0.1,0.4-0.3,0.8-0.7,0.9c-0.4,0.1-0.2-0.6-0.8-0.6c-0.2,1.1,0.5,2.6-1.1,3.4 c0.1-1.1,0.6-1.9,0.6-2.9c0-0.8,0.1-1.6,0.1-2.4c0-0.2,0-0.6-0.3-0.6c-0.5,0-0.4,0.4-0.4,0.6c0.1,1.6-0.4,3.2-0.6,4.7 c0,0.2,0,0.4-0.3,0.6C65.6,50.4,65.9,48.5,66,46.5z"/><path class="st2" d="M78.9,59c0.4-0.7,0.7-1.5,1.2-2.5c-0.8,0.4-1,1-1.2,1.4c-1.4,2.3-3.2,4.2-5.8,5.1c-0.2,0.1-0.4,0.2-0.6,0.2 c-0.2,0-0.5,0.1-0.6-0.1c-0.1-0.3,0.2-0.4,0.4-0.5c1.6-0.7,3.1-1.5,4.3-2.8c2.2-2.2,3.3-4.8,3.8-7.8c0.3-1.6,0.7-2,2.3-2.3 c0.9-0.1,1.8-0.2,2.6,0.1c0.5,0.2,0.7,0.3,0.2,0.7c-2.5,2-4,4.6-5.4,7.3c-0.2,0.5-0.4,1-0.9,1.3C79.1,59.1,79,59,78.9,59"/><path class="st8" d="M78.9,59c0.4-0.7,0.7-1.5,1.2-2.5c-0.8,0.4-1,1-1.2,1.4c-1.4,2.3-3.2,4.2-5.8,5.1c-0.2,0.1-0.4,0.2-0.6,0.2 c-0.2,0-0.5,0.1-0.6-0.1c-0.1-0.3,0.2-0.4,0.4-0.5c1.6-0.7,3.1-1.5,4.3-2.8c2.2-2.2,3.3-4.8,3.8-7.8c0.3-1.6,0.7-2,2.3-2.3 c0.9-0.1,1.8-0.2,2.6,0.1c0.5,0.2,0.7,0.3,0.2,0.7c-2.5,2-4,4.6-5.4,7.3c-0.2,0.5-0.4,1-0.9,1.3C79.1,59.1,79,59,78.9,59z"/><path class="st2" d="M77.3,61.3c0.5-0.8,1.1-1.5,1.7-2.3c0.1,0.1,0.1,0.1,0.2,0.2c-0.4,0.9-0.9,1.7-1.7,2.2 C77.4,61.3,77.3,61.3,77.3,61.3"/><path class="st6" d="M81.3,66.9c-0.4-0.4-0.9,0.9-1.2-0.2c-0.7,0.7-0.2,1.9-1.3,2.3c-0.2-0.4,0.1-0.9-0.2-1.3 c-0.5,1.1-0.3,2.4-1.3,3.5c0-1-0.1-1.7-0.1-2.5c-0.1,0-0.2,0-0.2,0c-0.2,1.1-0.4,2.2-0.6,3.3c-0.1,0.4,0.1,1.1-0.5,1 c-0.5-0.1-0.2-0.7-0.2-1.1c0-0.2,0-0.4-0.1-0.7c-0.8,1.2,0.3,2.9-1,4c-1.3-3.1,0.6-5.3,2.4-7.4c1.9-2.2,4.4-3.5,7.1-4.6 c0.5-0.2,0.8,0,0.6,0.5c-1.4,5.1-3.2,9.9-8.3,12.7c-0.4,0.2-0.8,0.5-1.4,0.2C76.7,73.3,79,70.1,81.3,66.9"/><path class="st9" d="M81.3,66.9c-0.4-0.4-0.9,0.9-1.2-0.2c-0.7,0.7-0.2,1.9-1.3,2.3c-0.2-0.4,0.1-0.9-0.2-1.3 c-0.5,1.1-0.3,2.4-1.3,3.5c0-1-0.1-1.7-0.1-2.5c-0.1,0-0.2,0-0.2,0c-0.2,1.1-0.4,2.2-0.6,3.3c-0.1,0.4,0.1,1.1-0.5,1 c-0.5-0.1-0.2-0.7-0.2-1.1c0-0.2,0-0.4-0.1-0.7c-0.8,1.2,0.3,2.9-1,4c-1.3-3.1,0.6-5.3,2.4-7.4c1.9-2.2,4.4-3.5,7.1-4.6 c0.5-0.2,0.8,0,0.6,0.5c-1.4,5.1-3.2,9.9-8.3,12.7c-0.4,0.2-0.8,0.5-1.4,0.2C76.7,73.3,79,70.1,81.3,66.9z"/><path class="st6" d="M66.5,72.7c-2.8-2.8-5-6-6.9-9.6c-0.3,0.7-0.5,1.2,0.1,1.6c0.6,0.5-0.1,0.6-0.3,0.9c0.4,0.4,1.3,0.4,1.3,1.1 c0,0.6-0.6,0-0.9,0.4c0.6,0.4,1.4,0.5,1.8,1.1c-1.5,0.8-2,0.6-2.4-0.9c-0.5-1.8-1-3.6-1.4-5.5c-0.1-0.3-0.2-0.6,0.1-0.8 c0.2-0.1,0.5,0.1,0.7,0.2c3.1,1.5,5,4.1,6.4,7C65.8,69.7,66.3,71.2,66.5,72.7"/><path class="st9" d="M66.5,72.7c-2.8-2.8-5-6-6.9-9.6c-0.3,0.7-0.5,1.2,0.1,1.6c0.6,0.5-0.1,0.6-0.3,0.9c0.4,0.4,1.3,0.4,1.3,1.1 c0,0.6-0.6,0-0.9,0.4c0.6,0.4,1.4,0.5,1.8,1.1c-1.5,0.8-2,0.6-2.4-0.9c-0.5-1.8-1-3.6-1.4-5.5c-0.1-0.3-0.2-0.6,0.1-0.8 c0.2-0.1,0.5,0.1,0.7,0.2c3.1,1.5,5,4.1,6.4,7C65.8,69.7,66.3,71.2,66.5,72.7z"/><path class="st6" d="M62.4,72.3c-0.5,0-0.5-0.5-0.7-0.8c-0.1-0.1-0.3-0.4-0.1-0.6c0.2-0.3,0.6-0.1,0.8,0c0.5,0.1,1.1,0.3,1.6,0.4 c0.2,0.1,0.5,0.1,0.4,0.4c0,0.2-0.2,0.3-0.4,0.3C63.4,72,62.9,72,62.4,72.3"/><path class="st9" d="M62.4,72.3c-0.5,0-0.5-0.5-0.7-0.8c-0.1-0.1-0.3-0.4-0.1-0.6c0.2-0.3,0.6-0.1,0.8,0c0.5,0.1,1.1,0.3,1.6,0.4 c0.2,0.1,0.5,0.1,0.4,0.4c0,0.2-0.2,0.3-0.4,0.3C63.4,72,62.9,72,62.4,72.3z"/><path class="st6" d="M60.3,69.2c1-0.3,1.7,0,2.4,0.6c0.2,0.2,0.4,0.4,0,0.6C61.9,70.6,60.7,70,60.3,69.2"/><path class="st9" d="M60.3,69.2c1-0.3,1.7,0,2.4,0.6c0.2,0.2,0.4,0.4,0,0.6C61.9,70.6,60.7,70,60.3,69.2z"/><path class="st6" d="M65.6,73.4c-0.1,0.1-0.1,0.2-0.2,0.2c-0.7-0.1-1.6,0.1-2.2-0.5c-0.1-0.1-0.2-0.3,0-0.4c0.3-0.2,0.6-0.2,0.9,0 C64.6,72.9,65.2,73,65.6,73.4"/><path class="st9" d="M65.6,73.4c-0.1,0.1-0.1,0.2-0.2,0.2c-0.7-0.1-1.6,0.1-2.2-0.5c-0.1-0.1-0.2-0.3,0-0.4c0.3-0.2,0.6-0.2,0.9,0 C64.6,72.9,65.2,73,65.6,73.4z"/><path class="st6" d="M73.6,74.3c0.1,1.2,0.1,2.2-0.2,3.4C73.2,76.5,73.1,75.5,73.6,74.3"/><path class="st9" d="M73.6,74.3c0.1,1.2,0.1,2.2-0.2,3.4C73.2,76.5,73.1,75.5,73.6,74.3z"/><path class="st0" d="M67.4,64.5c-0.4,1.9-0.1,3.8-0.5,5.7c-0.4-0.7-0.7-1.4-1-2c-1.3-2.7-2.9-5.1-5.5-6.8c-1.5-1-3.3-1.5-4.8-2.7 c0,0-0.2,0-0.3,0.1c0.8,1.4,1.4,2.8,1.7,4.4c0.9,4.3,2.5,8.2,5.9,11.2c1.1,1,2.5,1.5,3.7,2.4c0.6,0.4,1.3,0.7,1.4,1.5 c0.5,2.1,1,4.3,1.6,6.4c0.7,2.5,0.8,5.3,3.1,7.1c0.5,0.3,0.8,1.2,1.3,1c0.6-0.3,0.6-1.2,0.6-1.8c0-0.1-0.1-0.3-0.1-0.4 c-0.3-2.2-1-4.4-1.8-6.5c-1.4-3.6,0.4-5.3,2.8-6.6c0.7-0.4,1.6-0.6,2.2-1.1c2.1-1.5,3.7-3.5,4.9-5.7c1.4-2.6,2.4-5.4,2.5-8.5 c-9,2.9-13.4,8.3-13.5,15.3c-0.5-0.6-0.6-0.8-0.7-1.5c-0.6-3.3-0.6-6.6-0.6-9.9c0-0.5,0-1.1,0.4-1.5c0.9,0.2,1.7,0.4,2.6,0.2 c2.7-0.6,4.6-2.3,6.1-4.3c1.3-1.7,2-3.7,3.2-5.4c1.2-1.6,2.3-3.3,4.1-4.4c0.6-0.3,0.3-0.5-0.1-0.7c-1.8-1-3.7-1.3-5.5-0.3 c-1,0.6-1.2,0.2-1.4-0.7c-0.2-1.4-0.6-2.7-0.9-4.1c-1,1.4-2.1,2.5-3.1,3.6c-0.2,0.2-0.3,0.6-0.8,0.5c-0.4-0.1-0.2-0.5-0.3-0.7 c-0.6-1.8-1.2-3.5-2.4-5.1c-0.9,1.5-1.2,3.1-2.5,4.4c-1.2-2.4-2.7-4.5-5.2-5.7c-0.3-0.1-0.6-0.5-0.9-0.3c-0.4,0.2-0.2,0.6-0.2,0.9 c-0.1,2.5-0.2,5-0.5,7.6c-0.6,4.8,0.4,9.4,3.5,13.3C67.2,63.4,67.4,63.9,67.4,64.5 M73.1,60.3c0.7-1.6,1.3-3.2,1.4-5 c-0.9,1.8-1.8,3.7-2.8,5.7c-0.5-1.2,0-2.2,0.2-3.1c0.7-2.3,1.5-4.5,2.8-6.6c0.9-1.5,2.3-2.6,3.4-4c0.5-0.7,0.6,0,0.7,0.3 c1.2,4.1,0.4,7.7-2.3,11c-0.4,0.5-0.9,0.9-1.5,1.3c0.9-3.1,2-6.2,2.7-9.4C76.4,53.9,75.3,57.4,73.1,60.3 M67.9,65.6 c0-0.4,0.1-0.7,0.1-1.1c0.2-0.2,0.3-0.5,0.5-0.7c1.5,0,1.6,0.1,1.4,1.5c-0.6,3.7,0,7.3,0.6,10.9c0.8,4.9,2,9.6,3.6,14.3 c0.1,0.2,0.2,0.5-0.1,0.9c-1-0.8-2-1.4-2.4-2.7c-1.2-4-2.1-8-2.8-12.1c-0.6-3.6-0.7-7.3-0.9-10.9C67.9,65.7,67.9,65.7,67.9,65.6 M72.3,47.4c-2.2,2.7-3.7,5.7-4.6,9c-0.2-0.8,0.2-1.6,0.3-2.4c0.3-2.2,1.7-3.8,2.7-5.7c0.5-0.9,1-1.8,1.5-2.8 c0.3-0.5,0.6-0.6,0.9-0.1c1,1.7,1.5,3.5,0.5,5.4c-1.6,3-2.7,6.2-3.6,9.5c0,0.1-0.1,0.2-0.1,0.3c-0.6-0.8-0.5-2.2-0.1-3.3 c1.1-2.8,2.1-5.7,3.4-8.5c0-0.1,0-0.2-0.1-0.3c-2.3,2.8-3.2,6.2-4.3,9.7c-0.6-2.2,0.4-3.9,1.1-5.7C70.6,50.9,71.5,49.2,72.3,47.4 M66,46.5c-0.4,0-0.5,0.2-0.5,0.4c-0.8,4-1,7.9,0.5,11.8c0.3,0.8,0.8,1.5,1.3,2.3c0.1,0.2,0.4,0.5,0,0.6c-0.3,0.2-0.5-0.1-0.6-0.3 c-1.1-2.1-2-4.3-2.4-6.6c-0.5-2.7,0-5.4,0.3-8.1c0.1-1,0.2-1.9,0.2-2.9c0.1-0.7,0.4-0.8,1-0.5c1.6,1,3,2.3,3.5,4.2 c0.1,0.4,0.2,0.9,0.1,1.3c-0.1,0.4-0.3,0.8-0.7,0.9c-0.4,0.1-0.2-0.6-0.8-0.6c-0.2,1.1,0.5,2.6-1.1,3.4c0.1-1.1,0.6-1.9,0.6-2.9 c0-0.8,0.1-1.6,0.1-2.4c0-0.2,0-0.6-0.3-0.6c-0.5,0-0.4,0.4-0.4,0.6c0.1,1.6-0.4,3.2-0.6,4.7c0,0.2,0,0.4-0.3,0.6 C65.6,50.4,65.9,48.5,66,46.5 M78.9,59c0.4-0.7,0.7-1.5,1.2-2.5c-0.8,0.4-1,1-1.2,1.4c-1.4,2.3-3.2,4.2-5.8,5.1 c-0.2,0.1-0.4,0.2-0.6,0.2c-0.2,0-0.5,0.1-0.6-0.1c-0.1-0.3,0.2-0.4,0.4-0.5c1.6-0.7,3.1-1.5,4.4-2.8c2.2-2.2,3.3-4.8,3.8-7.8 c0.3-1.6,0.7-2,2.3-2.3c0.9-0.1,1.8-0.2,2.6,0.1c0.5,0.2,0.7,0.3,0.2,0.7c-2.5,2-4,4.6-5.4,7.3c-0.2,0.5-0.4,1-0.9,1.3 C79.1,59.1,79,59,78.9,59 M77.3,61.3c0.6-0.8,1.1-1.5,1.7-2.3c0.1,0.1,0.2,0.1,0.2,0.2c-0.4,0.9-0.9,1.7-1.7,2.2 C77.4,61.3,77.3,61.3,77.3,61.3 M81.3,66.9c-0.4-0.4-0.9,0.9-1.2-0.2c-0.7,0.7-0.2,1.9-1.3,2.3c-0.2-0.4,0.1-0.9-0.2-1.3 c-0.5,1.1-0.3,2.4-1.3,3.5c0-1-0.1-1.7-0.1-2.5c-0.1,0-0.2,0-0.2,0c-0.2,1.1-0.4,2.2-0.6,3.3c-0.1,0.4,0.1,1.1-0.5,1 c-0.5-0.1-0.2-0.7-0.2-1.1c0-0.2,0-0.4-0.1-0.7c-0.8,1.2,0.3,2.9-1,4c-1.3-3.1,0.6-5.3,2.4-7.4c1.9-2.2,4.4-3.5,7.1-4.6 c0.5-0.2,0.8,0,0.6,0.5c-1.4,5.1-3.2,9.9-8.3,12.7c-0.4,0.2-0.8,0.5-1.4,0.2C76.7,73.3,79,70.1,81.3,66.9 M66.5,72.7 c-2.8-2.8-5-6-6.9-9.6c-0.3,0.7-0.5,1.2,0.1,1.6c0.6,0.5-0.1,0.6-0.3,0.9c0.4,0.4,1.3,0.4,1.3,1.1c0,0.6-0.6,0-0.9,0.4 c0.6,0.4,1.4,0.5,1.8,1.1c-1.5,0.8-2,0.6-2.4-0.9c-0.5-1.8-1-3.6-1.4-5.5c-0.1-0.3-0.2-0.6,0.1-0.8c0.2-0.1,0.5,0.1,0.7,0.2 c3.1,1.5,5,4.1,6.4,7C65.8,69.7,66.3,71.2,66.5,72.7 M62.4,72.3c-0.5,0-0.5-0.5-0.7-0.8c-0.1-0.1-0.3-0.4-0.1-0.6 c0.2-0.3,0.6-0.1,0.8,0c0.5,0.1,1.1,0.3,1.6,0.4c0.2,0.1,0.5,0.1,0.4,0.4c0,0.2-0.2,0.3-0.4,0.3C63.4,72,62.9,72,62.4,72.3 M60.3,69.2c1-0.3,1.7,0,2.4,0.6c0.2,0.2,0.4,0.4,0,0.6C61.9,70.6,60.7,70,60.3,69.2 M65.6,73.4c-0.1,0.1-0.1,0.2-0.2,0.2 c-0.7-0.1-1.6,0.1-2.2-0.5c-0.1-0.1-0.2-0.3,0-0.4c0.3-0.2,0.6-0.2,0.9,0C64.6,72.9,65.2,73,65.6,73.4 M73.6,74.3 c0.1,1.2,0.1,2.2-0.2,3.4C73.2,76.5,73.1,75.5,73.6,74.3"/><path class="st2" d="M69.6,177.1c-0.7,1.6-1.3,3.2-1.4,5c0.9-1.8,1.8-3.7,2.8-5.8c0.5,1.2,0,2.2-0.2,3.1c-0.7,2.3-1.5,4.5-2.8,6.6 c-0.9,1.5-2.3,2.6-3.4,4c-0.5,0.7-0.6,0-0.7-0.3c-1.2-4.1-0.4-7.7,2.3-11c0.4-0.5,0.9-0.9,1.5-1.3c-0.9,3.1-2,6.2-2.7,9.3 C66.3,183.4,67.4,179.9,69.6,177.1"/><path class="st8" d="M69.6,177.1c-0.7,1.6-1.3,3.2-1.4,5c0.9-1.8,1.8-3.7,2.8-5.8c0.5,1.2,0,2.2-0.2,3.1c-0.7,2.3-1.5,4.5-2.8,6.6 c-0.9,1.5-2.3,2.6-3.4,4c-0.5,0.7-0.6,0-0.7-0.3c-1.2-4.1-0.4-7.7,2.3-11c0.4-0.5,0.9-0.9,1.5-1.3c-0.9,3.1-2,6.2-2.7,9.3 C66.3,183.4,67.4,179.9,69.6,177.1z"/><path class="st6" d="M74.9,171.7c0,0.4-0.1,0.7-0.1,1.1c-0.2,0.2-0.3,0.5-0.5,0.7c-1.5,0-1.6-0.1-1.4-1.5c0.6-3.7,0-7.3-0.6-10.9 c-0.8-4.9-2-9.6-3.6-14.3c-0.1-0.2-0.2-0.5,0.1-0.9c1,0.8,2,1.4,2.4,2.7c1.2,4,2.1,8,2.8,12.1c0.6,3.6,0.7,7.3,0.9,10.9 C74.8,171.6,74.8,171.7,74.9,171.7"/><path class="st9" d="M74.9,171.7c0,0.4-0.1,0.7-0.1,1.1c-0.2,0.2-0.3,0.5-0.5,0.7c-1.5,0-1.6-0.1-1.4-1.5c0.6-3.7,0-7.3-0.6-10.9 c-0.8-4.9-2-9.6-3.6-14.3c-0.1-0.2-0.2-0.5,0.1-0.9c1,0.8,2,1.4,2.4,2.7c1.2,4,2.1,8,2.8,12.1c0.6,3.6,0.7,7.3,0.9,10.9 C74.8,171.6,74.8,171.7,74.9,171.7z"/><path class="st2" d="M70.4,189.9c2.2-2.7,3.7-5.7,4.6-9c0.2,0.8-0.2,1.6-0.3,2.4c-0.3,2.2-1.7,3.8-2.7,5.7c-0.5,0.9-1,1.8-1.5,2.8 c-0.3,0.5-0.6,0.6-0.9,0.1c-1-1.7-1.5-3.5-0.5-5.4c1.6-3,2.7-6.2,3.6-9.5c0-0.1,0.1-0.2,0.1-0.3c0.6,0.8,0.5,2.2,0.1,3.3 c-1.1,2.8-2.1,5.7-3.4,8.5c0,0.1,0,0.2,0.1,0.3c2.3-2.8,3.2-6.2,4.3-9.7c0.6,2.2-0.4,3.9-1.1,5.7C72.1,186.5,71.2,188.1,70.4,189.9"/><path class="st8" d="M70.4,189.9c2.2-2.7,3.7-5.7,4.6-9c0.2,0.8-0.2,1.6-0.3,2.4c-0.3,2.2-1.7,3.8-2.7,5.7c-0.5,0.9-1,1.8-1.5,2.8 c-0.3,0.5-0.6,0.6-0.9,0.1c-1-1.7-1.5-3.5-0.5-5.4c1.6-3,2.7-6.2,3.6-9.5c0-0.1,0.1-0.2,0.1-0.3c0.6,0.8,0.5,2.2,0.1,3.3 c-1.1,2.8-2.1,5.7-3.4,8.5c0,0.1,0,0.2,0.1,0.3c2.3-2.8,3.2-6.2,4.3-9.7c0.6,2.2-0.4,3.9-1.1,5.7C72.1,186.5,71.2,188.1,70.4,189.9 z"/><path class="st2" d="M76.7,190.8c0.4,0,0.5-0.2,0.5-0.4c0.8-4,1-7.9-0.5-11.8c-0.3-0.8-0.8-1.5-1.3-2.3c-0.1-0.2-0.4-0.5,0-0.6 c0.3-0.2,0.5,0.1,0.6,0.3c1.1,2.1,2,4.3,2.4,6.6c0.5,2.7,0,5.4-0.3,8.1c-0.1,1-0.1,2-0.2,2.9c-0.1,0.7-0.4,0.8-1,0.5 c-1.6-1-2.9-2.3-3.5-4.2c-0.1-0.4-0.2-0.9-0.1-1.3c0.1-0.4,0.3-0.8,0.7-0.9c0.4-0.1,0.2,0.6,0.8,0.6c0.2-1.1-0.5-2.6,1.1-3.4 c-0.1,1.1-0.6,1.9-0.6,2.9c0,0.8-0.1,1.6-0.1,2.4c0,0.2,0,0.6,0.3,0.6c0.5,0,0.4-0.4,0.4-0.6c-0.1-1.6,0.4-3.2,0.6-4.7 c0-0.2,0-0.4,0.3-0.6C77.1,186.9,76.8,188.8,76.7,190.8"/><path class="st8" d="M76.7,190.8c0.4,0,0.5-0.2,0.5-0.4c0.8-4,1-7.9-0.5-11.8c-0.3-0.8-0.8-1.5-1.3-2.3c-0.1-0.2-0.4-0.5,0-0.6 c0.3-0.2,0.5,0.1,0.6,0.3c1.1,2.1,2,4.3,2.4,6.6c0.5,2.7,0,5.4-0.3,8.1c-0.1,1-0.1,2-0.2,2.9c-0.1,0.7-0.4,0.8-1,0.5 c-1.6-1-2.9-2.3-3.5-4.2c-0.1-0.4-0.2-0.9-0.1-1.3c0.1-0.4,0.3-0.8,0.7-0.9c0.4-0.1,0.2,0.6,0.8,0.6c0.2-1.1-0.5-2.6,1.1-3.4 c-0.1,1.1-0.6,1.9-0.6,2.9c0,0.8-0.1,1.6-0.1,2.4c0,0.2,0,0.6,0.3,0.6c0.5,0,0.4-0.4,0.4-0.6c-0.1-1.6,0.4-3.2,0.6-4.7 c0-0.2,0-0.4,0.3-0.6C77.1,186.9,76.8,188.8,76.7,190.8z"/><path class="st2" d="M63.8,178.4c-0.4,0.7-0.7,1.5-1.2,2.5c0.8-0.4,1-1,1.2-1.4c1.4-2.3,3.2-4.2,5.8-5.1c0.2-0.1,0.4-0.2,0.6-0.2 c0.2,0,0.5-0.1,0.6,0.1c0.1,0.3-0.2,0.4-0.4,0.5c-1.6,0.7-3.1,1.5-4.3,2.8c-2.2,2.2-3.3,4.8-3.8,7.8c-0.3,1.6-0.7,2-2.3,2.3 c-0.9,0.1-1.8,0.2-2.6-0.1c-0.5-0.2-0.7-0.3-0.2-0.7c2.5-2,4-4.6,5.4-7.3c0.2-0.5,0.4-1,0.9-1.3C63.7,178.2,63.7,178.3,63.8,178.4"/><path class="st8" d="M63.8,178.4c-0.4,0.7-0.7,1.5-1.2,2.5c0.8-0.4,1-1,1.2-1.4c1.4-2.3,3.2-4.2,5.8-5.1c0.2-0.1,0.4-0.2,0.6-0.2 c0.2,0,0.5-0.1,0.6,0.1c0.1,0.3-0.2,0.4-0.4,0.5c-1.6,0.7-3.1,1.5-4.3,2.8c-2.2,2.2-3.3,4.8-3.8,7.8c-0.3,1.6-0.7,2-2.3,2.3 c-0.9,0.1-1.8,0.2-2.6-0.1c-0.5-0.2-0.7-0.3-0.2-0.7c2.5-2,4-4.6,5.4-7.3c0.2-0.5,0.4-1,0.9-1.3C63.7,178.2,63.7,178.3,63.8,178.4z"/><path class="st2" d="M65.5,176.1c-0.6,0.8-1.1,1.5-1.7,2.3c-0.1-0.1-0.2-0.1-0.2-0.2c0.4-0.9,0.9-1.7,1.7-2.2 C65.4,176,65.4,176,65.5,176.1"/><path class="st6" d="M61.5,170.4c0.4,0.4,0.9-0.9,1.2,0.2c0.7-0.7,0.2-1.9,1.3-2.3c0.2,0.4-0.1,0.9,0.2,1.3 c0.5-1.1,0.3-2.4,1.3-3.5c0,1,0.1,1.7,0.1,2.5c0.1,0,0.2,0,0.2,0c0.2-1.1,0.4-2.2,0.6-3.3c0.1-0.4-0.1-1.1,0.5-1 c0.5,0.1,0.2,0.7,0.2,1.1c0,0.2,0,0.4,0.1,0.7c0.8-1.2-0.3-2.9,1-4c1.3,3.1-0.6,5.3-2.4,7.4c-1.9,2.2-4.4,3.5-7.1,4.6 c-0.5,0.2-0.8,0-0.6-0.5c1.4-5.1,3.2-9.9,8.3-12.7c0.4-0.2,0.8-0.5,1.4-0.2C66,164.1,63.7,167.2,61.5,170.4"/><path class="st9" d="M61.5,170.4c0.4,0.4,0.9-0.9,1.2,0.2c0.7-0.7,0.2-1.9,1.3-2.3c0.2,0.4-0.1,0.9,0.2,1.3 c0.5-1.1,0.3-2.4,1.3-3.5c0,1,0.1,1.7,0.1,2.5c0.1,0,0.2,0,0.2,0c0.2-1.1,0.4-2.2,0.6-3.3c0.1-0.4-0.1-1.1,0.5-1 c0.5,0.1,0.2,0.7,0.2,1.1c0,0.2,0,0.4,0.1,0.7c0.8-1.2-0.3-2.9,1-4c1.3,3.1-0.6,5.3-2.4,7.4c-1.9,2.2-4.4,3.5-7.1,4.6 c-0.5,0.2-0.8,0-0.6-0.5c1.4-5.1,3.2-9.9,8.3-12.7c0.4-0.2,0.8-0.5,1.4-0.2C66,164.1,63.7,167.2,61.5,170.4z"/><path class="st6" d="M76.2,164.6c2.8,2.8,5,6,6.9,9.6c0.3-0.7,0.5-1.2-0.1-1.6c-0.6-0.5,0.1-0.6,0.3-0.9c-0.4-0.4-1.3-0.4-1.3-1.1 c0-0.6,0.6,0,0.9-0.4c-0.6-0.4-1.4-0.5-1.8-1.1c1.5-0.8,2-0.6,2.4,0.9c0.5,1.8,1,3.6,1.4,5.5c0.1,0.3,0.2,0.6-0.1,0.8 c-0.2,0.1-0.5-0.1-0.7-0.2c-3.1-1.5-5-4.1-6.4-7C77,167.6,76.4,166.2,76.2,164.6"/><path class="st9" d="M76.2,164.6c2.8,2.8,5,6,6.9,9.6c0.3-0.7,0.5-1.2-0.1-1.6c-0.6-0.5,0.1-0.6,0.3-0.9c-0.4-0.4-1.3-0.4-1.3-1.1 c0-0.6,0.6,0,0.9-0.4c-0.6-0.4-1.4-0.5-1.8-1.1c1.5-0.8,2-0.6,2.4,0.9c0.5,1.8,1,3.6,1.4,5.5c0.1,0.3,0.2,0.6-0.1,0.8 c-0.2,0.1-0.5-0.1-0.7-0.2c-3.1-1.5-5-4.1-6.4-7C77,167.6,76.4,166.2,76.2,164.6z"/><path class="st6" d="M80.3,165.1c0.5,0,0.5,0.5,0.7,0.8c0.1,0.1,0.3,0.4,0.1,0.6c-0.2,0.3-0.6,0.1-0.8,0c-0.5-0.1-1.1-0.3-1.6-0.4 c-0.2-0.1-0.5-0.1-0.4-0.4c0-0.2,0.2-0.3,0.4-0.3C79.3,165.4,79.8,165.3,80.3,165.1"/><path class="st9" d="M80.3,165.1c0.5,0,0.5,0.5,0.7,0.8c0.1,0.1,0.3,0.4,0.1,0.6c-0.2,0.3-0.6,0.1-0.8,0c-0.5-0.1-1.1-0.3-1.6-0.4 c-0.2-0.1-0.5-0.1-0.4-0.4c0-0.2,0.2-0.3,0.4-0.3C79.3,165.4,79.8,165.3,80.3,165.1z"/><path class="st6" d="M82.4,168.1c-1,0.3-1.7,0-2.4-0.6c-0.2-0.2-0.4-0.4,0-0.6C80.8,166.7,82.1,167.3,82.4,168.1"/><path class="st9" d="M82.4,168.1c-1,0.3-1.7,0-2.4-0.6c-0.2-0.2-0.4-0.4,0-0.6C80.8,166.7,82.1,167.3,82.4,168.1z"/><path class="st6" d="M77.2,163.9c0.1-0.1,0.1-0.2,0.2-0.2c0.7,0.1,1.6-0.1,2.2,0.5c0.1,0.1,0.2,0.3,0,0.4c-0.3,0.2-0.6,0.2-0.9,0 C78.1,164.4,77.5,164.4,77.2,163.9"/><path class="st9" d="M77.2,163.9c0.1-0.1,0.1-0.2,0.2-0.2c0.7,0.1,1.6-0.1,2.2,0.5c0.1,0.1,0.2,0.3,0,0.4c-0.3,0.2-0.6,0.2-0.9,0 C78.1,164.4,77.5,164.4,77.2,163.9z"/><path class="st6" d="M69.2,163.1c-0.1-1.2-0.1-2.2,0.2-3.4C69.5,160.9,69.6,161.8,69.2,163.1"/><path class="st9" d="M69.2,163.1c-0.1-1.2-0.1-2.2,0.2-3.4C69.5,160.9,69.6,161.8,69.2,163.1z"/><path class="st0" d="M75.3,172.8c0.4-1.9,0.2-3.8,0.5-5.7c0.4,0.7,0.7,1.4,1,2c1.3,2.7,2.9,5.1,5.5,6.8c1.5,1,3.3,1.5,4.8,2.7 c0,0,0.2,0,0.3-0.1c-0.8-1.4-1.4-2.8-1.7-4.4c-0.9-4.3-2.5-8.2-5.9-11.2c-1.1-1-2.5-1.5-3.7-2.4c-0.6-0.4-1.3-0.7-1.4-1.5 c-0.5-2.1-1-4.3-1.6-6.4c-0.7-2.5-0.8-5.3-3.1-7.1c-0.5-0.3-0.8-1.2-1.3-1c-0.6,0.3-0.6,1.2-0.6,1.8c0,0.1,0.1,0.3,0.1,0.4 c0.3,2.2,1,4.4,1.8,6.5c1.4,3.6-0.4,5.3-2.8,6.6c-0.7,0.4-1.6,0.6-2.2,1.1c-2.1,1.5-3.7,3.5-4.9,5.7c-1.4,2.6-2.4,5.4-2.5,8.5 c9-2.9,13.4-8.3,13.5-15.3c0.5,0.6,0.6,0.8,0.7,1.5c0.6,3.3,0.6,6.6,0.6,9.9c0,0.5,0,1.1-0.4,1.5c-0.9-0.2-1.7-0.4-2.6-0.2 c-2.7,0.6-4.6,2.3-6.1,4.3c-1.3,1.7-2,3.7-3.2,5.4c-1.2,1.6-2.3,3.3-4.1,4.4c-0.6,0.3-0.3,0.5,0.1,0.7c1.8,1,3.7,1.3,5.5,0.3 c1-0.6,1.2-0.2,1.4,0.7c0.2,1.4,0.6,2.7,0.9,4.1c1-1.4,2.1-2.5,3.1-3.6c0.2-0.2,0.3-0.6,0.8-0.5c0.4,0.1,0.2,0.5,0.3,0.7 c0.6,1.8,1.2,3.5,2.4,5.1c0.9-1.5,1.2-3.2,2.5-4.4c1.2,2.4,2.7,4.5,5.2,5.7c0.3,0.1,0.6,0.5,0.9,0.3c0.4-0.2,0.2-0.6,0.2-0.9 c0.1-2.5,0.2-5,0.5-7.6c0.6-4.8-0.4-9.4-3.5-13.3C75.5,173.9,75.3,173.4,75.3,172.8 M69.6,177.1c-0.7,1.6-1.3,3.2-1.4,5 c0.9-1.8,1.8-3.7,2.8-5.7c0.5,1.2,0,2.2-0.2,3.1c-0.7,2.3-1.5,4.5-2.8,6.6c-0.9,1.5-2.3,2.6-3.4,4c-0.5,0.7-0.6,0-0.7-0.3 c-1.2-4.1-0.4-7.7,2.3-11c0.4-0.5,0.9-0.9,1.5-1.3c-0.9,3.1-2,6.2-2.7,9.4C66.3,183.4,67.4,179.9,69.6,177.1 M74.9,171.7 c0,0.4-0.1,0.7-0.1,1.1c-0.2,0.2-0.3,0.5-0.5,0.7c-1.5,0-1.6-0.1-1.4-1.5c0.6-3.7,0-7.3-0.6-10.9c-0.8-4.9-2-9.6-3.6-14.3 c-0.1-0.2-0.2-0.5,0.1-0.9c1,0.8,2,1.4,2.4,2.7c1.2,4,2.1,8,2.8,12.1c0.6,3.6,0.7,7.3,0.9,10.9C74.8,171.6,74.8,171.7,74.9,171.7 M70.4,189.9c2.2-2.7,3.7-5.7,4.6-9c0.2,0.8-0.2,1.6-0.3,2.4c-0.3,2.2-1.7,3.8-2.7,5.7c-0.5,0.9-1,1.8-1.5,2.8 c-0.3,0.5-0.6,0.6-0.9,0.1c-1-1.7-1.5-3.5-0.5-5.4c1.6-3,2.7-6.2,3.6-9.5c0-0.1,0.1-0.2,0.1-0.3c0.6,0.8,0.5,2.2,0.1,3.3 c-1.1,2.8-2.1,5.7-3.4,8.5c0,0.1,0,0.2,0.1,0.3c2.3-2.8,3.2-6.2,4.3-9.7c0.6,2.2-0.4,3.9-1.1,5.7C72.1,186.5,71.2,188.1,70.4,189.9 M76.7,190.8c0.4,0,0.5-0.2,0.5-0.4c0.8-4,1-7.9-0.5-11.8c-0.3-0.8-0.8-1.5-1.3-2.3c-0.1-0.2-0.4-0.5,0-0.6 c0.3-0.2,0.5,0.1,0.6,0.3c1.1,2.1,2,4.3,2.4,6.6c0.5,2.7,0,5.4-0.3,8.1c-0.1,1-0.2,1.9-0.2,2.9c-0.1,0.7-0.4,0.8-1,0.5 c-1.6-1-3-2.3-3.5-4.2c-0.1-0.4-0.2-0.9-0.1-1.3c0.1-0.4,0.3-0.8,0.7-0.9c0.4-0.1,0.2,0.6,0.8,0.6c0.2-1.1-0.5-2.6,1.1-3.4 c-0.1,1.1-0.6,1.9-0.6,2.9c0,0.8-0.1,1.6-0.1,2.4c0,0.2,0,0.6,0.3,0.6c0.5,0,0.4-0.4,0.4-0.6c-0.1-1.6,0.4-3.2,0.6-4.7 c0-0.2,0-0.4,0.3-0.6C77.1,186.9,76.8,188.8,76.7,190.8 M63.8,178.4c-0.4,0.7-0.7,1.5-1.2,2.5c0.8-0.4,1-1,1.2-1.4 c1.4-2.3,3.2-4.2,5.8-5.1c0.2-0.1,0.4-0.2,0.6-0.2c0.2,0,0.5-0.1,0.6,0.1c0.1,0.3-0.2,0.4-0.4,0.5c-1.6,0.7-3.1,1.5-4.4,2.8 c-2.2,2.2-3.3,4.8-3.8,7.8c-0.3,1.6-0.7,2-2.3,2.3c-0.9,0.1-1.8,0.2-2.6-0.1c-0.5-0.2-0.7-0.3-0.2-0.7c2.5-2,4-4.6,5.4-7.3 c0.2-0.5,0.4-1,0.9-1.3C63.7,178.2,63.7,178.3,63.8,178.4 M65.5,176.1c-0.5,0.8-1.1,1.5-1.6,2.3c-0.1-0.1-0.2-0.1-0.2-0.2 c0.4-0.9,0.9-1.7,1.7-2.2C65.4,176,65.4,176,65.5,176.1 M61.5,170.4c0.4,0.4,0.9-0.9,1.2,0.2c0.7-0.7,0.2-1.9,1.3-2.3 c0.2,0.4-0.1,0.9,0.2,1.3c0.5-1.1,0.3-2.4,1.3-3.5c0,1,0.1,1.7,0.1,2.5c0.1,0,0.2,0,0.2,0c0.2-1.1,0.4-2.2,0.6-3.3 c0.1-0.4-0.1-1.1,0.5-1c0.5,0.1,0.2,0.7,0.2,1.1c0,0.2,0,0.4,0.1,0.7c0.8-1.2-0.3-2.9,1-4c1.3,3.1-0.6,5.3-2.4,7.4 c-1.9,2.2-4.4,3.5-7.1,4.6c-0.5,0.2-0.8,0-0.6-0.5c1.4-5.1,3.2-9.9,8.3-12.7c0.4-0.2,0.8-0.5,1.4-0.2 C66,164.1,63.7,167.2,61.5,170.4 M76.2,164.6c2.8,2.8,5,6,6.9,9.6c0.3-0.7,0.5-1.2-0.1-1.6c-0.6-0.5,0.1-0.6,0.3-0.9 c-0.4-0.4-1.3-0.4-1.3-1.1c0-0.6,0.6,0,0.9-0.4c-0.6-0.4-1.4-0.5-1.8-1.1c1.5-0.8,2-0.6,2.4,0.9c0.5,1.8,1,3.6,1.4,5.5 c0.1,0.3,0.2,0.6-0.1,0.8c-0.2,0.1-0.5-0.1-0.7-0.2c-3.1-1.5-5-4.1-6.4-7C77,167.6,76.4,166.2,76.2,164.6 M80.3,165.1 c0.5,0,0.5,0.5,0.7,0.8c0.1,0.1,0.3,0.4,0.1,0.6c-0.2,0.3-0.6,0.1-0.8,0c-0.5-0.1-1.1-0.3-1.6-0.4c-0.2-0.1-0.5-0.1-0.4-0.4 c0-0.2,0.2-0.3,0.4-0.3C79.3,165.4,79.8,165.3,80.3,165.1 M82.4,168.1c-1,0.3-1.7,0-2.4-0.6c-0.2-0.2-0.4-0.4,0-0.6 C80.8,166.7,82.1,167.3,82.4,168.1 M77.2,163.9c0.1-0.1,0.1-0.2,0.2-0.2c0.7,0.1,1.6-0.1,2.2,0.5c0.1,0.1,0.2,0.3,0,0.4 c-0.3,0.2-0.6,0.2-0.9,0C78.1,164.4,77.5,164.4,77.2,163.9 M69.2,163.1c-0.1-1.2-0.1-2.2,0.2-3.4C69.5,160.9,69.6,161.8,69.2,163.1"/><path class="st4" d="M111.6,52.4c0.7,0.5,1.3,1.2,2.2,1.4c2.7,0.7,4.3,2.5,5.7,4.6c0.2,0.2,0.2,0.8,0.7,0.7 c0.6-0.2,0.4-0.7,0.3-1.1c-0.6-1.8-1.8-3.1-3.3-4.1c-1.7-1.1-3.6-1.4-5.5-1.7c-0.3-0.6-0.6-1.2-1-1.7c-1.9-2.7-4.5-4.4-8-4.4 c-0.4,0-0.8,0-0.9,0.6c-0.1,0.7,0.5,0.4,0.8,0.5c2.3,0.3,4.4,1.2,6,2.8C109.6,50.8,110.4,51.9,111.6,52.4"/><path class="st10" d="M111.6,52.4c0.7,0.5,1.3,1.2,2.2,1.4c2.7,0.7,4.3,2.5,5.7,4.6c0.2,0.2,0.2,0.8,0.7,0.7 c0.6-0.2,0.4-0.7,0.3-1.1c-0.6-1.8-1.8-3.1-3.3-4.1c-1.7-1.1-3.6-1.4-5.5-1.7c-0.3-0.6-0.6-1.2-1-1.7c-1.9-2.7-4.5-4.4-8-4.4 c-0.4,0-0.8,0-0.9,0.6c-0.1,0.7,0.5,0.4,0.8,0.5c2.3,0.3,4.4,1.2,6,2.8C109.6,50.8,110.4,51.9,111.6,52.4z"/><path class="st6" d="M95.6,83.6c-0.1,0.1-0.1,0.2-0.2,0.2c-1,1.2-1.9,2.5-2.7,3.8c-0.1,0.1-0.2,0.3-0.3,0.4c-2.1,3-4.3,6.1-6.4,9.1 c-0.7,1.1-1.5,2.2-2.2,3.3c-0.6,0.8-1.6,1-2.5,1.5c-0.1,0-0.1,0.1-0.2,0.1c-0.3,0.1-0.6,0.3-0.9,0.4c-0.6,0.1-1.1,0.4-1.5,0.7 c-0.1,0-0.1,0-0.2,0.1c-0.1,0-0.2,0-0.2,0c-0.1,0-0.3,0-0.4-0.1c0.7-1.1,1.4-2.1,2.1-3.2C88,88.3,96,76.6,103.9,64.8 c2.5-3.6,4.9-7.3,7.3-10.9c0.9-0.3,1.6,0.3,2.4,0.4c0.5,0,0.9,0.2,1.4,0.3c0.1,0.1,0.2,0.1,0.3,0.2l0,0c0,0.1,0,0.1,0,0.2l0,0 c0,0.1-0.1,0.1-0.1,0.2c-0.1,0-0.1,0.1-0.1,0.2c-1.7,2.2-3.2,4.4-4.7,6.7l0,0c-0.3,0.2-0.5,0.5-0.6,0.9l0,0 c-1.2,1.4-2.2,2.9-3.1,4.5l0,0c-0.5,0.4-0.8,1-1.1,1.5c-0.1,0.1-0.1,0.2-0.2,0.2c-0.1,0.1-0.1,0.1-0.2,0.2c-0.1,0-0.1,0.1-0.1,0.2 C101.9,74.3,98.7,78.9,95.6,83.6"/><path class="st11" d="M95.6,83.6c-0.1,0.1-0.1,0.2-0.2,0.2c-1,1.2-1.9,2.5-2.7,3.8c-0.1,0.1-0.2,0.3-0.3,0.4 c-2.1,3-4.3,6.1-6.4,9.1c-0.7,1.1-1.5,2.2-2.2,3.3c-0.6,0.8-1.6,1-2.5,1.5c-0.1,0-0.1,0.1-0.2,0.1c-0.3,0.1-0.6,0.3-0.9,0.4 c-0.6,0.1-1.1,0.4-1.5,0.7c-0.1,0-0.1,0-0.2,0.1c-0.1,0-0.2,0-0.2,0c-0.1,0-0.3,0-0.4-0.1c0.7-1.1,1.4-2.1,2.1-3.2 C88,88.3,96,76.6,103.9,64.8c2.5-3.6,4.9-7.3,7.3-10.9c0.9-0.3,1.6,0.3,2.4,0.4c0.5,0,0.9,0.2,1.4,0.3c0.1,0.1,0.2,0.1,0.3,0.2l0,0 c0,0.1,0,0.1,0,0.2l0,0c0,0.1-0.1,0.1-0.1,0.2c-0.1,0-0.1,0.1-0.1,0.2c-1.7,2.2-3.2,4.4-4.7,6.7l0,0c-0.3,0.2-0.5,0.5-0.6,0.9l0,0 c-1.2,1.4-2.2,2.9-3.1,4.5l0,0c-0.5,0.4-0.8,1-1.1,1.5c-0.1,0.1-0.1,0.2-0.2,0.2c-0.1,0.1-0.1,0.1-0.2,0.2c-0.1,0-0.1,0.1-0.1,0.2 C101.9,74.3,98.7,78.9,95.6,83.6z"/><path class="st6" d="M76.6,100.9c0-0.2,0-0.5,0.1-0.7c0.2-0.3,0.2-0.7,0.1-1.1c0-0.7,0.3-1.4,0.7-2c10.1-15.2,20.2-30.4,30.2-45.7 c0.4-0.6,0.7-1.1,1.2,0c0.3,0.7,0.9,1.3,1.3,1.9c0,0.4-0.3,0.7-0.6,1c-2.1,3.1-4.2,6.2-6.3,9.4C95.8,75.1,88.1,86.6,80.4,98 c-1.3,1.9-2.5,3.9-4,5.6c0.1-0.7,0.1-1.3,0.2-2C76.7,101.4,76.7,101.2,76.6,100.9"/><path class="st11" d="M76.6,100.9c0-0.2,0-0.5,0.1-0.7c0.2-0.3,0.2-0.7,0.1-1.1c0-0.7,0.3-1.4,0.7-2c10.1-15.2,20.2-30.4,30.2-45.7 c0.4-0.6,0.7-1.1,1.2,0c0.3,0.7,0.9,1.3,1.3,1.9c0,0.4-0.3,0.7-0.6,1c-2.1,3.1-4.2,6.2-6.3,9.4C95.8,75.1,88.1,86.6,80.4,98 c-1.3,1.9-2.5,3.9-4,5.6c0.1-0.7,0.1-1.3,0.2-2C76.7,101.4,76.7,101.2,76.6,100.9z"/><path class="st4" d="M103.5,44.2c3.8,0,6.8,1.7,9,4.6c0.6,0.8,1.2,1.1,2.1,1.4c3.9,1.1,6.8,3.4,8.1,7.3c0.1,0.3,0.4,0.7-0.2,0.8 c-0.4,0.1-0.8,0.3-1.1-0.4c-1.3-3.7-4.2-5.5-7.9-6.2c-0.8-0.2-1.3-0.5-1.7-1.2c-2-3.2-4.9-5.1-8.8-5.2c-0.3,0-0.5,0-0.8-0.1 c-0.4-0.1-0.4-0.4-0.4-0.7c0-0.3,0.3-0.2,0.5-0.3C102.7,44.2,103.1,44.2,103.5,44.2"/><path class="st10" d="M103.5,44.2c3.8,0,6.8,1.7,9,4.6c0.6,0.8,1.2,1.1,2.1,1.4c3.9,1.1,6.8,3.4,8.1,7.3c0.1,0.3,0.4,0.7-0.2,0.8 c-0.4,0.1-0.8,0.3-1.1-0.4c-1.3-3.7-4.2-5.5-7.9-6.2c-0.8-0.2-1.3-0.5-1.7-1.2c-2-3.2-4.9-5.1-8.8-5.2c-0.3,0-0.5,0-0.8-0.1 c-0.4-0.1-0.4-0.4-0.4-0.7c0-0.3,0.3-0.2,0.5-0.3C102.7,44.2,103.1,44.2,103.5,44.2z"/><path class="st4" d="M129.1,31.8c0,1.6-1.2,3-2.8,3c-1.6,0.1-2.9-1.3-3-2.9c0-1.5,1.3-2.9,2.8-3C127.7,28.9,129.1,30.2,129.1,31.8"/><path class="st5" d="M129.1,31.8c0,1.6-1.2,3-2.8,3c-1.6,0.1-2.9-1.3-3-2.9c0-1.5,1.3-2.9,2.8-3C127.7,28.9,129.1,30.2,129.1,31.8z"/><path class="st2" d="M124.4,41.9c-1.6,1.2-3.4,1.6-5.2,1.8c-1.9,0.3-3.7,0.5-5.6,0.9c-0.2,0.1-0.5,0.2-0.7-0.1 c-0.2-0.3,0.1-0.5,0.3-0.6c1-0.9,2.1-1.6,3.4-2c2.8-0.9,5.8-0.8,8.6-1.7c-2.7,2.3-6.4,1.6-9.3,3.1 C118.7,42.6,121.7,42.9,124.4,41.9"/><path class="st8" d="M124.4,41.9c-1.6,1.2-3.4,1.6-5.2,1.8c-1.9,0.3-3.7,0.5-5.6,0.9c-0.2,0.1-0.5,0.2-0.7-0.1 c-0.2-0.3,0.1-0.5,0.3-0.6c1-0.9,2.1-1.6,3.4-2c2.8-0.9,5.8-0.8,8.6-1.7c-2.7,2.3-6.4,1.6-9.3,3.1 C118.7,42.6,121.7,42.9,124.4,41.9z"/><path class="st4" d="M124.8,61.3c0,1.2-0.9,2.2-2.2,2.3c-1.2,0-2.3-1-2.3-2.1c0-1.2,1-2.2,2.2-2.3C123.7,59.1,124.7,60,124.8,61.3"/><path class="st10" d="M124.8,61.3c0,1.2-0.9,2.2-2.2,2.3c-1.2,0-2.3-1-2.3-2.1c0-1.2,1-2.2,2.2-2.3C123.7,59.1,124.7,60,124.8,61.3 z"/><path class="st4" d="M98.8,48c-1.3,0-2.3-0.9-2.3-2.2c0-1.2,1-2.2,2.2-2.2c1.2,0,2.3,1,2.3,2.2C101.1,47,100.1,47.9,98.8,48"/><path class="st10" d="M98.8,48c-1.3,0-2.3-0.9-2.3-2.2c0-1.2,1-2.2,2.2-2.2c1.2,0,2.3,1,2.3,2.2C101.1,47,100.1,47.9,98.8,48z"/><path class="st2" d="M122.6,44.2c-3.1,0.9-6.3,1.4-9.3,2.4c0,0.1,0,0.2,0.1,0.3c2.9-0.5,5.9-1.1,8.8-1.6c-1.6,0.9-3.3,1.4-5,1.6 c-1.2,0.2-2.4,0-3.5,0.3c-0.7,0.2-1.1-0.5-1.4-0.9c-0.3-0.4,0.3-0.5,0.6-0.6c1.6-0.6,3.4-0.9,5.1-1C119.4,44.6,121,44.2,122.6,44.2"/><path class="st8" d="M122.6,44.2c-3.1,0.9-6.3,1.4-9.3,2.4c0,0.1,0,0.2,0.1,0.3c2.9-0.5,5.9-1.1,8.8-1.6c-1.6,0.9-3.3,1.4-5,1.6 c-1.2,0.2-2.4,0-3.5,0.3c-0.7,0.2-1.1-0.5-1.4-0.9c-0.3-0.4,0.3-0.5,0.6-0.6c1.6-0.6,3.4-0.9,5.1-1C119.4,44.6,121,44.2,122.6,44.2 z"/><path class="st2" d="M125.7,37.4c-2.1,1.9-5.1,1.1-7.4,2.5c1.8,0.1,3.6-0.3,5.4-0.5c-2.7,1.2-5.7,1.1-8.5,2.2 c0.1-0.8,0.6-1.2,1.1-1.6c1-0.6,2.1-1,3.2-1.3C121.5,38.1,123.6,37.9,125.7,37.4"/><path class="st8" d="M125.7,37.4c-2.1,1.9-5.1,1.1-7.4,2.5c1.8,0.1,3.6-0.3,5.4-0.5c-2.7,1.2-5.7,1.1-8.5,2.2 c0.1-0.8,0.6-1.2,1.1-1.6c1-0.6,2.1-1,3.2-1.3C121.5,38.1,123.6,37.9,125.7,37.4z"/><path class="st2" d="M120.3,36.6c1.7,0.1,3.2-0.4,4.9-0.4c-2.2,1-4.7,1.2-7.2,1.8c1-2,3.4-3,6-2.5C122.7,36.2,121.4,36,120.3,36.6"/><path class="st8" d="M120.3,36.6c1.7,0.1,3.2-0.4,4.9-0.4c-2.2,1-4.7,1.2-7.2,1.8c1-2,3.4-3,6-2.5C122.7,36.2,121.4,36,120.3,36.6z"/><path class="st4" d="M130,28.5c0.1-0.4,0.3-0.8,0-1.2c-0.2-0.1-0.3,0.1-0.3,0.2c-0.5,0.7-1.3,0.7-2,0.4c-0.5-0.2-0.4-0.7-0.3-1 c0.1-0.7,0.6-1.3,1.3-1.4c1-0.2,1.7,0.2,2.1,1C131.1,27.4,130.9,28.1,130,28.5"/><path class="st5" d="M130,28.5c0.1-0.4,0.3-0.8,0-1.2c-0.2-0.1-0.3,0.1-0.3,0.2c-0.5,0.7-1.3,0.7-2,0.4c-0.5-0.2-0.4-0.7-0.3-1 c0.1-0.7,0.6-1.3,1.3-1.4c1-0.2,1.7,0.2,2.1,1C131.1,27.4,130.9,28.1,130,28.5z"/><path class="st2" d="M121.6,46.9c-0.1,0.6-0.4,0.8-0.8,0.9c-1.9,0.4-3.8,0.8-5.8,1.2c-0.4,0.1-0.9,0.2-0.9-0.4 c0-0.6,0.5-0.4,0.8-0.5C117.2,47.9,119.4,47.5,121.6,46.9"/><path class="st8" d="M121.6,46.9c-0.1,0.6-0.4,0.8-0.8,0.9c-1.9,0.4-3.8,0.8-5.8,1.2c-0.4,0.1-0.9,0.2-0.9-0.4 c0-0.6,0.5-0.4,0.8-0.5C117.2,47.9,119.4,47.5,121.6,46.9z"/><path class="st2" d="M119.8,49c-1.1,0.6-2.3,0.6-3.5,0.5C117.4,48.7,118.7,49.1,119.8,49"/><path class="st8" d="M119.8,49c-1.1,0.6-2.3,0.6-3.5,0.5C117.4,48.7,118.7,49.1,119.8,49z"/><path class="st2" d="M118.9,50.2c0.3,0,0.6,0.1,0.6,0.3c0,0.3-0.2,0.5-0.4,0.5c-0.3,0-0.5-0.2-0.5-0.4 C118.5,50.3,118.8,50.3,118.9,50.2"/><path class="st2" d="M122.9,44c0.2-0.2,0.4-0.4,0.8-0.3C123.5,44,123.3,44.1,122.9,44"/><path class="st8" d="M122.9,44c0.2-0.2,0.4-0.4,0.8-0.3C123.5,44,123.3,44.1,122.9,44z"/><path class="st0" d="M75.4,106.4c2.7-1.4,5.3-2.9,8-4.3c0.5-0.3,1-0.6,1.2-1.2c2.9-4,5.8-8.1,8.6-12.2c1.8-2.3,3.5-4.7,5.1-7.2 c0.1-0.1,0.1-0.2,0.2-0.3c0-0.1,0.1-0.1,0.1-0.2l1.3-1.8c0.1,0,0.1-0.1,0.1-0.2c0.1-0.1,0.1-0.2,0.2-0.3c0.8-0.9,1.4-2,2.1-3 c1.9-2.7,3.7-5.4,5.7-8c1.2-1.6,2.2-3.2,3.4-4.8c1.3-1.6,2.5-3.4,3.6-5.2c1.1-1.8,1.4-1.9,2.7-0.3c0.9,1.2,2,2.3,1.8,4 c-0.1,1.4,1.1,2.6,2.4,2.9c1.5,0.3,2.9-0.5,3.7-2c0.5-1,0.1-2.5-0.9-3.4c-0.3-0.3-0.7-0.5-0.8-1.1c-0.5-2.1-1.5-4-3.2-5.5 c-0.5-0.4-0.6-0.9-0.1-1.4c1.7-2.2,3.1-4.6,4.4-7c1.2-2.4,2.2-4.8,2-7.5c0-0.6,0-0.8,0.6-1c2.1-0.8,3-2.8,2.3-4.9 c-0.2-0.7-0.1-0.8,0.5-1.1c1.3-0.7,1.8-2.3,1.2-3.5c-0.7-1.2-1.8-1.7-3.2-1.4c-1.2,0.3-2,1.3-1.9,2.7c0,0.4,0.1,0.6-0.5,0.7 c-2.7,0.4-3.9,2.2-3.4,4.9c0.1,0.4,0.1,0.5-0.3,0.6c-1.8,0.4-3.1,1.5-4.3,2.7c-2.6,2.5-4.7,5.3-6.6,8.3c-0.5,0.8-0.9,0.9-1.7,0.4 c-2.4-1.5-5-2.1-7.8-1.6c-0.5,0.1-1,0-1.5-0.3c-1.7-0.9-2.9-0.5-4.1,0.8c-0.9,1-0.8,2.8,0.1,3.8c1.2,1.3,2.8,1.5,4.2,0.7 c0.3-0.2,0.6-0.4,1-0.4c2,0.2,3.9,0.7,5.6,1.9c0.4,0.3,0.4,0.5,0.2,0.9c-0.5,0.8-1.1,1.6-1.6,2.3c-7.1,10.8-14.1,21.5-21.2,32.3 c-2.6,4-5.2,8-7.9,12.1l-0.1,0.2c0,0.2-0.1,0.4-0.1,0.7c-0.2,0.1-0.2,0.3-0.2,0.4c0,0.1,0,0.3,0,0.4c-0.2,0.1-0.2,0.3-0.1,0.4 c0,0.2,0,0.3,0,0.5c-0.2,0.2-0.2,0.4-0.1,0.6c-0.1,0.4-0.3,0.9-0.2,1.3c0,0.1,0,0.1-0.1,0.2c0,0.2-0.1,0.5-0.1,0.7 c-0.2,0.3-0.2,0.6-0.2,0.9c-0.2,0.4-0.3,0.7-0.2,1.1c-0.2,0.1-0.2,0.3-0.1,0.4c0,0.2,0,0.3,0,0.5c-0.2,0.3-0.3,0.6-0.1,0.9 C75,106.8,75.2,106.6,75.4,106.4 M129.7,27.5c-0.5,0.7-1.3,0.7-2,0.4c-0.5-0.2-0.4-0.7-0.3-1c0.1-0.7,0.6-1.3,1.3-1.4 c1-0.2,1.7,0.2,2.1,1c0.3,0.8,0.1,1.5-0.7,1.9c0.1-0.4,0.3-0.8,0-1.2C129.8,27.3,129.8,27.4,129.7,27.5 M110.4,62.2L110.4,62.2 c-0.3,0.2-0.5,0.5-0.6,0.9l0,0c-1.2,1.4-2.2,2.9-3.1,4.5l0,0c-0.5,0.4-0.8,1-1.1,1.5c-0.1,0.1-0.1,0.2-0.2,0.2 c-0.1,0.1-0.1,0.1-0.2,0.2c-0.1,0-0.1,0.1-0.1,0.2c-3.3,4.5-6.5,9.1-9.5,13.7c-0.1,0.1-0.1,0.2-0.2,0.2c-1,1.2-1.9,2.5-2.7,3.8 c-0.1,0.1-0.2,0.3-0.3,0.4c-2.1,3-4.3,6.1-6.4,9.1c-0.7,1.1-1.5,2.2-2.2,3.3c-0.6,0.8-1.6,1-2.5,1.5c-0.1,0-0.1,0.1-0.2,0.1 c-0.3,0.1-0.6,0.3-0.9,0.4c-0.6,0.1-1.1,0.4-1.5,0.7c-0.1,0-0.1,0-0.2,0.1c-0.1,0-0.2,0-0.2,0c-0.1,0-0.3,0-0.4-0.1 c0.7-1.1,1.4-2.1,2.1-3.2C88,88.3,96,76.6,103.9,64.8c2.5-3.6,4.9-7.3,7.3-10.9c0.9-0.3,1.6,0.3,2.4,0.4c0.5,0,0.9,0.2,1.4,0.3 c0.1,0.1,0.2,0.1,0.3,0.2l0,0c0,0.1,0,0.1,0,0.2l0,0c0,0.1-0.1,0.1-0.1,0.2c-0.1,0-0.1,0.1-0.1,0.2 C113.4,57.7,111.9,59.9,110.4,62.2 M124.8,61.3c0,1.2-0.9,2.2-2.2,2.3c-1.2,0-2.3-1-2.3-2.1c0-1.2,1-2.2,2.2-2.3 C123.7,59.1,124.7,60,124.8,61.3 M119.5,50.5c0,0.3-0.2,0.5-0.4,0.5c-0.3,0-0.5-0.2-0.5-0.4c0-0.3,0.3-0.3,0.4-0.4 C119.2,50.2,119.5,50.3,119.5,50.5 M119.8,49c-1.1,0.6-2.3,0.6-3.5,0.5C117.4,48.7,118.7,49.1,119.8,49 M120.8,47.8 c-1.9,0.4-3.8,0.8-5.8,1.2c-0.4,0.1-0.9,0.2-0.9-0.4c0-0.6,0.5-0.4,0.8-0.5c2.2-0.2,4.4-0.6,6.7-1.2 C121.5,47.6,121.2,47.7,120.8,47.8 M123.7,43.7c-0.2,0.3-0.4,0.5-0.8,0.3C123.2,43.8,123.4,43.6,123.7,43.7 M123.3,31.9 c0-1.5,1.3-2.9,2.8-3c1.5-0.1,2.9,1.3,3,2.9c0,1.6-1.2,3-2.8,3C124.7,34.9,123.4,33.5,123.3,31.9 M124,35.5 c-1.3,0.7-2.7,0.5-3.7,1.1c1.7,0.1,3.2-0.4,4.9-0.4c-2.2,1-4.7,1.2-7.2,1.8C119,36.1,121.4,35.1,124,35.5 M116.3,40 c1-0.6,2.1-1,3.2-1.3c2-0.6,4.1-0.8,6.2-1.3c-2.1,1.9-5.1,1.1-7.4,2.5c1.8,0.1,3.6-0.3,5.4-0.5c-2.7,1.2-5.7,1.1-8.5,2.2 C115.2,40.7,115.8,40.3,116.3,40 M112.9,44.6c-0.2-0.3,0.1-0.5,0.3-0.6c1-0.9,2.1-1.6,3.4-2c2.8-0.9,5.8-0.8,8.6-1.7 c-2.7,2.3-6.4,1.6-9.3,3.1c2.8-0.7,5.8-0.4,8.6-1.4c-1.6,1.2-3.4,1.6-5.2,1.8c-1.9,0.3-3.7,0.5-5.6,0.9 C113.4,44.7,113.1,44.8,112.9,44.6 M117.8,44.8c1.6-0.1,3.1-0.6,4.7-0.6c-3.1,0.9-6.3,1.4-9.3,2.4c0,0.1,0,0.2,0.1,0.3 c2.9-0.5,5.9-1.1,8.8-1.6c-1.6,0.9-3.3,1.4-5,1.6c-1.2,0.2-2.4,0-3.5,0.3c-0.7,0.2-1.1-0.5-1.4-0.9c-0.3-0.4,0.3-0.5,0.6-0.6 C114.4,45.2,116.1,44.9,117.8,44.8 M112.5,48.7c0.6,0.8,1.2,1.1,2.1,1.4c3.9,1.1,6.8,3.4,8.1,7.3c0.1,0.3,0.4,0.7-0.2,0.8 c-0.4,0.1-0.8,0.3-1.1-0.4c-1.3-3.7-4.2-5.5-7.9-6.2c-0.8-0.2-1.3-0.5-1.7-1.2c-2-3.2-4.9-5.1-8.8-5.2c-0.3,0-0.5,0-0.8-0.1 c-0.4-0.1-0.4-0.4-0.4-0.7c0-0.3,0.3-0.2,0.5-0.3c0.4,0,0.7,0,1.1-0.1C107.3,44.1,110.2,45.8,112.5,48.7 M96.6,45.8 c0-1.2,1-2.2,2.2-2.2c1.2,0,2.3,1,2.3,2.2c0,1.2-0.9,2.2-2.2,2.2C97.6,48,96.6,47,96.6,45.8 M108.7,50c-1.7-1.5-3.7-2.5-6.1-2.8 c-0.2,0-0.8,0.2-0.8-0.5c0.1-0.5,0.5-0.6,0.9-0.6c3.5,0,6,1.7,8,4.4c0.4,0.5,0.6,1.1,1,1.7c1.9,0.3,3.8,0.6,5.5,1.7 c1.6,1,2.7,2.3,3.3,4.1c0.1,0.4,0.3,0.9-0.3,1.1c-0.5,0.2-0.5-0.4-0.7-0.7c-1.4-2.1-3-4-5.7-4.6c-0.9-0.2-1.5-0.9-2.2-1.4 C110.4,51.9,109.6,50.8,108.7,50 M76.6,101.6c0.2-0.2,0.2-0.4,0.1-0.7l0.1-0.7c0.2-0.3,0.2-0.7,0.1-1.1c0-0.7,0.3-1.4,0.7-2 c10.1-15.2,20.2-30.4,30.2-45.7c0.4-0.6,0.7-1.1,1.2,0c0.3,0.7,0.9,1.3,1.3,1.9c0,0.4-0.3,0.7-0.6,1c-2.1,3.1-4.2,6.2-6.3,9.4 C95.8,75.1,88.1,86.6,80.4,98c-1.3,1.9-2.5,3.9-4,5.6C76.5,102.9,76.5,102.3,76.6,101.6"/><path class="st0" d="M128.3,33.1c0.3-0.6,0.3-1.3-0.3-1.8c0,0.9,0,1.7-1.1,2c-0.9,0.4-1.6-0.3-2.5-0.6c0.4,1,1,1.4,1.9,1.4 C127.2,34.2,127.9,33.8,128.3,33.1"/><path class="st4" d="M111.5,174.6c-0.8,0.4-1.6,0.8-2.1,1.5c-1.6,2.2-3.9,3-6.4,3.6c-0.3,0.1-0.8-0.2-0.9,0.4 c0,0.6,0.5,0.7,0.9,0.7c1.9,0.1,3.5-0.5,5-1.6c1.6-1.1,2.6-2.8,3.6-4.4c0.6-0.1,1.3-0.1,1.9-0.2c3.2-0.8,5.8-2.5,7-5.8 c0.2-0.4,0.3-0.8-0.2-1c-0.6-0.3-0.6,0.3-0.7,0.5c-1.1,2-2.8,3.6-4.8,4.6C113.7,173.4,112.5,173.7,111.5,174.6"/><path class="st10" d="M111.5,174.6c-0.8,0.4-1.6,0.8-2.1,1.5c-1.6,2.2-3.9,3-6.4,3.6c-0.3,0.1-0.8-0.2-0.9,0.4 c0,0.6,0.5,0.7,0.9,0.7c1.9,0.1,3.5-0.5,5-1.6c1.6-1.1,2.6-2.8,3.6-4.4c0.6-0.1,1.3-0.1,1.9-0.2c3.2-0.8,5.8-2.5,7-5.8 c0.2-0.4,0.3-0.8-0.2-1c-0.6-0.3-0.6,0.3-0.7,0.5c-1.1,2-2.8,3.6-4.8,4.6C113.7,173.4,112.5,173.7,111.5,174.6z"/><path class="st6" d="M88.5,148.2c-0.1-0.1-0.1-0.2-0.2-0.2c-0.7-1.4-1.6-2.7-2.6-3.9c-0.1-0.1-0.2-0.3-0.3-0.4 c-2-3.1-4-6.2-6.1-9.3c-0.7-1.1-1.5-2.2-2.2-3.2c-0.5-0.9-0.3-1.9-0.5-2.8c0-0.1,0-0.2-0.1-0.3c0-0.3,0-0.7-0.1-1 c0.1-0.6,0-1.1-0.1-1.7c0-0.1,0-0.1,0-0.2c0-0.1,0-0.1,0.1-0.2c0.1-0.1,0.1-0.3,0.2-0.4c0.7,1,1.5,2.1,2.2,3.2 c7.9,11.7,15.9,23.5,23.8,35.2c2.5,3.6,4.9,7.2,7.4,10.9c0,1-0.9,1.4-1.3,2.1c-0.2,0.4-0.6,0.8-0.8,1.2c-0.1,0.1-0.2,0.1-0.2,0.2 l0,0c-0.1,0-0.1-0.1-0.2-0.1l0,0c0-0.1-0.1-0.1-0.1-0.2c0-0.1-0.1-0.1-0.1-0.2c-1.4-2.3-2.9-4.6-4.5-6.8l0,0 c-0.1-0.4-0.3-0.7-0.6-0.9l0,0c-0.9-1.6-1.9-3.1-3-4.6l0,0c-0.2-0.6-0.6-1.1-1-1.6c-0.1-0.1-0.1-0.2-0.2-0.2c0-0.1-0.1-0.2-0.1-0.2 c0-0.1-0.1-0.1-0.1-0.1C94.8,157.4,91.7,152.8,88.5,148.2"/><path class="st11" d="M88.5,148.2c-0.1-0.1-0.1-0.2-0.2-0.2c-0.7-1.4-1.6-2.7-2.6-3.9c-0.1-0.1-0.2-0.3-0.3-0.4 c-2-3.1-4-6.2-6.1-9.3c-0.7-1.1-1.5-2.2-2.2-3.2c-0.5-0.9-0.3-1.9-0.5-2.8c0-0.1,0-0.2-0.1-0.3c0-0.3,0-0.7-0.1-1 c0.1-0.6,0-1.1-0.1-1.7c0-0.1,0-0.1,0-0.2c0-0.1,0-0.1,0.1-0.2c0.1-0.1,0.1-0.3,0.2-0.4c0.7,1,1.5,2.1,2.2,3.2 c7.9,11.7,15.9,23.5,23.8,35.2c2.5,3.6,4.9,7.2,7.4,10.9c0,1-0.9,1.4-1.3,2.1c-0.2,0.4-0.6,0.8-0.8,1.2c-0.1,0.1-0.2,0.1-0.2,0.2 l0,0c-0.1,0-0.1-0.1-0.2-0.1l0,0c0-0.1-0.1-0.1-0.1-0.2c0-0.1-0.1-0.1-0.1-0.2c-1.4-2.3-2.9-4.6-4.5-6.8l0,0 c-0.1-0.4-0.3-0.7-0.6-0.9l0,0c-0.9-1.6-1.9-3.1-3-4.6l0,0c-0.2-0.6-0.6-1.1-1-1.6c-0.1-0.1-0.1-0.2-0.2-0.2c0-0.1-0.1-0.2-0.1-0.2 c0-0.1-0.1-0.1-0.1-0.1C94.8,157.4,91.7,152.8,88.5,148.2z"/><path class="st6" d="M79.5,124.1c0.2,0.1,0.4,0.2,0.6,0.3c0.2,0.3,0.6,0.4,1,0.5c0.7,0.3,1.2,0.8,1.6,1.4 c10.4,15,20.7,30.1,31.1,45.1c0.4,0.6,0.7,1.1-0.4,1.2c-0.8,0.1-1.5,0.3-2.2,0.5c-0.4-0.2-0.5-0.6-0.8-0.9 c-2.1-3.1-4.2-6.2-6.3-9.3c-7.7-11.4-15.5-22.8-23.1-34.2c-1.3-1.9-2.7-3.7-3.7-5.8c0.6,0.3,1.2,0.6,1.8,0.9 C79,124,79.3,124.1,79.5,124.1"/><path class="st11" d="M79.5,124.1c0.2,0.1,0.4,0.2,0.6,0.3c0.2,0.3,0.6,0.4,1,0.5c0.7,0.3,1.2,0.8,1.6,1.4 c10.4,15,20.7,30.1,31.1,45.1c0.4,0.6,0.7,1.1-0.4,1.2c-0.8,0.1-1.5,0.3-2.2,0.5c-0.4-0.2-0.5-0.6-0.8-0.9 c-2.1-3.1-4.2-6.2-6.3-9.3c-7.7-11.4-15.5-22.8-23.1-34.2c-1.3-1.9-2.7-3.7-3.7-5.8c0.6,0.3,1.2,0.6,1.8,0.9 C79,124,79.3,124.1,79.5,124.1z"/><path class="st4" d="M122.2,170.1c-1.4,3.6-4.1,5.7-7.6,6.7c-0.9,0.3-1.5,0.7-2.1,1.4c-2.5,3.2-5.7,5.1-9.8,4.8 c-0.3,0-0.8,0.1-0.6-0.5c0.1-0.4,0-0.9,0.7-0.9c3.9,0.2,6.6-1.9,8.7-5c0.4-0.7,0.9-1,1.7-1.1c3.7-0.7,6.6-2.6,8.1-6.2 c0.1-0.2,0.2-0.5,0.4-0.7c0.2-0.3,0.5-0.2,0.8-0.1c0.3,0.1,0.1,0.4,0.1,0.6C122.4,169.4,122.3,169.8,122.2,170.1"/><path class="st10" d="M122.2,170.1c-1.4,3.6-4.1,5.7-7.6,6.7c-0.9,0.3-1.5,0.7-2.1,1.4c-2.5,3.2-5.7,5.1-9.8,4.8 c-0.3,0-0.8,0.1-0.6-0.5c0.1-0.4,0-0.9,0.7-0.9c3.9,0.2,6.6-1.9,8.7-5c0.4-0.7,0.9-1,1.7-1.1c3.7-0.7,6.6-2.6,8.1-6.2 c0.1-0.2,0.2-0.5,0.4-0.7c0.2-0.3,0.5-0.2,0.8-0.1c0.3,0.1,0.1,0.4,0.1,0.6C122.4,169.4,122.3,169.8,122.2,170.1z"/><path class="st4" d="M124.1,198.6c-1.5-0.6-2.3-2.2-1.7-3.8c0.5-1.5,2.3-2.2,3.8-1.6c1.4,0.6,2.2,2.3,1.7,3.7 C127.4,198.3,125.6,199.1,124.1,198.6"/><path class="st5" d="M124.1,198.6c-1.5-0.6-2.3-2.2-1.7-3.8c0.5-1.5,2.3-2.2,3.8-1.6c1.4,0.6,2.2,2.3,1.7,3.7 C127.4,198.3,125.6,199.1,124.1,198.6z"/><path class="st2" d="M116.4,190.5c-0.6-1.9-0.2-3.7,0.2-5.5c0.4-1.8,0.9-3.7,1.3-5.5c0-0.2,0-0.6,0.3-0.6c0.3,0,0.4,0.3,0.5,0.5 c0.5,1.3,0.7,2.6,0.6,3.9c-0.2,2.9-1.4,5.6-1.6,8.6c-1.2-3.3,0.9-6.5,0.6-9.8C117.9,184.8,116.5,187.5,116.4,190.5"/><path class="st8" d="M116.4,190.5c-0.6-1.9-0.2-3.7,0.2-5.5c0.4-1.8,0.9-3.7,1.3-5.5c0-0.2,0-0.6,0.3-0.6c0.3,0,0.4,0.3,0.5,0.5 c0.5,1.3,0.7,2.6,0.6,3.9c-0.2,2.9-1.4,5.6-1.6,8.6c-1.2-3.3,0.9-6.5,0.6-9.8C117.9,184.8,116.5,187.5,116.4,190.5z"/><path class="st4" d="M98.3,183.5c-1.2-0.4-1.7-1.7-1.3-2.9c0.4-1.1,1.8-1.8,2.9-1.4c1.1,0.4,1.7,1.8,1.3,2.9 C100.7,183.4,99.5,184,98.3,183.5"/><path class="st10" d="M98.3,183.5c-1.2-0.4-1.7-1.7-1.3-2.9c0.4-1.1,1.8-1.8,2.9-1.4c1.1,0.4,1.7,1.8,1.3,2.9 C100.7,183.4,99.5,184,98.3,183.5z"/><path class="st4" d="M120.4,164.4c0.4-1.2,1.7-1.8,2.8-1.3c1.1,0.4,1.7,1.8,1.2,2.9c-0.5,1.2-1.8,1.7-2.9,1.3 C120.5,166.9,119.9,165.7,120.4,164.4"/><path class="st10" d="M120.4,164.4c0.4-1.2,1.7-1.8,2.8-1.3c1.1,0.4,1.7,1.8,1.2,2.9c-0.5,1.2-1.8,1.7-2.9,1.3 C120.5,166.9,119.9,165.7,120.4,164.4z"/><path class="st2" d="M115,187.9c0.4-3.2,1.1-6.3,1.2-9.5c-0.1,0-0.2,0-0.3,0c-0.6,2.9-1.2,5.8-1.8,8.8c-0.3-1.8-0.1-3.6,0.4-5.3 c0.3-1.1,0.9-2.2,1.1-3.4c0.1-0.7,0.8-0.9,1.3-1c0.5-0.1,0.3,0.5,0.3,0.7c-0.1,1.7-0.4,3.5-0.9,5.1 C115.8,184.8,115.6,186.4,115,187.9"/><path class="st8" d="M115,187.9c0.4-3.2,1.1-6.3,1.2-9.5c-0.1,0-0.2,0-0.3,0c-0.6,2.9-1.2,5.8-1.8,8.8c-0.3-1.8-0.1-3.6,0.4-5.3 c0.3-1.1,0.9-2.2,1.1-3.4c0.1-0.7,0.8-0.9,1.3-1c0.5-0.1,0.3,0.5,0.3,0.7c-0.1,1.7-0.4,3.5-0.9,5.1 C115.8,184.8,115.6,186.4,115,187.9z"/><path class="st2" d="M120.2,193.3c-1-2.6,0.9-5.1,0.4-7.7c-0.8,1.7-1.1,3.4-1.5,5.2c-0.1-2.9,1.1-5.7,1.1-8.7c0.8,0.4,0.9,1,1,1.6 c0.2,1.1,0.1,2.3,0,3.4C121,189.1,120.5,191.2,120.2,193.3"/><path class="st8" d="M120.2,193.3c-1-2.6,0.9-5.1,0.4-7.7c-0.8,1.7-1.1,3.4-1.5,5.2c-0.1-2.9,1.1-5.7,1.1-8.7c0.8,0.4,0.9,1,1,1.6 c0.2,1.1,0.1,2.3,0,3.4C121,189.1,120.5,191.2,120.2,193.3z"/><path class="st2" d="M122.9,188.6c-0.7,1.5-0.8,3.1-1.4,4.7c-0.1-2.5,0.6-4.8,1-7.3c1.5,1.7,1.5,4.3,0.1,6.5 C122.4,191,123.1,189.8,122.9,188.6"/><path class="st8" d="M122.9,188.6c-0.7,1.5-0.8,3.1-1.4,4.7c-0.1-2.5,0.6-4.8,1-7.3c1.5,1.7,1.5,4.3,0.1,6.5 C122.4,191,123.1,189.8,122.9,188.6z"/><path class="st4" d="M126.8,200.6c0.4,0.2,0.6,0.6,1.1,0.5c0.1-0.2,0-0.3-0.1-0.4c-0.5-0.8-0.1-1.4,0.3-2c0.3-0.4,0.8-0.1,1.1,0.1 c0.6,0.4,1,1,0.8,1.8c-0.2,1-0.8,1.5-1.7,1.5C127.4,202.1,126.8,201.6,126.8,200.6"/><path class="st5" d="M126.8,200.6c0.4,0.2,0.6,0.6,1.1,0.5c0.1-0.2,0-0.3-0.1-0.4c-0.5-0.8-0.1-1.4,0.3-2c0.3-0.4,0.8-0.1,1.1,0.1 c0.6,0.4,1,1,0.8,1.8c-0.2,1-0.8,1.5-1.7,1.5C127.4,202.1,126.8,201.6,126.8,200.6z"/><path class="st2" d="M112.8,186c-0.5-0.3-0.6-0.7-0.5-1.1c0.3-1.9,0.7-3.9,1.1-5.8c0.1-0.4,0.2-0.9,0.7-0.7 c0.6,0.2,0.2,0.6,0.1,0.9C113.6,181.5,113.1,183.6,112.8,186"/><path class="st8" d="M112.8,186c-0.5-0.3-0.6-0.7-0.5-1.1c0.3-1.9,0.7-3.9,1.1-5.8c0.1-0.4,0.2-0.9,0.7-0.7 c0.6,0.2,0.2,0.6,0.1,0.9C113.6,181.5,113.1,183.6,112.8,186z"/><path class="st2" d="M111.6,183.5c-0.1-1.3,0.3-2.4,0.8-3.4C112.8,181.4,112,182.4,111.6,183.5"/><path class="st8" d="M111.6,183.5c-0.1-1.3,0.3-2.4,0.8-3.4C112.8,181.4,112,182.4,111.6,183.5z"/><path class="st2" d="M110.8,182.2c-0.1,0.3-0.3,0.5-0.5,0.4c-0.3-0.1-0.4-0.3-0.3-0.6c0.1-0.3,0.3-0.4,0.6-0.3 C110.8,181.8,110.8,182.1,110.8,182.2"/><path class="st2" d="M115.1,188.3c0.1,0.3,0.2,0.6,0,0.9C114.8,188.8,114.8,188.6,115.1,188.3"/><path class="st8" d="M115.1,188.3c0.1,0.3,0.2,0.6,0,0.9C114.8,188.8,114.8,188.6,115.1,188.3z"/><path class="st0" d="M74.9,120.9c0.3,3,0.7,6,1,9c0.1,0.6,0.2,1.1,0.6,1.5c2.6,4.2,5.3,8.4,8.1,12.6c1.5,2.5,3.1,5,4.8,7.4 c0.1,0.1,0.1,0.2,0.2,0.3c0,0.1,0.1,0.1,0.1,0.2c0.4,0.6,0.8,1.2,1.2,1.9c0,0.1,0.1,0.1,0.1,0.1c0.1,0.1,0.1,0.2,0.2,0.3 c0.6,1.1,1.3,2.1,2,3.1c1.8,2.7,3.6,5.5,5.3,8.2c1,1.7,2.2,3.3,3.1,5c1,1.8,2.2,3.6,3.5,5.2c1.2,1.7,1.3,2-0.7,2.6 c-1.4,0.4-2.8,1-4.4,0.2c-1.2-0.6-2.8,0-3.6,1.2c-0.8,1.3-0.7,2.9,0.5,4.2c0.7,0.8,2.2,1,3.4,0.4c0.4-0.2,0.8-0.5,1.3-0.4 c2.2,0.3,4.3,0.1,6.3-0.9c0.6-0.3,1-0.2,1.4,0.4c1.4,2.4,3.1,4.6,4.9,6.7c1.8,2,3.7,3.8,6.2,4.7c0.6,0.2,0.7,0.3,0.7,0.9 c0,2.2,1.5,3.9,3.6,4c0.7,0,0.8,0.2,0.8,0.9c0.1,1.5,1.4,2.6,2.8,2.4c1.4-0.2,2.3-1.1,2.5-2.4c0.2-1.2-0.5-2.3-1.8-2.8 c-0.4-0.1-0.6-0.1-0.5-0.7c0.6-2.7-0.6-4.5-3.3-5c-0.4-0.1-0.5-0.1-0.5-0.5c0.3-1.8-0.2-3.4-0.9-5c-1.3-3.3-3.2-6.3-5.2-9.2 c-0.5-0.7-0.5-1.1,0.3-1.7c2.3-1.6,3.8-3.9,4.4-6.7c0.1-0.5,0.4-0.9,0.8-1.2c1.4-1.2,1.5-2.6,0.8-4.1c-0.6-1.3-2.3-1.8-3.6-1.3 c-1.6,0.6-2.5,2-2.2,3.7c0.1,0.4,0.2,0.7,0,1.1c-0.9,1.8-2.1,3.3-3.8,4.5c-0.4,0.3-0.6,0.2-0.9-0.2c-0.5-0.8-1-1.6-1.6-2.4 c-7.3-10.6-14.7-21.1-22.1-31.7c-2.7-3.9-5.5-7.9-8.3-11.8c0-0.1-0.1-0.1-0.1-0.2c-0.2-0.1-0.4-0.2-0.6-0.3c0-0.2-0.2-0.3-0.3-0.3 c-0.1-0.1-0.3-0.1-0.4-0.2c0-0.2-0.2-0.3-0.4-0.3c-0.1-0.1-0.3-0.1-0.4-0.2c-0.1-0.2-0.3-0.3-0.5-0.4c-0.4-0.2-0.7-0.6-1.2-0.7 c0,0-0.1-0.1-0.1-0.1c-0.2-0.1-0.4-0.2-0.6-0.4c-0.2-0.3-0.4-0.4-0.7-0.5c-0.3-0.3-0.6-0.5-0.9-0.6c0-0.2-0.2-0.3-0.4-0.3 c-0.1-0.1-0.3-0.1-0.4-0.2c-0.2-0.3-0.4-0.5-0.8-0.4C74.7,120.4,74.8,120.7,74.9,120.9 M127.8,200.7c-0.5-0.8-0.1-1.4,0.3-2 c0.3-0.4,0.8-0.1,1.1,0.1c0.6,0.4,1,1,0.8,1.8c-0.2,1-0.8,1.5-1.7,1.5c-0.9,0-1.5-0.4-1.5-1.4c0.4,0.2,0.6,0.6,1.1,0.5 C128,200.9,127.9,200.8,127.8,200.7 M102.8,169.9L102.8,169.9c-0.1-0.4-0.3-0.7-0.6-0.9l0,0c-0.9-1.6-1.9-3.1-3-4.6l0,0 c-0.2-0.6-0.6-1.1-1-1.6c-0.1-0.1-0.1-0.2-0.2-0.2c0-0.1-0.1-0.2-0.1-0.2c0-0.1-0.1-0.1-0.1-0.1c-2.9-4.7-6-9.4-9.2-14 c-0.1-0.1-0.1-0.2-0.2-0.2c-0.7-1.4-1.6-2.7-2.6-3.9c-0.1-0.1-0.2-0.3-0.3-0.4c-2-3.1-4-6.2-6.1-9.3c-0.7-1.1-1.5-2.2-2.2-3.2 c-0.5-0.9-0.3-1.9-0.5-2.8c0-0.1,0-0.2-0.1-0.3c0-0.3,0-0.7-0.1-1c0.1-0.6,0-1.1-0.1-1.7c0-0.1,0-0.1,0-0.2c0-0.1,0-0.1,0.1-0.2 c0.1-0.1,0.1-0.3,0.2-0.4c0.7,1,1.5,2.1,2.2,3.1c7.9,11.7,15.9,23.5,23.8,35.2c2.5,3.6,4.9,7.2,7.4,10.9c0,1-0.9,1.4-1.3,2.1 c-0.2,0.4-0.6,0.8-0.8,1.2c-0.1,0.1-0.2,0.1-0.2,0.2l0,0c-0.1,0-0.1-0.1-0.2-0.1l0,0c0-0.1-0.1-0.1-0.1-0.2c0-0.1-0.1-0.1-0.1-0.2 C105.9,174.4,104.4,172.1,102.8,169.9 M98.3,183.5c-1.2-0.4-1.7-1.7-1.3-2.9c0.4-1.1,1.8-1.8,2.9-1.4c1.1,0.4,1.7,1.8,1.3,2.9 C100.8,183.4,99.5,184,98.3,183.5 M110.3,182.7c-0.3-0.1-0.4-0.3-0.3-0.6c0.1-0.3,0.3-0.4,0.6-0.3c0.2,0.1,0.2,0.4,0.2,0.5 C110.7,182.6,110.5,182.7,110.3,182.7 M111.6,183.5c-0.1-1.3,0.3-2.4,0.8-3.4C112.8,181.4,112,182.4,111.6,183.5 M112.3,184.9 c0.3-1.9,0.7-3.9,1.1-5.8c0.1-0.4,0.2-0.9,0.7-0.7c0.6,0.2,0.2,0.6,0.1,0.9c-0.6,2.1-1.1,4.3-1.4,6.6 C112.3,185.6,112.2,185.3,112.3,184.9 M115,189.1c-0.2-0.3-0.3-0.6,0-0.9C115.2,188.6,115.3,188.8,115,189.1 M126.2,193.2 c1.4,0.6,2.2,2.3,1.7,3.7c-0.5,1.4-2.3,2.2-3.8,1.7c-1.5-0.6-2.3-2.2-1.7-3.8C122.9,193.4,124.7,192.6,126.2,193.2 M122.5,192.5 c-0.1-1.5,0.6-2.6,0.3-3.9c-0.7,1.5-0.8,3.1-1.4,4.7c-0.1-2.5,0.6-4.8,1-7.3C123.9,187.6,123.9,190.2,122.5,192.5 M121.3,183.6 c0.2,1.1,0.1,2.3,0,3.4c-0.2,2.1-0.8,4.1-1.1,6.2c-1-2.6,0.9-5.1,0.4-7.7c-0.8,1.7-1.1,3.4-1.5,5.2c-0.1-2.9,1.1-5.7,1.1-8.7 C121,182.4,121.1,183,121.3,183.6 M118.3,178.8c0.3,0,0.4,0.3,0.5,0.5c0.5,1.3,0.7,2.6,0.6,3.9c-0.2,2.9-1.4,5.6-1.6,8.6 c-1.2-3.3,0.9-6.5,0.6-9.8c-0.4,2.9-1.8,5.6-1.9,8.5c-0.6-1.9-0.2-3.7,0.2-5.5c0.4-1.8,0.9-3.7,1.3-5.5 C118,179.2,118,178.8,118.3,178.8 M116.2,183.3c-0.5,1.5-0.7,3.1-1.2,4.6c0.4-3.2,1.1-6.3,1.2-9.5c-0.1,0-0.2,0-0.3,0 c-0.6,2.9-1.2,5.8-1.8,8.8c-0.3-1.8-0.1-3.5,0.4-5.3c0.3-1.1,0.9-2.2,1.1-3.4c0.1-0.7,0.8-0.9,1.3-1c0.5-0.1,0.3,0.5,0.3,0.7 C117.1,179.9,116.7,181.6,116.2,183.3 M114.6,176.8c-0.9,0.3-1.5,0.7-2.1,1.4c-2.5,3.2-5.7,5.1-9.8,4.8c-0.3,0-0.8,0.1-0.6-0.5 c0.1-0.4,0-0.9,0.7-0.9c3.9,0.2,6.6-1.9,8.7-5c0.4-0.7,0.9-1,1.7-1.1c3.7-0.7,6.6-2.6,8.1-6.2c0.1-0.2,0.2-0.5,0.4-0.7 c0.2-0.3,0.5-0.2,0.8-0.1c0.3,0.1,0.1,0.4,0.1,0.6c-0.1,0.4-0.2,0.7-0.4,1.1C120.8,173.7,118.1,175.8,114.6,176.8 M123.2,163.1 c1.1,0.4,1.7,1.8,1.2,2.9c-0.5,1.2-1.8,1.7-2.9,1.3c-1.2-0.5-1.7-1.7-1.2-2.9C120.8,163.3,122.1,162.7,123.2,163.1 M114.8,172.8 c2.1-1,3.7-2.5,4.8-4.6c0.1-0.2,0.1-0.9,0.7-0.5c0.5,0.3,0.4,0.6,0.2,1c-1.3,3.3-3.8,5-7,5.8c-0.6,0.2-1.3,0.2-1.9,0.2 c-1,1.6-2,3.3-3.6,4.4c-1.5,1.1-3.2,1.7-5,1.6c-0.5,0-1-0.1-0.9-0.7c0-0.5,0.6-0.3,0.9-0.4c2.5-0.5,4.8-1.3,6.4-3.6 c0.5-0.7,1.4-1.1,2.1-1.5C112.5,173.7,113.7,173.4,114.8,172.8 M78.9,123.8c0.1,0.2,0.3,0.3,0.6,0.3c0.2,0.1,0.4,0.2,0.6,0.3 c0.2,0.3,0.6,0.4,1,0.5c0.7,0.3,1.2,0.8,1.6,1.4c10.4,15,20.7,30.1,31.1,45.1c0.4,0.6,0.7,1.1-0.4,1.2c-0.8,0.1-1.5,0.3-2.2,0.5 c-0.4-0.2-0.5-0.6-0.8-0.9c-2.1-3.1-4.2-6.2-6.3-9.3c-7.7-11.4-15.5-22.8-23.1-34.2c-1.3-1.9-2.7-3.7-3.7-5.8 C77.7,123.2,78.3,123.5,78.9,123.8"/><path class="st0" d="M123.2,197.3c0.5,0.5,1.1,0.8,1.8,0.4c-0.8-0.3-1.5-0.6-1.5-1.8c0-1,0.9-1.3,1.5-2.1c-1.1,0-1.7,0.4-2.1,1.2 C122.6,195.9,122.7,196.7,123.2,197.3"/><path class="st4" d="M29.4,174.9c-0.7-0.5-1.3-1.2-2.2-1.4c-2.7-0.7-4.3-2.5-5.7-4.6c-0.2-0.2-0.2-0.8-0.7-0.7 c-0.6,0.2-0.4,0.7-0.3,1.1c0.6,1.8,1.8,3.1,3.3,4.1c1.7,1.1,3.6,1.4,5.5,1.7c0.3,0.6,0.6,1.2,1,1.7c1.9,2.7,4.4,4.4,8,4.4 c0.4,0,0.8,0,0.9-0.6c0.1-0.7-0.5-0.4-0.8-0.5c-2.3-0.3-4.3-1.2-6-2.8C31.4,176.4,30.6,175.4,29.4,174.9"/><path class="st10" d="M29.4,174.9c-0.7-0.5-1.3-1.2-2.2-1.4c-2.7-0.7-4.3-2.5-5.7-4.6c-0.2-0.2-0.2-0.8-0.7-0.7 c-0.6,0.2-0.4,0.7-0.3,1.1c0.6,1.8,1.8,3.1,3.3,4.1c1.7,1.1,3.6,1.4,5.5,1.7c0.3,0.6,0.6,1.2,1,1.7c1.9,2.7,4.4,4.4,8,4.4 c0.4,0,0.8,0,0.9-0.6c0.1-0.7-0.5-0.4-0.8-0.5c-2.3-0.3-4.3-1.2-6-2.8C31.4,176.4,30.6,175.4,29.4,174.9z"/><path class="st6" d="M45.4,143.7c0.1-0.1,0.1-0.2,0.2-0.2c1-1.2,1.9-2.5,2.7-3.8c0.1-0.1,0.2-0.3,0.3-0.4c2.1-3,4.3-6.1,6.4-9.1 c0.7-1.1,1.5-2.2,2.2-3.3c0.6-0.8,1.6-1,2.5-1.5c0.1,0,0.1-0.1,0.2-0.1c0.3-0.1,0.6-0.3,0.9-0.4c0.6-0.1,1.1-0.4,1.5-0.7 c0.1,0,0.1,0,0.2-0.1c0.1,0,0.2,0,0.2,0c0.1,0,0.3,0,0.4,0.1c-0.7,1.1-1.4,2.1-2.1,3.2c-7.9,11.7-15.9,23.5-23.8,35.2 c-2.5,3.6-4.9,7.3-7.3,10.9c-0.9,0.3-1.6-0.3-2.4-0.4c-0.5,0-0.9-0.2-1.4-0.3c-0.1-0.1-0.2-0.1-0.3-0.2l0,0c0-0.1,0-0.2,0-0.2l0,0 c0-0.1,0.1-0.1,0.1-0.2c0.1,0,0.1-0.1,0.1-0.2c1.7-2.2,3.2-4.4,4.7-6.7l0,0c0.3-0.2,0.5-0.5,0.6-0.9l0,0c1.2-1.4,2.2-2.9,3.1-4.5 l0,0c0.5-0.4,0.8-1,1.1-1.5c0.1-0.1,0.1-0.2,0.2-0.2c0.1-0.1,0.1-0.1,0.2-0.2c0.1,0,0.1-0.1,0.1-0.2 C39.2,152.9,42.3,148.3,45.4,143.7"/><path class="st11" d="M45.4,143.7c0.1-0.1,0.1-0.2,0.2-0.2c1-1.2,1.9-2.5,2.7-3.8c0.1-0.1,0.2-0.3,0.3-0.4c2.1-3,4.3-6.1,6.4-9.1 c0.7-1.1,1.5-2.2,2.2-3.3c0.6-0.8,1.6-1,2.5-1.5c0.1,0,0.1-0.1,0.2-0.1c0.3-0.1,0.6-0.3,0.9-0.4c0.6-0.1,1.1-0.4,1.5-0.7 c0.1,0,0.1,0,0.2-0.1c0.1,0,0.2,0,0.2,0c0.1,0,0.3,0,0.4,0.1c-0.7,1.1-1.4,2.1-2.1,3.2c-7.9,11.7-15.9,23.5-23.8,35.2 c-2.5,3.6-4.9,7.3-7.3,10.9c-0.9,0.3-1.6-0.3-2.4-0.4c-0.5,0-0.9-0.2-1.4-0.3c-0.1-0.1-0.2-0.1-0.3-0.2l0,0c0-0.1,0-0.2,0-0.2l0,0 c0-0.1,0.1-0.1,0.1-0.2c0.1,0,0.1-0.1,0.1-0.2c1.7-2.2,3.2-4.4,4.7-6.7l0,0c0.3-0.2,0.5-0.5,0.6-0.9l0,0c1.2-1.4,2.2-2.9,3.1-4.5 l0,0c0.5-0.4,0.8-1,1.1-1.5c0.1-0.1,0.1-0.2,0.2-0.2c0.1-0.1,0.1-0.1,0.2-0.2c0.1,0,0.1-0.1,0.1-0.2 C39.2,152.9,42.3,148.3,45.4,143.7z"/><path class="st6" d="M64.4,126.3c0,0.2,0,0.5-0.1,0.7c-0.2,0.3-0.2,0.7-0.1,1.1c0,0.7-0.3,1.4-0.7,2 c-10.1,15.2-20.2,30.4-30.2,45.7c-0.4,0.6-0.7,1.1-1.2,0c-0.3-0.7-0.9-1.3-1.3-1.9c0-0.4,0.3-0.7,0.6-1c2.1-3.1,4.2-6.2,6.3-9.4 c7.7-11.4,15.4-22.8,23.1-34.2c1.3-1.9,2.5-3.9,4-5.6c-0.1,0.7-0.1,1.3-0.2,2C64.3,125.9,64.3,126.1,64.4,126.3"/><path class="st11" d="M64.4,126.3c0,0.2,0,0.5-0.1,0.7c-0.2,0.3-0.2,0.7-0.1,1.1c0,0.7-0.3,1.4-0.7,2 c-10.1,15.2-20.2,30.4-30.2,45.7c-0.4,0.6-0.7,1.1-1.2,0c-0.3-0.7-0.9-1.3-1.3-1.9c0-0.4,0.3-0.7,0.6-1c2.1-3.1,4.2-6.2,6.3-9.4 c7.7-11.4,15.4-22.8,23.1-34.2c1.3-1.9,2.5-3.9,4-5.6c-0.1,0.7-0.1,1.3-0.2,2C64.3,125.9,64.3,126.1,64.4,126.3z"/><path class="st4" d="M37.6,183.1c-3.8,0-6.8-1.7-9-4.6c-0.6-0.8-1.2-1.1-2.1-1.4c-3.9-1.1-6.8-3.4-8.1-7.3 c-0.1-0.3-0.4-0.7,0.2-0.8c0.4-0.1,0.8-0.3,1.1,0.4c1.3,3.7,4.2,5.5,7.9,6.2c0.8,0.2,1.3,0.5,1.7,1.2c2,3.2,4.9,5.1,8.8,5.2 c0.3,0,0.5,0,0.8,0.1c0.4,0.1,0.4,0.4,0.4,0.7c0,0.3-0.3,0.2-0.5,0.3C38.3,183.1,38,183.1,37.6,183.1"/><path class="st10" d="M37.6,183.1c-3.8,0-6.8-1.7-9-4.6c-0.6-0.8-1.2-1.1-2.1-1.4c-3.9-1.1-6.8-3.4-8.1-7.3 c-0.1-0.3-0.4-0.7,0.2-0.8c0.4-0.1,0.8-0.3,1.1,0.4c1.3,3.7,4.2,5.5,7.9,6.2c0.8,0.2,1.3,0.5,1.7,1.2c2,3.2,4.9,5.1,8.8,5.2 c0.3,0,0.5,0,0.8,0.1c0.4,0.1,0.4,0.4,0.4,0.7c0,0.3-0.3,0.2-0.5,0.3C38.3,183.1,38,183.1,37.6,183.1z"/><path class="st4" d="M11.9,195.4c0-1.6,1.2-3,2.8-3c1.6-0.1,2.9,1.3,3,2.9c0,1.5-1.3,2.9-2.8,3C13.4,198.4,12,197.1,11.9,195.4"/><path class="st5" d="M11.9,195.4c0-1.6,1.2-3,2.8-3c1.6-0.1,2.9,1.3,3,2.9c0,1.5-1.3,2.9-2.8,3C13.4,198.4,12,197.1,11.9,195.4z"/><path class="st2" d="M16.6,185.3c1.6-1.2,3.4-1.6,5.2-1.8c1.9-0.3,3.7-0.5,5.6-0.9c0.2-0.1,0.5-0.2,0.7,0.1 c0.2,0.3-0.1,0.5-0.3,0.6c-1,0.9-2.1,1.6-3.4,2c-2.8,0.9-5.8,0.8-8.6,1.7c2.7-2.3,6.4-1.6,9.3-3.1 C22.4,184.7,19.4,184.3,16.6,185.3"/><path class="st8" d="M16.6,185.3c1.6-1.2,3.4-1.6,5.2-1.8c1.9-0.3,3.7-0.5,5.6-0.9c0.2-0.1,0.5-0.2,0.7,0.1 c0.2,0.3-0.1,0.5-0.3,0.6c-1,0.9-2.1,1.6-3.4,2c-2.8,0.9-5.8,0.8-8.6,1.7c2.7-2.3,6.4-1.6,9.3-3.1 C22.4,184.7,19.4,184.3,16.6,185.3z"/><path class="st4" d="M16.3,166c0-1.2,0.9-2.2,2.2-2.3c1.2,0,2.3,1,2.3,2.1c0,1.2-1,2.2-2.2,2.3C17.3,168.1,16.3,167.2,16.3,166"/><path class="st10" d="M16.3,166c0-1.2,0.9-2.2,2.2-2.3c1.2,0,2.3,1,2.3,2.1c0,1.2-1,2.2-2.2,2.3C17.3,168.1,16.3,167.2,16.3,166z"/><path class="st4" d="M42.2,179.3c1.3,0,2.3,0.9,2.3,2.2c0,1.2-1,2.2-2.2,2.2c-1.2,0-2.3-1-2.3-2.2C40,180.3,40.9,179.3,42.2,179.3"/><path class="st10" d="M42.2,179.3c1.3,0,2.3,0.9,2.3,2.2c0,1.2-1,2.2-2.2,2.2c-1.2,0-2.3-1-2.3-2.2C40,180.3,40.9,179.3,42.2,179.3 z"/><path class="st2" d="M18.5,183c3.1-0.9,6.3-1.4,9.3-2.4c0-0.1,0-0.2-0.1-0.3c-2.9,0.5-5.9,1.1-8.8,1.6c1.6-0.9,3.3-1.4,5-1.6 c1.2-0.2,2.4,0,3.5-0.3c0.7-0.2,1.1,0.5,1.4,0.9c0.3,0.4-0.3,0.5-0.6,0.6c-1.6,0.6-3.4,0.9-5.1,1C21.6,182.6,20.1,183,18.5,183"/><path class="st8" d="M18.5,183c3.1-0.9,6.3-1.4,9.3-2.4c0-0.1,0-0.2-0.1-0.3c-2.9,0.5-5.9,1.1-8.8,1.6c1.6-0.9,3.3-1.4,5-1.6 c1.2-0.2,2.4,0,3.5-0.3c0.7-0.2,1.1,0.5,1.4,0.9c0.3,0.4-0.3,0.5-0.6,0.6c-1.6,0.6-3.4,0.9-5.1,1C21.6,182.6,20.1,183,18.5,183z"/><path class="st2" d="M15.4,189.9c2.1-1.9,5.1-1.1,7.4-2.5c-1.8-0.1-3.6,0.3-5.4,0.5c2.7-1.2,5.7-1.1,8.5-2.2 c-0.1,0.8-0.6,1.2-1.1,1.6c-1,0.6-2.1,1-3.2,1.3C19.5,189.1,17.4,189.3,15.4,189.9"/><path class="st8" d="M15.4,189.9c2.1-1.9,5.1-1.1,7.4-2.5c-1.8-0.1-3.6,0.3-5.4,0.5c2.7-1.2,5.7-1.1,8.5-2.2 c-0.1,0.8-0.6,1.2-1.1,1.6c-1,0.6-2.1,1-3.2,1.3C19.5,189.1,17.4,189.3,15.4,189.9z"/><path class="st2" d="M20.7,190.6c-1.7-0.1-3.2,0.4-4.9,0.4c2.2-1,4.7-1.2,7.2-1.8c-1,2-3.4,3-6,2.5 C18.3,191.1,19.7,191.3,20.7,190.6"/><path class="st8" d="M20.7,190.6c-1.7-0.1-3.2,0.4-4.9,0.4c2.2-1,4.7-1.2,7.2-1.8c-1,2-3.4,3-6,2.5 C18.3,191.1,19.7,191.3,20.7,190.6z"/><path class="st4" d="M11,198.8c-0.1,0.4-0.3,0.8,0,1.2c0.2,0.1,0.3-0.1,0.3-0.2c0.5-0.7,1.3-0.7,2-0.4c0.5,0.2,0.4,0.7,0.3,1 c-0.1,0.7-0.6,1.3-1.3,1.4c-1,0.2-1.7-0.2-2.1-1C9.9,199.9,10.1,199.2,11,198.8"/><path class="st5" d="M11,198.8c-0.1,0.4-0.3,0.8,0,1.2c0.2,0.1,0.3-0.1,0.3-0.2c0.5-0.7,1.3-0.7,2-0.4c0.5,0.2,0.4,0.7,0.3,1 c-0.1,0.7-0.6,1.3-1.3,1.4c-1,0.2-1.7-0.2-2.1-1C9.9,199.9,10.1,199.2,11,198.8z"/><path class="st2" d="M19.4,180.3c0.1-0.6,0.4-0.8,0.8-0.9c1.9-0.4,3.8-0.8,5.8-1.2c0.4-0.1,0.9-0.2,0.9,0.4c0,0.6-0.5,0.4-0.8,0.5 C23.9,179.4,21.7,179.7,19.4,180.3"/><path class="st8" d="M19.4,180.3c0.1-0.6,0.4-0.8,0.8-0.9c1.9-0.4,3.8-0.8,5.8-1.2c0.4-0.1,0.9-0.2,0.9,0.4c0,0.6-0.5,0.4-0.8,0.5 C23.9,179.4,21.7,179.7,19.4,180.3z"/><path class="st2" d="M21.2,178.3c1.1-0.6,2.3-0.6,3.5-0.5C23.6,178.6,22.4,178.2,21.2,178.3"/><path class="st8" d="M21.2,178.3c1.1-0.6,2.3-0.6,3.5-0.5C23.6,178.6,22.4,178.2,21.2,178.3z"/><path class="st2" d="M22.1,177c-0.3,0-0.6-0.1-0.6-0.3c0-0.3,0.2-0.5,0.4-0.5c0.3,0,0.5,0.2,0.5,0.4C22.5,176.9,22.2,177,22.1,177"/><path class="st2" d="M18.1,183.3c-0.2,0.2-0.4,0.4-0.8,0.3C17.5,183.2,17.7,183.1,18.1,183.3"/><path class="st8" d="M18.1,183.3c-0.2,0.2-0.4,0.4-0.8,0.3C17.5,183.2,17.7,183.1,18.1,183.3z"/><path class="st0" d="M65.6,120.9c-2.7,1.4-5.3,2.9-8,4.3c-0.5,0.3-1,0.6-1.2,1.2c-2.9,4-5.8,8.1-8.6,12.2c-1.8,2.3-3.5,4.7-5.1,7.2 c-0.1,0.1-0.1,0.2-0.2,0.3c0,0.1-0.1,0.1-0.1,0.2l-1.3,1.8c-0.1,0-0.1,0.1-0.1,0.2c-0.1,0.1-0.1,0.2-0.2,0.3c-0.8,0.9-1.4,2-2.1,3 c-1.9,2.7-3.7,5.4-5.7,8c-1.2,1.6-2.2,3.2-3.4,4.8c-1.3,1.6-2.5,3.4-3.6,5.2c-1.1,1.8-1.4,1.9-2.7,0.3c-0.9-1.2-2-2.3-1.8-4 c0.1-1.4-1.1-2.6-2.4-2.9c-1.5-0.3-2.9,0.5-3.7,2c-0.5,1-0.1,2.5,0.9,3.4c0.4,0.3,0.7,0.5,0.8,1.1c0.5,2.1,1.5,4,3.2,5.5 c0.5,0.4,0.6,0.9,0.1,1.4c-1.7,2.2-3.1,4.6-4.4,7c-1.2,2.4-2.2,4.8-2,7.5c0,0.6,0,0.8-0.6,1c-2.1,0.8-3,2.8-2.3,4.9 c0.2,0.7,0.1,0.8-0.5,1.1c-1.3,0.7-1.8,2.3-1.2,3.5c0.7,1.2,1.8,1.7,3.2,1.4c1.2-0.3,2-1.3,1.9-2.7c0-0.4-0.1-0.6,0.5-0.7 c2.7-0.4,3.9-2.2,3.4-4.9c-0.1-0.4-0.1-0.5,0.3-0.6c1.8-0.4,3.1-1.5,4.3-2.7c2.6-2.5,4.7-5.3,6.6-8.3c0.5-0.8,0.9-0.9,1.7-0.4 c2.4,1.5,5,2.1,7.8,1.6c0.5-0.1,1,0,1.5,0.3c1.7,0.9,2.9,0.5,4.1-0.8c0.9-1,0.8-2.8-0.1-3.8c-1.2-1.3-2.8-1.5-4.2-0.7 c-0.3,0.2-0.6,0.4-1,0.4c-2-0.2-3.9-0.7-5.6-1.9c-0.4-0.3-0.4-0.5-0.2-0.9c0.5-0.8,1.1-1.6,1.6-2.3c7.1-10.8,14.1-21.5,21.2-32.3 c2.6-4,5.2-8,7.9-12.1l0.1-0.2c0-0.2,0-0.4,0.1-0.7c0.2-0.1,0.2-0.3,0.2-0.4c0-0.1,0-0.3,0-0.4c0.2-0.1,0.2-0.3,0.1-0.4 c0-0.2,0-0.3,0-0.5c0.2-0.2,0.2-0.4,0.2-0.6c0.1-0.4,0.3-0.9,0.2-1.3c0-0.1,0-0.1,0.1-0.2c0-0.2,0.1-0.5,0.1-0.7 c0.2-0.3,0.2-0.6,0.2-0.9c0.2-0.4,0.3-0.7,0.2-1.1c0.2-0.1,0.2-0.3,0.1-0.4c0-0.2,0-0.3,0-0.5c0.2-0.3,0.3-0.6,0.1-0.9 C66.1,120.5,65.8,120.7,65.6,120.9 M11.3,199.7c0.5-0.7,1.3-0.7,2-0.4c0.5,0.2,0.4,0.7,0.3,1c-0.1,0.7-0.6,1.3-1.3,1.4 c-1,0.2-1.7-0.2-2.1-1c-0.3-0.8-0.1-1.5,0.7-1.9c-0.1,0.4-0.3,0.8,0,1.2C11.2,200,11.2,199.8,11.3,199.7 M30.6,165L30.6,165 c0.3-0.2,0.5-0.5,0.6-0.9l0,0c1.2-1.4,2.2-2.9,3.1-4.5l0,0c0.5-0.4,0.8-1,1.1-1.5c0.1-0.1,0.1-0.2,0.2-0.2c0.1-0.1,0.1-0.1,0.2-0.2 c0.1,0,0.1-0.1,0.1-0.2c3.3-4.5,6.5-9.1,9.5-13.7c0.1-0.1,0.1-0.2,0.2-0.2c1-1.2,1.9-2.5,2.7-3.8c0.1-0.1,0.2-0.3,0.3-0.4 c2.1-3,4.3-6.1,6.4-9.1c0.7-1.1,1.5-2.2,2.2-3.3c0.6-0.8,1.6-1,2.5-1.5c0.1,0,0.1-0.1,0.2-0.1c0.3-0.1,0.6-0.3,0.9-0.4 c0.6-0.1,1.1-0.4,1.5-0.7c0.1,0,0.1,0,0.2-0.1c0.1,0,0.2,0,0.2,0c0.1,0,0.3,0,0.4,0.1c-0.7,1.1-1.4,2.1-2.1,3.2 c-7.9,11.7-15.9,23.5-23.8,35.2c-2.5,3.6-4.9,7.3-7.3,10.9c-0.9,0.3-1.6-0.3-2.4-0.4c-0.5,0-0.9-0.2-1.4-0.3 c-0.1-0.1-0.2-0.1-0.3-0.2l0,0c0-0.1,0-0.1,0-0.2l0,0c0-0.1,0.1-0.1,0.1-0.2c0.1,0,0.1-0.1,0.1-0.2C27.6,169.6,29.2,167.3,30.6,165 M16.3,166c0-1.2,0.9-2.2,2.2-2.3c1.2,0,2.3,1,2.3,2.1c0,1.2-1,2.2-2.2,2.3C17.3,168.1,16.3,167.2,16.3,166 M21.5,176.7 c0-0.3,0.2-0.5,0.4-0.5c0.3,0,0.5,0.2,0.5,0.4c0,0.3-0.3,0.3-0.4,0.4C21.8,177.1,21.6,177,21.5,176.7 M21.2,178.3 c1.1-0.6,2.3-0.6,3.5-0.5C23.6,178.6,22.4,178.2,21.2,178.3 M20.2,179.4c1.9-0.4,3.8-0.8,5.8-1.2c0.4-0.1,0.9-0.2,0.9,0.4 c0,0.6-0.5,0.4-0.8,0.5c-2.2,0.2-4.4,0.6-6.7,1.2C19.5,179.7,19.8,179.5,20.2,179.4 M17.3,183.6c0.2-0.3,0.4-0.5,0.8-0.3 C17.9,183.4,17.7,183.7,17.3,183.6 M17.7,195.4c0,1.5-1.3,2.9-2.8,3c-1.5,0.1-2.9-1.3-3-2.9c0-1.6,1.2-3,2.8-3 C16.3,192.4,17.7,193.8,17.7,195.4 M17,191.8c1.3-0.7,2.7-0.5,3.7-1.1c-1.7-0.1-3.2,0.4-4.9,0.4c2.2-1,4.7-1.2,7.2-1.8 C22,191.2,19.6,192.2,17,191.8 M24.7,187.3c-1,0.6-2.1,1-3.2,1.3c-2,0.6-4.1,0.8-6.2,1.3c2.1-1.9,5.1-1.1,7.4-2.5 c-1.8-0.1-3.6,0.3-5.4,0.5c2.7-1.2,5.7-1.1,8.5-2.2C25.8,186.6,25.2,186.9,24.7,187.3 M28.1,182.7c0.2,0.3-0.1,0.5-0.3,0.6 c-1,0.9-2.1,1.6-3.4,2c-2.8,0.9-5.8,0.8-8.6,1.7c2.7-2.3,6.4-1.6,9.3-3.1c-2.8,0.7-5.8,0.4-8.6,1.4c1.6-1.2,3.4-1.6,5.2-1.8 c1.9-0.3,3.7-0.5,5.6-0.9C27.6,182.6,27.9,182.4,28.1,182.7 M23.2,182.5c-1.6,0.1-3.1,0.6-4.7,0.6c3.1-0.9,6.3-1.4,9.3-2.4 c0-0.1,0-0.2-0.1-0.3c-2.9,0.5-5.9,1.1-8.8,1.6c1.6-0.9,3.3-1.4,5-1.6c1.2-0.2,2.4,0,3.5-0.3c0.7-0.2,1.1,0.5,1.4,0.9 c0.3,0.4-0.3,0.5-0.6,0.6C26.6,182,24.9,182.3,23.2,182.5 M28.6,178.5c-0.6-0.8-1.2-1.1-2.1-1.4c-3.9-1.1-6.8-3.4-8.1-7.3 c-0.1-0.3-0.4-0.7,0.2-0.8c0.4-0.1,0.8-0.3,1.1,0.4c1.3,3.7,4.2,5.5,7.9,6.2c0.8,0.2,1.3,0.5,1.7,1.2c2,3.2,4.9,5.1,8.8,5.2 c0.3,0,0.5,0,0.8,0.1c0.4,0.1,0.4,0.4,0.4,0.7c0,0.3-0.3,0.2-0.5,0.3c-0.4,0-0.7,0-1.1,0.1C33.8,183.1,30.8,181.4,28.6,178.5 M44.5,181.5c0,1.2-1,2.2-2.2,2.2c-1.2,0-2.3-1-2.3-2.2c0-1.2,0.9-2.2,2.2-2.2C43.5,179.3,44.5,180.2,44.5,181.5 M32.3,177.3 c1.7,1.5,3.7,2.5,6.1,2.8c0.2,0,0.8-0.2,0.8,0.5c-0.1,0.5-0.5,0.6-0.9,0.6c-3.5,0-6-1.7-8-4.4c-0.4-0.5-0.6-1.1-1-1.7 c-1.9-0.3-3.8-0.6-5.5-1.7c-1.6-1-2.7-2.3-3.3-4.1c-0.1-0.4-0.3-0.9,0.3-1.1c0.5-0.2,0.5,0.4,0.7,0.7c1.4,2.1,3,4,5.7,4.6 c0.9,0.2,1.5,0.9,2.2,1.4C30.6,175.4,31.4,176.4,32.3,177.3 M64.5,125.7c-0.2,0.2-0.2,0.4-0.1,0.7l-0.1,0.7 c-0.2,0.3-0.2,0.7-0.1,1.1c0,0.7-0.3,1.4-0.7,2c-10.1,15.2-20.2,30.4-30.2,45.7c-0.4,0.6-0.7,1.1-1.2,0c-0.3-0.7-0.9-1.3-1.3-1.9 c0-0.4,0.3-0.7,0.6-1c2.1-3.1,4.2-6.2,6.3-9.4c7.7-11.4,15.4-22.8,23.1-34.2c1.3-1.9,2.5-3.9,4-5.6C64.6,124.3,64.5,125,64.5,125.7"/><path class="st0" d="M12.8,194.2c-0.3,0.6-0.3,1.3,0.3,1.8c0-0.9,0-1.7,1.1-2c0.9-0.4,1.6,0.3,2.5,0.6c-0.4-1-1-1.4-1.9-1.4 C13.8,193.1,13.1,193.4,12.8,194.2"/><path class="st4" d="M29.1,52.4c0.8-0.4,1.6-0.8,2.1-1.5c1.6-2.2,3.9-3,6.4-3.6c0.3-0.1,0.8,0.2,0.9-0.4c0-0.6-0.5-0.7-0.9-0.7 c-1.9-0.1-3.5,0.5-5,1.6C31,49,30,50.6,29,52.3c-0.6,0.1-1.3,0.1-1.9,0.2c-3.2,0.8-5.8,2.5-7,5.8c-0.2,0.4-0.3,0.8,0.2,1 c0.6,0.3,0.6-0.3,0.7-0.5c1.1-2,2.8-3.6,4.8-4.6C26.9,53.7,28.2,53.3,29.1,52.4"/><path class="st10" d="M29.1,52.4c0.8-0.4,1.6-0.8,2.1-1.5c1.6-2.2,3.9-3,6.4-3.6c0.3-0.1,0.8,0.2,0.9-0.4c0-0.6-0.5-0.7-0.9-0.7 c-1.9-0.1-3.5,0.5-5,1.6C31,49,30,50.6,29,52.3c-0.6,0.1-1.3,0.1-1.9,0.2c-3.2,0.8-5.8,2.5-7,5.8c-0.2,0.4-0.3,0.8,0.2,1 c0.6,0.3,0.6-0.3,0.7-0.5c1.1-2,2.8-3.6,4.8-4.6C26.9,53.7,28.2,53.3,29.1,52.4z"/><path class="st6" d="M52.1,78.9c0.1,0.1,0.1,0.2,0.2,0.2c0.7,1.4,1.6,2.7,2.6,3.9c0.1,0.1,0.2,0.3,0.3,0.4c2,3.1,4,6.2,6.1,9.3 c0.7,1.1,1.5,2.2,2.2,3.2c0.5,0.9,0.3,1.9,0.5,2.8c0,0.1,0,0.2,0.1,0.3c0,0.3,0,0.7,0.1,1c-0.1,0.6,0,1.1,0.1,1.7 c0,0.1,0,0.1,0,0.2c0,0.1,0,0.1-0.1,0.2c-0.1,0.1-0.1,0.3-0.2,0.4c-0.7-1-1.5-2.1-2.2-3.1C53.7,87.7,45.7,76,37.8,64.2 c-2.5-3.6-4.9-7.2-7.4-10.9c0-1,0.9-1.4,1.3-2.1c0.2-0.4,0.6-0.8,0.8-1.2c0.1-0.1,0.2-0.1,0.2-0.2l0,0c0.1,0,0.1,0.1,0.2,0.1l0,0 c0,0.1,0.1,0.1,0.1,0.2c0,0.1,0.1,0.1,0.1,0.2c1.4,2.3,2.9,4.6,4.5,6.8l0,0c0.1,0.4,0.3,0.7,0.6,0.9l0,0c0.9,1.6,1.9,3.1,3,4.6l0,0 c0.2,0.6,0.6,1.1,1,1.6c0.1,0.1,0.1,0.2,0.2,0.2c0,0.1,0.1,0.2,0.1,0.2c0,0.1,0.1,0.1,0.1,0.1C45.9,69.6,48.9,74.3,52.1,78.9"/><path class="st11" d="M52.1,78.9c0.1,0.1,0.1,0.2,0.2,0.2c0.7,1.4,1.6,2.7,2.6,3.9c0.1,0.1,0.2,0.3,0.3,0.4c2,3.1,4,6.2,6.1,9.3 c0.7,1.1,1.5,2.2,2.2,3.2c0.5,0.9,0.3,1.9,0.5,2.8c0,0.1,0,0.2,0.1,0.3c0,0.3,0,0.7,0.1,1c-0.1,0.6,0,1.1,0.1,1.7 c0,0.1,0,0.1,0,0.2c0,0.1,0,0.1-0.1,0.2c-0.1,0.1-0.1,0.3-0.2,0.4c-0.7-1-1.5-2.1-2.2-3.1C53.7,87.7,45.7,76,37.8,64.2 c-2.5-3.6-4.9-7.2-7.4-10.9c0-1,0.9-1.4,1.3-2.1c0.2-0.4,0.6-0.8,0.8-1.2c0.1-0.1,0.2-0.1,0.2-0.2l0,0c0.1,0,0.1,0.1,0.2,0.1l0,0 c0,0.1,0.1,0.1,0.1,0.2c0,0.1,0.1,0.1,0.1,0.2c1.4,2.3,2.9,4.6,4.5,6.8l0,0c0.1,0.4,0.3,0.7,0.6,0.9l0,0c0.9,1.6,1.9,3.1,3,4.6l0,0 c0.2,0.6,0.6,1.1,1,1.6c0.1,0.1,0.1,0.2,0.2,0.2c0,0.1,0.1,0.2,0.1,0.2c0,0.1,0.1,0.1,0.1,0.1C45.9,69.6,48.9,74.3,52.1,78.9z"/><path class="st6" d="M61.1,103c-0.2-0.1-0.4-0.2-0.6-0.3c-0.2-0.3-0.6-0.4-1-0.5c-0.7-0.3-1.2-0.8-1.6-1.4 c-10.4-15-20.7-30.1-31.1-45.1c-0.4-0.6-0.7-1.1,0.4-1.2c0.8-0.1,1.5-0.3,2.2-0.5c0.4,0.2,0.5,0.6,0.8,0.9c2.1,3.1,4.2,6.2,6.3,9.3 C44.4,75.6,52.1,87,59.8,98.4c1.3,1.9,2.7,3.7,3.7,5.8c-0.6-0.3-1.2-0.6-1.8-0.9C61.6,103.1,61.4,103,61.1,103"/><path class="st11" d="M61.1,103c-0.2-0.1-0.4-0.2-0.6-0.3c-0.2-0.3-0.6-0.4-1-0.5c-0.7-0.3-1.2-0.8-1.6-1.4 c-10.4-15-20.7-30.1-31.1-45.1c-0.4-0.6-0.7-1.1,0.4-1.2c0.8-0.1,1.5-0.3,2.2-0.5c0.4,0.2,0.5,0.6,0.8,0.9c2.1,3.1,4.2,6.2,6.3,9.3 C44.4,75.6,52.1,87,59.8,98.4c1.3,1.9,2.7,3.7,3.7,5.8c-0.6-0.3-1.2-0.6-1.8-0.9C61.6,103.1,61.4,103,61.1,103z"/><path class="st4" d="M18.5,56.9c1.4-3.6,4.1-5.7,7.6-6.7c0.9-0.3,1.5-0.7,2.1-1.4c2.5-3.2,5.7-5.1,9.8-4.8c0.3,0,0.8-0.1,0.6,0.5 c-0.1,0.4,0,0.9-0.7,0.9c-3.9-0.2-6.6,1.9-8.7,5c-0.4,0.7-0.9,1-1.7,1.1c-3.7,0.7-6.6,2.6-8.1,6.2c-0.1,0.2-0.2,0.5-0.4,0.7 c-0.2,0.3-0.5,0.2-0.8,0.1c-0.3-0.1-0.1-0.4-0.1-0.6C18.2,57.6,18.3,57.3,18.5,56.9"/><path class="st10" d="M18.5,56.9c1.4-3.6,4.1-5.7,7.6-6.7c0.9-0.3,1.5-0.7,2.1-1.4c2.5-3.2,5.7-5.1,9.8-4.8c0.3,0,0.8-0.1,0.6,0.5 c-0.1,0.4,0,0.9-0.7,0.9c-3.9-0.2-6.6,1.9-8.7,5c-0.4,0.7-0.9,1-1.7,1.1c-3.7,0.7-6.6,2.6-8.1,6.2c-0.1,0.2-0.2,0.5-0.4,0.7 c-0.2,0.3-0.5,0.2-0.8,0.1c-0.3-0.1-0.1-0.4-0.1-0.6C18.2,57.6,18.3,57.3,18.5,56.9z"/><path class="st4" d="M16.6,28.5c1.5,0.6,2.3,2.2,1.7,3.7c-0.5,1.5-2.3,2.2-3.8,1.6c-1.4-0.6-2.2-2.3-1.7-3.7 C13.3,28.7,15.1,27.9,16.6,28.5"/><path class="st5" d="M16.6,28.5c1.5,0.6,2.3,2.2,1.7,3.7c-0.5,1.5-2.3,2.2-3.8,1.6c-1.4-0.6-2.2-2.3-1.7-3.7 C13.3,28.7,15.1,27.9,16.6,28.5z"/><path class="st2" d="M24.2,36.6c0.6,1.9,0.2,3.7-0.2,5.5c-0.4,1.8-0.9,3.7-1.3,5.5c0,0.2,0,0.6-0.3,0.6c-0.3,0-0.4-0.3-0.5-0.5 c-0.5-1.3-0.7-2.6-0.6-3.9c0.2-2.9,1.4-5.6,1.6-8.6c1.2,3.3-0.9,6.5-0.6,9.8C22.7,42.2,24.1,39.6,24.2,36.6"/><path class="st8" d="M24.2,36.6c0.6,1.9,0.2,3.7-0.2,5.5c-0.4,1.8-0.9,3.7-1.3,5.5c0,0.2,0,0.6-0.3,0.6c-0.3,0-0.4-0.3-0.5-0.5 c-0.5-1.3-0.7-2.6-0.6-3.9c0.2-2.9,1.4-5.6,1.6-8.6c1.2,3.3-0.9,6.5-0.6,9.8C22.7,42.2,24.1,39.6,24.2,36.6z"/><path class="st4" d="M42.3,43.5c1.2,0.4,1.7,1.7,1.3,2.9c-0.4,1.1-1.8,1.8-2.9,1.4c-1.1-0.4-1.7-1.8-1.3-2.9 C39.9,43.7,41.1,43.1,42.3,43.5"/><path class="st10" d="M42.3,43.5c1.2,0.4,1.7,1.7,1.3,2.9c-0.4,1.1-1.8,1.8-2.9,1.4c-1.1-0.4-1.7-1.8-1.3-2.9 C39.9,43.7,41.1,43.1,42.3,43.5z"/><path class="st4" d="M20.3,62.6c-0.4,1.2-1.7,1.8-2.9,1.3c-1.1-0.4-1.7-1.8-1.2-2.9c0.5-1.2,1.8-1.7,2.9-1.3 C20.2,60.2,20.7,61.4,20.3,62.6"/><path class="st10" d="M20.3,62.6c-0.4,1.2-1.7,1.8-2.9,1.3c-1.1-0.4-1.7-1.8-1.2-2.9c0.5-1.2,1.8-1.7,2.9-1.3 C20.2,60.2,20.7,61.4,20.3,62.6z"/><path class="st2" d="M25.6,39.2c-0.4,3.2-1.1,6.3-1.2,9.5c0.1,0,0.2,0,0.3,0c0.6-2.9,1.2-5.8,1.8-8.8c0.3,1.8,0.1,3.6-0.4,5.3 c-0.3,1.1-0.9,2.2-1.1,3.4c-0.1,0.7-0.8,0.9-1.3,1c-0.5,0.1-0.3-0.5-0.3-0.7c0.1-1.7,0.4-3.5,0.9-5.1 C24.9,42.3,25.1,40.7,25.6,39.2"/><path class="st8" d="M25.6,39.2c-0.4,3.2-1.1,6.3-1.2,9.5c0.1,0,0.2,0,0.3,0c0.6-2.9,1.2-5.8,1.8-8.8c0.3,1.8,0.1,3.6-0.4,5.3 c-0.3,1.1-0.9,2.2-1.1,3.4c-0.1,0.7-0.8,0.9-1.3,1c-0.5,0.1-0.3-0.5-0.3-0.7c0.1-1.7,0.4-3.5,0.9-5.1 C24.9,42.3,25.1,40.7,25.6,39.2z"/><path class="st2" d="M20.4,33.8c1,2.6-0.9,5.1-0.4,7.7c0.8-1.7,1.1-3.4,1.5-5.2c0.1,2.9-1.1,5.7-1.1,8.7c-0.8-0.4-0.9-1-1-1.6 c-0.2-1.1-0.1-2.3,0-3.4C19.6,37.9,20.2,35.9,20.4,33.8"/><path class="st8" d="M20.4,33.8c1,2.6-0.9,5.1-0.4,7.7c0.8-1.7,1.1-3.4,1.5-5.2c0.1,2.9-1.1,5.7-1.1,8.7c-0.8-0.4-0.9-1-1-1.6 c-0.2-1.1-0.1-2.3,0-3.4C19.6,37.9,20.2,35.9,20.4,33.8z"/><path class="st2" d="M17.8,38.5c0.7-1.5,0.8-3.1,1.4-4.7c0.1,2.5-0.6,4.8-1,7.3c-1.5-1.7-1.5-4.3-0.1-6.5 C18.2,36.1,17.5,37.2,17.8,38.5"/><path class="st8" d="M17.8,38.5c0.7-1.5,0.8-3.1,1.4-4.7c0.1,2.5-0.6,4.8-1,7.3c-1.5-1.7-1.5-4.3-0.1-6.5 C18.2,36.1,17.5,37.2,17.8,38.5z"/><path class="st4" d="M13.8,26.4c-0.4-0.2-0.6-0.6-1.1-0.5c-0.1,0.2,0,0.3,0.1,0.4c0.5,0.8,0.1,1.4-0.3,2c-0.3,0.4-0.8,0.1-1.1-0.1 c-0.6-0.4-1-1-0.8-1.8c0.2-1,0.8-1.5,1.7-1.5C13.2,25,13.8,25.5,13.8,26.4"/><path class="st5" d="M13.8,26.4c-0.4-0.2-0.6-0.6-1.1-0.5c-0.1,0.2,0,0.3,0.1,0.4c0.5,0.8,0.1,1.4-0.3,2c-0.3,0.4-0.8,0.1-1.1-0.1 c-0.6-0.4-1-1-0.8-1.8c0.2-1,0.8-1.5,1.7-1.5C13.2,25,13.8,25.5,13.8,26.4z"/><path class="st2" d="M27.8,41.1c0.5,0.3,0.6,0.7,0.5,1.1c-0.3,1.9-0.7,3.9-1.1,5.8c-0.1,0.4-0.2,0.9-0.7,0.7 c-0.6-0.2-0.2-0.6-0.1-0.9C27,45.6,27.5,43.4,27.8,41.1"/><path class="st8" d="M27.8,41.1c0.5,0.3,0.6,0.7,0.5,1.1c-0.3,1.9-0.7,3.9-1.1,5.8c-0.1,0.4-0.2,0.9-0.7,0.7 c-0.6-0.2-0.2-0.6-0.1-0.9C27,45.6,27.5,43.4,27.8,41.1z"/><path class="st2" d="M29,43.5c0.1,1.3-0.3,2.4-0.8,3.4C27.8,45.7,28.7,44.6,29,43.5"/><path class="st8" d="M29,43.5c0.1,1.3-0.3,2.4-0.8,3.4C27.8,45.7,28.7,44.6,29,43.5z"/><path class="st2" d="M29.8,44.8c0.1-0.3,0.3-0.5,0.5-0.4c0.3,0.1,0.4,0.3,0.3,0.6c-0.1,0.3-0.3,0.4-0.6,0.3 C29.8,45.2,29.8,45,29.8,44.8"/><path class="st2" d="M25.6,38.8c-0.1-0.3-0.2-0.6,0-0.9C25.8,38.2,25.8,38.5,25.6,38.8"/><path class="st8" d="M25.6,38.8c-0.1-0.3-0.2-0.6,0-0.9C25.8,38.2,25.8,38.5,25.6,38.8z"/><path class="st0" d="M65.7,106.2c-0.3-3-0.7-6-1-9c-0.1-0.6-0.2-1.1-0.6-1.5c-2.6-4.2-5.3-8.4-8.1-12.6c-1.5-2.5-3.1-5-4.8-7.4 c-0.1-0.1-0.1-0.2-0.2-0.3c0-0.1-0.1-0.1-0.1-0.2c-0.4-0.6-0.8-1.2-1.2-1.9c0-0.1-0.1-0.1-0.1-0.1c-0.1-0.1-0.1-0.2-0.2-0.3 c-0.6-1.1-1.3-2.1-2-3.1c-1.8-2.7-3.6-5.5-5.3-8.2c-1-1.7-2.2-3.3-3.1-5c-1-1.8-2.2-3.6-3.5-5.2c-1.2-1.7-1.3-2,0.7-2.6 c1.4-0.4,2.8-1,4.4-0.2c1.2,0.6,2.8,0,3.6-1.2c0.8-1.3,0.6-2.9-0.5-4.2c-0.7-0.8-2.2-1-3.4-0.4c-0.4,0.2-0.8,0.5-1.3,0.4 c-2.2-0.3-4.3-0.1-6.3,0.9c-0.6,0.3-1,0.2-1.4-0.4c-1.4-2.4-3.1-4.6-4.9-6.7c-1.8-2-3.7-3.8-6.2-4.7c-0.6-0.2-0.7-0.3-0.7-0.9 c0-2.2-1.5-3.9-3.6-4c-0.7,0-0.8-0.2-0.8-0.9c-0.1-1.5-1.4-2.6-2.8-2.4c-1.4,0.2-2.3,1.1-2.5,2.4c-0.2,1.2,0.5,2.4,1.8,2.8 c0.4,0.1,0.6,0.1,0.5,0.7c-0.6,2.7,0.6,4.5,3.3,5c0.4,0.1,0.5,0.1,0.5,0.5c-0.3,1.8,0.2,3.4,0.9,5c1.3,3.3,3.2,6.3,5.2,9.2 c0.5,0.7,0.5,1.1-0.3,1.7c-2.3,1.6-3.8,3.9-4.4,6.7c-0.1,0.5-0.4,0.9-0.8,1.2c-1.4,1.2-1.5,2.6-0.8,4.1c0.6,1.3,2.3,1.8,3.6,1.3 c1.6-0.6,2.5-2,2.2-3.7c-0.1-0.4-0.2-0.7,0-1.1c0.9-1.8,2.1-3.3,3.8-4.5c0.4-0.3,0.6-0.2,0.9,0.2c0.5,0.8,1,1.6,1.6,2.4 c7.4,10.6,14.7,21.1,22.1,31.7c2.7,3.9,5.5,7.9,8.3,11.8c0,0.1,0.1,0.1,0.1,0.2c0.2,0.1,0.4,0.2,0.6,0.3c0,0.2,0.2,0.3,0.3,0.3 c0.1,0.1,0.3,0.1,0.4,0.2c0,0.2,0.2,0.3,0.4,0.3c0.1,0.1,0.3,0.1,0.4,0.2c0.1,0.2,0.3,0.3,0.5,0.4c0.4,0.2,0.7,0.6,1.2,0.7 c0,0,0.1,0.1,0.1,0.1c0.2,0.1,0.4,0.2,0.6,0.4c0.2,0.3,0.4,0.4,0.7,0.5c0.3,0.3,0.6,0.5,0.9,0.6c0,0.2,0.2,0.3,0.4,0.3 c0.1,0.1,0.3,0.1,0.4,0.2c0.2,0.3,0.4,0.5,0.8,0.4C65.9,106.7,65.9,106.4,65.7,106.2 M12.8,26.4c0.5,0.8,0.1,1.4-0.3,2 c-0.3,0.4-0.8,0.1-1.1-0.1c-0.6-0.4-1-1-0.8-1.8c0.2-1,0.8-1.5,1.7-1.5c0.9,0,1.5,0.4,1.5,1.4c-0.4-0.2-0.6-0.6-1.1-0.5 C12.6,26.1,12.8,26.2,12.8,26.4 M37.8,57.2L37.8,57.2c0.1,0.4,0.3,0.7,0.6,0.9l0,0c0.9,1.6,1.9,3.1,3,4.6l0,0 c0.2,0.6,0.6,1.1,1,1.6c0.1,0.1,0.1,0.2,0.2,0.2c0,0.1,0.1,0.2,0.1,0.2c0,0.1,0.1,0.1,0.1,0.1c2.9,4.7,6,9.4,9.2,14 c0.1,0.1,0.1,0.2,0.2,0.2c0.7,1.4,1.6,2.7,2.6,3.9c0.1,0.1,0.2,0.3,0.3,0.4c2,3.1,4,6.2,6.1,9.3c0.7,1.1,1.5,2.2,2.2,3.2 c0.5,0.9,0.3,1.9,0.5,2.8c0,0.1,0,0.2,0.1,0.3c0,0.3,0,0.7,0.1,1c-0.1,0.6,0,1.1,0.1,1.7c0,0.1,0,0.1,0,0.2c0,0.1,0,0.1-0.1,0.2 c-0.1,0.1-0.1,0.3-0.2,0.4c-0.7-1.1-1.5-2.1-2.2-3.2C53.7,87.7,45.7,76,37.8,64.2c-2.5-3.6-4.9-7.2-7.4-10.9c0-1,0.9-1.4,1.3-2.1 c0.2-0.4,0.6-0.8,0.8-1.2c0.1-0.1,0.2-0.1,0.2-0.2l0,0c0.1,0,0.1,0.1,0.2,0.1l0,0c0,0.1,0.1,0.1,0.1,0.2c0,0.1,0.1,0.1,0.1,0.2 C34.7,52.7,36.2,55,37.8,57.2 M42.3,43.5c1.2,0.4,1.7,1.7,1.3,2.9c-0.4,1.1-1.8,1.8-2.9,1.4c-1.1-0.4-1.7-1.8-1.3-2.9 C39.9,43.7,41.1,43.1,42.3,43.5 M30.3,44.4c0.3,0.1,0.4,0.3,0.3,0.6c-0.1,0.3-0.3,0.4-0.6,0.3c-0.2-0.1-0.2-0.4-0.2-0.5 C29.9,44.5,30.1,44.3,30.3,44.4 M29,43.5c0.1,1.3-0.3,2.4-0.8,3.4C27.8,45.7,28.7,44.7,29,43.5 M28.3,42.2 c-0.3,1.9-0.7,3.9-1.1,5.8c-0.1,0.4-0.2,0.9-0.7,0.7c-0.6-0.2-0.2-0.6-0.1-0.9c0.6-2.1,1.1-4.3,1.4-6.6 C28.3,41.4,28.4,41.8,28.3,42.2 M25.6,37.9c0.2,0.3,0.3,0.6,0,0.9C25.5,38.5,25.3,38.2,25.6,37.9 M14.5,33.9 c-1.4-0.6-2.2-2.3-1.7-3.7c0.5-1.4,2.3-2.2,3.8-1.7c1.5,0.6,2.3,2.2,1.7,3.8C17.8,33.7,16,34.5,14.5,33.9 M18.1,34.6 c0.1,1.5-0.6,2.6-0.3,3.9c0.7-1.5,0.8-3.1,1.4-4.7c0.1,2.5-0.6,4.8-1,7.3C16.7,39.5,16.7,36.9,18.1,34.6 M19.4,43.4 c-0.2-1.1-0.1-2.3,0-3.4c0.2-2.1,0.8-4.1,1.1-6.2c1,2.6-0.9,5.1-0.4,7.7c0.8-1.7,1.1-3.4,1.5-5.2c0.1,2.9-1.1,5.7-1.1,8.7 C19.6,44.7,19.5,44.1,19.4,43.4 M22.4,48.3c-0.3,0-0.4-0.3-0.5-0.5c-0.5-1.3-0.7-2.6-0.6-3.9c0.2-2.9,1.4-5.6,1.6-8.6 c1.2,3.3-0.9,6.5-0.6,9.8c0.4-2.9,1.8-5.6,1.9-8.5c0.6,1.9,0.2,3.7-0.2,5.5c-0.4,1.8-0.9,3.7-1.3,5.5 C22.7,47.9,22.7,48.2,22.4,48.3 M24.4,43.8c0.5-1.5,0.7-3.1,1.2-4.6c-0.4,3.2-1.1,6.3-1.2,9.5c0.1,0,0.2,0,0.3,0 c0.6-2.9,1.2-5.8,1.8-8.8c0.3,1.8,0.1,3.5-0.4,5.3c-0.3,1.1-0.9,2.2-1.1,3.4c-0.1,0.7-0.8,0.9-1.3,1c-0.5,0.1-0.3-0.5-0.3-0.7 C23.5,47.2,23.9,45.5,24.4,43.8 M26,50.3c0.9-0.3,1.5-0.7,2.1-1.4c2.5-3.2,5.7-5.1,9.8-4.8c0.3,0,0.8-0.1,0.6,0.5 c-0.1,0.4,0,0.9-0.7,0.9c-3.9-0.2-6.6,1.9-8.7,5c-0.4,0.7-0.9,1-1.7,1.1c-3.7,0.7-6.6,2.6-8.1,6.2c-0.1,0.2-0.2,0.5-0.4,0.7 c-0.2,0.3-0.5,0.2-0.8,0.1c-0.3-0.1-0.1-0.4-0.1-0.6c0.1-0.4,0.2-0.7,0.4-1.1C19.8,53.4,22.5,51.3,26,50.3 M17.4,63.9 c-1.1-0.4-1.7-1.8-1.2-2.9c0.5-1.2,1.8-1.7,2.9-1.3c1.2,0.5,1.7,1.7,1.2,2.9C19.8,63.8,18.5,64.4,17.4,63.9 M25.8,54.2 c-2.1,1-3.7,2.5-4.8,4.6c-0.1,0.2-0.1,0.9-0.7,0.5c-0.5-0.3-0.4-0.6-0.2-1c1.3-3.3,3.8-5,7-5.8c0.6-0.2,1.3-0.2,1.9-0.2 c1-1.6,2-3.3,3.6-4.4c1.5-1.1,3.2-1.7,5-1.6c0.5,0,1,0.1,0.9,0.7c0,0.5-0.6,0.3-0.9,0.4c-2.5,0.5-4.8,1.3-6.4,3.6 c-0.5,0.7-1.4,1.1-2.1,1.5C28.2,53.3,26.9,53.7,25.8,54.2 M61.7,103.3c-0.1-0.2-0.3-0.3-0.6-0.3c-0.2-0.1-0.4-0.2-0.6-0.3 c-0.2-0.3-0.6-0.4-1-0.5c-0.7-0.3-1.2-0.8-1.6-1.4c-10.4-15-20.7-30.1-31.1-45.1c-0.4-0.6-0.7-1.1,0.4-1.2c0.8-0.1,1.5-0.3,2.2-0.5 c0.4,0.2,0.5,0.6,0.8,0.9c2.1,3.1,4.2,6.2,6.3,9.3C44.4,75.6,52.1,87,59.8,98.4c1.3,1.9,2.7,3.7,3.7,5.8 C62.9,103.9,62.3,103.6,61.7,103.3"/><path class="st0" d="M17.4,29.8c-0.5-0.5-1.1-0.8-1.8-0.4c0.8,0.3,1.5,0.6,1.5,1.8c0,1-0.9,1.3-1.5,2.1c1.1,0,1.7-0.4,2.1-1.2 C18.1,31.2,18,30.4,17.4,29.8"/></svg>