<svg version="1.1" id="Layer_1" xmlns="http://www.w3.org/2000/svg" x="0px" y="0px" viewBox="0 0 141.7 226.8" style="enable-background:new 0 0 141.7 226.8" xml:space="preserve"><style>.st0{fill:#1D1D1B}.st2{fill:#FFDC00}.st3{fill:none;stroke:#1D1D1B;stroke-width:1.5;stroke-miterlimit:10}.st4{fill:none;stroke:#1D1D1B;stroke-miterlimit:10}.st5{fill:none;stroke:#1D1D1B;stroke-width:2;stroke-miterlimit:10}</style><path class="st0" d="M8.4,21.2V19h1.6c0.1,0.6,0.4,1.1,0.7,1.4c0.3,0.3,0.7,0.5,1.2,0.5c0.6,0,1.1-0.2,1.4-0.6 c0.3-0.4,0.5-1,0.5-1.8c0-0.8-0.2-1.4-0.6-1.9c-0.4-0.4-1-0.6-1.7-0.6c-0.3,0-0.6,0-0.9,0.1c-0.3,0.1-0.6,0.1-0.9,0.2l-0.8-0.5v-6 h5.2c0.2,0,0.4,0,0.5,0c0.1,0,0.2-0.1,0.2-0.2c0.1-0.1,0.1-0.2,0.2-0.4h1l-0.2,2.8h-5.4v3.2c0.4-0.1,0.7-0.2,1.1-0.2 c0.4-0.1,0.8-0.1,1.3-0.1c0.7,0,1.4,0.1,1.9,0.4c0.5,0.3,1,0.7,1.3,1.2s0.5,1.1,0.5,1.8c0,0.8-0.2,1.5-0.5,2 c-0.4,0.6-0.9,1-1.6,1.2c-0.7,0.3-1.5,0.4-2.5,0.4c-0.6,0-1.2-0.1-1.9-0.2C9.4,21.6,8.8,21.4,8.4,21.2"/><path class="st0" d="M133.7,205.7v2.2h-1.6c-0.1-0.6-0.4-1.1-0.7-1.4c-0.3-0.3-0.7-0.5-1.2-0.5c-0.6,0-1.1,0.2-1.4,0.6 c-0.3,0.4-0.5,1-0.5,1.8c0,0.8,0.2,1.4,0.6,1.9c0.4,0.4,1,0.6,1.7,0.6c0.3,0,0.6,0,0.9-0.1c0.3-0.1,0.6-0.1,0.9-0.2l0.8,0.5v6H128 c-0.2,0-0.4,0-0.5,0c-0.1,0-0.2,0.1-0.2,0.2c-0.1,0.1-0.1,0.2-0.2,0.4h-1l0.2-2.8h5.4v-3.2c-0.4,0.1-0.7,0.2-1.1,0.2 c-0.4,0-0.8,0.1-1.3,0.1c-0.7,0-1.4-0.1-1.9-0.4c-0.5-0.3-1-0.7-1.3-1.2c-0.3-0.5-0.5-1.1-0.5-1.8c0-0.8,0.2-1.5,0.5-2 c0.4-0.6,0.9-1,1.6-1.2c0.7-0.3,1.5-0.4,2.5-0.4c0.6,0,1.2,0.1,1.9,0.2C132.7,205.4,133.2,205.5,133.7,205.7"/><polygon points="104.9,219.8 82.1,219.8 62.8,219.8 40,219.8 25.3,219.8 5.4,219.8 5.4,7 24.6,7 40,7 62.8,7 82.1,7 104.9,7 118.5,7 136.3,7 136.3,219.8 118.2,219.8" style="fill:none;stroke:#1D1D1B;stroke-width:1.614;stroke-miterlimit:10"/><path class="st2" d="M105,204c-13.2,0-23.9-10.7-23.9-23.9c0-13.2,10.7-23.9,23.9-23.9c13.2,0,23.9,10.7,23.9,23.9 C128.9,193.3,118.2,204,105,204"/><path class="st3" d="M105,204c-13.2,0-23.9-10.7-23.9-23.9c0-13.2,10.7-23.9,23.9-23.9c13.2,0,23.9,10.7,23.9,23.9 C128.9,193.3,118.2,204,105,204z"/><path class="st4" d="M105,199.3c-10.6,0-19.2-8.6-19.2-19.2c0-10.6,8.6-19.2,19.2-19.2c10.6,0,19.2,8.6,19.2,19.2 C124.2,190.7,115.6,199.3,105,199.3z"/><path class="st0" d="M104.9,190.4c-5.7,0-10.4-4.6-10.4-10.4s4.6-10.4,10.4-10.4c5.7,0,10.4,4.6,10.4,10.4S110.7,190.4,104.9,190.4 M123.6,179.9l-7.3-2.2l5.8-5l-7.6,0.8l3.5-6.8l-6.7,3.6l0.6-7.6l-4.8,5.9l-2.3-7.3l-2.2,7.3l-4.9-5.8l0.7,7.6l-6.8-3.5l3.6,6.7 l-7.6-0.6l5.9,4.8l-7.2,2.4l7.3,2.2l-5.8,5l7.6-0.8l-3.5,6.8l6.7-3.6l-0.6,7.6l4.8-5.9l2.3,7.3l2.2-7.3l4.9,5.8l-0.7-7.6l6.8,3.5 l-3.6-6.7l7.6,0.6l-5.9-4.8L123.6,179.9z"/><path class="st0" d="M103.3,178.3c0,0-1.1-5-4.2-7.1c-2.2,1.9-2.7,2.5-2.7,2.5S98.9,176.8,103.3,178.3"/><path class="st0" d="M106.4,181.9c0,0,1.1,5.1,4.2,7.1c2.2-1.9,2.7-2.5,2.7-2.5S110.8,183.4,106.4,181.9"/><path class="st0" d="M103.4,181.9c0,0-5,1.1-7.1,4.2c1.9,2.2,2.5,2.7,2.5,2.7S101.9,186.3,103.4,181.9"/><path class="st0" d="M106.8,178.5c0,0,5-1.1,7.1-4.2c-1.9-2.2-2.5-2.7-2.5-2.7S108.3,174.2,106.8,178.5"/><path class="st0" d="M114.7,183.5c0,0-3-2.4-4.3-2.8c2.8-1.5,3.8-2.4,4.5-3.1C115.5,180.9,115,182.5,114.7,183.5 M114.8,176.2 l-0.5,0.3c-0.7,0.9-1.5,1.3-6.3,4.1c2.4,0.4,6.3,4.3,6.3,4.3C117,180.9,114.8,176.2,114.8,176.2"/><path class="st0" d="M95.3,177.2c0,0,2.9,2.4,4.1,2.9c-2.7,1.5-3.7,2.5-4.3,3.1C94.5,179.9,94.9,178.2,95.3,177.2 M95.2,184.7 l0.5-0.3c0.7-0.9,1.4-1.3,6-4.1c-2.3-0.4-6.3-4.8-6.3-4.8C92.7,179.4,95.2,184.7,95.2,184.7"/><path class="st0" d="M108.2,170.2c0,0-2.4,2.9-2.9,4.1c-1.5-2.7-2.5-3.7-3.1-4.3C105.5,169.4,107.1,169.9,108.2,170.2 M100.7,170.1 l0.3,0.5c0.9,0.7,1.3,1.4,4.1,6c0.4-2.3,4.4-6,4.4-6C105.6,167.9,100.7,170.1,100.7,170.1"/><path class="st0" d="M102.1,190.4c0,0,2.4-2.6,2.9-3.7c1.5,2.4,2.5,3.3,3.1,3.9C104.8,191.1,103.2,190.7,102.1,190.4 M109.6,190.5 l-0.3-0.4c-0.9-0.6-1.3-1.3-4.1-5.4c-0.4,2-4.4,5.4-4.4,5.4C104.7,192.5,109.6,190.5,109.6,190.5"/><path class="st2" d="M105,67.1c-13.2,0-23.9-10.7-23.9-23.9c0-13.2,10.7-23.9,23.9-23.9c13.2,0,23.9,10.7,23.9,23.9 C128.9,56.4,118.2,67.1,105,67.1"/><path class="st3" d="M105,67.1c-13.2,0-23.9-10.7-23.9-23.9c0-13.2,10.7-23.9,23.9-23.9c13.2,0,23.9,10.7,23.9,23.9 C128.9,56.4,118.2,67.1,105,67.1z"/><path class="st4" d="M105,62.4c-10.6,0-19.2-8.6-19.2-19.2c0-10.6,8.6-19.2,19.2-19.2c10.6,0,19.2,8.6,19.2,19.2 C124.2,53.8,115.6,62.4,105,62.4z"/><path class="st0" d="M104.9,53.6c-5.7,0-10.4-4.6-10.4-10.4s4.6-10.4,10.4-10.4c5.7,0,10.4,4.6,10.4,10.4S110.7,53.6,104.9,53.6 M123.6,43l-7.3-2.2l5.8-5l-7.6,0.8l3.5-6.8l-6.7,3.6l0.6-7.6l-4.8,5.9l-2.3-7.3l-2.2,7.3L97.6,26l0.7,7.6l-6.8-3.5l3.6,6.7 l-7.6-0.6l5.9,4.8l-7.2,2.4l7.3,2.2l-5.8,5l7.6-0.8l-3.5,6.8l6.7-3.6l-0.6,7.6l4.8-5.9l2.3,7.3l2.2-7.3l4.9,5.8l-0.7-7.6l6.8,3.5 l-3.6-6.7l7.6,0.6l-5.9-4.8L123.6,43z"/><path class="st0" d="M103.3,41.5c0,0-1.1-5-4.2-7.1c-2.2,1.9-2.7,2.5-2.7,2.5S98.9,40,103.3,41.5"/><path class="st0" d="M106.4,45.1c0,0,1.1,5.1,4.2,7.1c2.2-1.9,2.7-2.5,2.7-2.5S110.8,46.6,106.4,45.1"/><path class="st0" d="M103.4,45.1c0,0-5,1.1-7.1,4.2c1.9,2.2,2.5,2.7,2.5,2.7S101.9,49.5,103.4,45.1"/><path class="st0" d="M106.8,41.7c0,0,5-1.1,7.1-4.2c-1.9-2.2-2.5-2.7-2.5-2.7S108.3,37.3,106.8,41.7"/><path class="st0" d="M114.7,46.7c0,0-3-2.4-4.3-2.8c2.8-1.5,3.8-2.4,4.5-3.1C115.5,44,115,45.7,114.7,46.7 M114.8,39.3l-0.5,0.3 c-0.7,0.9-1.5,1.3-6.3,4.1c2.4,0.4,6.3,4.3,6.3,4.3C117,44.1,114.8,39.3,114.8,39.3"/><path class="st0" d="M95.3,40.4c0,0,2.9,2.4,4.1,2.9c-2.7,1.5-3.7,2.5-4.3,3.1C94.5,43.1,94.9,41.4,95.3,40.4 M95.2,47.8l0.5-0.3 c0.7-0.9,1.4-1.3,6-4.1c-2.3-0.4-6.3-4.8-6.3-4.8C92.7,42.6,95.2,47.8,95.2,47.8"/><path class="st0" d="M108.2,33.4c0,0-2.4,2.9-2.9,4.1c-1.5-2.7-2.5-3.7-3.1-4.3C105.5,32.6,107.1,33.1,108.2,33.4 M100.7,33.3 l0.3,0.5c0.9,0.7,1.3,1.4,4.1,6c0.4-2.3,4.4-6,4.4-6C105.6,31.1,100.7,33.3,100.7,33.3"/><path class="st0" d="M102.1,53.6c0,0,2.4-2.6,2.9-3.7c1.5,2.4,2.5,3.3,3.1,3.9C104.8,54.3,103.2,53.9,102.1,53.6 M109.6,53.7 l-0.3-0.4c-0.9-0.6-1.3-1.3-4.1-5.4c-0.4,2-4.4,5.4-4.4,5.4C104.7,55.7,109.6,53.7,109.6,53.7"/><path class="st2" d="M37,204c-13.2,0-23.9-10.7-23.9-23.9c0-13.2,10.7-23.9,23.9-23.9c13.2,0,23.9,10.7,23.9,23.9 C60.9,193.3,50.2,204,37,204"/><path class="st3" d="M37,204c-13.2,0-23.9-10.7-23.9-23.9c0-13.2,10.7-23.9,23.9-23.9c13.2,0,23.9,10.7,23.9,23.9 C60.9,193.3,50.2,204,37,204z"/><path class="st4" d="M37,199.3c-10.6,0-19.2-8.6-19.2-19.2c0-10.6,8.6-19.2,19.2-19.2c10.6,0,19.2,8.6,19.2,19.2 C56.2,190.7,47.6,199.3,37,199.3z"/><path class="st0" d="M37,190.4c-5.7,0-10.4-4.6-10.4-10.4s4.6-10.4,10.4-10.4c5.7,0,10.4,4.6,10.4,10.4S42.7,190.4,37,190.4 M55.7,179.9l-7.3-2.2l5.8-5l-7.6,0.8l3.5-6.8l-6.7,3.6l0.6-7.6l-4.8,5.9l-2.3-7.3l-2.2,7.3l-4.9-5.8l0.7,7.6l-6.8-3.5l3.6,6.7 l-7.6-0.6l5.9,4.8l-7.2,2.4l7.3,2.2l-5.8,5l7.6-0.8l-3.5,6.8l6.7-3.6l-0.6,7.6l4.8-5.9l2.3,7.3l2.2-7.3l4.9,5.8l-0.7-7.6l6.8,3.5 l-3.6-6.7l7.6,0.6l-5.9-4.8L55.7,179.9z"/><path class="st0" d="M35.3,178.3c0,0-1.1-5-4.2-7.1c-2.2,1.9-2.7,2.5-2.7,2.5S30.9,176.8,35.3,178.3"/><path class="st0" d="M38.4,181.9c0,0,1.1,5.1,4.2,7.1c2.2-1.9,2.7-2.5,2.7-2.5S42.8,183.4,38.4,181.9"/><path class="st0" d="M35.5,181.9c0,0-5,1.1-7.1,4.2c1.9,2.2,2.5,2.7,2.5,2.7S33.9,186.3,35.5,181.9"/><path class="st0" d="M38.9,178.5c0,0,5-1.1,7.1-4.2c-1.9-2.2-2.5-2.7-2.5-2.7S40.4,174.2,38.9,178.5"/><path class="st0" d="M46.7,183.5c0,0-3-2.4-4.3-2.8c2.8-1.5,3.8-2.4,4.5-3.1C47.5,180.9,47.1,182.5,46.7,183.5 M46.8,176.2 l-0.5,0.3c-0.7,0.9-1.5,1.3-6.3,4.1c2.4,0.4,6.3,4.3,6.3,4.3C49.1,180.9,46.8,176.2,46.8,176.2"/><path class="st0" d="M27.3,177.2c0,0,2.9,2.4,4.1,2.9c-2.7,1.5-3.7,2.5-4.3,3.1C26.5,179.9,27,178.2,27.3,177.2 M27.2,184.7 l0.5-0.3c0.7-0.9,1.4-1.3,6-4.1c-2.3-0.4-6.3-4.8-6.3-4.8C24.8,179.4,27.2,184.7,27.2,184.7"/><path class="st0" d="M40.2,170.2c0,0-2.4,2.9-2.9,4.1c-1.5-2.7-2.5-3.7-3.1-4.3C37.5,169.4,39.2,169.9,40.2,170.2 M32.8,170.1 l0.3,0.5c0.9,0.7,1.3,1.4,4.1,6c0.4-2.3,4.4-6,4.4-6C37.6,167.9,32.8,170.1,32.8,170.1"/><path class="st0" d="M34.2,190.4c0,0,2.4-2.6,2.9-3.7c1.5,2.4,2.5,3.3,3.1,3.9C36.9,191.1,35.2,190.7,34.2,190.4 M41.7,190.5 l-0.3-0.4c-0.9-0.6-1.3-1.3-4.1-5.4c-0.4,2-4.4,5.4-4.4,5.4C36.8,192.5,41.7,190.5,41.7,190.5"/><path class="st2" d="M37,67.1c-13.2,0-23.9-10.7-23.9-23.9c0-13.2,10.7-23.9,23.9-23.9c13.2,0,23.9,10.7,23.9,23.9 C60.9,56.4,50.2,67.1,37,67.1"/><path class="st3" d="M37,67.1c-13.2,0-23.9-10.7-23.9-23.9c0-13.2,10.7-23.9,23.9-23.9c13.2,0,23.9,10.7,23.9,23.9 C60.9,56.4,50.2,67.1,37,67.1z"/><path class="st4" d="M37,62.4c-10.6,0-19.2-8.6-19.2-19.2c0-10.6,8.6-19.2,19.2-19.2c10.6,0,19.2,8.6,19.2,19.2 C56.2,53.8,47.6,62.4,37,62.4z"/><path class="st0" d="M37,53.6c-5.7,0-10.4-4.6-10.4-10.4S31.3,32.9,37,32.9c5.7,0,10.4,4.6,10.4,10.4S42.7,53.6,37,53.6 M55.7,43 l-7.3-2.2l5.8-5l-7.6,0.8l3.5-6.8l-6.7,3.6l0.6-7.6l-4.8,5.9l-2.3-7.3l-2.2,7.3L29.7,26l0.7,7.6l-6.8-3.5l3.6,6.7l-7.6-0.6l5.9,4.8 l-7.2,2.4l7.3,2.2l-5.8,5l7.6-0.8l-3.5,6.8l6.7-3.6L30,60.6l4.8-5.9l2.3,7.3l2.2-7.3l4.9,5.8l-0.7-7.6l6.8,3.5l-3.6-6.7l7.6,0.6 l-5.9-4.8L55.7,43z"/><path class="st0" d="M35.3,41.5c0,0-1.1-5-4.2-7.1c-2.2,1.9-2.7,2.5-2.7,2.5S30.9,40,35.3,41.5"/><path class="st0" d="M38.4,45.1c0,0,1.1,5.1,4.2,7.1c2.2-1.9,2.7-2.5,2.7-2.5S42.8,46.6,38.4,45.1"/><path class="st0" d="M35.5,45.1c0,0-5,1.1-7.1,4.2c1.9,2.2,2.5,2.7,2.5,2.7S33.9,49.5,35.5,45.1"/><path class="st0" d="M38.9,41.7c0,0,5-1.1,7.1-4.2c-1.9-2.2-2.5-2.7-2.5-2.7S40.4,37.3,38.9,41.7"/><path class="st0" d="M46.7,46.7c0,0-3-2.4-4.3-2.8c2.8-1.5,3.8-2.4,4.5-3.1C47.5,44,47.1,45.7,46.7,46.7 M46.8,39.3l-0.5,0.3 c-0.7,0.9-1.5,1.3-6.3,4.1c2.4,0.4,6.3,4.3,6.3,4.3C49.1,44.1,46.8,39.3,46.8,39.3"/><path class="st0" d="M27.3,40.4c0,0,2.9,2.4,4.1,2.9c-2.7,1.5-3.7,2.5-4.3,3.1C26.5,43.1,27,41.4,27.3,40.4 M27.2,47.8l0.5-0.3 c0.7-0.9,1.4-1.3,6-4.1c-2.3-0.4-6.3-4.8-6.3-4.8C24.8,42.6,27.2,47.8,27.2,47.8"/><path class="st0" d="M40.2,33.4c0,0-2.4,2.9-2.9,4.1c-1.5-2.7-2.5-3.7-3.1-4.3C37.5,32.6,39.2,33.1,40.2,33.4 M32.8,33.3l0.3,0.5 c0.9,0.7,1.3,1.4,4.1,6c0.4-2.3,4.4-6,4.4-6C37.6,31.1,32.8,33.3,32.8,33.3"/><path class="st0" d="M34.2,53.6c0,0,2.4-2.6,2.9-3.7c1.5,2.4,2.5,3.3,3.1,3.9C36.9,54.3,35.2,53.9,34.2,53.6 M41.7,53.7l-0.3-0.4 c-0.9-0.6-1.3-1.3-4.1-5.4c-0.4,2-4.4,5.4-4.4,5.4C36.8,55.7,41.7,53.7,41.7,53.7"/><ellipse class="st5" cx="67.1" cy="109.8" rx="44.6" ry="45"/><path class="st2" d="M67.1,154.8c-24.6,0-44.6-20.1-44.6-45c0-24.8,20-45,44.6-45s44.6,20.1,44.6,45 C111.7,134.7,91.7,154.8,67.1,154.8"/><ellipse cx="67.1" cy="109.8" rx="44.6" ry="45" style="fill:none;stroke:#1D1D1B;stroke-width:0.1;stroke-miterlimit:10"/><path class="st0" d="M67.1,154.8c-24.6,0-44.6-20.1-44.6-45s20-45,44.6-45s44.6,20.1,44.6,45S91.7,154.8,67.1,154.8 M67.1,153 c23.6,0,42.8-19.4,42.8-43.2S90.7,66.6,67.1,66.6c-23.6,0-42.8,19.4-42.8,43.2S43.5,153,67.1,153 M67.1,152 c-23.1,0-41.8-18.9-41.8-42.2c0-23.3,18.8-42.2,41.8-42.2c23.1,0,41.8,18.9,41.8,42.2C109,133.1,90.2,152,67.1,152 M26.8,109.8 c0,0.2,0.1,0.3,0.2,0.4l5.9,4.1l-4.6,5.6c-0.1,0.1-0.1,0.3-0.1,0.5c0,0.2,0.2,0.3,0.3,0.3l6.8,2.5l-3,6.6c-0.1,0.2-0.1,0.3,0,0.5 c0.1,0.1,0.2,0.2,0.4,0.2l7.2,0.6l-1.2,7.2c0,0.2,0,0.3,0.1,0.4c0.1,0.1,0.3,0.2,0.4,0.1l7.1-1.3l0.7,7.2c0,0.2,0.1,0.3,0.2,0.4 c0.1,0.1,0.3,0.1,0.5,0l6.5-3.1l2.6,6.8c0.1,0.2,0.2,0.3,0.3,0.3c0.2,0,0.3,0,0.4-0.1l5.5-4.7l4.2,5.9c0.1,0.1,0.2,0.2,0.4,0.2 c0.2,0,0.3-0.1,0.4-0.2l4.1-6l5.6,4.6c0.1,0.1,0.3,0.1,0.4,0.1c0.2,0,0.3-0.2,0.3-0.3l2.4-6.8l6.6,3c0.1,0.1,0.3,0.1,0.5,0 c0.1-0.1,0.2-0.2,0.2-0.4l0.6-7.2l7.1,1.2c0.2,0,0.3,0,0.4-0.1c0.1-0.1,0.2-0.3,0.1-0.4l-1.3-7.1l7.2-0.7c0.2,0,0.3-0.1,0.4-0.3 c0.1-0.1,0.1-0.3,0-0.5l-3.1-6.6l6.8-2.6c0.2-0.1,0.3-0.2,0.3-0.3c0-0.2,0-0.3-0.1-0.5l-4.7-5.5l5.9-4.2c0.1-0.1,0.2-0.2,0.2-0.4 c0-0.2-0.1-0.3-0.2-0.4l-5.9-4.1l4.6-5.6c0.1-0.1,0.1-0.3,0.1-0.5c0-0.2-0.2-0.3-0.3-0.3l-6.8-2.5l3-6.6c0.1-0.1,0.1-0.3,0-0.5 c-0.1-0.1-0.2-0.2-0.4-0.2l-7.2-0.6l1.2-7.2c0-0.2,0-0.3-0.1-0.4c-0.1-0.1-0.3-0.2-0.4-0.1l-7.1,1.3l-0.7-7.2 c0-0.2-0.1-0.3-0.2-0.4c-0.1-0.1-0.3-0.1-0.5,0l-6.5,3.1l-2.6-6.8c-0.1-0.2-0.2-0.3-0.3-0.3c-0.2,0-0.3,0-0.4,0.1L72,74.5l-4.2-5.9 c-0.1-0.1-0.2-0.2-0.4-0.2c-0.2,0-0.3,0.1-0.4,0.2l-4.1,6L57.2,70c-0.1-0.1-0.3-0.1-0.4-0.1c-0.2,0-0.3,0.2-0.3,0.3L54,77l-6.6-3 c-0.1-0.1-0.3-0.1-0.5,0c-0.1,0.1-0.2,0.2-0.2,0.4l-0.6,7.2L39,80.5c-0.2,0-0.3,0-0.4,0.1c-0.1,0.1-0.2,0.3-0.1,0.4l1.3,7.1 L32.5,89c-0.2,0-0.3,0.1-0.4,0.3c-0.1,0.1-0.1,0.3,0,0.5l3.1,6.6l-6.8,2.6c-0.2,0.1-0.3,0.2-0.3,0.3c0,0.2,0,0.3,0.1,0.5l4.7,5.5 l-5.9,4.2C26.9,109.5,26.8,109.6,26.8,109.8L26.8,109.8z M34,104.9l-4.6-5.4L36,97c0.1-0.1,0.2-0.2,0.3-0.3c0.1-0.1,0-0.3,0-0.4 l-3-6.4l7-0.7c0.1,0,0.3-0.1,0.3-0.2c0.1-0.1,0.1-0.3,0.1-0.4l-1.3-7l7,1.1c0.1,0,0.3,0,0.4-0.1c0.1-0.1,0.2-0.2,0.2-0.4l0.6-7.1 l6.4,2.9c0.1,0.1,0.3,0.1,0.4,0c0.1-0.1,0.2-0.2,0.3-0.3l2.4-6.7l5.5,4.5c0.1,0.1,0.2,0.1,0.4,0.1c0.1,0,0.3-0.1,0.3-0.2l4-5.8 l4.1,5.8c0.1,0.1,0.2,0.2,0.3,0.2c0.1,0,0.3,0,0.4-0.1l5.4-4.6l2.5,6.6c0,0.1,0.2,0.2,0.3,0.3c0.1,0.1,0.3,0,0.4,0l6.4-3l0.7,7.1 c0,0.1,0.1,0.3,0.2,0.4c0.1,0.1,0.3,0.1,0.4,0.1l6.9-1.2l-1.1,7c0,0.1,0,0.3,0.1,0.4c0.1,0.1,0.2,0.2,0.4,0.2l7,0.6l-2.9,6.5 c-0.1,0.1-0.1,0.3,0,0.4c0.1,0.1,0.2,0.2,0.3,0.3l6.6,2.4l-4.5,5.5c-0.1,0.1-0.1,0.3-0.1,0.4c0,0.1,0.1,0.3,0.2,0.3l5.8,4l-5.7,4.1 c-0.1,0.1-0.2,0.2-0.2,0.4c0,0.1,0,0.3,0.1,0.4l4.6,5.4l-6.6,2.5c-0.1,0.1-0.2,0.2-0.3,0.3c-0.1,0.1,0,0.3,0,0.4l3,6.4l-7,0.7 c-0.1,0-0.3,0.1-0.4,0.2c-0.1,0.1-0.1,0.3-0.1,0.4l1.3,7l-7-1.1c-0.1,0-0.3,0-0.4,0.1c-0.1,0.1-0.2,0.2-0.2,0.4l-0.6,7.1l-6.4-2.9 c-0.1-0.1-0.3-0.1-0.4,0c-0.1,0.1-0.2,0.2-0.3,0.3l-2.4,6.7l-5.5-4.5c-0.1-0.1-0.2-0.1-0.4-0.1c-0.1,0-0.3,0.1-0.3,0.2l-4,5.8 l-4.1-5.8c-0.1-0.1-0.2-0.2-0.3-0.2c-0.1,0-0.3,0-0.4,0.1l-5.4,4.6l-2.5-6.6c0-0.1-0.2-0.2-0.3-0.3c-0.1-0.1-0.3,0-0.4,0l-6.4,3 l-0.7-7.1c0-0.1-0.1-0.3-0.2-0.4c-0.1-0.1-0.3-0.1-0.4-0.1l-6.9,1.2l1.1-7c0-0.1,0-0.3-0.1-0.4c-0.1-0.1-0.2-0.2-0.4-0.2l-7-0.6 l2.9-6.5c0.1-0.1,0.1-0.3,0-0.4c-0.1-0.1-0.2-0.2-0.3-0.3l-6.6-2.4l4.5-5.5c0.1-0.1,0.1-0.2,0.1-0.4c0-0.1-0.1-0.3-0.2-0.3l-5.8-4 l5.7-4.1c0.1-0.1,0.2-0.2,0.2-0.4c0,0,0,0,0-0.1C34.1,105.1,34.1,105,34,104.9 M64.3,113.9c-4,9.6-11.1,14.2-11.1,14.2 s0.7,1.3,3.9,2.5c11.7-12.2,9.8-20.3,9.8-20.3s0.5-0.5-6,1.2c-6.5,1.7-14.3,11.2-14.3,11.2l2.5,3.5 C49.1,126.1,53.4,117.7,64.3,113.9 M71.4,104.8c4-9.6,11.1-14.2,11.1-14.2s-0.7-1.3-3.9-2.5c-11.7,12.2-9.8,20.3-9.8,20.3 s-0.5,0.5,6-1.2c6.5-1.7,13.6-10.2,13.6-10.2l-2.5-3.4C85.9,93.8,82.3,101.1,71.4,104.8 M71.7,113.4c12.5,6.9,14.1,11,14.1,11 s1.4-0.2,2.6-3.4c-12.2-11.7-19.7-10.6-19.7-10.6s-0.5-0.5,1.2,6c1.7,6.5,8.9,14.2,8.9,14.2l4.7-3.2 C83.4,127.4,75.5,124.2,71.7,113.4 M63,105.8c-9.6-4-14.2-11.6-14.2-11.6s-0.7,0.5-2.1,3c12.5,13,20,11.2,20,11.2s0.5,0.5-1.2-6 c-1.7-6.5-10.2-13.6-10.2-13.6l-3.4,2.5C51.9,91.4,59.2,95,63,105.8 M88.5,120.2c0,0,0.1,0,1.1-1.7c-0.6-1.3-6.6-6.8-11.1-8.9 c7-2.7,11.5-8.2,11.5-8.2s-0.4-1.5-1.4-2.7c-7.6,9.8-18.4,10.9-18.4,10.9C78.6,109.3,88.5,120.2,88.5,120.2 M46.5,98.2 c0,0-0.1,0-1.1,1.7c0.6,1.3,7.3,7.7,11.8,9.8c-7,2.7-12.8,9.3-12.8,9.3s0.6,1.3,1.6,2.5c10-11.7,19.4-12.1,19.4-12.1 C57.1,109.7,46.5,98.2,46.5,98.2 M58.2,131c0,0,0,0.1,1.7,1.1c1.3-0.6,5.5-6.1,7.7-10.5c2.7,7,8.5,10.9,8.5,10.9s1.5-0.4,2.7-1.4 c-9.8-7.6-11.2-18.4-11.2-18.4C68.5,118.5,58.2,131,58.2,131 M78.2,87.7c0,0,0-0.1-1.7-1.2c-1.3,0.6-6.7,7-8.8,11.6 c-2.7-7.3-8.5-11.4-8.5-11.4s-1.5,0.4-2.7,1.4c9.8,7.8,11.2,19.1,11.2,19.1C68.5,96.6,78.2,87.7,78.2,87.7"/><path class="st2" d="M67.1,135.5c-14,0-25.4-11.5-25.4-25.6c0-14.2,11.4-25.6,25.4-25.6s25.4,11.5,25.4,25.6 C92.5,124,81.2,135.5,67.1,135.5 M99.3,109.8c0-17.9-14.4-32.4-32.1-32.4S35,91.9,35,109.8c0,17.9,14.4,32.4,32.1,32.4 S99.3,127.7,99.3,109.8"/><ellipse class="st4" cx="67.1" cy="109.8" rx="29.2" ry="29.5"/><path class="st5" d="M67.3,133.8c-13.1,0-23.8-10.7-23.8-24c0-13.3,10.6-24,23.8-24c13.1,0,23.8,10.7,23.8,24 C91.1,123,80.5,133.8,67.3,133.8z"/></svg>