<svg version="1.1" id="Layer_1" xmlns="http://www.w3.org/2000/svg" x="0px" y="0px" viewBox="0 0 141.7 226.8" style="enable-background:new 0 0 141.7 226.8" xml:space="preserve"><style>.st0{fill:#1D1D1B}.st2{fill:#FFDC00}</style><path class="st0" d="M15.5,10.1v0.5c-1.3,0-2.3,0.4-3.1,1.2c-0.8,0.8-1.3,1.9-1.6,3.3l0.1,0c0.5-0.3,0.9-0.6,1.4-0.7 c0.5-0.1,1-0.2,1.5-0.2c0.7,0,1.2,0.1,1.7,0.4c0.5,0.3,0.8,0.7,1.1,1.3c0.2,0.5,0.4,1.2,0.4,1.9c0,0.8-0.2,1.5-0.5,2.1 c-0.3,0.6-0.8,1.1-1.5,1.4c-0.7,0.3-1.5,0.5-2.5,0.5c-0.9,0-1.7-0.2-2.3-0.5c-0.7-0.4-1.1-0.9-1.5-1.6c-0.3-0.7-0.5-1.6-0.5-2.6 c0-1.4,0.3-2.6,0.9-3.7c0.6-1.1,1.4-2,2.4-2.7c1.1-0.7,2.2-1.1,3.6-1.2L15.5,10.1z M12.8,15.5c-0.3,0-0.6,0-0.8,0.1 c-0.3,0.1-0.5,0.2-0.7,0.3c-0.2,0.1-0.3,0.3-0.4,0.4c-0.1,0.1-0.1,0.2-0.1,0.4c0,0.2,0,0.5,0,0.9c0,1.1,0.1,1.9,0.4,2.4 c0.3,0.5,0.8,0.8,1.4,0.8c0.3,0,0.6-0.1,0.9-0.2c0.2-0.1,0.4-0.3,0.6-0.6c0.1-0.2,0.2-0.5,0.3-0.9c0.1-0.3,0.1-0.7,0.1-1.1 c0-0.8-0.1-1.5-0.4-1.9C13.7,15.7,13.3,15.5,12.8,15.5"/><path class="st0" d="M126.5,216.9v-0.5c1.3,0,2.3-0.4,3.1-1.2c0.8-0.8,1.3-1.9,1.6-3.3l-0.1,0c-0.5,0.3-0.9,0.6-1.4,0.7 c-0.5,0.1-1,0.2-1.5,0.2c-0.7,0-1.2-0.1-1.7-0.4c-0.5-0.3-0.8-0.7-1.1-1.3c-0.2-0.5-0.4-1.2-0.4-1.9c0-0.8,0.2-1.5,0.5-2.1 c0.3-0.6,0.8-1.1,1.5-1.4c0.7-0.3,1.5-0.5,2.5-0.5c0.9,0,1.7,0.2,2.3,0.5c0.6,0.4,1.1,0.9,1.5,1.6c0.3,0.7,0.5,1.6,0.5,2.6 c0,1.4-0.3,2.6-0.9,3.7c-0.6,1.1-1.4,2-2.4,2.7c-1.1,0.7-2.2,1.1-3.6,1.2L126.5,216.9z M129.3,211.5c0.3,0,0.6,0,0.8-0.1 c0.3-0.1,0.5-0.2,0.7-0.3c0.2-0.1,0.3-0.3,0.4-0.4c0.1-0.1,0.1-0.2,0.1-0.4c0-0.2,0-0.5,0-0.9c0-1.1-0.1-1.9-0.4-2.4 c-0.3-0.5-0.8-0.8-1.4-0.8c-0.3,0-0.6,0.1-0.9,0.2c-0.2,0.1-0.4,0.3-0.6,0.6c-0.1,0.2-0.3,0.5-0.3,0.9c-0.1,0.3-0.1,0.7-0.1,1.1 c0,0.8,0.1,1.5,0.4,1.9C128.3,211.3,128.7,211.5,129.3,211.5"/><polygon points="104.8,219.9 82.1,219.9 62.8,219.9 40.1,219.9 25.5,219.9 5.6,219.9 5.6,6.9 24.8,6.9 40.1,6.9 62.8,6.9 82.1,6.9 104.8,6.9 118.3,6.9 136.1,6.9 136.1,219.9 118.1,219.9" style="fill:none;stroke:#1D1D1B;stroke-width:1.612;stroke-miterlimit:10"/><path class="st2" d="M105,68.8c-13.4,0-24.3-10.9-24.3-24.3c0-13.4,10.9-24.3,24.3-24.3c13.4,0,24.3,10.9,24.3,24.3 C129.2,57.9,118.4,68.8,105,68.8"/><path class="st0" d="M80.2,44.6c0-13.7,11.1-24.8,24.8-24.8c13.7,0,24.8,11.1,24.8,24.8c0,13.7-11.1,24.8-24.8,24.8 C91.3,69.4,80.2,58.2,80.2,44.6 M128.7,44.6c0-13.1-10.6-23.7-23.7-23.7c-13.1,0-23.7,10.6-23.7,23.7c0,13.1,10.6,23.7,23.7,23.7 C118.1,68.3,128.7,57.6,128.7,44.6"/><path class="st0" d="M85.1,44.6c0-10.9,8.9-19.8,19.8-19.8c10.9,0,19.8,8.9,19.8,19.8c0,10.9-8.9,19.8-19.8,19.8 C94,64.4,85.1,55.5,85.1,44.6 M124.1,44.6c0-10.5-8.6-19.1-19.1-19.1c-10.5,0-19.1,8.6-19.1,19.1c0,10.5,8.6,19.1,19.1,19.1 C115.5,63.7,124.1,55.1,124.1,44.6"/><path class="st0" d="M104.9,55.1c-5.8,0-10.5-4.7-10.5-10.5c0-5.8,4.7-10.5,10.5-10.5c5.8,0,10.5,4.7,10.5,10.5 C115.5,50.4,110.8,55.1,104.9,55.1 M123.9,44.4l-7.4-2.2l5.9-5l-7.7,0.8l3.5-6.9l-6.8,3.7l0.6-7.7l-4.9,6l-2.4-7.4l-2.2,7.4l-5-5.9 l0.8,7.7l-6.9-3.5l3.6,6.8l-7.7-0.6l6,4.9L86,44.8l7.4,2.2l-5.9,5l7.7-0.8l-3.5,6.9l6.8-3.7l-0.6,7.7l4.9-6l2.4,7.4l2.2-7.4l5,5.9 l-0.8-7.7l6.9,3.5l-3.6-6.8l7.7,0.6l-6-4.9L123.9,44.4z"/><path class="st0" d="M103.3,42.8c0,0-1.1-5.1-4.3-7.2c-2.2,2-2.7,2.6-2.7,2.6S98.8,41.3,103.3,42.8"/><path class="st0" d="M106.4,46.4c0,0,1.1,5.1,4.3,7.2c2.2-2,2.7-2.6,2.7-2.6S110.9,48,106.4,46.4"/><path class="st0" d="M103.4,46.4c0,0-5.1,1.1-7.2,4.3c2,2.2,2.6,2.7,2.6,2.7S101.9,50.9,103.4,46.4"/><path class="st0" d="M106.9,43c0,0,5.1-1.1,7.2-4.3c-2-2.2-2.6-2.7-2.6-2.7S108.4,38.6,106.9,43"/><path class="st0" d="M114.8,48.1c0,0-3-2.4-4.4-2.9c2.9-1.5,3.9-2.5,4.5-3.1C115.7,45.4,115.2,47,114.8,48.1 M114.9,40.6l-0.5,0.3 c-0.7,0.9-1.5,1.3-6.4,4.1c2.4,0.4,6.4,4.4,6.4,4.4C117.2,45.5,114.9,40.6,114.9,40.6"/><path class="st0" d="M95.1,41.6c0,0,2.9,2.4,4.2,2.9c-2.8,1.6-3.7,2.5-4.4,3.2C94.4,44.4,94.8,42.7,95.1,41.6 M95,49.2l0.5-0.3 c0.7-0.9,1.4-1.3,6.1-4.2c-2.3-0.4-6.4-4.8-6.4-4.8C92.5,43.9,95,49.2,95,49.2"/><path class="st0" d="M108.3,34.6c0,0-2.4,2.9-2.9,4.2c-1.6-2.8-2.5-3.7-3.2-4.4C105.5,33.8,107.2,34.2,108.3,34.6 M100.7,34.5 L101,35c0.9,0.7,1.3,1.4,4.2,6.1c0.4-2.3,4.5-6.1,4.5-6.1C105.6,32.3,100.7,34.5,100.7,34.5"/><path class="st0" d="M102.1,55.1c0,0,2.4-2.6,2.9-3.8c1.6,2.5,2.5,3.4,3.2,3.9C104.8,55.8,103.2,55.4,102.1,55.1 M109.7,55.2 l-0.3-0.4c-0.9-0.6-1.3-1.3-4.2-5.5c-0.4,2.1-4.5,5.5-4.5,5.5C104.7,57.2,109.7,55.2,109.7,55.2"/><path class="st2" d="M35.8,69.3c-13.4,0-24.3-10.9-24.3-24.3c0-13.4,10.9-24.3,24.3-24.3C49.2,20.8,60,31.6,60,45 C60,58.4,49.2,69.3,35.8,69.3"/><path class="st0" d="M11,45c0-13.7,11.1-24.8,24.8-24.8c13.7,0,24.8,11.1,24.8,24.8c0,13.7-11.1,24.8-24.8,24.8 C22.1,69.8,11,58.7,11,45 M59.5,45c0-13.1-10.6-23.7-23.7-23.7C22.7,21.3,12.1,32,12.1,45c0,13.1,10.6,23.7,23.7,23.7 C48.8,68.7,59.5,58.1,59.5,45"/><path class="st0" d="M15.9,45c0-10.9,8.9-19.8,19.8-19.8c10.9,0,19.8,8.9,19.8,19.8c0,10.9-8.9,19.8-19.8,19.8 C24.8,64.9,15.9,56,15.9,45 M54.9,45c0-10.5-8.6-19.1-19.1-19.1c-10.5,0-19.1,8.6-19.1,19.1c0,10.5,8.6,19.1,19.1,19.1 C46.3,64.2,54.9,55.6,54.9,45"/><path class="st0" d="M35.7,55.6c-5.8,0-10.5-4.7-10.5-10.5c0-5.8,4.7-10.5,10.5-10.5c5.8,0,10.5,4.7,10.5,10.5 C46.3,50.8,41.6,55.6,35.7,55.6 M54.7,44.8l-7.4-2.2l5.9-5l-7.7,0.8l3.5-6.9l-6.8,3.7l0.6-7.7l-4.9,6L35.6,26l-2.2,7.4l-5-5.9 l0.8,7.7l-6.9-3.5l3.6,6.8l-7.7-0.6l6,4.9l-7.3,2.4l7.4,2.2l-5.9,5l7.7-0.8l-3.5,6.9l6.8-3.7l-0.6,7.7l4.9-6l2.4,7.4l2.2-7.4l5,5.9 l-0.8-7.7l6.9,3.5l-3.6-6.8l7.7,0.6l-6-4.9L54.7,44.8z"/><path class="st0" d="M34.1,43.3c0,0-1.1-5.1-4.3-7.2c-2.2,2-2.7,2.6-2.7,2.6S29.6,41.8,34.1,43.3"/><path class="st0" d="M37.2,46.9c0,0,1.1,5.1,4.3,7.2c2.2-2,2.7-2.6,2.7-2.6S41.7,48.5,37.2,46.9"/><path class="st0" d="M34.2,46.9c0,0-5.1,1.1-7.2,4.3c2,2.2,2.6,2.7,2.6,2.7S32.7,51.4,34.2,46.9"/><path class="st0" d="M37.6,43.5c0,0,5.1-1.1,7.2-4.3c-2-2.2-2.6-2.7-2.6-2.7S39.2,39,37.6,43.5"/><path class="st0" d="M45.6,48.5c0,0-3-2.4-4.4-2.9c2.9-1.5,3.9-2.5,4.5-3.1C46.4,45.8,46,47.5,45.6,48.5 M45.7,41.1l-0.5,0.3 c-0.7,0.9-1.5,1.3-6.4,4.1c2.4,0.4,6.4,4.4,6.4,4.4C48,45.9,45.7,41.1,45.7,41.1"/><path class="st0" d="M25.9,42.1c0,0,2.9,2.4,4.2,2.9c-2.8,1.6-3.7,2.5-4.4,3.2C25.1,44.8,25.6,43.2,25.9,42.1 M25.8,49.7l0.5-0.3 c0.7-0.9,1.4-1.3,6.1-4.2c-2.3-0.4-6.4-4.8-6.4-4.8C23.3,44.4,25.8,49.7,25.8,49.7"/><path class="st0" d="M39.1,35.1c0,0-2.4,2.9-2.9,4.2c-1.6-2.8-2.5-3.7-3.2-4.4C36.3,34.3,38,34.7,39.1,35.1 M31.4,34.9l0.3,0.5 c0.9,0.7,1.3,1.4,4.2,6.1c0.4-2.3,4.5-6.1,4.5-6.1C36.4,32.7,31.4,34.9,31.4,34.9"/><path class="st0" d="M32.9,55.6c0,0,2.4-2.6,2.9-3.8c1.6,2.5,2.5,3.4,3.2,3.9C35.6,56.3,33.9,55.9,32.9,55.6 M40.5,55.7l-0.3-0.4 c-0.9-0.6-1.3-1.3-4.2-5.5c-0.4,2.1-4.5,5.5-4.5,5.5C35.5,57.6,40.5,55.7,40.5,55.7"/><path class="st2" d="M105,139c-13.4,0-24.3-10.9-24.3-24.3c0-13.4,10.9-24.3,24.3-24.3c13.4,0,24.3,10.9,24.3,24.3 C129.2,128.1,118.4,139,105,139"/><path class="st0" d="M80.2,114.8c0-13.7,11.1-24.8,24.8-24.8c13.7,0,24.8,11.1,24.8,24.8c0,13.7-11.1,24.8-24.8,24.8 C91.3,139.6,80.2,128.4,80.2,114.8 M128.7,114.8c0-13.1-10.6-23.7-23.7-23.7c-13.1,0-23.7,10.6-23.7,23.7 c0,13.1,10.6,23.7,23.7,23.7C118.1,138.5,128.7,127.8,128.7,114.8"/><path class="st0" d="M85.1,114.8c0-10.9,8.9-19.8,19.8-19.8c10.9,0,19.8,8.9,19.8,19.8c0,10.9-8.9,19.8-19.8,19.8 C94,134.6,85.1,125.7,85.1,114.8 M124.1,114.8c0-10.5-8.6-19.1-19.1-19.1c-10.5,0-19.1,8.6-19.1,19.1c0,10.5,8.6,19.1,19.1,19.1 C115.5,133.9,124.1,125.3,124.1,114.8"/><path class="st0" d="M104.9,125.3c-5.8,0-10.5-4.7-10.5-10.5c0-5.8,4.7-10.5,10.5-10.5c5.8,0,10.5,4.7,10.5,10.5 C115.5,120.6,110.8,125.3,104.9,125.3 M123.9,114.5l-7.4-2.2l5.9-5l-7.7,0.8l3.5-6.9l-6.8,3.7l0.6-7.7l-4.9,6l-2.4-7.4l-2.2,7.4 l-5-5.9l0.8,7.7l-6.9-3.5l3.6,6.8l-7.7-0.6l6,4.9L86,115l7.4,2.2l-5.9,5l7.7-0.8l-3.5,6.9l6.8-3.7l-0.6,7.7l4.9-6l2.4,7.4l2.2-7.4 l5,5.9l-0.8-7.7l6.9,3.5l-3.6-6.8l7.7,0.6l-6-4.9L123.9,114.5z"/><path class="st0" d="M103.3,113c0,0-1.1-5.1-4.3-7.2c-2.2,2-2.7,2.6-2.7,2.6S98.8,111.5,103.3,113"/><path class="st0" d="M106.4,116.6c0,0,1.1,5.1,4.3,7.2c2.2-2,2.7-2.6,2.7-2.6S110.9,118.2,106.4,116.6"/><path class="st0" d="M103.4,116.6c0,0-5.1,1.1-7.2,4.3c2,2.2,2.6,2.7,2.6,2.7S101.9,121.1,103.4,116.6"/><path class="st0" d="M106.9,113.2c0,0,5.1-1.1,7.2-4.3c-2-2.2-2.6-2.7-2.6-2.7S108.4,108.7,106.9,113.2"/><path class="st0" d="M114.8,118.3c0,0-3-2.4-4.4-2.9c2.9-1.5,3.9-2.5,4.5-3.1C115.7,115.6,115.2,117.2,114.8,118.3 M114.9,110.8 l-0.5,0.3c-0.7,0.9-1.5,1.3-6.4,4.1c2.4,0.4,6.4,4.4,6.4,4.4C117.2,115.6,114.9,110.8,114.9,110.8"/><path class="st0" d="M95.1,111.8c0,0,2.9,2.4,4.2,2.9c-2.8,1.6-3.7,2.5-4.4,3.2C94.4,114.6,94.8,112.9,95.1,111.8 M95,119.4 l0.5-0.3c0.7-0.9,1.4-1.3,6.1-4.2c-2.3-0.4-6.4-4.8-6.4-4.8C92.5,114.1,95,119.4,95,119.4"/><path class="st0" d="M108.3,104.8c0,0-2.4,2.9-2.9,4.2c-1.6-2.8-2.5-3.7-3.2-4.4C105.5,104,107.2,104.4,108.3,104.8 M100.7,104.7 l0.3,0.5c0.9,0.7,1.3,1.4,4.2,6.1c0.4-2.3,4.5-6.1,4.5-6.1C105.6,102.5,100.7,104.7,100.7,104.7"/><path class="st0" d="M102.1,125.3c0,0,2.4-2.6,2.9-3.8c1.6,2.5,2.5,3.4,3.2,3.9C104.8,126,103.2,125.6,102.1,125.3 M109.7,125.4 l-0.3-0.4c-0.9-0.6-1.3-1.3-4.2-5.5c-0.4,2.1-4.5,5.5-4.5,5.5C104.7,127.4,109.7,125.4,109.7,125.4"/><path class="st2" d="M35.8,139.5c-13.4,0-24.3-10.9-24.3-24.3c0-13.4,10.9-24.3,24.3-24.3C49.2,91,60,101.8,60,115.2 C60,128.6,49.2,139.5,35.8,139.5"/><path class="st0" d="M11,115.2c0-13.7,11.1-24.8,24.8-24.8c13.7,0,24.8,11.1,24.8,24.8c0,13.7-11.1,24.8-24.8,24.8 C22.1,140,11,128.9,11,115.2 M59.5,115.2c0-13.1-10.6-23.7-23.7-23.7c-13.1,0-23.7,10.6-23.7,23.7c0,13.1,10.6,23.7,23.7,23.7 C48.8,138.9,59.5,128.3,59.5,115.2"/><path class="st0" d="M15.9,115.2c0-10.9,8.9-19.8,19.8-19.8c10.9,0,19.8,8.9,19.8,19.8c0,10.9-8.9,19.8-19.8,19.8 C24.8,135.1,15.9,126.2,15.9,115.2 M54.9,115.2c0-10.5-8.6-19.1-19.1-19.1c-10.5,0-19.1,8.6-19.1,19.1c0,10.5,8.6,19.1,19.1,19.1 C46.3,134.3,54.9,125.8,54.9,115.2"/><path class="st0" d="M35.7,125.8c-5.8,0-10.5-4.7-10.5-10.5c0-5.8,4.7-10.5,10.5-10.5c5.8,0,10.5,4.7,10.5,10.5 C46.3,121,41.6,125.8,35.7,125.8 M54.7,115l-7.4-2.2l5.9-5l-7.7,0.8l3.5-6.9l-6.8,3.7l0.6-7.7l-4.9,6l-2.4-7.4l-2.2,7.4l-5-5.9 l0.8,7.7l-6.9-3.5l3.6,6.8l-7.7-0.6l6,4.9l-7.3,2.4l7.4,2.2l-5.9,5l7.7-0.8l-3.5,6.9l6.8-3.7l-0.6,7.7l4.9-6l2.4,7.4l2.2-7.4l5,5.9 l-0.8-7.7l6.9,3.5l-3.6-6.8l7.7,0.6l-6-4.9L54.7,115z"/><path class="st0" d="M34.1,113.5c0,0-1.1-5.1-4.3-7.2c-2.2,2-2.7,2.6-2.7,2.6S29.6,112,34.1,113.5"/><path class="st0" d="M37.2,117.1c0,0,1.1,5.1,4.3,7.2c2.2-2,2.7-2.6,2.7-2.6S41.7,118.7,37.2,117.1"/><path class="st0" d="M34.2,117.1c0,0-5.1,1.1-7.2,4.3c2,2.2,2.6,2.7,2.6,2.7S32.7,121.6,34.2,117.1"/><path class="st0" d="M37.6,113.7c0,0,5.1-1.1,7.2-4.3c-2-2.2-2.6-2.7-2.6-2.7S39.2,109.2,37.6,113.7"/><path class="st0" d="M45.6,118.7c0,0-3-2.4-4.4-2.9c2.9-1.5,3.9-2.5,4.5-3.1C46.4,116,46,117.7,45.6,118.7 M45.7,111.3l-0.5,0.3 c-0.7,0.9-1.5,1.3-6.4,4.1c2.4,0.4,6.4,4.4,6.4,4.4C48,116.1,45.7,111.3,45.7,111.3"/><path class="st0" d="M25.9,112.3c0,0,2.9,2.4,4.2,2.9c-2.8,1.6-3.7,2.5-4.4,3.2C25.1,115,25.6,113.4,25.9,112.3 M25.8,119.9 l0.5-0.3c0.7-0.9,1.4-1.3,6.1-4.2c-2.3-0.4-6.4-4.8-6.4-4.8C23.3,114.6,25.8,119.9,25.8,119.9"/><path class="st0" d="M39.1,105.2c0,0-2.4,2.9-2.9,4.2c-1.6-2.8-2.5-3.7-3.2-4.4C36.3,104.5,38,104.9,39.1,105.2 M31.4,105.1 l0.3,0.5c0.9,0.7,1.3,1.4,4.2,6.1c0.4-2.3,4.5-6.1,4.5-6.1C36.4,102.9,31.4,105.1,31.4,105.1"/><path class="st0" d="M32.9,125.8c0,0,2.4-2.6,2.9-3.8c1.6,2.5,2.5,3.4,3.2,3.9C35.6,126.5,33.9,126,32.9,125.8 M40.5,125.9 l-0.3-0.4c-0.9-0.6-1.3-1.3-4.2-5.5c-0.4,2.1-4.5,5.5-4.5,5.5C35.5,127.8,40.5,125.9,40.5,125.9"/><path class="st2" d="M105,203.6c-13.4,0-24.3-10.9-24.3-24.3c0-13.4,10.9-24.3,24.3-24.3c13.4,0,24.3,10.9,24.3,24.3 C129.2,192.8,118.4,203.6,105,203.6"/><path class="st0" d="M80.2,179.4c0-13.7,11.1-24.8,24.8-24.8c13.7,0,24.8,11.1,24.8,24.8c0,13.7-11.1,24.8-24.8,24.8 C91.3,204.2,80.2,193,80.2,179.4 M128.7,179.4c0-13.1-10.6-23.7-23.7-23.7c-13.1,0-23.7,10.6-23.7,23.7c0,13.1,10.6,23.7,23.7,23.7 C118.1,203.1,128.7,192.4,128.7,179.4"/><path class="st0" d="M85.1,179.4c0-10.9,8.9-19.8,19.8-19.8c10.9,0,19.8,8.9,19.8,19.8c0,10.9-8.9,19.8-19.8,19.8 C94,199.2,85.1,190.3,85.1,179.4 M124.1,179.4c0-10.5-8.6-19.1-19.1-19.1c-10.5,0-19.1,8.6-19.1,19.1c0,10.5,8.6,19.1,19.1,19.1 C115.5,198.5,124.1,189.9,124.1,179.4"/><path class="st0" d="M104.9,189.9c-5.8,0-10.5-4.7-10.5-10.5c0-5.8,4.7-10.5,10.5-10.5c5.8,0,10.5,4.7,10.5,10.5 C115.5,185.2,110.8,189.9,104.9,189.9 M123.9,179.2l-7.4-2.2l5.9-5l-7.7,0.8l3.5-6.9l-6.8,3.7l0.6-7.7l-4.9,6l-2.4-7.4l-2.2,7.4 l-5-5.9l0.8,7.7l-6.9-3.5l3.6,6.8l-7.7-0.6l6,4.9l-7.3,2.4l7.4,2.2l-5.9,5l7.7-0.8l-3.5,6.9l6.8-3.7l-0.6,7.7l4.9-6l2.4,7.4 l2.2-7.4l5,5.9l-0.8-7.7l6.9,3.5l-3.6-6.8l7.7,0.6l-6-4.9L123.9,179.2z"/><path class="st0" d="M103.3,177.6c0,0-1.1-5.1-4.3-7.2c-2.2,2-2.7,2.6-2.7,2.6S98.8,176.1,103.3,177.6"/><path class="st0" d="M106.4,181.2c0,0,1.1,5.1,4.3,7.2c2.2-2,2.7-2.6,2.7-2.6S110.9,182.8,106.4,181.2"/><path class="st0" d="M103.4,181.2c0,0-5.1,1.1-7.2,4.3c2,2.2,2.6,2.7,2.6,2.7S101.9,185.7,103.4,181.2"/><path class="st0" d="M106.9,177.8c0,0,5.1-1.1,7.2-4.3c-2-2.2-2.6-2.7-2.6-2.7S108.4,173.4,106.9,177.8"/><path class="st0" d="M114.8,182.9c0,0-3-2.4-4.4-2.9c2.9-1.5,3.9-2.5,4.5-3.1C115.7,180.2,115.2,181.8,114.8,182.9 M114.9,175.4 l-0.5,0.3c-0.7,0.9-1.5,1.3-6.4,4.1c2.4,0.4,6.4,4.4,6.4,4.4C117.2,180.3,114.9,175.4,114.9,175.4"/><path class="st0" d="M95.1,176.4c0,0,2.9,2.4,4.2,2.9c-2.8,1.6-3.7,2.5-4.4,3.2C94.4,179.2,94.8,177.5,95.1,176.4 M95,184l0.5-0.3 c0.7-0.9,1.4-1.3,6.1-4.2c-2.3-0.4-6.4-4.8-6.4-4.8C92.5,178.7,95,184,95,184"/><path class="st0" d="M108.3,169.4c0,0-2.4,2.9-2.9,4.2c-1.6-2.8-2.5-3.7-3.2-4.4C105.5,168.6,107.2,169,108.3,169.4 M100.7,169.3 l0.3,0.5c0.9,0.7,1.3,1.4,4.2,6.1c0.4-2.3,4.5-6.1,4.5-6.1C105.6,167.1,100.7,169.3,100.7,169.3"/><path class="st0" d="M102.1,189.9c0,0,2.4-2.6,2.9-3.8c1.6,2.5,2.5,3.4,3.2,3.9C104.8,190.6,103.2,190.2,102.1,189.9 M109.7,190 l-0.3-0.4c-0.9-0.6-1.3-1.3-4.2-5.5c-0.4,2.1-4.5,5.5-4.5,5.5C104.7,192,109.7,190,109.7,190"/><path class="st2" d="M35.8,204.1c-13.4,0-24.3-10.9-24.3-24.3c0-13.4,10.9-24.3,24.3-24.3c13.4,0,24.3,10.9,24.3,24.3 C60,193.2,49.2,204.1,35.8,204.1"/><path class="st0" d="M11,179.8c0-13.7,11.1-24.8,24.8-24.8c13.7,0,24.8,11.1,24.8,24.8s-11.1,24.8-24.8,24.8 C22.1,204.6,11,193.5,11,179.8 M59.5,179.8c0-13.1-10.6-23.7-23.7-23.7c-13.1,0-23.7,10.6-23.7,23.7s10.6,23.7,23.7,23.7 C48.8,203.5,59.5,192.9,59.5,179.8"/><path class="st0" d="M15.9,179.8c0-10.9,8.9-19.8,19.8-19.8c10.9,0,19.8,8.9,19.8,19.8c0,10.9-8.9,19.8-19.8,19.8 C24.8,199.7,15.9,190.8,15.9,179.8 M54.9,179.8c0-10.5-8.6-19.1-19.1-19.1c-10.5,0-19.1,8.6-19.1,19.1c0,10.5,8.6,19.1,19.1,19.1 C46.3,199,54.9,190.4,54.9,179.8"/><path class="st0" d="M35.7,190.4c-5.8,0-10.5-4.7-10.5-10.5c0-5.8,4.7-10.5,10.5-10.5c5.8,0,10.5,4.7,10.5,10.5 C46.3,185.7,41.6,190.4,35.7,190.4 M54.7,179.6l-7.4-2.2l5.9-5l-7.7,0.8l3.5-6.9l-6.8,3.7l0.6-7.7l-4.9,6l-2.4-7.4l-2.2,7.4l-5-5.9 l0.8,7.7l-6.9-3.5l3.6,6.8l-7.7-0.6l6,4.9l-7.3,2.4l7.4,2.2l-5.9,5l7.7-0.8l-3.5,6.9l6.8-3.7l-0.6,7.7l4.9-6l2.4,7.4l2.2-7.4l5,5.9 l-0.8-7.7l6.9,3.5l-3.6-6.8l7.7,0.6l-6-4.9L54.7,179.6z"/><path class="st0" d="M34.1,178.1c0,0-1.1-5.1-4.3-7.2c-2.2,2-2.7,2.6-2.7,2.6S29.6,176.6,34.1,178.1"/><path class="st0" d="M37.2,181.7c0,0,1.1,5.1,4.3,7.2c2.2-2,2.7-2.6,2.7-2.6S41.7,183.3,37.2,181.7"/><path class="st0" d="M34.2,181.7c0,0-5.1,1.1-7.2,4.3c2,2.2,2.6,2.7,2.6,2.7S32.7,186.2,34.2,181.7"/><path class="st0" d="M37.6,178.3c0,0,5.1-1.1,7.2-4.3c-2-2.2-2.6-2.7-2.6-2.7S39.2,173.8,37.6,178.3"/><path class="st0" d="M45.6,183.3c0,0-3-2.4-4.4-2.9c2.9-1.5,3.9-2.5,4.5-3.1C46.4,180.7,46,182.3,45.6,183.3 M45.7,175.9l-0.5,0.3 c-0.7,0.9-1.5,1.3-6.4,4.1c2.4,0.4,6.4,4.4,6.4,4.4C48,180.7,45.7,175.9,45.7,175.9"/><path class="st0" d="M25.9,176.9c0,0,2.9,2.4,4.2,2.9c-2.8,1.6-3.7,2.5-4.4,3.2C25.1,179.6,25.6,178,25.9,176.9 M25.8,184.5 l0.5-0.3c0.7-0.9,1.4-1.3,6.1-4.2c-2.3-0.4-6.4-4.8-6.4-4.8C23.3,179.2,25.8,184.5,25.8,184.5"/><path class="st0" d="M39.1,169.9c0,0-2.4,2.9-2.9,4.2c-1.6-2.8-2.5-3.7-3.2-4.4C36.3,169.1,38,169.5,39.1,169.9 M31.4,169.7 l0.3,0.5c0.9,0.7,1.3,1.4,4.2,6.1c0.4-2.3,4.5-6.1,4.5-6.1C36.4,167.5,31.4,169.7,31.4,169.7"/><path class="st0" d="M32.9,190.4c0,0,2.4-2.6,2.9-3.8c1.6,2.5,2.5,3.4,3.2,3.9C35.6,191.1,33.9,190.7,32.9,190.4 M40.5,190.5 l-0.3-0.4c-0.9-0.6-1.3-1.3-4.2-5.5c-0.4,2.1-4.5,5.5-4.5,5.5C35.5,192.4,40.5,190.5,40.5,190.5"/></svg>