<?xml version="1.0" encoding="utf-8"?>
<!-- Generator: Adobe Illustrator 27.8.1, SVG Export Plug-In . SVG Version: 6.00 Build 0)  -->
<svg version="1.1" id="Layer_2" xmlns="http://www.w3.org/2000/svg" xmlns:xlink="http://www.w3.org/1999/xlink" x="0px" y="0px"
	 viewBox="0 0 108 108" style="enable-background:new 0 0 108 108;" xml:space="preserve">
<style type="text/css">
	.st0{opacity:0.79;}
	.st1{fill:#917910;}
	.st2{fill:#E0BD13;}
	.st3{fill:#1274B6;}
	.st4{fill:#C62228;}
</style>
<g>
	<ellipse class="st2" cx="54" cy="54" rx="17.54" ry="17.29"/>
</g>
<g>
	<g>
		<g>
			<path class="st3" d="M67.52,20.66c-5.95-2.4-11.05-2.64-13.23-2.66c-2.25-0.02-7.61,0.15-13.84,2.66c-4.24,1.71-7.4,3.9-9.5,5.61
				c-0.21,0.17-0.22,0.49-0.03,0.68c1.63,1.61,3.25,3.21,4.88,4.82c0.16,0.16,0.42,0.18,0.6,0.03c1.92-1.51,4.94-3.5,9.03-4.8
				c2.12-0.67,9-2.57,17.12,0c4.09,1.29,7.11,3.28,9.03,4.8c0.18,0.14,0.44,0.13,0.6-0.03c1.63-1.61,3.25-3.21,4.88-4.82
				c0.19-0.19,0.18-0.51-0.03-0.68C74.92,24.56,71.75,22.37,67.52,20.66z"/>
		</g>
		<g>
			<g>
				<path class="st4" d="M44.81,29.33c0.31-0.1,0.66,0,0.87,0.26c0.2,0.24,0.41,0.56,0.57,0.96c0.07,0.17,0.58,1.51-0.07,2.93
					c-0.46,1-1.25,1.49-1.7,1.77c-0.6,0.37-1.31,0.57-2.73,0.95c-1.11,0.3-1,0.21-1.64,0.41c-0.86,0.26-2.05,0.62-3.14,1.5
					c-0.84,0.68-1.3,1.4-1.57,1.84c-0.86,1.39-0.67,2.03-1.77,4.3c-0.29,0.6-0.55,1.06-1.02,1.5c-0.22,0.21-0.82,0.75-1.77,0.95
					c-0.35,0.08-1.12,0.23-1.98-0.14c-0.01,0-0.02-0.01-0.03-0.01c-0.63-0.28-0.63-1.16-0.01-1.46c0.06-0.03,0.12-0.06,0.18-0.1
					c0.95-0.55,1.3-1.47,1.43-1.84c0.28-0.77,0.23-1.4,0.14-2.52c-0.08-1.02-0.22-1.14-0.34-2.25c-0.12-1.03-0.19-1.72-0.07-2.59
					c0.07-0.48,0.29-1.89,1.36-3.21c0.19-0.23,0.38-0.44,0.57-0.61c0.31-0.29,0.8-0.28,1.11,0.01c0.69,0.67,1.39,1.35,2.08,2.02
					c0.06,0.05,0.34,0.29,0.75,0.27c0.37-0.01,0.62-0.21,0.68-0.27c0.8-0.73,1.77-1.51,2.93-2.25
					C41.51,30.57,43.32,29.81,44.81,29.33z"/>
			</g>
			<g>
				<path class="st4" d="M63.19,29.33c-0.31-0.1-0.66,0-0.87,0.26c-0.2,0.24-0.41,0.56-0.57,0.96c-0.07,0.17-0.58,1.51,0.07,2.93
					c0.46,1,1.25,1.49,1.7,1.77c0.6,0.37,1.31,0.57,2.73,0.95c1.11,0.3,1,0.21,1.64,0.41c0.86,0.26,2.05,0.62,3.14,1.5
					c0.84,0.68,1.3,1.4,1.57,1.84c0.86,1.39,0.67,2.03,1.77,4.3c0.29,0.6,0.55,1.06,1.02,1.5c0.22,0.21,0.82,0.75,1.77,0.95
					c0.35,0.08,1.12,0.23,1.98-0.14c0.01,0,0.02-0.01,0.03-0.01c0.63-0.28,0.63-1.16,0.01-1.46c-0.06-0.03-0.12-0.06-0.18-0.1
					c-0.95-0.55-1.3-1.47-1.43-1.84c-0.28-0.77-0.23-1.4-0.14-2.52c0.08-1.02,0.22-1.14,0.34-2.25c0.12-1.03,0.19-1.72,0.07-2.59
					c-0.07-0.48-0.29-1.89-1.36-3.21c-0.19-0.23-0.38-0.44-0.57-0.61c-0.31-0.29-0.8-0.28-1.11,0.01c-0.69,0.67-1.39,1.35-2.08,2.02
					c-0.06,0.05-0.34,0.29-0.75,0.27c-0.37-0.01-0.62-0.21-0.68-0.27c-0.8-0.73-1.77-1.51-2.93-2.25
					C66.49,30.57,64.68,29.81,63.19,29.33z"/>
			</g>
		</g>
	</g>
	<g>
		<g>
			<path class="st3" d="M67.52,87.34c-5.95,2.4-11.05,2.64-13.23,2.66c-2.25,0.02-7.61-0.15-13.84-2.66c-4.24-1.71-7.4-3.9-9.5-5.61
				c-0.21-0.17-0.22-0.49-0.03-0.68c1.63-1.61,3.25-3.21,4.88-4.82c0.16-0.16,0.42-0.18,0.6-0.03c1.92,1.51,4.94,3.5,9.03,4.8
				c2.12,0.67,9,2.57,17.12,0c4.09-1.29,7.11-3.28,9.03-4.8c0.18-0.14,0.44-0.13,0.6,0.03c1.63,1.61,3.25,3.21,4.88,4.82
				c0.19,0.19,0.18,0.51-0.03,0.68C74.92,83.44,71.75,85.63,67.52,87.34z"/>
		</g>
		<g>
			<g>
				<path class="st4" d="M44.81,78.67c0.31,0.1,0.66,0,0.87-0.26c0.2-0.24,0.41-0.56,0.57-0.96c0.07-0.17,0.58-1.51-0.07-2.93
					c-0.46-1-1.25-1.49-1.7-1.77c-0.6-0.37-1.31-0.57-2.73-0.95c-1.11-0.3-1-0.21-1.64-0.41c-0.86-0.26-2.05-0.62-3.14-1.5
					c-0.84-0.68-1.3-1.4-1.57-1.84c-0.86-1.39-0.67-2.03-1.77-4.3c-0.29-0.6-0.55-1.06-1.02-1.5c-0.22-0.21-0.82-0.75-1.77-0.95
					c-0.35-0.08-1.12-0.23-1.98,0.14c-0.01,0-0.02,0.01-0.03,0.01c-0.63,0.28-0.63,1.16-0.01,1.46c0.06,0.03,0.12,0.06,0.18,0.1
					c0.95,0.55,1.3,1.47,1.43,1.84c0.28,0.77,0.23,1.4,0.14,2.52c-0.08,1.02-0.22,1.14-0.34,2.25c-0.12,1.03-0.19,1.72-0.07,2.59
					c0.07,0.48,0.29,1.89,1.36,3.21c0.19,0.23,0.38,0.44,0.57,0.61c0.31,0.29,0.8,0.28,1.11-0.01c0.69-0.67,1.39-1.35,2.08-2.02
					c0.06-0.05,0.34-0.29,0.75-0.27c0.37,0.01,0.62,0.21,0.68,0.27c0.8,0.73,1.77,1.51,2.93,2.25
					C41.51,77.43,43.32,78.19,44.81,78.67z"/>
			</g>
			<g>
				<path class="st4" d="M63.19,78.67c-0.31,0.1-0.66,0-0.87-0.26c-0.2-0.24-0.41-0.56-0.57-0.96c-0.07-0.17-0.58-1.51,0.07-2.93
					c0.46-1,1.25-1.49,1.7-1.77c0.6-0.37,1.31-0.57,2.73-0.95c1.11-0.3,1-0.21,1.64-0.41c0.86-0.26,2.05-0.62,3.14-1.5
					c0.84-0.68,1.3-1.4,1.57-1.84c0.86-1.39,0.67-2.03,1.77-4.3c0.29-0.6,0.55-1.06,1.02-1.5c0.22-0.21,0.82-0.75,1.77-0.95
					c0.35-0.08,1.12-0.23,1.98,0.14c0.01,0,0.02,0.01,0.03,0.01c0.63,0.28,0.63,1.16,0.01,1.46c-0.06,0.03-0.12,0.06-0.18,0.1
					c-0.95,0.55-1.3,1.47-1.43,1.84c-0.28,0.77-0.23,1.4-0.14,2.52c0.08,1.02,0.22,1.14,0.34,2.25c0.12,1.03,0.19,1.72,0.07,2.59
					c-0.07,0.48-0.29,1.89-1.36,3.21c-0.19,0.23-0.38,0.44-0.57,0.61c-0.31,0.29-0.8,0.28-1.11-0.01c-0.69-0.67-1.39-1.35-2.08-2.02
					c-0.06-0.05-0.34-0.29-0.75-0.27c-0.37,0.01-0.62,0.21-0.68,0.27c-0.8,0.73-1.77,1.51-2.93,2.25
					C66.49,77.43,64.68,78.19,63.19,78.67z"/>
			</g>
		</g>
	</g>
</g>
<g>
	<path d="M54,71.79c-4.82,0-9.35-1.85-12.76-5.21c-3.41-3.36-5.29-7.83-5.29-12.58c0-4.75,1.88-9.22,5.29-12.58
		c3.41-3.36,7.94-5.21,12.76-5.21s9.35,1.85,12.76,5.21c3.41,3.36,5.29,7.83,5.29,12.58c0,4.75-1.88,9.22-5.29,12.58
		C63.35,69.94,58.82,71.79,54,71.79z M54,37.21c-9.4,0-17.04,7.53-17.04,16.79c0,9.26,7.64,16.79,17.04,16.79S71.04,63.26,71.04,54
		C71.04,44.74,63.4,37.21,54,37.21z"/>
</g>
<g>
	<path d="M67.09,57.31c0-1.57,1.05-2.89,2.48-3.31c-1.43-0.42-2.48-1.74-2.48-3.31c0-1.1,0.52-2.08,1.32-2.71
		C68.3,47.99,68.19,48,68.08,48c-1.9,0-3.44-1.54-3.44-3.44c0-0.57,0.14-1.1,0.38-1.57c-0.47,0.24-1.01,0.38-1.57,0.38
		c-1.9,0-3.44-1.54-3.44-3.44c0-0.11,0.01-0.22,0.02-0.33c-0.63,0.8-1.61,1.32-2.71,1.32c-1.57,0-2.89-1.05-3.31-2.48
		c-0.42,1.43-1.74,2.48-3.31,2.48c-1.06,0-2-0.48-2.63-1.23c0.01,0.08,0.01,0.16,0.01,0.24c0,1.9-1.54,3.44-3.44,3.44
		c-0.6,0-1.17-0.16-1.67-0.43c0.26,0.48,0.41,1.04,0.41,1.62c0,1.9-1.54,3.44-3.44,3.44c-0.08,0-0.16,0-0.24-0.01
		c0.75,0.63,1.23,1.58,1.23,2.63c0,1.57-1.05,2.89-2.48,3.31c1.43,0.42,2.48,1.74,2.48,3.31c0,1.1-0.52,2.08-1.32,2.71
		c0.11-0.01,0.22-0.02,0.33-0.02c1.9,0,3.44,1.54,3.44,3.44c0,0.63-0.17,1.22-0.46,1.72c0.51-0.29,1.1-0.46,1.72-0.46
		c1.9,0,3.44,1.54,3.44,3.44c0,0.08,0,0.16-0.01,0.24c0.63-0.75,1.58-1.23,2.63-1.23c1.57,0,2.89,1.05,3.31,2.48
		c0.42-1.43,1.74-2.48,3.31-2.48c1.1,0,2.08,0.52,2.71,1.32C60.01,68.3,60,68.19,60,68.08c0-1.9,1.54-3.44,3.44-3.44
		c0.59,0,1.14,0.15,1.62,0.41c-0.27-0.49-0.43-1.06-0.43-1.67c0-1.9,1.54-3.44,3.44-3.44c0.08,0,0.16,0,0.24,0.01
		C67.57,59.31,67.09,58.36,67.09,57.31z M54,66.89c-7.12,0-12.89-5.77-12.89-12.89S46.88,41.11,54,41.11S66.89,46.88,66.89,54
		S61.12,66.89,54,66.89z"/>
</g>
<g>
	<circle cx="54" cy="54" r="6.17"/>
</g>
</svg>
