<svg version="1.1" id="Layer_1" xmlns="http://www.w3.org/2000/svg" x="0px" y="0px" viewBox="0 0 141.7 226.8" style="enable-background:new 0 0 141.7 226.8" xml:space="preserve"><style>.st0{fill:#1D1D1B}.st1{fill:none;stroke:#1D1D1B;stroke-width:1.614;stroke-miterlimit:10}.st4{fill:#FFDC00}.st5{fill:none;stroke:#FFDC00;stroke-miterlimit:10}.st6{fill:#0080C8}</style><path class="st0" d="M15.2,20.5c0,0.3,0,0.6,0.1,0.8c0,0.2,0.1,0.3,0.2,0.4c0.1,0.1,0.2,0.2,0.4,0.3c0.2,0.1,0.4,0.1,0.7,0.1 c0.3,0,0.6,0.1,1.1,0.1v0.8h-7.6v-0.8c0.6,0,1.1-0.1,1.4-0.1c0.3,0,0.5-0.1,0.6-0.2c0.1-0.1,0.3-0.2,0.3-0.4 c0.1-0.2,0.1-0.5,0.1-0.9v-6.4c0-0.2,0-0.4-0.1-0.5c-0.1-0.1-0.2-0.2-0.4-0.2c-0.1,0-0.4,0.1-0.6,0.2c-0.3,0.1-0.7,0.4-1.3,0.8 l-0.5-0.9l4.6-2.8h1.1c0,0.6-0.1,1.3-0.1,2.4V20.5z"/><path class="st0" d="M127,208.7c0-0.3,0-0.6-0.1-0.8c0-0.2-0.1-0.3-0.2-0.4c-0.1-0.1-0.2-0.2-0.4-0.3c-0.2-0.1-0.4-0.1-0.7-0.1 c-0.3,0-0.6-0.1-1.1-0.1v-0.8h7.6v0.8c-0.7,0-1.1,0.1-1.4,0.1c-0.3,0.1-0.5,0.1-0.6,0.2c-0.1,0.1-0.3,0.2-0.3,0.4 c-0.1,0.2-0.1,0.5-0.1,0.9v6.4c0,0.2,0,0.4,0.1,0.5c0.1,0.1,0.2,0.2,0.4,0.2c0.1,0,0.4-0.1,0.6-0.2c0.3-0.1,0.7-0.4,1.3-0.8 l0.5,0.9l-4.6,2.8h-1.1c0-0.6,0.1-1.3,0.1-2.4V208.7z"/><polyline class="st1" points="25.3,219.7 5.4,219.7 5.4,7 24.6,7"/><polyline class="st1" points="118.5,7 136.3,7 136.3,219.7 118.2,219.7"/><line class="st1" x1="62.8" y1="219.7" x2="40" y2="219.7"/><line class="st1" x1="62.8" y1="7" x2="40" y2="7"/><line class="st1" x1="104.9" y1="219.7" x2="82.1" y2="219.7"/><line class="st1" x1="104.9" y1="7" x2="82.1" y2="7"/><path d="M102.7,156.2c-1.6-0.2-3.1-0.9-4.7-1.2c-0.6-0.1-1.3-0.4-2.2-0.2c2.9,1.6,6.1,2,8.5,3.9 c-1.9-0.2-3.7-1.2-5.7-1.1c2.7,1.9,6.3,1.9,8.6,4.4c-2.2-0.7-4.3-1.9-6.7-2.2c0.2,0.6,0.6,0.7,0.9,0.8c2.3,0.9,4.5,2,6.9,2.7 c0.9,0.3,1.3,1.1,1.9,1.8c1,1.2,1.9,2.4,2.4,3.8c-2.1-0.7-3.9-2.2-6.2-2.1c1.9,1,3.8,1.8,5.8,2.5c0.3,0.1,0.4-0.1,0.4-0.4 c0.6,0.5,0.8,1.3,1.3,2.1c-2.4-0.7-4.3-2.1-7-2.1c2.7,1.6,5.9,1.9,7.9,4.1c-2.4-0.5-4.5-1.9-7.1-1.8c1.5,0.6,3,1.3,4.4,1.9 c0.9,0.4,1.8,0.8,2.8,1.2c0.5,0.2,0.8,0.6,0.8,1.2c-2.4-0.8-4.6-1.9-7.2-1.9c0,0.1-0.1,0.2-0.1,0.3c1.2,0.4,2.3,0.9,3.5,1.3 c1.1,0.4,2.2,0.9,3.3,1.3c0.3,0.1,0.7,0.3,1,0.5c0.4,0.3,0.8,0.6,0.6,1.1c-0.3,0.4-0.6-0.2-0.9-0.3c-1.9-0.8-3.7-1.7-5.7-2.1 c-0.4-0.1-0.8-0.1-1.4,0c0.9,0.7,2,1,2.9,1.4c1.8,0.8,3.5,1.6,5.3,2.3c0.8,0.3,1.2,0.9,1.4,1.9c-3.1-1.3-6-2.8-9.4-3.2 c0.4,0.7,1.1,0.8,1.6,1c2.4,0.9,4.8,1.8,7.1,3c1,0.5,1.6,1.2,1.9,2.2c0.1,0.2,0.3,0.5,0,0.7c-0.2,0.2-0.5,0-0.7-0.2 c-1.8-1.2-3.7-2.2-5.8-2.9c-0.9-0.3-1.8-0.6-2.9-0.4c1.2,0.6,2.3,1.3,3.5,1.8c2,0.7,3.8,1.8,5.6,2.8c0.6,0.3,0.8,0.9,1.1,1.4 c0,0.1,0,0.2-0.1,0.3c-0.6,0-1-0.4-1.4-0.7c-1.9-1.1-3.8-2.1-5.9-2.7c-0.8-0.2-1.6-0.3-2.7-0.1c0.5,0.3,0.7,0.5,1,0.6 c1.8,0.8,3.6,1.5,5.3,2.3c1.4,0.6,2.7,1.2,3.7,2.4c0.3,0.3,0.6,0.7,0.3,1.1c-0.3,0.4-0.7-0.1-1-0.3c-1-0.6-2.1-1.4-3.1-1.9 c-1.6-0.9-3.3-1.6-5.2-1.5c0.4,0.7,0.4,0.7,0.9,0.9c2.8,1.1,5.5,2.3,7.8,4.2c0.4,0.3,0.8,0.6,0.8,1.3c-2.3-1.5-4.5-2.9-6.9-4 c-0.9-0.4-1.8-0.7-3-0.1c3.7,1.7,7.3,3,10,5.7c-1.7-0.8-3.3-1.8-5-2.7c-2.8-1.5-4.4-1.9-5.6-1.6c3,1.5,5.9,2.9,8.8,4.5 c1,0.5,1.8,1.2,2.2,2.2c-0.2,0.3-0.4,0-0.5-0.1c-5.4-3.9-11.4-5.8-18.1-5.5c-0.7,0-0.9-0.1-0.9-0.9c-0.1-5.4-1.1-10.7-3.8-15.4 c-0.8-1.4-1.8-2.6-2.9-3.7c-0.5-0.6-0.7-1.2-0.7-1.9c0.2-6-2.1-10.8-6.6-14.6c-1.3-1.1-3-1.5-4.6-1.8c-0.9-0.2-1.3-0.6-1.6-1.4 c-1.1-3.4-2.8-6.6-5.1-9.4c-1.4-1.7-3.3-2.8-4.9-4.2c-2.1-1.9-3.7-4.3-5.3-6.6c-3.2-4.4-5.2-9.4-7-14.5c-1.4-4.3-3.1-8.5-5.7-12.2 c-0.9-1.3-1.4-2.7-1.8-4.1c-1.3-4.6-2.9-9.1-5.7-13c-0.7-1-0.9-2.1-1.2-3.2c-1.2-5-4.3-8.8-8-12.3c-0.7-0.6-1.6-0.9-2.6-1 c-0.2-0.2-0.5-0.4-0.8-0.4l0,0c-2.4-1.6-4.9-2.9-7.1-4.6c-4-3-7.9-6-10.4-10.5c-2.9-5.1-4.4-10.7-4.2-16.6 c0.5-11.4,9.1-18.2,18.7-18.7c-2.8,0.9-5.6,1.9-8,3.7c2.4-0.5,4.7-1.5,7.1-2c2.4-0.6,4.8-1.2,7.7-0.5c-3.7,0.6-7.1,0.9-10.3,2.3 c-0.4,0.2-0.8,0.5-1.2,0.8c-0.1,0.1-0.3,0.2-0.3,0.7c5.1-1.8,10.3-2.9,15.8-2.2c-2.6,0.3-5.2,0.6-7.7,1.3c-2,0.6-3.9,1.3-5.5,2.7 c-0.1,0-0.2,0-0.1,0.1c0,0,0-0.1,0-0.2c1.7-0.5,3.4-1,5.1-1.5c3.2-0.9,6.5-1.2,9.8-1.1c0.9,0,1.8,0.1,2.9,0.9 c-5.1,0.5-10,0.4-14.3,3.2c0.7,0.3,1.3-0.1,2-0.2c3.1-0.9,6.3-1.5,9.6-1.6c2.3-0.1,4.5,0.1,6.6,1.1c0.3,0.2,0.7,0.3,1,0.7 c-5.7-0.9-11.2-0.5-16.4,1.9c0.8,0.2,1.5,0.1,2.2-0.1c0.7-0.2,1.5-0.3,2.2-0.5c4.6-0.9,9.2-0.7,13.7,0.4c0.2,0,0.4,0.1,0.5,0.2 c0.1,0,0.1,0.1,0.2,0.3c-1.9-0.1-3.7-0.2-5.5-0.3c-1.8-0.1-3.6,0.1-5.5,0.5c-1.8,0.3-3.6,0.8-5.4,1.9c0.9,0.3,1.7,0,2.4-0.2 c5.4-1.3,10.7-1,16.1,0c0.7,0.1,1.2,0.6,1.8,1.5c-6.4-1.7-12.5-1.5-18.5,0.8c2.3-0.2,4.6-0.5,7-0.6c4.1-0.1,8.2,0.2,12.1,1.5 c0.9,0.3,0.9,0.3,1.5,1.1c-4.5-1.3-8.9-2.1-13.5-1.4c-1,0.1-2.1,0.2-3,0.9c6.2-0.3,12.4,0,18.1,2.7c-5.2-1.1-10.3-2.3-15.7-1.1 c5.6-0.2,10.9,0.9,16.1,3c0.3,0.1,0.7,0.1,0.8,0.5l0,0c-1.5-0.1-2.8-0.6-4.3-0.8c-3.4-0.6-6.8-1.4-10.3-1c-0.2,0-0.5-0.1-0.6,0.3 c0.2,0.4,0.5,0.4,0.9,0.4c4.8-0.1,9.4,1.1,14,2.5c0.7,0.2,1.4,0.3,1.7,1.1c0.1,0.2,0.2,0.5,0.2,0.6c-0.2,0.3-0.5,0.1-0.7,0 c-2.9-0.9-5.8-1.7-8.8-2.1c-1.6-0.2-3.3-0.4-5.1,0.1c0.6,0.7,1.3,0.4,1.9,0.5c3.7,0.5,7.4,1,11,2.2c0.9,0.3,1.9,0.7,2.7,1.2 c0.2,0.1,0.6,0.4,0.5,0.7c-0.1,0.4-0.5,0.2-0.8,0.1c-3.3-1-6.6-1.5-9.9-2.2c-1.1-0.2-2.2,0.1-3.4,0.1c0.8,0.6,1.7,0.6,2.5,0.7 c3.7,0.5,7.3,1.4,10.8,2.6c0.6,0.2,1.4,0.3,1.6,1.2l0,0c-2.5-0.6-5-1.2-7.5-1.8c-1.3-0.3-2.6-0.5-3.8-0.8c-0.9-0.2-1.7,0.1-2.9,0.4 c1.4,0.5,2.6,0.8,3.8,0.9c3.3,0.4,6.5,1.4,9.6,2.4c0.4,0.1,0.9,0.3,1.2,0.5c0.4,0.2,0.6,0.6,0.4,1c-0.2,0.5-0.7,0.1-1,0 c-2.6-1.1-5.3-2.2-8.1-2.8c-1.4-0.3-2.8-0.5-4.3,0c0.3,0.6,0.8,0.3,1.2,0.4c4,0.9,8,2.2,11.8,3.7c0.3,0.1,0.5,0.3,0.7,0.5 c0.3,0.2,0.4,0.6,0.2,0.9c-0.2,0.3-0.5,0-0.7-0.1c-2.9-0.9-5.7-1.9-8.7-2.6c-0.9-0.2-1.7-0.1-2.6-0.1c0.2,0.6,0.7,0.6,1.1,0.7 c3.7,0.9,7.4,1.8,10.7,3.8c0.2,0.1,0.6,0.2,0.6,0.7c-3.8-0.8-7.3-2.8-11.2-2.7l-0.1,0.3c1,0.3,1.9,0.7,2.9,1 c2.8,0.7,5.6,1.7,8.2,2.9c0.2,0.1,0.3,0.2,0.5,0.3c0.3,0.2,0.4,0.6,0.3,0.9c-0.2,0.4-0.5,0.1-0.8,0c-2.1-0.8-4.1-1.7-6.2-2.2 c-1.1-0.3-2.2-0.4-3.6-0.2c1.3,0.7,2.5,0.9,3.6,1.3c2.2,0.7,4.3,1.4,6.4,2.4c0.3,0.1,0.5,0.3,0.8,0.4c0.3,0.2,0.3,0.5,0.2,0.8 c-0.2,0.3-0.4,0.1-0.7,0c-1.8-0.7-3.7-1.4-5.6-2c-1.1-0.4-2.2-0.7-3.5-0.4c1.5,0.5,2.9,1.1,4.4,1.6c1.5,0.6,3,1.1,4.5,1.7 c0.2,0.1,0.4,0.2,0.6,0.3c0.4,0.2,0.6,0.6,0.4,0.9c-0.2,0.4-0.6,0.1-0.9,0c-1.6-0.6-3.2-1.3-4.8-1.9c-1.1-0.4-2.3-0.7-3.5-0.5 c0.8,0.3,1.5,0.6,2.3,0.9c2,0.8,4.1,1.7,6.1,2.5c0.8,0.3,1.1,0.8,1.2,1.7c0.4,2.4,0.3,4.8,0.5,7.2c0.5,6.1,0.7,12.3,2.1,18.3 c0.9,3.9,2.1,7.8,3.1,11.6c0.1,0.3,0.4,0.6,0.1,0.9c-0.2,0.2-0.6-0.1-0.8-0.1c-1-0.2-1.9-0.7-3.2-0.5c1,0.9,2.1,0.9,3,1.3 c0.9,0.4,2.3,0.3,2.3,2c-1.6-0.3-3.2-1-5-0.9c0.5,0.6,1.1,0.8,1.8,1c1,0.3,1.9,0.6,2.9,0.8c1,0.3,1.5,0.9,1.7,2 c-2-0.3-3.8-1.3-5.8-0.8c0.1,0.5,0.5,0.5,0.8,0.6c1.7,0.5,3.4,1.1,5.1,1.6c0.3,0.1,0.6,0.3,0.8,0.5c0.3,0.4,0.7,0.9,0.4,1.3 c-0.3,0.4-0.7-0.1-1.1-0.2c-1.1-0.4-2.2-1-3.4-1.1c-0.6-0.1-1.3-0.1-2.1,0.3c1.5,0.5,2.7,0.9,4,1.3c0.8,0.3,1.6,0.5,2.5,0.8 c0.4,0.1,0.7,0.2,0.9,0.6c0.1,0.3,0.6,0.5,0.3,0.8c-0.2,0.3-0.5,0-0.8-0.1c-2-0.7-4-1.6-6.4-1.2c0.3,0.6,0.9,0.6,1.3,0.7 c2,0.6,4.1,1.1,6.1,2c0.7,0.3,1.1,0.7,1.1,1.5c-2.2-0.6-4.2-1.7-6.5-1.4c-0.2,0-0.4,0.1-0.6,0.4c1,0.6,2.3,0.7,3.4,1.1 c1.2,0.4,2.4,0.7,3.7,1c0.7,0.2,1.1,0.6,1.1,1.5c-2.5-0.7-4.9-2.2-7.6-1.4c0,0.1,0,0.2-0.1,0.3c1.4,0.4,2.8,0.8,4.2,1.2 c1.1,0.3,2.3,0.7,3.4,1c0.8,0.3,0.8,0.4,1,1.4c-0.9-0.3-1.8-0.7-2.6-1c-1.3-0.5-2.6-0.9-4-0.7c-0.3,0-0.7,0-0.7,0.4 c0,0.3,0.4,0.3,0.6,0.4c2.2,0.8,4.4,1.2,6.6,1.8c0.9,0.2,1.3,0.7,1.6,1.6c-2.7-0.4-5.1-2.5-8-1.9c0,0.1-0.1,0.2-0.1,0.3 c1.7,0.5,3.4,1,5.1,1.5c0.7,0.2,1.3,0.5,2,0.6c1.3,0.2,1.9,1.1,2.2,2.2l0,0c-0.5,0.1-0.8-0.2-1.1-0.4c-2-0.9-3.9-2-6.1-2.3 c-0.8-0.1-1.5-0.2-2.3,0.3c0.1,0.1,0.1,0.3,0.2,0.3c2.9,1,5.9,1.9,8.8,2.8c0.3,0.1,0.7,0.1,0.7-0.4l0,0c0.5,0.9,1,1.8,1.6,2.9 c-3.5-0.9-6.3-3.1-9.8-2.8c1,0.9,2.2,1.1,3.4,1.5c2,0.8,4,1.6,6,2.3c0.6,0.2,1.1,0.5,1.4,1c0.1,0.2,0.3,0.4,0.2,0.6 c-0.2,0.2-0.4,0.1-0.6,0c-1.1-0.5-2.3-1.1-3.5-1.5c-1.5-0.5-3.1-0.7-4.8-0.7c3.3,1.8,7.1,2.4,10.1,4.6c-2.7-0.5-5.2-2.2-8.1-2 c1.7,1,3.6,1.5,5.3,2.3c1.7,0.8,3.9,0.9,4.9,2.9c-2.8-0.9-5.4-2.6-8.5-2.6c0.1,0.6,0.6,0.6,0.9,0.8c2.5,1,5.1,2,7.6,2.9 c1.3,0.5,2.1,1.4,2.8,2.6l0,0c-1.7-0.4-3.1-1.3-4.7-1.9c-1.3-0.5-2.6-1-4.3-0.9c1.1,0.9,2.2,1.1,3.2,1.5c2.3,1,4.6,1.9,7,2.8 c0.6,0.2,0.9,0.8,1.1,1.4c-1.3-0.5-2.6-1-3.9-1.4c-0.9-0.3-1.9-0.6-2.9-0.9c-0.6-0.2-1.1-0.1-1.7,0.2c0.2,0.4,0.6,0.5,1,0.6 c2.6,0.9,5.2,1.8,7.8,2.6c0.6,0.2,1,0.4,1.2,1.2c-2.8-0.8-5.2-2.6-8.3-1.8c1.3,0.9,2.9,1.1,4.3,1.7c1.4,0.5,2.9,0.9,4.4,1.4 c0.3,0.1,0.6,0.2,0.8,0.4c0.3,0.3,0.8,0.7,0.6,1.1c-0.3,0.6-0.7,0-1-0.1c-1.5-0.5-3-1.1-4.5-1.6c-0.8-0.2-1.5-0.5-2.4-0.4 c0.2,0.6,0.7,0.6,1.1,0.8c2.1,0.7,4.1,1.5,6.2,2.2C101.6,154.6,102.3,155.2,102.7,156.2L102.7,156.2z M69.7,78.3 c-1.9-1.6-4-3-6.3-3.8c-0.2-0.1-0.5-0.1-0.6,0.2c-0.1,0.4,0.2,0.5,0.5,0.6c1.8,1,3.6,2,5.4,3C68.9,78.4,69.2,78.6,69.7,78.3 M61.1,64.9c2.3,1.1,4.7,2,7,3.2c0.2,0.1,0.5,0.1,0.6-0.1c0.1-0.3-0.2-0.5-0.4-0.6c-1.7-0.9-3.4-2-5.3-2.6 C62.4,64.7,61.8,64.6,61.1,64.9 M69.1,72.9c-0.9-1.1-2.1-1.7-3.2-2.3c-0.9-0.5-1.8-1-2.8-1.1c-0.3,0-0.8-0.2-0.9,0.2 c-0.1,0.3,0.4,0.4,0.6,0.5c1.8,0.8,3.6,1.6,5.3,2.5C68.4,73,68.6,73.2,69.1,72.9 M61.8,72c2.5,1.6,4.8,2.7,7.3,3.9 C68.4,74.4,63.6,71.8,61.8,72 M61.8,67.4l-0.1,0.4c2.3,0.9,4.5,1.9,6.8,2.8c0-0.1,0.1-0.2,0.1-0.3C66.7,68.6,64.4,67.6,61.8,67.4 M69,80.8c-1-1.4-4.7-3.3-5.9-3C65,79,66.8,80.2,69,80.8 M68.4,82.7c-1.1-0.8-1.8-2.3-3.5-2.1C65.8,81.7,66.9,82.5,68.4,82.7 M103.7,163.5c1.6,0.7,3.1,1.7,5.1,2.3C107.6,164.6,104.9,163.4,103.7,163.5" style="fill:#DA0812"/><path d="M102.7,156.2c-1.6-0.2-3.1-0.9-4.7-1.2c-0.6-0.1-1.3-0.4-2.2-0.2c2.9,1.6,6.1,2,8.5,3.9 c-1.9-0.2-3.7-1.2-5.7-1.1c2.7,1.9,6.3,1.9,8.6,4.4c-2.2-0.7-4.3-1.9-6.7-2.2c0.2,0.6,0.6,0.7,0.9,0.8c2.3,0.9,4.5,2,6.9,2.7 c0.9,0.3,1.3,1.1,1.9,1.8c1,1.2,1.9,2.4,2.4,3.8c-2.1-0.7-3.9-2.2-6.2-2.1c1.9,1,3.8,1.8,5.8,2.5c0.3,0.1,0.4-0.1,0.4-0.4 c0.6,0.5,0.8,1.3,1.3,2.1c-2.4-0.7-4.3-2.1-7-2.1c2.7,1.6,5.9,1.9,7.9,4.1c-2.4-0.5-4.5-1.9-7.1-1.8c1.5,0.6,3,1.3,4.4,1.9 c0.9,0.4,1.8,0.8,2.8,1.2c0.5,0.2,0.8,0.6,0.8,1.2c-2.4-0.8-4.6-1.9-7.2-1.9c0,0.1-0.1,0.2-0.1,0.3c1.2,0.4,2.3,0.9,3.5,1.3 c1.1,0.4,2.2,0.9,3.3,1.3c0.3,0.1,0.7,0.3,1,0.5c0.4,0.3,0.8,0.6,0.6,1.1c-0.3,0.4-0.6-0.2-0.9-0.3c-1.9-0.8-3.7-1.7-5.7-2.1 c-0.4-0.1-0.8-0.1-1.4,0c0.9,0.7,2,1,2.9,1.4c1.8,0.8,3.5,1.6,5.3,2.3c0.8,0.3,1.2,0.9,1.4,1.9c-3.1-1.3-6-2.8-9.4-3.2 c0.4,0.7,1.1,0.8,1.6,1c2.4,0.9,4.8,1.8,7.1,3c1,0.5,1.6,1.2,1.9,2.2c0.1,0.2,0.3,0.5,0,0.7c-0.2,0.2-0.5,0-0.7-0.2 c-1.8-1.2-3.7-2.2-5.8-2.9c-0.9-0.3-1.8-0.6-2.9-0.4c1.2,0.6,2.3,1.3,3.5,1.8c2,0.7,3.8,1.8,5.6,2.8c0.6,0.3,0.8,0.9,1.1,1.4 c0,0.1,0,0.2-0.1,0.3c-0.6,0-1-0.4-1.4-0.7c-1.9-1.1-3.8-2.1-5.9-2.7c-0.8-0.2-1.6-0.3-2.7-0.1c0.5,0.3,0.7,0.5,1,0.6 c1.8,0.8,3.6,1.5,5.3,2.3c1.4,0.6,2.7,1.2,3.7,2.4c0.3,0.3,0.6,0.7,0.3,1.1c-0.3,0.4-0.7-0.1-1-0.3c-1-0.6-2.1-1.4-3.1-1.9 c-1.6-0.9-3.3-1.6-5.2-1.5c0.4,0.7,0.4,0.7,0.9,0.9c2.8,1.1,5.5,2.3,7.8,4.2c0.4,0.3,0.8,0.6,0.8,1.3c-2.3-1.5-4.5-2.9-6.9-4 c-0.9-0.4-1.8-0.7-3-0.1c3.7,1.7,7.3,3,10,5.7c-1.7-0.8-3.3-1.8-5-2.7c-2.8-1.5-4.4-1.9-5.6-1.6c3,1.5,5.9,2.9,8.8,4.5 c1,0.5,1.8,1.2,2.2,2.2c-0.2,0.3-0.4,0-0.5-0.1c-5.4-3.9-11.4-5.8-18.1-5.5c-0.7,0-0.9-0.1-0.9-0.9c-0.1-5.4-1.1-10.7-3.8-15.4 c-0.8-1.4-1.8-2.6-2.9-3.7c-0.5-0.6-0.7-1.2-0.7-1.9c0.2-6-2.1-10.8-6.6-14.6c-1.3-1.1-3-1.5-4.6-1.8c-0.9-0.2-1.3-0.6-1.6-1.4 c-1.1-3.4-2.8-6.6-5.1-9.4c-1.4-1.7-3.3-2.8-4.9-4.2c-2.1-1.9-3.7-4.3-5.3-6.6c-3.2-4.4-5.2-9.4-7-14.5c-1.4-4.3-3.1-8.5-5.7-12.2 c-0.9-1.3-1.4-2.7-1.8-4.1c-1.3-4.6-2.9-9.1-5.7-13c-0.7-1-0.9-2.1-1.2-3.2c-1.2-5-4.3-8.8-8-12.3c-0.7-0.6-1.6-0.9-2.6-1 c-0.2-0.2-0.5-0.4-0.8-0.4l0,0c-2.4-1.6-4.9-2.9-7.1-4.6c-4-3-7.9-6-10.4-10.5c-2.9-5.1-4.4-10.7-4.2-16.6 c0.5-11.4,9.1-18.2,18.7-18.7c-2.8,0.9-5.6,1.9-8,3.7c2.4-0.5,4.7-1.5,7.1-2c2.4-0.6,4.8-1.2,7.7-0.5c-3.7,0.6-7.1,0.9-10.3,2.3 c-0.4,0.2-0.8,0.5-1.2,0.8c-0.1,0.1-0.3,0.2-0.3,0.7c5.1-1.8,10.3-2.9,15.8-2.2c-2.6,0.3-5.2,0.6-7.7,1.3c-2,0.6-3.9,1.3-5.5,2.7 c-0.1,0-0.2,0-0.1,0.1c0,0,0-0.1,0-0.2c1.7-0.5,3.4-1,5.1-1.5c3.2-0.9,6.5-1.2,9.8-1.1c0.9,0,1.8,0.1,2.9,0.9 c-5.1,0.5-10,0.4-14.3,3.2c0.7,0.3,1.3-0.1,2-0.2c3.1-0.9,6.3-1.5,9.6-1.6c2.3-0.1,4.5,0.1,6.6,1.1c0.3,0.2,0.7,0.3,1,0.7 c-5.7-0.9-11.2-0.5-16.4,1.9c0.8,0.2,1.5,0.1,2.2-0.1c0.7-0.2,1.5-0.3,2.2-0.5c4.6-0.9,9.2-0.7,13.7,0.4c0.2,0,0.4,0.1,0.5,0.2 c0.1,0,0.1,0.1,0.2,0.3c-1.9-0.1-3.7-0.2-5.5-0.3c-1.8-0.1-3.6,0.1-5.5,0.5c-1.8,0.3-3.6,0.8-5.4,1.9c0.9,0.3,1.7,0,2.4-0.2 c5.4-1.3,10.7-1,16.1,0c0.7,0.1,1.2,0.6,1.8,1.5c-6.4-1.7-12.5-1.5-18.5,0.8c2.3-0.2,4.6-0.5,7-0.6c4.1-0.1,8.2,0.2,12.1,1.5 c0.9,0.3,0.9,0.3,1.5,1.1c-4.5-1.3-8.9-2.1-13.5-1.4c-1,0.1-2.1,0.2-3,0.9c6.2-0.3,12.4,0,18.1,2.7c-5.2-1.1-10.3-2.3-15.7-1.1 c5.6-0.2,10.9,0.9,16.1,3c0.3,0.1,0.7,0.1,0.8,0.5l0,0c-1.5-0.1-2.8-0.6-4.3-0.8c-3.4-0.6-6.8-1.4-10.3-1c-0.2,0-0.5-0.1-0.6,0.3 c0.2,0.4,0.5,0.4,0.9,0.4c4.8-0.1,9.4,1.1,14,2.5c0.7,0.2,1.4,0.3,1.7,1.1c0.1,0.2,0.2,0.5,0.2,0.6c-0.2,0.3-0.5,0.1-0.7,0 c-2.9-0.9-5.8-1.7-8.8-2.1c-1.6-0.2-3.3-0.4-5.1,0.1c0.6,0.7,1.3,0.4,1.9,0.5c3.7,0.5,7.4,1,11,2.2c0.9,0.3,1.9,0.7,2.7,1.2 c0.2,0.1,0.6,0.4,0.5,0.7c-0.1,0.4-0.5,0.2-0.8,0.1c-3.3-1-6.6-1.5-9.9-2.2c-1.1-0.2-2.2,0.1-3.4,0.1c0.8,0.6,1.7,0.6,2.5,0.7 c3.7,0.5,7.3,1.4,10.8,2.6c0.6,0.2,1.4,0.3,1.6,1.2l0,0c-2.5-0.6-5-1.2-7.5-1.8c-1.3-0.3-2.6-0.5-3.8-0.8c-0.9-0.2-1.7,0.1-2.9,0.4 c1.4,0.5,2.6,0.8,3.8,0.9c3.3,0.4,6.5,1.4,9.6,2.4c0.4,0.1,0.9,0.3,1.2,0.5c0.4,0.2,0.6,0.6,0.4,1c-0.2,0.5-0.7,0.1-1,0 c-2.6-1.1-5.3-2.2-8.1-2.8c-1.4-0.3-2.8-0.5-4.3,0c0.3,0.6,0.8,0.3,1.2,0.4c4,0.9,8,2.2,11.8,3.7c0.3,0.1,0.5,0.3,0.7,0.5 c0.3,0.2,0.4,0.6,0.2,0.9c-0.2,0.3-0.5,0-0.7-0.1c-2.9-0.9-5.7-1.9-8.7-2.6c-0.9-0.2-1.7-0.1-2.6-0.1c0.2,0.6,0.7,0.6,1.1,0.7 c3.7,0.9,7.4,1.8,10.7,3.8c0.2,0.1,0.6,0.2,0.6,0.7c-3.8-0.8-7.3-2.8-11.2-2.7l-0.1,0.3c1,0.3,1.9,0.7,2.9,1 c2.8,0.7,5.6,1.7,8.2,2.9c0.2,0.1,0.3,0.2,0.5,0.3c0.3,0.2,0.4,0.6,0.3,0.9c-0.2,0.4-0.5,0.1-0.8,0c-2.1-0.8-4.1-1.7-6.2-2.2 c-1.1-0.3-2.2-0.4-3.6-0.2c1.3,0.7,2.5,0.9,3.6,1.3c2.2,0.7,4.3,1.4,6.4,2.4c0.3,0.1,0.5,0.3,0.8,0.4c0.3,0.2,0.3,0.5,0.2,0.8 c-0.2,0.3-0.4,0.1-0.7,0c-1.8-0.7-3.7-1.4-5.6-2c-1.1-0.4-2.2-0.7-3.5-0.4c1.5,0.5,2.9,1.1,4.4,1.6c1.5,0.6,3,1.1,4.5,1.7 c0.2,0.1,0.4,0.2,0.6,0.3c0.4,0.2,0.6,0.6,0.4,0.9c-0.2,0.4-0.6,0.1-0.9,0c-1.6-0.6-3.2-1.3-4.8-1.9c-1.1-0.4-2.3-0.7-3.5-0.5 c0.8,0.3,1.5,0.6,2.3,0.9c2,0.8,4.1,1.7,6.1,2.5c0.8,0.3,1.1,0.8,1.2,1.7c0.4,2.4,0.3,4.8,0.5,7.2c0.5,6.1,0.7,12.3,2.1,18.3 c0.9,3.9,2.1,7.8,3.1,11.6c0.1,0.3,0.4,0.6,0.1,0.9c-0.2,0.2-0.6-0.1-0.8-0.1c-1-0.2-1.9-0.7-3.2-0.5c1,0.9,2.1,0.9,3,1.3 c0.9,0.4,2.3,0.3,2.3,2c-1.6-0.3-3.2-1-5-0.9c0.5,0.6,1.1,0.8,1.8,1c1,0.3,1.9,0.6,2.9,0.8c1,0.3,1.5,0.9,1.7,2 c-2-0.3-3.8-1.3-5.8-0.8c0.1,0.5,0.5,0.5,0.8,0.6c1.7,0.5,3.4,1.1,5.1,1.6c0.3,0.1,0.6,0.3,0.8,0.5c0.3,0.4,0.7,0.9,0.4,1.3 c-0.3,0.4-0.7-0.1-1.1-0.2c-1.1-0.4-2.2-1-3.4-1.1c-0.6-0.1-1.3-0.1-2.1,0.3c1.5,0.5,2.7,0.9,4,1.3c0.8,0.3,1.6,0.5,2.5,0.8 c0.4,0.1,0.7,0.2,0.9,0.6c0.1,0.3,0.6,0.5,0.3,0.8c-0.2,0.3-0.5,0-0.8-0.1c-2-0.7-4-1.6-6.4-1.2c0.3,0.6,0.9,0.6,1.3,0.7 c2,0.6,4.1,1.1,6.1,2c0.7,0.3,1.1,0.7,1.1,1.5c-2.2-0.6-4.2-1.7-6.5-1.4c-0.2,0-0.4,0.1-0.6,0.4c1,0.6,2.3,0.7,3.4,1.1 c1.2,0.4,2.4,0.7,3.7,1c0.7,0.2,1.1,0.6,1.1,1.5c-2.5-0.7-4.9-2.2-7.6-1.4c0,0.1,0,0.2-0.1,0.3c1.4,0.4,2.8,0.8,4.2,1.2 c1.1,0.3,2.3,0.7,3.4,1c0.8,0.3,0.8,0.4,1,1.4c-0.9-0.3-1.8-0.7-2.6-1c-1.3-0.5-2.6-0.9-4-0.7c-0.3,0-0.7,0-0.7,0.4 c0,0.3,0.4,0.3,0.6,0.4c2.2,0.8,4.4,1.2,6.6,1.8c0.9,0.2,1.3,0.7,1.6,1.6c-2.7-0.4-5.1-2.5-8-1.9c0,0.1-0.1,0.2-0.1,0.3 c1.7,0.5,3.4,1,5.1,1.5c0.7,0.2,1.3,0.5,2,0.6c1.3,0.2,1.9,1.1,2.2,2.2l0,0c-0.5,0.1-0.8-0.2-1.1-0.4c-2-0.9-3.9-2-6.1-2.3 c-0.8-0.1-1.5-0.2-2.3,0.3c0.1,0.1,0.1,0.3,0.2,0.3c2.9,1,5.9,1.9,8.8,2.8c0.3,0.1,0.7,0.1,0.7-0.4l0,0c0.5,0.9,1,1.8,1.6,2.9 c-3.5-0.9-6.3-3.1-9.8-2.8c1,0.9,2.2,1.1,3.4,1.5c2,0.8,4,1.6,6,2.3c0.6,0.2,1.1,0.5,1.4,1c0.1,0.2,0.3,0.4,0.2,0.6 c-0.2,0.2-0.4,0.1-0.6,0c-1.1-0.5-2.3-1.1-3.5-1.5c-1.5-0.5-3.1-0.7-4.8-0.7c3.3,1.8,7.1,2.4,10.1,4.6c-2.7-0.5-5.2-2.2-8.1-2 c1.7,1,3.6,1.5,5.3,2.3c1.7,0.8,3.9,0.9,4.9,2.9c-2.8-0.9-5.4-2.6-8.5-2.6c0.1,0.6,0.6,0.6,0.9,0.8c2.5,1,5.1,2,7.6,2.9 c1.3,0.5,2.1,1.4,2.8,2.6l0,0c-1.7-0.4-3.1-1.3-4.7-1.9c-1.3-0.5-2.6-1-4.3-0.9c1.1,0.9,2.2,1.1,3.2,1.5c2.3,1,4.6,1.9,7,2.8 c0.6,0.2,0.9,0.8,1.1,1.4c-1.3-0.5-2.6-1-3.9-1.4c-0.9-0.3-1.9-0.6-2.9-0.9c-0.6-0.2-1.1-0.1-1.7,0.2c0.2,0.4,0.6,0.5,1,0.6 c2.6,0.9,5.2,1.8,7.8,2.6c0.6,0.2,1,0.4,1.2,1.2c-2.8-0.8-5.2-2.6-8.3-1.8c1.3,0.9,2.9,1.1,4.3,1.7c1.4,0.5,2.9,0.9,4.4,1.4 c0.3,0.1,0.6,0.2,0.8,0.4c0.3,0.3,0.8,0.7,0.6,1.1c-0.3,0.6-0.7,0-1-0.1c-1.5-0.5-3-1.1-4.5-1.6c-0.8-0.2-1.5-0.5-2.4-0.4 c0.2,0.6,0.7,0.6,1.1,0.8c2.1,0.7,4.1,1.5,6.2,2.2C101.6,154.6,102.3,155.2,102.7,156.2L102.7,156.2z M69.7,78.3 c-1.9-1.6-4-3-6.3-3.8c-0.2-0.1-0.5-0.1-0.6,0.2c-0.1,0.4,0.2,0.5,0.5,0.6c1.8,1,3.6,2,5.4,3C68.9,78.4,69.2,78.6,69.7,78.3z M61.1,64.9c2.3,1.1,4.7,2,7,3.2c0.2,0.1,0.5,0.1,0.6-0.1c0.1-0.3-0.2-0.5-0.4-0.6c-1.7-0.9-3.4-2-5.3-2.6 C62.4,64.7,61.8,64.6,61.1,64.9z M69.1,72.9c-0.9-1.1-2.1-1.7-3.2-2.3c-0.9-0.5-1.8-1-2.8-1.1c-0.3,0-0.8-0.2-0.9,0.2 c-0.1,0.3,0.4,0.4,0.6,0.5c1.8,0.8,3.6,1.6,5.3,2.5C68.4,73,68.6,73.2,69.1,72.9z M61.8,72c2.5,1.6,4.8,2.7,7.3,3.9 C68.4,74.4,63.6,71.8,61.8,72z M61.8,67.4l-0.1,0.4c2.3,0.9,4.5,1.9,6.8,2.8c0-0.1,0.1-0.2,0.1-0.3C66.7,68.6,64.4,67.6,61.8,67.4z M69,80.8c-1-1.4-4.7-3.3-5.9-3C65,79,66.8,80.2,69,80.8z M68.4,82.7c-1.1-0.8-1.8-2.3-3.5-2.1C65.8,81.7,66.9,82.5,68.4,82.7z M103.7,163.5c1.6,0.7,3.1,1.7,5.1,2.3C107.6,164.6,104.9,163.4,103.7,163.5z" style="fill:none;stroke:#DA0812;stroke-linecap:round;stroke-linejoin:round;stroke-miterlimit:10"/><path class="st4" d="M118.1,127c1.5,1.6,3.2,2.6,4.8,3.8c2.2,1.8,3.5,4.1,3.4,7.1c-0.1,1.2-0.3,2.6-1.6,3c-1.3,0.5-2.5-0.2-3.4-1.1 c-1.9-1.8-2.8-4-3.2-6.5C117.6,131.3,117.8,129.3,118.1,127 M119.2,130.4c0.4,2.7,0.9,5.3,2.4,7.5c0.7,1,1.9,1.5,2.4,1.1 c0.9-0.7,0.7-1.7,0.4-2.6C123.5,133.7,121.3,132,119.2,130.4"/><path class="st5" d="M118.1,127c1.5,1.6,3.2,2.6,4.8,3.8c2.2,1.8,3.5,4.1,3.4,7.1c-0.1,1.2-0.3,2.6-1.6,3c-1.3,0.5-2.5-0.2-3.4-1.1 c-1.9-1.8-2.8-4-3.2-6.5C117.6,131.3,117.8,129.3,118.1,127z M119.2,130.4c0.4,2.7,0.9,5.3,2.4,7.5c0.7,1,1.9,1.5,2.4,1.1 c0.9-0.7,0.7-1.7,0.4-2.6C123.5,133.7,121.3,132,119.2,130.4z"/><path class="st4" d="M126,40.2c0.6,0,0.5,0.5,0.5,0.8c0.8,3.6,0.7,7.2,0,10.8c-0.3,1.7-1.2,3.1-2.9,3.9c-2,0.1-2.9-1.1-2.7-3.4 c0.3-3.6,1.6-6.8,3.3-9.8C124.8,41.7,125.4,40.9,126,40.2L126,40.2z M125.5,43.5c-1.6,2.4-2.9,4.9-3.1,7.8c0,0.9-0.2,2.1,1,2.3 c1.1,0.2,1.4-1,1.7-1.8C126.2,49.2,125.6,46.3,125.5,43.5"/><path class="st5" d="M126,40.2c0.6,0,0.5,0.5,0.5,0.8c0.8,3.6,0.7,7.2,0,10.8c-0.3,1.7-1.2,3.1-2.9,3.9c-2,0.1-2.9-1.1-2.7-3.4 c0.3-3.6,1.6-6.8,3.3-9.8C124.8,41.7,125.4,40.9,126,40.2L126,40.2z M125.5,43.5c-1.6,2.4-2.9,4.9-3.1,7.8c0,0.9-0.2,2.1,1,2.3 c1.1,0.2,1.4-1,1.7-1.8C126.2,49.2,125.6,46.3,125.5,43.5z"/><path class="st4" d="M113.3,105c0-1.8-0.1-3.6,0-5.6c3.4,2.4,6.4,5,8.3,8.7c0.8,1.5,1.2,3,0.6,4.7c-0.5,1.5-0.9,1.9-2.5,2 c-3.1-0.6-4.6-2.8-5.6-5.6C113.7,107.8,113.5,106.4,113.3,105 M120.7,110.5c-0.1-0.3-0.2-0.5-0.2-0.8c-0.9-2.9-3.3-4.5-5.2-6.6 c-0.1-0.1-0.3-0.2-0.4-0.1c-0.2,0.2-0.1,0.4-0.1,0.6c0.3,2,0.6,4,1.3,5.9c0.3,0.7,0.5,1.5,1,2.1c0.6,0.8,1.9,1.2,2.7,0.9 C120.7,112.2,120.4,111.2,120.7,110.5"/><path class="st5" d="M113.3,105c0-1.8-0.1-3.6,0-5.6c3.4,2.4,6.4,5,8.3,8.7c0.8,1.5,1.2,3,0.6,4.7c-0.5,1.5-0.9,1.9-2.5,2 c-3.1-0.6-4.6-2.8-5.6-5.6C113.7,107.8,113.5,106.4,113.3,105z M120.7,110.5c-0.1-0.3-0.2-0.5-0.2-0.8c-0.9-2.9-3.3-4.5-5.2-6.6 c-0.1-0.1-0.3-0.2-0.4-0.1c-0.2,0.2-0.1,0.4-0.1,0.6c0.3,2,0.6,4,1.3,5.9c0.3,0.7,0.5,1.5,1,2.1c0.6,0.8,1.9,1.2,2.7,0.9 C120.7,112.2,120.4,111.2,120.7,110.5z"/><path class="st4" d="M47.8,189.8c-2.4,0.1-4.7-0.6-7-0.7c-0.6,0-1.5,0.5-1.8-0.2c-0.2-0.5,0.6-1.1,0.9-1.6c1.5-2.5,3.2-4.9,5.2-7 c1.3-1.4,3-2,4.8-1.9c2.1,0.1,3.4,1.4,4.2,3.2c0.8,1.9,0.8,3.8-0.5,5.5C52.2,189.2,50.1,189.8,47.8,189.8 M42.4,187.9 c1.9-0.4,3.7-0.1,5.6-0.3c1.5-0.2,2.7-0.9,3.4-2.3c0.7-1.4,0.1-2.7-1.3-3.2c-1.6-0.6-3.1-0.2-4.2,1.3 C44.8,184.9,43.7,186.4,42.4,187.9"/><path class="st5" d="M47.8,189.8c-2.4,0.1-4.7-0.6-7-0.7c-0.6,0-1.5,0.5-1.8-0.2c-0.2-0.5,0.6-1.1,0.9-1.6c1.5-2.5,3.2-4.9,5.2-7 c1.3-1.4,3-2,4.8-1.9c2.1,0.1,3.4,1.4,4.2,3.2c0.8,1.9,0.8,3.8-0.5,5.5C52.2,189.2,50.1,189.8,47.8,189.8z M42.4,187.9 c1.9-0.4,3.7-0.1,5.6-0.3c1.5-0.2,2.7-0.9,3.4-2.3c0.7-1.4,0.1-2.7-1.3-3.2c-1.6-0.6-3.1-0.2-4.2,1.3 C44.8,184.9,43.7,186.4,42.4,187.9z"/><path class="st4" d="M16.1,132.1c0.1-3.2,0.5-6.4,2.4-9.1c1.7-2.4,4.2-3.6,7.2-3.2c3.1,0.4,4.3,3.3,2.7,6.3c-0.9,1.7-2.2,3-4,3.7 c-2.6,1-5.1,2.1-7.4,3.6c-0.2,0.2-0.5,0.5-0.8,0.3c-0.3-0.2,0-0.5-0.1-0.8C16.1,132.7,16.1,132.4,16.1,132.1 M17.7,131 c1.1-0.7,2.3-1.1,3.5-1.5c1.8-0.6,3.4-1.5,4.5-3.1c0.8-1.1,0.7-2.8-0.1-3.5c-0.9-0.8-2.4-0.8-3.6,0.1c-1.2,0.9-2,2.1-2.5,3.5 C18.9,127.9,18.5,129.5,17.7,131"/><path class="st5" d="M16.1,132.1c0.1-3.2,0.5-6.4,2.4-9.1c1.7-2.4,4.2-3.6,7.2-3.2c3.1,0.4,4.3,3.3,2.7,6.3c-0.9,1.7-2.2,3-4,3.7 c-2.6,1-5.1,2.1-7.4,3.6c-0.2,0.2-0.5,0.5-0.8,0.3c-0.3-0.2,0-0.5-0.1-0.8C16.1,132.7,16.1,132.4,16.1,132.1z M17.7,131 c1.1-0.7,2.3-1.1,3.5-1.5c1.8-0.6,3.4-1.5,4.5-3.1c0.8-1.1,0.7-2.8-0.1-3.5c-0.9-0.8-2.4-0.8-3.6,0.1c-1.2,0.9-2,2.1-2.5,3.5 C18.9,127.9,18.5,129.5,17.7,131z"/><path class="st4" d="M13,95.8c-0.2-2.2-1.2-3.8-2.2-5.5c-1.4-2.2-1.9-4.6-1.9-7.1c0-1.9,1-3.2,2.7-4.1c1.3-0.7,3.7,0.4,4.7,2 c0.8,1.4,1,3,0.8,4.5c-0.3,3.5-1.8,6.7-3.5,9.7C13.4,95.5,13.2,95.6,13,95.8 M13.2,92.4c1.2-2.6,2.3-5.2,1.8-8.2 c-0.2-1.1-0.9-2-1.7-2.6c-0.6-0.5-1.2-0.4-1.5,0.4c-0.6,1.2-0.8,2.5-0.4,3.8c0.6,2,1.4,4,1.5,6.2C12.8,92.1,12.9,92.3,13.2,92.4"/><path class="st5" d="M13,95.8c-0.2-2.2-1.2-3.8-2.2-5.5c-1.4-2.2-1.9-4.6-1.9-7.1c0-1.9,1-3.2,2.7-4.1c1.3-0.7,3.7,0.4,4.7,2 c0.8,1.4,1,3,0.8,4.5c-0.3,3.5-1.8,6.7-3.5,9.7C13.4,95.5,13.2,95.6,13,95.8z M13.2,92.4c1.2-2.6,2.3-5.2,1.8-8.2 c-0.2-1.1-0.9-2-1.7-2.6c-0.6-0.5-1.2-0.4-1.5,0.4c-0.6,1.2-0.8,2.5-0.4,3.8c0.6,2,1.4,4,1.5,6.2C12.8,92.1,12.9,92.3,13.2,92.4z"/><path class="st4" d="M17.2,148.7c-0.1-2.9,0.2-5.2,0.8-7.5c0.1-0.2,0-0.6,0.4-0.6c0.3,0,0.5,0.3,0.7,0.5c1.2,2,2.5,4,3.6,6 c1,1.8,1.3,3.7,1,5.7c-0.2,1.6-1.2,2.8-2.2,2.9c-1,0.1-2.5-1-3.1-2.3C17.5,151.8,17.2,150.1,17.2,148.7 M19.3,144.1 c-0.3,1.2-0.5,2.3-0.6,3.5c0,1.2,0,2.4,0.3,3.6c0.3,1.4,1.2,2.4,1.9,2.3c0.7-0.1,1.3-1.5,1.2-2.9C21.9,148.2,20.4,146.3,19.3,144.1"/><path class="st5" d="M17.2,148.7c-0.1-2.9,0.2-5.2,0.8-7.5c0.1-0.2,0-0.6,0.4-0.6c0.3,0,0.5,0.3,0.7,0.5c1.2,2,2.5,4,3.6,6 c1,1.8,1.3,3.7,1,5.7c-0.2,1.6-1.2,2.8-2.2,2.9c-1,0.1-2.5-1-3.1-2.3C17.5,151.8,17.2,150.1,17.2,148.7z M19.3,144.1 c-0.3,1.2-0.5,2.3-0.6,3.5c0,1.2,0,2.4,0.3,3.6c0.3,1.4,1.2,2.4,1.9,2.3c0.7-0.1,1.3-1.5,1.2-2.9C21.9,148.2,20.4,146.3,19.3,144.1 z"/><path class="st4" d="M120.9,71.9c0.7-1.2,1.3-2.4,2.2-3.4c0.4-0.5,0.9-0.6,1.1,0.1c0.8,2.8,2.7,5.2,2.7,8.3c0,1.7-0.1,3.4-0.8,5 c-1,2-2,2.4-4,1.7c-2.4-2.1-2.5-4.9-2.2-7.9C120,74.4,120.5,73.1,120.9,71.9 M123.3,71.3c0,0.8-0.6,1.4-0.9,2 c-1,2.2-1.7,4.5-0.6,6.9c0.3,0.6,0.6,1.3,1.4,1.3c0.9,0,1.2-0.7,1.6-1.4c0.1-0.2,0.2-0.5,0.2-0.7C125.1,76.5,124.5,73.8,123.3,71.3"/><path class="st5" d="M120.9,71.9c0.7-1.2,1.3-2.4,2.2-3.4c0.4-0.5,0.9-0.6,1.1,0.1c0.8,2.8,2.7,5.2,2.7,8.3c0,1.7-0.1,3.4-0.8,5 c-1,2-2,2.4-4,1.7c-2.4-2.1-2.5-4.9-2.2-7.9C120,74.4,120.5,73.1,120.9,71.9z M123.3,71.3c0,0.8-0.6,1.4-0.9,2 c-1,2.2-1.7,4.5-0.6,6.9c0.3,0.6,0.6,1.3,1.4,1.3c0.9,0,1.2-0.7,1.6-1.4c0.1-0.2,0.2-0.5,0.2-0.7C125.1,76.5,124.5,73.8,123.3,71.3 z"/><path class="st6" d="M24.8,152.9c0.4-3-0.7-5.6-2.3-8c-0.4-0.6-0.9-1.2-1-1.9c3.1,1.9,6.5,2.8,10.1,3.2c6.6,0.9,13,0,19.3-2 c4.3-1.4,8.6-3.2,13.1-4.1c1.3-0.3,2.6-0.5,3.9-0.5c1.7,0.1,3.4,0.4,4.6,1.8c1,1.1,2,2.1,3.1,3.1c0.3,0.3,0.7,0.7,0.5,1.2 c-0.4,1-0.3,2.1-0.6,3.2c-0.1,0.3,0,0.8-0.5,0.7c-0.4-0.1-0.1-0.6,0-0.9c0.3-1,0.4-2,0.3-3c0-0.3-0.1-0.6-0.2-0.9 c-0.1-0.2-0.2-0.5-0.5-0.5c-0.3,0.1-0.2,0.4-0.2,0.6c0,1.1-0.1,2.2-0.3,3.2c-0.1,0.3-0.1,0.7-0.3,1c-0.1,0.2-0.2,0.4-0.5,0.3 c-0.4-0.1-0.3-0.3-0.3-0.6c0.3-1.3,0.4-2.6,0.2-3.9c0-0.5-0.1-1-0.5-1.3c-0.4,0.3-0.4,0.6-0.3,1c0.1,1.4-0.2,2.7-0.3,4.1 c0,0.5-0.2,1-0.9,0.8c-0.7-0.1-0.3-0.6-0.2-0.9c0.3-1.4,0.3-2.7-0.1-4.1c-0.1-0.3-0.1-0.8-0.5-0.7c-0.4,0.1-0.2,0.5-0.2,0.8 c0.1,1.4-0.1,2.8-0.4,4.2c-0.1,0.5-0.2,1.1-0.9,1c-0.9-0.2-0.3-0.8-0.3-1.2c0.2-1.4,0.4-2.7,0-4.1c-0.1-0.3-0.2-0.7-0.6-0.7 c-0.4,0.1-0.3,0.5-0.3,0.8c0.1,1.5-0.2,3-0.3,4.6c0,0.6-0.3,1-0.9,0.9c-0.6-0.1-0.3-0.7-0.2-1c0.3-1.4,0.2-2.7-0.1-4.1 c-0.1-0.3-0.1-0.7-0.5-0.6c-0.5,0-0.3,0.5-0.3,0.7c-0.1,1.5-0.2,3-0.3,4.6c0,0.2,0,0.4-0.1,0.5c-0.1,0.4-0.4,0.6-0.7,0.5 c-0.5,0-0.3-0.4-0.3-0.7c0.1-1.5,0.2-2.9-0.1-4.3c-0.1-0.3,0-0.8-0.5-0.7c-0.4,0.1-0.2,0.5-0.2,0.8c0.1,1.6-0.1,3.3-0.3,4.9 c0,0.4-0.1,0.7-0.4,0.9c-0.2,0.1-0.5,0.3-0.7,0.1c-0.2-0.2-0.1-0.4,0-0.6c0.4-1.3,0.2-2.7,0.1-4c-0.1-0.5-0.1-1-0.5-1.4 c-0.6,0.6-0.4,1.3-0.3,1.9c0.2,1.4-0.1,2.7-0.3,4.1c-0.1,0.5-0.2,1-0.8,0.8c-0.5-0.1-0.2-0.6-0.2-0.9c0.1-1.2,0.1-2.5-0.1-3.7 c-0.1-0.5-0.1-1-0.6-1.3c-0.4,0.2-0.2,0.5-0.2,0.8c0.1,1.6,0,3.3,0,4.9c0,0.8-0.3,1.1-1.2,1.1c0.3-2.2,0.2-4.3-0.7-6.4 c-0.5,0.4-0.4,0.9-0.4,1.3c0.1,1.6,0.2,3.1,0,4.7c0,0.3-0.1,0.7-0.4,0.9c-0.2,0.2-0.5,0.3-0.8,0.2c-0.4-0.1-0.2-0.5-0.2-0.8 c0.2-1.3,0.2-2.5-0.2-3.8c-0.1-0.5-0.2-0.9-0.8-1.2c-0.3,0.4-0.2,0.9-0.1,1.3c0.1,1.4,0.2,2.8,0.1,4.2c-0.1,0.6-0.4,1-1,1 c-0.7,0-0.3-0.6-0.3-1c-0.1-1-0.1-2.1-0.2-3.1c0-0.4-0.1-0.9-0.5-1.2c-0.5,0.3-0.3,0.7-0.3,1.1c0.1,1.3,0,2.5-0.1,3.8 c0,0.5-0.2,0.8-0.7,0.8c-0.5-0.1-0.3-0.5-0.3-0.8c0-1,0.2-1.9-0.1-2.9c-0.1-0.4,0-1-0.5-0.9c-0.5,0.1-0.2,0.6-0.2,0.9 c0.1,1,0,2.1-0.1,3.1c0,0.5-0.1,1.1-0.8,1c-0.6-0.1-0.3-0.7-0.3-1c-0.1-1.1,0.1-2.3-0.5-3.5c-0.4,0.9-0.4,1.7-0.4,2.5 c0,0.7,0.1,1.3-0.1,2c-0.1,0.4-0.3,0.6-0.7,0.6c-0.4,0-0.4-0.4-0.4-0.7c-0.1-1.2-0.1-2.4-0.3-3.7c-0.5,0.4-0.5,0.9-0.5,1.3 c0,0.9-0.1,1.7-0.1,2.6c0,0.4-0.2,0.9-0.7,0.8c-0.6,0-0.4-0.5-0.4-0.9c-0.1-1-0.1-1.9-0.2-2.9c0-0.3,0-0.7-0.4-0.7 c-0.4,0-0.3,0.5-0.3,0.7c0,0.9,0,1.8,0,2.7c0,0.5,0.1,1.1-0.7,1.1c-0.7,0-0.5-0.6-0.5-1c0-1.1,0-2.2-0.3-3.3c0-0.1-0.2-0.2-0.3-0.4 c-0.6,0.7-0.3,1.5-0.4,2.2c-0.1,0.5-0.1,1-0.1,1.4c0,0.6,0,1.3-0.8,1.3c-0.9,0-0.6-0.8-0.5-1.3c0.1-1.2,0.1-2.3-0.4-3.4 c-0.1,0.8-0.2,1.7-0.4,2.5c-0.1,0.6-0.1,1.1-0.2,1.7c-0.1,0.3-0.1,0.6-0.5,0.6c-0.4-0.1-0.5-0.4-0.4-0.7c0.2-1.2,0.1-2.5-0.1-3.7 c0-0.2,0-0.4-0.4-0.7c-0.1,1-0.2,1.9-0.3,2.8c-0.1,0.6-0.1,1.1-0.2,1.7c-0.1,0.4-0.3,0.6-0.7,0.5c-0.4,0-0.4-0.4-0.4-0.7 c0-1.3,0-2.6-0.1-3.9c0-0.3,0-0.9-0.3-0.9c-0.5,0-0.3,0.5-0.4,0.9c-0.1,1.2-0.2,2.4-0.3,3.6c0,0.5-0.2,0.9-0.8,0.8 c-0.6-0.1-0.6-0.5-0.5-0.9c0.1-1.3,0.1-2.5-0.2-3.8c-0.1-0.4-0.1-0.8-0.6-1c-0.4,1.4-0.1,2.8-0.3,4.1c0,0.2,0,0.4,0,0.7 c0,0.3-0.1,0.7-0.6,0.7c-0.4,0-0.5-0.4-0.5-0.7c0.1-1.1,0-2.2-0.1-3.3c-0.1-0.7-0.2-1.4-0.6-2c-0.1,1.6-0.2,3.3-0.3,4.9 c0,0.4,0.1,0.9-0.6,0.9c-0.5,0-0.4-0.5-0.4-0.9c0-1.6-0.2-3.3-0.4-4.9c-0.1-0.5-0.2-1.1-0.5-1.5c-0.5,0.3-0.4,0.8-0.4,1.2 c0,1.5,0.1,2.9,0.1,4.4c0,0.3-0.1,0.7-0.1,1c-0.1,0.4-0.2,0.6-0.7,0.5c-0.4-0.1-0.5-0.4-0.5-0.7c0.1-1.2,0.2-2.4,0.1-3.6 c-0.1-1-0.2-1.9-0.4-2.9c-0.1-0.4-0.1-0.8-0.7-1c-0.2,0.5-0.1,0.9,0,1.4c0.5,2,0.3,3.9,0.1,5.9c-0.1,0.6-0.4,0.8-1,0.7 c-0.7-0.1-0.3-0.6-0.3-0.9C24.7,154,24.9,153.4,24.8,152.9"/><path class="st6" d="M28.7,120c-0.7-0.3-1.4-0.7-2.1-1c-2.1-1-4.1-0.5-5.9,0.6c-0.5,0.3-1,0.7-1.4,0.4c-0.5-0.2-0.2-0.9-0.2-1.3 c0.1-5,0.7-9.9,2.2-14.6c1.5-4.7,3.6-9.1,7.5-12.2c4.3-3.5,9.3-4.4,14.6-3.4c0.2,0,0.4,0.1,0.6,0.2c1.1,0.7,3.3,4.6,3.4,6 c-0.9-0.4-1.2-1.5-2.2-1.8c-0.2,0.5,0.3,0.7,0.5,1c1.4,2,2.8,4,3.4,6.5c0.1,0.4,0.6,1.1-0.1,1.2c-0.6,0.2-0.9-0.5-1.1-1 c-0.8-3.2-2.4-5.8-5.2-7.5c-0.2-0.1-0.4-0.2-0.7-0.4c0,0.6,0.4,0.8,0.6,1c1.7,1.8,3.3,3.8,4,6.2c0.1,0.3,0.5,0.6,0,0.9 c-0.3,0.2-0.7-0.1-0.9-0.4c-0.3-0.4-0.5-0.8-0.7-1.2c-1-2-2.4-3.7-4.2-5c-0.5-0.4-1-0.7-1.9-0.6c2,1.9,4.2,3.6,5.3,6.2 c-0.9,0.1-1.5-0.2-1.9-0.9c-1.3-2.3-3-4-5.7-4.7c-0.1,0-0.3,0-0.8,0c2.4,1.5,4.3,3,5.6,5.3c-0.8,0.3-1.2,0.2-1.7-0.5 c-1.5-1.8-3.4-3.2-6-3.7c0.4,0.6,0.8,0.8,1.2,1c1.1,0.7,2.2,1.4,3.1,2.4c0.3,0.3,0.9,0.7,0.5,1.1c-0.4,0.5-1.1,0.5-1.6-0.2 c-0.9-1.1-2.2-1.9-3.6-2.4c-0.5-0.2-1-0.3-1.5-0.3c0.9,0.7,2,1.2,2.8,1.9c0.4,0.3,0.7,0.6,1.1,1c0.2,0.3,0.8,0.5,0.4,1 c-0.4,0.4-0.8,0.3-1.2-0.1c-0.9-0.9-2-1.6-3.3-2.1c-0.5-0.2-1-0.4-1.8-0.2c0.8,0.5,1.6,0.9,2.3,1.3c0.6,0.4,1.2,0.8,1.7,1.4 c0.2,0.2,0.5,0.5,0.2,0.8c-0.3,0.3-0.6,0.2-0.9,0c-0.9-0.6-1.9-1.1-3-1.6c-0.6-0.2-1.2-0.4-2-0.4c1.4,0.8,2.6,1.5,3.8,2.3 c0.3,0.2,0.8,0.4,0.5,0.9c-0.3,0.5-0.7,0.2-1-0.1c-1.4-0.9-2.9-1.6-4.7-1.3c0.9,0.5,2,0.7,2.9,1.3c0.4,0.3,0.8,0.5,1.2,0.8 c0.3,0.2,0.5,0.5,0.3,0.9c-0.2,0.3-0.5,0.2-0.8,0.1c-0.9-0.3-1.8-0.5-2.7-0.7c-0.7-0.2-1.4-0.2-2.1,0.2c1,0.3,2,0.5,3,0.8 c0.6,0.2,1.7,0.2,1.5,1c-0.2,0.8-1.1,0.1-1.7,0c-1.2-0.2-2.5-0.7-3.8,0c0.9,0.5,1.8,0.4,2.6,0.7c0.6,0.2,1.1,0.3,1.7,0.5 c0.3,0.1,0.8,0.2,0.6,0.8c-0.2,0.5-0.5,0.4-0.9,0.3c-0.7-0.2-1.4-0.4-2.2-0.5c-0.9-0.2-1.8-0.1-2.9,0.4c1,0.4,1.9,0.2,2.7,0.4 c0.8,0.1,1.6,0.2,2.2,0.6c0.3,0.2,0.6,0.4,0.5,0.8c-0.2,0.4-0.5,0.3-0.9,0.2c-1.3-0.3-2.6-0.5-4-0.2c-0.3,0.1-0.6,0.2-0.8,0.5 c1.1,0.1,2.2,0.2,3.3,0.4c0.4,0.1,0.9,0.2,1.3,0.3c0.3,0.1,0.8,0.3,0.7,0.7c-0.1,0.5-0.6,0.5-1,0.4c-1.4-0.4-2.9-0.4-4.3,0.1 c-0.2,0.1-0.3,0.2-0.7,0.4c1.5,0.2,2.8,0.3,4.2,0.4c0.4,0,0.7,0.2,1.1,0.3c0.5,0.1,0.6,0.4,0.5,0.9c-0.1,0.5-0.4,0.5-0.8,0.4 c-1-0.2-2.1-0.3-3.1-0.2c-0.5,0-1,0.1-1.5,0.6c0.9,0.1,1.7,0.1,2.6,0.2c0.6,0.1,1.2,0.2,1.9,0.3c0.6,0.1,1.2,0.4,1,1.1 c-0.2,0.7-0.8,0.1-1.2,0.1c-1.7-0.3-3.4-0.4-5.1,0.5c1.3,0.1,2.5-0.1,3.8,0.2c0.4,0.1,0.7,0.2,1.1,0.3 C28.5,118,28.7,118.2,28.7,120"/><path class="st6" d="M82.6,206.8c3.7-3.7,7.2-7.3,11.6-10c4-2.4,8.3-4,13.1-3.3c4,0.6,7.8,1.7,11.1,4.1c2.1,1.5,3.6,3.5,3.2,6.2 c-0.7,4.8-4.1,8.9-9.6,9.4c-5.8,0.5-11.3-1-16.7-3c-3.5-1.3-7-2.5-10.7-3.2C84.1,206.9,83.3,207.1,82.6,206.8 M109.7,208.2 c1.2-0.1,2.4-0.4,3.5-0.9c3.3-1.4,3.8-4.6,1-6.9c-1.7-1.4-3.7-2.1-5.8-2.5c-4.8-0.9-9,0.7-12.9,3.4c-1.6,1.1-2.9,2.6-4.6,3.5 c-0.3,0.1-0.7,0.2-0.7,0.6c0.1,0.4,0.4,0.6,0.8,0.7c1,0.2,2,0.4,3.1,0.6C99.3,207.6,104.4,208,109.7,208.2"/><path class="st6" d="M56,182.8c-0.7-1.9-1.7-3.6-3.5-4.8c-0.6-0.5-1.2-0.8-2-0.8c-0.4,0-1,0-1.1-0.4c-0.2-0.5,0.4-0.7,0.8-0.9 c2.1-1.3,4.1-2.8,5.6-4.7c1.1-1.4,2.2-2.7,3.2-4.2c1.9-3,4.2-5.6,6.6-8.2c1.3-1.4,3.1-2.1,4.9-2.6c4.4-1.3,8.8-1.5,13.3-0.8 c2.8,0.4,4.3,2.5,5.8,4.5c0.3,0.4,0.5,0.8,0.8,1.2c0.7,1,0.8,2,0.7,3.3c-0.2,1.4,0.1,2.8-0.1,4.2c-0.5-0.3-0.4-0.7-0.4-1.1 c0-2.4-0.3-4.8-1.4-7.1c-0.2-0.5-0.4-1-1.3-1.2c1.1,2.8,1.3,5.5,1.4,8.4c-0.9-0.2-1.2-0.7-1.2-1.6c0-1.9-0.2-3.9-0.9-5.7 c-0.3-0.7-0.6-1.4-1.3-1.8c-0.4,0.2-0.2,0.4-0.1,0.6c0.9,2,0.9,4.1,1.1,6.2c0,0.3,0.2,0.8-0.2,0.8c-0.4,0-0.6-0.3-0.7-0.8 c-0.2-1.5-0.3-3-0.8-4.4c-0.4-1-0.7-2.2-1.8-2.8c0.7,2,1.2,4.1,1.3,6.2c0,0.3,0.2,0.8-0.3,0.8c-0.4,0-1,0-1-0.7c0-0.1,0-0.3,0-0.4 c-0.2-1.8-0.6-3.5-1.5-5.1c-0.1-0.2-0.3-0.4-0.4-0.7c-0.2-0.3-0.4-0.7-0.8-0.5c-0.4,0.2,0,0.6,0.1,0.9c0.8,1.6,1.1,3.3,1.5,5 c0.1,0.3,0.3,0.9-0.3,1c-0.7,0.1-0.7-0.3-0.7-0.8c-0.3-1.9-0.9-3.7-2-5.3c-0.3-0.4-0.5-0.8-1.1-1c-0.2,0.5,0.1,0.9,0.4,1.2 c0.9,1.5,1.2,3.3,1.6,5c0.1,0.3,0.3,0.8-0.4,0.9c-0.6,0.1-0.7-0.2-0.7-0.7c-0.2-2-1.2-3.6-2.4-5.1c-0.2-0.3-0.4-0.7-1-0.5 c1,1.5,1.6,3.2,2.1,4.9c0.1,0.3,0.2,0.6,0.2,0.9c0.1,0.4,0.1,0.8-0.5,0.8c-0.4,0-0.8,0.1-0.9-0.5c-0.3-1.5-1-2.9-1.9-4.1 c-0.2-0.2-0.4-0.5-0.6-0.7c-0.2-0.2-0.5-0.5-0.8-0.2c-0.3,0.2,0.1,0.5,0.2,0.7c0.9,1.2,1.4,2.6,1.8,3.9c0.1,0.4,0.4,1-0.3,1.2 c-0.6,0.2-0.7-0.4-0.8-0.8c-0.4-1.1-1-2.1-1.6-3c-0.3-0.4-0.6-0.9-1.4-1c0.6,1.3,1.2,2.5,1.7,3.7c0.2,0.6,1,1.4-0.1,1.8 c-1,0.3-0.7-0.8-1-1.3c-0.4-0.8-0.8-1.6-1.4-2.2c-0.2-0.2-0.4-0.7-0.8-0.3c-0.4,0.3,0,0.6,0.2,0.8c0.6,0.9,1.1,1.9,1.4,3 c0.1,0.2,0.1,0.5,0.1,0.8c0,0.4-0.2,0.6-0.5,0.6c-0.4,0.1-0.4-0.3-0.4-0.5c-0.4-1.4-1.2-2.6-2.2-3.5c-0.2-0.1-0.3-0.3-0.7-0.2 c-0.1,0.4,0.2,0.6,0.4,0.9c0.9,1.2,1.4,2.4,1.7,3.8c0.1,0.3,0.1,0.8-0.2,0.9c-0.5,0.1-0.4-0.4-0.5-0.7c-0.6-1.4-1.4-2.6-2.7-3.6 c-0.2,0.6,0.1,0.9,0.3,1.2c0.8,1.3,1.3,2.7,1.8,4.2c0.1,0.2,0.2,0.6-0.1,0.7c-0.4,0.1-0.4-0.2-0.5-0.5c-0.6-1.3-1.6-2.4-2.6-3.3 c0.6,1.3,1.2,2.7,1.7,4.1c0.1,0.3,0.2,0.6,0.3,0.9c0.1,0.4,0.2,1-0.2,1.2c-0.4,0.1-0.4-0.5-0.6-0.8c-0.6-1.3-1.5-2.4-2.9-3.4 c0.9,2.3,3,3.9,1.9,6.5c-0.6-1.8-1.7-3.2-3.3-4.3c0.9,1.5,1.5,3.2,2.1,4.8c0.1,0.3,0.2,0.6,0.2,0.9c0,0.3-0.2,0.5-0.5,0.6 c-0.3,0-0.3-0.3-0.4-0.5c-0.6-1.6-1.7-2.9-3-3.9c0.6,1.5,1.3,2.9,1.9,4.4c0.2,0.4,0.4,0.9,0.3,1.4c-0.1,0.4-0.3,0.6-0.7,0.7 c-0.3,0-0.3-0.4-0.4-0.6c-0.6-1.4-1.2-2.7-2.3-3.8c-0.4-0.4-0.7-0.7-1.5-0.9c1.3,1.7,2.1,3.4,2.9,5.2c0.3,0.6,0.6,1.3-0.3,1.9 c-1-2.1-2.1-4-3.7-5.7c-0.3,0.5,0,0.7,0.1,1c1,1.5,1.6,3.3,2.4,4.9c0,0.1,0.1,0.2,0.1,0.3c0,0.3,0.3,0.7-0.2,0.9 c-0.4,0.1-0.5-0.2-0.6-0.5c-0.7-1.1-1.3-2.3-2-3.4c-0.3-0.5-0.5-1.1-1.5-1.2c1.2,1.4,1.8,3,2.4,4.5c0.1,0.2,0.2,0.4,0.3,0.6 c0.1,0.5,0.4,1.3-0.3,1.5c-0.6,0.2-0.6-0.6-0.8-1C56.2,182.9,56.1,182.9,56,182.8"/><path class="st6" d="M18.4,85.8c0.1-0.6,0.1-1.3,0-1.9c0.1-0.4,0.1-0.7-0.1-1.1c0-0.2-0.1-0.4-0.1-0.7c0-0.2,0-0.5-0.2-0.6 c-0.4-1.3-1.6-2-2.7-2.6c-0.7-0.6-1.6-0.9-2.6-1.1c0.1-0.8,0.8-0.8,1.2-1.1c4-2.8,8.3-4.5,13.3-4.2c2.7,0.1,5.4,0.7,8,1.6 c0.8,0.3,1.3,0.9,1.9,1.6c1.6,2,3,4.1,4.2,6.3c0.6,1-0.2,4.3-1.1,4.9c-0.1,0.1-0.3,0.2-0.4,0c-0.2-0.2,0-0.3,0.1-0.5 c0.6-1.4,0.6-2.8,0.6-4.3c0-0.4,0-0.8-0.4-1.3c-0.2,1.3-0.4,2.5-0.7,3.6c-0.1,0.7-0.3,1.4-0.6,2c-0.1,0.3-0.4,0.6-0.7,0.5 c-0.4-0.1-0.2-0.5-0.1-0.8c0.5-1.7,0.8-3.4,0.6-5.2c-0.1-0.7-0.2-1.3-0.9-2.1c0,1.2,0.1,2.2,0.1,3.2c0,1.2-0.1,2.4-0.6,3.5 c-0.2,0.4-0.4,0.9-0.9,0.7c-0.4-0.2-0.2-0.6-0.1-1c0.5-1.8,0.8-3.5,0.2-5.3c-0.3-0.8-0.5-1.5-1.2-2.2c-0.3,0.3-0.1,0.6,0,0.9 c0.6,2.1,0.5,4.2-0.5,6.2c-0.1,0.2-0.2,0.8-0.7,0.6c-0.4-0.2-0.3-0.6-0.2-0.9c0.4-2,0.4-4.1-0.4-6c-0.2-0.4-0.3-0.8-0.8-1.2 c0.1,1,0.3,1.9,0.4,2.7c0.2,1.2,0.1,2.4-0.1,3.6c-0.1,0.4-0.1,1-0.9,0.8c-0.7-0.2-0.5-0.6-0.4-1.1c0.3-1.7,0.2-3.3-0.3-5 c-0.2-0.6-0.5-1.1-1-1.7c-0.2,1,0.1,1.7,0.2,2.5c0.2,1.2,0.2,2.4,0,3.6c-0.1,0.4-0.1,1-0.8,0.9c-0.6-0.1-0.6-0.5-0.6-1 c0.2-1.7,0.2-3.4-0.8-5c-0.2-0.4-0.4-0.7-1-0.9c0.2,1.1,0.5,2.2,0.7,3.2c0.2,0.9,0.2,1.8,0,2.7C28,82.6,28,83,27.6,83 c-0.4,0-0.4-0.4-0.4-0.8c0-1.3-0.1-2.6-0.6-3.9c-0.3-0.7-0.6-1.4-1.5-1.9c0.5,1.6,1,3,1,4.5c0,0.5,0,1-0.1,1.6 c0,0.4-0.3,0.7-0.7,0.6c-0.4,0-0.5-0.3-0.5-0.7c0-1.1-0.2-2.2-0.5-3.3c-0.1-0.3-0.2-0.6-0.3-0.8c-0.3-0.6-0.7-1.4-1.3-1.2 c-0.6,0.2,0.1,0.9,0.2,1.4c0.5,1.5,0.9,3.1,0.3,4.7c-0.5-0.1-0.5-0.5-0.5-0.8c-0.2-1.2-0.5-2.3-0.9-3.5c-0.2-0.6-0.5-1.2-1.3-1.4 c0.3,1.4,0.7,2.8,1,4.1c0.2,0.7,0.2,1.3,0.1,2c-0.1,0.3-0.1,0.7-0.5,0.6C21,84.3,21,84,21,83.7c-0.3-1.5-0.7-2.9-1.3-4.2 c-0.2-0.4-0.3-0.8-0.8-0.9c-0.2,0.6,0,1,0.2,1.4c0.6,1.2,0.7,2.5,0.8,3.8c0.1,1.2-0.2,2.3-1.3,3c-0.3-0.1-0.1-0.4-0.2-0.6 C18.5,86,18.5,85.9,18.4,85.8"/><path class="st6" d="M102.9,46.6c5.2-1.5,10.7-1.8,16-3.1c1.2-0.3,2.5-0.7,3.8-1.1c-1.3,2.2-2.5,4.4-3,6.8c-0.4,1.7-0.6,3.3-0.1,5 c0.1,0.2,0.4,0.6-0.1,0.7c-0.5,0.1-0.6-0.3-0.6-0.7c0-1.5-0.2-3-0.1-4.5c0.1-0.8,0.1-1.6,0.2-2.4c-0.7,0.1-0.8,0.6-0.9,1 c-0.6,2-1.5,3.9-1.1,6.1c0.1,0.6-0.3,0.7-0.7,0.8c-0.5,0.1-0.6-0.3-0.6-0.8c0-1.9,0.2-3.8,0.6-5.7c0.1-0.3,0.3-0.7,0.1-1.1 c-0.3,0-0.4,0.2-0.5,0.4c-0.8,2.1-1.7,4.2-1.4,6.6c0.1,0.8-0.5,0.6-0.9,0.7c-0.6,0.1-0.8-0.2-0.7-0.7c0.1-1.8,0.5-3.6,0.8-5.4 c0.1-0.4,0.2-0.8-0.1-1.4c-0.9,1.7-1.6,3.4-1.8,5.2c-0.1,0.6-0.1,1.2-0.1,1.8c0,0.3,0.1,0.8-0.3,0.8c-0.5,0-0.4-0.5-0.4-0.9 c0-1.5,0.1-2.9,0.4-4.3c0-0.2,0.2-0.4,0-0.7c-0.6,0.1-0.6,0.6-0.7,1c-0.6,1.4-0.8,2.9-0.9,4.5c0,0.5-0.1,0.7-0.6,0.7 c-0.5,0-0.5-0.3-0.5-0.7c0.1-1.2,0.1-2.4,0.2-3.6c0-0.4,0.2-0.9,0-1.4c-0.7,0.6-0.8,1.4-0.9,2.1c-0.2,1-0.3,2.1-0.4,3.1 c-0.1,0.4-0.1,0.9-0.6,0.9c-0.7,0-0.4-0.6-0.4-0.9c0.1-1.7,0.2-3.5,0.5-5.2c-0.8,0.2-0.8,0.8-0.9,1.2c-0.5,1.5-0.8,3.1-0.7,4.7 c0,0.5,0,0.8-0.6,0.8c-0.7,0-0.5-0.5-0.5-0.9c0.1-1.6,0.3-3.2,0.4-4.8c0-0.3,0.2-0.8-0.2-0.9c-0.4-0.1-0.4,0.5-0.5,0.8 c-0.4,1.7-0.9,3.5-0.8,5.3c0,0.5-0.1,1-0.7,0.9c-0.5,0-0.4-0.5-0.4-0.9c0-1.5,0.1-3.1,0.4-4.6c0.1-0.4,0.3-0.8,0.1-1.4 c-0.7,0.5-0.9,1.4-1.1,2.1c-0.5,1.5-0.8,3.1-0.7,4.7c0,0.6-0.1,1-0.7,1c-0.8,0-0.4-0.7-0.4-1c0.1-1.8,0.3-3.5,0.4-5.4 c-0.8,1.2-1.1,2.5-1.3,3.9c-0.1,0.8-0.2,1.7-0.1,2.6c0,0.3,0.1,0.6-0.2,0.8c-0.2,0.2-0.5,0.5-0.7,0.4c-0.4-0.1-0.2-0.5-0.2-0.7 c0-1.6,0.2-3.1,0.3-4.7c0-0.2,0.2-0.6-0.2-0.6c-0.4-0.1-0.4,0.3-0.4,0.5c-0.6,1.8-0.8,3.6-0.9,5.5c0,0.1,0,0.3,0,0.4 c0,0.6-0.5,0.8-0.9,0.8c-0.5,0-0.3-0.5-0.3-0.8c0-1.5,0-2.9,0-4.4c0-0.4,0.1-0.7-0.2-1.2c-0.6,0.6-0.7,1.4-0.7,2.1 c-0.1,1.4-0.3,2.9,0.1,4.3c0.2,0.8-0.4,1.1-0.9,1.3c-0.5,0.2-0.4-0.3-0.4-0.5c-0.1-1.6-0.1-3.2-0.2-4.8c0-0.4-0.1-0.8-0.2-1.2 c-0.6,1.1-0.7,2.4-0.8,3.6c0,1,0.1,2,0.1,3c0,0.3,0.2,0.7-0.1,1c-0.2,0.2-0.4,0.4-0.6,0.4c-0.3,0-0.3-0.4-0.3-0.6 c-0.1-1.7-0.1-3.4-0.3-5.1c-0.7,0.6-0.6,1.4-0.7,2.1c-0.1,1.1-0.2,2.2,0,3.2c0.1,0.3,0.1,0.7,0.1,1c0,0.7-0.6,1.1-1.2,1.2 c-0.7,0.1-0.5-0.7-0.5-1c-0.2-1.8-0.3-3.6-0.5-5.3c0-0.3,0.1-0.6-0.3-0.9c-0.7,0.8-0.4,1.8-0.5,2.6c-0.1,1.8-0.2,3.6,0.5,5.3 c0.3,0.6-0.3,0.7-0.7,1c-0.5-2.2-0.7-4.3-0.8-6.4c-0.4-0.1-0.6,0.1-0.6,0.4c-0.3,2.1-0.7,4.2,0.2,6.3c0,0.1,0,0.1,0.1,0.2 c0.3,0.5,0,0.9-0.4,1c-0.4,0.1-0.5-0.4-0.5-0.7c-0.5-1.8-0.9-3.5-1.1-5.4c-0.6,0.1-0.6,0.5-0.6,0.9c0,1.8-0.1,3.5,0.8,5.1 c0.5,1,0.1,1.6-0.5,2.2c-0.1,0-0.1,0-0.2,0c-0.9-2-1.1-4.3-1.6-6.4c-0.4,0.2-0.4,0.4-0.4,0.5c0.1,2,0,4.1,0.9,6 c0.2,0.4,0.5,0.9,0.1,1.3c-0.3,0.1-0.5,0.5-0.9,0.4c-0.8-1.9-1.2-3.9-1.7-5.9c-0.4,0.3-0.4,0.6-0.4,0.9c-0.3,2.3,0.4,4.3,1.5,6.3 c-0.5,0.4-0.4,1.2-1.1,1.4c-0.9-1.9-1.5-3.8-1.7-6c-0.5,0.5-0.4,1-0.5,1.4c-0.2,2.3,0.5,4.3,1.6,6.2c-0.3,0.3-0.3,0.8-0.8,0.9 c-1.2-1.7-1.7-3.8-2.6-5.6c0.1,2.2,0.2,4.4,1.7,6.2c0.1,0,0.1,0.1,0.2,0.1c0.1,0.1,0.2,0.1,0.2,0.2c0,0.1,0.1,0.2,0.1,0.2 c-0.1,0.2-0.2,0.4-0.3,0.7c-0.1,0.1-0.3,0.2-0.4,0.2c-1.6-1.9-2.1-4.3-3.2-6.5c0.2,2.9,1.1,5.5,2.8,7.9l0,0 c-0.1,0.1-0.1,0.3-0.2,0.4c-0.1,0.1-0.3,0.3-0.5,0.3c-1.2-1.5-2.2-3.1-2.8-5c-0.1,1.8,0.7,3.3,1.4,4.8c0.3,0.7,1,1.3,0.9,2.2 c-0.1,0.2-0.2,0.5-0.5,0.5c-0.3-0.5-0.7-1-1-1.5c-0.2-0.4-0.4-0.9-0.7-1.2c-1-1.3-1-2.8-1.1-4.3c0-0.1,0-0.1,0-0.2 c0-0.2,0-0.5,0-0.7c0-0.1,0-0.1,0-0.2c0-0.4,0-0.8-0.1-1.2c0.1-0.8,0.1-1.6-0.2-2.4c0-0.8-0.1-1.5-0.2-2.3c-0.2-1,0.4-1.8,1-2.6 c6.3-8.7,14.4-15.1,24.3-19.3c0.1,0,0.1-0.1,0.2-0.1c0.1,0,0.3-0.1,0.5-0.1c0.1,0,0.2-0.1,0.2-0.1l0,0c0.6-0.1,1.2-0.2,1.8-0.6 c0.6-0.2,1.2-0.4,1.8-0.5c0.6-0.1,1.1-0.2,1.6-0.5C102.6,46.7,102.8,46.7,102.9,46.6"/><path class="st6" d="M80.2,100.8c-1.1-1.8-2.4-3.5-3-5.6c-0.1-0.4-0.2-0.9-0.4-1.6c-0.4,0.9-0.3,1.5-0.1,2.1 c0.6,2.3,1.5,4.4,2.9,6.3c0.4,0.6,0.5,1.1,0.1,1.9c-1.9-2.6-3.4-5.1-3.9-8.5c-0.7,1.2-0.5,2.1-0.2,2.9c0.9,2.3,1.8,4.7,3.6,6.5 c0.6,0.6,0.2,1.2,0.2,1.9c-0.7-0.3-0.9-1.1-1.6-1.4c-1.2-1-1.7-2.4-2.1-3.9c-0.5-1.7-0.8-3.4-1.4-5.1c-0.4-1.3-0.1-2.5,0.4-3.6 c3.3-7.4,8.7-12.8,15.9-16.4c1-0.5,2-1,3-1.4c0.2,0,0.3-0.1,0.4-0.2c0.2,0,0.3-0.1,0.5-0.1c0.1,0,0.1-0.1,0.2-0.1 c0.5-0.1,1-0.3,1.6-0.4c0.1,0,0.1-0.1,0.2-0.1c0.9-0.2,1.8-0.4,2.7-0.6c0.3,0,0.6,0,0.9-0.2c0.1,0,0.3,0,0.4-0.1 c0.4,0,0.8,0.1,1.1-0.2c0.4,0,0.9-0.1,1.3-0.1c0.4,0,0.8,0,1.2-0.2c0.6,0,1.2-0.1,1.8-0.1c1.9-0.1,3.8,0,5.6-0.4 c0.9-0.1,1.8-0.1,2.7-0.2c0.3,0,0.6,0,0.9-0.2c0.1,0,0.3,0,0.4,0c0.5,0,1.1,0.1,1.6-0.3c0.2,0,0.4-0.1,0.7-0.1 c0.1,0,0.2-0.1,0.3-0.1c0.3,0,0.6-0.1,0.8-0.3c0.8-0.1,0.6,0.4,0.4,0.8c-0.7,1.5-1.1,3-1.3,4.6c-0.3,2.9,0.3,5.5,2.5,7.6 c-0.4,0.4-0.8,0.1-1.1,0.2c-0.5-0.2-0.8-0.6-1.1-0.9c-0.8-2-0.9-4.2-1.2-6.4c-0.5,0.2-0.5,0.6-0.5,0.9c-0.1,1.7-0.3,3.3,0.1,5 c0.1,0.3,0.5,0.7-0.1,0.9c-0.2-0.2-0.4-0.3-0.5-0.5c-0.5-2.1-0.8-4.2-1-6.5c-0.5,0.5-0.5,0.9-0.5,1.4c-0.2,1.8,0.3,3.6,0.2,5.4 c-0.3,0-0.5,0-0.7-0.2c-0.8-1.8-0.2-3.7-0.9-5.5c-0.6,1-0.4,2.1-0.5,3.2c0,0.8,0.3,1.6-0.2,2.4c-0.2-0.1-0.4-0.1-0.7-0.2 c-0.5-1.7-0.4-3.6-0.8-5.3c-0.8,1.7-0.5,3.6-0.7,5.4c-0.3,0-0.6,0-0.9,0c-0.6-1.9-0.3-3.9-0.6-5.9c-0.6,0.5-0.6,1.2-0.7,1.7 c-0.3,1.4,0,2.9-0.6,4.2l-0.1,0l-0.1,0c-0.6-1.8-0.3-3.7-0.6-5.6c-0.5,0.3-0.5,0.7-0.6,1.1c-0.2,1.1-0.1,2.2-0.1,3.3 c0,0.4,0.2,1-0.6,1.1c-0.8,0-0.6-0.6-0.6-1c-0.1-1.5-0.1-3-0.2-4.6c-0.7,0.2-0.7,0.6-0.8,1c-0.2,1.3-0.2,2.7-0.3,4 c0,0.4,0.2,0.9-0.4,1c-0.1,0-0.2,0-0.2-0.1c-0.7-1.7-0.5-3.5-0.7-5.3c-0.6,0.2-0.6,0.6-0.7,1c-0.1,1,0,2,0,3c0,0.5,0.2,1.1-0.2,1.6 c-0.2-0.1-0.4-0.2-0.6-0.3c-0.4-1.5-0.6-3-0.7-4.5c0-0.2,0.1-0.6-0.2-0.7c-0.4-0.1-0.4,0.4-0.4,0.6c-0.2,1.3-0.1,2.6,0,3.9 c0,0.5,0.1,1.1-0.7,1.1c-0.1,0-0.1-0.1-0.2-0.1c-0.2-1.6-0.4-3.2-0.7-4.8c0-0.2,0.1-0.6-0.2-0.6c-0.3,0-0.4,0.3-0.4,0.6 c-0.3,1.5-0.2,3,0,4.5c0.1,0.7,0,1-0.7,1c0-0.1-0.1-0.1-0.2-0.1c-0.5-1.8-0.6-3.7-0.8-5.7c-0.5,0.3-0.5,0.6-0.6,0.9 c-0.2,1.6-0.3,3.1,0.1,4.7c0.1,0.5,0.2,0.9-0.4,1.2l-0.1,0l-0.1,0c-1-1.9-1.2-3.9-1.5-6.1c-0.6,0.4-0.6,1-0.5,1.5 c0,1.5,0.2,3,0.5,4.4c0.1,0.4,0.2,0.7-0.1,1c-0.1,0-0.3,0-0.4,0c-1.2-1.8-1.3-3.9-1.8-5.9c-0.5,0.4-0.4,0.8-0.4,1.1 c0,1.5,0.3,3.1,0.9,4.5c0.3,0.8,0.1,1.2-0.5,1.5l-0.1,0l-0.1,0c-1-1.1-1.2-2.6-1.7-3.9c-0.2-0.5-0.2-1.1-0.8-1.5 c-0.3,0.4-0.1,0.8-0.1,1.1c0.3,1.5,0.7,2.9,1.3,4.3c0.2,0.4,0.3,0.7-0.1,1c-0.5,0.3-0.7,0-0.9-0.3c-0.6-0.7-0.9-1.5-1.3-2.3 c-0.5-0.9-0.7-2-1.1-3.2c-0.4,0.9-0.3,1.5-0.1,2.1c0.5,1.5,1,2.9,1.7,4.2c0.3,0.5,0.4,0.9-0.4,1.1c0-0.1-0.1-0.1-0.1-0.1 c-1.3-1.7-2.2-3.6-2.9-5.6c-0.1,0.7-0.1,1.3,0.1,2c0.4,1.4,0.9,2.8,1.6,4c0.2,0.4,0.6,0.9,0.1,1.3c-0.7,0.4-0.7-0.4-0.9-0.8 c-0.9-1.3-1.4-2.8-1.9-4.4c-0.1-0.2-0.1-0.5-0.5-0.5c-0.3,1.1,0.1,2.2,0.5,3.2c0.5,1.1,1,2.2,1.6,3.3c0.2,0.5,0.1,1-0.2,1.2 c-0.5,0.3-0.6-0.3-0.8-0.5c-0.8-1.5-1.7-2.9-2.1-4.6c-0.1-0.3-0.1-0.8-0.6-1c-0.1,0.5-0.1,0.9-0.1,1.3c0.2,2,1.1,3.7,2.2,5.3 c0.4,0.7,0.4,1.1,0,1.7c-0.1,0-0.2,0-0.2,0c-1.5-1.8-2.5-3.9-3.2-6.1c-0.3,0.6-0.2,1.2,0,1.8c0.5,1.7,1.3,3.2,2.2,4.7 c0.2,0.4,0.6,0.7,0.5,1.2c-0.1,0.4-0.1,0.8-0.5,1c-0.4,0.2-0.6-0.3-0.8-0.6c-1-1.6-2-3.2-2.5-5.1c-0.1-0.3-0.1-0.7-0.5-0.8 c-0.2,0.3-0.1,0.6-0.1,0.8c0.5,2.3,1.3,4.5,2.7,6.4c0.5,0.6,0.6,1.2,0.3,1.8C80.6,100.9,80.4,100.9,80.2,100.8"/><path class="st6" d="M90,134.1c-0.2-0.6-0.3-1.1,0-1.7c2.3-6.2,6.3-11.1,11.7-14.9c3.3-2.4,6.4-5,8.8-8.4c0.7-1,1.1-2.1,1.7-3.3 c0.4,1.7,0.6,3.3,1.2,4.8c0.8,1.8,1.6,3.6,3.4,4.8c0.3,0.2,0.5,0.4,0.3,0.7c-0.2,0.3-0.5,0.2-0.8,0c-1.3-0.7-2.3-1.8-3.4-2.8 c-0.3-0.3-0.4-0.7-1-0.7c0.4,1.4,1.4,2.4,2.3,3.4c0.5,0.5,1,1,1.6,1.4c0.4,0.3,0.4,0.7,0.1,1.1c-0.3,0.5-0.6,0.2-0.9,0 c-1.2-0.9-2.5-1.8-3.4-3c-0.3-0.4-0.5-0.8-1.2-0.8c0.5,1.4,1.5,2.4,2.3,3.5c0.5,0.6,1,1.1,1.5,1.6c0.4,0.4,0.5,0.7,0.1,1.1 c-0.4,0.4-0.7,0.4-1.1,0.1c-1.4-1.1-2.8-2.3-3.7-3.8c-0.1-0.2-0.2-0.3-0.5-0.3c-0.1,0.7,0.2,1.2,0.6,1.8c0.7,1.2,1.6,2.1,2.5,3.1 c0.2,0.2,0.9,0.4,0.4,0.9c-0.4,0.5-0.8,0.3-1.2-0.1c-1.4-1.2-2.8-2.4-3.9-3.9c0,0.9,0.2,1.5,0.9,2.4c0.6,0.8,1.3,1.6,2,2.4 c0.2,0.3,0.7,0.5,0.2,0.9c-0.4,0.3-0.7,0.7-1.2,0.2c-1.1-1-2.3-2-3.1-3.4c-0.2-0.4-0.4-0.8-1-0.9c-0.1,0.9,0.3,1.5,0.8,2.1 c0.7,0.9,1.4,1.7,2.2,2.5c0.2,0.3,0.8,0.5,0.3,1c-0.4,0.4-0.9,0.5-1.3,0c-1-1.1-2.2-2.1-3-3.4c-0.2-0.3-0.4-0.6-0.8-1.1 c-0.2,0.9,0.1,1.4,0.4,1.9c0.7,1.2,1.4,2.3,2.3,3.3c0.3,0.4,0.6,0.7,0.1,1.1c-0.4,0.4-0.7,0-1-0.2c-1.5-1.4-2.9-2.8-3.8-4.9 c-0.5,0.8-0.1,1.4,0.2,1.9c0.7,1.4,1.6,2.7,2.7,3.8c0.3,0.4,0.7,0.7,0.2,1.2c-0.5,0.6-0.9,0.1-1.2-0.2c-1.1-1.1-2.2-2.2-3-3.6 c-0.2-0.4-0.4-1-1-1.2c-0.3,0.6,0.1,1.2,0.3,1.6c0.7,1.5,1.6,2.9,2.8,4c0.6,0.5,0.6,1,0,1.5c-0.6,0.5-0.8-0.2-1.1-0.5 c-1.2-1.3-2.3-2.7-3.3-4.5c-0.1,1.3,0.4,2,0.8,2.7c0.7,1.1,1.4,2.2,2.3,3.1c0.3,0.3,0.5,0.5,0.3,1c-0.3,0.6-0.6,0.9-1.1,0.2 c-0.9-1.2-1.8-2.3-2.6-3.5c-0.2-0.4-0.4-0.9-0.9-1.2c-0.3,0.5-0.1,0.9,0.1,1.3c0.7,1.6,1.8,3,2.9,4.3c0.2,0.2,0.3,0.4,0.5,0.6 c0.4,0.4,0.1,0.7-0.2,1c-0.3,0.4-0.5,0-0.7-0.2c-1.4-1.4-2.7-2.9-3.5-4.8c-0.2,0.8-0.3,0.8,0,1.5c0.7,1.6,1.8,2.9,2.8,4.3 c0.2,0.2,0.4,0.5,0.6,0.7c0.4,0.4,0.2,0.8-0.1,1.1c-0.3,0.3-0.5-0.1-0.7-0.3c-1.6-1.4-3.2-2.9-3.9-5.1c-0.3,0.8-0.2,1.6,0.4,2.7 c0.8,1.3,1.7,2.6,2.9,3.6c0.3,0.3,0.6,0.6,0.5,1c-0.1,0.3-0.1,0.7-0.3,0.8c-0.3,0.2-0.5-0.2-0.7-0.4c-1.6-1.6-3.2-3.2-3.8-5.6 c-0.3,0.9-0.3,1.1,0.2,2.1c0.9,1.8,2.1,3.4,3.4,4.9c0.5,0.6,0.7,1.2,0,1.7c-2.4-3.1-4.8-6.3-6.7-9.8 C90.2,134.4,90.2,134.2,90,134.1L90,134.1z"/><path class="st6" d="M120,144.6c-0.5-0.2-1-0.5-1.6-0.7c-1.4-1.2-2.8-2.2-4-3.9c-0.1,0.9,0.2,1.4,0.6,2c0.9,1.3,1.9,2.5,3.2,3.4 c0.4,0.3,0.7,0.6,0.2,1c-0.5-0.2-1-0.4-1.5-0.6c-1.7-1.1-2.9-2.7-4.4-4.2c-0.2,0.8,0.2,1.2,0.4,1.6c1,1.5,2.2,2.8,3.7,3.9 c0.4,0.3,0.7,0.5,0.3,1c-0.3,0.2-0.5,0.3-0.8,0.5c-1.9-1.4-3.7-3-5.1-5c-0.1,0.3,0,0.4,0,0.6c0.8,2,2.2,3.4,3.8,4.7 c0.5,0.4,0.9,0.8,0.4,1.5l0,0c-0.1,0.1-0.1,0.2-0.2,0.2l0,0c-0.3,0-0.5,0-0.7-0.2c-1.5-1.2-3.1-2.5-4.1-4.2 c-0.1-0.2-0.2-0.6-0.7-0.5c-0.1,0.6,0.2,1.1,0.5,1.6c1,1.4,2.2,2.7,3.5,3.9c0.5,0.5,0.7,0.9,0.4,1.5l0,0c-0.1,0.1-0.1,0.2-0.2,0.2 c-0.1,0.1-0.2,0.1-0.2,0.2c-2.1-1.4-3.8-3.3-5.5-5.6c0,0.4,0,0.6,0,0.7c0.1,0.2,0.2,0.5,0.3,0.7c1,1.8,2.2,3.5,4,4.6 c0.6,0.4,0.7,0.8,0.3,1.4c-0.2-0.1-0.4-0.1-0.6-0.2c-1.8-1.5-3.6-3-4.8-5.3c-0.3,0.7,0,1.1,0.2,1.4c1.1,1.8,2.3,3.4,3.8,4.9 c0.4,0.4,0.8,0.8,0.7,1.4c-0.2,0.2-0.3,0.3-0.5,0.5c-2.1-1.7-3.5-4.1-5.4-6.3c-0.1,0.8,0.2,1.3,0.5,1.8c1.1,1.9,2.5,3.7,4,5.3 c0.3,0.3,0.6,0.6,0.5,1c-0.2,0.2-0.2,0.6-0.5,0.7c-1.7-2-3.6-4-5.2-6.2c0.9,2.9,2.5,5.3,4.7,7.3l0,0c0.2,0.2,0.3,0.4,0.5,0.7 c0,0.2,0,0.4,0,0.6c-0.1,0.1-0.1,0.2-0.2,0.3c-3-2.5-5.1-5.6-7.1-8.9c-1.2-2-0.9-3.6,0.3-5.5c2.5-3.9,5.8-7.2,9-10.5 c1.3-1.3,2.4-2.7,3.6-4.2c0.5,1.1,0.8,2,1.2,3l0.2,0.4c0,0.1,0.1,0.2,0.1,0.2c0,0.1,0.1,0.1,0.1,0.2c0.1,0.2,0.2,0.4,0.4,0.7 c0,0.1,0.1,0.1,0.1,0.2c0,0.1,0.1,0.2,0.1,0.2c0,0.1,0.1,0.1,0.1,0.2c0.1,0.4,0.3,0.6,0.5,0.9c0.8,1.1,1.9,1.7,3.2,2.1l0,0 c0.1,0.1,0.2,0.1,0.2,0.2l0,0c0,0.1,0,0.1,0.1,0.2c-0.2,0.2-0.3,0.4-0.5,0.5c-0.4,0-0.8,0-1.2-0.2c-1.5-0.9-2.9-1.9-4-3.3 c-0.3-0.3-0.5-0.8-1.3-0.9c0.9,2.2,2.4,3.7,4.3,4.9c0.3,0.2,0.9,0.2,0.8,0.6C120.9,144.5,120.5,144.6,120,144.6"/><path class="st6" d="M105.8,198.8c2-0.1,3.9,0.2,5.8,0.9c1.1,0.4,1.9,1.1,2.6,1.9c0.9,1.1,0.7,2.6-0.4,3.6c-1.1,1-2.5,1.5-4,1.6 c-4.7,0.2-9.4-0.3-14-1.1c-0.5-0.1-1.1-0.2-1.6-0.3c-0.3-0.1-0.7,0.2-0.8-0.2c-0.1-0.3,0.2-0.5,0.4-0.7 C97.1,201.1,101,199.1,105.8,198.8 M97.2,204.3c0.9,0.1,1.8,0.1,2.6,0.2c2.8,0.4,5.6,1,8.4,0.6c0.8-0.1,1.5-0.3,2.2-0.7 c1.2-0.8,1.2-2.1-0.1-2.9c-1.2-0.7-2.5-0.8-3.8-0.6C103.3,201.4,100.2,202.7,97.2,204.3"/><path class="st0" d="M47,176.6c1.2-1.2,2.7-1.9,4-3c2.8-2.3,5.2-5,7.4-8c1.9-2.7,3.6-5.5,6.2-7.6c4.1-3.3,8.9-4.4,14-4.3 c0.6,0,1.3,0.2,1.4-0.5c0.1-0.7-0.2-1.5-1-1.6c-1.1-0.2-2.3-0.4-3.4-0.6c-6.3-0.8-12,0.7-17.5,3.6c-3.5,1.8-7.2,2.6-11.1,3.1 c-6.6,0.8-13.1,0.4-19.7-0.7c-1.7-0.3-3.5-0.2-5.2-0.1c-0.4,0-0.9,0.1-1.3-0.2c1.8-0.5,3-1.5,3.4-3.3c0.1-0.4,0.3-0.6,0.7-0.6 c0.1,0.6-0.1,1.1-0.2,1.7c0,0.3-0.4,0.8,0.3,0.9c0.6,0.1,0.9-0.2,1-0.7c0.2-2,0.4-3.9-0.1-5.9c-0.1-0.4-0.2-0.9,0-1.4 c0.6,0.1,0.7,0.6,0.7,1c0.2,0.9,0.3,1.9,0.4,2.9c0.1,1.2,0.1,2.4-0.1,3.6c0,0.4,0,0.7,0.5,0.7c0.4,0.1,0.6-0.2,0.7-0.5 c0.1-0.3,0.1-0.7,0.1-1c0-1.5-0.1-2.9-0.1-4.4c0-0.4-0.2-0.8,0.4-1.1c0.4,0.4,0.5,1,0.5,1.5c0.2,1.6,0.4,3.2,0.4,4.9 c0,0.3-0.1,0.8,0.4,0.9c0.6,0.1,0.5-0.5,0.6-0.9c0.1-1.6,0.2-3.3,0.3-4.9c0.4,0.6,0.6,1.3,0.6,2c0.1,1.1,0.2,2.2,0.1,3.3 c0,0.4,0.1,0.7,0.5,0.7c0.5,0,0.5-0.3,0.6-0.7c0-0.2,0-0.5,0-0.7c0.3-1.3,0-2.7,0.3-4.1c0.6,0.2,0.6,0.6,0.6,1 c0.2,1.3,0.3,2.5,0.2,3.8c0,0.4,0,0.9,0.5,0.9c0.6,0.1,0.8-0.3,0.8-0.8c0.1-1.2,0.2-2.4,0.3-3.6c0-0.3-0.1-0.9,0.4-0.9 c0.4,0,0.3,0.5,0.3,0.9c0,1.3,0,2.6,0.1,3.9c0,0.3,0,0.6,0.4,0.7c0.4,0,0.7-0.1,0.7-0.5c0.1-0.5,0.1-1.1,0.2-1.7 c0.1-0.9,0.2-1.8,0.3-2.8c0.4,0.2,0.3,0.5,0.4,0.7c0.2,1.2,0.3,2.4,0.1,3.7c-0.1,0.4,0,0.7,0.4,0.7c0.4,0.1,0.5-0.3,0.5-0.6 c0.1-0.5,0.2-1.1,0.2-1.7c0.1-0.8,0.2-1.7,0.4-2.5c0.5,1.2,0.5,2.3,0.4,3.4c0,0.5-0.3,1.3,0.5,1.3c0.7,0,0.8-0.7,0.8-1.3 c0-0.5,0-1,0.1-1.4c0.1-0.7-0.2-1.5,0.4-2.2c0.1,0.2,0.3,0.2,0.3,0.4c0.4,1.1,0.3,2.2,0.3,3.3c0,0.4-0.2,1,0.5,1 c0.7,0,0.7-0.6,0.7-1.1c0-0.9,0-1.8,0-2.7c0-0.3,0-0.7,0.3-0.7c0.4,0,0.4,0.4,0.4,0.7c0.1,1,0.1,1.9,0.2,2.9c0,0.3-0.2,0.9,0.4,0.9 c0.5,0,0.7-0.4,0.7-0.8c0.1-0.9,0.1-1.7,0.1-2.6c0-0.5,0-1,0.5-1.3c0.2,1.2,0.3,2.4,0.3,3.7c0,0.3,0,0.7,0.4,0.7 c0.4,0,0.6-0.2,0.7-0.6c0.2-0.7,0.1-1.3,0.1-2c0-0.8-0.1-1.6,0.4-2.5c0.6,1.2,0.5,2.4,0.5,3.5c0,0.4-0.3,0.9,0.3,1 c0.6,0.1,0.7-0.6,0.8-1c0.1-1,0.2-2.1,0.1-3.1c0-0.3-0.3-0.9,0.2-0.9c0.5-0.1,0.4,0.6,0.5,0.9c0.3,1,0.1,1.9,0.1,2.9 c0,0.3-0.3,0.8,0.3,0.8c0.5,0.1,0.7-0.3,0.7-0.8c0.1-1.3,0.2-2.5,0.1-3.8c0-0.4-0.2-0.8,0.3-1.1c0.4,0.3,0.5,0.8,0.5,1.2 c0.1,1,0.1,2.1,0.2,3.1c0,0.3-0.4,0.9,0.3,1c0.6,0,0.9-0.4,1-1c0.1-1.4,0.1-2.8-0.1-4.2c0-0.4-0.1-0.9,0.1-1.3 c0.5,0.3,0.6,0.8,0.8,1.2c0.3,1.2,0.3,2.5,0.2,3.8c0,0.3-0.3,0.6,0.2,0.8c0.3,0.1,0.6-0.1,0.8-0.2c0.3-0.2,0.3-0.6,0.4-0.9 c0.2-1.6,0.1-3.1,0-4.7c0-0.4-0.2-0.9,0.4-1.3c0.9,2.1,1,4.2,0.7,6.4c0.8-0.1,1.2-0.4,1.2-1.1c0-1.6,0.1-3.3,0-4.9 c0-0.3-0.1-0.6,0.2-0.8c0.5,0.3,0.6,0.9,0.6,1.3c0.2,1.2,0.2,2.4,0.1,3.7c0,0.3-0.4,0.8,0.2,0.9c0.6,0.1,0.7-0.4,0.8-0.8 c0.2-1.4,0.4-2.7,0.2-4.1c-0.1-0.6-0.2-1.3,0.3-1.9c0.5,0.4,0.5,0.9,0.5,1.4c0.2,1.3,0.3,2.7-0.1,4c-0.1,0.2-0.2,0.4,0,0.6 c0.2,0.2,0.5,0,0.7-0.1c0.3-0.2,0.4-0.5,0.4-0.9c0.2-1.6,0.4-3.3,0.3-4.9c0-0.3-0.2-0.7,0.2-0.8c0.4-0.1,0.4,0.4,0.5,0.7 c0.3,1.4,0.2,2.9,0.1,4.3c0,0.3-0.2,0.7,0.3,0.7c0.4,0,0.7-0.2,0.7-0.5c0-0.2,0.1-0.4,0.1-0.6c0.1-1.5,0.2-3,0.3-4.6 c0-0.3-0.2-0.7,0.3-0.7c0.4,0,0.4,0.4,0.5,0.6c0.3,1.4,0.4,2.7,0.1,4.1c-0.1,0.3-0.4,0.9,0.2,1c0.6,0.1,0.8-0.3,0.9-0.9 c0.1-1.5,0.4-3,0.3-4.6c0-0.3-0.1-0.7,0.3-0.8c0.4-0.1,0.5,0.4,0.6,0.7c0.4,1.4,0.2,2.7,0,4.1c-0.1,0.4-0.6,1,0.3,1.2 c0.7,0.1,0.8-0.5,0.9-1c0.3-1.4,0.4-2.8,0.4-4.2c0-0.3-0.2-0.7,0.2-0.8c0.4-0.1,0.4,0.4,0.5,0.7c0.4,1.4,0.4,2.7,0.1,4.1 c-0.1,0.3-0.5,0.8,0.2,0.9c0.7,0.1,0.9-0.3,0.9-0.8c0.1-1.4,0.5-2.7,0.3-4.1c0-0.4-0.1-0.7,0.3-1c0.4,0.4,0.5,0.9,0.5,1.3 c0.1,1.3,0.1,2.6-0.2,3.9c-0.1,0.3-0.1,0.5,0.3,0.6c0.3,0,0.4-0.1,0.5-0.3c0.1-0.3,0.2-0.6,0.3-1c0.2-1.1,0.3-2.1,0.3-3.2 c0-0.2-0.1-0.5,0.2-0.6c0.3-0.1,0.4,0.2,0.5,0.5c0.1,0.3,0.2,0.6,0.2,0.9c0.1,1,0,2-0.3,3c-0.1,0.3-0.4,0.7,0,0.9 c0.4,0.1,0.4-0.4,0.5-0.7c0.3-1,0.2-2.1,0.6-3.2c0.2-0.5-0.1-0.8-0.5-1.2c-1-1-2.1-2-3.1-3.1c-1.2-1.4-2.9-1.8-4.6-1.8 c-1.3,0-2.6,0.2-3.9,0.5c-4.5,1-8.8,2.7-13.1,4.1c-6.3,2.1-12.7,2.9-19.3,2c-3.6-0.5-7-1.4-10.1-3.2l0,0c0-0.2-0.2-0.2-0.3-0.2 c-0.1-0.4-0.7-0.8-0.2-1.4c4.5,2.4,9.3,3.6,14.3,3.7c5.8,0.2,11.5-0.7,17-2.6c3.5-1.2,6.8-2.8,10.4-3.8c1.7-0.4,3.3-1,5.1-0.8 c0.2,0,0.4,0,0.5-0.2c0.1-0.2-0.1-0.3-0.2-0.5c-4-4-6.2-9.1-8.5-14.2c-1.3-2.9-2.1-6-3.3-8.9c-1.1-2.7-2.3-5.3-3.7-7.8 c-0.4-0.7-0.9-1.2-1.5-1.6c-2.8-1.9-5.7-3.4-9.1-4c-4.4-0.7-8.3,1.9-10.1,5.2c-1.3,2.4-1.9,4.9-1.9,7.7c-0.1,2.3,0.2,4.6-0.2,6.9 c-0.5-0.1-0.9-0.2-1.1-0.6c0-1.7-0.2-2-1.7-2.5c-0.4-0.1-0.7-0.2-1.1-0.3c-1.2-0.3-2.5-0.1-3.8-0.2c1.6-0.8,3.4-0.7,5.1-0.5 c0.4,0.1,1,0.7,1.2-0.1c0.2-0.7-0.4-1-1-1.1c-0.6-0.1-1.2-0.3-1.9-0.3c-0.8-0.1-1.6-0.1-2.6-0.2c0.5-0.5,1-0.6,1.5-0.6 c1-0.1,2.1,0,3.1,0.2c0.4,0.1,0.7,0.1,0.8-0.4c0.1-0.4,0-0.7-0.5-0.9c-0.4-0.1-0.7-0.3-1.1-0.3c-1.3-0.2-2.6-0.3-4.2-0.4 c0.4-0.2,0.5-0.3,0.7-0.4c1.4-0.5,2.9-0.4,4.3-0.1c0.4,0.1,0.9,0.1,1-0.4c0.1-0.5-0.3-0.6-0.7-0.7c-0.4-0.2-0.9-0.3-1.3-0.3 c-1.1-0.1-2.1-0.2-3.3-0.4c0.2-0.3,0.5-0.4,0.8-0.5c1.3-0.3,2.7-0.1,4,0.2c0.3,0.1,0.7,0.2,0.9-0.2c0.2-0.4-0.2-0.6-0.5-0.8 c-0.7-0.4-1.5-0.4-2.2-0.6c-0.9-0.2-1.8,0-2.7-0.4c1-0.4,1.9-0.6,2.9-0.4c0.7,0.2,1.5,0.3,2.2,0.5c0.4,0.1,0.7,0.2,0.9-0.3 c0.2-0.5-0.2-0.7-0.6-0.8c-0.6-0.2-1.1-0.3-1.7-0.5c-0.8-0.3-1.8-0.2-2.6-0.7c1.3-0.6,2.6-0.1,3.8,0c0.6,0.1,1.5,0.8,1.7,0 c0.2-0.8-0.9-0.8-1.5-1c-1-0.3-2-0.5-3-0.8c0.7-0.3,1.4-0.4,2.1-0.2c0.9,0.2,1.8,0.5,2.7,0.7c0.3,0.1,0.6,0.2,0.8-0.1 c0.2-0.4,0-0.6-0.3-0.9c-0.4-0.3-0.8-0.6-1.2-0.8c-0.9-0.6-1.9-0.8-2.9-1.3c1.7-0.2,3.2,0.4,4.7,1.3c0.3,0.2,0.7,0.6,1,0.1 c0.4-0.5-0.2-0.7-0.5-0.9c-1.2-0.8-2.5-1.5-3.8-2.3c0.8,0,1.4,0.2,2,0.4c1,0.4,2,1,3,1.6c0.3,0.2,0.6,0.3,0.9,0 c0.3-0.4,0-0.6-0.2-0.8c-0.5-0.6-1.1-1-1.7-1.4c-0.7-0.4-1.4-0.8-2.3-1.3c0.8-0.2,1.3,0.1,1.8,0.2c1.3,0.4,2.3,1.2,3.3,2.1 c0.4,0.4,0.8,0.5,1.2,0.1c0.5-0.5-0.1-0.7-0.4-1c-0.3-0.4-0.7-0.7-1.1-1c-0.9-0.8-2-1.2-2.8-1.9c0.5,0,1,0.2,1.5,0.3 c1.4,0.5,2.6,1.3,3.6,2.4c0.5,0.7,1.2,0.7,1.6,0.2c0.4-0.5-0.2-0.8-0.5-1.1c-0.9-1-2-1.7-3.1-2.4c-0.4-0.2-0.8-0.4-1.2-1 c2.7,0.5,4.5,1.9,6,3.7c0.5,0.6,1,0.8,1.7,0.5c-1.3-2.2-3.3-3.7-5.6-5.3c0.5,0,0.7,0,0.8,0c2.6,0.7,4.4,2.4,5.7,4.7 c0.4,0.8,1,1,1.9,0.9C43.2,97,41,95.3,39,93.4c0.9-0.1,1.4,0.3,1.9,0.6c1.8,1.3,3.2,3,4.2,5c0.2,0.4,0.4,0.9,0.7,1.2 c0.2,0.3,0.5,0.5,0.9,0.4c0.5-0.2,0.1-0.6,0-0.9c-0.8-2.5-2.3-4.4-4-6.2c-0.2-0.3-0.7-0.5-0.6-1c0.3,0.2,0.5,0.2,0.7,0.4 c2.8,1.8,4.4,4.3,5.2,7.5c0.1,0.6,0.5,1.2,1.1,1c0.6-0.2,0.2-0.8,0.1-1.2c-0.6-2.4-2-4.5-3.4-6.5c-0.2-0.3-0.7-0.5-0.5-1 c1,0.3,1.2,1.5,2.2,1.8c-0.2-1.4-2.4-5.2-3.4-6c-0.2-0.1-0.4-0.2-0.6-0.2c-5.4-0.9-10.4,0-14.6,3.4c-3.9,3.2-6,7.5-7.5,12.2 c-1.5,4.8-2.1,9.7-2.2,14.6c0,0.5-0.2,1.1,0.2,1.4c0.5,0.2,1-0.2,1.4-0.4c1.9-1.1,3.8-1.6,5.9-0.6c-2.1-0.2-4.1,0.1-5.9,1.3 c-0.6,0.4-1.3,0.4-1.9,0.1c-0.5-0.3-1-0.2-1.5-0.2c0.7-3.1,0.7-6.3,1.2-9.4c0.7-5.6,2.3-10.9,5.5-15.5c2.5-3.7,5.8-6.4,10.2-7.6 c0.2-0.1,0.4-0.1,0.6-0.2c0.2-0.1,0.4-0.3,0.6-0.4c-3.8-2.8-9.9-4-14.1-1.6c-1,0.6-1.7,1.5-2.7,1.9c0-0.2,0-0.5-0.1-0.7 c1.1-0.7,1.3-1.8,1.3-3c-0.1-1.3-0.2-2.6-0.8-3.8c-0.2-0.4-0.5-0.9-0.2-1.4c0.4,0.2,0.6,0.6,0.8,0.9c0.7,1.3,1,2.8,1.3,4.2 c0.1,0.3,0,0.6,0.3,0.6c0.4,0,0.4-0.4,0.5-0.6c0.1-0.7,0.1-1.3-0.1-2c-0.3-1.4-0.6-2.7-1-4.1c0.8,0.2,1.1,0.8,1.3,1.4 c0.4,1.1,0.7,2.3,0.9,3.5c0,0.3,0,0.7,0.5,0.8c0.6-1.6,0.2-3.1-0.3-4.7c-0.2-0.5-0.8-1.2-0.2-1.4c0.5-0.2,1,0.6,1.3,1.2 c0.1,0.3,0.2,0.6,0.3,0.8c0.3,1.1,0.4,2.2,0.5,3.3c0,0.3,0.1,0.6,0.5,0.7c0.4,0,0.6-0.3,0.7-0.6c0.1-0.5,0.1-1,0.1-1.6 c0-1.5-0.6-2.9-1-4.5c0.9,0.5,1.2,1.2,1.5,1.9c0.4,1.2,0.6,2.5,0.6,3.9c0,0.3,0,0.8,0.4,0.8c0.4,0,0.5-0.4,0.5-0.7 c0.2-0.9,0.2-1.8,0-2.7c-0.2-1-0.4-2-0.7-3.2c0.6,0.2,0.8,0.6,1,0.9c0.9,1.6,0.9,3.3,0.8,5c0,0.6-0.1,0.9,0.6,1 c0.7,0.1,0.8-0.5,0.8-0.9c0.2-1.2,0.2-2.4,0-3.6c-0.1-0.7-0.4-1.5-0.2-2.5c0.5,0.6,0.8,1.1,1,1.7c0.6,1.6,0.6,3.3,0.3,5 c-0.1,0.4-0.3,0.9,0.4,1c0.8,0.2,0.8-0.4,0.9-0.8c0.2-1.2,0.3-2.4,0.1-3.6c-0.1-0.8-0.2-1.7-0.4-2.7c0.6,0.4,0.7,0.8,0.8,1.2 c0.8,2,0.8,4,0.4,6c-0.1,0.3-0.2,0.7,0.2,0.9c0.5,0.2,0.5-0.3,0.7-0.6c1-2,1.1-4.1,0.5-6.2c-0.1-0.3-0.3-0.5,0-0.9 c0.7,0.7,0.9,1.4,1.2,2.2c0.6,1.8,0.2,3.6-0.2,5.3c-0.1,0.4-0.3,0.8,0.1,1c0.5,0.2,0.7-0.3,0.9-0.7c0.5-1.1,0.7-2.3,0.6-3.5 c0-1-0.1-1.9-0.1-3.1c0.7,0.8,0.8,1.4,0.9,2.1c0.2,1.8-0.1,3.5-0.6,5.2c-0.1,0.3-0.3,0.6,0.1,0.8c0.3,0.1,0.5-0.2,0.7-0.5 c0.3-0.6,0.5-1.3,0.6-2c0.2-1.2,0.4-2.3,0.7-3.6c0.5,0.5,0.4,0.9,0.4,1.3c0,1.5,0,2.9-0.6,4.3c-0.1,0.2-0.2,0.3-0.1,0.5 c0.1,0.1,0.3,0.1,0.4,0c0.9-0.7,1.7-3.9,1.1-4.9c-1.3-2.2-2.6-4.3-4.2-6.3c-0.5-0.6-1-1.3-1.9-1.6c-2.6-0.9-5.3-1.4-8-1.6 c-4.9-0.3-9.3,1.4-13.2,4.2c-0.4,0.3-1.2,0.3-1.2,1.1c1,0.2,1.8,0.5,2.6,1.1c-0.2,0-0.4,0.1-0.5,0c-1.3-0.5-2.6-0.8-4-0.3 c-0.1,0-0.3-0.2-0.5-0.4c2-1.2,3.6-3,5.6-4.1c3.9-2.2,8.1-3.2,12.5-2.8c0.5,0,1.4,0.4,1.6-0.2c0.1-0.5-0.8-0.7-1.3-0.9 c-3.2-1.6-6.1-3.5-8.5-6.2c0.2-1.4,0.8-0.3,1-0.1c2.8,2.6,6,4.9,9.5,6.5c0.9,0.4,1.7,1.1,2.8,0.9l0,0c0,0.6,0.4,0.4,0.8,0.4 c0.9,0.1,1.9,0.3,2.6,1c3.7,3.4,6.8,7.2,8,12.3c0.3,1.1,0.5,2.3,1.2,3.2c2.8,4,4.4,8.4,5.7,13c0.4,1.5,0.9,2.8,1.8,4.1 c2.6,3.7,4.3,7.9,5.7,12.2c1.7,5.2,3.8,10.1,7,14.5c1.6,2.3,3.2,4.6,5.3,6.6c1.6,1.5,3.5,2.6,4.9,4.2c2.3,2.8,4,6,5.1,9.4 c0.3,0.8,0.7,1.3,1.6,1.4c1.6,0.3,3.4,0.7,4.6,1.8c4.5,3.8,6.9,8.6,6.6,14.6c0,0.7,0.2,1.3,0.7,1.9c1.1,1.1,2.1,2.3,2.9,3.7 c2.8,4.8,3.8,10,3.8,15.4c0,0.8,0.2,0.9,0.9,0.9c6.7-0.3,12.7,1.5,18.1,5.5c0.2,0.1,0.3,0.4,0.5,0.1c0.7-0.1,0.8-0.6,0.5-1.1 c-0.2-0.4-0.4-0.7-0.2-1.1c0.3-0.5,0-0.8-0.2-1.3c-0.4-0.9,0-1.9-0.5-2.8c0,0,0.1-0.2,0.2-0.3c0.6-0.6,0.3-1.1-0.1-1.5 c-0.4-0.4-0.6-0.9-0.9-1.4c0-0.1,0-0.2,0.1-0.3c0.4-0.2,0.9-0.4,0.6-0.9c-0.5-0.8-0.6-1.6-0.7-2.5c-0.1-1.3-0.9-2.5-1.2-3.9 c-0.3-1.1-0.9-2.2-1.5-3.1c-0.8-1.1-1.1-2.4-1.7-3.6c-0.4-0.8-0.4-1.7-0.9-2.5c-0.2-0.3,0.1-0.6,0.4-0.7c1.7,3,3,6.2,4.2,9.4 c1.9,5.1,3.5,10.2,3.4,15.7c0,3.2,0.4,6.4-0.2,9.5c-0.9,4.3-4.2,7.5-8.3,8.8c-5.6,1.6-10.9,0.2-16-1.7c-5-1.8-10-3.8-15.3-4.6 c-0.5-0.1-1-0.2-1.2-0.7c-0.2-0.6,0.3-0.9,0.7-1.3c2.2-2.1,4.3-4.4,6.6-6.4c2.9-2.5,5.9-4.8,9.7-6c1-0.3,1.5-1,1.4-2 c-0.3-6.5-1.8-12.7-5.7-18.1c-2-2.8-5-4.2-8-5.5c-2.2-1-4.6-1.4-7-1.4c-3.7,0-7,1.2-9.4,4.2c-1.2,1.6-1.9,3.5-3.2,5 c-2.7,3.2-5.2,6.5-8.4,9.3c-0.7,0.6-1.1,1.4-1.9,1.9c-0.6-1-0.3-2.2-0.7-3.3c-0.1-0.3-0.1-0.5,0.3-0.6c0.1,0.1,0.1,0.2,0.2,0.3 c0.2,0.4,0.3,1.2,0.9,1c0.6-0.2,0.4-0.9,0.3-1.5c0-0.2-0.2-0.4-0.3-0.6c-0.6-1.6-1.2-3.1-2.4-4.5c0.9,0.1,1.2,0.7,1.5,1.2 c0.7,1.1,1.3,2.2,2,3.4c0.2,0.3,0.3,0.6,0.6,0.5c0.5-0.1,0.2-0.6,0.2-0.9c0-0.1,0-0.2-0.1-0.3c-0.8-1.6-1.4-3.4-2.4-4.9 c-0.1-0.2-0.5-0.5-0.1-1c1.7,1.7,2.8,3.6,3.7,5.7c0.9-0.5,0.6-1.2,0.3-1.9c-0.8-1.7-1.6-3.5-2.9-5.2c0.8,0.2,1.1,0.5,1.5,0.9 c1.1,1.1,1.7,2.4,2.3,3.8c0.1,0.2,0.1,0.6,0.4,0.6c0.3,0,0.6-0.3,0.7-0.7c0.1-0.5-0.1-0.9-0.3-1.4c-0.7-1.5-1.3-2.9-1.9-4.4 c1.4,1.1,2.4,2.3,3,3.9c0.1,0.2,0.1,0.5,0.4,0.5c0.3,0,0.5-0.3,0.5-0.6c0-0.3-0.1-0.6-0.2-0.9c-0.6-1.6-1.2-3.2-2.1-4.8 c1.5,1,2.6,2.5,3.3,4.3c1.1-2.6-1-4.3-1.9-6.5c1.4,1,2.3,2.1,2.9,3.4c0.1,0.3,0.1,0.9,0.6,0.8c0.5-0.2,0.4-0.8,0.2-1.2 c-0.1-0.3-0.2-0.6-0.3-0.9c-0.5-1.4-1-2.7-1.7-4.1c1.1,1,2,2,2.6,3.3c0.1,0.2,0.1,0.6,0.5,0.5c0.3-0.1,0.2-0.4,0.1-0.7 c-0.4-1.5-1-2.9-1.8-4.2c-0.2-0.3-0.5-0.6-0.3-1.2c1.3,1,2.1,2.2,2.7,3.6c0.1,0.3,0.1,0.8,0.5,0.7c0.4-0.1,0.3-0.6,0.2-0.9 c-0.3-1.4-0.9-2.7-1.7-3.8c-0.2-0.3-0.5-0.5-0.4-0.9c0.3-0.1,0.5,0.1,0.7,0.2c1.1,1,1.8,2.2,2.2,3.5c0.1,0.2,0,0.6,0.4,0.5 c0.3-0.1,0.5-0.3,0.5-0.6c0-0.3,0-0.5-0.1-0.8c-0.4-1-0.8-2.1-1.4-3c-0.2-0.2-0.6-0.5-0.2-0.8c0.4-0.3,0.6,0.2,0.8,0.3 c0.6,0.6,1,1.4,1.4,2.2c0.3,0.5,0,1.6,1,1.3c1.1-0.4,0.3-1.2,0.1-1.8c-0.5-1.2-1.1-2.4-1.7-3.7c0.8,0.1,1.1,0.6,1.4,1 c0.7,0.9,1.2,2,1.6,3c0.2,0.4,0.2,1,0.8,0.8c0.7-0.2,0.4-0.8,0.3-1.2c-0.4-1.4-0.9-2.8-1.8-3.9c-0.1-0.2-0.5-0.4-0.2-0.7 c0.3-0.3,0.5,0,0.8,0.2c0.2,0.2,0.4,0.4,0.6,0.7c1,1.2,1.6,2.6,1.9,4.1c0.1,0.6,0.5,0.6,0.9,0.5c0.5,0,0.6-0.4,0.5-0.8 c-0.1-0.3-0.1-0.6-0.2-0.9c-0.4-1.7-1.1-3.4-2.1-4.9c0.6-0.2,0.8,0.2,1,0.5c1.2,1.5,2.2,3.1,2.4,5.1c0.1,0.5,0.2,0.8,0.7,0.7 c0.6-0.1,0.4-0.5,0.4-0.9c-0.3-1.7-0.6-3.4-1.6-5c-0.2-0.4-0.5-0.7-0.4-1.2c0.5,0.1,0.8,0.6,1.1,1c1.1,1.6,1.7,3.4,2,5.3 c0.1,0.5,0,0.9,0.7,0.8c0.7-0.1,0.4-0.7,0.3-1c-0.4-1.7-0.6-3.4-1.5-5c-0.1-0.3-0.5-0.7-0.1-0.9c0.3-0.2,0.6,0.2,0.8,0.5 c0.1,0.2,0.3,0.4,0.4,0.7c0.9,1.6,1.4,3.3,1.5,5.1c0,0.1,0,0.3,0,0.4c0,0.7,0.6,0.7,1,0.7c0.5,0,0.3-0.5,0.3-0.8 c-0.1-2.1-0.6-4.2-1.3-6.2c1.1,0.6,1.4,1.7,1.8,2.8c0.5,1.4,0.6,2.9,0.8,4.4c0.1,0.4,0.3,0.8,0.7,0.8c0.4-0.1,0.3-0.6,0.2-0.8 c-0.2-2.1-0.2-4.3-1.1-6.2c-0.1-0.2-0.3-0.4,0.1-0.6c0.7,0.4,1,1.1,1.3,1.8c0.7,1.8,0.9,3.8,0.9,5.7c0,0.8,0.3,1.3,1.2,1.6 c-0.1-2.9-0.3-5.7-1.4-8.4c0.8,0.1,1,0.7,1.3,1.2c1,2.2,1.3,4.6,1.4,7.1c0,0.4-0.1,0.8,0.4,1.1c0.1-1.4-0.1-2.9,0.1-4.2 c0.1-1.2,0-2.3-0.7-3.3c-0.3-0.4-0.5-0.8-0.8-1.2c-1.5-2-3.1-4.1-5.8-4.5c-4.5-0.7-8.9-0.5-13.3,0.8c-1.8,0.6-3.6,1.2-4.9,2.6 c-2.4,2.6-4.7,5.2-6.6,8.2c-0.9,1.5-2.1,2.8-3.2,4.2c-1.6,1.9-3.6,3.4-5.6,4.7c-0.3,0.2-0.9,0.4-0.8,0.9c0.1,0.4,0.7,0.3,1.1,0.4 c0.8,0,1.5,0.3,2,0.8c-1.4-0.3-2.7-0.5-4-0.8C48,177,47.6,176.5,47,176.6 M82.6,206.8c0.7,0.4,1.4,0.2,2.1,0.3 c3.7,0.6,7.2,1.8,10.7,3.2c5.4,2,10.8,3.6,16.7,3c5.5-0.5,8.9-4.6,9.6-9.4c0.4-2.7-1.1-4.7-3.2-6.2c-3.3-2.4-7.1-3.5-11.1-4.1 c-4.8-0.7-9,0.9-13.1,3.3C89.8,199.4,86.3,203.1,82.6,206.8 M92.2,169.4c0.1,0,0.2,0,0.3,0c0.1-1.4,0-2.7-0.5-4.1 C92.1,166.7,92.2,168,92.2,169.4 M76.9,147c-0.2,0.8-0.3,1.5-0.5,2.3c0,0.1,0,0.3,0.1,0.4c0.1,0.1,0.3,0,0.4,0 C77.5,149.3,77.5,147.5,76.9,147 M42.2,84.7c-0.2,0.5-0.4,1-0.6,1.5c-0.1,0.2-0.2,0.5,0.1,0.7c0.3,0.2,0.4-0.2,0.6-0.4 C42.8,85.9,42.7,85.3,42.2,84.7"/><path class="st0" d="M33.5,71.1c-1.1,0.2-1.9-0.5-2.8-0.9c-3.5-1.6-6.6-3.8-9.5-6.5c-0.2-0.2-0.8-1.3-1,0.1 c-2.8-2.6-4.8-5.7-6.4-9.1c-2.3-4.7-3.4-9.8-3.4-15c0-10.8,7.4-18.4,16.9-20.3c5.7-1.1,11.1,0.1,16.3,2.5c6.3,3,11.7,7.3,16.2,12.6 c3.3,4,5.8,8.5,7.6,13.4c2,5.3,3.1,10.8,3.5,16.4c0,0.5,0,1,0,1.6c0,0.2-0.1,0.5,0.1,0.6c0.3,0.1,0.4-0.1,0.6-0.3 c2.6-3.3,5.3-6.5,8.5-9.2c3.1-2.6,6.3-4.9,9.9-6.7c0.1-0.1,0.3-0.2,0.4-0.2c2.6-1.4,5.3-2.6,8.2-3.5c0.2,0,0.5,0,0.6-0.2 c0.6-0.3,1.3-0.5,2-0.6c0.1-0.1,0.3-0.1,0.4-0.2l0.5-0.1c0.2,0,0.5,0,0.6-0.2c0.2,0,0.3,0,0.5-0.1c0.2,0,0.5,0,0.6-0.2 c0.2,0,0.5-0.1,0.7-0.1c0.3,0,0.6,0.1,0.9-0.2c0.2,0,0.5,0,0.7-0.1c0.8,0.6,0,0.5-0.3,0.7c-0.9,0.4-2.1,0.1-2.8,1.2 c-0.1,0-0.3,0.1-0.4,0.1c-0.7-0.4-1.2-0.3-1.6,0.5l-1.8,0.5c-0.6,0.1-1.5-0.7-1.8,0.6l0,0c-0.1,0-0.2,0.1-0.2,0.1 c-0.2,0-0.3,0.1-0.5,0.1c-0.1,0-0.1,0.1-0.2,0.1c-9.9,4.2-18,10.6-24.3,19.3c-0.5,0.8-1.1,1.6-1,2.6c0.1,0.8,0.2,1.5,0.2,2.3 c0.1,0.8-0.1,1.6,0.2,2.4c0,0.4,0,0.8,0.1,1.2c0,0,0,0,0,0.1c0,0,0,0.1,0.1,0.1c0,0.2,0,0.5,0,0.7c0,0-0.1,0.1-0.1,0.1 c0,0,0,0.1,0.1,0.1c0.1,1.5,0.1,3,1.1,4.3c0.3,0.4,0.5,0.8,0.7,1.2c-0.3,0.1-0.5,0.3-0.8,0.2c-0.4-0.2-0.5,0.1-0.4,0.4 c0,1.3,0.6,2.4,1.5,3.3c0.1,0.1,0.2,0.1,0.2,0l0,0c0.1-0.1,0.1-0.2,0.2-0.3c0-0.1,0-0.1,0-0.2c0.4-0.5-0.1-1.2,0.3-1.8 c0.3,0,0.4-0.3,0.5-0.5c0.7-0.1,1-0.4,0.5-1c-0.3-0.4-0.2-0.7,0-1c0.2,0,0.3-0.1,0.5-0.3c0.2-0.1,0.2-0.3,0.2-0.4l0,0 c0.8-0.3,0.2-0.9,0.4-1.4c0.1-0.1,0.3-0.2,0.4-0.2c0.2,0,0.5,0.1,0.6-0.2c0.1-0.2-0.1-0.4-0.3-0.5c0-0.1-0.1-0.2-0.1-0.2 c-0.1-0.1-0.2-0.1-0.2-0.2c-0.1,0-0.1-0.1-0.2-0.1l0.9-0.6c0.5-0.1,0.5-0.6,0.8-0.9c0.8-0.3,0.6-1,0.6-1.6c0.8-0.1,0.7-1,1.1-1.4 c0.3,0.2,0.6,0.3,0.9,0c0.3-0.4-0.2-0.5-0.3-0.6c-0.2-0.2-0.1-0.4,0.1-0.5c0.4,0.1,0.6-0.3,0.9-0.4c1,0,0.3-1.2,1-1.4 c0.1,0,0.1,0,0.2,0c0.8-0.1,1.4-0.5,1.8-1.2c0.2-0.5,0.7-1,1.3-0.3c-2.9,3.1-5.5,6.5-7.5,10.3c-1.1,2.2-2.1,4.4-2.9,6.7 c-0.2,0.6-0.1,1.1-0.2,1.8c0.9-0.6,1.2-1.6,1.8-2.3c0.1,0,0.1-0.1,0.1-0.2c4.1-5.9,9.7-9.7,16.4-12.1c0.2,0,0.5,0,0.6-0.2 c0.3-0.1,0.6-0.3,0.9-0.3c0.2,0,0.5,0,0.6-0.2c0.5-0.1,0.9-0.4,1.3-0.3c0.2,0,0.5,0,0.7-0.2c0.1,0,0.2,0,0.3,0 c0.3,0,0.6,0.1,0.8-0.2c0.2,0,0.3,0,0.5-0.1c0.3,0,0.6,0.1,0.9-0.2c0.2,0,0.5,0,0.7-0.1c0.4-0.1,0.8,0.1,1.1-0.2l1.1-0.1 c2.2-0.1,4.4-0.2,6.5-0.3c0.6,0,1.2,0.1,1.7-0.2l1.8-0.1c0.7-0.1,1.4,0.1,2-0.3l1.6-0.1c0.6,0.1,1.3-0.5,1.8,0.3 c-0.3,0.2-0.5,0.3-0.8,0.3c-0.1,0-0.2,0.1-0.3,0.1c-0.2,0-0.4,0.1-0.7,0.1c-0.6-0.3-1.2-0.5-1.6,0.3c-0.1,0-0.3,0-0.4,0.1 c-0.3,0-0.6-0.1-0.9,0.2c-0.9,0.1-1.8,0.1-2.7,0.2c-1.8-0.2-3.5-0.1-5.3,0c-0.2,0-0.3,0.2-0.3,0.4c-0.6,0-1.2,0.1-1.8,0.1 c-0.4,0.1-0.9-0.6-1.2,0.2c-0.4,0-0.9,0.1-1.3,0.1c-0.4-0.3-0.9-0.5-1.1,0.2c-0.1,0-0.3,0-0.4,0.1c-0.3,0.1-0.8-0.5-0.9,0.2 c-0.9,0.2-1.8,0.4-2.7,0.6c-0.1,0-0.1,0.1-0.2,0.1l-1.6,0.4c-0.1,0-0.1,0.1-0.2,0.1c-0.2,0-0.3,0.1-0.5,0.1 C94,74.9,93.9,75,93.7,75c-1,0.5-2,0.9-3,1.4c-7.2,3.7-12.6,9-15.9,16.4c-0.5,1.2-0.8,2.3-0.4,3.6c0.5,1.7,0.9,3.4,1.4,5.1 c0.4,1.5,0.9,2.8,2.1,3.9c0.3,0.6-0.7,1-0.2,1.6c0.5,0.9,0.7,2.1,1.5,2.8c0.3,0,0.6,0.2,0.8,0.1c1-0.5,0.9,0.2,0.9,0.7 c0,0.2,0,0.5,0,0.7c0,0-0.1,0-0.1,0.1c0,0.1,0,0.1,0.1,0.2c0,0.2,0,0.5,0,0.7c-0.2,0.3-0.2,0.6,0.1,0.9c0.1,0.4,0.2,0.9,0.3,1.3 c0,0.2,0,0.5,0.2,0.7l0,0c0.1,0.1,0.1,0.3,0.2,0.4c0,0.4,0.4,0.7,0.3,1.1c0,0.1,0.1,0.1,0.1,0.2c1.8,4.7,4,9.3,6.4,13.7 c0,0.9,0.5,1.7,0.5,2.6c0,0.7,0.4,0.9,1,0.9h0c0,0.2,0,0.4,0.2,0.5c1.9,3.5,4.3,6.6,6.7,9.8c-0.1,1.2,0.7,1.7,1.7,2 c0.1,0.1,0.1,0.2,0.2,0.3c0,0.1,0.1,0.1,0.1,0.2c0,0.1,0.1,0.2,0.1,0.2c0.1,0.1,0.1,0.1,0.2,0.2c0.4,0.7,0.9,1.4,1.3,2.2 c0.4,0.7,0.8,0.7,1.1,0c3.3-5.9,8.5-10.2,13.1-15c1.3-1.3,2.5-2.8,2.3-5.1c-0.1-1.6,0.1-3.2,0-4.8c1.3,1.8,3,3,4.6,4.3 c0.5,0.4,1.2,0.7,1.7,1.2c2.5,1.9,3.9,4.3,4,7.5c0,1.7-0.5,3-1.8,4.2c-2.5,2.3-5.4,4.4-7.5,7.2c-3.1,4.2-5.9,8.5-5.9,14 c0,1.5,0.6,2.7,1.2,4c0.2,0.5,0.4,1,0.6,1.4c-0.4,0.8,0,1.1,0.7,1.3l0,0c0.1,0.1,0.1,0.2,0.2,0.2l0,0c0,0.1,0,0.1,0.1,0.2 c0.1,0.2,0.1,0.3,0.2,0.5c-0.3,0.2-0.5,0.4-0.4,0.7c0.5,0.8,0.5,1.7,0.9,2.5c0.6,1.2,0.9,2.5,1.7,3.6c0.6,0.9,1.3,2,1.5,3.1 c0.3,1.3,1.1,2.5,1.2,3.9c0.1,0.9,0.2,1.7,0.7,2.5c0.3,0.5-0.2,0.7-0.6,0.9c-0.3-0.5-0.5-1.1-1.1-1.4c-1.8-1-3.6-2.1-5.6-2.8 c-1.2-0.4-2.3-1.2-3.5-1.8c1.1-0.2,2,0.1,2.9,0.4c2.1,0.7,4,1.6,5.8,2.9c0.2,0.1,0.5,0.4,0.7,0.2c0.2-0.2,0-0.5,0-0.7 c-0.3-1-0.9-1.7-1.9-2.2c-2.3-1.2-4.7-2.1-7.1-3c-0.5-0.2-1.2-0.3-1.6-1c3.4,0.4,6.3,2,9.4,3.2c-0.2-1-0.6-1.6-1.4-1.9 c-1.8-0.7-3.6-1.5-5.3-2.3c-0.9-0.4-1.9-0.7-2.9-1.4c0.6-0.2,1-0.1,1.4,0c2,0.4,3.8,1.4,5.7,2.1c0.3,0.1,0.7,0.7,0.9,0.3 c0.3-0.4-0.2-0.8-0.6-1.1c-0.3-0.2-0.6-0.4-1-0.5c-1.1-0.4-2.2-0.9-3.3-1.3c-1.2-0.4-2.3-0.9-3.5-1.3c0-0.1,0.1-0.2,0.1-0.3 c2.5,0.1,4.8,1.2,7.2,1.9c0.1-0.7-0.2-1-0.8-1.2c-0.9-0.4-1.9-0.8-2.8-1.2c-1.5-0.6-3-1.3-4.4-1.9c2.6-0.1,4.7,1.3,7.1,1.8 c-2-2.3-5.1-2.5-7.9-4.1c2.7,0,4.7,1.4,7,2.1c-0.5-0.8-0.7-1.6-1.3-2.1l0,0c-0.5-1.5-1.5-2.7-2.4-3.8c-0.5-0.7-1-1.6-1.9-1.8 c-2.4-0.7-4.6-1.8-6.9-2.7c-0.3-0.1-0.8-0.2-0.9-0.8c2.5,0.3,4.5,1.5,6.7,2.2c-2.3-2.5-6-2.5-8.6-4.4c2,0,3.7,1,5.7,1.1 c-2.4-2-5.6-2.3-8.5-4c1-0.2,1.6,0.1,2.2,0.2c1.6,0.3,3.1,1.1,4.7,1.2c0,0,0,0.1,0.1,0.1c0,0,0-0.1,0-0.1c0,0-0.1,0-0.1,0 c-0.4-1-1.2-1.7-2.2-2c-2.1-0.7-4.2-1.4-6.2-2.2c-0.4-0.1-0.9-0.2-1.1-0.8c0.9-0.2,1.6,0.1,2.4,0.4c1.5,0.5,3,1.1,4.5,1.6 c0.3,0.1,0.8,0.6,1,0.1c0.2-0.4-0.2-0.8-0.6-1.1c-0.2-0.2-0.5-0.3-0.8-0.4c-1.4-0.5-2.9-0.9-4.4-1.4c-1.4-0.5-3-0.8-4.3-1.7 c3-0.7,5.5,1.1,8.3,1.8c-0.2-0.8-0.6-1-1.2-1.2c-2.6-0.9-5.2-1.8-7.8-2.6c-0.4-0.1-0.8-0.2-1-0.6c0.6-0.3,1.1-0.3,1.7-0.2 c1,0.3,1.9,0.5,2.9,0.9c1.3,0.4,2.6,1,3.9,1.4c-0.2-0.6-0.5-1.2-1.1-1.4c-2.3-0.9-4.7-1.8-7-2.8c-1-0.4-2.1-0.7-3.2-1.5 c1.7-0.1,3,0.4,4.3,0.9c1.6,0.6,3,1.5,4.7,1.9c0,0.1,0,0.2,0.1,0.1c0,0-0.1-0.1-0.1-0.1c-0.7-1.1-1.5-2.1-2.8-2.6 c-2.5-1-5.1-1.9-7.6-2.9c-0.3-0.1-0.8-0.1-0.9-0.8c3.1-0.1,5.7,1.6,8.5,2.6c-1-2-3.2-2.1-4.9-2.9c-1.7-0.8-3.6-1.3-5.3-2.3 c2.9-0.2,5.3,1.5,8.1,2c-3-2.3-6.8-2.9-10.1-4.6c1.6,0,3.2,0.2,4.8,0.7c1.2,0.4,2.3,1,3.5,1.5c0.2,0.1,0.4,0.3,0.6,0 c0.2-0.2,0-0.4-0.2-0.6c-0.4-0.5-0.9-0.8-1.4-1c-2-0.8-4-1.5-6-2.3c-1.1-0.5-2.4-0.7-3.4-1.5c3.5-0.3,6.3,1.9,9.8,2.8 c-0.6-1.1-1.1-2-1.6-2.9c-0.1-0.1-0.2-0.1-0.2-0.2c-0.3-1.2-0.9-2-2.2-2.2c-0.7-0.1-1.4-0.4-2-0.6c-1.7-0.5-3.4-1-5.1-1.5 c0-0.1,0.1-0.2,0.1-0.3c2.9-0.5,5.2,1.5,8,1.9c-0.2-0.9-0.7-1.4-1.6-1.6c-2.2-0.6-4.5-1-6.6-1.8c-0.2-0.1-0.6-0.1-0.6-0.4 c0-0.4,0.4-0.3,0.7-0.4c1.4-0.2,2.7,0.2,4,0.7c0.9,0.3,1.7,0.6,2.6,1c-0.2-1.1-0.2-1.2-1-1.4c-1.1-0.4-2.3-0.7-3.4-1 c-1.4-0.4-2.8-0.8-4.2-1.2c0-0.1,0-0.2,0.1-0.3c2.7-0.8,5.1,0.7,7.6,1.4c-0.1-0.9-0.4-1.3-1.1-1.5c-1.2-0.3-2.4-0.7-3.7-1 c-1.1-0.3-2.3-0.4-3.4-1.1c0.1-0.3,0.4-0.4,0.6-0.4c2.3-0.3,4.3,0.8,6.5,1.4c0-0.9-0.4-1.3-1.1-1.5c-2-0.8-4-1.4-6.1-2 c-0.5-0.1-1-0.2-1.3-0.7c2.4-0.4,4.3,0.5,6.4,1.2c0.3,0.1,0.6,0.4,0.8,0.1c0.3-0.3-0.2-0.6-0.3-0.8c-0.2-0.4-0.6-0.5-0.9-0.6 c-0.8-0.3-1.6-0.5-2.5-0.8c-1.3-0.4-2.6-0.8-4-1.3c0.8-0.5,1.4-0.4,2.1-0.4c1.2,0.2,2.3,0.7,3.4,1.1c0.4,0.1,0.8,0.7,1.1,0.2 c0.3-0.4-0.1-0.9-0.4-1.3c-0.2-0.3-0.5-0.4-0.8-0.5c-1.7-0.5-3.4-1.1-5.1-1.6c-0.3-0.1-0.7-0.1-0.8-0.6c2-0.5,3.8,0.5,5.8,0.8 c-0.2-1.1-0.7-1.7-1.7-1.9c-1-0.3-1.9-0.5-2.9-0.8c-0.6-0.2-1.3-0.4-1.8-1c1.7-0.1,3.3,0.6,5,0.9c0-1.7-1.3-1.5-2.3-2 c-0.9-0.4-2-0.4-3-1.3c1.3-0.2,2.2,0.3,3.2,0.5c0.3,0.1,0.6,0.3,0.8,0.1c0.3-0.3,0-0.6-0.1-0.9c-1.1-3.9-2.3-7.7-3.1-11.6 c-1.3-6-1.5-12.2-2.1-18.3c-0.2-2.4-0.2-4.8-0.5-7.2c-0.1-0.8-0.4-1.4-1.2-1.7C66,65.2,64,64.4,62,63.5c-0.8-0.3-1.5-0.6-2.3-0.9 c1.3-0.2,2.4,0,3.5,0.5c1.6,0.6,3.2,1.3,4.8,1.9c0.3,0.1,0.6,0.5,0.9,0c0.2-0.4-0.1-0.7-0.4-0.9c-0.2-0.1-0.4-0.2-0.6-0.3 c-1.5-0.6-3-1.2-4.5-1.7c-1.5-0.5-2.9-1.1-4.4-1.6c1.3-0.3,2.4,0,3.5,0.4c1.9,0.7,3.7,1.3,5.6,2c0.3,0.1,0.5,0.2,0.7,0 c0.2-0.3,0.1-0.6-0.2-0.8c-0.2-0.2-0.5-0.3-0.8-0.4c-2.1-1-4.2-1.7-6.4-2.4c-1.1-0.4-2.3-0.6-3.6-1.3c1.4-0.2,2.5,0,3.6,0.2 c2.2,0.5,4.2,1.4,6.2,2.2c0.3,0.1,0.6,0.4,0.8,0c0.2-0.3,0.1-0.7-0.3-0.9c-0.1-0.1-0.3-0.2-0.5-0.3c-2.6-1.2-5.4-2.2-8.2-2.9 c-1-0.2-1.9-0.6-2.9-1l0.1-0.3c3.9-0.1,7.5,1.9,11.2,2.7c-0.1-0.5-0.4-0.5-0.6-0.7c-3.3-2-7-2.9-10.7-3.8c-0.4-0.1-0.9-0.1-1.1-0.7 c0.9,0,1.8-0.1,2.6,0.1c3,0.6,5.8,1.6,8.7,2.6c0.2,0.1,0.5,0.4,0.7,0.1c0.2-0.3,0.1-0.7-0.2-0.9c-0.2-0.2-0.5-0.4-0.7-0.5 c-3.8-1.5-7.8-2.8-11.8-3.7c-0.4-0.1-0.9,0.3-1.2-0.4c1.4-0.5,2.9-0.3,4.3,0c2.8,0.6,5.5,1.7,8.1,2.8c0.3,0.1,0.7,0.5,1,0 c0.2-0.4,0-0.8-0.4-1c-0.4-0.2-0.8-0.3-1.2-0.5c-3.1-1-6.3-2-9.6-2.4c-1.2-0.1-2.4-0.4-3.8-0.9c1.1-0.4,2-0.6,2.9-0.4 c1.3,0.3,2.6,0.5,3.8,0.8c2.5,0.6,5,1.2,7.5,1.8c0,0,0,0.1,0,0.1c0,0,0-0.1,0.1-0.1l-0.1,0c-0.1-0.9-0.9-1-1.6-1.2 c-3.5-1.2-7.1-2.1-10.8-2.6C52.9,46,52,46,51.2,45.4c1.2-0.1,2.3-0.4,3.4-0.1c3.3,0.7,6.7,1.2,9.9,2.2c0.3,0.1,0.6,0.3,0.8-0.1 c0.1-0.3-0.2-0.6-0.5-0.7c-0.8-0.5-1.8-0.9-2.7-1.2c-3.6-1.2-7.3-1.7-11-2.2c-0.5-0.1-1.3,0.2-1.9-0.5c1.8-0.5,3.4-0.3,5.1-0.1 c3,0.4,5.9,1.1,8.8,2.1c0.2,0.1,0.5,0.3,0.7,0c0.1-0.1-0.1-0.4-0.2-0.6c-0.3-0.8-1-0.9-1.7-1.1c-4.6-1.4-9.2-2.6-14-2.5 c-0.4,0-0.7,0-0.9-0.4c0.1-0.3,0.4-0.2,0.6-0.2c3.5-0.4,6.9,0.4,10.3,1c1.4,0.3,2.8,0.8,4.3,0.8c0,0,0.1,0.1,0.1,0.1 c0,0,0-0.1,0-0.1c0,0-0.1,0-0.1,0c-0.1-0.4-0.5-0.4-0.8-0.5c-5.2-2-10.5-3.2-16.1-3c5.3-1.2,10.5,0,15.7,1.1 c-5.7-2.8-11.9-3-18.1-2.7c0.9-0.6,2-0.7,3-0.9c4.5-0.6,9,0.1,13.5,1.4c-0.6-0.9-0.6-0.9-1.5-1.2c-4-1.3-8-1.5-12.1-1.5 c-2.3,0-4.6,0.4-7,0.6c6-2.3,12.1-2.4,18.5-0.8c-0.5-0.9-1-1.4-1.8-1.5c-5.4-0.9-10.7-1.3-16.1,0c-0.7,0.2-1.4,0.5-2.4,0.2 c1.8-1.1,3.5-1.6,5.4-1.9c1.8-0.3,3.6-0.5,5.5-0.5c1.8,0.1,3.6,0.2,5.5,0.3c-0.2-0.2-0.2-0.3-0.2-0.3c-0.2-0.1-0.3-0.1-0.5-0.2 c-4.6-1.1-9.1-1.3-13.7-0.4c-0.7,0.1-1.5,0.3-2.2,0.5c-0.7,0.2-1.5,0.3-2.2,0.1c5.2-2.4,10.7-2.8,16.4-1.9c-0.3-0.5-0.7-0.6-1-0.7 c-2.1-1.1-4.4-1.2-6.6-1.1c-3.3,0.1-6.4,0.8-9.6,1.6c-0.6,0.2-1.3,0.5-2,0.2C36,26.1,41,26.3,46,25.7c-1-0.7-2-0.8-2.9-0.9 c-3.3-0.1-6.6,0.3-9.8,1.1c-1.7,0.5-3.4,1-5.1,1.5l0,0c1.6-1.4,3.5-2.1,5.5-2.7c2.5-0.7,5.1-1,7.7-1.3c-5.4-0.7-10.6,0.3-15.8,2.2 c0-0.5,0.1-0.6,0.3-0.7c0.4-0.3,0.8-0.6,1.2-0.8c3.2-1.4,6.6-1.7,10.3-2.3c-2.8-0.6-5.3,0-7.7,0.5c-2.4,0.6-4.7,1.5-7.1,2 c2.4-1.8,5.2-2.7,8-3.7c-9.6,0.5-18.2,7.3-18.7,18.7C11.6,45.4,13.1,51,16,56.1c2.5,4.4,6.4,7.5,10.4,10.5 C28.7,68.3,31.2,69.6,33.5,71.1 M122.8,142.2L122.8,142.2c-0.1-0.1-0.2-0.2-0.3-0.2l0,0c-0.4-0.9-1.5-0.9-2-1.7 c-0.3-0.4-0.7-0.5-1.2-0.4c-0.2-0.3-0.5-0.5-0.5-0.9c0-0.1-0.1-0.1-0.1-0.2c0-0.1-0.1-0.2-0.1-0.2c0-0.1-0.1-0.1-0.1-0.2 c-0.1-0.2-0.2-0.4-0.4-0.7c0-0.1-0.1-0.1-0.1-0.2c0-0.1-0.1-0.2-0.1-0.3c-0.1-0.1-0.1-0.3-0.2-0.4c-0.4-0.9-0.8-1.9-1.2-3 c-1.2,1.5-2.3,2.9-3.6,4.2c-3.3,3.3-6.5,6.5-9,10.5c-1.2,1.9-1.5,3.5-0.3,5.5c2,3.3,4.1,6.5,7.1,8.9c0.4,0,0.1-0.2,0.2-0.3 c0-0.2,0-0.4,0-0.6c0.2-0.1,0.4-0.3,0.3-0.5c-0.2-0.3-0.5-0.1-0.8-0.2l0,0c0-0.4,0.1-0.8,0.4-1.1c0.3-0.1,0.3-0.5,0.5-0.7 c0.3-0.6,0.4-1.2,0.3-1.8c0.2-0.2,0.3-0.3,0.5-0.5c1-0.3,0.6-0.8,0.2-1.5c-0.1-0.2-1.1-0.6-0.1-1c0.2,0.1,0.4,0.1,0.6,0.2 c0.5,0.5,0.7-0.1,0.8-0.3c0.3-0.5,0.2-1,0-1.5c0.1-0.1,0.2-0.1,0.2-0.2c0.1-0.1,0.1-0.2,0.2-0.2l0,0c0.7-0.1,0.6-0.7,0.6-1.1 c0-0.4,0.2-0.7,0.4-0.9l0,0c0.1-0.1,0.1-0.2,0.2-0.2l0,0c1.2-0.2,1.1-1,0.9-1.8c0.3-0.2,0.5-0.3,0.8-0.5c0.4-0.1,0.9,0.2,1.1-0.3 c0.2-0.5-0.5-0.6-0.5-1c-0.1-0.4-1.1-0.3-0.5-1c0.5,0.2,1,0.4,1.5,0.6c0.4-0.1,0.9,0.2,1.1-0.3c0.2-0.5-0.3-0.8-0.6-1.1 c-0.2-0.3-1-0.4-0.5-1.1l1.6,0.7c1.2,0.3,1.6,0,1.8-1.1c0-0.4,0.5-0.3,0.6-0.6c0.2-0.2,0.3-0.4,0.5-0.5c0,0,0.1-0.1,0.1-0.1 C122.9,142.3,122.9,142.3,122.8,142.2 M118.1,127c-0.3,2.3-0.5,4.3-0.1,6.3c0.4,2.5,1.3,4.7,3.2,6.5c0.9,0.9,2.1,1.5,3.4,1.1 c1.4-0.5,1.6-1.8,1.6-3c0.1-2.9-1.1-5.3-3.4-7.1C121.3,129.6,119.6,128.6,118.1,127"/><path class="st0" d="M102.9,46.6c0.7-1,1.9-0.8,2.8-1.2c0.3-0.1,1.1-0.1,0.3-0.7c2-0.4,4-0.7,6-1.2c3.8-0.9,7.7-1.1,11.3-2.9 c1.2-0.6,2.1-1.2,2.7-2.4c0.1-0.3,0.4-0.6,0.6-0.9c0.2,0,0.4,0,0.6,0c0,0.3,0,0.6,0,0.9c-0.1,0.6-0.2,1.2-1,1.4 c-0.2,0-0.2,0.3-0.2,0.5l0,0c-1.2,0.1-2,1.1-1.7,2.3c-1.7,3.1-3,6.3-3.3,9.8c-0.2,2.3,0.7,3.5,2.7,3.4l0.7,0.7 c-0.6,0.4-1.3,0.6-2.1,0.4c-2.3-0.8-4.7-0.4-7-0.2c-4,0.4-8,1.2-11.8,2.4c-6.5,2.2-12.2,5.5-17.1,10.3c-0.1,0.1-0.2,0.2-0.3,0.3 c-0.6-0.7-1-0.2-1.3,0.3c-0.4,0.7-1,1.1-1.8,1.2c0.6-0.6,1-1.2,0.5-2.2c-0.8-1.6-0.8-3.4-0.8-5.1c0-0.3,0-0.8,0.6-0.9 c0.3,1.8,0.6,3.6,1.1,5.4c0.1,0.3,0.1,0.8,0.5,0.7c0.4-0.1,0.7-0.5,0.4-1c0-0.1,0-0.1-0.1-0.2c-0.8-2.1-0.4-4.2-0.2-6.3 c0-0.2,0.2-0.5,0.6-0.4c0.1,2.1,0.2,4.2,0.8,6.4c0.4-0.3,1-0.4,0.7-1c-0.7-1.7-0.5-3.5-0.5-5.3c0-0.9-0.2-1.8,0.5-2.6 c0.4,0.3,0.3,0.6,0.3,0.9c0.2,1.8,0.3,3.6,0.5,5.3c0,0.4-0.1,1.1,0.5,1c0.5-0.1,1.1-0.4,1.2-1.2c0-0.3,0-0.7-0.1-1 c-0.2-1.1-0.2-2.2,0-3.2c0.1-0.7,0-1.5,0.7-2.1c0.2,1.7,0.3,3.4,0.3,5.1c0,0.2,0,0.6,0.3,0.6c0.2,0,0.4-0.2,0.6-0.4 c0.3-0.3,0.2-0.6,0.1-1c-0.1-1-0.2-2-0.1-3c0-1.2,0.2-2.4,0.8-3.6c0.2,0.4,0.2,0.8,0.2,1.2c0.1,1.6,0.1,3.2,0.2,4.8 c0,0.2-0.1,0.8,0.4,0.5c0.5-0.2,1.1-0.5,0.9-1.3c-0.4-1.4-0.1-2.9-0.1-4.3c0-0.7,0.1-1.5,0.7-2.1c0.3,0.5,0.2,0.8,0.2,1.2 c0,1.5,0,2.9,0,4.4c0,0.3-0.2,0.8,0.3,0.8c0.4,0,0.9-0.3,0.9-0.8c0-0.1,0-0.3,0-0.4c0.1-1.9,0.4-3.7,0.9-5.5c0.1-0.2,0-0.6,0.4-0.5 c0.4,0.1,0.2,0.4,0.2,0.6c-0.2,1.6-0.4,3.1-0.3,4.7c0,0.3-0.2,0.7,0.2,0.7c0.3,0.1,0.5-0.2,0.7-0.4c0.2-0.2,0.2-0.6,0.2-0.8 c-0.1-0.9,0-1.7,0.1-2.6c0.2-1.4,0.6-2.7,1.3-3.9c0,1.8-0.2,3.6-0.4,5.4c0,0.3-0.3,1,0.4,1c0.6,0,0.7-0.5,0.7-1 c-0.1-1.6,0.2-3.2,0.7-4.7c0.2-0.7,0.4-1.6,1.1-2.1c0.2,0.5,0,1-0.1,1.4c-0.3,1.5-0.4,3-0.4,4.6c0,0.3-0.2,0.9,0.4,0.9 c0.6,0,0.7-0.4,0.7-0.9c0-1.8,0.4-3.5,0.8-5.3c0.1-0.3,0.1-0.8,0.5-0.8c0.4,0.1,0.3,0.5,0.2,0.9c-0.1,1.6-0.3,3.2-0.4,4.8 c0,0.3-0.2,0.9,0.5,0.9c0.6,0,0.6-0.4,0.6-0.8c-0.1-1.6,0.2-3.2,0.7-4.7c0.1-0.4,0.2-1,0.9-1.2c-0.3,1.8-0.4,3.5-0.5,5.2 c0,0.3-0.3,0.9,0.4,0.9c0.6,0,0.6-0.5,0.6-0.9c0.1-1,0.2-2.1,0.4-3.1c0.1-0.7,0.3-1.5,0.9-2.1c0.2,0.5,0.1,1,0,1.4 c-0.1,1.2-0.1,2.4-0.2,3.6c0,0.4,0,0.7,0.5,0.7c0.5,0,0.6-0.2,0.6-0.7c0.1-1.5,0.4-3,0.9-4.5c0.1-0.4,0.2-0.9,0.7-1 c0.2,0.3,0.1,0.5,0,0.7c-0.3,1.4-0.4,2.9-0.4,4.3c0,0.4-0.1,0.9,0.4,0.9c0.5,0,0.3-0.5,0.3-0.8c0-0.6,0-1.2,0.1-1.8 c0.3-1.8,0.9-3.4,1.8-5.2c0.4,0.6,0.2,1,0.1,1.4c-0.3,1.8-0.7,3.6-0.8,5.4c0,0.5,0.1,0.9,0.7,0.7c0.4-0.1,1,0.1,0.9-0.7 c-0.3-2.4,0.6-4.5,1.4-6.6c0.1-0.2,0.1-0.4,0.5-0.4c0.2,0.4,0,0.7-0.1,1.1c-0.4,1.9-0.6,3.8-0.6,5.7c0,0.4,0.1,0.8,0.6,0.8 c0.4,0,0.8-0.2,0.7-0.8c-0.5-2.2,0.5-4.1,1.1-6.1c0.1-0.4,0.2-0.9,0.9-1c-0.1,0.8-0.1,1.6-0.2,2.4c-0.2,1.5,0,3,0.1,4.5 c0,0.4,0.2,0.8,0.6,0.7c0.5-0.1,0.1-0.5,0.1-0.7c-0.4-1.7-0.3-3.3,0.1-5c0.5-2.4,1.7-4.6,3-6.8c-1.4,0.4-2.6,0.8-3.8,1.1 C113.6,44.8,108.1,45.1,102.9,46.6"/><path class="st0" d="M98.6,146.3c-1-0.3-1.7-0.8-1.7-2c0.7-0.6,0.5-1.1,0-1.7c-1.3-1.5-2.5-3.1-3.4-4.9c-0.5-1-0.5-1.3-0.2-2.1 c0.6,2.4,2.2,4,3.8,5.6c0.2,0.2,0.3,0.6,0.7,0.4c0.2-0.1,0.3-0.5,0.3-0.8c0.1-0.5-0.1-0.8-0.5-1c-1.2-1-2.1-2.3-2.9-3.6 c-0.6-1-0.8-1.9-0.4-2.7c0.7,2.2,2.2,3.7,3.9,5.1c0.2,0.2,0.4,0.6,0.7,0.3c0.3-0.3,0.5-0.7,0.1-1.1c-0.2-0.2-0.4-0.5-0.6-0.7 c-1-1.4-2.1-2.7-2.8-4.3c-0.3-0.7-0.3-0.7,0-1.5c0.8,2,2.2,3.4,3.5,4.8c0.2,0.2,0.4,0.6,0.7,0.2c0.2-0.3,0.5-0.6,0.2-1 c-0.2-0.2-0.3-0.4-0.5-0.6c-1.1-1.4-2.2-2.7-2.9-4.3c-0.2-0.4-0.3-0.9-0.1-1.3c0.5,0.3,0.7,0.8,0.9,1.2c0.7,1.3,1.7,2.3,2.6,3.5 c0.5,0.7,0.8,0.4,1.1-0.2c0.2-0.5,0-0.7-0.3-1c-0.9-1-1.6-2-2.3-3.1c-0.4-0.7-0.9-1.5-0.8-2.7c1,1.8,2.1,3.2,3.3,4.5 c0.3,0.3,0.5,1,1.1,0.5c0.6-0.5,0.5-1,0-1.5c-1.2-1.2-2.1-2.5-2.8-4c-0.2-0.5-0.6-1-0.3-1.6c0.6,0.3,0.8,0.8,1,1.2 c0.8,1.4,1.8,2.5,3,3.6c0.3,0.3,0.7,0.7,1.2,0.2c0.5-0.5,0.2-0.8-0.2-1.2c-1-1.2-2-2.4-2.7-3.8c-0.2-0.5-0.7-1.1-0.2-1.9 c0.9,2.1,2.3,3.5,3.8,4.9c0.3,0.3,0.6,0.7,1,0.2c0.4-0.4,0.2-0.8-0.1-1.1c-0.9-1-1.6-2.1-2.3-3.3c-0.3-0.5-0.6-1-0.4-1.9 c0.3,0.5,0.6,0.8,0.8,1.1c0.8,1.3,2,2.3,3,3.4c0.4,0.5,0.8,0.4,1.3,0c0.5-0.5,0-0.7-0.3-1c-0.7-0.9-1.5-1.7-2.2-2.5 c-0.4-0.6-0.9-1.2-0.8-2.1c0.6,0.1,0.8,0.5,1,0.9c0.8,1.3,1.9,2.3,3.1,3.4c0.5,0.5,0.9,0.1,1.2-0.2c0.5-0.4,0-0.6-0.2-0.9 c-0.7-0.8-1.4-1.6-2-2.4c-0.7-0.9-0.9-1.5-0.9-2.4c1.1,1.5,2.5,2.8,3.9,3.9c0.4,0.3,0.8,0.6,1.2,0.1c0.5-0.6-0.2-0.7-0.4-0.9 c-0.9-1-1.8-2-2.5-3.1c-0.3-0.5-0.6-1.1-0.6-1.8c0.3,0,0.5,0.1,0.5,0.3c0.9,1.6,2.3,2.7,3.7,3.8c0.4,0.4,0.7,0.4,1.1-0.1 c0.4-0.5,0.3-0.8-0.1-1.1c-0.5-0.5-1.1-1-1.5-1.6c-0.9-1.1-1.9-2.1-2.3-3.5c0.7,0,0.9,0.5,1.2,0.8c1,1.2,2.2,2.1,3.4,3 c0.3,0.2,0.6,0.5,0.9,0c0.2-0.4,0.3-0.7-0.1-1.1c-0.5-0.5-1.1-0.9-1.6-1.4c-0.9-1-1.9-2-2.3-3.4c0.6,0,0.7,0.5,1,0.7 c1.1,1,2,2.1,3.4,2.8c0.3,0.1,0.6,0.3,0.8,0c0.2-0.3,0-0.6-0.3-0.7c-1.7-1.1-2.6-2.9-3.4-4.8c-0.6-1.5-0.8-3.1-1.2-4.8 c-0.7,1.2-1.1,2.3-1.7,3.3c-2.4,3.4-5.4,6-8.8,8.4c-5.4,3.8-9.3,8.7-11.7,14.9c-0.2,0.6-0.2,1.1,0,1.7c-0.6,0-0.9-0.2-1-0.9 c-0.1-0.9-0.6-1.7-0.5-2.6c0.3,0.5,0.5,0.2,0.7-0.1c1.2-2.3,2.5-4.6,4.2-6.6c2.9-3.6,6.4-6.5,9.9-9.4c3.6-2.9,6.7-6.1,8.6-10.4 c0.2,0.8,0.8,0.8,1.4,0.9c0.3,1.4,0.4,2.9,0.9,4.2c0.9,2.8,2.4,5,5.6,5.6c0.2,0.9,1.2,0.3,1.6,1c-0.3,0.2-0.6,0.3-0.9,0.3 c-1.4,0-2.2,0.8-2.8,2c-1.6,3.5-4.2,6.1-7.4,8.1c-5.1,3.2-8.5,7.7-10.1,13.5c-0.5,1.8-1,3.6-1.6,5.3 C98.3,145.6,98.4,145.9,98.6,146.3"/><path class="st0" d="M47,176.6c0.6-0.1,1,0.4,1.5,0.5c1.3,0.4,2.7,0.6,4,0.8c1.7,1.2,2.7,2.9,3.5,4.8c-0.4,0.1-0.4,0.2-0.3,0.6 c0.4,1,0.1,2.2,0.7,3.3c-1.5,1.5-2.6,3.3-4.8,3.9c-2,0.5-4.2,0.7-6.2,0.2c-3.2-0.8-6.3-0.9-9.8-0.6c1-1,1.9-1.8,2.7-2.8 c2.1-2.6,3.7-5.6,6-8C45.2,178.3,46,177.3,47,176.6 M47.8,189.8c2.3,0,4.4-0.6,5.9-2.7c1.3-1.7,1.3-3.6,0.5-5.5 c-0.8-1.8-2.1-3.1-4.2-3.2c-1.9-0.1-3.5,0.5-4.8,1.9c-2,2.1-3.7,4.5-5.2,7c-0.3,0.5-1.1,1.1-0.9,1.6c0.3,0.7,1.2,0.2,1.8,0.2 C43.1,189.2,45.4,190,47.8,189.8"/><path class="st0" d="M99.3,85.3c-0.2,0-0.5,0.1-0.7,0.1l-0.4,0.1c-0.5,0.1-1.1,0.3-1.6,0.4c-0.2,0-0.5,0-0.7,0.2 c-2,0.8-4,1.7-5.7,3c-3.8,3-6.2,6.9-7.6,11.4c-0.1,0.5-0.3,0.9-0.4,1.4c-0.1,0.2-0.1,0.3-0.2,0.5c0,0.1,0,0.2,0,0.2 c-0.2,0.2-0.2,0.4-0.2,0.7c-0.1,0.5-0.2,1.1-0.3,1.6c0,0.1-0.1,0.1-0.1,0.2c-0.1,0.6-0.2,1.2-0.2,1.8c0,0.1-0.1,0.3-0.1,0.4 c0,0.2,0,0.5,0,0.7c0,0-0.1,0-0.1,0.1c0,0.1,0,0.1,0,0.2c0,0.2,0,0.3,0,0.5c0,0.1-0.1,0.1-0.1,0.2c0,0.1,0,0.1,0,0.2 c-0.2-0.2-0.3-0.4-0.5-0.6c-0.4-0.6-1.2-1.1-0.2-1.9c0.3-0.3,0.6-1.1,0-1.6c-0.2-0.2-0.3-0.6,0-0.8c0.9-0.7,0.7-1.4,0.1-2.2 c-0.3-0.3-0.2-0.8-0.2-1.2c0.2,0,0.4,0,0.6,0c0.7-0.2,1.3-0.4,1-1.3c-0.1-0.4,0-0.6,0.4-0.8c0.7-0.3,0.9-1,0.8-1.7 c-0.1-0.5-0.2-0.9-0.3-1.4c0.1,0,0.2,0,0.2,0c0.6,0,1-0.3,1.1-0.9c0-0.4,0.2-0.6,0.6-0.7c0.9-0.2,1-0.9,1-1.7c0-0.4,0-0.6,0.4-0.6 c1.1,0,1.2-0.6,0.9-1.5c-0.1-0.3-0.1-0.5,0.2-0.7c0.1,0,0.1,0,0.1,0.1c0.7,0.3,1.2,0.2,1.4-0.6c0.1-0.3,0.2-0.6,0.6-0.6 c0.8,0,1.2-0.7,1.6-1.2l0.1,0l0.1,0c0.9,0.1,1.7,0.1,1.8-1.2c0.1,0,0.3,0,0.4,0c0.9,0.5,1-0.7,1.6-0.8l0.1,0l0.1,0 c0.9,0.2,1.3-0.3,1.6-1.1c0.1,0,0.1,0.1,0.2,0.1c1,0.8,1.5,0.2,2-0.6c0.1,0,0.2,0.1,0.2,0.1c0.8,0.2,1.5,0.3,2-0.5 c0.2,0.1,0.4,0.2,0.6,0.3c0.6,0.3,1.1-0.1,1.6-0.3c0.1,0,0.2,0,0.2,0.1c0.2,0.1,0.6,0.3,0.7,0.3c1.1-0.8,2.3,0,3.4-0.5l0.1,0l0.1,0 l1.9-0.1c0.3,0,0.6,0,0.9,0c0.5,0.5,1,0,1.5-0.1l0.7,0.2c0.5,0.1,1,0.3,1.5,0c0.2,0.2,0.4,0.2,0.7,0.2c0.5,0.1,0.9-0.1,1.4-0.3 c0.2,0.2,0.4,0.3,0.5,0.5c0.8,0.6,1.3,0.1,1.8-0.4c0.4,0.3,0.6,0.7,1.1,0.9c0,0.2,0.1,0.5-0.2,0.6c-0.5,0-0.9,0-1.4,0 c-0.3-0.3-0.7-0.1-1.1-0.1l-1.1,0c-0.6-0.4-1.2-0.1-1.8-0.1c-0.5,0-0.9,0-1.4,0c-0.4-0.3-0.9-0.1-1.3-0.1l-1.4,0 c-1-0.4-1.9,0-2.9-0.1c-0.8,0-1.5,0.1-2.3,0.1c-0.7,0.1-1.4-0.1-2,0.3l-1.1,0.1c-0.3,0-0.6-0.1-0.9,0.2c-0.3,0-0.6,0.1-0.9,0.1 L99.3,85.3z"/><path class="st0" d="M17.3,120.2c0.5,0,1-0.1,1.5,0.2c0.6,0.4,1.3,0.3,1.9-0.1c1.8-1.2,3.8-1.5,5.9-1.3c0.7,0.3,1.4,0.7,2.1,1 c0.2,0.4,0.7,0.6,1.1,0.6c0.3,2.7,0.2,5.2-1.5,7.4c-0.9,1.2-2,2-3.4,2.6c-3,1.2-5.8,2.9-8.7,4.4c-0.4,0.2-0.7,0.6-1.1,1 c-0.4-0.2-0.2-0.6-0.2-0.9c-0.2-4.9,0.3-9.8,2.2-14.4C17.3,120.6,17.3,120.4,17.3,120.2 M16.1,132.1c0,0.3,0,0.5,0,0.8 c0.1,0.3-0.2,0.6,0.1,0.8c0.3,0.2,0.5-0.2,0.8-0.3c2.3-1.5,4.8-2.6,7.4-3.6c1.8-0.7,3.2-2,4-3.7c1.6-3.1,0.4-5.9-2.7-6.3 c-3-0.4-5.4,0.8-7.2,3.2C16.6,125.7,16.2,128.9,16.1,132.1"/><path class="st0" d="M10.2,78.2c0.2,0.1,0.4,0.4,0.5,0.4c1.4-0.5,2.7-0.2,4,0.3c0.2,0.1,0.4,0,0.5-0.1c1.1,0.7,2.3,1.3,2.7,2.6 c0,0.2,0,0.5,0.2,0.6c0,0.2,0.1,0.4,0.1,0.7c0,0.4-0.1,0.7,0.1,1.1c0.1,0.6,0.2,1.3,0,1.9c0,0.1,0,0.2,0,0.4 c0.1,0.2-0.1,0.5,0.2,0.6c0,0.2,0,0.5,0,0.7c-1.1,1.4-1.6,3.1-2.5,4.7c-1.2,2-2.1,4.1-4.1,5.6c-0.2-1-0.4-1.9-0.6-2.8 c-0.4-2.3-1.7-4.1-2.7-6.2c-1.1-2.4-1.7-5-0.9-7.7C8.4,79.8,9,78.8,10.2,78.2 M13,95.8c0.3-0.2,0.4-0.3,0.5-0.4 c1.7-3,3.2-6.2,3.5-9.7c0.2-1.5,0-3.1-0.8-4.5c-0.9-1.6-3.4-2.7-4.7-2c-1.6,0.9-2.6,2.2-2.7,4.1c0,2.5,0.5,5,1.9,7.1 C11.8,92,12.8,93.6,13,95.8"/><path class="st0" d="M24.8,152.9c-0.4,0-0.6,0.3-0.7,0.6c-0.4,1.9-1.7,2.8-3.4,3.3c-2.7-0.8-3.8-3-4.4-5.4 c-0.9-3.3-0.4-6.5,0.6-9.7c0.5-1.5,0.7-3.1,1-4.9c1,1.7,2.1,3.1,3.2,4.5c-0.5,0.5,0.1,0.9,0.2,1.4c0.1,0.1,0.1,0.3,0.3,0.2l0,0 c0.1,0.8,0.6,1.3,1,1.9C24.1,147.3,25.2,149.9,24.8,152.9 M17.2,148.7c0,1.3,0.3,3.1,1.1,4.8c0.6,1.2,2.1,2.4,3.1,2.3 c1-0.1,2-1.3,2.2-2.9c0.3-2,0-4-1-5.7c-1.2-2-2.4-4-3.6-6c-0.2-0.2-0.3-0.6-0.7-0.5c-0.3,0-0.3,0.4-0.4,0.6 C17.4,143.5,17.1,145.8,17.2,148.7"/><path class="st0" d="M119.2,84.8c0.2-0.2,0.2-0.4,0.2-0.6c0.3-0.1,0.7,0.2,1.1-0.2c-2.2-2.1-2.8-4.7-2.5-7.6 c0.2-1.6,0.6-3.1,1.3-4.6c0.2-0.4,0.5-0.9-0.4-0.8c-0.5-0.8-1.2-0.2-1.8-0.3c0.7-0.3,1.4-0.2,2.1-0.3c0.7-0.1,1.4-0.3,1.9-1 c0,0.9-0.1,1.8-0.1,2.7c-0.4,1.2-0.9,2.4-1.1,3.7c-0.3,2.9-0.2,5.7,2.2,7.9c0.2,1.4,1.3,1.3,2.2,1.4 C122.6,85.3,120.9,84.9,119.2,84.8"/><path class="st0" d="M121.3,115.8c-0.4-0.6-1.4-0.1-1.6-1c1.6-0.1,2-0.5,2.5-2c0.5-1.7,0.2-3.2-0.6-4.7c-1.9-3.7-4.9-6.3-8.3-8.7 c-0.2,2-0.1,3.8,0,5.6c-0.6,0-1.2-0.1-1.4-0.9c0.3-1.8,0.7-3.5,0.5-5.4c0-0.2,0-0.5,0.2-0.6c0.5-0.2,0.6,0.4,1,0.5 c0.3,0.3,0.5,0.7,1,0.6l0,0c0.6,1,1.6,1.6,2.6,2.1l0,0c0.1,0.3,0.2,0.6,0.7,0.5l0,0c0,0.5,0.4,0.6,0.8,0.8l0,0 c0.1,0.2,0.2,0.4,0.5,0.4l0,0c0.1,0.2,0.2,0.4,0.5,0.5l0,0c0,0.2,0.1,0.2,0.2,0.2l0,0c0,0.2,0.1,0.3,0.3,0.3 c1.9,2.2,3.5,4.6,3.4,7.7C123.3,113.5,123,115,121.3,115.8"/><path class="st0" d="M80.2,100.8c0,0.4-0.1,0.8,0.2,1.2c0.6,0.8,0.8,1.5-0.1,2.2c-0.3,0.2-0.2,0.5,0,0.8c0.5,0.6,0.3,1.3,0,1.6 c-1,0.8-0.3,1.3,0.2,1.9c0.2,0.2,0.3,0.4,0.5,0.6c0,0.5,0.2,1.1-0.1,1.6c0-0.6,0.1-1.2-0.9-0.7c-0.2,0.1-0.5-0.1-0.8-0.1 c0.3-1.2-0.3-2.4-1.5-2.8c-0.5-0.6,0.5-1,0.2-1.6c0.6,0.3,0.8,1.2,1.6,1.4c0-0.7,0.4-1.3-0.2-1.9c-1.7-1.9-2.7-4.2-3.6-6.5 c-0.3-0.8-0.6-1.8,0.2-2.9c0.5,3.3,2,5.9,3.9,8.5c0.4-0.8,0.3-1.3-0.1-1.9c-1.4-1.9-2.4-4-2.9-6.3c-0.1-0.6-0.3-1.2,0.1-2.1 c0.2,0.8,0.3,1.2,0.4,1.6C77.8,97.4,79.1,99.1,80.2,100.8"/><path class="st0" d="M124.3,84.9c-1-0.1-2.1,0-2.2-1.4c2,0.7,3.1,0.3,4-1.7c0.8-1.6,0.8-3.3,0.8-5c0.1-3.1-1.8-5.5-2.7-8.3 c-0.2-0.6-0.7-0.5-1.1-0.1c-0.9,1-1.5,2.3-2.2,3.4c0-0.9,0.1-1.8,0.1-2.7l0,0c0.1-0.1,0.1-0.2,0.2-0.2c0.6-0.7,1.2-1.4,1.8-2.1 c0.4-0.5,0.7-1,0.9-1.7c0.8,0.7,0.3,1.7,0.8,2.5c-0.1,0.3,0.1,0.6,0.2,1c0.9,2.6,2.3,5,2.8,7.8c0.1,2.2,0,4.5-1.1,6.5 C126.2,83.9,125.5,84.6,124.3,84.9"/><path class="st0" d="M126,40.2c0-0.2,0-0.4,0.2-0.5c0.8-0.2,0.8-0.8,1-1.4c0.3,2.1,0.6,4.3,0.8,6.4c0.3,3.6,0,7.2-2.2,10.3 c-0.4,0.5-0.7,1.1-1.4,1.3c-0.2-0.2-0.5-0.4-0.7-0.7c1.7-0.7,2.5-2.2,2.9-3.9c0.7-3.6,0.8-7.2,0-10.8 C126.5,40.7,126.6,40.2,126,40.2"/><path class="st0" d="M111.7,71c-0.5,0.4-1.1,0.2-1.7,0.2c-2.2,0.1-4.4,0.2-6.5,0.3c0.5-0.3,1.2-0.2,1.7-0.3 C107.4,71.2,109.5,71.1,111.7,71"/><path class="st0" d="M114.7,169.6c-0.7-0.2-1.1-0.5-0.7-1.3C114.4,168.7,114.6,169.1,114.7,169.6"/><path class="st0" d="M106.9,84.4c1,0.1,1.9-0.3,2.9,0.1C108.8,84.5,107.8,84.6,106.9,84.4"/><path class="st0" d="M102.6,84.7c0.6-0.4,1.3-0.1,2-0.3C103.9,84.6,103.3,84.6,102.6,84.7"/><path class="st0" d="M115.5,70.6c-0.6,0.4-1.3,0.1-2,0.3C114.2,70.7,114.8,70.6,115.5,70.6"/><path class="st0" d="M113.8,84.5c0.6,0.1,1.2-0.2,1.8,0.1C115,84.7,114.4,84.7,113.8,84.5"/><path class="st0" d="M111.1,84.4c0.4,0,0.9-0.2,1.3,0.1C112,84.6,111.6,84.7,111.1,84.4"/><path class="st0" d="M116.7,84.7c0.4,0,0.8-0.1,1.1,0.1C117.5,84.8,117.1,84.9,116.7,84.7"/><path class="st0" d="M102.3,71.6c-0.3,0.3-0.7,0.2-1.1,0.2C101.6,71.6,101.9,71.6,102.3,71.6"/><path class="st0" d="M127.2,37.4c-0.2,0-0.4,0-0.6,0C126.7,37.1,126.9,36.7,127.2,37.4"/><path class="st0" d="M100.6,85c0.2-0.3,0.6-0.2,0.9-0.2C101.2,85,100.9,85,100.6,85"/><path class="st0" d="M80.8,113.2c-0.2-0.3-0.2-0.6-0.1-0.9C80.8,112.6,80.8,112.9,80.8,113.2"/><path class="st0" d="M100.5,71.9c-0.2,0.3-0.6,0.2-0.9,0.2C99.9,71.9,100.2,71.9,100.5,71.9"/><path class="st0" d="M105.3,44.8c-0.2,0.3-0.6,0.2-0.9,0.2C104.7,44.8,105,44.8,105.3,44.8"/><path class="st0" d="M99.2,72.2c-0.2,0.3-0.6,0.2-0.8,0.2C98.6,72.2,98.9,72.2,99.2,72.2"/><path class="st0" d="M94.5,73.5c-0.2,0.2-0.4,0.2-0.6,0.2C94.1,73.5,94.3,73.5,94.5,73.5"/><path class="st0" d="M96.1,73c-0.2,0.2-0.4,0.2-0.6,0.2C95.6,73,95.8,73,96.1,73"/><path class="st0" d="M98.1,72.5c-0.2,0.2-0.4,0.2-0.7,0.2C97.6,72.4,97.8,72.4,98.1,72.5"/><path class="st0" d="M96,86.1c0.2-0.2,0.4-0.2,0.7-0.2C96.4,86.1,96.2,86.2,96,86.1"/><path class="st0" d="M81.8,103.3c0-0.2-0.1-0.5,0.2-0.7C82,102.9,82,103.1,81.8,103.3"/><path class="st0" d="M81.4,115.2c-0.3-0.2-0.2-0.4-0.2-0.7C81.4,114.7,81.4,115,81.4,115.2"/><path class="st0" d="M103.7,45.1c-0.2,0.2-0.4,0.2-0.6,0.2C103.3,45.2,103.5,45.1,103.7,45.1"/><path class="st0" d="M99.1,46.4c-0.2,0.2-0.4,0.2-0.6,0.2C98.6,46.5,98.8,46.4,99.1,46.4"/><path class="st0" d="M102.6,45.4c-0.2,0.2-0.4,0.2-0.6,0.2C102.2,45.4,102.4,45.4,102.6,45.4"/><path class="st0" d="M82,102.4c0.1-0.2,0.1-0.3,0.2-0.5C82.2,102.1,82.2,102.3,82,102.4"/><path class="st0" d="M98.2,85.5l0.4-0.1L98.2,85.5z"/><path class="st0" d="M99.3,85.3l0.4-0.2L99.3,85.3z"/><path class="st0" d="M81.1,107.4c0-0.1,0.1-0.3,0.1-0.4C81.3,107.1,81.2,107.2,81.1,107.4"/><path class="st0" d="M101.5,45.7c-0.1,0.1-0.3,0.1-0.4,0.2C101.2,45.8,101.4,45.7,101.5,45.7"/><path class="st0" d="M90.3,50.1c-0.1,0.1-0.3,0.2-0.4,0.2C90,50.3,90.1,50.2,90.3,50.1"/><path class="st0" d="M81.6,115.6c-0.1-0.1-0.1-0.3-0.2-0.4C81.6,115.3,81.6,115.5,81.6,115.6"/><path class="st0" d="M115,170.1c0,0-0.1-0.1-0.1-0.2C115,169.9,115,170,115,170.1"/><path class="st0" d="M114.9,169.9c-0.1-0.1-0.1-0.2-0.2-0.2C114.8,169.7,114.8,169.8,114.9,169.9"/><path class="st0" d="M121.3,69c-0.1,0.1-0.1,0.2-0.2,0.2C121.1,69.1,121.1,69,121.3,69"/><path class="st0" d="M81.4,105.1c0-0.1,0-0.1,0.1-0.2C81.5,105,81.5,105,81.4,105.1C81.5,105.1,81.5,105.1,81.4,105.1"/><path class="st0" d="M81,108.3c0,0,0-0.1,0-0.2c0,0,0,0,0.1-0.1C81.1,108.1,81.1,108.2,81,108.3"/><path class="st0" d="M80.9,108.9c0-0.1,0-0.1,0.1-0.2C81,108.8,81,108.9,80.9,108.9C81,108.9,81,108.9,80.9,108.9"/><path class="st0" d="M80.7,111.6c0-0.1,0-0.1-0.1-0.2c0,0,0,0,0.1-0.1C80.8,111.5,80.8,111.6,80.7,111.6"/><path class="st0" d="M82.1,117c0-0.1-0.1-0.1-0.1-0.2C82,116.8,82,116.9,82.1,117"/><path class="st0" d="M77.6,85.8c0,0.1-0.1,0.1-0.1,0.2C77.5,85.9,77.5,85.9,77.6,85.8"/><path class="st0" d="M98.9,146.8c-0.1,0-0.1-0.1-0.1-0.2C98.8,146.6,98.9,146.7,98.9,146.8"/><path class="st0" d="M99.2,147.2c-0.1-0.1-0.1-0.1-0.2-0.2C99.1,147.1,99.1,147.1,99.2,147.2"/><path class="st0" d="M121.4,197.4c-0.4-1.1-1.3-1.7-2.2-2.2c-2.9-1.6-5.8-3-8.8-4.5c1.2-0.3,2.8,0.2,5.6,1.6c1.7,0.9,3.3,1.9,5,2.7 c-2.7-2.8-6.3-4.1-10-5.7c1.3-0.5,2.2-0.3,3,0.2c2.4,1.1,4.5,2.5,6.9,4c0-0.7-0.4-1-0.8-1.3c-2.3-2-5.1-3.1-7.8-4.2 c-0.5-0.2-0.5-0.2-0.9-0.9c2-0.1,3.6,0.7,5.2,1.5c1.1,0.6,2.1,1.3,3.1,1.9c0.3,0.2,0.7,0.6,1,0.3c0.3-0.4-0.1-0.8-0.3-1.1 c-1-1.2-2.3-1.8-3.7-2.4c-1.8-0.8-3.6-1.5-5.3-2.3c-0.3-0.1-0.5-0.3-1-0.6c1.1-0.2,1.9-0.1,2.7,0.1c2.1,0.6,4,1.6,5.9,2.7 c0.4,0.3,0.8,0.6,1.4,0.7c0.3,0.5,0.5,1,0.9,1.4c0.4,0.5,0.7,1,0.1,1.5c-0.1,0.1-0.2,0.2-0.2,0.3c0.5,0.9,0.1,1.9,0.5,2.8 c0.2,0.5,0.4,0.8,0.2,1.3c-0.2,0.4,0,0.8,0.2,1.1C122.2,196.8,122.1,197.3,121.4,197.4"/><path class="st0" d="M33.5,71.2c0.3,0,0.6,0.2,0.8,0.4C33.9,71.6,33.6,71.7,33.5,71.2"/><path class="st0" d="M120,144.6c0.5,0,0.9-0.2,1-0.6c0.1-0.5-0.5-0.4-0.8-0.6c-1.9-1.2-3.3-2.7-4.3-4.9c0.7,0.1,1,0.5,1.3,0.9 c1.1,1.3,2.5,2.4,4,3.3c0.4,0.2,0.8,0.2,1.2,0.2c-0.2,0.2-0.6,0.1-0.6,0.6C121.6,144.7,121.2,144.9,120,144.6"/><path class="st0" d="M112.8,154.9c0.3-0.6,0.3-1-0.3-1.4c-1.7-1.2-3-2.8-4-4.6c-0.1-0.2-0.2-0.5-0.3-0.7c0-0.1,0-0.2,0-0.7 c1.8,2.2,3.4,4.1,5.5,5.6c0.2,0.5,0.2,1,0,1.5C113.4,154.9,113.2,155.4,112.8,154.9"/><path class="st0" d="M110.3,161.3c-2.3-2-3.8-4.4-4.7-7.3c1.6,2.2,3.4,4.1,5.2,6.2C110.4,160.5,110.3,160.9,110.3,161.3"/><path class="st0" d="M111.2,159.5c0-0.5-0.2-0.7-0.5-1c-1.5-1.6-2.9-3.4-4-5.3c-0.3-0.5-0.6-0.9-0.5-1.8c1.9,2.2,3.2,4.6,5.4,6.3 C111.6,158.3,111.5,158.9,111.2,159.5"/><path class="st0" d="M115.3,150.4c0.4-0.7,0.1-1-0.4-1.5c-1.6-1.3-3-2.8-3.8-4.7c-0.1-0.2-0.1-0.3,0-0.6c1.4,2,3.2,3.5,5.1,5 C116.4,149.4,116.4,150.2,115.3,150.4"/><path class="st0" d="M112,157.2c0.1-0.6-0.3-1-0.7-1.4c-1.5-1.5-2.8-3.1-3.8-4.9c-0.2-0.4-0.5-0.8-0.2-1.4c1.2,2.2,2.9,3.8,4.8,5.3 c-0.9,0.4,0,0.8,0.1,1C112.6,156.4,113,156.9,112,157.2"/><path class="st0" d="M80.3,74c-1.1-1.9-1.8-4-1.5-6.3c0-0.3,0-0.6,0.4-0.9c0.5,2,0.8,4.1,1.7,5.9c-0.2,0.1-0.3,0.3-0.1,0.5 c0.2,0.2,0.6,0.2,0.3,0.6C80.9,74.3,80.6,74.2,80.3,74"/><path class="st0" d="M116.9,148c0.4-0.5,0.1-0.7-0.3-1c-1.5-1.1-2.7-2.4-3.7-3.9c-0.3-0.4-0.6-0.8-0.4-1.6c1.5,1.5,2.8,3.1,4.4,4.2 c-0.6,0.7,0.4,0.6,0.5,1c0.1,0.4,0.7,0.5,0.5,1C117.8,148.2,117.3,148,116.9,148"/><path class="st0" d="M78.6,77c-1.1-1.9-1.8-4-1.6-6.2c0-0.4-0.1-0.9,0.5-1.4c0.2,2.2,0.9,4.1,1.7,6C79.2,76,79.4,76.7,78.6,77"/><path class="st0" d="M76.3,81.4c-1.7-2.3-2.6-5-2.8-7.9c1.1,2.2,1.6,4.6,3.2,6.5C76.5,80.4,77.1,81.1,76.3,81.4"/><path class="st0" d="M114,152.6c0.3-0.6,0.1-1-0.4-1.5c-1.3-1.1-2.5-2.4-3.5-3.9c-0.3-0.5-0.7-1-0.5-1.6c0.5,0,0.5,0.3,0.7,0.5 c1,1.7,2.6,3,4.1,4.2c0.2,0.2,0.5,0.2,0.7,0.2c-0.3,0.3-0.4,0.5-0.4,0.9C114.6,152,114.7,152.5,114,152.6"/><path class="st0" d="M118.5,146.4c0.5-0.5,0.1-0.8-0.2-1c-1.3-1-2.3-2.1-3.2-3.4c-0.4-0.5-0.7-1-0.6-2c1.1,1.7,2.6,2.8,4,3.9 c-0.4,0.7,0.3,0.7,0.5,1.1c0.2,0.3,0.8,0.6,0.6,1.1C119.3,146.6,118.8,146.4,118.5,146.4"/><path class="st0" d="M81.8,72.4c0.3-0.5,0.1-0.9-0.1-1.3c-0.9-1.9-0.9-3.9-0.9-6c0-0.2,0.1-0.4,0.4-0.5c0.5,2.2,0.8,4.4,1.6,6.4 C82.1,71.2,82.8,72.4,81.8,72.4"/><path class="st0" d="M76.9,78.5c-1.5-1.8-1.6-4-1.7-6.2c1,1.8,1.4,3.9,2.6,5.6C77.5,78.1,77.2,78.3,76.9,78.5"/><path class="st0" d="M75.1,84.1c0.1-0.9-0.5-1.5-0.9-2.2c-0.7-1.5-1.5-3-1.4-4.8c0.6,1.9,1.5,3.5,2.8,5c-0.2,0.3-0.2,0.7,0,1 C76.1,83.7,75.8,84,75.1,84.1"/><path class="st0" d="M74.3,86.4c-0.3-1.2-0.9-2.1-1.9-2.8c0-0.3,0.1-0.5,0.4-0.4c0.3,0.1,0.6,0,0.8-0.2c0.3,0.5,0.7,1,1,1.5 C74.2,85.1,74.7,85.8,74.3,86.4"/><path class="st0" d="M111.6,72.1c-1.9,0.4-3.7,0.3-5.6,0.4c0-0.2,0.1-0.3,0.3-0.4C108,72,109.8,71.9,111.6,72.1"/><path class="st0" d="M122.6,142c-1.3-0.4-2.4-1-3.2-2.1c0.5,0,0.9,0,1.2,0.4C121.1,141.1,122.2,141.1,122.6,142"/><path class="st0" d="M99.1,47.7c-0.5,0.3-1.1,0.5-1.8,0.6C97.7,47.1,98.5,47.8,99.1,47.7"/><path class="st0" d="M102.5,46.7c-0.5,0.3-1,0.4-1.6,0.5C101.2,46.4,101.8,46.3,102.5,46.7"/><path class="st0" d="M117.1,71.4c-0.5,0.3-1,0.3-1.6,0.3C116,71,116.5,71.2,117.1,71.4"/><path class="st0" d="M71.4,72.8c0.2,0.8,0.2,1.6,0.2,2.4C71.4,74.4,71.5,73.6,71.4,72.8"/><path class="st0" d="M101.7,73c-0.3,0.3-0.7,0.2-1.1,0.2C100.9,72.5,101.3,72.7,101.7,73"/><path class="st0" d="M110.8,162c-0.2-0.2-0.3-0.4-0.5-0.7c0.3,0,0.6-0.2,0.8,0.2C111.3,161.7,111,161.9,110.8,162"/><path class="st0" d="M104.2,72.6c-0.4,0.2-0.8,0.2-1.2,0.2C103.3,72,103.8,72.7,104.2,72.6"/><path class="st0" d="M77.1,79.7c0.1-0.2,0.2-0.4,0.3-0.7c0.2,0.1,0.4,0.2,0.3,0.5C77.5,79.8,77.3,79.7,77.1,79.7"/><path class="st0" d="M100.2,73.2c-0.3,0.2-0.6,0.2-0.9,0.2C99.4,72.7,99.9,73.3,100.2,73.2"/><path class="st0" d="M115.1,71.7c-0.3,0.2-0.6,0.2-0.9,0.2C114.5,71.7,114.8,71.8,115.1,71.7"/><path class="st0" d="M110.6,162.9c0.1-0.1,0.1-0.2,0.2-0.3C110.8,162.7,111,163,110.6,162.9"/><path class="st0" d="M94.1,74.8C94,75,93.9,75.1,93.7,75C93.9,75,94,74.9,94.1,74.8"/><path class="st0" d="M117.9,137.2l-0.2-0.4C117.8,137,117.9,137.1,117.9,137.2"/><path class="st0" d="M90,134.1c0.2,0.1,0.2,0.3,0.2,0.5C90,134.5,90,134.3,90,134.1"/><path class="st0" d="M76.1,81.8c0.1-0.1,0.1-0.3,0.2-0.4C76.3,81.5,76.2,81.7,76.1,81.8"/><path class="st0" d="M96.7,48.5c-0.1,0-0.1,0.1-0.2,0.1C96.6,48.6,96.6,48.5,96.7,48.5"/><path class="st0" d="M113.9,152.9c0.1-0.1,0.1-0.2,0.2-0.2C114,152.7,113.9,152.8,113.9,152.9"/><path class="st0" d="M118.1,71.2c-0.1,0-0.2,0.1-0.3,0.1C117.9,71.3,118,71.2,118.1,71.2"/><path class="st0" d="M97.4,48.3c-0.1,0-0.2,0.1-0.2,0.1C97.2,48.4,97.3,48.3,97.4,48.3"/><path class="st0" d="M73.8,86.9c0.1,0,0.1,0,0.2,0C74,87,73.9,87,73.8,86.9"/><path class="st0" d="M74,86.8c0.1-0.1,0.1-0.2,0.2-0.3C74.2,86.6,74.1,86.7,74,86.8"/><path class="st0" d="M77.3,78.8c-0.1-0.1-0.2-0.1-0.2-0.2C77.1,78.7,77.2,78.8,77.3,78.8"/><path class="st0" d="M71.8,77.3c0,0.1,0,0.1,0,0.2C71.7,77.4,71.7,77.4,71.8,77.3C71.7,77.3,71.7,77.3,71.8,77.3"/><path class="st0" d="M118.1,137.7c0-0.1-0.1-0.1-0.1-0.2C118,137.6,118.1,137.6,118.1,137.7"/><path class="st0" d="M71.7,76.4c0,0.1,0.1,0.1,0,0.2C71.7,76.6,71.7,76.5,71.7,76.4C71.6,76.4,71.7,76.4,71.7,76.4"/><path class="st0" d="M118.6,138.6c0-0.1-0.1-0.1-0.1-0.2C118.5,138.4,118.6,138.5,118.6,138.6"/><path class="st0" d="M118.9,139c0-0.1-0.1-0.1-0.1-0.2C118.8,138.9,118.8,138.9,118.9,139"/><path class="st0" d="M94.8,74.6c-0.1,0-0.1,0.1-0.2,0.1C94.7,74.7,94.8,74.6,94.8,74.6"/><path class="st0" d="M96.6,74c-0.1,0-0.1,0.1-0.2,0.1C96.5,74.1,96.5,74.1,96.6,74"/><path class="st0" d="M122.8,142.2c-0.1-0.1-0.2-0.1-0.2-0.2C122.7,142.1,122.7,142.1,122.8,142.2"/><path class="st0" d="M122.9,142.4c0-0.1-0.1-0.1-0.1-0.2C122.9,142.3,122.9,142.3,122.9,142.4C122.9,142.4,122.9,142.4,122.9,142.4"/><path class="st0" d="M115.1,150.6c0.1-0.1,0.1-0.2,0.2-0.2C115.2,150.4,115.2,150.5,115.1,150.6"/><path class="st0" d="M126,40.2c-0.6,0.8-1.2,1.5-1.7,2.3C124,41.3,124.8,40.3,126,40.2"/><path class="st0" d="M82.9,95.7c0.4-0.6,0.5-1,0-1.7c-1-1.6-2-3.3-2.2-5.3c0-0.4,0-0.8,0.1-1.3c0.5,0.2,0.5,0.7,0.6,1 c0.4,1.7,1.3,3.1,2.1,4.6c0.2,0.3,0.3,0.9,0.8,0.5c0.4-0.2,0.5-0.7,0.2-1.2c-0.5-1.1-1.1-2.2-1.6-3.3c-0.4-1-0.8-2.1-0.5-3.2 c0.4,0,0.4,0.3,0.5,0.5c0.5,1.5,1,3.1,1.9,4.4c0.2,0.3,0.3,1.1,0.9,0.8c0.6-0.3,0.2-0.8-0.1-1.3c-0.7-1.3-1.2-2.6-1.6-4 c-0.2-0.6-0.2-1.3-0.1-2c0.7,2,1.6,3.9,2.9,5.6c-0.3,0.2-0.3,0.4-0.2,0.7c0.4,0.9,0.2,1.5-0.9,1.5c-0.4,0-0.4,0.2-0.4,0.6 c0,0.7-0.1,1.5-1,1.7c-0.4,0.1-0.5,0.4-0.6,0.7C83.9,95.4,83.5,95.7,82.9,95.7"/><path class="st0" d="M80.8,100.9c0.3-0.7,0.2-1.2-0.3-1.8c-1.4-1.9-2.2-4.1-2.7-6.4c-0.1-0.3-0.2-0.6,0.1-0.8 c0.4,0.1,0.4,0.5,0.5,0.8c0.4,1.9,1.4,3.5,2.5,5.1c0.2,0.3,0.3,0.8,0.8,0.6c0.3-0.1,0.4-0.6,0.5-1c0.1-0.5-0.2-0.8-0.5-1.2 c-0.9-1.5-1.7-3-2.2-4.7c-0.2-0.6-0.3-1.2,0-1.8c0.7,2.3,1.7,4.3,3.2,6.1c0.1,0.5,0.2,0.9,0.3,1.4c0.1,0.7-0.1,1.4-0.8,1.7 c-0.4,0.2-0.5,0.4-0.4,0.8C82.1,100.4,81.4,100.7,80.8,100.9"/><path class="st0" d="M87.1,89.7c0.8-0.1,0.6-0.6,0.4-1.1c-0.8-1.3-1.3-2.8-1.7-4.2c-0.2-0.6-0.3-1.2,0.1-2.1 c0.4,1.3,0.6,2.3,1.1,3.2c0.4,0.8,0.8,1.6,1.3,2.3c0.2,0.3,0.5,0.6,0.9,0.3c0.4-0.3,0.3-0.6,0.1-1c-0.6-1.4-1-2.8-1.3-4.3 c-0.1-0.3-0.2-0.7,0.1-1.1c0.6,0.4,0.6,1,0.8,1.5c0.6,1.3,0.7,2.8,1.7,3.9c-0.4,0.6-0.7,1.2-1.6,1.2c-0.4,0-0.5,0.3-0.6,0.6 C88.3,89.9,87.8,90,87.1,89.7"/><path class="st0" d="M103.2,83.5c0.6-0.1,0.4-0.6,0.4-1c0.1-1.3,0-2.7,0.3-4c0.1-0.4,0.1-0.7,0.8-1c0.1,1.6,0.1,3.1,0.2,4.6 c0,0.4-0.2,1.1,0.6,1c0.8,0,0.5-0.6,0.6-1.1c0-1.1-0.1-2.2,0.1-3.3c0.1-0.4,0.1-0.8,0.6-1.1c0.3,1.9,0,3.8,0.6,5.6 c-1.1,0.5-2.3-0.2-3.4,0.5C103.8,83.8,103.5,83.6,103.2,83.5"/><path class="st0" d="M116.5,83.6c0.6-0.2,0.2-0.6,0.1-0.9c-0.4-1.7-0.2-3.3-0.1-5c0-0.3,0-0.7,0.5-0.9c0.3,2.2,0.4,4.4,1.2,6.4 C117.8,83.8,117.3,84.3,116.5,83.6"/><path class="st0" d="M96.6,84.4c0.7,0,0.8-0.3,0.7-1c-0.2-1.5-0.3-3,0-4.5c0-0.2,0.1-0.6,0.4-0.6c0.4,0,0.2,0.4,0.2,0.6 c0.2,1.6,0.4,3.2,0.7,4.8C98.1,84.6,97.5,85.2,96.6,84.4"/><path class="st0" d="M93,86.1c0.3-0.3,0.2-0.7,0.1-1c-0.3-1.4-0.5-2.9-0.5-4.4c0-0.5-0.1-1,0.5-1.5c0.2,2.2,0.5,4.3,1.5,6.1 C94,85.4,93.9,86.6,93,86.1"/><path class="st0" d="M94.7,85.3c0.6-0.3,0.5-0.7,0.4-1.2c-0.4-1.5-0.3-3.1-0.1-4.7c0-0.3,0.1-0.6,0.6-0.9c0.2,1.9,0.3,3.8,0.8,5.7 C96.1,85,95.6,85.5,94.7,85.3"/><path class="st0" d="M90.7,87.2c0.6-0.4,0.8-0.8,0.5-1.5c-0.6-1.4-0.8-2.9-0.9-4.5c0-0.4-0.1-0.8,0.4-1.1c0.5,2.1,0.6,4.2,1.8,5.9 C92.5,87.3,91.6,87.3,90.7,87.2"/><path class="st0" d="M107.4,83.2c0.6-1.4,0.3-2.8,0.6-4.2c0.1-0.6,0-1.2,0.7-1.7c0.4,2,0.1,4,0.6,5.9L107.4,83.2z"/><path class="st0" d="M114.6,83.4c0.1-1.8-0.4-3.6-0.2-5.4c0-0.4,0-0.9,0.5-1.4c0.2,2.3,0.5,4.4,1,6.5 C115.5,83.2,115.1,83.5,114.6,83.4"/><path class="st0" d="M98.8,83.9c0.8,0,0.7-0.6,0.7-1.1c-0.1-1.3-0.2-2.6,0-3.9c0-0.3,0-0.7,0.4-0.6c0.3,0,0.2,0.4,0.2,0.7 c0.1,1.5,0.3,3,0.7,4.5C100.3,84.1,99.6,84.1,98.8,83.9"/><path class="st0" d="M110.2,83.1c0.3-1.8,0-3.6,0.7-5.4c0.5,1.8,0.3,3.6,0.8,5.3C111.2,83.2,110.7,83.6,110.2,83.1"/><path class="st0" d="M101.4,83.7c0.4-0.5,0.2-1.1,0.2-1.6c0-1,0-2,0-3c0-0.4,0-0.8,0.7-1c0.2,1.8,0,3.6,0.7,5.3 C102.5,83.6,102,84,101.4,83.7"/><path class="st0" d="M112.4,83.3c0.5-0.8,0.1-1.6,0.2-2.4c0-1.1-0.1-2.1,0.5-3.2c0.7,1.8,0.2,3.8,0.9,5.5 C113.4,83.5,112.9,83.4,112.4,83.3"/><path class="st0" d="M18.3,82.7c0.2,0.3,0.2,0.7,0.1,1.1C18.2,83.5,18.3,83.1,18.3,82.7"/><path class="st0" d="M18,81.5c0.2,0.2,0.2,0.4,0.2,0.6C18,81.9,18,81.7,18,81.5"/><path class="st0" d="M18.4,85.8c0.1,0.1,0.1,0.3,0,0.4C18.4,86,18.4,85.9,18.4,85.8"/><path class="st0" d="M86.3,130.2c0,0.2,0.1,0.2,0.2,0.2c0,0.5-0.3,0.5-0.7,0.4c-3-0.8-5.9-1.7-8.8-2.8c-0.1,0-0.1-0.2-0.2-0.3 c0.7-0.5,1.5-0.4,2.3-0.3c2.2,0.3,4.1,1.4,6.1,2.3C85.5,130,85.8,130.4,86.3,130.2"/><path class="st0" d="M69.7,78.3c-0.5,0.3-0.8,0.1-1.1,0c-1.8-1-3.6-2-5.4-3c-0.2-0.1-0.6-0.3-0.5-0.6c0.1-0.2,0.4-0.2,0.6-0.2 C65.8,75.3,67.8,76.7,69.7,78.3"/><path class="st0" d="M61.1,64.9c0.6-0.4,1.3-0.3,1.9-0.1c1.9,0.6,3.6,1.6,5.3,2.6c0.2,0.1,0.5,0.3,0.4,0.6 c-0.1,0.2-0.4,0.2-0.6,0.1C65.8,66.9,63.4,66.1,61.1,64.9"/><path class="st0" d="M69.1,72.9c-0.4,0.2-0.7,0.1-0.9,0c-1.7-1-3.6-1.7-5.3-2.5c-0.3-0.1-0.7-0.2-0.6-0.5c0.1-0.4,0.5-0.3,0.9-0.2 c1,0.1,1.9,0.6,2.8,1.1C67,71.2,68.2,71.8,69.1,72.9"/><path class="st0" d="M61.8,72c1.8-0.2,6.6,2.4,7.3,3.9C66.6,74.7,64.3,73.6,61.8,72"/><path class="st0" d="M61.8,67.4c2.6,0.2,4.9,1.2,6.8,2.9c0,0.1-0.1,0.2-0.1,0.3c-2.3-0.9-4.6-1.9-6.8-2.8L61.8,67.4z"/><path class="st0" d="M112.7,169.1c0,0.2-0.1,0.5-0.4,0.4c-2-0.7-3.9-1.5-5.8-2.5C108.8,166.9,110.6,168.4,112.7,169.1L112.7,169.1z"/><path class="st0" d="M69,80.8c-2.3-0.7-4-1.9-5.9-3C64.3,77.6,68,79.5,69,80.8"/><path class="st0" d="M68.4,82.7c-1.5-0.2-2.6-1-3.5-2.1C66.5,80.4,67.3,81.8,68.4,82.7"/><path class="st0" d="M103.7,163.5c1.2-0.1,3.9,1.1,5.1,2.3C106.8,165.2,105.4,164.2,103.7,163.5"/><path class="st0" d="M28.2,27.5c0,0,0,0.1,0,0.2C28,27.5,28.1,27.5,28.2,27.5L28.2,27.5z"/><path class="st0" d="M109.7,208.2c-5.3-0.2-10.4-0.6-15.5-1.5c-1-0.2-2-0.4-3.1-0.6c-0.4-0.1-0.7-0.3-0.8-0.7 c-0.1-0.5,0.4-0.5,0.7-0.6c1.7-0.9,3.1-2.4,4.6-3.5c3.9-2.7,8.1-4.3,12.9-3.4c2.1,0.4,4.1,1.1,5.8,2.5c2.7,2.3,2.2,5.5-1,6.9 C112.1,207.8,110.9,208.1,109.7,208.2 M105.8,198.8c-4.8,0.2-8.7,2.3-12,5.7c-0.2,0.2-0.5,0.4-0.4,0.7c0.1,0.4,0.5,0.2,0.8,0.2 c0.5,0.1,1.1,0.2,1.6,0.3c4.6,0.8,9.3,1.3,14,1.1c1.5-0.1,2.8-0.6,4-1.6c1.1-1,1.3-2.5,0.4-3.6c-0.7-0.8-1.5-1.5-2.6-1.9 C109.7,199.1,107.8,198.8,105.8,198.8"/><path class="st0" d="M119.2,130.4c2.2,1.7,4.4,3.3,5.3,6.1c0.3,0.9,0.4,1.9-0.4,2.6c-0.6,0.4-1.7-0.1-2.4-1.1 C120,135.6,119.5,133,119.2,130.4"/><path class="st0" d="M125.5,43.5c0,2.8,0.6,5.6-0.4,8.4c-0.3,0.8-0.5,2-1.7,1.8c-1.1-0.2-1-1.4-1-2.3 C122.6,48.4,123.9,45.9,125.5,43.5"/><path class="st0" d="M120.7,110.5c-0.3,0.7,0,1.7-1,2.1c-0.8,0.4-2.1-0.1-2.7-0.9c-0.5-0.6-0.7-1.4-1-2.1c-0.7-1.9-1-3.9-1.3-5.9 c0-0.2-0.1-0.5,0.1-0.6c0.1-0.1,0.3,0,0.4,0.1c1.9,2.1,4.3,3.7,5.2,6.6C120.5,110,120.6,110.2,120.7,110.5"/><path class="st0" d="M42.4,187.9c1.2-1.5,2.4-3,3.5-4.5c1.1-1.5,2.6-1.9,4.2-1.3c1.4,0.5,2,1.9,1.3,3.2c-0.7,1.4-1.9,2.1-3.4,2.3 C46.1,187.8,44.3,187.5,42.4,187.9"/><path class="st0" d="M17.7,131c0.8-1.5,1.2-3.1,1.8-4.6c0.5-1.4,1.3-2.6,2.5-3.5c1.2-0.9,2.7-1,3.6-0.1c0.8,0.7,0.9,2.4,0.1,3.5 c-1.1,1.6-2.7,2.5-4.5,3.1C20,129.8,18.8,130.3,17.7,131"/><path class="st0" d="M13.2,92.4c-0.3-0.1-0.4-0.3-0.4-0.5c0-2.2-0.9-4.1-1.5-6.2c-0.4-1.3-0.2-2.6,0.4-3.8c0.4-0.8,0.9-0.8,1.5-0.4 c0.9,0.7,1.5,1.5,1.7,2.6C15.5,87.2,14.4,89.8,13.2,92.4"/><path class="st0" d="M19.3,144.1c1.1,2.1,2.6,4,2.8,6.5c0.1,1.4-0.4,2.8-1.2,2.9c-0.7,0.1-1.6-0.9-1.9-2.3 c-0.3-1.2-0.4-2.3-0.3-3.6C18.8,146.4,19,145.3,19.3,144.1"/><path class="st0" d="M123.3,71.3c1.3,2.6,1.8,5.2,1.7,8.1c0,0.3-0.1,0.5-0.2,0.7c-0.3,0.7-0.7,1.4-1.6,1.4c-0.8,0-1.1-0.7-1.4-1.3 c-1.1-2.4-0.4-4.6,0.6-6.9C122.7,72.7,123.2,72.1,123.3,71.3"/><path class="st0" d="M97.2,204.3c3-1.6,6.1-2.8,9.4-3.3c1.3-0.2,2.6-0.1,3.8,0.6c1.3,0.7,1.3,2.1,0.1,2.9c-0.7,0.5-1.4,0.6-2.2,0.7 c-2.9,0.4-5.6-0.3-8.4-0.6C98.9,204.4,98.1,204.3,97.2,204.3"/></svg>