<svg version="1.1" id="Layer_1" xmlns="http://www.w3.org/2000/svg" x="0px" y="0px" viewBox="0 0 141.7 226.8" style="enable-background:new 0 0 141.7 226.8" xml:space="preserve"><style>.st0{fill:none;stroke:#1D1D1B;stroke-width:1.612;stroke-miterlimit:10}.st1{fill:#1D1D1B}.st2{fill:#FFDC00}.st3{fill:#0080C8}.st5{fill:#DA0812}</style><polyline class="st0" points="60.9,219.6 5.5,219.6 5.5,7.2 60.2,7.2"/><polyline class="st0" points="74.8,7.2 136.3,7.2 136.3,219.6 75.7,219.6"/><path class="st1" d="M13.6,19.7c0.4,0,0.7,0,0.8-0.1c0.2-0.1,0.3-0.2,0.4-0.3c0.1-0.1,0.2-0.3,0.3-0.6h1L16,21.9H8v-0.6 c0.2-0.6,0.6-1.2,1.1-1.8c0.5-0.7,1-1.4,1.7-2.2c0.6-0.7,1.1-1.4,1.4-1.8c0.3-0.5,0.6-0.9,0.7-1.4c0.2-0.4,0.2-0.9,0.2-1.3 c0-0.6-0.1-1.2-0.4-1.5c-0.3-0.4-0.7-0.6-1.2-0.6c-0.5,0-0.9,0.2-1.2,0.5c-0.3,0.3-0.5,0.9-0.7,1.6H8.2v-2.1 c0.7-0.3,1.3-0.5,1.7-0.6c0.4-0.1,0.8-0.2,1.2-0.3c0.4-0.1,0.8-0.1,1.3-0.1c0.9,0,1.6,0.1,2.1,0.3c0.5,0.2,0.9,0.5,1.2,0.9 c0.2,0.4,0.4,0.9,0.4,1.4c0,0.5-0.1,0.9-0.3,1.3c-0.2,0.4-0.5,0.9-0.9,1.4c-0.4,0.5-1.1,1.2-2.1,2.2c-0.4,0.4-0.9,0.9-1.3,1.3 c-0.4,0.5-0.7,0.8-0.9,1.1v0.1H13.6z"/><path class="st1" d="M126.7,207.2c-0.4,0-0.7,0-0.8,0.1c-0.2,0.1-0.3,0.2-0.4,0.3c-0.1,0.1-0.2,0.3-0.3,0.6h-1l0.2-3.2h8v0.6 c-0.2,0.6-0.6,1.2-1.1,1.8c-0.5,0.7-1,1.4-1.7,2.2c-0.6,0.7-1.1,1.4-1.4,1.8c-0.3,0.5-0.6,0.9-0.7,1.4c-0.2,0.4-0.2,0.9-0.2,1.3 c0,0.6,0.1,1.2,0.4,1.5c0.3,0.4,0.7,0.6,1.2,0.6c0.5,0,0.9-0.2,1.2-0.5c0.3-0.3,0.5-0.9,0.7-1.6h1.6v2.1c-0.7,0.3-1.3,0.5-1.7,0.6 c-0.4,0.1-0.8,0.2-1.2,0.3c-0.4,0.1-0.8,0.1-1.3,0.1c-0.9,0-1.6-0.1-2.1-0.3c-0.5-0.2-0.9-0.5-1.2-0.9c-0.2-0.4-0.4-0.9-0.4-1.4 c0-0.5,0.1-0.9,0.3-1.3c0.2-0.4,0.5-0.9,0.9-1.4c0.4-0.5,1.1-1.2,2.1-2.2c0.4-0.4,0.9-0.9,1.3-1.3c0.4-0.5,0.7-0.8,0.9-1.1v-0.1 H126.7z"/><path class="st2" d="M13.8,95.3c-1-0.4-1.7-0.6-2.4-0.9c-0.2-0.1-0.5,0-0.8,0c0,0.3,0,0.7,0.1,0.9c1.5,3.3,2.9,6.5,4.4,9.7 c0,0.1,0,0.2,0,0.4c-0.7,0.2-1.4,0.3-2.1,0.5c-3.1,1-3.9,3.4-2.7,6.2c0.4,1,1,1,1.7,0.2c0.6-0.6,1.4-1.3,2.2-1.5 c2.5-0.6,4.7,0.7,6.9,1.5c-0.7,1.6-0.7,1.6-2.1,1.5c-0.5,0-0.9,0-1.4,0c-1.5,0.1-2.3,0.9-2.5,2.4c0,0.3-0.2,0.7-0.4,0.9 c-1,0.9-2.2,1.7-3.2,2.6c-1.9,1.8-2.9,4-2.6,6.8c0.3,2.8,2.3,4.6,4.5,3.7c1.2-0.5,1.4-0.1,1.7,0.9c0.6,2.1,2,2.8,4.1,2.1 c0.6-0.2,1.2-0.5,1.9-0.8c0.9,1.5,2.1,2.7,4,2.2c1.8-0.4,2.5-2,3.3-3.5c1.4,0.5,2.7,0.7,3.8-0.5c0.9-1,1.3-2.2,1.2-3.5 c-0.5-3.7-2.2-6.5-5.5-8.3c-0.3-0.2-0.7-0.5-0.8-0.8c-0.4-1.8-1.6-2.7-3.1-3.4c-0.3-0.1-0.5-0.5-0.8-0.8c0.4-0.2,0.9-0.6,1.2-0.5 c3,0.8,6,0.8,9.1,0.7c1.7-0.1,3.4,0.2,5.2,0.3c-0.2,0.5-0.3,0.8-0.5,0.9c-1.5,1.5-2,3.5-2.3,5.5c-0.1,0.5,0.1,0.9,0.1,1.4 c0.4-0.2,0.8-0.3,1.2-0.6c1.5-1,3.1-1.7,4.9-1.9c1.3-0.1,2.6-0.4,3.9-0.8c0.6-0.2,0.8-0.1,1.2,0.4c0.8,0.9,1.8,1.7,2.8,2.7 c0.4-2.9,2.6-5.6,4.7-5.9c2.2-0.3,4.3-0.4,6.4,1.3c-0.4,0.2-0.6,0.2-0.8,0.3c-1.7,0.8-2.7,2.1-2.8,4c-0.1,2,0.6,3.8,2.6,4.7 c3.3,1.6,6,1,8.6-2.1c1.1-1.3,1.3-1.8,2.2,0c0.1,0.3,0.3,0.5,0.5,0.7c1.9,2.5,5.4,3.3,8,1.8c2.9-1.7,3.7-4.5,2.4-7.6 c-0.1-0.3-0.2-0.6-0.4-1.1c3.6,1.2,6.2,3.1,6.2,7.2c3.5-0.9,2.9-3.6,2.9-6.1c3.1,3.2,7.1,3.8,11,4.5c0.1-0.1,0.2-0.2,0.2-0.3 c-1.6-2.3-3.2-4.5-4.9-6.8c0.1-0.1,0.2-0.2,0.3-0.3c0.3,0,0.6,0.1,0.9,0.2c5,1.4,9.7,0.9,14.3-1.6c0.2-0.1,0.5-0.3,0.8-0.3 c1.5,0.2,2.9,0.3,4.4,0.6c0.5,0.1,0.8,0.8,1.1,1.3c0,0.1-0.5,0.5-0.8,0.8c-0.7,0.5-1.4,1-2.1,1.5c-0.6,0.4-1.2,0.9-1.8,1.2 c-3.7,1.4-6.2,3.9-6.9,7.9c-0.5,3,0.8,4.8,4,4.9c0.3,0,0.7,0.1,0.9,0.3c1.1,1.4,2.5,1.6,4,1c1.2-0.6,1.5-0.1,2,0.8 c1.4,2.3,3.6,2.4,5.3,0.2c0.1-0.1,0.2-0.2,0.2-0.2c0.3-0.5,0.7-0.6,1.3-0.3c2.9,1.3,5.6-0.3,6.1-3.5c0.5-3.6-1.1-6.4-3.5-8.8 c-0.6-0.6-1-1.1-1-2c0-0.5-0.3-1.2-0.7-1.5c-0.7-0.5-1.6-0.9-2.4-1.1c-1.3-0.4-1.8-0.8-2-2.2c0-0.3,0.2-0.8,0.5-1 c2.6-1.7,5.3-3.4,8-5.1c-0.4-0.2-0.8-0.4-1.1-0.6c-0.6-0.3-1.3-0.6-1.9-0.9c0.3-0.6,0.7-1.2,1-1.9c1.1-2.6,2.1-5.2,3.2-7.8 c-0.1-0.1-0.3-0.2-0.4-0.3c-1,0.5-2,1-3,1.5c0.2-3.1,0.3-6.1,0.5-9.5c-0.7,0.7-1.3,1.1-1.7,1.7c-1.6,2.8-3.2,5.6-4.7,8.4 c-0.8,1.5-1.5,3-3,4c0.4-1.9,0.8-3.7,1.3-5.7c-1.2,0.9-2.1,1.7-3.1,2.2c-1,0.6-1.9,1.4-3.1,1.5c0.5-1.9,0.9-3.7,1.4-5.4 c-0.1,0-0.2-0.1-0.3-0.1c-2.9,3.3-6.5,5.3-10.4,7.1c-0.2-2-0.4-3.9-0.7-5.8c-0.1,0-0.3,0-0.4-0.1c-1.6,3.9-4.5,6.4-8.4,7.9 c0.1-0.5,0.3-1,0.5-1.4c1.4-2.4,2.3-4.9,1.5-7.7c-0.2-0.6-0.6-1.1-0.9-1.7c-0.3,0.3-0.4,0.3-0.4,0.4c-0.9,2.6-2.8,4.2-5,5.7 c-2.1,1.4-4.5,1.4-6.8,2.1c-0.7,0.2-1.2,0-1.7-0.5c-3.4-3.1-7.2-5.1-11.8-5c-4.5,0.1-8.2,2-11.4,5c-0.6,0.5-1.1,0.6-1.7,0.3 c-1.6-0.8-3.3-1.5-5-2.2c-2.9-1.1-5-3.1-6.8-5.6c-0.2-0.2-0.4-0.4-0.7-0.7c-1,4.6,1.4,7.9,3.6,11.3c-2-0.5-2.7-1.3-7.8-8.8 c-1.2,1.7-0.8,3.8-1.1,5.6c-3.9-2.7-7.6-5.3-11.4-7.9c0.2,1.4,0.5,2.7,0.7,4c-0.2,0.1-0.3,0.2-0.5,0.2c-1.6-1.9-3.2-3.9-4.9-6 c-1,2.6-0.1,4.9,0,7.3c-0.5-0.5-0.9-1.1-1.3-1.7C19.4,95,18,91,15,88.1c-1.2-1.2-2.5-2.3-3.8-3.5c-0.1,0.1-0.2,0.2-0.3,0.2 C12.8,88,13.2,91.5,13.8,95.3"/><path class="st1" d="M13.8,95.3c-0.6-3.7-0.9-7.2-2.8-10.4c0.1-0.1,0.2-0.2,0.3-0.2c1.3,1.2,2.5,2.3,3.8,3.5 c3,2.9,4.4,6.8,6.5,10.3c0.4,0.6,0.8,1.2,1.3,1.7c-0.1-2.4-1-4.8,0-7.3c1.7,2.1,3.3,4.1,4.9,6c0.2-0.1,0.3-0.2,0.5-0.2 c-0.2-1.3-0.4-2.5-0.7-4c3.8,2.6,7.6,5.2,11.4,7.9c0.3-1.8-0.2-3.8,1.1-5.6c5.1,7.5,5.8,8.4,7.8,8.8c-2.2-3.5-4.6-6.8-3.6-11.3 c0.3,0.4,0.6,0.5,0.7,0.7c1.7,2.5,3.9,4.5,6.8,5.6c1.7,0.7,3.3,1.4,5,2.2c0.7,0.3,1.1,0.3,1.7-0.3c3.2-3,6.9-4.9,11.4-5 c4.7-0.1,8.5,2,11.8,5c0.5,0.5,1,0.7,1.7,0.5c2.3-0.7,4.7-0.7,6.8-2.1c2.2-1.5,4.1-3.1,5-5.7c0-0.1,0.1-0.2,0.4-0.4 c0.3,0.6,0.7,1.1,0.9,1.7c0.8,2.8-0.1,5.3-1.5,7.7c-0.2,0.4-0.4,0.9-0.5,1.4c3.9-1.5,6.8-4,8.4-7.9c0.1,0,0.3,0,0.4,0.1 c0.2,1.9,0.4,3.8,0.7,5.8c3.9-1.8,7.6-3.8,10.4-7.1c0.1,0,0.2,0.1,0.3,0.1c-0.4,1.7-0.9,3.5-1.4,5.4c1.3-0.1,2.2-1,3.1-1.5 c1-0.6,1.9-1.3,3.1-2.2c-0.5,2.1-0.8,3.8-1.3,5.7c1.5-1.1,2.2-2.5,3-4c1.5-2.8,3.1-5.6,4.7-8.4c0.3-0.6,1-1,1.7-1.7 c-0.2,3.3-0.3,6.3-0.5,9.5c1-0.5,2-1,3-1.5c0.1,0.1,0.3,0.2,0.4,0.3c-1,2.6-2.1,5.2-3.2,7.8c-0.3,0.7-0.6,1.3-1,1.9 c0.6,0.3,1.3,0.6,1.9,0.9c0.4,0.2,0.7,0.4,1.1,0.6c-2.7,1.7-5.4,3.4-8,5.1c-0.3,0.2-0.5,0.7-0.5,1c0.1,1.4,0.7,1.8,2,2.2 c0.8,0.3,1.7,0.6,2.4,1.1c0.4,0.3,0.7,1,0.7,1.5c0,0.9,0.4,1.5,1,2c2.4,2.4,4,5.2,3.5,8.8c-0.4,3.2-3.2,4.8-6.1,3.5 c-0.6-0.3-1-0.2-1.3,0.3c-0.1,0.1-0.1,0.2-0.2,0.2c-1.6,2.2-3.9,2.1-5.3-0.2c-0.5-0.9-0.9-1.3-2-0.8c-1.4,0.7-2.9,0.5-4-1 c-0.2-0.2-0.6-0.3-0.9-0.3c-3.2-0.1-4.5-1.9-4-4.9c0.6-4,3.1-6.5,6.9-7.9c0.7-0.2,1.2-0.8,1.8-1.2c0.7-0.5,1.4-1,2.1-1.5 c0.3-0.2,0.8-0.7,0.8-0.8c-0.3-0.5-0.6-1.2-1.1-1.3c-1.4-0.3-2.9-0.5-4.4-0.6c-0.3,0-0.6,0.1-0.8,0.3c-4.5,2.5-9.3,3-14.3,1.6 c-0.3-0.1-0.6-0.1-0.9-0.2c-0.1,0.1-0.2,0.2-0.3,0.3c1.6,2.3,3.2,4.5,4.9,6.8c-0.1,0.1-0.2,0.2-0.2,0.3c-3.9-0.7-7.9-1.3-11-4.5 c0.1,2.5,0.6,5.2-2.9,6.1c0-4.1-2.6-6-6.2-7.2c0.2,0.5,0.3,0.8,0.4,1.1c1.3,3.2,0.5,6-2.4,7.6c-2.6,1.5-6.1,0.7-8-1.8 c-0.2-0.2-0.4-0.5-0.5-0.7c-0.9-1.8-1.1-1.3-2.2,0c-2.6,3.1-5.2,3.7-8.6,2.1c-1.9-0.9-2.7-2.7-2.5-4.7c0.1-1.9,1.2-3.2,2.8-4 c0.2-0.1,0.3-0.1,0.8-0.3c-2-1.7-4.2-1.6-6.4-1.3c-2.1,0.3-4.3,3-4.7,5.9c-1-1-2-1.8-2.8-2.7c-0.4-0.5-0.6-0.5-1.2-0.4 c-1.3,0.4-2.6,0.6-3.9,0.8c-1.8,0.2-3.4,0.8-4.9,1.9c-0.4,0.2-0.8,0.4-1.2,0.6c0-0.5-0.2-1-0.1-1.4c0.3-2,0.8-4,2.3-5.5 c0.2-0.2,0.2-0.5,0.5-0.9c-1.9-0.1-3.6-0.4-5.2-0.3c-3.1,0.1-6.1,0.1-9.1-0.7c-0.3-0.1-0.8,0.3-1.2,0.5c0.3,0.3,0.5,0.6,0.8,0.8 c1.5,0.7,2.7,1.6,3.1,3.4c0.1,0.3,0.4,0.6,0.8,0.8c3.4,1.7,5.1,4.6,5.5,8.3c0.2,1.3-0.3,2.5-1.2,3.5c-1.1,1.2-2.4,1-3.8,0.5 c-0.8,1.5-1.4,3.1-3.3,3.5c-2,0.4-3.1-0.8-4-2.2c-0.7,0.3-1.3,0.6-1.9,0.8c-2.1,0.7-3.5,0-4.1-2.1c-0.3-1-0.5-1.4-1.7-0.9 c-2.1,0.9-4.1-0.9-4.5-3.7c-0.3-2.7,0.8-4.9,2.6-6.8c1-1,2.1-1.7,3.2-2.6c0.2-0.2,0.3-0.6,0.4-0.9c0.2-1.5,1-2.3,2.5-2.4 c0.5,0,0.9,0,1.4,0c1.5,0.1,1.5,0.1,2.1-1.5c-2.2-0.9-4.4-2.2-6.9-1.5c-0.8,0.2-1.6,0.8-2.2,1.5c-0.7,0.8-1.3,0.8-1.7-0.2 c-1.2-2.8-0.4-5.3,2.7-6.2c0.7-0.2,1.4-0.3,2.1-0.5c0-0.2,0-0.3,0-0.4c-1.5-3.2-3-6.5-4.4-9.7c-0.1-0.3-0.1-0.6-0.1-0.9 c0.3,0,0.6-0.1,0.8,0C12.1,94.6,12.8,94.9,13.8,95.3 M43.9,107.4c2.9,3.2,6.6,3.7,10.6,3.1c-2.9-1-5.8-2-8.1-4 c-2.2-2-4.2-4.3-6.4-6.5c-0.4,2.2,0,4.4,1.3,6.3c1.3,1.9,2.8,3.6,4.1,5.1c-1.6,1.1-3.6,2.2-5.2,3.6c-2.3,2-3.4,4.6-2.9,5.7 c1.8-1.4,4-1.6,6.2-1.7c1.3-0.1,2.5-0.5,3.4-1.5c0.2-0.2,0.4-0.3,0.7-0.6c0.1,1.6,0.5,2.8,1.9,3.6c2-4,5.1-6.6,9.4-7.9 c-0.7-0.5-1.4-0.8-2-0.8c-5.4,0-10.1,1.7-14.2,5.2c-0.3,0.3-0.7,0.6-1,0.8l-0.2-0.3c2.6-3.2,6.2-4.5,9.9-5.9 C48.3,110.8,45.4,110.3,43.9,107.4 M31.1,107.3c-0.8,0-1.3,0.2-1.8,0c-0.6-0.2-1.2-0.6-1.8-1c-3.7-2.6-6.4-6.2-8.6-10.1 c-1.3-2.4-3-4.6-4.4-6.9c-0.2-0.2-0.3-0.5-0.4-0.8c-0.1,0.1-0.2,0.2-0.3,0.3c0,0.1-0.1,0.3,0,0.4c0.6,6.8,3.6,12.5,8.3,17.3 c4,4.1,9.1,5.9,14.6,6.5c0.9,0.1,1.9,0,2.8-0.1l0-0.4c-4.2-0.6-8.4-1.4-11.8-4.3c3.3,2.1,7,3.1,10.9,3.4c0-0.1,0.1-0.2,0.1-0.3 C36,110,33.4,108.6,31.1,107.3 M88.5,124.2c1.1-1.3,1.5-2.6,1.2-4c-0.3-1.4-1.1-2.4-2.3-3.1c-1.5-0.9-3-1.5-4.6-2.2 c-0.3-0.2-0.6-0.4-1-0.6c0.3-0.3,0.5-0.6,0.8-0.8c1.1-0.4,2.2-0.8,3.4-1c4-0.5,7.8-1.4,11.2-3.5c2.4-1.5,4.4-3.4,5.1-6.3 c0.1-0.4,0.1-0.9,0.1-1.5c-1.8,1.5-3.4,2.8-5,4.1c-1.2,0.9-2.5,1.7-4.2,1.7c-0.3,0-0.7,0.2-0.9,0.5c-1.9,1.8-4.2,2.7-6.7,3.3 c-3.2,0.7-6.2,1.7-8.4,4.3c-0.4,0.5-0.8,1.2-1.3,1.9C82.5,115.9,86.4,118.6,88.5,124.2 M124.7,99.5l0.2,0.2 c-1.2,4.2-3.5,7.6-6.9,10.3c3.6-1.6,6-4.3,7.1-8.1c0.9-2.7,1.6-5.5,0.9-8.6c-0.3,0-0.3,0.2-0.3,0.3c-1,1.9-2,3.8-2.9,5.8 c-1.7,3.5-4.1,6.4-7.5,8.3c-3.4,1.9-6.9,3.1-10.8,2.7c-0.7-0.1-1.5,0.3-2.3,0.4c0,0.1,0.1,0.3,0.1,0.4c0.5,0,0.9-0.1,1.4,0 c1.8,0.1,3.7,0.4,5.5,0.4c6.1,0.1,10.4-3,13.4-8.1C123.3,102.3,124,100.9,124.7,99.5 M29,97.4c0.1,0.4,0.1,0.7,0.2,1 c2.1,5.5,5.6,9.7,11,12.2c0.3,0.1,0.7,0.1,1,0.1l0.1-0.3c-1.6-1.3-3.2-2.5-4.8-3.9c-1.5-1.4-2.9-2.9-3.7-4.8c2.6,3.2,5.3,6.1,9,7.8 C39.7,103.4,34.6,100.3,29,97.4 M69.7,98.8c-0.7,0.1-1.5,0.3-2.2,0.4c-2.9,0.4-5.3,1.6-7.5,3.5c-0.5,0.4-0.4,1.2,0.3,1.5 c0.8,0.4,1.3,0.2,1.9-0.5c0.5-0.5,1.1-1,1.8-1.3c0.7-0.4,1.5-0.5,2.2-0.8c2.1-0.8,4.3-0.9,6.3-0.3c1.6,0.4,3,1.4,4.4,2.2 c0.9,0.5,1.6,1.1,2.7,0.4c0.8-0.5,0.9-0.7,0.2-1.3C76.9,100.4,73.6,98.9,69.7,98.8 M96.6,115.1c3.1,2.4,13.7,1.4,14.8-0.7 c-2.1-2.5-15.2-2.7-17.7-0.1c4.5,0,8.9,0.1,13.2,0.1l0,0.3L96.6,115.1z M99.5,122.6c-1.7-5.2-10.7-10.6-14.9-8.9 c1.7,0.7,3.3,1.4,4.9,2.2c1.5,0.8,2.9,1.9,4.4,2.8l-0.1,0.1c-2.2-1.1-4.3-2.3-6.5-3.4c-0.1,0.1-0.2,0.2-0.2,0.4 c2,1.6,3.9,3.4,6,4.8C95,122,97.1,122.6,99.5,122.6 M19.7,128.8l-0.2,0c-0.2-0.2-0.5-0.5-0.5-0.7c0-0.9,0.2-1.8,0.2-2.7 c0-1.4,0-2.8-0.1-4.3c0-0.4-0.5-0.8-0.7-1.1c-0.3,0.3-0.7,0.5-0.9,0.8c-0.5,0.9-1,1.9-1.3,2.9c-0.8,2.5-0.9,5,0.1,7.5 c0.6,1.5,1.8,1.9,3,0.9c0.7-0.6,1.1-1.5,1.7-2.3l-0.3-0.2c-0.3,0.2-0.6,0.4-1.1,0.8C19.7,129.7,19.7,129.3,19.7,128.8 M102,110.1 c3.8-0.5,10.6-6.8,10.4-10c-0.2,0.1-0.4,0.3-0.5,0.4c-2.6,1.8-5.1,3.7-8.3,4.2c-0.2,0-0.5,0.3-0.7,0.5c-1.2,2.1-3.2,3.4-5.1,4.7 c-0.4,0.3-0.9,0.6-1.3,0.9c0.1,0.1,0.1,0.2,0.2,0.3c2.1-0.9,4.2-1.7,6.2-2.8c2-1.1,3.9-2.4,5.8-3.7l0.2,0.2 C106.5,106.6,104.1,108.4,102,110.1 M119.6,124.3c-0.2,0-0.3,0-0.5,0c-0.7,2.3-1.2,4.6-1,7c0.1,1.3,0.4,2.6,1.3,3.6 c0.3,0.3,0.9,0.6,1.4,0.6c1.1-0.1,1.5-1,2-1.8c0.4-0.6,0.2-1-0.3-1.5c-0.2-0.2-0.1-0.6-0.2-0.9c-0.1-0.2-0.1-0.7-0.2-0.7 c-1-0.1-0.8-0.9-1-1.5C120.5,127.6,120.1,125.9,119.6,124.3 M33.7,107.9c-2.7-4.7-6.3-8.2-10-11.6c-0.9,3.1,3.3,9.8,6.6,10.3 c-0.9-1.1-1.8-2.2-2.6-3.2C29.6,104.8,31.1,106.8,33.7,107.9 M24.9,110.7c-1.4-1.4-2.7-2.7-4.1-4.1c-2.7-2.8-5.2-5.6-6.4-9.4 c-0.3-0.9-1.2-1.1-2.3-1.3c1.4,3.3,2.1,6.6,4.3,9.2C18.6,107.8,21.5,109.6,24.9,110.7 M10.8,111.4c0.1,0,0.3,0,0.4,0 c0.6-0.5,1.1-1,1.8-1.4c1.7-1,3.3-0.7,5,0.1c3,1.3,5.9,2.5,9.2,3c0.8,0.1,1.7,0.2,2.5,0.2c-0.1-0.3-0.2-0.4-0.3-0.4 c-4.6-0.6-8.6-2.9-12.3-5.6c-2-1.5-5.2-0.2-5.9,1.7C10.9,109.8,10.9,110.6,10.8,111.4 M111.2,112.5l-0.1,0.2 c1.5,0.8,2.9,1.9,4.7,1.9c4.3,0,7.6-2.1,10.8-4.6c0.2-0.1,0.3-0.4,0.5-0.7c-1-0.1-1.7-0.1-2.5,0.5c-2.3,1.9-5,2.7-7.8,2.4 c-1.7-0.2-3.2-0.3-4.7,0.3C111.8,112.5,111.5,112.5,111.2,112.5 M13.6,123.9l-0.2-0.1c-0.3,1.2-0.5,2.4-0.8,3.6 c-0.2,0-0.3,0-0.5-0.1c0-0.5-0.1-0.9,0-1.4c0.3-2.5,1.4-4.7,2.6-6.8c0.2-0.3,0.3-0.6,0.6-1.1c-3.4,1.4-6,5.8-5.3,9.2 c0.1,0.8,0.7,1.5,1.3,2.1c0.7,0.7,1.6,0.5,2.4-0.4c0.6-0.7,1.1-1.4,0.1-2.2c-0.2-0.2-0.2-0.5-0.2-0.8 C13.5,125.2,13.6,124.6,13.6,123.9 M127.9,130.6c-0.1,0-0.2,0-0.3,0.1c-0.3-0.8-0.6-1.5-0.9-2.2c-0.7-1.5-1.4-3-2.1-4.4 c-0.1-0.2-0.6-0.3-0.8-0.4c0,0.3,0,0.7,0.1,1c0.8,1.4,1.4,2.7,1.2,4.3c-0.1,1.3-0.2,2.5-0.2,3.8c0,0.4,0.2,1,0.5,1.2 c1.2,0.7,3.2,0.1,3.7-1.2c0.4-1,0.4-2.1,0.6-3.1c-0.1,0-0.2,0-0.3,0l-0.2,1.6c-0.1,0-0.2,0-0.3,0c-0.2-0.6-0.4-1.2-0.6-1.9 C128.1,129.8,128,130.2,127.9,130.6 M117.6,101.3c-1.7,0.7-3.4,1.5-5,2.2c-0.2,0.1-0.4,0.4-0.6,0.6c-0.8,0.9-1.6,1.8-2.4,2.7 c-0.6,0.6-1.2,1.2-1.8,1.8c3-0.5,5-2.5,7.1-4.3c-0.9,1.9-2.6,2.9-4.2,4.4C113.9,108.3,117.9,103.8,117.6,101.3 M117.9,111.3 c5.5-0.1,10.8-6.6,10.5-11.2c-1.1,0.7-2,1.3-2.5,2.6c-1.1,3.1-3.2,5.5-6,7.3C119.3,110.4,118.7,110.8,117.9,111.3 M23.6,123.5 c-0.1,0-0.3,0-0.4,0c0,0.2-0.1,0.4-0.1,0.6c0.4,2.3,0,4.5-0.9,6.6c-0.5,1.1-0.2,1.7,0.9,2.5c1.2,0.8,2.1,0.8,2.8-0.1 c0.8-0.8,1-1.8,0.9-3c-0.3,0.5-0.5,0.8-0.7,1.1l-0.3-0.1c0-0.9-0.1-1.9-0.1-2.8l-0.1,0c-0.2,0.6-0.4,1.2-0.6,1.8 c-0.1,0-0.2,0-0.3-0.1C24.4,127.9,24,125.7,23.6,123.5 M113.6,128.1c-1.1,1.1-1.4,3.9-0.4,4.9c0.5,0.5,1.3,0.7,2,0.7 c0.4,0,1-0.7,1.1-1.1c0.2-1.5,0.1-2.9,0.2-4.4l-0.2,0c-0.2,0.7-0.4,1.4-0.7,2.4c-0.3-0.7-0.5-1.1-0.9-1.8c-0.3,0.6-0.5,1.1-0.7,1.5 c-0.1-0.1-0.3-0.1-0.4-0.2C113.5,129.4,113.6,128.8,113.6,128.1 M110.4,124.1c-1.8,1.7-2.6,3.9-2,6.1c0.2,0.7,1,1.3,1.6,1.8 c0.1,0.1,0.8-0.3,0.8-0.4c0.2-2.6,1-5,2.4-7.3c-0.8,0.9-1.5,1.9-2.1,2.9c-0.3,0.6-0.6,0.9-1.1,0.3c-0.3,0.3-0.5,0.6-0.9,1 C108.7,127.1,108.7,127.1,110.4,124.1 M75.3,106c-0.2-0.1-0.4-0.3-0.7-0.4c-1.8-1-3.7-1.4-5.7-1.2c-1.2,0.1-2.3,0.6-3.4,1 c-0.3,0.1-0.4,0.7-0.6,1.1c0.4,0,0.8,0.1,1.2,0.1c1.8-0.4,3.6-0.8,5.4-1.1c0.1,0,0.3,0.1,0.5,0.2c0.6,0.3,1.2,0.6,1.8,1 C74.5,107,74.8,106.7,75.3,106 M27.7,122.9c-0.1,0.1-0.2,0.2-0.4,0.2c0.9,2,1.5,4.1,1.5,6.3c0,0.3,0.4,0.8,0.7,1 c0.9,0.4,2-0.3,2.4-1.3c0.2-0.6-0.6-2.2-1.1-2.4c-0.1,0.2-0.2,0.5-0.4,0.9C29.4,125.9,28.6,124.4,27.7,122.9 M69.8,114.6 c0.8-1.5,1.4-2.8,2-4.1c0.3-0.6,0.1-1.2-0.6-1.2c-1.1,0-2.3,0.2-3.4,0.4c-0.2,0-0.6,0.7-0.5,0.9C68.1,111.9,68.9,113.1,69.8,114.6 M56.3,115.2c2.2,0.2,4,1.1,5.7,2.3c0.3,0.2,0.9,0.1,1.4,0.2c0-0.4,0.2-0.9,0-1.2C62.5,113.8,58.5,113,56.3,115.2 M69.6,107 c-0.9,0.2-1.9,0.5-3,0.8c-0.2,0.1-0.3,0.4-0.4,0.6c0.3,0.1,0.6,0.4,0.8,0.4c1.5-0.1,3-0.4,4.6-0.6c0.2,0,0.4-0.2,0.6-0.4 c-0.2-0.2-0.3-0.5-0.5-0.5C71.1,107.3,70.4,107.2,69.6,107 M95,112.5c0-0.2-0.1-0.3-0.1-0.5c-1.4-0.1-2.8,0.1-4.2,0.6 c0,0.1,0,0.3,0.1,0.4C92.2,112.8,93.6,112.7,95,112.5"/><path class="st2" d="M43.9,107.4c1.5,2.9,4.4,3.4,7.3,4.1c-3.7,1.4-7.4,2.8-9.9,5.9l0.2,0.3c0.3-0.3,0.7-0.6,1-0.8 c4.1-3.4,8.9-5.2,14.2-5.2c0.7,0,1.3,0.3,2,0.8c-4.3,1.3-7.4,3.9-9.4,7.9c-1.3-0.8-1.8-1.9-1.9-3.6c-0.3,0.3-0.6,0.4-0.7,0.6 c-0.9,1-2,1.4-3.4,1.5c-2.2,0.1-4.3,0.4-6.2,1.7c-0.5-1.1,0.7-3.7,2.9-5.7c1.6-1.4,3.6-2.5,5.2-3.6c-1.3-1.6-2.8-3.3-4.1-5.1 c-1.3-1.9-1.7-4.1-1.3-6.3c2.1,2.2,4.1,4.5,6.4,6.5c2.3,2.1,5.2,3.1,8.1,4C50.5,111,46.8,110.6,43.9,107.4 M46.9,114.9 c-0.3,0.4-0.6,0.6-0.6,0.7c0.1,0.2,0.3,0.5,0.6,0.6c0.1,0,0.6-0.3,0.5-0.5C47.4,115.5,47.1,115.3,46.9,114.9"/><path class="st2" d="M31.1,107.3c2.3,1.2,4.9,2.6,7.5,4c0,0.1-0.1,0.2-0.1,0.3c-3.9-0.3-7.5-1.2-10.9-3.4c3.4,2.9,7.5,3.7,11.8,4.3 l0,0.4c-0.9,0-1.9,0.2-2.8,0.1c-5.6-0.6-10.6-2.4-14.6-6.5c-4.7-4.8-7.7-10.5-8.3-17.3c0-0.1,0-0.3,0-0.4c0.1-0.1,0.2-0.2,0.3-0.3 c0.1,0.3,0.2,0.5,0.4,0.8c1.5,2.3,3.1,4.5,4.4,6.9c2.2,4,4.9,7.5,8.5,10.1c0.6,0.4,1.2,0.8,1.8,1C29.7,107.5,30.3,107.4,31.1,107.3"/><path class="st2" d="M88.5,124.2c-2.2-5.6-6.1-8.3-12.4-7.2c0.5-0.8,0.8-1.4,1.3-1.9c2.2-2.6,5.2-3.6,8.4-4.3 c2.5-0.6,4.8-1.5,6.7-3.3c0.2-0.2,0.6-0.5,0.9-0.5c1.6,0,3-0.8,4.2-1.7c1.7-1.3,3.3-2.7,5-4.1c0,0.5,0,1-0.1,1.5 c-0.8,2.9-2.7,4.8-5.1,6.3c-3.5,2.1-7.3,3-11.2,3.5c-1.2,0.1-2.3,0.6-3.4,1c-0.3,0.1-0.6,0.5-0.8,0.8c0.3,0.2,0.6,0.4,1,0.6 c1.5,0.7,3.1,1.4,4.6,2.2c1.1,0.7,2,1.7,2.3,3.1C90,121.6,89.6,122.9,88.5,124.2"/><path class="st2" d="M124.7,99.5c-0.7,1.4-1.3,2.8-2.1,4.2c-3,5.1-7.3,8.2-13.4,8.1c-1.8,0-3.7-0.3-5.5-0.4c-0.5,0-0.9,0-1.4,0 c0-0.1-0.1-0.3-0.1-0.4c0.8-0.2,1.5-0.5,2.3-0.4c3.9,0.4,7.4-0.9,10.8-2.7c3.4-1.9,5.8-4.8,7.5-8.3c0.9-1.9,1.9-3.9,2.9-5.8 c0.1-0.1,0.1-0.3,0.3-0.3c0.7,3,0,5.8-0.9,8.6c-1.2,3.7-3.5,6.5-7.1,8.1c3.4-2.7,5.7-6.1,6.9-10.3L124.7,99.5z"/><path class="st2" d="M29,97.4c5.6,2.9,10.7,6,12.9,12.2c-3.7-1.8-6.4-4.7-9-7.8c0.9,1.9,2.2,3.4,3.7,4.8c1.5,1.4,3.2,2.6,4.8,3.9 l-0.1,0.3c-0.4,0-0.7,0-1-0.1c-5.4-2.5-8.9-6.7-11-12.2C29.1,98.1,29.1,97.8,29,97.4"/><path class="st3" d="M69.7,98.8c3.8,0.1,7.1,1.6,10.1,3.9c0.8,0.6,0.7,0.8-0.2,1.3c-1.1,0.6-1.8,0.1-2.7-0.4 c-1.4-0.8-2.9-1.8-4.4-2.2c-2.1-0.5-4.2-0.4-6.3,0.3c-0.7,0.3-1.5,0.5-2.2,0.8c-0.7,0.3-1.3,0.7-1.8,1.3c-0.6,0.7-1.2,0.8-1.9,0.5 c-0.6-0.3-0.8-1.1-0.3-1.5c2.2-1.9,4.6-3.2,7.5-3.5C68.2,99.1,69,98.9,69.7,98.8"/><path class="st2" d="M96.6,115.1l10.3-0.3l0-0.3c-4.3,0-8.6-0.1-13.2-0.1c2.5-2.6,15.6-2.4,17.7,0.1 C110.2,116.4,99.6,117.4,96.6,115.1"/><path class="st2" d="M99.5,122.6c-2.4,0-4.6-0.7-6.4-2c-2.1-1.5-4-3.2-6-4.8c0.1-0.1,0.2-0.2,0.2-0.4c2.2,1.1,4.3,2.3,6.5,3.4 l0.1-0.1c-1.5-0.9-2.9-2-4.4-2.8c-1.5-0.8-3.2-1.4-4.9-2.2C88.8,112,97.8,117.4,99.5,122.6"/><path class="st3" d="M19.7,128.8c0,0.5-0.1,0.9-0.1,1.6c0.5-0.4,0.8-0.6,1.1-0.8l0.3,0.2c-0.5,0.8-1,1.7-1.7,2.3 c-1.2,1-2.4,0.6-3-0.9c-1-2.5-0.9-5-0.1-7.5c0.3-1,0.8-1.9,1.3-2.9c0.2-0.3,0.6-0.6,0.9-0.8c0.2,0.4,0.7,0.8,0.7,1.1 c0.1,1.4,0.1,2.8,0.1,4.3c0,0.9-0.2,1.8-0.2,2.7c0,0.2,0.3,0.5,0.5,0.7L19.7,128.8z"/><path class="st2" d="M102,110.1c2.2-1.7,4.5-3.4,6.8-5.2l-0.2-0.2c-1.9,1.2-3.8,2.6-5.8,3.7c-2,1.1-4.1,1.9-6.2,2.8 c-0.1-0.1-0.1-0.2-0.2-0.3c0.4-0.3,0.9-0.6,1.3-0.9c2-1.3,3.9-2.6,5.1-4.7c0.1-0.2,0.4-0.5,0.7-0.5c3.2-0.5,5.7-2.4,8.3-4.2 c0.2-0.1,0.3-0.3,0.5-0.4C112.5,103.2,105.8,109.6,102,110.1"/><path class="st3" d="M119.6,124.3c0.5,1.6,0.9,3.3,1.4,4.9c0.2,0.6,0,1.4,1,1.5c0.1,0,0.2,0.4,0.2,0.7c0.1,0.3,0,0.8,0.2,0.9 c0.5,0.4,0.7,0.8,0.3,1.5c-0.5,0.8-0.9,1.8-2,1.8c-0.5,0-1.1-0.2-1.4-0.6c-1-1-1.2-2.3-1.3-3.6c-0.2-2.4,0.3-4.8,1-7 C119.3,124.3,119.4,124.3,119.6,124.3"/><path class="st2" d="M33.7,107.9c-2.5-1.1-4.1-3-6.1-4.5c0.9,1,1.7,2.1,2.6,3.2c-3.2-0.5-7.4-7.2-6.6-10.3 C27.4,99.7,31,103.1,33.7,107.9"/><path class="st2" d="M24.9,110.7c-3.4-1.1-6.3-2.9-8.5-5.6c-2.2-2.6-2.9-6-4.3-9.2c1.1,0.2,2,0.4,2.3,1.3c1.2,3.8,3.8,6.6,6.4,9.4 C22.1,107.9,23.5,109.3,24.9,110.7"/><path class="st2" d="M10.8,111.4c0.1-0.8,0-1.6,0.3-2.4c0.7-2,3.9-3.2,5.9-1.7c3.7,2.7,7.6,5,12.3,5.6c0.1,0,0.3,0.1,0.3,0.4 c-0.8-0.1-1.7-0.1-2.5-0.2c-3.2-0.4-6.2-1.7-9.2-3c-1.7-0.7-3.4-1-5-0.1c-0.6,0.4-1.2,0.9-1.8,1.4C11.1,111.5,11,111.4,10.8,111.4"/><path class="st2" d="M111.2,112.5c0.3,0,0.6,0.1,0.9,0c1.6-0.7,3.1-0.5,4.7-0.3c2.8,0.3,5.6-0.6,7.8-2.4c0.8-0.6,1.5-0.5,2.5-0.5 c-0.2,0.4-0.3,0.6-0.5,0.7c-3.2,2.6-6.5,4.6-10.8,4.6c-1.8,0-3.2-1-4.7-1.9L111.2,112.5z"/><path class="st3" d="M13.6,123.9c0,0.6-0.1,1.3-0.1,1.9c0,0.3,0.1,0.6,0.2,0.8c0.9,0.8,0.4,1.5-0.1,2.2c-0.8,0.9-1.7,1.1-2.4,0.4 c-0.6-0.6-1.1-1.3-1.3-2.1c-0.7-3.4,1.9-7.8,5.3-9.2c-0.3,0.5-0.4,0.8-0.6,1.1c-1.3,2.1-2.4,4.3-2.6,6.8c0,0.5,0,0.9,0,1.4 c0.2,0,0.3,0,0.5,0.1c0.3-1.2,0.5-2.4,0.8-3.6L13.6,123.9z"/><path class="st3" d="M127.9,130.6c0.1-0.4,0.2-0.9,0.3-1.4c0.2,0.7,0.4,1.3,0.6,1.9c0.1,0,0.2,0,0.3,0l0.2-1.6c0.1,0,0.2,0,0.3,0 c-0.2,1-0.2,2.1-0.6,3.1c-0.5,1.3-2.5,1.9-3.7,1.2c-0.3-0.2-0.5-0.8-0.5-1.2c0-1.3,0.2-2.5,0.2-3.8c0.1-1.6-0.5-3-1.2-4.3 c-0.1-0.3-0.1-0.6-0.1-1c0.3,0.1,0.7,0.2,0.8,0.4c0.7,1.5,1.4,2.9,2.1,4.4c0.3,0.7,0.6,1.5,0.9,2.2 C127.7,130.7,127.8,130.6,127.9,130.6"/><path class="st2" d="M117.6,101.3c0.3,2.5-3.7,7-6.9,7.5c1.6-1.4,3.4-2.5,4.2-4.4c-2.1,1.8-4.1,3.8-7.1,4.3 c0.6-0.6,1.2-1.2,1.8-1.8c0.8-0.9,1.6-1.8,2.4-2.7c0.2-0.2,0.4-0.5,0.6-0.6C114.2,102.8,115.9,102,117.6,101.3"/><path class="st2" d="M117.9,111.3c0.8-0.5,1.4-0.9,1.9-1.3c2.8-1.8,4.9-4.2,6-7.3c0.5-1.4,1.4-2,2.5-2.6 C128.7,104.7,123.4,111.2,117.9,111.3"/><path class="st3" d="M23.6,123.5c0.4,2.2,0.7,4.4,1.1,6.6c0.1,0,0.2,0,0.3,0.1c0.2-0.6,0.4-1.2,0.6-1.8l0.1,0 c0,0.9,0.1,1.9,0.1,2.8l0.3,0.1c0.2-0.3,0.4-0.7,0.7-1.1c0.1,1.2-0.1,2.2-0.9,3c-0.8,0.8-1.7,0.8-2.8,0.1c-1.1-0.7-1.4-1.3-0.9-2.5 c0.9-2.1,1.3-4.3,0.9-6.6c0-0.2,0-0.4,0.1-0.6C23.4,123.5,23.5,123.5,23.6,123.5"/><path class="st3" d="M113.6,128.1c0,0.7,0,1.3-0.1,1.9c0.1,0.1,0.3,0.1,0.4,0.2c0.2-0.4,0.4-0.8,0.7-1.5c0.4,0.8,0.6,1.1,0.9,1.8 c0.3-1,0.5-1.7,0.7-2.4l0.2,0c0,1.5,0,3-0.2,4.4c0,0.4-0.7,1.1-1.1,1.1c-0.7,0-1.5-0.2-2-0.7C112.1,132.1,112.4,129.3,113.6,128.1"/><path class="st3" d="M110.4,124.1c-1.7,3-1.7,3-1.3,4.4c0.3-0.4,0.6-0.7,0.9-1c0.5,0.6,0.8,0.3,1.1-0.3c0.6-1,1.3-2,2.1-2.9 c-1.4,2.2-2.2,4.6-2.4,7.3c0,0.2-0.7,0.5-0.8,0.4c-0.6-0.6-1.4-1.1-1.6-1.8C107.8,128,108.6,125.8,110.4,124.1"/><path class="st1" d="M75.3,106c-0.4,0.7-0.8,1-1.4,0.7c-0.6-0.3-1.2-0.7-1.8-1c-0.2-0.1-0.3-0.2-0.5-0.2c-1.8,0.4-3.6,0.8-5.4,1.1 c-0.4,0.1-0.8,0-1.2-0.1c0.2-0.4,0.3-1,0.6-1.1c1.1-0.4,2.2-0.9,3.4-1c2-0.2,3.9,0.2,5.7,1.2C74.8,105.7,75,105.9,75.3,106"/><path class="st3" d="M27.7,122.9c0.9,1.5,1.7,3,2.7,4.7c0.2-0.4,0.3-0.7,0.4-0.9c0.6,0.2,1.3,1.8,1.1,2.4c-0.4,1-1.5,1.7-2.4,1.3 c-0.3-0.1-0.7-0.6-0.7-1c0-2.2-0.6-4.3-1.5-6.3C27.5,123.1,27.6,123,27.7,122.9"/><path d="M69.8,114.6c-0.9-1.5-1.7-2.7-2.4-4c-0.1-0.2,0.2-0.8,0.5-0.9c1.1-0.2,2.2-0.4,3.4-0.4c0.7,0,0.9,0.5,0.6,1.2 C71.2,111.8,70.6,113.1,69.8,114.6" style="fill:#FFFFFF"/><path class="st2" d="M56.3,115.2c2.2-2.2,6.1-1.4,7.1,1.3c0.1,0.4,0,0.8,0,1.2c-0.5-0.1-1,0.1-1.4-0.2 C60.4,116.3,58.6,115.4,56.3,115.2"/><path class="st1" d="M69.6,107c0.8,0.1,1.5,0.2,2.1,0.4c0.2,0.1,0.3,0.3,0.5,0.5c-0.2,0.1-0.4,0.3-0.6,0.4c-1.5,0.2-3,0.4-4.6,0.6 c-0.3,0-0.5-0.2-0.8-0.4c0.1-0.2,0.2-0.6,0.4-0.6C67.6,107.5,68.7,107.3,69.6,107"/><path class="st2" d="M95,112.5c-1.4,0.2-2.8,0.4-4.2,0.5c0-0.1,0-0.3-0.1-0.4c1.3-0.6,2.7-0.8,4.2-0.6C95,112.2,95,112.3,95,112.5"/><path class="st5" d="M80.1,111c0,0,4.7-0.5,10.2-3.1c5.5-2.5,4.9-10.6,4.9-10.6s-3.5,5.2-7.5,5.9c-4.1,0.7-10.9,1.5-14.9,7.1 c-4,5.5-2.9,14.5,1.3,16.2c4.2,1.7,6.8-2.3,6.6-4.3c-0.1-2-1.4-5.7-5.4-2.8c-0.4,1.1-1.6-0.6-1-2.9c0.6-2.3,1.5-5,9-8.1 c7.5-3.1,9.4-6,9.4-6s-0.2,2.7-4,4.6C84.7,108.8,80.1,111,80.1,111"/><path class="st5" d="M50,103.6c0,0,2.4,2.7,6.4,4.3c4.1,1.6,11,5.2,8.9,12.8c-1.9-2.9-5.4-2.3-6.1,0.5c-0.8,2.9,1.5,5.7,4.5,5.2 c3-0.5,7.2-4.8,4.9-11.4c-2.4-6.6-6.9-8.1-8.9-9.2c-2-1.1-8.5-3.7-11-5.6c-2.5-1.9-3.9-3.3-3.9-3.3s0.4,6.5,5,9.3 c4.7,2.8,11.3,5.9,12.4,6.9c1.1,1,1.1-0.5-0.3-1.4c-1.5-0.9-9.6-4.7-11.3-6.4C48.8,103.6,49.2,102.8,50,103.6"/><path class="st5" d="M22.2,113.3c0,0-0.7,0.4-1.3,1.7l-0.7,1.3c0,0-0.8-0.2-1,0c-0.1,0.2,0.2,1.1,1.1,1.4c0.9,0.3,2,0.3,1.9-0.3 c0-0.6-0.8-0.4-1-1c-0.2-0.6,0.8-2,1-2.4C22.4,113.5,22.3,113.2,22.2,113.3"/><path class="st5" d="M23.5,116.6c0,0,2.4,1,1.9,2.4c-0.5,1.3-3.5,1.1-5.2,0.5c-1.7-0.6-5-2-4.2-3.5c0.8-1.5,2.5-0.6,2.5-0.6 s0.2,0.3-0.5,0.8c-0.6,0.5,0.8,1.7,2.3,2.2C21.7,118.9,23.3,118.3,23.5,116.6"/><path class="st5" d="M119.7,115.9c0,0,0.6,0.5,1,1.9l0.4,1.4c0,0,0.9,0,0.9,0.2c0.1,0.2-0.4,1-1.4,1.1c-0.9,0.1-2-0.1-1.8-0.7 c0.2-0.6,0.9-0.2,1.1-0.8c0.3-0.5-0.4-2.1-0.5-2.5C119.4,116.1,119.6,115.8,119.7,115.9"/><path class="st5" d="M117.8,118.9c0,0-2.6,0.5-2.4,1.9c0.2,1.4,3.2,1.8,5,1.5c1.8-0.3,5.3-0.9,4.8-2.5c-0.5-1.6-2.3-1.1-2.3-1.1 s-0.2,0.3,0.3,0.9c0.5,0.6-1.2,1.5-2.7,1.7C119,121.5,117.7,120.6,117.8,118.9"/><path class="st3" d="M69.9,104c2.2,0.1,4.1,0.9,5.8,2.2c0.4,0.3,0.4,0.5-0.1,0.7c-0.6,0.4-1,0-1.5-0.3c-0.8-0.5-1.6-1-2.5-1.3 c-1.2-0.3-2.4-0.3-3.6,0.2c-0.4,0.2-0.9,0.3-1.3,0.5c-0.4,0.2-0.8,0.4-1,0.7c-0.3,0.4-0.7,0.5-1.1,0.3c-0.4-0.2-0.4-0.6-0.2-0.9 c1.2-1.1,2.6-1.8,4.3-2C69,104.2,69.4,104.1,69.9,104"/><path class="st3" d="M69.7,107.3c1.2,0,2.3,0.5,3.3,1.3c0.2,0.2,0.2,0.3-0.1,0.4c-0.3,0.2-0.6,0-0.9-0.1c-0.5-0.3-0.9-0.6-1.4-0.7 c-0.7-0.2-1.4-0.1-2.1,0.1c-0.2,0.1-0.5,0.1-0.7,0.3c-0.2,0.1-0.4,0.2-0.6,0.4c-0.2,0.2-0.4,0.3-0.6,0.2c-0.2-0.1-0.2-0.4-0.1-0.5 c0.7-0.6,1.5-1,2.4-1.1C69.2,107.4,69.5,107.4,69.7,107.3"/><path class="st1" d="M42.9,80.8c-0.1,0.7-0.7,0.3-0.9,0.3c-2.6,0-5.3,0-7.9-0.1c-0.9,0-1.7,0.1-2.4,0.6c-0.1-1.1,0.8-0.8,1.3-0.8 C36.2,80.8,39.6,80.8,42.9,80.8"/><path class="st1" d="M31.5,92c3,0,5.9,0.1,8.9,0.1c-2.9,0.3-5.7,0.1-8.6,0.2C31.7,92.3,31.6,92.1,31.5,92"/><path class="st1" d="M31.5,83.6c0.5,1.5,0.1,3,0.2,4.5c0,0.9,0.6,1.8-0.3,2.6C31.5,88.3,31.5,85.9,31.5,83.6"/><path class="st1" d="M78.7,80.7c3.5-0.1,7-0.1,10.4-0.2c0.4,0.1,0.7,0.2,1.1,0.3c0,0,0,0.1,0,0.1C86.4,80.9,82.6,80.8,78.7,80.7"/><path class="st2" d="M68,59.4c-4.5,0.1-9.1-0.2-13.6-0.7c-7.2-0.8-14.3-2-21.2-4.3c-1.6-0.6-2.2-1.8-1.8-3.5c0.2-0.8,0.7-0.3,1-0.2 c6.2,1.7,12.5,2.9,18.9,3.8c9.7,1.2,19.4,1.4,29.1,0.5c8.4-0.8,16.6-2.4,24.6-4.9c1-0.3,1.3-0.1,1.3,1c0.1,2.7,0.1,2.7-2.3,3.4 C92.2,57.6,80.2,59.4,68,59.4"/><path class="st2" d="M68,59.4l0-0.4c-0.5,0-0.9,0-1.4,0c-4.1,0-8.1-0.2-12.2-0.7c-7.2-0.8-14.3-2-21.1-4.3c-0.6-0.2-1-0.5-1.3-0.8 c-0.3-0.3-0.4-0.7-0.4-1.2c0-0.3,0-0.6,0.1-0.9c0-0.1,0.1-0.2,0.1-0.2l-0.1-0.1v0.1l0.1,0l-0.1-0.1v0.1v0l0,0h0v0l0,0l0.2,0.1 c0.1,0,0.2,0.1,0.3,0.1c6.2,1.7,12.5,3,18.9,3.8c5.7,0.7,11.3,1.1,17,1.1c4.1,0,8.1-0.2,12.2-0.6c8.4-0.8,16.6-2.4,24.6-5 c0.3-0.1,0.4-0.1,0.5-0.1l0.1,0c0,0,0,0,0.1,0.1c0,0.1,0.1,0.3,0.1,0.6c0,0.4,0,0.8,0,1.1c0,0.4,0,0.7-0.1,0.9 c0,0.1-0.1,0.2-0.1,0.3c-0.1,0.1-0.2,0.2-0.5,0.3c-0.3,0.1-0.7,0.2-1.3,0.4C92.1,57.2,80.2,59,68,59h0L68,59.4l0,0.4 c12.3,0,24.3-1.8,36.1-5c1-0.3,1.6-0.4,2.1-0.8c0.2-0.2,0.4-0.5,0.4-0.8c0.1-0.3,0.1-0.6,0.1-1.1c0-0.3,0-0.7,0-1.1 c0-0.4,0-0.7-0.2-1c-0.1-0.1-0.2-0.3-0.3-0.4c-0.2-0.1-0.3-0.1-0.5-0.1c-0.2,0-0.5,0.1-0.8,0.2c-8,2.6-16.1,4.1-24.5,4.9 c-4,0.4-8.1,0.6-12.1,0.6c-5.6,0-11.3-0.4-16.9-1.1c-6.4-0.8-12.6-2-18.8-3.8c0,0-0.1,0-0.2-0.1c-0.1-0.1-0.3-0.1-0.5-0.1 c-0.2,0-0.4,0.1-0.5,0.2c-0.1,0.1-0.2,0.3-0.3,0.5c-0.1,0.4-0.2,0.8-0.2,1.1c0,0.6,0.2,1.3,0.6,1.7c0.4,0.5,0.9,0.9,1.6,1.1 c6.9,2.4,14.1,3.5,21.2,4.4c4.1,0.5,8.2,0.7,12.3,0.7c0.5,0,0.9,0,1.4,0h0L68,59.4z"/><path class="st2" d="M67.8,36.4c-11.6,0-23-1.6-34.2-4.8c-1-0.3-2.5-0.3-2.2-2.1c0.1-0.9,0.2-1.2,1.2-0.9c4.9,1.4,10,2.4,15,3.2 c18.3,2.8,36.5,2.4,54.4-2.9c0.8-0.2,1.6-0.6,2.5-0.8c0.5-0.1,1.3-1.1,1.5,0.1c0.2,0.8,0.6,1.9-0.9,2.3c-2.1,0.5-4.1,1.3-6.2,1.9 C88.7,35,78.4,36.3,67.8,36.4"/><path class="st2" d="M67.8,36.4l0-0.4c-11.6,0-23-1.6-34.1-4.8c-0.5-0.1-1.1-0.2-1.4-0.4c-0.2-0.1-0.3-0.2-0.4-0.3 c-0.1-0.1-0.2-0.3-0.2-0.6c0-0.1,0-0.2,0-0.3c0-0.3,0.1-0.6,0.1-0.6l0,0l0,0l0,0l0,0l0,0l0,0l0.1,0c0.1,0,0.3,0,0.5,0.1 c5,1.4,10,2.4,15.1,3.2c7.3,1.1,14.6,1.7,21.8,1.7c11,0,21.9-1.4,32.8-4.6c0.9-0.3,1.7-0.6,2.4-0.8c0.3-0.1,0.5-0.2,0.7-0.3 c0.1-0.1,0.2-0.1,0.2-0.1l0.1,0v-0.1l0,0.1l0,0v-0.1l0,0.1l0-0.1l0,0l0,0l0-0.1l0,0l0,0.1c0,0,0,0.1,0.1,0.2c0.1,0.3,0.2,0.7,0.2,1 c0,0.2,0,0.4-0.1,0.5c-0.1,0.1-0.3,0.3-0.7,0.4c-2.1,0.5-4.2,1.3-6.2,1.9c-10.1,2.7-20.5,4.1-31,4.1L67.8,36.4l0-0.4L67.8,36.4 l0,0.4c10.6-0.1,21-1.4,31.2-4.2c2.1-0.6,4.1-1.4,6.2-1.9c0.5-0.1,0.9-0.3,1.1-0.6c0.2-0.3,0.3-0.7,0.3-1c0-0.4-0.1-0.8-0.2-1.1 c-0.1-0.2-0.1-0.4-0.3-0.6c-0.1-0.2-0.4-0.3-0.6-0.3c-0.3,0-0.6,0.2-0.8,0.3c-0.2,0.1-0.4,0.2-0.4,0.2c-0.9,0.2-1.7,0.6-2.5,0.8 C91.2,31.6,80.3,33,69.4,33c-7.2,0-14.4-0.6-21.7-1.7c-5.1-0.8-10.1-1.8-15-3.1C32.4,28.1,32.2,28,32,28c-0.2,0-0.3,0-0.5,0.1 c-0.2,0.1-0.4,0.4-0.4,0.6c-0.1,0.2-0.1,0.4-0.1,0.7c0,0.1,0,0.3,0,0.4c0,0.4,0.1,0.8,0.3,1.1c0.3,0.4,0.7,0.6,1.1,0.8 c0.4,0.1,0.8,0.2,1.1,0.3c11.2,3.3,22.7,4.8,34.3,4.9h0L67.8,36.4z"/><path class="st3" d="M80.1,60.8c1.2-0.2,1.8,0.5,2.4,1c2.4,2.3,5.4,3.4,8.6,4.2c1.9,0.5,3.8,1.2,5.6,2c1.5,0.7,2.7,1.7,3.6,3.2 c1.5,2.4,1,4.9-1.4,6.3c-3.6,2.1-7.2,2.1-11,0.3c-5.6-2.8-8.8-7.5-11-13.1c-0.3-0.8-0.7-1.6-1-2.4c-0.2-0.4-0.7-1,0-1.4 c0.5-0.2,1,0,1.3,0.6c2.4,3.7,5.4,6.7,8.5,9.8c2.1,2.1,4.6,3.4,7.5,3.8c1.3,0.2,2.3-0.2,2.7-1.4c0.4-1.1-0.3-2-1.1-2.6 c-1.2-1-2.7-1.6-4.2-1.9c-2.7-0.6-5-2-7.2-3.5C81.8,64.5,80.9,62.8,80.1,60.8"/><path class="st3" d="M80.1,60.8l0.1,0.4c0.1,0,0.2,0,0.3,0c0.4,0,0.7,0.1,1,0.3c0.3,0.2,0.5,0.4,0.8,0.6c2.5,2.4,5.6,3.5,8.8,4.3 c1.9,0.5,3.8,1.1,5.5,2c1.4,0.7,2.6,1.7,3.4,3c0.5,0.8,0.8,1.7,0.8,2.5c0,1.3-0.7,2.5-2,3.3c-1.8,1-3.6,1.6-5.5,1.6 c-1.7,0-3.4-0.4-5.1-1.3c-5.5-2.7-8.6-7.3-10.8-12.8c-0.3-0.8-0.7-1.6-1-2.4c-0.1-0.2-0.2-0.4-0.2-0.5C76,61.6,76,61.5,76,61.5l0,0 c0,0,0-0.1,0.1-0.1l0.2-0.1c0.1,0,0.2,0,0.3,0.1c0.1,0.1,0.2,0.2,0.3,0.4c2.4,3.7,5.5,6.8,8.5,9.9c2.1,2.2,4.7,3.5,7.7,3.9 c0.2,0,0.4,0.1,0.7,0.1c0.6,0,1.1-0.1,1.5-0.4c0.4-0.3,0.8-0.8,1-1.3c0.1-0.3,0.1-0.5,0.1-0.7c0-0.5-0.2-0.9-0.4-1.3 c-0.2-0.4-0.6-0.7-0.9-1c-1.3-1.1-2.8-1.7-4.4-2c-2.6-0.6-4.9-1.9-7.1-3.4c-1.5-1.1-2.5-2.7-3.2-4.6L80.1,60.8l0.1,0.4L80.1,60.8 L79.7,61c0.8,2,1.8,3.7,3.5,5c2.2,1.6,4.6,3,7.4,3.6c1.5,0.3,2.9,0.9,4.1,1.9c0.3,0.2,0.6,0.5,0.8,0.8c0.2,0.3,0.3,0.6,0.3,0.9 c0,0.2,0,0.3-0.1,0.5c-0.1,0.5-0.4,0.7-0.6,0.9c-0.3,0.2-0.6,0.3-1.1,0.3c-0.2,0-0.4,0-0.5,0c-2.9-0.4-5.3-1.6-7.3-3.7 c-3-3.1-6.1-6.1-8.4-9.7c-0.1-0.2-0.3-0.4-0.5-0.6c-0.2-0.2-0.5-0.3-0.8-0.3c-0.2,0-0.4,0-0.5,0.1c-0.2,0.1-0.3,0.2-0.5,0.3 c-0.1,0.1-0.2,0.3-0.2,0.5c0,0.3,0.1,0.5,0.2,0.6c0.1,0.2,0.2,0.3,0.2,0.4c0.3,0.8,0.7,1.6,1,2.4c2.2,5.7,5.5,10.5,11.2,13.3 c1.8,0.9,3.7,1.4,5.5,1.4c2,0,3.9-0.6,5.9-1.7c1.6-0.9,2.4-2.4,2.4-4c0-0.9-0.3-1.9-0.9-2.9c-0.9-1.5-2.2-2.6-3.8-3.3 c-1.8-0.9-3.7-1.6-5.7-2.1c-3.2-0.8-6.1-1.9-8.4-4.1c-0.2-0.2-0.5-0.5-0.9-0.7c-0.4-0.2-0.8-0.4-1.4-0.4c-0.1,0-0.3,0-0.4,0 c-0.1,0-0.2,0.1-0.3,0.2c-0.1,0.1-0.1,0.2,0,0.3L80.1,60.8z"/><path class="st3" d="M42.6,74.6c0.1-3.3,1.6-5.4,4.1-6.6c4.2-2,8.6-3.5,12-6.9c0.4-0.4,0.9-0.5,1.3-0.1c0.4,0.4-0.1,0.8-0.2,1.2 c-1.3,4.5-5.3,5.8-9,7.3c-1.8,0.7-3.5,1.4-4.6,3.1c-0.6,0.9-0.8,1.9-0.3,2.9c0.5,0.9,1.5,1.2,2.5,1.2c1.3-0.1,2.5-0.5,3.6-1.3 c4.1-2.7,6.9-6.5,8.7-11c0.3-0.8,0.9-1.7,1-2.5c0.1-1.2,0.9-0.9,1.5-0.9c0.8,0.1,0.6,0.9,0.4,1.3c-0.3,1.1-0.7,2.3-1.1,3.4 c-1.1,2.6-2.2,5.3-3.6,7.8c-2.3,4.1-6.2,6.1-10.5,7.1C45.8,81.1,42.2,78.3,42.6,74.6"/><path class="st3" d="M42.6,74.6l0.4,0c0-1.6,0.4-2.9,1.1-3.9c0.7-1,1.6-1.8,2.8-2.3c4.2-2,8.6-3.5,12.1-6.9 c0.2-0.2,0.4-0.2,0.5-0.2c0.1,0,0.2,0,0.3,0.1l0,0l0,0h0l0,0l0,0h0l0,0.1c0,0.1-0.1,0.2-0.1,0.3c-0.1,0.1-0.1,0.2-0.2,0.4 c-0.6,2.1-1.9,3.5-3.5,4.6c-1.6,1-3.5,1.8-5.3,2.5c-1.7,0.7-3.6,1.4-4.8,3.2c-0.4,0.6-0.7,1.2-0.7,1.9c0,0.5,0.1,0.9,0.4,1.4 c0.3,0.5,0.7,0.9,1.2,1.1c0.5,0.2,1,0.3,1.5,0.3l0.2,0c1.4-0.1,2.7-0.6,3.8-1.3c4.1-2.8,7-6.6,8.9-11.2c0.3-0.8,0.9-1.6,1-2.6 c0-0.3,0.1-0.4,0.2-0.5c0.1,0,0.1-0.1,0.3-0.1c0.2,0,0.4,0,0.6,0.1c0.2,0,0.2,0.1,0.2,0.1c0,0,0,0,0,0.1c0,0.2-0.1,0.4-0.1,0.6 c-0.3,1.1-0.7,2.2-1.1,3.3c-1.2,2.6-2.2,5.3-3.6,7.7c-2.2,4-6,5.9-10.3,6.9c-0.2,0-0.4,0.1-0.6,0.1c-1,0-2.2-0.5-3.1-1.5 c-0.9-0.9-1.6-2.2-1.6-3.6c0-0.1,0-0.3,0-0.4l0,0L42.6,74.6l-0.4,0c0,0.2,0,0.4,0,0.5c0,1.7,0.8,3.1,1.8,4.2c1.1,1,2.4,1.7,3.7,1.7 c0.3,0,0.5,0,0.8-0.1c4.4-1,8.5-3,10.8-7.3c1.4-2.5,2.5-5.2,3.6-7.8c0.5-1.1,0.9-2.3,1.2-3.4c0-0.2,0.1-0.5,0.1-0.8 c0-0.2,0-0.4-0.2-0.6c-0.2-0.2-0.4-0.3-0.7-0.3c-0.2,0-0.4-0.1-0.7-0.1c-0.2,0-0.6,0-0.8,0.3c-0.3,0.2-0.4,0.6-0.5,1 c-0.1,0.7-0.6,1.5-1,2.4c-1.8,4.5-4.6,8.1-8.6,10.8c-1.1,0.7-2.2,1.2-3.4,1.2l-0.2,0c-0.4,0-0.8-0.1-1.2-0.2 c-0.3-0.2-0.6-0.4-0.8-0.8c-0.2-0.3-0.3-0.7-0.3-1c0-0.5,0.2-1,0.5-1.5c1-1.5,2.7-2.2,4.4-2.9c1.8-0.8,3.8-1.5,5.5-2.6 c1.7-1.1,3.1-2.6,3.8-5c0-0.1,0.1-0.2,0.2-0.3c0.1-0.2,0.2-0.3,0.2-0.6c0-0.2-0.1-0.5-0.3-0.6c-0.2-0.2-0.5-0.3-0.8-0.3 c-0.4,0-0.8,0.2-1.1,0.5c-3.3,3.3-7.7,4.8-11.9,6.8c-1.3,0.6-2.4,1.5-3.1,2.6c-0.7,1.2-1.2,2.6-1.2,4.3L42.6,74.6l-0.4,0L42.6,74.6 z"/><path class="st2" d="M63.7,54.1c-2.7-0.2-5.5-0.4-8.2-0.6c-0.5,0-0.8-0.3-1-0.6c-4-5.7-8-11.4-11.9-17.1c-0.1-0.1,0-0.2-0.1-0.4 c1.9-0.1,3.7,0.8,5.5,0.8c2.8,0,4.4,1.4,5.9,3.6c3.2,4.7,6.6,9.3,10,13.9C63.8,53.8,63.7,54,63.7,54.1"/><path class="st2" d="M63.7,54.1l0-0.4c-2.7-0.2-5.5-0.4-8.2-0.6c-0.2,0-0.3-0.1-0.4-0.1c-0.1-0.1-0.2-0.2-0.3-0.3 c-4-5.7-8-11.4-11.9-17.1l-0.1,0.1l0.2,0l0-0.1l-0.1,0.1l0.2,0l0,0c0,0,0-0.2-0.1-0.3l-0.4,0.1l0,0.4l0.2,0c1.7,0,3.4,0.8,5.3,0.8 c1.3,0,2.3,0.3,3.2,0.9c0.9,0.6,1.6,1.5,2.4,2.5c3.2,4.7,6.7,9.3,10,13.9l0.3-0.2l-0.4-0.1c-0.1,0.1-0.1,0.3-0.2,0.4L63.7,54.1 l0-0.4L63.7,54.1l0.4,0.1c0.1-0.1,0.1-0.3,0.2-0.4c0.1-0.1,0-0.3,0-0.4c-3.4-4.6-6.8-9.2-10-13.9c-0.8-1.1-1.6-2.1-2.6-2.8 c-1-0.7-2.2-1.1-3.7-1.1c-1.6,0-3.3-0.8-5.3-0.8l-0.3,0c-0.1,0-0.2,0.1-0.3,0.2C42,35.2,42,35.3,42,35.4c0,0.1,0,0.2,0,0.2 c0,0.1,0,0.2,0.1,0.3c4,5.7,8,11.4,11.9,17.1c0.2,0.2,0.3,0.4,0.6,0.6c0.2,0.1,0.5,0.2,0.8,0.2c2.7,0.2,5.5,0.4,8.2,0.6 c0.2,0,0.3-0.1,0.4-0.3L63.7,54.1z"/><path class="st2" d="M78.7,37.3c0.9-0.2,1.5,0.1,2,0.8c3.1,4.3,6.1,8.6,9.2,12.9c0.8,1.1,0.6,1.3-0.7,1.5c-2.1,0.3-4.3,0.6-6.4,1 c-0.7,0.1-1-0.2-1.3-0.7c-3.3-4.7-6.6-9.3-9.9-14c-0.5-0.7-0.6-1.1,0.5-1.1C74.3,37.6,76.6,37.4,78.7,37.3"/><path class="st2" d="M78.7,37.3l0.1,0.4c0.2,0,0.3-0.1,0.4-0.1c0.2,0,0.4,0.1,0.6,0.2c0.2,0.1,0.3,0.3,0.5,0.5 c3.1,4.3,6.1,8.6,9.3,12.9c0.2,0.2,0.3,0.4,0.3,0.5c0.1,0.1,0.1,0.2,0.1,0.2H90l0,0l0,0H90l0,0l0.1,0L90,51.9l0,0l0.1,0L90,51.9 l0,0l0,0l0,0l0,0l0,0l0,0c-0.1,0.1-0.4,0.1-0.8,0.2c-2.2,0.3-4.3,0.6-6.4,1l-0.2,0c-0.2,0-0.2,0-0.4-0.1c-0.1-0.1-0.2-0.2-0.4-0.4 c-3.3-4.7-6.6-9.3-9.9-14c-0.1-0.1-0.2-0.3-0.2-0.4l0-0.1l0,0h-0.1l0.1,0.1l0-0.1h-0.1l0.1,0.1l-0.1-0.1l0.1,0.1l0,0l-0.1-0.1 l0.1,0.1l0,0l0,0l0,0l0,0l0,0c0,0,0.2-0.1,0.5-0.1c2.2-0.1,4.4-0.3,6.6-0.4l0.1,0L78.7,37.3l0-0.4c-2.2,0.1-4.4,0.3-6.5,0.4 c-0.3,0-0.6,0.1-0.8,0.2c-0.1,0.1-0.2,0.1-0.3,0.3c-0.1,0.1-0.1,0.3-0.1,0.4c0,0.2,0.1,0.3,0.1,0.5c0.1,0.2,0.2,0.3,0.3,0.5 c3.3,4.6,6.6,9.3,9.9,14c0.1,0.2,0.3,0.4,0.5,0.6c0.2,0.2,0.5,0.3,0.9,0.3c0.1,0,0.2,0,0.3,0c2.1-0.4,4.2-0.8,6.3-1 c0.4,0,0.7-0.1,1-0.2c0.1-0.1,0.3-0.1,0.4-0.3c0.1-0.1,0.2-0.3,0.2-0.5c0-0.2-0.1-0.4-0.2-0.6c-0.1-0.2-0.2-0.4-0.4-0.6 c-3.1-4.2-6.2-8.6-9.2-12.9c-0.2-0.3-0.5-0.6-0.8-0.8c-0.3-0.2-0.6-0.3-1-0.3c-0.2,0-0.4,0-0.6,0.1L78.7,37.3l0-0.4L78.7,37.3z"/><path class="st2" d="M104.1,49c-2.7,0.7-5.2,1.4-7.7,2.1c-0.7,0.2-1-0.1-1.3-0.6c-3.1-4.3-6.1-8.6-9.2-12.9 c-0.5-0.7-0.6-1.1,0.5-1.2c2.3-0.4,4.6-0.8,6.8-1.3c0.6-0.1,0.9,0,1.3,0.4C97.6,39.9,100.8,44.3,104.1,49"/><path class="st2" d="M104.1,49l-0.1-0.4c-2.7,0.7-5.2,1.4-7.7,2.1c-0.1,0-0.2,0-0.3,0c-0.1,0-0.2,0-0.3-0.1 c-0.1-0.1-0.2-0.2-0.3-0.4c-3.1-4.3-6.1-8.6-9.2-12.9C86.1,37.2,86,37.1,86,37l0-0.1l0,0h-0.1l0.1,0l0,0h-0.1l0.1,0l-0.1,0l0,0l0,0 l-0.1,0l0,0l0,0c0.1,0,0.2-0.1,0.5-0.1c2.3-0.4,4.6-0.8,6.8-1.3c0.1,0,0.2,0,0.3,0c0.1,0,0.2,0,0.3,0.1c0.1,0,0.2,0.1,0.3,0.2 c3.2,4.4,6.3,8.8,9.7,13.5L104.1,49l-0.1-0.4L104.1,49l0.3-0.2c-3.4-4.7-6.5-9.1-9.7-13.5c-0.1-0.2-0.3-0.4-0.5-0.5 c-0.2-0.1-0.4-0.2-0.7-0.2c-0.2,0-0.3,0-0.5,0.1c-2.3,0.5-4.5,0.9-6.8,1.3c-0.3,0.1-0.6,0.1-0.8,0.2c-0.1,0.1-0.2,0.2-0.3,0.3 c-0.1,0.1-0.1,0.3-0.1,0.4c0,0.2,0.1,0.4,0.1,0.5c0.1,0.2,0.2,0.3,0.3,0.5c3.1,4.3,6.1,8.6,9.2,12.9c0.1,0.2,0.3,0.4,0.5,0.6 c0.2,0.2,0.5,0.3,0.8,0.3c0.2,0,0.3,0,0.5-0.1c2.5-0.7,5-1.4,7.7-2.1c0.1,0,0.2-0.1,0.3-0.3c0-0.1,0-0.3-0.1-0.4L104.1,49z"/><path class="st2" d="M48.6,52.8c-2.8-0.5-5.1-1-7.5-1.4c-0.7-0.1-1-0.5-1.4-1c-2.4-3.2-4.7-6.5-7.2-9.6c-0.8-1-1.2-2.1-1.1-3.4 c0.1-0.6-0.1-1.3,0-1.9c0.1-1-0.5-2.7,0.4-2.7c1.3-0.1,3.1,0.1,4,1.4C40,40.1,44.1,46.3,48.6,52.8"/><path class="st2" d="M48.6,52.8l0.1-0.4c-2.8-0.5-5.1-1-7.5-1.4c-0.3,0-0.4-0.1-0.6-0.3c-0.2-0.1-0.3-0.3-0.5-0.6 c-2.4-3.2-4.7-6.5-7.2-9.6c-0.7-0.9-1-1.7-1-2.7c0-0.1,0-0.3,0-0.4c0-0.1,0-0.3,0-0.4c0-0.4-0.1-0.9-0.1-1.2c0-0.1,0-0.2,0-0.3 c0-0.1,0-0.2,0-0.3c0-0.6-0.1-1.2-0.1-1.6c0-0.2,0-0.3,0.1-0.4l0,0l0,0c0.2,0,0.4,0,0.5,0c0.6,0,1.2,0.1,1.7,0.3 c0.5,0.2,1,0.5,1.3,1c4.2,6.1,8.3,12.2,12.8,18.7L48.6,52.8l0.1-0.4L48.6,52.8l0.3-0.2c-4.4-6.5-8.5-12.6-12.8-18.7 c-0.4-0.6-1.1-1-1.7-1.2c-0.7-0.2-1.4-0.3-2-0.3c-0.2,0-0.4,0-0.6,0c-0.2,0-0.3,0.1-0.4,0.1C31.2,32.6,31,32.8,31,33 c-0.1,0.2-0.1,0.4-0.1,0.6c0,0.5,0.1,1.2,0.1,1.6l0,0.2c0,0.1,0,0.3,0,0.4c0,0.4,0.1,0.9,0.1,1.2c0,0.1,0,0.2,0,0.3 c0,0.2,0,0.3,0,0.5c0,1.2,0.5,2.2,1.2,3.2c2.4,3.2,4.8,6.4,7.2,9.6c0.2,0.2,0.4,0.5,0.6,0.7c0.3,0.2,0.6,0.4,1,0.5 c2.3,0.4,4.7,0.8,7.4,1.4c0.2,0,0.3,0,0.4-0.2c0.1-0.1,0.1-0.3,0-0.4L48.6,52.8z"/><path class="st3" d="M76.6,72c0,0.4,0,0.9,0,1.3c-0.4,5.8-6.3,8.7-11.1,5.5c-1.8-1.2-2.3-3.4-2.7-5.5c-0.4-2.2-0.2-4.2,0.8-6.2 c0.9-1.8,1.5-3.6,2.3-5.4c0.6-1.4,1.7-0.9,2.6-0.8c0.7,0.1,0.2,0.7,0.1,1c-1.4,3-1.9,6.2-2.6,9.3c-0.3,1.5,0.1,2.8,0.7,4 c0.7,1.4,1.8,1.9,3.3,1.8c1.4-0.1,2-1.1,2.5-2.3c1.2-2.6,0.6-5.3,0-7.9c-0.3-1.4-0.8-2.7-1.1-4.1c-0.1-0.5-1-1.2,0-1.6 c0.7-0.2,1.7-0.4,2.3,0.6C75.2,65.1,76.7,68.3,76.6,72"/><path class="st3" d="M76.6,72l-0.4,0c0,0.4,0,0.9,0,1.3c-0.3,3.9-3.2,6.5-6.6,6.5c-1.3,0-2.7-0.4-3.9-1.2c-0.8-0.6-1.3-1.3-1.7-2.2 c-0.4-0.9-0.6-2-0.8-3c-0.1-0.7-0.2-1.3-0.2-1.9c0-1.4,0.3-2.7,1-4c0.9-1.8,1.6-3.7,2.3-5.5c0.1-0.3,0.3-0.5,0.4-0.6 c0.1-0.1,0.3-0.1,0.5-0.1c0.4,0,0.8,0.1,1.3,0.2l0.1,0l0-0.1l0,0l0,0l0-0.1l0,0l0.1-0.1l-0.1,0.1l0,0.1l0.1-0.1l-0.1,0.1l0.1,0 h-0.1l0,0l0.1,0h-0.1c0,0,0,0.1-0.1,0.2c-0.1,0.1-0.1,0.2-0.2,0.4c-1.4,3-2,6.3-2.6,9.4c-0.1,0.4-0.1,0.8-0.1,1.1 c0,1.1,0.3,2.2,0.8,3.2c0.3,0.7,0.8,1.2,1.3,1.5c0.6,0.3,1.2,0.5,1.9,0.5c0.2,0,0.3,0,0.5,0c0.8-0.1,1.4-0.4,1.8-0.9 c0.4-0.5,0.7-1,1-1.6c0.5-1.2,0.7-2.4,0.7-3.5c0-1.6-0.3-3.1-0.7-4.7c-0.3-1.4-0.8-2.7-1.1-4.1c-0.1-0.3-0.2-0.5-0.3-0.7 c-0.1-0.2-0.2-0.3-0.2-0.4v0l0,0l0,0l0,0l0,0l0,0l0,0c0,0,0.1-0.1,0.2-0.1c0.3-0.1,0.6-0.2,0.8-0.2c0.2,0,0.4,0,0.5,0.1 c0.1,0.1,0.3,0.2,0.4,0.5c1.5,3.1,2.9,6.2,2.9,9.6c0,0.1,0,0.2,0,0.4v0L76.6,72l0.4,0c0-0.1,0-0.3,0-0.4c0-3.7-1.5-6.8-3-9.9 c-0.2-0.4-0.4-0.7-0.7-0.8c-0.3-0.2-0.6-0.2-0.9-0.2c-0.4,0-0.8,0.1-1.1,0.2c-0.2,0.1-0.4,0.2-0.5,0.3c-0.1,0.1-0.2,0.4-0.2,0.5 c0,0.3,0.2,0.6,0.3,0.8c0.1,0.2,0.2,0.4,0.2,0.4c0.3,1.4,0.8,2.7,1.1,4c0.3,1.5,0.7,3,0.7,4.5c0,1.1-0.2,2.1-0.7,3.2 c-0.2,0.5-0.5,1-0.8,1.4c-0.3,0.3-0.7,0.6-1.3,0.6c-0.1,0-0.3,0-0.4,0c-0.6,0-1.1-0.1-1.5-0.4c-0.4-0.3-0.8-0.6-1-1.2 c-0.5-0.9-0.8-1.8-0.8-2.8c0-0.3,0-0.6,0.1-1c0.7-3.2,1.2-6.3,2.6-9.2c0-0.1,0.1-0.2,0.2-0.4c0.1-0.2,0.1-0.3,0.1-0.5 c0-0.1-0.1-0.4-0.2-0.5c-0.1-0.1-0.3-0.2-0.5-0.2c-0.4,0-0.8-0.2-1.4-0.2c-0.3,0-0.7,0.1-1,0.2c-0.3,0.2-0.6,0.5-0.7,0.9 c-0.7,1.8-1.4,3.7-2.3,5.4c-0.7,1.4-1,2.9-1,4.4c0,0.7,0.1,1.4,0.2,2.1c0.2,1.1,0.4,2.2,0.8,3.2c0.4,1,1,2,2,2.6 c1.4,0.9,2.9,1.4,4.4,1.4c3.7,0,7-2.9,7.4-7.2c0-0.5,0-0.9,0-1.3L76.6,72l0.4,0L76.6,72z"/><path class="st2" d="M58.3,37.6c2.1,0,4.2,0.1,6.2,0.1c0.5,0,0.9,0.2,1.2,0.6c3.5,5.1,7,10.1,10.5,15.2c0,0.1,0,0.2,0.1,0.7 c-2.1,0-4.2-0.1-6.3-0.1c-0.4,0-0.7-0.3-0.9-0.6c-3.6-5.2-7.2-10.4-10.8-15.5C58.3,37.9,58.3,37.8,58.3,37.6"/><path class="st2" d="M58.3,37.6l0,0.4c2.1,0,4.2,0.1,6.2,0.1c0.2,0,0.4,0,0.5,0.1c0.1,0.1,0.2,0.2,0.4,0.4 c3.5,5.1,7,10.1,10.5,15.2l0.2-0.1l-0.2,0l0,0.1l0.2-0.1l-0.2,0c0,0,0,0.2,0,0.6l0.4,0l0-0.4c-2.1,0-4.2-0.1-6.3-0.1 c-0.1,0-0.2,0-0.3-0.1c-0.1-0.1-0.2-0.2-0.3-0.3c-3.6-5.2-7.2-10.4-10.8-15.5l-0.2,0.2l0.3-0.1l0-0.1l-0.2,0.2l0.3-0.1l-0.1,0 l0.1,0l0,0l-0.1,0l0.1,0v0c0,0,0-0.1,0-0.2l0-0.1L58.3,37.6l0,0.4L58.3,37.6l-0.4,0l0,0c0,0.1,0,0.1,0,0.2c0,0.1,0,0.2,0.1,0.3 c3.6,5.2,7.2,10.4,10.8,15.5c0.1,0.2,0.3,0.4,0.5,0.5c0.2,0.2,0.5,0.3,0.8,0.3c2.1,0,4.2,0.1,6.3,0.1c0.1,0,0.2,0,0.3-0.1 c0.1-0.1,0.1-0.2,0.1-0.3c0-0.3,0-0.4,0-0.5l0-0.2l-0.1-0.2c-3.5-5.1-7-10.1-10.5-15.2c-0.2-0.3-0.4-0.5-0.7-0.6 c-0.3-0.1-0.6-0.2-0.9-0.2c-2,0-4.1-0.1-6.2-0.1c-0.1,0-0.2,0-0.3,0.1c-0.1,0.1-0.1,0.2-0.1,0.3L58.3,37.6z"/><path class="st5" d="M55.2,31.2c1.7-1.9,3.2-3.7,4.8-5.4c2.9-3.2,5.9-6.4,8.7-9.6c0.9-1,1.8-1.5,3.1-1.3c1.3,0.2,2.6,0,3.9,0.6 c-3.4,3.8-6.8,7.6-10.2,11.4c-1.2,1.4-2.5,2.7-3.7,4.1c-0.3,0.3-0.6,0.8-1.2,0.7C58.9,31.5,57.2,31.4,55.2,31.2"/><path class="st5" d="M55.2,31.2l0.3,0.3c1.7-1.9,3.2-3.7,4.8-5.4c2.9-3.2,5.9-6.4,8.7-9.6c0.7-0.8,1.3-1.2,2.2-1.2 c0.2,0,0.3,0,0.5,0c1.3,0.2,2.6,0,3.8,0.6l0.2-0.4l-0.3-0.3c-3.4,3.8-6.8,7.6-10.2,11.4c-1.2,1.4-2.5,2.7-3.7,4.1 c-0.2,0.2-0.3,0.3-0.4,0.4c-0.1,0.1-0.2,0.1-0.4,0.1l-0.1,0c-1.7-0.2-3.4-0.3-5.4-0.5L55.2,31.2l0.3,0.3L55.2,31.2l0,0.4 c2,0.2,3.7,0.3,5.4,0.5l0.2,0c0.4,0,0.7-0.2,0.9-0.3c0.2-0.2,0.4-0.4,0.5-0.5c1.2-1.4,2.5-2.7,3.7-4.1c3.4-3.8,6.8-7.5,10.2-11.4 c0.1-0.1,0.1-0.2,0.1-0.4c0-0.1-0.1-0.2-0.2-0.3c-1.5-0.7-2.9-0.4-4-0.6c-0.2,0-0.4-0.1-0.7-0.1c-1.1,0-2,0.6-2.8,1.4 c-2.9,3.2-5.8,6.4-8.7,9.6c-1.5,1.7-3.1,3.4-4.8,5.4c-0.1,0.1-0.1,0.3-0.1,0.4c0.1,0.1,0.2,0.2,0.3,0.3L55.2,31.2z"/><path class="st5" d="M48.1,30.3c2.1-2.4,4.1-4.5,6-6.7c2.3-2.6,4.7-5.1,7-7.8c0.7-0.8,1.5-1,2.4-1c1.4,0,2.8,0,4.3,0.1 c-4.8,5.3-9.5,10.5-14.2,15.6c-0.2,0.3-0.5,0.4-0.8,0.4C51.4,30.8,49.9,30.5,48.1,30.3"/><path class="st5" d="M48.1,30.3l0.3,0.3c2.1-2.4,4.1-4.5,6-6.7c2.3-2.6,4.7-5.1,7-7.8c0.3-0.3,0.6-0.5,0.9-0.7 c0.3-0.1,0.7-0.2,1.1-0.2l0.1,0c1.4,0,2.8,0,4.3,0.1l0-0.4l-0.3-0.3c-4.8,5.3-9.5,10.5-14.2,15.6c-0.1,0.1-0.2,0.2-0.2,0.2L53,30.6 l-0.1,0c-1.5-0.2-3-0.4-4.8-0.7L48.1,30.3l0.3,0.3L48.1,30.3L48,30.7c1.8,0.3,3.3,0.5,4.8,0.7l0.2,0c0.2,0,0.4-0.1,0.6-0.2 c0.2-0.1,0.3-0.2,0.4-0.4c4.7-5.2,9.4-10.4,14.2-15.6c0.1-0.1,0.1-0.3,0.1-0.4c-0.1-0.1-0.2-0.2-0.4-0.2c-1.6,0-2.9,0-4.3-0.1 l-0.2,0c-0.5,0-0.9,0.1-1.4,0.2c-0.4,0.2-0.8,0.5-1.2,0.9c-2.3,2.6-4.7,5.2-7,7.8c-1.9,2.1-3.9,4.3-6,6.7c-0.1,0.1-0.1,0.3-0.1,0.4 c0,0.1,0.2,0.2,0.3,0.3L48.1,30.3z"/><path class="st5" d="M82.7,16.6c-3.9,4.4-7.7,8.6-11.4,12.8l-0.1,0.1c-1.6,3.1-4.4,2.5-7,2.4c-0.3,0-0.6,0-0.7-0.3 c-0.1-0.2,0.1-0.4,0.2-0.5c4.8-4.7,9-9.9,13.5-14.7c0.3-0.3,0.5-0.6,0.9-0.6C79.6,15.9,81.1,16,82.7,16.6"/><path class="st5" d="M82.7,16.6l-0.3-0.3c-3.9,4.4-7.6,8.6-11.4,12.8l0.3,0.3L71,29.1l-0.1,0.1l-0.1,0.1c-0.5,1-1.1,1.5-1.8,1.9 c-0.7,0.3-1.5,0.4-2.4,0.4c-0.8,0-1.6-0.1-2.5-0.1c-0.2,0-0.3,0-0.3,0l0,0l0,0l0,0l0,0l0,0l0,0l0,0v0l-0.1,0h0.1l0,0l-0.1,0h0.1 h-0.1l0.1,0l0,0h-0.1l0.1,0l0,0l0,0l0,0l0,0l0,0c0,0,0.1-0.1,0.2-0.2c4.8-4.7,9-9.9,13.5-14.8c0.1-0.1,0.2-0.3,0.3-0.3 c0.1-0.1,0.1-0.1,0.2-0.1l0,0c1.5,0.1,2.9,0.3,4.5,0.8L82.7,16.6l-0.3-0.3L82.7,16.6l0.1-0.4c-1.7-0.5-3.2-0.7-4.7-0.8l-0.1,0 c-0.3,0-0.6,0.1-0.7,0.3c-0.2,0.1-0.3,0.3-0.4,0.4c-4.6,4.9-8.8,10.1-13.5,14.7c-0.1,0-0.1,0.1-0.2,0.2c-0.1,0.1-0.2,0.3-0.2,0.5 c0,0.1,0,0.2,0.1,0.3c0.1,0.3,0.4,0.4,0.6,0.5c0.2,0,0.4,0,0.5,0c0.8,0,1.7,0.1,2.5,0.1c0.9,0,1.9-0.1,2.7-0.5 c0.9-0.4,1.6-1.1,2.2-2.2l-0.4-0.2l0.3,0.3l0.1-0.1l0,0c3.8-4.2,7.5-8.4,11.4-12.8c0.1-0.1,0.1-0.2,0.1-0.4c0-0.1-0.1-0.2-0.3-0.3 L82.7,16.6z"/><path class="st5" d="M89.3,18.1c-3.1,3.5-5.9,6.7-8.8,9.9c-0.2,0.2-0.5,0.4-0.7,0.7c-1.9,3.4-5.1,3.5-8.4,3.2 c-0.2-0.3,0-0.5,0.2-0.7c4.1-4.5,8.1-9.1,12.2-13.6c0.4-0.5,0.8-0.7,1.4-0.5C86.5,17.3,87.7,17.6,89.3,18.1"/><path class="st5" d="M89.3,18.1L89,17.8c-3.1,3.5-5.9,6.7-8.8,9.9c-0.2,0.2-0.5,0.4-0.7,0.8c-0.7,1.3-1.6,2-2.6,2.5 c-1,0.5-2.1,0.6-3.3,0.6c-0.7,0-1.4,0-2.1-0.1l0,0.4l0.4-0.2l0-0.1l0-0.1l0.1-0.2c4.1-4.5,8.1-9.1,12.2-13.6 c0.1-0.2,0.3-0.3,0.4-0.3c0.1-0.1,0.2-0.1,0.3-0.1c0.1,0,0.2,0,0.3,0c1.2,0.4,2.5,0.7,4,1.1L89.3,18.1L89,17.8L89.3,18.1l0.1-0.4 c-1.5-0.4-2.8-0.7-4-1.1c-0.2,0-0.3-0.1-0.5-0.1c-0.3,0-0.5,0.1-0.8,0.2c-0.2,0.1-0.4,0.3-0.6,0.5c-4.1,4.6-8.1,9.1-12.2,13.6 c-0.1,0.1-0.1,0.2-0.2,0.3c-0.1,0.1-0.1,0.3-0.1,0.5c0,0.1,0,0.3,0.1,0.4c0.1,0.1,0.2,0.2,0.3,0.2c0.7,0.1,1.5,0.1,2.2,0.1 c1.3,0,2.5-0.2,3.7-0.7c1.1-0.5,2.2-1.4,2.9-2.8c0.1-0.2,0.3-0.4,0.6-0.6c2.9-3.2,5.7-6.5,8.8-9.9c0.1-0.1,0.1-0.2,0.1-0.4 c0-0.1-0.1-0.2-0.3-0.3L89.3,18.1z"/><path class="st5" d="M41.2,29.1c3.9-4.2,7.7-8.3,11.5-12.4c0.4-0.4,0.8-0.8,1.3-0.8c1.7-0.3,3.5-0.5,5.7-0.8 c-2.3,2.6-4.3,4.9-6.4,7.2c-2,2.2-4.1,4.4-6.1,6.7c-0.8,0.9-1.6,1.2-2.7,0.9C43.5,29.5,42.4,29.3,41.2,29.1"/><path class="st5" d="M41.2,29.1l0.3,0.3c3.9-4.2,7.7-8.3,11.5-12.4c0.4-0.4,0.7-0.7,1.1-0.7c1.7-0.3,3.5-0.5,5.7-0.8l-0.1-0.4 l-0.3-0.3c-2.3,2.6-4.3,4.9-6.4,7.1c-2,2.2-4.1,4.4-6.1,6.7c-0.5,0.6-1,0.8-1.6,0.8c-0.2,0-0.4,0-0.7-0.1c-1.1-0.3-2.2-0.5-3.4-0.7 L41.2,29.1l0.3,0.3L41.2,29.1l-0.1,0.4c1.2,0.2,2.3,0.4,3.3,0.7c0.3,0.1,0.6,0.1,0.9,0.1c0.8,0,1.6-0.4,2.2-1.1 c2-2.3,4.1-4.4,6.1-6.7c2.1-2.3,4.1-4.6,6.4-7.2c0.1-0.1,0.1-0.3,0.1-0.5c-0.1-0.1-0.2-0.2-0.4-0.2c-2.2,0.3-3.9,0.5-5.7,0.8 c-0.7,0.1-1.2,0.6-1.6,1c-3.8,4.1-7.6,8.2-11.5,12.4c-0.1,0.1-0.1,0.3-0.1,0.4c0,0.1,0.2,0.2,0.3,0.3L41.2,29.1z"/><path class="st5" d="M79.6,31.4c2.6-2.9,4.9-5.6,7.3-8.2c1-1.2,2.1-2.3,3.1-3.5c0.8-0.9,3.8-0.8,4.5,0.2c0.3,0.4,0,0.7-0.3,1 c-2.7,3.2-5.4,6.3-8.1,9.5c-0.3,0.3-0.6,0.6-1,0.7C83.4,31.2,81.7,31.6,79.6,31.4"/><path class="st5" d="M79.6,31.4l0.3,0.3c2.6-2.9,4.9-5.6,7.2-8.2c1-1.2,2.1-2.3,3.1-3.5c0.1-0.1,0.4-0.3,0.7-0.4 c0.3-0.1,0.7-0.1,1.1-0.1c0.5,0,0.9,0.1,1.3,0.2c0.4,0.1,0.7,0.3,0.8,0.5l0,0.1l-0.1,0.1c-0.1,0.1-0.1,0.2-0.2,0.3 c-2.7,3.2-5.4,6.3-8.1,9.5c-0.1,0.2-0.3,0.3-0.4,0.4c-0.1,0.1-0.2,0.1-0.4,0.2c-1.4,0.2-2.7,0.5-4.3,0.5c-0.4,0-0.7,0-1.1-0.1 L79.6,31.4l0.3,0.3L79.6,31.4l0,0.4c0.4,0,0.8,0.1,1.2,0.1c1.6,0,3-0.3,4.4-0.5c0.3,0,0.6-0.2,0.8-0.3c0.2-0.2,0.4-0.3,0.5-0.5 c2.7-3.2,5.4-6.3,8.1-9.5c0.1-0.1,0.2-0.2,0.3-0.3c0.1-0.1,0.2-0.3,0.2-0.6c0-0.2-0.1-0.4-0.2-0.6c-0.3-0.4-0.7-0.6-1.2-0.8 c-0.5-0.2-1-0.2-1.6-0.2c-0.5,0-0.9,0.1-1.3,0.2c-0.4,0.1-0.8,0.3-1.1,0.6c-1,1.2-2.1,2.3-3.1,3.5c-2.4,2.7-4.7,5.3-7.3,8.2 c-0.1,0.1-0.1,0.3-0.1,0.4c0.1,0.1,0.2,0.2,0.3,0.3L79.6,31.4z"/><path class="st5" d="M50.4,16.9c-3.5,3.9-7.1,7.7-10.6,11.6c-0.4,0.4-3.2,0-3.6-0.5c-0.4-0.5,0.1-0.8,0.3-1.1 c2.4-2.7,4.7-5.5,7.3-8C45.5,17.2,48,17.3,50.4,16.9"/><path class="st5" d="M50.4,16.9l-0.3-0.3c-3.5,3.9-7.1,7.7-10.6,11.6l0.1,0.1l-0.1-0.1l0,0l0.1,0.1l-0.1-0.1l0,0 c0,0-0.3,0.1-0.5,0.1c-0.5,0-1.1-0.1-1.6-0.2c-0.3-0.1-0.5-0.1-0.7-0.2l-0.2-0.1l0,0l0,0l0,0l0,0l0,0l0,0l0,0 c-0.1-0.1-0.1-0.1-0.1-0.1l0.1-0.1c0.1-0.1,0.2-0.2,0.3-0.3c2.4-2.7,4.7-5.5,7.3-8c0.8-0.7,1.8-1.1,2.9-1.3 c1.1-0.2,2.3-0.3,3.6-0.5L50.4,16.9l-0.3-0.3L50.4,16.9l-0.1-0.4c-1.2,0.2-2.4,0.3-3.6,0.5c-1.2,0.2-2.3,0.6-3.3,1.5 c-2.6,2.5-4.9,5.4-7.3,8.1c-0.1,0.1-0.2,0.2-0.3,0.3c-0.1,0.1-0.3,0.4-0.3,0.6c0,0.2,0.1,0.5,0.3,0.7c0.2,0.2,0.4,0.3,0.6,0.4 c0.7,0.3,1.7,0.4,2.5,0.4c0.2,0,0.4,0,0.6,0c0.2,0,0.4-0.1,0.5-0.3c3.5-3.8,7.1-7.7,10.6-11.6c0.1-0.1,0.1-0.3,0.1-0.5 c-0.1-0.1-0.2-0.2-0.4-0.2L50.4,16.9z"/><path class="st5" d="M88,30.4c2.8-3.2,5.4-6.2,7.9-9.3c0.8-0.9,1.4-0.2,2,0.1c2.2,1,2.2,1,0.8,2.9c-0.4,0.6-1,1-1.3,1.6 C95.5,29.5,92.1,30.2,88,30.4"/><path class="st5" d="M88,30.4l0.3,0.3c2.8-3.2,5.4-6.2,7.9-9.3c0.2-0.3,0.4-0.3,0.5-0.3c0.1,0,0.2,0,0.4,0.1 c0.2,0.1,0.4,0.2,0.6,0.3c0.6,0.3,1,0.5,1.3,0.6c0.1,0.1,0.2,0.1,0.2,0.2l0,0.1c0,0,0,0.2-0.2,0.4c-0.2,0.2-0.4,0.6-0.7,1 c-0.4,0.5-1,1-1.4,1.7c-0.9,1.8-2.1,2.8-3.6,3.5c-1.5,0.6-3.3,0.9-5.4,1L88,30.4l0.3,0.3L88,30.4l0,0.4c2.1-0.1,4-0.3,5.6-1 c1.7-0.7,3.1-1.9,4-3.9c0.2-0.5,0.8-1,1.3-1.6c0.3-0.4,0.6-0.7,0.8-1c0.2-0.3,0.3-0.5,0.3-0.9c0-0.2-0.1-0.4-0.2-0.5 c-0.2-0.2-0.4-0.4-0.7-0.5c-0.3-0.2-0.7-0.3-1.1-0.5c-0.2-0.1-0.3-0.2-0.6-0.3c-0.2-0.1-0.5-0.2-0.8-0.2c-0.4,0-0.8,0.2-1.1,0.6 c-2.5,3-5.1,6-7.9,9.3c-0.1,0.1-0.1,0.3-0.1,0.4c0.1,0.1,0.2,0.2,0.4,0.2L88,30.4z"/><path class="st2" d="M52.3,53c-1.6,0.2-2.5-0.3-3.4-1.5c-3.7-5.6-7.5-11.1-11.2-16.6c-0.1-0.1-0.1-0.3-0.3-0.5 c1.1-0.1,1.9,0,2.6,0.9c4,5.8,8,11.5,12,17.2C52.2,52.6,52.2,52.8,52.3,53"/><path class="st2" d="M52.3,53l-0.1-0.4c-0.2,0-0.5,0.1-0.7,0.1c-0.5,0-0.9-0.1-1.3-0.3c-0.4-0.2-0.7-0.6-1-1.1 c-3.7-5.6-7.5-11.1-11.2-16.6c0-0.1-0.1-0.2-0.2-0.5l-0.4,0.2l0,0.4c0.2,0,0.3,0,0.5,0c0.4,0,0.7,0,1,0.2c0.3,0.1,0.5,0.3,0.7,0.6 c4,5.8,8,11.5,12,17.2c0,0,0.1,0.2,0.2,0.5L52.3,53l-0.1-0.4L52.3,53l0.4-0.2c-0.1-0.2-0.1-0.4-0.3-0.6c-4-5.7-8-11.5-12-17.2 c-0.3-0.4-0.7-0.7-1.1-0.9c-0.4-0.2-0.8-0.2-1.3-0.2c-0.2,0-0.4,0-0.6,0c-0.1,0-0.3,0.1-0.3,0.2c-0.1,0.1-0.1,0.3,0,0.4 c0.1,0.3,0.2,0.4,0.3,0.6c3.7,5.5,7.5,11.1,11.2,16.6c0.4,0.6,0.8,1,1.3,1.3c0.5,0.3,1.1,0.5,1.7,0.5c0.2,0,0.5,0,0.8-0.1 c0.1,0,0.2-0.1,0.3-0.2c0.1-0.1,0.1-0.2,0-0.4L52.3,53z"/><path class="st2" d="M106.1,43.1c-2.3-3.2-4.3-6-6.3-8.8c-0.3-0.5-0.3-0.7,0.3-0.9c1.2-0.4,2.5-0.8,3.7-1.1 c0.4-0.1,0.6-0.1,0.8,0.3c0.7,1.3,1.7,2.5,1.6,4.1C106.1,38.6,106.1,40.6,106.1,43.1"/><path class="st2" d="M106.1,43.1l0.3-0.2c-2.3-3.2-4.3-6-6.3-8.8l-0.1-0.2l0,0l0,0l0,0h0v0l0,0h0h-0.1l0.1,0l0,0h-0.1l0.1,0l0,0 l0,0l0,0l0,0l0,0c0,0,0.1-0.1,0.3-0.1c1.3-0.4,2.5-0.8,3.7-1.1l0.2,0l0.1,0l0.1,0.1c0.3,0.7,0.7,1.2,1.1,1.8 c0.3,0.6,0.5,1.2,0.5,1.9l0,0.2c-0.1,2-0.1,4-0.1,6.5L106.1,43.1l0.3-0.2L106.1,43.1l0.4,0c0-2.5,0-4.5,0.1-6.4c0-0.1,0-0.2,0-0.3 c0-0.9-0.3-1.6-0.6-2.2c-0.3-0.6-0.8-1.2-1-1.8c-0.1-0.2-0.2-0.3-0.4-0.4c-0.2-0.1-0.3-0.1-0.5-0.1c-0.2,0-0.3,0-0.4,0.1 c-1.2,0.4-2.5,0.8-3.7,1.1c-0.2,0.1-0.4,0.1-0.5,0.3c-0.2,0.1-0.3,0.3-0.3,0.6c0,0.3,0.1,0.5,0.3,0.7c2,2.8,4.1,5.7,6.3,8.8 c0.1,0.1,0.3,0.2,0.4,0.1c0.2-0.1,0.3-0.2,0.3-0.4L106.1,43.1z"/><path class="st2" d="M53.3,37.2c1.7-0.4,2.6,0.3,3.4,1.5c3.2,4.7,6.5,9.3,9.7,13.9c0.3,0.4,0.7,0.8,0.8,1.5 c-0.9,0.2-1.6,0.2-2.2-0.7c-3.7-5.2-7.5-10.4-11.3-15.6C53.6,37.7,53.5,37.5,53.3,37.2"/><path class="st2" d="M53.3,37.2l0.1,0.4c0.3-0.1,0.6-0.1,0.8-0.1c0.5,0,0.9,0.1,1.2,0.4c0.3,0.2,0.6,0.6,1,1.1 c3.2,4.7,6.5,9.3,9.7,13.9c0.2,0.2,0.3,0.4,0.5,0.6c0.1,0.2,0.2,0.4,0.2,0.6l0.4,0l-0.1-0.4c-0.3,0.1-0.5,0.1-0.7,0.1 c-0.2,0-0.4,0-0.5-0.1c-0.2-0.1-0.3-0.2-0.5-0.5C61.6,48,57.8,42.8,54,37.6c-0.1-0.1-0.2-0.3-0.4-0.6L53.3,37.2l0.1,0.4L53.3,37.2 L53,37.4c0.2,0.3,0.3,0.5,0.4,0.7c3.8,5.2,7.5,10.4,11.3,15.6c0.2,0.3,0.5,0.6,0.8,0.7c0.3,0.1,0.6,0.2,0.9,0.2 c0.3,0,0.6,0,0.9-0.1c0.2,0,0.3-0.2,0.3-0.4c0-0.4-0.2-0.8-0.3-1c-0.2-0.3-0.4-0.5-0.5-0.7c-3.2-4.6-6.5-9.2-9.7-13.9 c-0.3-0.5-0.7-1-1.2-1.3c-0.5-0.3-1-0.5-1.6-0.5c-0.3,0-0.6,0-1,0.1c-0.1,0-0.2,0.1-0.3,0.2c0,0.1,0,0.3,0,0.4L53.3,37.2z"/><path class="st2" d="M66.8,37.9c1.4-0.4,2.2,0,2.8,1c3.1,4.4,6.2,8.8,9.3,13.2c0.3,0.4,1.3,1,0.5,1.5c-0.7,0.4-1.6,0.3-2.2-0.6 c-2.3-3.4-4.7-6.7-7-10.1C69.1,41.3,68,39.7,66.8,37.9"/><path class="st2" d="M66.8,37.9l0.1,0.4c0.4-0.1,0.7-0.1,0.9-0.1c0.3,0,0.6,0.1,0.8,0.2c0.2,0.2,0.5,0.4,0.7,0.7 c3.1,4.4,6.2,8.8,9.3,13.2c0.2,0.2,0.4,0.4,0.5,0.6l0.2,0.2l0,0.1l0,0h0l0,0v0h0l0,0l0,0l-0.1,0.1c-0.2,0.1-0.4,0.2-0.6,0.2 c-0.3,0-0.7-0.2-1.1-0.7c-2.3-3.4-4.7-6.7-7-10.1c-1.1-1.6-2.2-3.2-3.5-5L66.8,37.9l0.1,0.4L66.8,37.9l-0.3,0.2 c1.2,1.8,2.3,3.4,3.5,5c2.3,3.4,4.7,6.7,7,10.1c0.5,0.7,1.1,1,1.7,1c0.4,0,0.7-0.1,1-0.3c0.3-0.2,0.5-0.5,0.5-0.8 c0-0.2-0.1-0.4-0.1-0.5c-0.1-0.2-0.3-0.4-0.4-0.5c-0.1-0.1-0.3-0.3-0.3-0.3c-3.1-4.4-6.3-8.8-9.3-13.2c-0.3-0.4-0.6-0.7-0.9-1 c-0.4-0.2-0.8-0.4-1.3-0.4c-0.3,0-0.7,0.1-1.1,0.2c-0.1,0-0.2,0.1-0.3,0.2c0,0.1,0,0.3,0,0.4L66.8,37.9z"/><path class="st2" d="M95.3,34.8c1.6-1,2.5-0.5,3.3,0.8c2.2,3.3,4.6,6.4,6.9,9.6c0.2,0.3,0.6,0.6,0.6,0.9c0,0.7,0.5,1.8-0.4,2.2 c-0.8,0.4-1.1-0.6-1.5-1.1C101.3,43.1,98.3,39,95.3,34.8"/><path class="st2" d="M95.3,34.8l0.2,0.3c0.5-0.3,0.9-0.4,1.3-0.4c0.3,0,0.5,0.1,0.8,0.3c0.3,0.2,0.5,0.5,0.8,0.9 c2.2,3.3,4.6,6.4,6.9,9.6c0.1,0.2,0.3,0.3,0.4,0.5c0.1,0.1,0.1,0.2,0.1,0.3c0,0.5,0.2,0.9,0.2,1.3c0,0.1,0,0.2-0.1,0.3 c0,0.1-0.1,0.1-0.2,0.2c-0.1,0-0.2,0.1-0.2,0.1l-0.1-0.1c-0.1-0.1-0.2-0.2-0.3-0.4c-0.1-0.2-0.2-0.4-0.4-0.6c-3-4.1-5.9-8.2-9-12.4 L95.3,34.8l0.2,0.3L95.3,34.8L95,35c3,4.2,6,8.3,9,12.4c0.1,0.2,0.3,0.5,0.5,0.8c0.1,0.1,0.2,0.3,0.4,0.4c0.2,0.1,0.4,0.2,0.6,0.2 c0.2,0,0.4,0,0.5-0.1c0.3-0.1,0.5-0.3,0.6-0.6c0.1-0.2,0.2-0.5,0.2-0.7c0-0.5-0.2-1-0.2-1.3c0-0.3-0.2-0.5-0.3-0.7 c-0.1-0.2-0.3-0.3-0.4-0.5c-2.3-3.2-4.7-6.3-6.9-9.6c-0.3-0.4-0.6-0.8-1-1.1c-0.4-0.3-0.8-0.4-1.2-0.4c-0.5,0-1.1,0.2-1.7,0.6 c-0.1,0.1-0.2,0.2-0.2,0.3c0,0.1,0,0.2,0.1,0.3L95.3,34.8z"/><path class="st2" d="M81.4,37.2c1.3-0.5,2.1-0.2,2.8,0.9c2.8,4.1,5.7,8.1,8.6,12.1c0.3,0.4,1.1,0.9,0.5,1.4c-0.7,0.5-1.4,0.3-2-0.6 c-2.4-3.4-4.9-6.8-7.4-10.2C83.1,39.6,82.2,38.4,81.4,37.2"/><path class="st2" d="M81.4,37.2l0.1,0.4c0.4-0.2,0.7-0.2,1-0.2c0.3,0,0.5,0.1,0.7,0.2c0.2,0.1,0.4,0.4,0.7,0.7 c2.8,4.1,5.7,8.1,8.6,12.2c0.2,0.2,0.3,0.4,0.5,0.5l0.2,0.2l0,0.1l0,0h0l0,0l0,0h0l0,0l0,0l0,0l0,0l0,0l0,0L93,51.3 c-0.2,0.1-0.3,0.2-0.5,0.2c-0.3,0-0.6-0.2-1-0.7c-2.4-3.5-4.9-6.8-7.4-10.2c-0.8-1.2-1.7-2.3-2.5-3.6L81.4,37.2l0.1,0.4L81.4,37.2 L81,37.4c0.9,1.2,1.7,2.4,2.5,3.6c2.5,3.4,4.9,6.8,7.3,10.2c0.4,0.6,1,1,1.6,1c0.3,0,0.7-0.1,1-0.3c0.2-0.2,0.4-0.4,0.4-0.7 c0-0.2-0.1-0.3-0.1-0.5c-0.1-0.2-0.3-0.3-0.4-0.5c-0.1-0.1-0.2-0.2-0.3-0.3c-2.9-4.1-5.8-8.1-8.6-12.1c-0.3-0.4-0.5-0.7-0.9-0.9 c-0.3-0.2-0.7-0.4-1.1-0.4c-0.4,0-0.8,0.1-1.3,0.3c-0.1,0-0.2,0.1-0.2,0.3c0,0.1,0,0.2,0.1,0.3L81.4,37.2z"/><path class="st5" d="M97.3,28.5c0.9-1.8,2.5-3.2,3.6-4.9c0.3-0.4,0.7-0.4,1.1-0.2c1.3,0.7,2.5,1.4,3.8,2.5 C103,27.1,100.3,28.1,97.3,28.5L97.3,28.5z"/><path class="st5" d="M97.3,28.5l0.4,0.2c0.9-1.8,2.4-3.1,3.6-4.8c0.1-0.2,0.2-0.2,0.3-0.2c0.1,0,0.2,0,0.3,0.1 c1.3,0.7,2.5,1.4,3.7,2.5l0.3-0.3l-0.2-0.4c-2.8,1.2-5.5,2.2-8.4,2.5L97.3,28.5l0.3-0.3l0,0L97.3,28.5l0.4,0.2L97.3,28.5L97,28.7 l0,0c0.1,0.1,0.2,0.1,0.3,0.1c3-0.4,5.8-1.4,8.6-2.6c0.1-0.1,0.2-0.2,0.2-0.3c0-0.1,0-0.3-0.1-0.4c-1.3-1.2-2.6-1.9-3.8-2.6 c-0.2-0.1-0.5-0.2-0.7-0.2c-0.4,0-0.7,0.2-1,0.5c-1.1,1.6-2.7,3-3.7,4.9c-0.1,0.2,0,0.3,0.1,0.5L97.3,28.5z"/><path class="st5" d="M40,20.7c-1.9,2.1-3.8,4.3-5.7,6.3c-0.9,0.9-1.8,0.1-2.7-0.2c-0.4-0.1,0-0.6,0.2-0.8c2.3-2.4,4.8-4.4,7.9-5.6 L40,20.7z"/><path class="st5" d="M40,20.7l-0.3-0.3c-1.9,2.1-3.8,4.3-5.7,6.3c-0.2,0.2-0.4,0.3-0.6,0.3c-0.2,0-0.5-0.1-0.7-0.2 c-0.3-0.1-0.6-0.3-0.9-0.4l0,0.1l0-0.1l0,0l0,0.1l0-0.1l-0.1,0.1h0.2l-0.1-0.1l-0.1,0.1h0.2h-0.1l0.1,0v0h-0.1l0.1,0 c0,0,0.1-0.2,0.2-0.3c2.2-2.4,4.7-4.3,7.7-5.5l-0.1-0.4l-0.3,0.3c0.1,0.1,0.2,0.2,0.3,0.3L40,20.7l-0.3-0.3L40,20.7l0.3-0.3 c-0.1-0.1-0.2-0.2-0.3-0.3c-0.1-0.1-0.3-0.1-0.4-0.1c-3.1,1.2-5.7,3.3-8,5.7c-0.1,0.1-0.2,0.2-0.3,0.3c-0.1,0.1-0.2,0.3-0.2,0.5 c0,0.1,0,0.2,0.1,0.4c0.1,0.1,0.2,0.2,0.3,0.2c0.2,0.1,0.5,0.2,0.8,0.4c0.3,0.1,0.7,0.3,1.1,0.3c0.4,0,0.8-0.2,1.2-0.5 c2-2.1,3.8-4.2,5.7-6.3c0.1-0.2,0.1-0.4,0-0.6L40,20.7z"/><path class="st2" d="M37.7,50.4c-3-0.3-6.5-5-6-8.1C33.7,45.1,35.7,47.7,37.7,50.4"/><path class="st2" d="M37.7,50.4l0-0.4c-1.2-0.1-2.7-1.1-3.8-2.5C32.8,46.1,32,44.4,32,43c0-0.2,0-0.4,0-0.5l-0.4-0.1l-0.3,0.2 c2,2.7,4,5.3,6,8.1L37.7,50.4l0-0.4L37.7,50.4l0.3-0.2c-2-2.7-4-5.3-6-8.1C31.9,42,31.7,42,31.6,42c-0.2,0-0.3,0.2-0.3,0.3 c0,0.2-0.1,0.4-0.1,0.7c0,1.7,0.9,3.5,2.1,5c1.2,1.5,2.8,2.7,4.3,2.8c0.2,0,0.3-0.1,0.4-0.2c0.1-0.1,0.1-0.3,0-0.4L37.7,50.4z"/><path class="st2" d="M31.5,46.5c0.6,0.8,0.8,1.2,1.1,1.6c0.2,0.3,0.6,0.6,0.4,1c-0.2,0.4-0.7,0.1-1,0.1c-0.6,0-0.5-0.5-0.5-0.8 C31.4,47.8,31.5,47.3,31.5,46.5"/><path class="st2" d="M31.5,46.5l-0.3,0.2c0.6,0.8,0.8,1.2,1.1,1.6c0.1,0.2,0.2,0.3,0.3,0.4l0.1,0.1l0,0l0,0l0,0l0,0l0,0l0,0l0,0 l0,0l0,0c0,0-0.1,0-0.2,0c-0.1,0-0.2-0.1-0.4-0.1l-0.1,0l0,0l0,0l0,0l0,0l0,0l0,0.1l0.1,0l0,0l0,0.1l0.1,0l-0.1,0l0.1,0l0,0l-0.1,0 l0.1,0l0,0l0-0.1c0-0.1,0-0.2,0-0.3v0v0l0-0.2c0-0.4,0-0.8,0-1.6L31.5,46.5l-0.3,0.2L31.5,46.5l-0.4,0c0,0.7,0,1.2,0,1.6l0,0.2 l0.4,0l-0.4,0v0c0,0.1,0,0.2,0,0.3c0,0.2,0,0.4,0.2,0.6c0.1,0.1,0.2,0.2,0.3,0.2c0.1,0,0.3,0.1,0.4,0.1c0,0,0.1,0,0.3,0 c0.1,0,0.3,0.1,0.4,0.1c0.1,0,0.2,0,0.4-0.1c0.1-0.1,0.2-0.2,0.3-0.3c0.1-0.1,0.1-0.3,0.1-0.5c0-0.3-0.1-0.5-0.2-0.6 c-0.1-0.1-0.2-0.3-0.3-0.3c-0.3-0.4-0.6-0.8-1.1-1.6c-0.1-0.1-0.3-0.2-0.4-0.1c-0.2,0.1-0.3,0.2-0.3,0.4L31.5,46.5z"/><polygon class="st5" points="97.3,28.5 97.2,28.6 97.3,28.5"/><path class="st5" d="M97.3,28.5l-0.2-0.3l-0.2,0.1l0.2,0.3l0.3,0.3l0.1-0.2L97.3,28.5L97,28.7l0,0L97.3,28.5l-0.2-0.3L97.3,28.5 l0.3-0.3l0,0c-0.1-0.1-0.2-0.1-0.3-0.1c-0.1,0-0.2,0-0.3,0.1l-0.1,0.2c-0.1,0.2-0.2,0.4,0,0.5c0.1,0.2,0.4,0.2,0.5,0.1l0.2-0.1 c0.1-0.1,0.1-0.2,0.2-0.3c0-0.1,0-0.2-0.1-0.3L97.3,28.5z"/><rect x="32.9" y="82.4" class="st5" width="73" height="7.3"/><path class="st5" d="M105.9,89.7v-0.4H33.3v-6.5h72.2v6.9H105.9v-0.4V89.7h0.4v-7.3c0-0.1,0-0.2-0.1-0.3c-0.1-0.1-0.2-0.1-0.3-0.1 h-73c-0.1,0-0.2,0-0.3,0.1c-0.1,0.1-0.1,0.2-0.1,0.3v7.3c0,0.1,0,0.2,0.1,0.3c0.1,0.1,0.2,0.1,0.3,0.1h73c0.1,0,0.2,0,0.3-0.1 c0.1-0.1,0.1-0.2,0.1-0.3H105.9z"/><path class="st1" d="M42.9,80.8c-1.7-2.2-2.6-4.7-2.2-7.3c0.6-3.9,3.3-6.2,6.9-7.5c2.8-1,5.5-2.2,7.7-4.2c0.4-0.4,1-0.7,0.8-1.3 c-0.1-0.6-0.8-0.3-1.3-0.3c-7.9-0.9-15.7-2.3-23.2-4.9c-1.2-0.4-1.6-1-1.6-2.3c0-7.8,0-15.6-0.1-23.5c0-0.3,0.1-0.6,0.1-1 c0-0.7,0.3-1.3-0.2-1.9c0-0.1,0-0.2,0-0.3c0.1-0.2,0.2-0.4,0.3-0.6l0,0c0.4,0,0.6-0.3,0.6-0.7c1.7-2.5,4.2-4,6.8-5.3 c3.4-1.8,6.8-3.4,10.6-4.2c1.1-0.2,2.2-0.7,3.4-0.8c0.4,0,0.9,0.1,1.3-0.3l0,0c0.6,0,1.2,0.1,1.6-0.3l0,0c1.1,0,2.2,0.1,3.2-0.5 c1.8-0.2,3.7,0.2,5.6-0.3c0.9,0,1.8,0,2.7,0c3.6,0,7.1,0.1,10.7,0.8c9.9,0.7,19,3.9,27.7,8.6c0.6,0.3,1,0.7,1.5,1.1 c1.1,0.9,1.7,1.9,1.7,3.5c-0.1,8.6,0.1,17.3,0.2,25.9c0,1.2-0.3,1.7-1.5,2c-7.4,2-14.9,3.7-22.5,4.5c-0.2,0-0.5,0.2-0.7,0.3 c0.5,1,1.3,1.6,2.3,2c3.6,1.6,7.4,2.4,11,3.7c3.1,1.1,5.3,3.1,6,6.5c0.6,2.8-0.4,4.9-2.6,6.6c-0.6,0.4-1.2,0.9-1.9,1.4 c0.7,0.4,1.3,0.3,1.9,0.3c2.5,0,5,0,7.5,0c1.5,0,2.3,0.4,2.1,2.2c-0.2,2.7-0.1,5.4,0,8.1c0,0.9-0.2,1.2-1.1,1.2 c-3.2-0.1-6.4,0.1-9.6,0.1c-13.4,0-26.8-0.1-40.2,0c-5.9,0-11.9,0.1-17.8,0c-3,0-5.9-0.1-8.9-0.1c0-0.4,0-0.9,0-1.3 c0.8-0.8,0.3-1.7,0.3-2.6c-0.1-1.5,0.3-3.1-0.2-4.5c0-0.7,0-1.3,0-2c0.7-0.5,1.5-0.6,2.4-0.6c2.6,0.1,5.3,0.1,7.9,0.1 C42.2,81.1,42.8,81.5,42.9,80.8 M97.3,28.5c2.9-0.4,5.7-1.3,8.5-2.6c-1.2-1.1-2.5-1.8-3.8-2.5c-0.4-0.2-0.8-0.2-1.1,0.2 C99.8,25.2,98.2,26.6,97.3,28.5c-0.1,0-0.1,0.1-0.2,0.1C97.2,28.6,97.3,28.5,97.3,28.5 M89.2,80.5c-4-1.9-7.1-4.9-10.2-8 c-0.3,1.6-0.6,3.1-0.9,4.5c-0.4,1.5-1.6,2.4-3,3.7c1.5,0,2.6,0,3.7,0.1c3.8,0.1,7.7,0.1,11.5,0.2c0,0,0-0.1,0-0.1 C89.9,80.7,89.5,80.6,89.2,80.5 M53.6,82.9C53.6,83.2,53.6,82.7,53.6,82.9c-6.3-0.1-12.6-0.2-19-0.3c-1.3,0-1.5,0.6-1.4,1.6 c0,1.2,0.2,2.4,0.1,3.6c-0.1,1.3,0.2,1.8,1.7,1.7c8-0.1,16.1-0.1,24.1-0.2c5.1,0,10.2,0,15.2,0.1c9.7,0,19.5-0.4,29.2,0.1 c1.8,0.1,2.2-0.2,2.2-2.1c0-1.1-0.1-2.2,0-3.2c0.1-1.2-0.3-1.7-1.6-1.7c-8.6,0.1-17.3,0.2-25.9,0.1C70,82.5,61.8,83.1,53.6,82.9 M68,59.4c12.2,0,24.2-1.8,36-5c2.4-0.7,2.4-0.6,2.3-3.4c0-1-0.3-1.3-1.3-1c-8,2.6-16.2,4.1-24.6,4.9c-9.7,0.9-19.4,0.7-29.1-0.5 c-6.4-0.8-12.7-2.1-18.9-3.8c-0.3-0.1-0.8-0.6-1,0.2c-0.5,1.6,0.2,2.9,1.8,3.5c6.9,2.3,14,3.5,21.2,4.3 C58.9,59.2,63.4,59.5,68,59.4 M67.8,36.4c10.5-0.1,20.9-1.4,31.1-4.1c2.1-0.6,4.1-1.3,6.2-1.9c1.5-0.4,1.1-1.5,0.9-2.3 c-0.3-1.1-1-0.1-1.5-0.1c-0.8,0.1-1.6,0.5-2.5,0.8c-17.9,5.3-36.1,5.6-54.4,2.9c-5.1-0.8-10.1-1.8-15-3.2c-1-0.3-1.1,0-1.2,0.9 c-0.2,1.9,1.2,1.8,2.2,2.1C44.8,34.9,56.2,36.4,67.8,36.4 M80.1,60.8c0.8,2,1.7,3.6,3.4,4.8c2.2,1.6,4.5,2.9,7.2,3.5 c1.5,0.3,3,0.9,4.2,1.9c0.8,0.7,1.4,1.6,1.1,2.6c-0.4,1.2-1.4,1.6-2.7,1.4c-2.9-0.4-5.4-1.7-7.5-3.8c-3-3.1-6.1-6.1-8.5-9.8 C77,61,76.5,60.7,76,61c-0.8,0.4-0.2,0.9,0,1.4c0.3,0.8,0.6,1.6,1,2.4c2.2,5.6,5.4,10.3,11,13.1c3.7,1.8,7.4,1.8,11-0.3 c2.4-1.4,2.9-3.9,1.4-6.3c-0.9-1.4-2.1-2.4-3.6-3.2c-1.8-0.9-3.7-1.6-5.6-2c-3.2-0.8-6.2-1.9-8.6-4.2 C81.9,61.3,81.3,60.7,80.1,60.8 M42.6,74.6c-0.3,3.7,3.3,6.5,5.8,5.9c4.4-1,8.3-3,10.5-7.1c1.4-2.5,2.5-5.2,3.6-7.8 c0.5-1.1,0.8-2.2,1.1-3.4c0.1-0.4,0.4-1.2-0.4-1.3c-0.6-0.1-1.4-0.3-1.5,0.9c-0.1,0.9-0.7,1.7-1,2.5c-1.8,4.5-4.7,8.2-8.7,11 c-1.1,0.7-2.3,1.2-3.6,1.3c-1,0-2-0.2-2.5-1.2c-0.5-1-0.4-2,0.3-2.9c1.1-1.7,2.9-2.3,4.6-3.1c3.7-1.6,7.7-2.9,9-7.3 c0.1-0.4,0.6-0.8,0.2-1.2c-0.4-0.4-0.9-0.2-1.3,0.1c-3.4,3.4-7.8,4.9-12,6.9C44.1,69.2,42.6,71.3,42.6,74.6 M63.7,54.1 c0.1-0.1,0.1-0.3,0.2-0.4c-3.3-4.6-6.8-9.2-10-13.9c-1.5-2.2-3.2-3.6-5.9-3.6c-1.8,0-3.6-0.9-5.5-0.8c0,0.2,0,0.3,0.1,0.4 c4,5.7,8,11.4,11.9,17.1c0.3,0.4,0.6,0.6,1,0.6C58.2,53.7,60.9,53.9,63.7,54.1 M78.7,37.3c-2.1,0.1-4.4,0.3-6.6,0.4 c-1.1,0-1,0.4-0.5,1.1c3.3,4.6,6.6,9.3,9.9,14c0.3,0.5,0.6,0.8,1.3,0.7c2.1-0.4,4.2-0.8,6.4-1c1.2-0.1,1.5-0.3,0.7-1.5 c-3.1-4.3-6.2-8.6-9.2-12.9C80.2,37.4,79.6,37.1,78.7,37.3 M104.1,49c-3.4-4.7-6.5-9.1-9.7-13.5c-0.3-0.5-0.7-0.5-1.3-0.4 c-2.3,0.5-4.5,0.9-6.8,1.3c-1.1,0.2-1,0.5-0.5,1.2c3.1,4.3,6.1,8.6,9.2,12.9c0.3,0.5,0.6,0.8,1.3,0.6 C98.9,50.3,101.4,49.7,104.1,49 M48.6,52.8c-4.4-6.5-8.5-12.6-12.8-18.7c-0.9-1.3-2.7-1.5-4-1.4c-0.9,0.1-0.3,1.8-0.4,2.7 c-0.1,0.6,0.1,1.3,0,1.9c-0.1,1.3,0.3,2.4,1.1,3.4c2.4,3.2,4.8,6.4,7.2,9.6c0.4,0.5,0.7,0.9,1.4,1C43.4,51.8,45.8,52.2,48.6,52.8 M76.6,72c0.1-3.7-1.4-6.9-3-10.1c-0.5-1.1-1.5-0.9-2.3-0.7c-1,0.3-0.1,1.1,0,1.6c0.3,1.4,0.8,2.7,1.1,4.1c0.6,2.6,1.2,5.3,0,7.9 c-0.5,1.1-1.1,2.1-2.5,2.3c-1.5,0.1-2.6-0.4-3.3-1.8c-0.6-1.3-1-2.6-0.7-4c0.7-3.2,1.2-6.4,2.6-9.3c0.2-0.3,0.6-1-0.1-1 c-0.9-0.1-2.1-0.6-2.6,0.8c-0.7,1.8-1.4,3.7-2.3,5.4c-1,2-1.2,4.1-0.8,6.2c0.4,2.1,0.8,4.3,2.7,5.5c4.8,3.2,10.7,0.2,11.1-5.5 C76.6,72.9,76.6,72.5,76.6,72 M58.3,37.6c0,0.2,0,0.3,0,0.4c3.6,5.2,7.2,10.4,10.8,15.5c0.2,0.3,0.5,0.6,0.9,0.6 c2.1,0,4.2,0.1,6.3,0.1c-0.1-0.5,0-0.7-0.1-0.7c-3.5-5.1-7-10.1-10.5-15.2c-0.3-0.5-0.7-0.6-1.2-0.6C62.5,37.7,60.4,37.6,58.3,37.6 M55.2,31.2c2,0.2,3.7,0.3,5.4,0.5c0.6,0.1,0.9-0.4,1.2-0.7c1.2-1.4,2.5-2.7,3.7-4.1c3.4-3.8,6.8-7.5,10.2-11.4 c-1.3-0.6-2.7-0.4-3.9-0.6c-1.3-0.2-2.2,0.3-3.1,1.3c-2.9,3.2-5.8,6.4-8.7,9.6C58.5,27.5,57,29.3,55.2,31.2 M48.1,30.3 c1.8,0.3,3.3,0.5,4.8,0.7c0.4,0.1,0.6-0.1,0.8-0.4c4.7-5.2,9.4-10.4,14.2-15.6c-1.6,0-2.9,0-4.3-0.1c-0.9,0-1.7,0.1-2.4,1 c-2.3,2.6-4.7,5.2-7,7.8C52.2,25.8,50.2,27.9,48.1,30.3 M82.7,16.6c-1.6-0.5-3.1-0.7-4.6-0.8c-0.4,0-0.7,0.3-0.9,0.6 c-4.6,4.9-8.8,10.1-13.5,14.7c-0.2,0.1-0.3,0.3-0.2,0.5c0.1,0.3,0.4,0.3,0.7,0.3c2.7,0.1,5.5,0.7,7-2.4c0,0,0.1-0.1,0.1-0.1 C75,25.1,78.8,20.9,82.7,16.6 M89.3,18.1c-1.5-0.4-2.8-0.7-4-1.1c-0.6-0.2-1,0.1-1.4,0.5c-4.1,4.6-8.1,9.1-12.2,13.6 c-0.2,0.2-0.3,0.4-0.2,0.7c3.3,0.3,6.5,0.2,8.4-3.2c0.2-0.3,0.4-0.5,0.7-0.7C83.4,24.7,86.2,21.5,89.3,18.1 M41.2,29.1 c1.2,0.2,2.3,0.4,3.4,0.7c1.1,0.3,1.9,0,2.7-0.9c2-2.3,4.1-4.4,6.1-6.7c2-2.3,4.1-4.6,6.4-7.2c-2.2,0.3-3.9,0.5-5.7,0.8 c-0.6,0.1-1,0.4-1.3,0.8C48.9,20.8,45.1,24.9,41.2,29.1 M79.6,31.4c2.1,0.2,3.8-0.2,5.5-0.4c0.5-0.1,0.8-0.4,1-0.7 c2.7-3.2,5.4-6.3,8.1-9.5c0.2-0.3,0.6-0.5,0.3-1c-0.7-1-3.7-1.1-4.6-0.2c-1,1.2-2.1,2.3-3.1,3.5C84.5,25.8,82.1,28.5,79.6,31.4 M50.4,16.9c-2.4,0.4-4.9,0.3-6.6,1.9c-2.6,2.5-4.9,5.3-7.3,8c-0.2,0.3-0.7,0.6-0.3,1.1c0.4,0.5,3.2,0.9,3.6,0.5 C43.3,24.6,46.9,20.8,50.4,16.9 M88,30.4c4.1-0.2,7.5-0.9,9.3-4.7c0.3-0.6,0.9-1.1,1.3-1.6c1.4-1.9,1.4-1.9-0.8-2.9 c-0.6-0.3-1.2-1-2-0.1C93.4,24.2,90.8,27.2,88,30.4 M52.3,53c-0.1-0.2-0.2-0.4-0.2-0.5c-4-5.7-8-11.5-12-17.2 c-0.6-0.9-1.5-1-2.6-0.9c0.1,0.3,0.2,0.4,0.3,0.5c3.7,5.5,7.5,11.1,11.2,16.6C49.8,52.8,50.7,53.3,52.3,53 M106.1,43.1 c0-2.5,0-4.5,0.1-6.5c0.1-1.7-1-2.8-1.6-4.1c-0.2-0.4-0.5-0.4-0.8-0.3c-1.2,0.4-2.5,0.8-3.7,1.1c-0.6,0.2-0.7,0.4-0.3,0.9 C101.8,37.1,103.8,40,106.1,43.1 M53.3,37.2c0.2,0.3,0.3,0.5,0.4,0.6C57.5,43,61.3,48.2,65,53.4c0.6,0.9,1.3,0.8,2.2,0.7 c0-0.7-0.5-1-0.8-1.5c-3.2-4.6-6.5-9.2-9.7-13.9C55.9,37.5,55,36.8,53.3,37.2 M66.8,37.9c1.2,1.8,2.3,3.4,3.5,5 c2.3,3.4,4.7,6.7,7,10.1c0.6,0.9,1.6,1.1,2.2,0.6c0.8-0.5-0.2-1.1-0.5-1.5c-3.1-4.4-6.3-8.8-9.3-13.2C69,37.9,68.3,37.5,66.8,37.9 M95.3,34.8c3,4.2,6,8.3,9,12.4c0.4,0.5,0.7,1.5,1.5,1.1c0.9-0.4,0.4-1.4,0.4-2.2c0-0.3-0.4-0.6-0.6-0.9c-2.3-3.2-4.7-6.3-6.9-9.6 C97.7,34.3,96.9,33.8,95.3,34.8 M63.8,80.7c-1.3-1.9-2.1-3.6-2.7-5.5c-0.3-1-0.8-1-1.4-0.2c-1.4,1.8-3.1,3.3-5,4.5 c-0.4,0.3-1.1,0.4-1.2,1C56.8,80.6,60.1,80.7,63.8,80.7 M81.4,37.2c0.9,1.2,1.7,2.4,2.5,3.6c2.5,3.4,4.9,6.8,7.4,10.2 c0.6,0.9,1.3,1.1,2,0.6c0.6-0.5-0.2-1-0.5-1.4c-2.9-4.1-5.8-8.1-8.6-12.1C83.5,37,82.7,36.7,81.4,37.2 M40,20.7 c-0.1-0.1-0.2-0.2-0.3-0.3c-3.1,1.2-5.6,3.2-7.9,5.6c-0.2,0.2-0.5,0.7-0.2,0.8c0.8,0.3,1.8,1.2,2.7,0.2 C36.3,24.9,38.1,22.8,40,20.7 M37.7,50.4c-2-2.7-4-5.3-6-8.1C31.2,45.5,34.7,50.1,37.7,50.4 M31.5,46.5c0,0.9,0,1.4,0,1.8 c0,0.3-0.1,0.8,0.5,0.8c0.4,0,0.8,0.3,1-0.1c0.2-0.4-0.2-0.7-0.4-1C32.3,47.6,32,47.2,31.5,46.5"/><path class="st1" d="M78.7,200c3.5-0.1,7-0.1,10.4-0.2c0.4,0.1,0.7,0.2,1.1,0.3c0,0,0,0.1,0,0.1C86.4,200.1,82.6,200,78.7,200"/><path class="st2" d="M68,178.6c-4.5,0.1-9.1-0.2-13.6-0.7c-7.2-0.8-14.3-2-21.2-4.3c-1.6-0.6-2.2-1.8-1.8-3.5 c0.2-0.8,0.7-0.3,1-0.2c6.2,1.7,12.5,2.9,18.9,3.8c9.7,1.2,19.4,1.4,29.1,0.5c8.4-0.8,16.6-2.4,24.6-4.9c1-0.3,1.3-0.1,1.3,1 c0.1,2.7,0.1,2.7-2.3,3.4C92.2,176.8,80.2,178.6,68,178.6"/><path class="st2" d="M68,178.6l0-0.4c-0.5,0-0.9,0-1.4,0c-4.1,0-8.1-0.2-12.2-0.7c-7.2-0.8-14.3-2-21.1-4.3c-0.6-0.2-1-0.5-1.3-0.8 c-0.3-0.3-0.4-0.7-0.4-1.2c0-0.3,0-0.6,0.1-0.9c0-0.1,0.1-0.2,0.1-0.2l-0.1-0.1v0.1l0.1,0l-0.1-0.1v0.1v0l0,0h0v0l0,0l0.2,0.1 c0.1,0,0.2,0.1,0.3,0.1c6.2,1.7,12.5,3,18.9,3.8c5.7,0.7,11.3,1.1,17,1.1c4.1,0,8.1-0.2,12.2-0.6c8.4-0.8,16.6-2.4,24.6-5 c0.3-0.1,0.4-0.1,0.5-0.1l0.1,0c0,0,0,0,0.1,0.1c0,0.1,0.1,0.3,0.1,0.6c0,0.4,0,0.8,0,1.1c0,0.4,0,0.7-0.1,0.9 c0,0.1-0.1,0.2-0.1,0.3c-0.1,0.1-0.2,0.2-0.5,0.3c-0.3,0.1-0.7,0.2-1.3,0.4c-11.8,3.2-23.7,4.9-35.9,5h0L68,178.6l0,0.4 c12.3,0,24.3-1.8,36.1-5c1-0.3,1.6-0.4,2.1-0.8c0.2-0.2,0.4-0.5,0.4-0.8c0.1-0.3,0.1-0.6,0.1-1.1c0-0.3,0-0.7,0-1.1 c0-0.4,0-0.7-0.2-1c-0.1-0.1-0.2-0.3-0.3-0.4c-0.2-0.1-0.3-0.1-0.5-0.1c-0.2,0-0.5,0.1-0.8,0.2c-8,2.6-16.1,4.1-24.5,4.9 c-4,0.4-8.1,0.6-12.1,0.6c-5.6,0-11.3-0.4-16.9-1.1c-6.4-0.8-12.6-2.1-18.8-3.8c0,0-0.1,0-0.2-0.1c-0.1-0.1-0.3-0.1-0.5-0.1 c-0.2,0-0.4,0.1-0.5,0.2c-0.1,0.1-0.2,0.3-0.3,0.5c-0.1,0.4-0.2,0.8-0.2,1.1c0,0.6,0.2,1.3,0.6,1.7c0.4,0.5,0.9,0.9,1.6,1.1 c6.9,2.4,14.1,3.5,21.2,4.4c4.1,0.5,8.2,0.7,12.3,0.7c0.5,0,0.9,0,1.4,0h0L68,178.6z"/><path class="st2" d="M67.8,155.6c-11.6,0-23-1.6-34.2-4.8c-1-0.3-2.5-0.3-2.2-2.1c0.1-0.9,0.2-1.2,1.2-0.9c4.9,1.4,10,2.4,15,3.2 c18.3,2.8,36.5,2.4,54.4-2.9c0.8-0.2,1.6-0.6,2.5-0.8c0.5-0.1,1.3-1.1,1.5,0.1c0.2,0.8,0.6,1.9-0.9,2.3c-2.1,0.5-4.1,1.3-6.2,1.9 C88.7,154.2,78.4,155.6,67.8,155.6"/><path class="st2" d="M67.8,155.6l0-0.4c-11.6,0-23-1.6-34.1-4.8c-0.5-0.1-1.1-0.2-1.4-0.4c-0.2-0.1-0.3-0.2-0.4-0.3 c-0.1-0.1-0.2-0.3-0.2-0.6c0-0.1,0-0.2,0-0.3c0-0.3,0.1-0.6,0.1-0.6l0,0l0,0l0,0l0,0l0,0l0,0l0.1,0c0.1,0,0.3,0,0.5,0.1 c5,1.4,10,2.4,15.1,3.2c7.3,1.1,14.6,1.7,21.8,1.7c11,0,21.9-1.4,32.8-4.6c0.9-0.3,1.7-0.6,2.4-0.8c0.3-0.1,0.5-0.2,0.7-0.3 c0.1-0.1,0.2-0.1,0.2-0.1l0.1,0v-0.1l0,0.1l0,0v-0.1l0,0.1l0-0.1l0,0l0,0l0-0.1l0,0l0,0.1c0,0,0,0.1,0.1,0.2c0.1,0.3,0.2,0.7,0.2,1 c0,0.2,0,0.4-0.1,0.5c-0.1,0.1-0.3,0.3-0.7,0.4c-2.1,0.5-4.2,1.3-6.2,1.9c-10.1,2.7-20.5,4.1-31,4.1L67.8,155.6l0-0.4L67.8,155.6 l0,0.4c10.6-0.1,21-1.4,31.2-4.2c2.1-0.6,4.1-1.4,6.2-1.9c0.5-0.1,0.9-0.3,1.1-0.6c0.2-0.3,0.3-0.7,0.3-1c0-0.4-0.1-0.8-0.2-1.1 c-0.1-0.2-0.1-0.4-0.3-0.6c-0.1-0.2-0.4-0.3-0.6-0.3c-0.3,0-0.6,0.2-0.8,0.3c-0.2,0.1-0.4,0.2-0.4,0.2c-0.9,0.2-1.7,0.6-2.5,0.8 c-10.8,3.2-21.6,4.6-32.5,4.6c-7.2,0-14.4-0.6-21.7-1.7c-5.1-0.8-10.1-1.8-15-3.1c-0.3-0.1-0.5-0.1-0.7-0.1c-0.2,0-0.3,0-0.5,0.1 c-0.2,0.1-0.4,0.4-0.4,0.6c-0.1,0.2-0.1,0.4-0.1,0.7c0,0.1,0,0.3,0,0.4c0,0.4,0.1,0.8,0.3,1.1c0.3,0.4,0.7,0.6,1.1,0.8 c0.4,0.1,0.8,0.2,1.1,0.3c11.2,3.3,22.7,4.8,34.3,4.9h0L67.8,155.6z"/><path class="st3" d="M80.1,180c1.2-0.2,1.8,0.5,2.4,1c2.4,2.3,5.4,3.4,8.6,4.2c1.9,0.5,3.8,1.2,5.6,2c1.5,0.7,2.7,1.7,3.6,3.2 c1.5,2.4,1,4.9-1.4,6.3c-3.6,2.1-7.2,2.1-11,0.3c-5.6-2.8-8.8-7.5-11-13.1c-0.3-0.8-0.7-1.6-1-2.4c-0.2-0.4-0.7-1,0-1.4 c0.5-0.2,1,0,1.3,0.6c2.4,3.7,5.4,6.7,8.5,9.8c2.1,2.1,4.6,3.4,7.5,3.8c1.3,0.2,2.3-0.2,2.7-1.4c0.4-1.1-0.3-2-1.1-2.6 c-1.2-1-2.7-1.6-4.2-1.9c-2.7-0.6-5-2-7.2-3.5C81.8,183.7,80.9,182,80.1,180"/><path class="st3" d="M80.1,180l0.1,0.4c0.1,0,0.2,0,0.3,0c0.4,0,0.7,0.1,1,0.3c0.3,0.2,0.5,0.4,0.8,0.6c2.5,2.4,5.6,3.5,8.8,4.3 c1.9,0.5,3.8,1.1,5.5,2c1.4,0.7,2.6,1.7,3.4,3c0.5,0.8,0.8,1.7,0.8,2.5c0,1.3-0.7,2.5-2,3.3c-1.8,1-3.6,1.6-5.5,1.6 c-1.7,0-3.4-0.4-5.1-1.3c-5.5-2.7-8.6-7.3-10.8-12.8c-0.3-0.8-0.7-1.6-1-2.4c-0.1-0.2-0.2-0.4-0.2-0.5c-0.1-0.1-0.1-0.2-0.1-0.3 l0,0c0,0,0,0,0.1-0.1l0.2-0.1c0.1,0,0.2,0,0.3,0.1c0.1,0.1,0.2,0.2,0.3,0.4c2.4,3.7,5.5,6.8,8.5,9.9c2.1,2.2,4.7,3.5,7.7,3.9 c0.2,0,0.4,0.1,0.7,0.1c0.6,0,1.1-0.1,1.5-0.4c0.4-0.3,0.8-0.8,1-1.3c0.1-0.3,0.1-0.5,0.1-0.7c0-0.5-0.2-0.9-0.4-1.3 c-0.2-0.4-0.6-0.7-0.9-1c-1.3-1.1-2.8-1.7-4.4-2c-2.6-0.6-4.9-1.9-7.1-3.4c-1.5-1.1-2.5-2.7-3.2-4.6L80.1,180l0.1,0.4L80.1,180 l-0.4,0.1c0.8,2,1.8,3.7,3.5,5c2.2,1.6,4.6,3,7.4,3.6c1.5,0.3,2.9,0.9,4.1,1.9c0.3,0.2,0.6,0.5,0.8,0.8c0.2,0.3,0.3,0.6,0.3,0.9 c0,0.2,0,0.3-0.1,0.5c-0.1,0.5-0.4,0.7-0.6,0.9c-0.3,0.2-0.6,0.3-1.1,0.3c-0.2,0-0.4,0-0.5,0c-2.9-0.4-5.3-1.6-7.3-3.7 c-3-3.1-6.1-6.1-8.4-9.7c-0.1-0.2-0.3-0.4-0.5-0.6c-0.2-0.2-0.5-0.3-0.8-0.3c-0.2,0-0.4,0-0.5,0.1c-0.2,0.1-0.3,0.2-0.5,0.3 c-0.1,0.1-0.2,0.3-0.2,0.5c0,0.3,0.1,0.5,0.2,0.6c0.1,0.2,0.2,0.3,0.2,0.4c0.3,0.8,0.7,1.6,1,2.4c2.2,5.7,5.5,10.5,11.2,13.3 c1.8,0.9,3.7,1.4,5.5,1.4c2,0,3.9-0.6,5.9-1.7c1.6-0.9,2.4-2.4,2.4-4c0-1-0.3-1.9-0.9-2.9c-0.9-1.5-2.2-2.6-3.8-3.3 c-1.8-0.9-3.7-1.6-5.7-2.1c-3.2-0.8-6.1-1.9-8.4-4.1c-0.2-0.2-0.5-0.5-0.9-0.7c-0.4-0.2-0.8-0.4-1.4-0.4c-0.1,0-0.3,0-0.4,0 c-0.1,0-0.2,0.1-0.3,0.2c-0.1,0.1-0.1,0.2,0,0.3L80.1,180z"/><path class="st3" d="M42.6,193.8c0.1-3.3,1.6-5.4,4.1-6.6c4.2-2,8.6-3.5,12-6.9c0.4-0.4,0.9-0.5,1.3-0.1c0.4,0.4-0.1,0.8-0.2,1.2 c-1.3,4.5-5.3,5.8-9,7.3c-1.8,0.7-3.5,1.4-4.6,3.1c-0.6,0.9-0.8,1.9-0.3,2.9c0.5,0.9,1.5,1.2,2.5,1.2c1.3-0.1,2.5-0.5,3.6-1.3 c4.1-2.7,6.9-6.5,8.7-11c0.3-0.8,0.9-1.7,1-2.5c0.1-1.2,0.9-0.9,1.5-0.9c0.8,0.1,0.6,0.9,0.4,1.3c-0.3,1.1-0.7,2.3-1.1,3.4 c-1.1,2.6-2.2,5.3-3.6,7.8c-2.3,4.1-6.2,6.1-10.5,7.1C45.8,200.3,42.2,197.5,42.6,193.8"/><path class="st3" d="M42.6,193.8l0.4,0c0-1.6,0.4-2.9,1.1-3.9c0.7-1,1.6-1.8,2.8-2.3c4.2-2,8.6-3.5,12.1-6.9 c0.2-0.2,0.4-0.2,0.5-0.2c0.1,0,0.2,0,0.3,0.1l0,0l0,0h0l0,0l0,0h0l0,0.1c0,0.1-0.1,0.2-0.1,0.3c-0.1,0.1-0.1,0.2-0.2,0.4 c-0.6,2.1-1.9,3.5-3.5,4.6c-1.6,1-3.5,1.8-5.3,2.5c-1.7,0.7-3.6,1.4-4.8,3.2c-0.4,0.6-0.7,1.2-0.7,1.9c0,0.5,0.1,0.9,0.4,1.4 c0.3,0.5,0.7,0.9,1.2,1.1c0.5,0.2,1,0.3,1.5,0.3l0.2,0c1.4-0.1,2.7-0.6,3.8-1.3c4.1-2.8,7-6.6,8.9-11.2c0.3-0.8,0.9-1.6,1-2.6 c0-0.3,0.1-0.4,0.2-0.5c0.1,0,0.1-0.1,0.3-0.1c0.2,0,0.4,0,0.6,0.1c0.2,0,0.2,0.1,0.2,0.1c0,0,0,0,0,0.1c0,0.2-0.1,0.4-0.1,0.6 c-0.3,1.1-0.7,2.2-1.1,3.3c-1.2,2.6-2.2,5.3-3.6,7.7c-2.2,4-6,5.9-10.3,6.9c-0.2,0-0.4,0.1-0.6,0.1c-1,0-2.2-0.5-3.1-1.5 c-0.9-0.9-1.6-2.2-1.6-3.6c0-0.1,0-0.3,0-0.4l0,0L42.6,193.8l-0.4,0c0,0.2,0,0.4,0,0.5c0,1.7,0.8,3.1,1.8,4.2 c1.1,1,2.4,1.7,3.7,1.7c0.3,0,0.5,0,0.8-0.1c4.4-1,8.5-3,10.8-7.3c1.4-2.5,2.5-5.2,3.6-7.8c0.5-1.1,0.9-2.3,1.2-3.4 c0-0.2,0.1-0.5,0.1-0.8c0-0.2,0-0.4-0.2-0.6c-0.2-0.2-0.4-0.3-0.7-0.3c-0.2,0-0.4-0.1-0.7-0.1c-0.2,0-0.6,0-0.8,0.3 c-0.3,0.2-0.4,0.6-0.5,1c-0.1,0.7-0.6,1.5-1,2.4c-1.8,4.5-4.6,8.1-8.6,10.8c-1.1,0.7-2.2,1.2-3.4,1.2l-0.2,0 c-0.4,0-0.8-0.1-1.2-0.2c-0.3-0.2-0.6-0.4-0.8-0.8c-0.2-0.3-0.3-0.7-0.3-1c0-0.5,0.2-1,0.5-1.5c1-1.5,2.7-2.2,4.4-2.9 c1.8-0.8,3.8-1.5,5.5-2.6c1.7-1.1,3.1-2.7,3.8-5c0-0.1,0.1-0.2,0.2-0.3c0.1-0.2,0.2-0.3,0.2-0.6c0-0.2-0.1-0.5-0.3-0.6 c-0.2-0.2-0.5-0.3-0.8-0.3c-0.4,0-0.8,0.2-1.1,0.5c-3.3,3.3-7.7,4.8-11.9,6.8c-1.3,0.6-2.4,1.5-3.1,2.6c-0.7,1.2-1.2,2.6-1.2,4.3 L42.6,193.8l-0.4,0L42.6,193.8z"/><path class="st2" d="M63.7,173.3c-2.7-0.2-5.5-0.4-8.2-0.6c-0.5,0-0.8-0.3-1-0.6c-4-5.7-8-11.4-11.9-17.1c-0.1-0.1,0-0.2-0.1-0.4 c1.9-0.1,3.7,0.8,5.5,0.8c2.8,0,4.4,1.4,5.9,3.6c3.2,4.7,6.6,9.3,10,13.9C63.8,173.1,63.7,173.2,63.7,173.3"/><path class="st2" d="M63.7,173.3l0-0.4c-2.7-0.2-5.5-0.4-8.2-0.6c-0.2,0-0.3-0.1-0.4-0.1c-0.1-0.1-0.2-0.2-0.3-0.3 c-4-5.7-8-11.4-11.9-17.1l-0.1,0.1l0.2,0l0-0.1l-0.1,0.1l0.2,0l0,0c0,0,0-0.2-0.1-0.3l-0.4,0.1l0,0.4l0.2,0c1.7,0,3.4,0.8,5.3,0.8 c1.3,0,2.3,0.3,3.2,0.9c0.9,0.6,1.6,1.5,2.4,2.5c3.2,4.7,6.7,9.3,10,13.9l0.3-0.2l-0.4-0.1c-0.1,0.1-0.1,0.3-0.2,0.4L63.7,173.3 l0-0.4L63.7,173.3l0.4,0.1c0.1-0.1,0.1-0.3,0.2-0.4c0.1-0.1,0-0.3,0-0.4c-3.4-4.6-6.8-9.2-10-13.9c-0.8-1.1-1.6-2.1-2.6-2.8 c-1-0.7-2.2-1.1-3.7-1.1c-1.6,0-3.3-0.8-5.3-0.8l-0.3,0c-0.1,0-0.2,0.1-0.3,0.2c-0.1,0.1-0.1,0.2-0.1,0.3c0,0.1,0,0.2,0,0.2 c0,0.1,0,0.2,0.1,0.3c4,5.7,8,11.4,11.9,17.1c0.2,0.2,0.3,0.4,0.6,0.6c0.2,0.1,0.5,0.2,0.8,0.2c2.7,0.2,5.5,0.4,8.2,0.6 c0.2,0,0.3-0.1,0.4-0.3L63.7,173.3z"/><path class="st2" d="M78.7,156.5c0.9-0.2,1.5,0.1,2,0.8c3.1,4.3,6.1,8.6,9.2,12.9c0.8,1.1,0.6,1.3-0.7,1.5c-2.1,0.3-4.3,0.6-6.4,1 c-0.7,0.1-1-0.2-1.3-0.7c-3.3-4.7-6.6-9.3-9.9-14c-0.5-0.7-0.6-1.1,0.5-1.1C74.3,156.8,76.6,156.7,78.7,156.5"/><path class="st2" d="M78.7,156.5l0.1,0.4c0.2,0,0.3-0.1,0.4-0.1c0.2,0,0.4,0.1,0.6,0.2c0.2,0.1,0.3,0.3,0.5,0.5 c3.1,4.3,6.1,8.6,9.3,12.9c0.2,0.2,0.3,0.4,0.3,0.5c0.1,0.1,0.1,0.2,0.1,0.2H90l0,0l0,0H90l0,0l0.1,0l-0.1-0.1l0,0l0.1,0l-0.1-0.1 l0,0l0,0l0,0l0,0l0,0l0,0c-0.1,0.1-0.4,0.1-0.8,0.2c-2.2,0.3-4.3,0.6-6.4,1l-0.2,0c-0.2,0-0.2,0-0.4-0.1c-0.1-0.1-0.2-0.2-0.4-0.4 c-3.3-4.7-6.6-9.3-9.9-14c-0.1-0.1-0.2-0.3-0.2-0.4l0-0.1l0,0h-0.1l0.1,0.1l0-0.1h-0.1l0.1,0.1l-0.1-0.1l0.1,0.1l0,0l-0.1-0.1 l0.1,0.1l0,0l0,0l0,0l0,0l0,0c0,0,0.2-0.1,0.5-0.1c2.2-0.1,4.4-0.3,6.6-0.4l0.1,0L78.7,156.5l0-0.4c-2.2,0.1-4.4,0.3-6.5,0.4 c-0.3,0-0.6,0.1-0.8,0.2c-0.1,0.1-0.2,0.1-0.3,0.3c-0.1,0.1-0.1,0.3-0.1,0.4c0,0.2,0.1,0.3,0.1,0.5c0.1,0.2,0.2,0.3,0.3,0.5 c3.3,4.6,6.6,9.3,9.9,14c0.1,0.2,0.3,0.4,0.5,0.6c0.2,0.2,0.5,0.3,0.9,0.3c0.1,0,0.2,0,0.3,0c2.1-0.4,4.2-0.8,6.3-1 c0.4,0,0.7-0.1,1-0.2c0.1-0.1,0.3-0.1,0.4-0.3c0.1-0.1,0.2-0.3,0.2-0.5c0-0.2-0.1-0.4-0.2-0.6c-0.1-0.2-0.2-0.4-0.4-0.6 c-3.1-4.2-6.2-8.6-9.2-12.9c-0.2-0.3-0.5-0.6-0.8-0.8c-0.3-0.2-0.6-0.3-1-0.3c-0.2,0-0.4,0-0.6,0.1L78.7,156.5l0-0.4L78.7,156.5z"/><path class="st2" d="M104.1,168.2c-2.7,0.7-5.2,1.4-7.7,2.1c-0.7,0.2-1-0.1-1.3-0.6c-3.1-4.3-6.1-8.6-9.2-12.9 c-0.5-0.7-0.6-1.1,0.5-1.2c2.3-0.4,4.6-0.8,6.8-1.3c0.6-0.1,0.9,0,1.3,0.4C97.6,159.1,100.8,163.5,104.1,168.2"/><path class="st2" d="M104.1,168.2l-0.1-0.4c-2.7,0.7-5.2,1.4-7.7,2.1c-0.1,0-0.2,0-0.3,0c-0.1,0-0.2,0-0.3-0.1 c-0.1-0.1-0.2-0.2-0.3-0.4c-3.1-4.3-6.1-8.6-9.2-12.9c-0.1-0.1-0.2-0.3-0.2-0.4l0-0.1l0,0h-0.1l0.1,0l0,0h-0.1l0.1,0l-0.1,0l0,0 l0,0l-0.1,0l0,0l0,0c0.1,0,0.2-0.1,0.5-0.1c2.3-0.4,4.6-0.8,6.8-1.3c0.1,0,0.2,0,0.3,0c0.1,0,0.2,0,0.3,0.1c0.1,0,0.2,0.1,0.3,0.2 c3.2,4.4,6.3,8.8,9.7,13.5L104.1,168.2l-0.1-0.4L104.1,168.2l0.3-0.2c-3.4-4.7-6.5-9.1-9.7-13.5c-0.1-0.2-0.3-0.4-0.5-0.5 c-0.2-0.1-0.4-0.2-0.7-0.2c-0.2,0-0.3,0-0.5,0.1c-2.3,0.5-4.5,0.9-6.8,1.3c-0.3,0.1-0.6,0.1-0.8,0.2c-0.1,0.1-0.2,0.2-0.3,0.3 c-0.1,0.1-0.1,0.3-0.1,0.4c0,0.2,0.1,0.4,0.1,0.5c0.1,0.2,0.2,0.3,0.3,0.5c3.1,4.3,6.1,8.6,9.2,12.9c0.1,0.2,0.3,0.4,0.5,0.6 c0.2,0.2,0.5,0.3,0.8,0.3c0.2,0,0.3,0,0.5-0.1c2.5-0.7,5-1.4,7.7-2.1c0.1,0,0.2-0.1,0.3-0.3c0-0.1,0-0.3-0.1-0.4L104.1,168.2z"/><path class="st2" d="M48.6,172c-2.8-0.5-5.1-1-7.5-1.4c-0.7-0.1-1-0.5-1.4-1c-2.4-3.2-4.7-6.5-7.2-9.6c-0.8-1-1.2-2.1-1.1-3.4 c0.1-0.6-0.1-1.3,0-1.9c0.1-1-0.5-2.7,0.4-2.7c1.3-0.1,3.1,0.1,4,1.4C40,159.3,44.1,165.5,48.6,172"/><path class="st2" d="M48.6,172l0.1-0.4c-2.8-0.5-5.1-1-7.5-1.4c-0.3,0-0.4-0.1-0.6-0.3c-0.2-0.1-0.3-0.3-0.5-0.6 c-2.4-3.2-4.7-6.5-7.2-9.6c-0.7-0.9-1-1.7-1-2.7c0-0.1,0-0.3,0-0.4c0-0.1,0-0.3,0-0.4c0-0.4-0.1-0.9-0.1-1.2c0-0.1,0-0.2,0-0.3 c0-0.1,0-0.2,0-0.3c0-0.6-0.1-1.2-0.1-1.6c0-0.2,0-0.4,0.1-0.4l0,0l0,0c0.2,0,0.4,0,0.5,0c0.6,0,1.2,0.1,1.7,0.3 c0.5,0.2,1,0.5,1.3,1c4.2,6.1,8.3,12.2,12.8,18.7L48.6,172l0.1-0.4L48.6,172l0.3-0.2c-4.4-6.5-8.5-12.6-12.8-18.7 c-0.4-0.6-1.1-1-1.7-1.2c-0.7-0.2-1.4-0.3-2-0.3c-0.2,0-0.4,0-0.6,0c-0.2,0-0.3,0.1-0.4,0.1c-0.2,0.1-0.3,0.3-0.3,0.5 c-0.1,0.2-0.1,0.4-0.1,0.6c0,0.5,0.1,1.2,0.1,1.6l0,0.2c0,0.1,0,0.3,0,0.4c0,0.4,0.1,0.9,0.1,1.2c0,0.1,0,0.2,0,0.3 c0,0.2,0,0.3,0,0.5c0,1.2,0.5,2.2,1.2,3.2c2.4,3.2,4.8,6.4,7.2,9.6c0.2,0.2,0.4,0.5,0.6,0.7c0.3,0.2,0.6,0.4,1,0.5 c2.3,0.4,4.7,0.8,7.4,1.4c0.2,0,0.3,0,0.4-0.2c0.1-0.1,0.1-0.3,0-0.4L48.6,172z"/><path class="st3" d="M76.6,191.2c0,0.4,0,0.9,0,1.3c-0.4,5.8-6.3,8.7-11.1,5.5c-1.8-1.2-2.3-3.4-2.7-5.5c-0.4-2.2-0.2-4.2,0.8-6.2 c0.9-1.8,1.5-3.6,2.3-5.4c0.6-1.4,1.7-0.9,2.6-0.8c0.7,0.1,0.2,0.7,0.1,1c-1.4,3-1.9,6.2-2.6,9.3c-0.3,1.5,0.1,2.8,0.7,4 c0.7,1.4,1.8,1.9,3.3,1.8c1.4-0.1,2-1.1,2.5-2.3c1.2-2.6,0.6-5.3,0-7.9c-0.3-1.4-0.8-2.7-1.1-4.1c-0.1-0.5-1-1.2,0-1.6 c0.7-0.2,1.7-0.4,2.3,0.7C75.2,184.3,76.7,187.5,76.6,191.2"/><path class="st3" d="M76.6,191.2l-0.4,0c0,0.4,0,0.9,0,1.3c-0.3,3.9-3.2,6.5-6.6,6.5c-1.3,0-2.7-0.4-3.9-1.2 c-0.8-0.6-1.3-1.3-1.7-2.2c-0.4-0.9-0.6-2-0.8-3c-0.1-0.7-0.2-1.3-0.2-1.9c0-1.4,0.3-2.7,1-4c0.9-1.8,1.6-3.7,2.3-5.5 c0.1-0.3,0.3-0.5,0.4-0.6c0.1-0.1,0.3-0.1,0.5-0.1c0.4,0,0.8,0.1,1.3,0.2l0.1,0l0-0.1l0,0l0,0l0-0.1l0,0l0.1-0.1l-0.1,0.1l0,0.1 l0.1-0.1l-0.1,0.1l0.1,0h-0.1l0,0l0.1,0h-0.1c0,0,0,0.1-0.1,0.2c-0.1,0.1-0.1,0.2-0.2,0.4c-1.4,3-2,6.3-2.6,9.4 c-0.1,0.4-0.1,0.8-0.1,1.1c0,1.1,0.3,2.2,0.8,3.2c0.3,0.7,0.8,1.2,1.3,1.5c0.6,0.3,1.2,0.5,1.9,0.5c0.2,0,0.3,0,0.5,0 c0.8-0.1,1.4-0.4,1.8-0.9c0.4-0.5,0.7-1,1-1.6c0.5-1.2,0.7-2.4,0.7-3.5c0-1.6-0.3-3.1-0.7-4.7c-0.3-1.4-0.8-2.7-1.1-4.1 c-0.1-0.3-0.2-0.5-0.3-0.7c-0.1-0.2-0.2-0.3-0.2-0.4v0l0,0l0,0l0,0l0,0l0,0l0,0c0,0,0.1-0.1,0.2-0.1c0.3-0.1,0.6-0.2,0.8-0.2 c0.2,0,0.4,0,0.5,0.1c0.1,0.1,0.3,0.2,0.4,0.5c1.5,3.1,2.9,6.2,2.9,9.6c0,0.1,0,0.2,0,0.4v0L76.6,191.2l0.4,0c0-0.1,0-0.3,0-0.4 c0-3.7-1.5-6.8-3-9.9c-0.2-0.4-0.4-0.7-0.7-0.8c-0.3-0.2-0.6-0.2-0.9-0.2c-0.4,0-0.8,0.1-1.1,0.2c-0.2,0.1-0.4,0.2-0.5,0.3 c-0.1,0.1-0.2,0.4-0.2,0.5c0,0.3,0.2,0.6,0.3,0.8c0.1,0.2,0.2,0.4,0.2,0.4c0.3,1.4,0.8,2.7,1.1,4c0.3,1.5,0.7,3,0.7,4.5 c0,1.1-0.2,2.1-0.7,3.2c-0.2,0.5-0.5,1-0.8,1.4c-0.3,0.3-0.7,0.6-1.3,0.6c-0.1,0-0.3,0-0.4,0c-0.6,0-1.1-0.1-1.5-0.4 c-0.4-0.3-0.8-0.6-1-1.2c-0.5-0.9-0.8-1.8-0.8-2.8c0-0.3,0-0.6,0.1-1c0.7-3.2,1.2-6.3,2.6-9.2c0-0.1,0.1-0.2,0.2-0.4 c0.1-0.2,0.1-0.3,0.1-0.5c0-0.1-0.1-0.4-0.2-0.5c-0.1-0.1-0.3-0.2-0.5-0.2c-0.4,0-0.8-0.2-1.4-0.2c-0.3,0-0.7,0.1-1,0.2 c-0.3,0.2-0.6,0.5-0.7,0.9c-0.7,1.8-1.4,3.7-2.3,5.4c-0.7,1.4-1,2.9-1,4.4c0,0.7,0.1,1.4,0.2,2.1c0.2,1.1,0.4,2.2,0.8,3.2 c0.4,1,1,2,2,2.6c1.4,0.9,2.9,1.4,4.4,1.4c3.7,0,7-2.9,7.4-7.2c0-0.5,0-0.9,0-1.3L76.6,191.2l0.4,0L76.6,191.2z"/><path class="st2" d="M58.3,156.8c2.1,0,4.2,0.1,6.2,0.1c0.5,0,0.9,0.2,1.2,0.6c3.5,5.1,7,10.1,10.5,15.2c0,0.1,0,0.2,0.1,0.7 c-2.1,0-4.2-0.1-6.3-0.1c-0.4,0-0.7-0.3-0.9-0.6c-3.6-5.2-7.2-10.4-10.8-15.5C58.3,157.1,58.3,157,58.3,156.8"/><path class="st2" d="M58.3,156.8l0,0.4c2.1,0,4.2,0.1,6.2,0.1c0.2,0,0.4,0,0.5,0.1c0.1,0.1,0.2,0.2,0.4,0.4 c3.5,5.1,7,10.1,10.5,15.2l0.2-0.1l-0.2,0l0,0.1l0.2-0.1l-0.2,0c0,0,0,0.2,0,0.6l0.4,0l0-0.4c-2.1,0-4.2-0.1-6.3-0.1 c-0.1,0-0.2,0-0.3-0.1c-0.1-0.1-0.2-0.2-0.3-0.3c-3.6-5.2-7.2-10.4-10.8-15.5l-0.2,0.2l0.3-0.1l0-0.1l-0.2,0.2l0.3-0.1l-0.1,0 l0.1,0l0,0l-0.1,0l0.1,0v0c0,0,0-0.1,0-0.2l0-0.1L58.3,156.8l0,0.4L58.3,156.8l-0.4,0l0,0c0,0.1,0,0.1,0,0.2c0,0.1,0,0.2,0.1,0.3 c3.6,5.2,7.2,10.4,10.8,15.5c0.1,0.2,0.3,0.4,0.5,0.5c0.2,0.2,0.5,0.3,0.8,0.3c2.1,0,4.2,0.1,6.3,0.1c0.1,0,0.2,0,0.3-0.1 c0.1-0.1,0.1-0.2,0.1-0.3c0-0.3,0-0.4,0-0.5l0-0.2l-0.1-0.2c-3.5-5.1-7-10.1-10.5-15.2c-0.2-0.3-0.4-0.5-0.7-0.6 c-0.3-0.1-0.6-0.2-0.9-0.2c-2,0-4.1-0.1-6.2-0.1c-0.1,0-0.2,0-0.3,0.1c-0.1,0.1-0.1,0.2-0.1,0.3L58.3,156.8z"/><path class="st5" d="M55.2,150.4c1.7-1.9,3.2-3.7,4.8-5.4c2.9-3.2,5.9-6.4,8.7-9.6c0.9-1,1.8-1.5,3.1-1.3c1.3,0.2,2.6,0,3.9,0.6 c-3.4,3.8-6.8,7.6-10.2,11.4c-1.2,1.4-2.5,2.7-3.7,4.1c-0.3,0.3-0.6,0.8-1.2,0.7C58.9,150.8,57.2,150.6,55.2,150.4"/><path class="st5" d="M55.2,150.4l0.3,0.3c1.7-1.9,3.2-3.7,4.8-5.4c2.9-3.2,5.9-6.4,8.7-9.6c0.7-0.8,1.3-1.2,2.2-1.2 c0.2,0,0.3,0,0.5,0c1.3,0.2,2.6,0,3.8,0.6l0.2-0.4l-0.3-0.3c-3.4,3.8-6.8,7.6-10.2,11.4c-1.2,1.4-2.5,2.7-3.7,4.1 c-0.2,0.2-0.3,0.3-0.4,0.4c-0.1,0.1-0.2,0.1-0.4,0.1l-0.1,0c-1.7-0.2-3.4-0.3-5.4-0.5L55.2,150.4l0.3,0.3L55.2,150.4l0,0.4 c2,0.2,3.7,0.3,5.4,0.5l0.2,0c0.4,0,0.7-0.2,0.9-0.3c0.2-0.2,0.4-0.4,0.5-0.5c1.2-1.4,2.5-2.7,3.7-4.1c3.4-3.8,6.8-7.5,10.2-11.4 c0.1-0.1,0.1-0.2,0.1-0.4c0-0.1-0.1-0.2-0.2-0.3c-1.5-0.7-2.9-0.4-4-0.6c-0.2,0-0.4-0.1-0.7-0.1c-1.1,0-2,0.6-2.8,1.4 c-2.9,3.2-5.8,6.4-8.7,9.6c-1.5,1.7-3.1,3.4-4.8,5.4c-0.1,0.1-0.1,0.3-0.1,0.4c0.1,0.1,0.2,0.2,0.3,0.3L55.2,150.4z"/><path class="st5" d="M48.1,149.5c2.1-2.4,4.1-4.5,6-6.7c2.3-2.6,4.7-5.1,7-7.8c0.7-0.8,1.5-1,2.4-1c1.4,0,2.8,0,4.3,0.1 c-4.8,5.3-9.5,10.5-14.2,15.6c-0.2,0.3-0.5,0.4-0.8,0.4C51.4,150,49.9,149.8,48.1,149.5"/><path class="st5" d="M48.1,149.5l0.3,0.3c2.1-2.4,4.1-4.5,6-6.7c2.3-2.6,4.7-5.1,7-7.8c0.3-0.3,0.6-0.5,0.9-0.7s0.7-0.2,1.1-0.2 l0.1,0c1.4,0,2.8,0,4.3,0.1l0-0.4l-0.3-0.3c-4.8,5.3-9.5,10.5-14.2,15.6c-0.1,0.1-0.2,0.2-0.2,0.2l-0.2,0.1l-0.1,0 c-1.5-0.2-3-0.4-4.8-0.7L48.1,149.5l0.3,0.3L48.1,149.5l-0.1,0.4c1.8,0.3,3.3,0.5,4.8,0.7l0.2,0c0.2,0,0.4-0.1,0.6-0.2 c0.2-0.1,0.3-0.2,0.4-0.4c4.7-5.2,9.4-10.4,14.2-15.6c0.1-0.1,0.1-0.3,0.1-0.4c-0.1-0.1-0.2-0.2-0.4-0.2c-1.6,0-2.9,0-4.3-0.1 l-0.2,0c-0.5,0-0.9,0.1-1.4,0.2c-0.4,0.2-0.8,0.5-1.2,0.9c-2.3,2.6-4.7,5.2-7,7.8c-1.9,2.1-3.9,4.3-6,6.7c-0.1,0.1-0.1,0.3-0.1,0.4 c0,0.1,0.2,0.2,0.3,0.3L48.1,149.5z"/><path class="st5" d="M82.7,135.8c-3.9,4.4-7.7,8.6-11.4,12.8l-0.1,0.1c-1.6,3.1-4.4,2.5-7,2.4c-0.3,0-0.6,0-0.7-0.3 c-0.1-0.2,0.1-0.4,0.2-0.5c4.8-4.7,9-9.9,13.5-14.7c0.3-0.3,0.5-0.6,0.9-0.6C79.6,135.1,81.1,135.2,82.7,135.8"/><path class="st5" d="M82.7,135.8l-0.3-0.3c-3.9,4.4-7.6,8.6-11.4,12.8l0.3,0.3l-0.3-0.3l-0.1,0.1l-0.1,0.1c-0.5,1-1.1,1.5-1.8,1.9 c-0.7,0.3-1.5,0.4-2.4,0.4c-0.8,0-1.6-0.1-2.5-0.1c-0.2,0-0.3,0-0.3,0l0,0l0,0l0,0l0,0l0,0l0,0l0,0v0l-0.1,0h0.1l0,0l-0.1,0h0.1 h-0.1l0.1,0l0,0h-0.1l0.1,0l0,0l0,0l0,0l0,0l0,0c0,0,0.1-0.1,0.2-0.2c4.8-4.7,9-9.9,13.5-14.8c0.1-0.1,0.2-0.3,0.3-0.3 c0.1-0.1,0.1-0.1,0.2-0.1l0,0c1.5,0.1,2.9,0.3,4.5,0.8L82.7,135.8l-0.3-0.3L82.7,135.8l0.1-0.4c-1.7-0.5-3.2-0.7-4.7-0.8l-0.1,0 c-0.3,0-0.6,0.1-0.7,0.3c-0.2,0.1-0.3,0.3-0.4,0.4c-4.6,4.9-8.8,10.1-13.5,14.7c-0.1,0-0.1,0.1-0.2,0.2c-0.1,0.1-0.2,0.3-0.2,0.5 c0,0.1,0,0.2,0.1,0.3c0.1,0.3,0.4,0.4,0.6,0.5c0.2,0,0.4,0,0.5,0c0.8,0,1.7,0.1,2.5,0.1c0.9,0,1.9-0.1,2.7-0.5 c0.9-0.4,1.6-1.1,2.2-2.2l-0.4-0.2l0.3,0.3l0.1-0.1l0,0c3.8-4.2,7.5-8.4,11.4-12.8c0.1-0.1,0.1-0.2,0.1-0.4c0-0.1-0.1-0.2-0.3-0.3 L82.7,135.8z"/><path class="st5" d="M89.3,137.3c-3.1,3.5-5.9,6.7-8.8,9.9c-0.2,0.2-0.5,0.4-0.7,0.7c-1.9,3.4-5.1,3.5-8.4,3.2 c-0.2-0.3,0-0.5,0.2-0.7c4.1-4.5,8.1-9.1,12.2-13.6c0.4-0.5,0.8-0.7,1.4-0.5C86.5,136.5,87.7,136.9,89.3,137.3"/><path class="st5" d="M89.3,137.3L89,137c-3.1,3.5-5.9,6.7-8.8,9.9c-0.2,0.2-0.5,0.4-0.7,0.8c-0.7,1.3-1.6,2-2.6,2.5 c-1,0.5-2.1,0.6-3.3,0.6c-0.7,0-1.4,0-2.1-0.1l0,0.4l0.4-0.2l0-0.1l0-0.1l0.1-0.2c4.1-4.5,8.1-9.1,12.2-13.6 c0.1-0.2,0.3-0.3,0.4-0.3c0.1-0.1,0.2-0.1,0.3-0.1c0.1,0,0.2,0,0.3,0c1.2,0.4,2.5,0.7,4,1.1L89.3,137.3L89,137L89.3,137.3l0.1-0.4 c-1.5-0.4-2.8-0.7-4-1.1c-0.2,0-0.3-0.1-0.5-0.1c-0.3,0-0.5,0.1-0.8,0.2c-0.2,0.1-0.4,0.3-0.6,0.5c-4.1,4.6-8.1,9.1-12.2,13.6 c-0.1,0.1-0.1,0.2-0.2,0.3c-0.1,0.1-0.1,0.3-0.1,0.5c0,0.1,0,0.3,0.1,0.4c0.1,0.1,0.2,0.2,0.3,0.2c0.7,0.1,1.5,0.1,2.2,0.1 c1.3,0,2.5-0.2,3.7-0.7c1.1-0.5,2.2-1.4,2.9-2.8c0.1-0.2,0.3-0.4,0.6-0.6c2.9-3.2,5.7-6.5,8.8-9.9c0.1-0.1,0.1-0.2,0.1-0.4 c0-0.1-0.1-0.2-0.3-0.3L89.3,137.3z"/><path class="st5" d="M41.2,148.3c3.9-4.2,7.7-8.3,11.5-12.4c0.4-0.4,0.8-0.8,1.3-0.8c1.7-0.3,3.5-0.5,5.7-0.8 c-2.3,2.6-4.3,4.9-6.4,7.2c-2,2.2-4.1,4.4-6.1,6.7c-0.8,0.9-1.6,1.2-2.7,0.9C43.5,148.7,42.4,148.5,41.2,148.3"/><path class="st5" d="M41.2,148.3l0.3,0.3c3.9-4.2,7.7-8.3,11.5-12.4c0.4-0.4,0.7-0.7,1.1-0.7c1.7-0.3,3.5-0.5,5.7-0.8l-0.1-0.4 l-0.3-0.3c-2.3,2.6-4.3,4.9-6.4,7.1c-2,2.2-4.1,4.4-6.1,6.7c-0.5,0.6-1,0.8-1.6,0.8c-0.2,0-0.4,0-0.7-0.1c-1.1-0.3-2.2-0.5-3.4-0.7 L41.2,148.3l0.3,0.3L41.2,148.3l-0.1,0.4c1.2,0.2,2.3,0.4,3.3,0.7c0.3,0.1,0.6,0.1,0.9,0.1c0.8,0,1.6-0.4,2.2-1.1 c2-2.3,4.1-4.4,6.1-6.7c2.1-2.3,4.1-4.6,6.4-7.2c0.1-0.1,0.1-0.3,0.1-0.5c-0.1-0.1-0.2-0.2-0.4-0.2c-2.2,0.3-3.9,0.5-5.7,0.8 c-0.7,0.1-1.2,0.6-1.6,1c-3.8,4.1-7.6,8.2-11.5,12.4c-0.1,0.1-0.1,0.3-0.1,0.4c0,0.1,0.2,0.2,0.3,0.3L41.2,148.3z"/><path class="st5" d="M79.6,150.6c2.6-2.9,4.9-5.6,7.3-8.2c1-1.2,2.1-2.3,3.1-3.5c0.8-0.9,3.8-0.8,4.5,0.2c0.3,0.4,0,0.7-0.3,1 c-2.7,3.2-5.4,6.3-8.1,9.5c-0.3,0.3-0.6,0.6-1,0.7C83.4,150.4,81.7,150.8,79.6,150.6"/><path class="st5" d="M79.6,150.6l0.3,0.3c2.6-2.9,4.9-5.6,7.2-8.2c1-1.2,2.1-2.3,3.1-3.5c0.1-0.1,0.4-0.3,0.7-0.4 c0.3-0.1,0.7-0.1,1.1-0.1c0.5,0,0.9,0.1,1.3,0.2c0.4,0.1,0.7,0.3,0.8,0.5l0,0.1l-0.1,0.1c-0.1,0.1-0.1,0.2-0.2,0.3 c-2.7,3.2-5.4,6.3-8.1,9.5c-0.1,0.2-0.3,0.3-0.4,0.4c-0.1,0.1-0.2,0.1-0.4,0.2c-1.4,0.2-2.7,0.5-4.3,0.5c-0.4,0-0.7,0-1.1-0.1 L79.6,150.6l0.3,0.3L79.6,150.6l0,0.4c0.4,0,0.8,0.1,1.2,0.1c1.6,0,3-0.3,4.4-0.5c0.3,0,0.6-0.2,0.8-0.3c0.2-0.2,0.4-0.3,0.5-0.5 c2.7-3.2,5.4-6.3,8.1-9.5c0.1-0.1,0.2-0.2,0.3-0.3c0.1-0.1,0.2-0.3,0.2-0.6c0-0.2-0.1-0.4-0.2-0.6c-0.3-0.4-0.7-0.6-1.2-0.8 c-0.5-0.2-1-0.2-1.6-0.2c-0.5,0-0.9,0.1-1.3,0.2c-0.4,0.1-0.8,0.3-1.1,0.6c-1,1.2-2.1,2.3-3.1,3.5c-2.4,2.7-4.7,5.3-7.3,8.2 c-0.1,0.1-0.1,0.3-0.1,0.4c0.1,0.1,0.2,0.2,0.3,0.3L79.6,150.6z"/><path class="st5" d="M50.4,136.1c-3.5,3.9-7.1,7.7-10.6,11.6c-0.4,0.4-3.2,0-3.6-0.5c-0.4-0.5,0.1-0.8,0.3-1.1 c2.4-2.7,4.7-5.5,7.3-8C45.5,136.5,48,136.5,50.4,136.1"/><path class="st5" d="M50.4,136.1l-0.3-0.3c-3.5,3.9-7.1,7.7-10.6,11.6l0.1,0.1l-0.1-0.1l0,0l0.1,0.1l-0.1-0.1l0,0 c0,0-0.3,0.1-0.5,0.1c-0.5,0-1.1-0.1-1.6-0.2c-0.3-0.1-0.5-0.1-0.7-0.2l-0.2-0.1l0,0l0,0l0,0l0,0l0,0l0,0l0,0 c-0.1-0.1-0.1-0.1-0.1-0.1l0.1-0.1c0.1-0.1,0.2-0.2,0.3-0.3c2.4-2.7,4.7-5.5,7.3-8c0.8-0.7,1.8-1.1,2.9-1.3 c1.1-0.2,2.3-0.3,3.6-0.5L50.4,136.1l-0.3-0.3L50.4,136.1l-0.1-0.4c-1.2,0.2-2.4,0.3-3.6,0.5c-1.2,0.2-2.3,0.6-3.3,1.5 c-2.6,2.5-4.9,5.4-7.3,8.1c-0.1,0.1-0.2,0.2-0.3,0.3c-0.1,0.1-0.3,0.4-0.3,0.6c0,0.2,0.1,0.5,0.3,0.7c0.2,0.2,0.4,0.3,0.6,0.4 c0.7,0.3,1.7,0.4,2.5,0.4c0.2,0,0.4,0,0.6,0c0.2,0,0.4-0.1,0.5-0.3c3.5-3.8,7.1-7.7,10.6-11.6c0.1-0.1,0.1-0.3,0.1-0.5 c-0.1-0.1-0.2-0.2-0.4-0.2L50.4,136.1z"/><path class="st5" d="M88,149.6c2.8-3.2,5.4-6.2,7.9-9.3c0.8-0.9,1.4-0.2,2,0.1c2.2,1,2.2,1,0.8,2.9c-0.4,0.6-1,1-1.3,1.6 C95.5,148.7,92.1,149.4,88,149.6"/><path class="st5" d="M88,149.6l0.3,0.3c2.8-3.2,5.4-6.2,7.9-9.3c0.2-0.3,0.4-0.3,0.5-0.3c0.1,0,0.2,0,0.4,0.1 c0.2,0.1,0.4,0.2,0.6,0.3c0.6,0.3,1,0.5,1.3,0.6c0.1,0.1,0.2,0.1,0.2,0.2l0,0.1c0,0,0,0.2-0.2,0.4c-0.2,0.2-0.4,0.6-0.7,1 c-0.4,0.5-1,1-1.4,1.7c-0.9,1.8-2.1,2.8-3.6,3.5c-1.5,0.7-3.3,0.9-5.4,1L88,149.6l0.3,0.3L88,149.6l0,0.4c2.1-0.1,4-0.3,5.6-1 c1.7-0.7,3.1-1.9,4-3.9c0.2-0.5,0.8-1,1.3-1.6c0.3-0.4,0.6-0.7,0.8-1c0.2-0.3,0.3-0.5,0.3-0.9c0-0.2-0.1-0.4-0.2-0.5 c-0.2-0.2-0.4-0.4-0.7-0.5c-0.3-0.2-0.7-0.3-1.1-0.5c-0.2-0.1-0.3-0.2-0.6-0.3c-0.2-0.1-0.5-0.2-0.8-0.2c-0.4,0-0.8,0.2-1.1,0.6 c-2.5,3-5.1,6-7.9,9.3c-0.1,0.1-0.1,0.3-0.1,0.4c0.1,0.1,0.2,0.2,0.4,0.2L88,149.6z"/><path class="st2" d="M52.3,172.3c-1.6,0.2-2.5-0.3-3.4-1.5c-3.7-5.6-7.5-11.1-11.2-16.6c-0.1-0.1-0.1-0.3-0.3-0.5 c1.1-0.1,1.9,0,2.6,0.9c4,5.8,8,11.5,12,17.2C52.2,171.8,52.2,172,52.3,172.3"/><path class="st2" d="M52.3,172.3l-0.1-0.4c-0.2,0-0.5,0.1-0.7,0.1c-0.5,0-0.9-0.1-1.3-0.3c-0.4-0.2-0.7-0.6-1-1.1 c-3.7-5.6-7.5-11.1-11.2-16.6c0-0.1-0.1-0.2-0.2-0.5l-0.4,0.2l0,0.4c0.2,0,0.3,0,0.5,0c0.4,0,0.7,0,1,0.2c0.3,0.1,0.5,0.3,0.7,0.6 c4,5.8,8,11.5,12,17.2c0,0,0.1,0.2,0.2,0.5L52.3,172.3l-0.1-0.4L52.3,172.3l0.4-0.2c-0.1-0.2-0.1-0.4-0.3-0.6 c-4-5.7-8-11.5-12-17.2c-0.3-0.4-0.7-0.7-1.1-0.9c-0.4-0.2-0.8-0.2-1.3-0.2c-0.2,0-0.4,0-0.6,0c-0.1,0-0.3,0.1-0.3,0.2 c-0.1,0.1-0.1,0.3,0,0.4c0.1,0.3,0.2,0.4,0.3,0.6c3.7,5.5,7.5,11.1,11.2,16.6c0.4,0.6,0.8,1,1.3,1.3c0.5,0.3,1.1,0.5,1.7,0.5 c0.2,0,0.5,0,0.8-0.1c0.1,0,0.2-0.1,0.3-0.2c0.1-0.1,0.1-0.2,0-0.4L52.3,172.3z"/><path class="st2" d="M106.1,162.3c-2.3-3.2-4.3-6-6.3-8.8c-0.3-0.5-0.3-0.7,0.3-0.9c1.2-0.4,2.5-0.8,3.7-1.1 c0.4-0.1,0.6-0.1,0.8,0.3c0.7,1.3,1.7,2.5,1.6,4.1C106.1,157.9,106.1,159.9,106.1,162.3"/><path class="st2" d="M106.1,162.3l0.3-0.2c-2.3-3.2-4.3-6-6.3-8.8l-0.1-0.2l0,0l0,0l0,0h0v0l0,0h0h-0.1l0.1,0l0,0h-0.1l0.1,0l0,0 l0,0l0,0l0,0l0,0c0,0,0.1-0.1,0.3-0.1c1.3-0.4,2.5-0.8,3.7-1.1l0.2,0l0.1,0l0.1,0.1c0.3,0.7,0.7,1.2,1.1,1.8 c0.3,0.6,0.5,1.2,0.5,1.9l0,0.2c-0.1,2-0.1,4-0.1,6.5L106.1,162.3l0.3-0.2L106.1,162.3l0.4,0c0-2.5,0-4.5,0.1-6.4 c0-0.1,0-0.2,0-0.3c0-0.9-0.3-1.6-0.6-2.2c-0.3-0.6-0.8-1.2-1-1.8c-0.1-0.2-0.2-0.3-0.4-0.4c-0.2-0.1-0.3-0.1-0.5-0.1 c-0.2,0-0.3,0-0.4,0.1c-1.2,0.4-2.5,0.8-3.7,1.1c-0.2,0.1-0.4,0.1-0.5,0.3c-0.2,0.1-0.3,0.3-0.3,0.6c0,0.3,0.1,0.5,0.3,0.7 c2,2.8,4.1,5.7,6.3,8.8c0.1,0.1,0.3,0.2,0.4,0.1c0.2-0.1,0.3-0.2,0.3-0.4L106.1,162.3z"/><path class="st2" d="M53.3,156.4c1.7-0.4,2.6,0.3,3.4,1.5c3.2,4.7,6.5,9.3,9.7,13.9c0.3,0.4,0.7,0.8,0.8,1.5 c-0.9,0.2-1.6,0.2-2.2-0.7c-3.7-5.2-7.5-10.4-11.3-15.6C53.6,156.9,53.5,156.7,53.3,156.4"/><path class="st2" d="M53.3,156.4l0.1,0.4c0.3-0.1,0.6-0.1,0.8-0.1c0.5,0,0.9,0.1,1.2,0.4c0.3,0.2,0.6,0.6,1,1.1 c3.2,4.7,6.5,9.3,9.7,13.9c0.2,0.2,0.3,0.4,0.5,0.6c0.1,0.2,0.2,0.4,0.2,0.6l0.4,0l-0.1-0.4c-0.3,0.1-0.5,0.1-0.7,0.1 c-0.2,0-0.4,0-0.5-0.1c-0.2-0.1-0.3-0.2-0.5-0.5c-3.7-5.2-7.5-10.4-11.3-15.6c-0.1-0.1-0.2-0.3-0.4-0.6L53.3,156.4l0.1,0.4 L53.3,156.4l-0.3,0.2c0.2,0.3,0.3,0.5,0.4,0.7c3.8,5.2,7.5,10.4,11.3,15.6c0.2,0.3,0.5,0.6,0.8,0.7c0.3,0.1,0.6,0.2,0.9,0.2 c0.3,0,0.6,0,0.9-0.1c0.2,0,0.3-0.2,0.3-0.4c0-0.4-0.2-0.8-0.3-1c-0.2-0.3-0.4-0.5-0.5-0.7c-3.2-4.6-6.5-9.2-9.7-13.9 c-0.3-0.5-0.7-1-1.2-1.3c-0.5-0.3-1-0.5-1.6-0.5c-0.3,0-0.6,0-1,0.1c-0.1,0-0.2,0.1-0.3,0.2c0,0.1,0,0.3,0,0.4L53.3,156.4z"/><path class="st2" d="M66.8,157.2c1.4-0.4,2.2,0,2.8,1c3.1,4.4,6.2,8.8,9.3,13.2c0.3,0.4,1.3,1,0.5,1.5c-0.7,0.4-1.6,0.3-2.2-0.6 c-2.3-3.4-4.7-6.7-7-10.1C69.1,160.5,68,158.9,66.8,157.2"/><path class="st2" d="M66.8,157.2l0.1,0.4c0.4-0.1,0.7-0.1,0.9-0.1c0.3,0,0.6,0.1,0.8,0.2c0.2,0.2,0.5,0.4,0.7,0.7 c3.1,4.4,6.2,8.8,9.3,13.2c0.2,0.2,0.4,0.4,0.5,0.6l0.2,0.2l0,0.1l0,0h0l0,0v0h0l0,0l0,0l-0.1,0.1c-0.2,0.1-0.4,0.2-0.6,0.2 c-0.3,0-0.7-0.2-1.1-0.7c-2.3-3.4-4.7-6.7-7-10.1c-1.1-1.6-2.2-3.2-3.5-5L66.8,157.2l0.1,0.4L66.8,157.2l-0.3,0.2 c1.2,1.8,2.3,3.4,3.5,5c2.3,3.4,4.7,6.7,7,10.1c0.5,0.7,1.1,1,1.7,1c0.4,0,0.7-0.1,1-0.3c0.3-0.2,0.5-0.5,0.5-0.8 c0-0.2-0.1-0.4-0.1-0.5c-0.1-0.2-0.3-0.4-0.4-0.5c-0.1-0.1-0.3-0.3-0.3-0.3c-3.1-4.4-6.3-8.8-9.3-13.2c-0.3-0.4-0.6-0.7-0.9-1 c-0.4-0.2-0.8-0.4-1.3-0.4c-0.3,0-0.7,0.1-1.1,0.2c-0.1,0-0.2,0.1-0.3,0.2c0,0.1,0,0.3,0,0.4L66.8,157.2z"/><path class="st2" d="M95.3,154c1.6-1,2.5-0.5,3.3,0.8c2.2,3.3,4.6,6.4,6.9,9.6c0.2,0.3,0.6,0.6,0.6,0.9c0,0.7,0.5,1.8-0.4,2.2 c-0.8,0.4-1.1-0.6-1.5-1.1C101.3,162.3,98.3,158.2,95.3,154"/><path class="st2" d="M95.3,154l0.2,0.3c0.5-0.3,0.9-0.4,1.3-0.4c0.3,0,0.5,0.1,0.8,0.3c0.3,0.2,0.5,0.5,0.8,0.9 c2.2,3.3,4.6,6.4,6.9,9.6c0.1,0.2,0.3,0.3,0.4,0.5c0.1,0.1,0.1,0.2,0.1,0.3c0,0.5,0.2,0.9,0.2,1.3c0,0.1,0,0.2-0.1,0.3 c0,0.1-0.1,0.1-0.2,0.2c-0.1,0-0.2,0.1-0.2,0.1l-0.1-0.1c-0.1-0.1-0.2-0.2-0.3-0.4c-0.1-0.2-0.2-0.4-0.4-0.6c-3-4.1-5.9-8.2-9-12.4 L95.3,154l0.2,0.3L95.3,154l-0.3,0.2c3,4.2,6,8.3,9,12.4c0.1,0.2,0.3,0.5,0.5,0.8c0.1,0.1,0.2,0.3,0.4,0.4c0.2,0.1,0.4,0.2,0.6,0.2 c0.2,0,0.4,0,0.5-0.1c0.3-0.1,0.5-0.3,0.6-0.6c0.1-0.2,0.2-0.5,0.2-0.7c0-0.5-0.2-1-0.2-1.3c0-0.3-0.2-0.5-0.3-0.7 c-0.1-0.2-0.3-0.3-0.4-0.5c-2.3-3.2-4.7-6.4-6.9-9.6c-0.3-0.4-0.6-0.8-1-1.1c-0.4-0.3-0.8-0.4-1.2-0.4c-0.5,0-1.1,0.2-1.7,0.6 c-0.1,0.1-0.2,0.2-0.2,0.3c0,0.1,0,0.2,0.1,0.3L95.3,154z"/><path class="st2" d="M81.4,156.4c1.3-0.5,2.1-0.2,2.8,0.9c2.8,4.1,5.7,8.1,8.6,12.1c0.3,0.4,1.1,0.9,0.5,1.4 c-0.7,0.5-1.4,0.3-2-0.6c-2.4-3.4-4.9-6.8-7.4-10.2C83.1,158.8,82.2,157.7,81.4,156.4"/><path class="st2" d="M81.4,156.4l0.1,0.4c0.4-0.2,0.7-0.2,1-0.2c0.3,0,0.5,0.1,0.7,0.2c0.2,0.1,0.4,0.4,0.7,0.7 c2.8,4.1,5.7,8.1,8.6,12.1c0.2,0.2,0.3,0.4,0.5,0.5l0.2,0.2l0,0.1l0,0h0l0,0l0,0h0l0,0l0,0l0,0l0,0l0,0l0,0l-0.1,0.1 c-0.2,0.1-0.3,0.2-0.5,0.2c-0.3,0-0.6-0.2-1-0.7c-2.4-3.5-4.9-6.8-7.4-10.2c-0.8-1.2-1.7-2.3-2.5-3.6L81.4,156.4l0.1,0.4 L81.4,156.4l-0.3,0.2c0.9,1.2,1.7,2.4,2.5,3.6c2.5,3.4,4.9,6.8,7.3,10.2c0.4,0.6,1,1,1.6,1c0.3,0,0.7-0.1,1-0.3 c0.2-0.2,0.4-0.4,0.4-0.7c0-0.2-0.1-0.3-0.1-0.5c-0.1-0.2-0.3-0.3-0.4-0.5c-0.1-0.1-0.2-0.2-0.3-0.3c-2.9-4.1-5.8-8.1-8.6-12.1 c-0.3-0.4-0.5-0.7-0.9-0.9c-0.3-0.2-0.7-0.4-1.1-0.4c-0.4,0-0.8,0.1-1.3,0.3c-0.1,0-0.2,0.1-0.2,0.3c0,0.1,0,0.2,0.1,0.3 L81.4,156.4z"/><path class="st5" d="M97.3,147.7c0.9-1.8,2.5-3.2,3.6-4.9c0.3-0.4,0.7-0.4,1.1-0.2c1.3,0.7,2.5,1.4,3.8,2.5 C103,146.4,100.3,147.3,97.3,147.7L97.3,147.7z"/><path class="st5" d="M97.3,147.7l0.4,0.2c0.9-1.8,2.4-3.1,3.6-4.8c0.1-0.2,0.2-0.2,0.3-0.2c0.1,0,0.2,0,0.3,0.1 c1.3,0.7,2.5,1.4,3.7,2.5l0.3-0.3l-0.2-0.4c-2.8,1.2-5.5,2.2-8.4,2.5L97.3,147.7l0.3-0.3l0,0L97.3,147.7l0.4,0.2L97.3,147.7L97,148 l0,0c0.1,0.1,0.2,0.1,0.3,0.1c3-0.4,5.8-1.4,8.6-2.6c0.1-0.1,0.2-0.2,0.2-0.3c0-0.1,0-0.3-0.1-0.4c-1.3-1.2-2.6-1.9-3.8-2.6 c-0.2-0.1-0.5-0.2-0.7-0.2c-0.4,0-0.7,0.2-1,0.5c-1.1,1.6-2.7,3-3.7,4.9c-0.1,0.2,0,0.3,0.1,0.5L97.3,147.7z"/><path class="st5" d="M40,139.9c-1.9,2.1-3.8,4.3-5.7,6.3c-0.9,0.9-1.8,0.1-2.7-0.2c-0.4-0.1,0-0.6,0.2-0.8c2.3-2.4,4.8-4.4,7.9-5.6 C39.8,139.7,39.9,139.8,40,139.9"/><path class="st5" d="M40,139.9l-0.3-0.3c-1.9,2.1-3.8,4.3-5.7,6.3c-0.2,0.2-0.4,0.3-0.6,0.3c-0.2,0-0.5-0.1-0.7-0.2 c-0.3-0.1-0.6-0.3-0.9-0.4l0,0.1l0-0.1l0,0l0,0.1l0-0.1l-0.1,0.1h0.2l-0.1-0.1l-0.1,0.1h0.2h-0.1l0.1,0v0h-0.1l0.1,0 c0,0,0.1-0.2,0.2-0.3c2.2-2.4,4.7-4.3,7.7-5.5l-0.1-0.4l-0.3,0.3c0.1,0.1,0.2,0.2,0.3,0.3L40,139.9l-0.3-0.3L40,139.9l0.3-0.3 c-0.1-0.1-0.2-0.2-0.3-0.3c-0.1-0.1-0.3-0.1-0.4-0.1c-3.1,1.2-5.7,3.3-8,5.7c-0.1,0.1-0.2,0.2-0.3,0.3c-0.1,0.1-0.2,0.3-0.2,0.5 c0,0.1,0,0.2,0.1,0.4c0.1,0.1,0.2,0.2,0.3,0.2c0.2,0.1,0.5,0.2,0.8,0.4c0.3,0.1,0.7,0.3,1.1,0.3c0.4,0,0.8-0.2,1.2-0.5 c2-2.1,3.8-4.2,5.7-6.3c0.1-0.2,0.1-0.4,0-0.6L40,139.9z"/><path class="st2" d="M37.7,169.7c-3-0.3-6.5-5-6-8.1C33.7,164.3,35.7,166.9,37.7,169.7"/><path class="st2" d="M37.7,169.7l0-0.4c-1.2-0.1-2.7-1.1-3.8-2.5c-1.1-1.4-1.9-3.1-1.9-4.5c0-0.2,0-0.4,0-0.5l-0.4-0.1l-0.3,0.2 c2,2.7,4,5.3,6,8.1L37.7,169.7l0-0.4L37.7,169.7l0.3-0.2c-2-2.7-4-5.3-6-8.1c-0.1-0.1-0.3-0.2-0.4-0.2c-0.2,0-0.3,0.2-0.3,0.3 c0,0.2-0.1,0.4-0.1,0.7c0,1.7,0.9,3.5,2.1,5c1.2,1.5,2.8,2.7,4.3,2.8c0.2,0,0.3-0.1,0.4-0.2c0.1-0.1,0.1-0.3,0-0.4L37.7,169.7z"/><path class="st2" d="M31.5,165.7c0.6,0.8,0.8,1.2,1.1,1.6c0.2,0.3,0.6,0.6,0.4,1c-0.2,0.4-0.7,0.1-1,0.1c-0.6,0-0.5-0.5-0.5-0.8 C31.4,167,31.5,166.6,31.5,165.7"/><path class="st2" d="M31.5,165.7l-0.3,0.2c0.6,0.8,0.8,1.2,1.1,1.6c0.1,0.2,0.2,0.3,0.3,0.4l0.1,0.1l0,0l0,0l0,0l0,0l0,0l0,0l0,0 l0,0l0,0c0,0-0.1,0-0.2,0c-0.1,0-0.2-0.1-0.4-0.1l-0.1,0l0,0l0,0l0,0l0,0l0,0l0,0.1l0.1,0l0,0l0,0.1l0.1,0l-0.1,0l0.1,0l0,0l-0.1,0 l0.1,0l0,0l0-0.1c0-0.1,0-0.2,0-0.3v0v0l0-0.2c0-0.4,0-0.8,0-1.6L31.5,165.7l-0.3,0.2L31.5,165.7l-0.4,0c0,0.7,0,1.2,0,1.6l0,0.2 l0.4,0l-0.4,0v0c0,0.1,0,0.2,0,0.3c0,0.2,0,0.4,0.2,0.6c0.1,0.1,0.2,0.2,0.3,0.2c0.1,0,0.3,0.1,0.4,0.1c0,0,0.1,0,0.3,0 c0.1,0,0.3,0.1,0.4,0.1c0.1,0,0.2,0,0.4-0.1c0.1-0.1,0.2-0.2,0.3-0.3c0.1-0.1,0.1-0.3,0.1-0.5c0-0.3-0.1-0.5-0.2-0.6 c-0.1-0.1-0.2-0.3-0.3-0.3c-0.3-0.4-0.6-0.8-1.1-1.6c-0.1-0.1-0.3-0.2-0.4-0.1c-0.2,0.1-0.3,0.2-0.3,0.4L31.5,165.7z"/><polygon class="st5" points="97.3,147.7 97.2,147.8 97.3,147.7"/><path class="st5" d="M97.3,147.7l-0.2-0.3l-0.2,0.1l0.2,0.3l0.3,0.3l0.1-0.2L97.3,147.7L97,148l0,0L97.3,147.7l-0.2-0.3L97.3,147.7 l0.3-0.3l0,0c-0.1-0.1-0.2-0.1-0.3-0.1c-0.1,0-0.2,0-0.3,0.1l-0.1,0.2c-0.1,0.1-0.2,0.4,0,0.5c0.1,0.2,0.4,0.2,0.5,0.1l0.2-0.1 c0.1-0.1,0.1-0.2,0.2-0.3c0-0.1,0-0.2-0.1-0.3L97.3,147.7z"/><rect x="32.9" y="201.6" class="st5" width="73" height="7.3"/><path class="st5" d="M105.9,208.9v-0.4H33.3V202h72.2v6.9H105.9v-0.4V208.9h0.4v-7.3c0-0.1,0-0.2-0.1-0.3c-0.1-0.1-0.2-0.1-0.3-0.1 h-73c-0.1,0-0.2,0-0.3,0.1c-0.1,0.1-0.1,0.2-0.1,0.3v7.3c0,0.1,0,0.2,0.1,0.3c0.1,0.1,0.2,0.1,0.3,0.1h73c0.1,0,0.2,0,0.3-0.1 c0.1-0.1,0.1-0.2,0.1-0.3H105.9z"/><path class="st1" d="M42.9,200c-1.7-2.2-2.6-4.7-2.2-7.3c0.6-3.9,3.3-6.2,6.9-7.5c2.8-1,5.5-2.2,7.7-4.2c0.4-0.4,1-0.7,0.8-1.3 c-0.1-0.6-0.8-0.3-1.3-0.3c-7.9-0.9-15.7-2.3-23.2-4.9c-1.2-0.4-1.6-1-1.6-2.3c0-7.8,0-15.6-0.1-23.5c0-0.3,0.1-0.6,0.1-1 c0-0.6,0.3-1.3-0.2-1.9c0-0.1,0-0.2,0-0.3c0.1-0.2,0.2-0.4,0.3-0.6l0,0c0.4,0,0.6-0.3,0.6-0.7c1.7-2.5,4.2-4,6.8-5.3 c3.4-1.8,6.8-3.4,10.6-4.2c1.1-0.2,2.2-0.7,3.4-0.8c0.4,0,0.9,0.1,1.3-0.3c0,0,0,0,0,0c0.6,0,1.2,0.1,1.6-0.3l0,0 c1.1,0,2.2,0.1,3.2-0.5c1.8-0.2,3.7,0.2,5.6-0.3c0.9,0,1.8,0,2.7,0c3.6,0,7.1,0.1,10.7,0.8c9.9,0.7,19,3.9,27.7,8.6 c0.6,0.3,1,0.7,1.5,1.1c1.1,0.9,1.7,1.9,1.7,3.5c-0.1,8.6,0.1,17.3,0.2,25.9c0,1.2-0.3,1.7-1.5,2c-7.4,2-14.9,3.7-22.5,4.5 c-0.2,0-0.5,0.2-0.7,0.3c0.5,1,1.3,1.5,2.3,2c3.6,1.6,7.4,2.4,11,3.7c3.1,1.1,5.3,3.1,6,6.5c0.6,2.8-0.4,4.9-2.6,6.6 c-0.6,0.4-1.2,0.9-1.9,1.4c0.7,0.4,1.3,0.3,1.9,0.3c2.5,0,5,0,7.5,0c1.5,0,2.3,0.4,2.1,2.2c-0.2,2.7-0.1,5.4,0,8.1 c0,0.9-0.2,1.2-1.1,1.2c-3.2-0.1-6.4,0.1-9.6,0.1c-13.4,0-26.8-0.1-40.2,0c-5.9,0-11.9,0.1-17.8,0c-3,0-5.9-0.1-8.9-0.1 c0-0.4,0-0.9,0-1.3c0.8-0.8,0.3-1.7,0.3-2.6c-0.1-1.5,0.3-3.1-0.2-4.5c0-0.7,0-1.3,0-2c0.7-0.5,1.5-0.6,2.4-0.6 c2.6,0.1,5.3,0.1,7.9,0.1C42.2,200.3,42.8,200.8,42.9,200 M97.3,147.7c2.9-0.4,5.7-1.3,8.5-2.6c-1.2-1.1-2.5-1.8-3.8-2.5 c-0.4-0.2-0.8-0.2-1.1,0.2C99.8,144.5,98.2,145.8,97.3,147.7c-0.1,0-0.1,0.1-0.2,0.1C97.2,147.8,97.3,147.7,97.3,147.7 M89.2,199.7 c-4-1.9-7.1-4.9-10.2-8c-0.3,1.6-0.6,3.1-0.9,4.5c-0.4,1.5-1.6,2.4-3,3.7c1.5,0,2.6,0,3.7,0.1c3.8,0.1,7.7,0.1,11.5,0.2 c0,0,0-0.1,0-0.1C89.9,199.9,89.5,199.8,89.2,199.7 M53.6,202.2C53.6,202.4,53.6,201.9,53.6,202.2c-6.3-0.1-12.6-0.2-19-0.3 c-1.3,0-1.5,0.6-1.4,1.6c0,1.2,0.2,2.4,0.1,3.6c-0.1,1.3,0.2,1.8,1.7,1.7c8-0.1,16.1-0.1,24.1-0.2c5.1,0,10.2,0,15.2,0.1 c9.7,0,19.5-0.4,29.2,0.1c1.8,0.1,2.2-0.2,2.2-2.1c0-1.1-0.1-2.2,0-3.2c0.1-1.2-0.3-1.7-1.6-1.7c-8.6,0.1-17.3,0.2-25.9,0.1 C70,201.8,61.8,202.3,53.6,202.2 M68,178.6c12.2,0,24.2-1.8,36-5c2.4-0.7,2.4-0.6,2.3-3.4c0-1-0.3-1.3-1.3-1 c-8,2.6-16.2,4.1-24.6,4.9c-9.7,0.9-19.4,0.7-29.1-0.5c-6.4-0.8-12.7-2.1-18.9-3.8c-0.3-0.1-0.8-0.6-1,0.2 c-0.5,1.6,0.2,2.9,1.8,3.5c6.9,2.3,14,3.5,21.2,4.3C58.9,178.4,63.4,178.7,68,178.6 M67.8,155.6c10.5-0.1,20.9-1.4,31.1-4.1 c2.1-0.6,4.1-1.3,6.2-1.9c1.5-0.4,1.1-1.5,0.9-2.3c-0.3-1.1-1-0.1-1.5-0.1c-0.8,0.1-1.6,0.5-2.5,0.8c-17.9,5.3-36.1,5.6-54.4,2.9 c-5.1-0.8-10.1-1.8-15-3.2c-1-0.3-1.1,0-1.2,0.9c-0.2,1.9,1.2,1.8,2.2,2.1C44.8,154.1,56.2,155.6,67.8,155.6 M80.1,180 c0.8,2,1.7,3.6,3.4,4.8c2.2,1.6,4.5,2.9,7.2,3.5c1.5,0.3,3,0.9,4.2,1.9c0.8,0.7,1.4,1.6,1.1,2.7c-0.4,1.2-1.4,1.6-2.7,1.4 c-2.9-0.4-5.4-1.7-7.5-3.8c-3-3.1-6.1-6.1-8.5-9.8c-0.3-0.5-0.8-0.8-1.3-0.6c-0.8,0.4-0.2,0.9,0,1.4c0.3,0.8,0.6,1.6,1,2.4 c2.2,5.6,5.4,10.3,11,13.1c3.7,1.8,7.4,1.8,11-0.3c2.4-1.4,2.9-3.9,1.4-6.3c-0.9-1.4-2.1-2.4-3.6-3.2c-1.8-0.9-3.7-1.6-5.6-2 c-3.2-0.8-6.2-1.9-8.6-4.2C81.9,180.5,81.3,179.9,80.1,180 M42.6,193.8c-0.3,3.7,3.3,6.5,5.8,5.9c4.4-1,8.3-3,10.5-7.1 c1.4-2.5,2.5-5.2,3.6-7.8c0.5-1.1,0.8-2.2,1.1-3.4c0.1-0.4,0.4-1.2-0.4-1.3c-0.6-0.1-1.4-0.3-1.5,0.9c-0.1,0.9-0.7,1.7-1,2.5 c-1.8,4.5-4.7,8.2-8.7,11c-1.1,0.7-2.3,1.2-3.6,1.3c-1,0-2-0.2-2.5-1.2c-0.5-1-0.4-2,0.3-2.9c1.1-1.7,2.9-2.3,4.6-3.1 c3.7-1.6,7.7-2.9,9-7.3c0.1-0.4,0.6-0.8,0.2-1.2c-0.4-0.4-0.9-0.2-1.3,0.1c-3.4,3.4-7.8,4.9-12,6.9 C44.1,188.4,42.6,190.5,42.6,193.8 M63.7,173.3c0.1-0.1,0.1-0.3,0.2-0.4c-3.3-4.6-6.8-9.2-10-13.9c-1.5-2.2-3.2-3.6-5.9-3.6 c-1.8,0-3.6-0.9-5.5-0.8c0,0.2,0,0.3,0.1,0.4c4,5.7,8,11.4,11.9,17.1c0.3,0.4,0.6,0.6,1,0.6C58.2,172.9,60.9,173.1,63.7,173.3 M78.7,156.5c-2.1,0.1-4.4,0.3-6.6,0.4c-1.1,0-1,0.4-0.5,1.1c3.3,4.6,6.6,9.3,9.9,14c0.3,0.5,0.6,0.8,1.3,0.7 c2.1-0.4,4.2-0.8,6.4-1c1.2-0.1,1.5-0.3,0.7-1.5c-3.1-4.3-6.2-8.6-9.2-12.9C80.2,156.6,79.6,156.3,78.7,156.5 M104.1,168.2 c-3.4-4.7-6.5-9.1-9.7-13.5c-0.3-0.5-0.7-0.5-1.3-0.4c-2.3,0.5-4.5,1-6.8,1.3c-1.1,0.2-1,0.5-0.5,1.2c3.1,4.3,6.1,8.6,9.2,12.9 c0.3,0.5,0.6,0.8,1.3,0.6C98.9,169.6,101.4,168.9,104.1,168.2 M48.6,172c-4.4-6.5-8.5-12.6-12.8-18.7c-0.9-1.3-2.7-1.5-4-1.4 c-0.9,0.1-0.3,1.8-0.4,2.7c-0.1,0.6,0.1,1.3,0,1.9c-0.1,1.3,0.3,2.4,1.1,3.4c2.4,3.2,4.8,6.4,7.2,9.6c0.4,0.5,0.7,0.9,1.4,1 C43.4,171,45.8,171.5,48.6,172 M76.6,191.2c0.1-3.7-1.4-6.9-3-10.1c-0.5-1.1-1.5-0.9-2.3-0.6c-1,0.3-0.1,1.1,0,1.6 c0.3,1.4,0.8,2.7,1.1,4.1c0.6,2.6,1.2,5.3,0,7.9c-0.5,1.1-1.1,2.1-2.5,2.3c-1.5,0.1-2.6-0.4-3.3-1.8c-0.6-1.3-1-2.6-0.7-4 c0.7-3.2,1.2-6.4,2.6-9.3c0.2-0.3,0.6-1-0.1-1c-0.9-0.1-2.1-0.6-2.6,0.8c-0.7,1.8-1.4,3.7-2.3,5.4c-1,2-1.2,4.1-0.8,6.2 c0.4,2.1,0.8,4.3,2.7,5.5c4.8,3.2,10.7,0.2,11.1-5.5C76.6,192.1,76.6,191.7,76.6,191.2 M58.3,156.8c0,0.2,0,0.3,0,0.4 c3.6,5.2,7.2,10.4,10.8,15.5c0.2,0.3,0.5,0.6,0.9,0.6c2.1,0,4.2,0.1,6.3,0.1c-0.1-0.5,0-0.7-0.1-0.7c-3.5-5.1-7-10.1-10.5-15.2 c-0.3-0.5-0.7-0.6-1.2-0.6C62.5,156.9,60.4,156.8,58.3,156.8 M55.2,150.4c2,0.2,3.7,0.3,5.4,0.5c0.6,0.1,0.9-0.4,1.2-0.7 c1.2-1.4,2.5-2.7,3.7-4.1c3.4-3.8,6.8-7.5,10.2-11.4c-1.3-0.6-2.7-0.4-3.9-0.6c-1.3-0.2-2.2,0.3-3.1,1.3c-2.9,3.2-5.8,6.4-8.7,9.6 C58.5,146.8,57,148.5,55.2,150.4 M48.1,149.5c1.8,0.3,3.3,0.5,4.8,0.7c0.4,0.1,0.6-0.1,0.8-0.4c4.7-5.2,9.4-10.4,14.2-15.6 c-1.6,0-2.9,0-4.3-0.1c-0.9,0-1.7,0.1-2.4,1c-2.3,2.6-4.7,5.2-7,7.8C52.2,145,50.2,147.1,48.1,149.5 M82.7,135.8 c-1.6-0.5-3.1-0.7-4.6-0.8c-0.4,0-0.7,0.3-0.9,0.6c-4.6,4.9-8.8,10.1-13.5,14.7c-0.2,0.1-0.3,0.3-0.2,0.5c0.1,0.3,0.4,0.3,0.7,0.3 c2.7,0.1,5.5,0.7,7-2.4c0,0,0.1-0.1,0.1-0.1C75,144.4,78.8,140.1,82.7,135.8 M89.3,137.3c-1.5-0.4-2.8-0.7-4-1.1 c-0.6-0.2-1,0.1-1.4,0.5c-4.1,4.6-8.1,9.1-12.2,13.6c-0.2,0.2-0.3,0.4-0.2,0.7c3.3,0.3,6.5,0.2,8.4-3.2c0.2-0.3,0.4-0.5,0.7-0.7 C83.4,144,86.2,140.7,89.3,137.3 M41.2,148.3c1.2,0.2,2.3,0.4,3.4,0.7c1.1,0.3,1.9,0,2.7-0.9c2-2.3,4.1-4.4,6.1-6.7 c2-2.3,4.1-4.6,6.4-7.2c-2.2,0.3-3.9,0.5-5.7,0.8c-0.6,0.1-1,0.4-1.3,0.8C48.9,140,45.1,144.1,41.2,148.3 M79.6,150.6 c2.1,0.2,3.8-0.2,5.5-0.4c0.5-0.1,0.8-0.4,1-0.7c2.7-3.2,5.4-6.3,8.1-9.5c0.2-0.3,0.6-0.5,0.3-1c-0.7-1-3.7-1.1-4.6-0.2 c-1,1.2-2.1,2.3-3.1,3.5C84.5,145,82.1,147.7,79.6,150.6 M50.4,136.1c-2.4,0.4-4.9,0.3-6.6,1.9c-2.6,2.5-4.9,5.3-7.3,8 c-0.2,0.3-0.7,0.6-0.3,1.1c0.4,0.5,3.2,0.9,3.6,0.5C43.3,143.9,46.9,140,50.4,136.1 M88,149.6c4.1-0.2,7.5-0.9,9.3-4.7 c0.3-0.6,0.9-1.1,1.3-1.6c1.4-1.9,1.4-1.9-0.8-2.9c-0.6-0.3-1.2-1-2-0.1C93.4,143.4,90.8,146.4,88,149.6 M52.3,172.3 c-0.1-0.2-0.2-0.4-0.2-0.5c-4-5.7-8-11.5-12-17.2c-0.6-0.9-1.5-1-2.6-0.9c0.1,0.3,0.2,0.4,0.3,0.5c3.7,5.5,7.5,11.1,11.2,16.6 C49.8,172,50.7,172.5,52.3,172.3 M106.1,162.3c0-2.5,0-4.5,0.1-6.5c0.1-1.7-1-2.8-1.6-4.1c-0.2-0.4-0.5-0.4-0.8-0.3 c-1.2,0.4-2.5,0.8-3.7,1.1c-0.6,0.2-0.7,0.4-0.3,0.9C101.8,156.3,103.8,159.2,106.1,162.3 M53.3,156.4c0.2,0.3,0.3,0.5,0.4,0.6 c3.8,5.2,7.5,10.4,11.3,15.6c0.6,0.9,1.3,0.8,2.2,0.7c0-0.7-0.5-1-0.8-1.5c-3.2-4.6-6.5-9.2-9.7-13.9 C55.9,156.7,55,156.1,53.3,156.4 M66.8,157.2c1.2,1.8,2.3,3.4,3.5,5c2.3,3.4,4.7,6.7,7,10.1c0.6,0.9,1.6,1.1,2.2,0.6 c0.8-0.5-0.2-1.1-0.5-1.5c-3.1-4.4-6.3-8.8-9.3-13.2C69,157.1,68.3,156.7,66.8,157.2 M95.3,154c3,4.2,6,8.3,9,12.4 c0.4,0.5,0.7,1.5,1.5,1.1c0.9-0.4,0.4-1.4,0.4-2.2c0-0.3-0.4-0.6-0.6-0.9c-2.3-3.2-4.7-6.3-6.9-9.6C97.7,153.5,96.9,153.1,95.3,154 M63.8,200c-1.3-1.9-2.1-3.6-2.7-5.5c-0.3-1-0.8-1-1.4-0.2c-1.4,1.8-3.1,3.3-5,4.5c-0.4,0.3-1.1,0.4-1.2,1 C56.8,199.8,60.1,199.9,63.8,200 M81.4,156.4c0.9,1.2,1.7,2.4,2.5,3.6c2.5,3.4,4.9,6.8,7.4,10.2c0.6,0.9,1.3,1.1,2,0.6 c0.6-0.5-0.2-1-0.5-1.4c-2.9-4.1-5.8-8.1-8.6-12.1C83.5,156.2,82.7,155.9,81.4,156.4 M40,139.9c-0.1-0.1-0.2-0.2-0.3-0.3 c-3.1,1.2-5.6,3.2-7.9,5.6c-0.2,0.2-0.5,0.7-0.2,0.8c0.8,0.3,1.8,1.2,2.7,0.2C36.3,144.1,38.1,142,40,139.9 M37.7,169.7 c-2-2.7-4-5.3-6-8.1C31.2,164.7,34.7,169.4,37.7,169.7 M31.5,165.7c0,0.9,0,1.4,0,1.8c0,0.3-0.1,0.8,0.5,0.8c0.4,0,0.8,0.3,1-0.1 c0.2-0.4-0.2-0.7-0.4-1C32.3,166.8,32,166.5,31.5,165.7"/></svg>