<svg version="1.1" id="Layer_1" xmlns="http://www.w3.org/2000/svg" x="0px" y="0px" viewBox="0 0 141.7 226.8" style="enable-background:new 0 0 141.7 226.8" xml:space="preserve"><style>.st0{fill:#1D1D1B}.st1{fill:none;stroke:#1D1D1B;stroke-width:1.614;stroke-miterlimit:10}.st2{fill:#DA0812}.st3{fill:none;stroke:#DA0812;stroke-miterlimit:10}.st4{fill:#FFDC00}.st5{fill:#0080C8}</style><path class="st0" d="M13.6,19.6c0.4,0,0.7,0,0.9-0.1c0.2-0.1,0.3-0.2,0.4-0.3c0.1-0.1,0.2-0.3,0.3-0.6h1L16,21.8h-8v-0.6 C8.2,20.6,8.5,20,9,19.4c0.5-0.7,1-1.4,1.7-2.2c0.6-0.7,1.1-1.4,1.4-1.8c0.3-0.5,0.6-0.9,0.7-1.4c0.2-0.4,0.2-0.9,0.2-1.3 c0-0.6-0.1-1.2-0.4-1.5c-0.3-0.4-0.7-0.6-1.2-0.6c-0.5,0-0.9,0.2-1.2,0.5c-0.3,0.3-0.5,0.9-0.7,1.6H8.1v-2.1 c0.7-0.3,1.3-0.5,1.7-0.6c0.4-0.1,0.8-0.2,1.2-0.3c0.4-0.1,0.8-0.1,1.3-0.1c0.9,0,1.6,0.1,2.1,0.3c0.5,0.2,0.9,0.5,1.2,0.9 c0.2,0.4,0.4,0.9,0.4,1.4c0,0.5-0.1,0.9-0.3,1.3c-0.2,0.4-0.5,0.9-0.9,1.4c-0.4,0.5-1.1,1.2-2.1,2.2c-0.5,0.4-0.9,0.9-1.3,1.3 c-0.4,0.5-0.7,0.8-0.9,1.1v0.1H13.6z"/><path class="st0" d="M128.4,207.3c-0.4,0-0.7,0-0.9,0.1c-0.2,0.1-0.3,0.2-0.4,0.3c-0.1,0.1-0.2,0.3-0.3,0.6h-1l0.2-3.2h8v0.6 c-0.2,0.6-0.6,1.2-1.1,1.8c-0.5,0.7-1,1.4-1.7,2.2c-0.6,0.7-1.1,1.4-1.4,1.8c-0.3,0.5-0.6,0.9-0.7,1.4c-0.2,0.4-0.2,0.9-0.2,1.3 c0,0.6,0.1,1.2,0.4,1.5c0.3,0.4,0.7,0.6,1.2,0.6c0.5,0,0.9-0.2,1.2-0.5c0.3-0.3,0.5-0.9,0.7-1.6h1.6v2.1c-0.7,0.3-1.3,0.5-1.7,0.6 c-0.4,0.1-0.8,0.2-1.2,0.3c-0.4,0.1-0.8,0.1-1.3,0.1c-0.9,0-1.6-0.1-2.1-0.3c-0.5-0.2-0.9-0.5-1.2-0.9c-0.2-0.4-0.4-0.9-0.4-1.4 c0-0.5,0.1-0.9,0.3-1.3c0.2-0.4,0.5-0.9,0.9-1.4c0.4-0.5,1.1-1.2,2.1-2.2c0.5-0.4,0.9-0.9,1.3-1.3c0.4-0.5,0.7-0.8,0.9-1.1v-0.1 H128.4z"/><polyline class="st1" points="38.7,219.7 5.4,219.7 5.4,7 38,7"/><polyline class="st1" points="102.5,7 136.3,7 136.3,219.7 102.2,219.7"/><line class="st1" x1="88.5" y1="219.7" x2="52.5" y2="219.7"/><line class="st1" x1="88.5" y1="7" x2="52.5" y2="7"/><path class="st2" d="M39.7,181.7C39.7,181.7,39.6,181.7,39.7,181.7C39.6,181.7,39.7,181.7,39.7,181.7z"/><path class="st3" d="M39.7,181.7C39.7,181.7,39.6,181.7,39.7,181.7C39.6,181.7,39.7,181.7,39.7,181.7z"/><polygon class="st2" points="39.2,182 39.9,181.3 40,181.4 39.3,182.1"/><polygon class="st3" points="39.2,182 39.9,181.3 40,181.4 39.3,182.1"/><path class="st4" d="M13.3,149.1c-0.5-1-0.1-1.9,1-2.1c0.3-0.1,0.7,0.1,1-0.2c-1.1-0.8-2.6-0.6-3.3,0.4c-0.6,0.8-0.4,1.8,0.5,2.5 c0.3,0.2,0.7,0.6,1,0.4C13.8,149.8,13.5,149.4,13.3,149.1"/><path class="st4" d="M32.3,206.5c-0.9-0.5-1.2-1.1-0.7-1.8c0.4-0.6,1-0.8,1.7-0.3C32,204.9,32,204.9,32.3,206.5"/><path class="st5" d="M36.7,29.6c0.6,1.4,1.1,2.8,1.9,4c1.9,3.1,2,6.5,1.9,10c-0.1,5.4-0.1,10.8-0.2,16.2 c-0.1,7.6-0.2,15.3-0.2,22.9c-0.1,10.4-0.2,20.8-0.3,31.2c-0.1,9.9-0.2,19.7-0.3,29.6c0,1.7-0.1,3.4-0.1,5.1c-0.1,0-0.1,0-0.2,0 c-0.2,0-0.3,0-0.5-0.1c-1.5-0.9-3-1.7-4.5-2.6c-0.4-0.3-0.5-0.7-0.5-1.1c0.1-7.7,0.2-15.4,0.3-23.1c0.1-7.4,0.2-14.8,0.3-22.1 c0.1-9.7,0.2-19.3,0.3-29c0.1-10.2,0.3-20.4,0.4-30.6c0.1-4.1,0.1-8.2,0.1-12.3c0-0.2-0.1-0.4,0.2-0.7 C35.9,27.9,36.3,28.7,36.7,29.6"/><path class="st5" d="M33.3,144.9L33.3,144.9c0.1-4.5,0.1-8.9,0.2-13.2l0.1-10c0-3.6,0.1-7.3,0.1-10.9c0.1-3.7,0.1-7.5,0.1-11.2 c0.1-4.1,0.1-8.2,0.1-12.3c0.1-5.6,0.1-11.1,0.2-16.7c0.1-5.9,0.2-11.9,0.2-17.8l0.2-12.8c0-2.3,0.1-4.5,0.1-6.8 c0-1.8,0-3.7,0.1-5.5c0-0.1,0-0.2,0-0.2c0-0.3,0.1-0.6,0.4-0.8l0.5-0.4l1.5,3.2c0.2,0.4,0.4,0.9,0.6,1.3c0.4,0.9,0.8,1.9,1.3,2.7 c1.7,2.9,2,5.9,2,8.7c0,0.5,0,1,0,1.6c-0.1,3.7-0.1,7.4-0.1,11.1c0,1.7,0,3.4,0,5.2l-0.1,10.2c0,4.2-0.1,8.5-0.1,12.7L40.3,114 c-0.1,9.8-0.2,19.7-0.3,29.6c0,1.2,0,2.3-0.1,3.5l0,2l-0.6,0.1c-0.4,0.1-0.7-0.1-0.9-0.2l-4.4-2.5C33.4,146,33.3,145.4,33.3,144.9 M35.8,28.7c0,1.5,0,3-0.1,4.4c0,2.3,0,4.5-0.1,6.8l-0.2,12.8c-0.1,5.9-0.2,11.9-0.2,17.8c-0.1,5.6-0.1,11.1-0.2,16.7 c0,4.1-0.1,8.2-0.1,12.3c0,3.7-0.1,7.5-0.1,11.2c0,3.6-0.1,7.3-0.1,10.9l-0.1,10c-0.1,4.4-0.1,8.8-0.2,13.2l-0.5,0.1h0.5 c0,0.4,0.1,0.6,0.2,0.7l4.4,2.5l0-1c0-1.2,0.1-2.3,0.1-3.5c0.1-9.9,0.2-19.7,0.3-29.6l0.3-31.2c0-4.2,0.1-8.5,0.1-12.7l0.1-10.2 c0-1.7,0-3.4,0-5.2c0-3.6,0-7.4,0.1-11.1c0-0.5,0-1,0-1.5c0-2.7-0.2-5.5-1.8-8.2c-0.5-0.9-1-1.9-1.4-2.8c-0.2-0.4-0.4-0.9-0.6-1.3 L35.8,28.7z"/><path class="st5" d="M25.7,148c0.1-1.7,0.2-3.4,0.2-5.1c0.2-10.4,0.4-20.8,0.6-31.2c0.2-7.6,0.3-15.1,0.5-22.7 c0.1-6.3,0.3-12.6,0.4-19c0.2-9.1,0.4-18.1,0.6-27.2c0-1.5,0.1-3,0.1-4.6c0-0.6,0.1-1.2,0.4-1.8c1.7-3,3.5-6.1,5.2-9.1 c0.1-0.1,0.2-0.3,0.2-0.3C34,30,34.1,33,34.1,36c0,3.1-0.1,6.2-0.2,9.3c-0.2,9.6-0.3,19.3-0.5,28.9c-0.1,6-0.2,12-0.3,18 c-0.1,8.6-0.3,17.2-0.4,25.7c-0.1,6.6-0.2,13.2-0.4,19.7c0,2.5-0.1,4.9-0.1,7.4c0,0.5-0.2,0.9-0.6,1.2c-1.7,1.4-3.6,2.1-5.8,2.4 C25.6,148.5,25.8,148.2,25.7,148"/><path class="st5" d="M25.2,148.1l0.1-1.7c0-1.2,0.1-2.3,0.1-3.5c0.1-4.8,0.2-9.6,0.3-14.4c0.1-5.6,0.2-11.2,0.3-16.7 c0.1-4.4,0.2-8.7,0.3-13.1c0.1-3.2,0.1-6.4,0.2-9.6c0.1-3.3,0.1-6.6,0.2-9.9c0.1-3,0.1-6.1,0.2-9.1l0.1-4.2 c0.2-7.7,0.3-15.3,0.5-23l0-1.2c0-1,0.1-2,0.1-3.1l0-0.3v0c0-0.8,0.2-1.5,0.5-2c1-1.8,2.1-3.7,3.1-5.5l2.1-3.6 c0.3-0.6,0.6-0.5,0.8-0.5l0.4,0.1l0,0.4c0,0.9,0.1,1.8,0.1,2.7c0.1,2,0.1,4.1,0.1,6.2l0,0.5c0,2,0,4-0.1,5.9c0,1,0,1.9-0.1,2.9 l-0.1,8.1c-0.1,6.9-0.2,13.9-0.4,20.8c-0.1,3.2-0.1,6.3-0.1,9.5c0,2.8-0.1,5.7-0.1,8.5c-0.1,8.6-0.3,17.2-0.4,25.7 c-0.1,5.3-0.2,10.5-0.3,15.8l-0.1,6.5c0,1.6-0.1,3.2-0.1,4.9c0,0.6-0.2,1.1-0.8,1.6c-1.6,1.4-3.6,2.2-6,2.6l-0.2,0l-0.2-0.1 c-0.4-0.2-0.4-0.7-0.4-0.8L25.2,148.1L25.2,148.1z M28.6,38.6c0,1,0,2.1-0.1,3.1l0,1.2c-0.2,7.7-0.4,15.3-0.5,23L27.9,70 c-0.1,3-0.1,6.1-0.2,9.1c-0.1,3.3-0.1,6.6-0.2,9.9c-0.1,3.2-0.1,6.4-0.2,9.6c-0.1,4.4-0.2,8.7-0.3,13.1c-0.1,5.6-0.2,11.2-0.3,16.7 c-0.1,4.8-0.2,9.6-0.3,14.4c0,1.2-0.1,2.3-0.1,3.5l-0.1,1.6c0,0.1,0,0.1,0,0.2c2.1-0.4,3.8-1.1,5.1-2.3c0.3-0.3,0.4-0.5,0.4-0.9 c0-1.6,0.1-3.3,0.1-4.9l0.1-6.5c0.1-5.3,0.2-10.5,0.3-15.8c0.1-8.6,0.3-17.2,0.4-25.7c0-2.8,0.1-5.7,0.1-8.5c0-3.2,0.1-6.3,0.1-9.5 c0.1-6.9,0.2-13.9,0.4-20.8l0.1-8.1c0-1,0-1.9,0.1-2.9c0-1.9,0.1-3.9,0.1-5.9l0-0.5c0-2.1-0.1-4.1-0.1-6.2c0-0.3,0-0.6,0-1 l-1.4,2.4c-1,1.8-2.1,3.7-3.1,5.5c-0.2,0.4-0.4,0.9-0.4,1.5L28.6,38.6z"/><path class="st4" d="M10.9,148.5c0-1.7,1.4-3.2,3-3.3c1.6-0.1,3.1,1.4,3.2,3.1c0,1.7-1.3,3.3-3,3.3 C12.4,151.8,10.9,150.3,10.9,148.5"/><path class="st4" d="M34.6,199.3c-0.2,0-0.4-0.1-0.5-0.4c0-0.3,0.2-0.2,0.4-0.3c0.6-0.2,1-0.6,0.9-1.3c0-0.3-0.5-0.6,0.1-0.8 c0.4-0.1,0.7,0.2,0.9,0.5c0.1,0.1,0.1,0.3,0.1,0.4C36.5,198.5,35.4,199.4,34.6,199.3"/><path class="st4" d="M32.2,196.8c-0.2,0.1-0.5,0-0.7-0.2c-0.5-0.4-0.5-0.9-0.3-1.4c0.1-0.6,0.9-1.1,1.6-1.1c0.3,0,0.6,0,0.7,0.3 c0.1,0.4-0.3,0.3-0.5,0.4c-0.6,0.3-1,0.7-0.7,1.4C32.3,196.4,32.4,196.6,32.2,196.8"/><path class="st4" d="M33.8,192.5c0.3,0.1,0.7,0.2,0.7,0.6c0,0.5-0.5,0.3-0.8,0.3c-1.2-0.1-2.3,0.1-3,1.1c-0.8,1-0.8,2.1-0.4,3.3 c0.1,0.4,0.4,0.8,0.3,1.4c-1.3-0.8-1.6-2-1.5-3.3c0.1-1.4,0.6-2.5,2-3.1C31.9,192.4,32.8,192.3,33.8,192.5"/><path class="st2" d="M39.4,185.3c-0.2,0.8-0.4,1.6-1.2,2.1c-0.9,0.5-1.7,1.1-2.6,1.8c0.6,0.4,1.1,0.1,1.5-0.1 c0.5-0.2,0.6,0,0.5,0.4c-0.2,0.8-0.9,1.1-1.7,0.8c-0.9-0.4-1.9-0.5-2.9-0.7c-0.6-0.1-0.8-0.3-0.2-0.7c1.9-1.5,4.1-2.6,6.2-4 C39.4,184.6,39.5,185,39.4,185.3"/><path class="st3" d="M39.4,185.3c-0.2,0.8-0.4,1.6-1.2,2.1c-0.9,0.5-1.7,1.1-2.6,1.8c0.6,0.4,1.1,0.1,1.5-0.1 c0.5-0.2,0.6,0,0.5,0.4c-0.2,0.8-0.9,1.1-1.7,0.8c-0.9-0.4-1.9-0.5-2.9-0.7c-0.6-0.1-0.8-0.3-0.2-0.7c1.9-1.5,4.1-2.6,6.2-4 C39.4,184.6,39.5,185,39.4,185.3z"/><path class="st2" d="M32,189.2c0-0.4,0.3-0.6,0.5-0.8c1.2-1,2.5-1.7,3.8-2.5c0.8-0.5,1.6-1,2.4-1.5c0.4-0.2,0.7-0.2,0.8-0.1 c0.3,0.2,0.5,0.6,0.3,1.1l-0.1,0.2c-0.2,0.8-0.4,1.6-1.4,2.2c-0.3,0.2-0.7,0.4-1,0.7c0.1,0,0.3,0,0.4,0.1c0.1,0.1,0.4,0.3,0.3,1 c-0.1,0.5-0.4,0.9-0.9,1.2c-0.4,0.2-1,0.2-1.5,0c-0.7-0.3-1.4-0.4-2.2-0.6L33,190C32.4,189.9,32,189.6,32,189.2 M38.8,185.6 c-0.7,0.4-1.3,0.8-2,1.2c-1.2,0.7-2.4,1.5-3.6,2.3l0.4,0.1c0.5,0.1,1,0.2,1.5,0.3l-0.5-0.3l0.6-0.4c0.3-0.2,0.6-0.4,0.8-0.6 c0.6-0.4,1.2-0.8,1.8-1.2C38.5,186.7,38.6,186.2,38.8,185.6 M37,189.6c-0.2,0.1-0.5,0.2-0.8,0.2c0.2,0.1,0.4,0.1,0.6,0 C36.8,189.8,36.9,189.7,37,189.6"/><path class="st3" d="M32,189.2c0-0.4,0.3-0.6,0.5-0.8c1.2-1,2.5-1.7,3.8-2.5c0.8-0.5,1.6-1,2.4-1.5c0.4-0.2,0.7-0.2,0.8-0.1 c0.3,0.2,0.5,0.6,0.3,1.1l-0.1,0.2c-0.2,0.8-0.4,1.6-1.4,2.2c-0.3,0.2-0.7,0.4-1,0.7c0.1,0,0.3,0,0.4,0.1c0.1,0.1,0.4,0.3,0.3,1 c-0.1,0.5-0.4,0.9-0.9,1.2c-0.4,0.2-1,0.2-1.5,0c-0.7-0.3-1.4-0.4-2.2-0.6L33,190C32.4,189.9,32,189.6,32,189.2z M38.8,185.6 c-0.7,0.4-1.3,0.8-2,1.2c-1.2,0.7-2.4,1.5-3.6,2.3l0.4,0.1c0.5,0.1,1,0.2,1.5,0.3l-0.5-0.3l0.6-0.4c0.3-0.2,0.6-0.4,0.8-0.6 c0.6-0.4,1.2-0.8,1.8-1.2C38.5,186.7,38.6,186.2,38.8,185.6z M37,189.6c-0.2,0.1-0.5,0.2-0.8,0.2c0.2,0.1,0.4,0.1,0.6,0 C36.8,189.8,36.9,189.7,37,189.6z"/><path class="st2" d="M37.9,182.6c0.6-0.3,1.1-0.7,1.7-1c0,0,0.1-0.1,0.1-0.1c0,0.1,0,0.1-0.1,0.2v0c-0.1,0.9-0.9,1.3-1.5,1.8 c-2,1.8-4.4,3-6.4,4.8c-0.9,0.8-1.8,1.6-2.6,2.5c-0.7,0.7-0.9,0.6-1.4-0.2c-0.9-1.4-0.6-2.3,0.5-3.5c2.5-2.7,5.3-4.9,8.3-6.9 c1.1-0.7,2.2-1.6,3.3-2.4c0.3-0.2,0.6-0.6,1.2-0.7c-1,2.6-3.1,4.2-4.9,6.1C36.8,183.3,36.8,183.3,37.9,182.6"/><path class="st3" d="M37.9,182.6c0.6-0.3,1.1-0.7,1.7-1c0,0,0.1-0.1,0.1-0.1c0,0.1,0,0.1-0.1,0.2v0c-0.1,0.9-0.9,1.3-1.5,1.8 c-2,1.8-4.4,3-6.4,4.8c-0.9,0.8-1.8,1.6-2.6,2.5c-0.7,0.7-0.9,0.6-1.4-0.2c-0.9-1.4-0.6-2.3,0.5-3.5c2.5-2.7,5.3-4.9,8.3-6.9 c1.1-0.7,2.2-1.6,3.3-2.4c0.3-0.2,0.6-0.6,1.2-0.7c-1,2.6-3.1,4.2-4.9,6.1C36.8,183.3,36.8,183.3,37.9,182.6z"/><path class="st2" d="M26.7,189.1c0-1,0.6-1.8,1.1-2.3c2.3-2.5,5.1-4.8,8.4-7c0.7-0.5,1.5-1,2.2-1.6c0.4-0.3,0.7-0.5,1.1-0.8 c0.1-0.1,0.1-0.1,0.2-0.2c0.3-0.2,0.6-0.5,1.2-0.7l0.9-0.2l-0.3,0.8c-0.8,2.1-2.2,3.5-3.6,4.9c0,0-0.1,0.1-0.1,0.1l2.8-1.7 l-0.4,1.4c-0.1,0.8-0.7,1.3-1.2,1.7c-0.1,0.1-0.3,0.2-0.4,0.3c-1.1,1-2.3,1.8-3.4,2.6c-1,0.7-2,1.4-3,2.2c-0.7,0.6-1.3,1.2-1.9,1.8 l-0.6,0.6c-0.4,0.4-0.7,0.7-1.2,0.6c-0.5,0-0.8-0.5-1-0.9C26.9,190.2,26.7,189.7,26.7,189.1 M39.7,178.5c-0.2,0.2-0.4,0.3-0.7,0.5 c-0.7,0.6-1.5,1.1-2.2,1.6c-3.3,2.1-6,4.3-8.2,6.8c-1.1,1.2-1.2,1.8-0.5,2.9c0.1,0.1,0.2,0.3,0.3,0.4c0.1,0,0.2-0.1,0.4-0.3 l0.6-0.6c0.6-0.6,1.3-1.3,2-1.9c1-0.8,2-1.6,3.1-2.3c1-0.7,2.1-1.4,3-2.2c-0.6,0.3-0.9,0.3-1.5,0.1l-0.8-0.2l0.5-0.6 c0.4-0.5,0.9-0.9,1.4-1.4C38.1,180.4,39,179.5,39.7,178.5"/><path class="st3" d="M26.7,189.1c0-1,0.6-1.8,1.1-2.3c2.3-2.5,5.1-4.8,8.4-7c0.7-0.5,1.5-1,2.2-1.6c0.4-0.3,0.7-0.5,1.1-0.8 c0.1-0.1,0.1-0.1,0.2-0.2c0.3-0.2,0.6-0.5,1.2-0.7l0.9-0.2l-0.3,0.8c-0.8,2.1-2.2,3.5-3.6,4.9c0,0-0.1,0.1-0.1,0.1l2.8-1.7 l-0.4,1.4c-0.1,0.8-0.7,1.3-1.2,1.7c-0.1,0.1-0.3,0.2-0.4,0.3c-1.1,1-2.3,1.8-3.4,2.6c-1,0.7-2,1.4-3,2.2c-0.7,0.6-1.3,1.2-1.9,1.8 l-0.6,0.6c-0.4,0.4-0.7,0.7-1.2,0.6c-0.5,0-0.8-0.5-1-0.9C26.9,190.2,26.7,189.7,26.7,189.1z M39.7,178.5c-0.2,0.2-0.4,0.3-0.7,0.5 c-0.7,0.6-1.5,1.1-2.2,1.6c-3.3,2.1-6,4.3-8.2,6.8c-1.1,1.2-1.2,1.8-0.5,2.9c0.1,0.1,0.2,0.3,0.3,0.4c0.1,0,0.2-0.1,0.4-0.3 l0.6-0.6c0.6-0.6,1.3-1.3,2-1.9c1-0.8,2-1.6,3.1-2.3c1-0.7,2.1-1.4,3-2.2c-0.6,0.3-0.9,0.3-1.5,0.1l-0.8-0.2l0.5-0.6 c0.4-0.5,0.9-0.9,1.4-1.4C38.1,180.4,39,179.5,39.7,178.5z"/><path class="st2" d="M40.4,172.1c-1,2.4-3.1,3.9-4.8,5.7c1.9-0.5,3.3-2,4.9-3c0.1,0.1,0.1,0.1,0.2,0.2c-0.6,1.3-1.8,2-2.9,2.8 c-2.8,2.2-6,3.9-8.5,6.4c-0.9,0.8-1.7,1.7-2.4,2.7c-0.5,0.7-0.7,0.5-1.1-0.2c-1.1-1.7-0.7-2.9,0.7-4.3c2.3-2.2,4.8-4.1,7.5-5.7 c2.1-1.3,4.1-2.7,6-4.3C39.9,172.2,40,172,40.4,172.1"/><path class="st3" d="M40.4,172.1c-1,2.4-3.1,3.9-4.8,5.7c1.9-0.5,3.3-2,4.9-3c0.1,0.1,0.1,0.1,0.2,0.2c-0.6,1.3-1.8,2-2.9,2.8 c-2.8,2.2-6,3.9-8.5,6.4c-0.9,0.8-1.7,1.7-2.4,2.7c-0.5,0.7-0.7,0.5-1.1-0.2c-1.1-1.7-0.7-2.9,0.7-4.3c2.3-2.2,4.8-4.1,7.5-5.7 c2.1-1.3,4.1-2.7,6-4.3C39.9,172.2,40,172,40.4,172.1z"/><path class="st2" d="M24.6,184.8c0-0.9,0.5-1.8,1.4-2.8c2.1-2,4.5-3.9,7.5-5.8c2.2-1.4,4.1-2.7,5.9-4.2c0.2-0.2,0.5-0.4,1-0.3 l0.5,0.2l-0.2,0.5c-0.5,1.3-1.4,2.4-2.3,3.4c0.1,0,0.1-0.1,0.2-0.1c0.5-0.4,1-0.8,1.6-1.1l0.3-0.2l0.7,0.6l-0.1,0.3 c-0.5,1.2-1.4,1.8-2.3,2.5c-0.2,0.2-0.5,0.3-0.7,0.5c-1,0.8-2.1,1.5-3.1,2.2c-1.8,1.2-3.7,2.5-5.3,4.1c-1,1-1.8,1.8-2.4,2.6 c-0.3,0.3-0.6,0.6-1,0.6c-0.5,0-0.7-0.4-1-0.8C24.8,186.1,24.6,185.4,24.6,184.8 M38.9,173.6c-1.5,1.2-3.1,2.3-4.8,3.4 c-2.9,1.8-5.3,3.7-7.4,5.7c-1.3,1.3-1.5,2.3-0.6,3.7c0,0.1,0.1,0.2,0.2,0.3c0,0,0.1-0.1,0.1-0.1c0.7-0.8,1.5-1.7,2.5-2.7 c1.7-1.7,3.6-3,5.5-4.2c0.8-0.5,1.6-1.1,2.3-1.6c-0.3,0.1-0.6,0.3-1,0.4l-1.6,0.5l1.1-1.2c0.5-0.5,1-1.1,1.6-1.6 C37.6,175.2,38.3,174.4,38.9,173.6"/><path class="st3" d="M24.6,184.8c0-0.9,0.5-1.8,1.4-2.8c2.1-2,4.5-3.9,7.5-5.8c2.2-1.4,4.1-2.7,5.9-4.2c0.2-0.2,0.5-0.4,1-0.3 l0.5,0.2l-0.2,0.5c-0.5,1.3-1.4,2.4-2.3,3.4c0.1,0,0.1-0.1,0.2-0.1c0.5-0.4,1-0.8,1.6-1.1l0.3-0.2l0.7,0.6l-0.1,0.3 c-0.5,1.2-1.4,1.8-2.3,2.5c-0.2,0.2-0.5,0.3-0.7,0.5c-1,0.8-2.1,1.5-3.1,2.2c-1.8,1.2-3.7,2.5-5.3,4.1c-1,1-1.8,1.8-2.4,2.6 c-0.3,0.3-0.6,0.6-1,0.6c-0.5,0-0.7-0.4-1-0.8C24.8,186.1,24.6,185.4,24.6,184.8z M38.9,173.6c-1.5,1.2-3.1,2.3-4.8,3.4 c-2.9,1.8-5.3,3.7-7.4,5.7c-1.3,1.3-1.5,2.3-0.6,3.7c0,0.1,0.1,0.2,0.2,0.3c0,0,0.1-0.1,0.1-0.1c0.7-0.8,1.5-1.7,2.5-2.7 c1.7-1.7,3.6-3,5.5-4.2c0.8-0.5,1.6-1.1,2.3-1.6c-0.3,0.1-0.6,0.3-1,0.4l-1.6,0.5l1.1-1.2c0.5-0.5,1-1.1,1.6-1.6 C37.6,175.2,38.3,174.4,38.9,173.6z"/><path class="st2" d="M35.4,172.1c1.6-0.9,3-2.1,4.5-3.2c0.2-0.1,0.4-0.5,0.6-0.3c0.3,0.2,0.2,0.6,0.1,0.9c-0.1,0.2-0.3,0.4-0.5,0.6 c-1.7,1.5-3.4,3.1-5.4,4.3c-3.4,2.1-6.6,4.3-9.5,7.1c-0.2,0.2-0.4,0.7-0.9,0.5c-0.4-0.2-0.3-0.6-0.4-1c-0.2-0.8-0.2-1.6-0.4-2.4 c-0.1-0.7,0.1-1.3,0.7-1.9c2.8-3.1,6.4-5.1,9.9-7.2c2.1-1.3,4-2.7,5.7-4.4c0.1-0.1,0.2-0.1,0.5-0.2c-1.4,3.2-4.2,4.9-6.4,7.1 C34.6,172.5,35,172.3,35.4,172.1"/><path class="st3" d="M35.4,172.1c1.6-0.9,3-2.1,4.5-3.2c0.2-0.1,0.4-0.5,0.6-0.3c0.3,0.2,0.2,0.6,0.1,0.9c-0.1,0.2-0.3,0.4-0.5,0.6 c-1.7,1.5-3.4,3.1-5.4,4.3c-3.4,2.1-6.6,4.3-9.5,7.1c-0.2,0.2-0.4,0.7-0.9,0.5c-0.4-0.2-0.3-0.6-0.4-1c-0.2-0.8-0.2-1.6-0.4-2.4 c-0.1-0.7,0.1-1.3,0.7-1.9c2.8-3.1,6.4-5.1,9.9-7.2c2.1-1.3,4-2.7,5.7-4.4c0.1-0.1,0.2-0.1,0.5-0.2c-1.4,3.2-4.2,4.9-6.4,7.1 C34.6,172.5,35,172.3,35.4,172.1z"/><path class="st2" d="M23.1,178.3c0-0.8,0.4-1.4,0.8-1.8c2.4-2.7,5.5-4.6,8.5-6.4c0.5-0.3,1-0.6,1.5-0.9c2.4-1.5,4.2-2.8,5.6-4.3 c0.1-0.1,0.3-0.2,0.4-0.2c0.1,0,0.2,0,0.3-0.1l1.1-0.4l-0.5,1c-1.1,2.4-2.9,4-4.6,5.5c-0.3,0.2-0.6,0.5-0.9,0.8 c1-0.6,1.9-1.3,2.8-2c0.4-0.3,0.8-0.7,1.3-1c0,0,0.1-0.1,0.1-0.1c0.4-0.4,0.8-0.5,1.2-0.2c0.2,0.2,0.4,0.5,0.4,0.8 c0,0.3-0.1,0.5-0.2,0.7c-0.2,0.3-0.4,0.6-0.6,0.7c-0.3,0.3-0.6,0.5-0.9,0.8c-1.4,1.2-2.9,2.5-4.5,3.5c-4,2.5-6.9,4.6-9.4,7 c0,0-0.1,0.1-0.1,0.1c-0.2,0.2-0.6,0.8-1.3,0.5c-0.6-0.2-0.6-0.8-0.6-1.1c0-0.1,0-0.1,0-0.2c-0.1-0.5-0.2-1-0.2-1.4 c0-0.3-0.1-0.6-0.1-1C23.1,178.6,23.1,178.5,23.1,178.3 M38.4,167.3c-1.1,0.9-2.4,1.8-4,2.8c-0.5,0.3-1,0.6-1.5,0.9 c-2.9,1.8-6,3.6-8.3,6.2c-0.5,0.5-0.6,0.9-0.5,1.5c0.1,0.3,0.1,0.7,0.1,1c0.1,0.5,0.1,0.9,0.2,1.4c0,0.1,0,0.2,0,0.3 c0,0.1,0,0.2,0,0.3c0,0,0.1-0.1,0.1-0.2c0.1-0.1,0.1-0.2,0.2-0.2c2.5-2.4,5.4-4.7,9.5-7.2c1.6-1,3-2.2,4.4-3.4 c0.3-0.3,0.6-0.5,0.9-0.8c0.1-0.1,0.3-0.3,0.3-0.4c-0.4,0.3-0.8,0.6-1.2,0.9c-1,0.8-2.1,1.6-3.3,2.3c-0.5,0.3-1.1,0.6-1.9,0.1 l-0.5-0.3l0.4-0.4c0.6-0.6,1.3-1.2,2-1.8C36.6,169.1,37.6,168.2,38.4,167.3"/><path class="st3" d="M23.1,178.3c0-0.8,0.4-1.4,0.8-1.8c2.4-2.7,5.5-4.6,8.5-6.4c0.5-0.3,1-0.6,1.5-0.9c2.4-1.5,4.2-2.8,5.6-4.3 c0.1-0.1,0.3-0.2,0.4-0.2c0.1,0,0.2,0,0.3-0.1l1.1-0.4l-0.5,1c-1.1,2.4-2.9,4-4.6,5.5c-0.3,0.2-0.6,0.5-0.9,0.8 c1-0.6,1.9-1.3,2.8-2c0.4-0.3,0.8-0.7,1.3-1c0,0,0.1-0.1,0.1-0.1c0.4-0.4,0.8-0.5,1.2-0.2c0.2,0.2,0.4,0.5,0.4,0.8 c0,0.3-0.1,0.5-0.2,0.7c-0.2,0.3-0.4,0.6-0.6,0.7c-0.3,0.3-0.6,0.5-0.9,0.8c-1.4,1.2-2.9,2.5-4.5,3.5c-4,2.5-6.9,4.6-9.4,7 c0,0-0.1,0.1-0.1,0.1c-0.2,0.2-0.6,0.8-1.3,0.5c-0.6-0.2-0.6-0.8-0.6-1.1c0-0.1,0-0.1,0-0.2c-0.1-0.5-0.2-1-0.2-1.4 c0-0.3-0.1-0.6-0.1-1C23.1,178.6,23.1,178.5,23.1,178.3z M38.4,167.3c-1.1,0.9-2.4,1.8-4,2.8c-0.5,0.3-1,0.6-1.5,0.9 c-2.9,1.8-6,3.6-8.3,6.2c-0.5,0.5-0.6,0.9-0.5,1.5c0.1,0.3,0.1,0.7,0.1,1c0.1,0.5,0.1,0.9,0.2,1.4c0,0.1,0,0.2,0,0.3 c0,0.1,0,0.2,0,0.3c0,0,0.1-0.1,0.1-0.2c0.1-0.1,0.1-0.2,0.2-0.2c2.5-2.4,5.4-4.7,9.5-7.2c1.6-1,3-2.2,4.4-3.4 c0.3-0.3,0.6-0.5,0.9-0.8c0.1-0.1,0.3-0.3,0.3-0.4c-0.4,0.3-0.8,0.6-1.2,0.9c-1,0.8-2.1,1.6-3.3,2.3c-0.5,0.3-1.1,0.6-1.9,0.1 l-0.5-0.3l0.4-0.4c0.6-0.6,1.3-1.2,2-1.8C36.6,169.1,37.6,168.2,38.4,167.3z"/><path class="st2" d="M39.1,160.3c-0.2,0.6-0.6,1.1-1,1.5c-1.3,1.2-2.6,2.4-3.9,3.5c-0.3,0.2-0.6,0.4-0.7,0.8c0.6,0.3,1.1,0,1.5-0.3 c1.4-0.7,2.6-1.8,3.8-2.8c0.2-0.2,0.4-0.4,0.7-0.5c0,0,0.1-0.1,0.1-0.1c0.1,0.1,0.1,0.1,0,0.2c0,0-0.1-0.1-0.1-0.1 c0,0,0.1,0.1,0.1,0.1c-0.3,1.6-1.8,2.3-2.9,3.2c-4.1,3.3-8.7,5.9-12.7,9.3c-0.5,0.4-0.7,0.3-0.7-0.3c0-0.9-0.1-1.9-0.1-2.8 c0-0.8,0.4-1.3,1-1.8c2.7-2.2,5.5-4.1,8.4-6c1.6-1.1,3.1-2.3,4.7-3.4c0.4-0.3,0.9-0.7,1.4-0.9C39,159.7,39.3,159.8,39.1,160.3"/><path class="st3" d="M39.1,160.3c-0.2,0.6-0.6,1.1-1,1.5c-1.3,1.2-2.6,2.4-3.9,3.5c-0.3,0.2-0.6,0.4-0.7,0.8c0.6,0.3,1.1,0,1.5-0.3 c1.4-0.7,2.6-1.8,3.8-2.8c0.2-0.2,0.4-0.4,0.7-0.5c0,0,0.1-0.1,0.1-0.1c0.1,0.1,0.1,0.1,0,0.2c0,0-0.1-0.1-0.1-0.1 c0,0,0.1,0.1,0.1,0.1c-0.3,1.6-1.8,2.3-2.9,3.2c-4.1,3.3-8.7,5.9-12.7,9.3c-0.5,0.4-0.7,0.3-0.7-0.3c0-0.9-0.1-1.9-0.1-2.8 c0-0.8,0.4-1.3,1-1.8c2.7-2.2,5.5-4.1,8.4-6c1.6-1.1,3.1-2.3,4.7-3.4c0.4-0.3,0.9-0.7,1.4-0.9C39,159.7,39.3,159.8,39.1,160.3z"/><path class="st2" d="M22.7,172.3v-0.2c0-1.1,0.7-1.8,1.2-2.2c2.6-2.1,5.3-4,8.4-6c1.1-0.7,2.2-1.5,3.2-2.3c0.5-0.4,1-0.7,1.4-1.1 l0.2-0.1c0.4-0.3,0.8-0.6,1.2-0.8c0.4-0.2,0.7-0.1,0.9,0c0.3,0.2,0.4,0.6,0.3,1c-0.2,0.6-0.6,1.2-1.2,1.7c-1,1-2.1,1.9-3.1,2.9 l-0.5,0.5l0,0c1.2-0.6,2.1-1.4,3.2-2.3l0.5-0.4c0,0,0.1-0.1,0.1-0.1c0.2-0.2,0.4-0.3,0.7-0.4c0.3-0.3,0.5-0.2,0.7-0.1 c0.3,0.2,0.3,0.4,0.3,0.5c0,0.1,0,0.3-0.1,0.4c-0.3,1.4-1.4,2.1-2.3,2.8c-0.3,0.2-0.5,0.4-0.7,0.6c-1.9,1.5-3.9,2.9-5.9,4.3 c-2.3,1.6-4.6,3.2-6.8,5c-0.2,0.1-0.6,0.5-1.1,0.3c-0.5-0.2-0.5-0.8-0.5-1l0-0.8C22.8,173.5,22.7,172.9,22.7,172.3 M38.4,160.6 c-0.2,0.1-0.4,0.3-0.6,0.4l-0.2,0.2c-0.5,0.4-1,0.7-1.4,1.1c-1.1,0.8-2.2,1.6-3.3,2.4c-3,2-5.8,3.9-8.3,6c-0.6,0.5-0.9,0.9-0.9,1.5 v0.2c0,0.6,0,1.2,0,1.8l0,0.6c2.1-1.8,4.5-3.4,6.7-5c1.7-1.1,3.3-2.3,5-3.5c-0.1,0-0.1,0.1-0.2,0.1l-0.1,0.1 c-0.5,0.3-1.1,0.6-1.9,0.2l-0.3-0.2l0.1-0.4c0.1-0.5,0.4-0.8,0.7-1c0.1,0,0.1-0.1,0.2-0.1l0.8-0.7c1-1,2.1-1.9,3.1-2.9 C38,161.2,38.2,160.9,38.4,160.6"/><path class="st3" d="M22.7,172.3v-0.2c0-1.1,0.7-1.8,1.2-2.2c2.6-2.1,5.3-4,8.4-6c1.1-0.7,2.2-1.5,3.2-2.3c0.5-0.4,1-0.7,1.4-1.1 l0.2-0.1c0.4-0.3,0.8-0.6,1.2-0.8c0.4-0.2,0.7-0.1,0.9,0c0.3,0.2,0.4,0.6,0.3,1c-0.2,0.6-0.6,1.2-1.2,1.7c-1,1-2.1,1.9-3.1,2.9 l-0.5,0.5l0,0c1.2-0.6,2.1-1.4,3.2-2.3l0.5-0.4c0,0,0.1-0.1,0.1-0.1c0.2-0.2,0.4-0.3,0.7-0.4c0.3-0.3,0.5-0.2,0.7-0.1 c0.3,0.2,0.3,0.4,0.3,0.5c0,0.1,0,0.3-0.1,0.4c-0.3,1.4-1.4,2.1-2.3,2.8c-0.3,0.2-0.5,0.4-0.7,0.6c-1.9,1.5-3.9,2.9-5.9,4.3 c-2.3,1.6-4.6,3.2-6.8,5c-0.2,0.1-0.6,0.5-1.1,0.3c-0.5-0.2-0.5-0.8-0.5-1l0-0.8C22.8,173.5,22.7,172.9,22.7,172.3z M38.4,160.6 c-0.2,0.1-0.4,0.3-0.6,0.4l-0.2,0.2c-0.5,0.4-1,0.7-1.4,1.1c-1.1,0.8-2.2,1.6-3.3,2.4c-3,2-5.8,3.9-8.3,6c-0.6,0.5-0.9,0.9-0.9,1.5 v0.2c0,0.6,0,1.2,0,1.8l0,0.6c2.1-1.8,4.5-3.4,6.7-5c1.7-1.1,3.3-2.3,5-3.5c-0.1,0-0.1,0.1-0.2,0.1l-0.1,0.1 c-0.5,0.3-1.1,0.6-1.9,0.2l-0.3-0.2l0.1-0.4c0.1-0.5,0.4-0.8,0.7-1c0.1,0,0.1-0.1,0.2-0.1l0.8-0.7c1-1,2.1-1.9,3.1-2.9 C38,161.2,38.2,160.9,38.4,160.6z"/><path class="st2" d="M34.7,156.9c0.5,0.4,0.1,0.9-0.1,1.3c-0.8,1.3-1.9,2.2-3.1,3.1c-0.2,0.1-0.3,0.3-0.5,0.4c0.4,0.4,0.7,0.1,1,0 c1.7-1,3.5-2,4.8-3.6c0.2-0.2,0.3-0.5,0.6-0.3c0.4,0.2,0.2,0.5,0.1,0.8c-0.2,0.5-0.6,0.8-1,1.1c-3.7,2.7-7.4,5.4-11.1,8 c-0.6,0.4-1.1,1.1-1.8,1.4c0,0-0.1,0.1-0.1,0.1c0,0,0-0.1,0.1-0.1c0,0,0.1,0,0.1,0l-0.1-0.1c0-0.1,0-0.1,0-0.2 c-0.1-2.5,0.5-4.6,2.8-6c1.4-0.9,2.7-2.1,4.2-2.9c1.2-0.6,2.1-1.5,3.1-2.4C34,157.1,34.3,156.6,34.7,156.9"/><path class="st3" d="M34.7,156.9c0.5,0.4,0.1,0.9-0.1,1.3c-0.8,1.3-1.9,2.2-3.1,3.1c-0.2,0.1-0.3,0.3-0.5,0.4c0.4,0.4,0.7,0.1,1,0 c1.7-1,3.5-2,4.8-3.6c0.2-0.2,0.3-0.5,0.6-0.3c0.4,0.2,0.2,0.5,0.1,0.8c-0.2,0.5-0.6,0.8-1,1.1c-3.7,2.7-7.4,5.4-11.1,8 c-0.6,0.4-1.1,1.1-1.8,1.4c0,0-0.1,0.1-0.1,0.1c0,0,0-0.1,0.1-0.1c0,0,0.1,0,0.1,0l-0.1-0.1c0-0.1,0-0.1,0-0.2 c-0.1-2.5,0.5-4.6,2.8-6c1.4-0.9,2.7-2.1,4.2-2.9c1.2-0.6,2.1-1.5,3.1-2.4C34,157.1,34.3,156.6,34.7,156.9z"/><path class="st2" d="M22.2,170.5l0.9-1.7c0,0,0-0.1,0-0.1c0-0.2,0-0.4,0-0.5c0-2.7,1-4.6,3.1-5.9c0.6-0.4,1.1-0.8,1.6-1.2 c0.8-0.6,1.7-1.3,2.6-1.8c1-0.5,1.8-1.2,2.6-2l0.4-0.4c0,0,0.1-0.1,0.1-0.2c0.2-0.2,0.8-0.8,1.5-0.3c0.3,0.2,0.4,0.5,0.4,0.8 c0,0.4-0.2,0.7-0.4,1c-0.3,0.5-0.7,1-1.1,1.4c0.9-0.6,1.7-1.3,2.4-2.1c0.2-0.2,0.6-0.7,1.2-0.4c0.3,0.2,0.5,0.4,0.5,0.8 c0,0.2-0.1,0.4-0.1,0.5c-0.2,0.7-0.7,1.1-1.1,1.4l-2.3,1.7c-3,2.1-5.9,4.3-8.9,6.4c-0.2,0.2-0.4,0.3-0.6,0.5 c-0.4,0.4-0.8,0.7-1.3,0.9l0,0L22.2,170.5z M34.5,157.4c-0.1,0-0.1,0.1-0.2,0.2c-0.1,0.1-0.1,0.2-0.2,0.2l-0.4,0.3 c-0.9,0.8-1.8,1.6-2.8,2.1c-0.9,0.4-1.7,1.1-2.5,1.7c-0.5,0.4-1.1,0.8-1.7,1.2c-1.8,1.1-2.6,2.7-2.6,5.1c0.1-0.1,0.3-0.2,0.4-0.4 c0.2-0.2,0.4-0.4,0.7-0.6c2.5-1.8,5.1-3.6,7.6-5.5c0,0-0.1,0-0.1,0l-0.5,0.3c-0.2,0.2-0.9,0.6-1.5-0.1l-0.4-0.4l0.6-0.4 c0.1-0.1,0.2-0.2,0.3-0.3l0.2-0.1c1.1-0.9,2.1-1.7,2.8-2.8C34.3,157.7,34.5,157.5,34.5,157.4C34.5,157.4,34.5,157.4,34.5,157.4"/><path class="st3" d="M22.2,170.5l0.9-1.7c0,0,0-0.1,0-0.1c0-0.2,0-0.4,0-0.5c0-2.7,1-4.6,3.1-5.9c0.6-0.4,1.1-0.8,1.6-1.2 c0.8-0.6,1.7-1.3,2.6-1.8c1-0.5,1.8-1.2,2.6-2l0.4-0.4c0,0,0.1-0.1,0.1-0.2c0.2-0.2,0.8-0.8,1.5-0.3c0.3,0.2,0.4,0.5,0.4,0.8 c0,0.4-0.2,0.7-0.4,1c-0.3,0.5-0.7,1-1.1,1.4c0.9-0.6,1.7-1.3,2.4-2.1c0.2-0.2,0.6-0.7,1.2-0.4c0.3,0.2,0.5,0.4,0.5,0.8 c0,0.2-0.1,0.4-0.1,0.5c-0.2,0.7-0.7,1.1-1.1,1.4l-2.3,1.7c-3,2.1-5.9,4.3-8.9,6.4c-0.2,0.2-0.4,0.3-0.6,0.5 c-0.4,0.4-0.8,0.7-1.3,0.9l0,0L22.2,170.5z M34.5,157.4c-0.1,0-0.1,0.1-0.2,0.2c-0.1,0.1-0.1,0.2-0.2,0.2l-0.4,0.3 c-0.9,0.8-1.8,1.6-2.8,2.1c-0.9,0.4-1.7,1.1-2.5,1.7c-0.5,0.4-1.1,0.8-1.7,1.2c-1.8,1.1-2.6,2.7-2.6,5.1c0.1-0.1,0.3-0.2,0.4-0.4 c0.2-0.2,0.4-0.4,0.7-0.6c2.5-1.8,5.1-3.6,7.6-5.5c0,0-0.1,0-0.1,0l-0.5,0.3c-0.2,0.2-0.9,0.6-1.5-0.1l-0.4-0.4l0.6-0.4 c0.1-0.1,0.2-0.2,0.3-0.3l0.2-0.1c1.1-0.9,2.1-1.7,2.8-2.8C34.3,157.7,34.5,157.5,34.5,157.4C34.5,157.4,34.5,157.4,34.5,157.4z"/><path class="st2" d="M32.6,156.9c-2.5,1.7-5.1,3.3-7.6,5c-0.1-0.1-0.1-0.1-0.2-0.2c0.4-1.2,0.8-2.5,1.2-3.7 c0.1-0.4,0.5-0.5,0.8-0.6c1.8-0.4,3.5-0.8,5.1-1.7c0.5-0.3,1-0.3,1.3,0.2C33.5,156.5,32.9,156.7,32.6,156.9"/><path class="st3" d="M32.6,156.9c-2.5,1.7-5.1,3.3-7.6,5c-0.1-0.1-0.1-0.1-0.2-0.2c0.4-1.2,0.8-2.5,1.2-3.7 c0.1-0.4,0.5-0.5,0.8-0.6c1.8-0.4,3.5-0.8,5.1-1.7c0.5-0.3,1-0.3,1.3,0.2C33.5,156.5,32.9,156.7,32.6,156.9z"/><path class="st2" d="M24.2,162l0-0.4l0.3-1c0.3-0.9,0.6-1.8,0.9-2.7c0.2-0.7,0.8-0.8,1.2-0.9c1.6-0.4,3.4-0.8,4.9-1.7 c0.8-0.4,1.6-0.3,2,0.4c0.1,0.2,0.2,0.4,0.2,0.6c0,0.5-0.5,0.8-0.8,1l-0.1,0.1c-1.9,1.3-3.9,2.5-5.8,3.8l-2.1,1.4L24.2,162z M32.8,156.2c-0.2-0.2-0.5-0.1-0.7,0c-1.7,0.9-3.6,1.4-5.2,1.8c-0.4,0.1-0.4,0.1-0.5,0.2c-0.3,0.9-0.6,1.8-0.9,2.7l0,0.1l1-0.6 c1.9-1.3,3.9-2.5,5.8-3.8c0.1,0,0.1-0.1,0.2-0.1C32.6,156.4,32.7,156.3,32.8,156.2"/><path class="st3" d="M24.2,162l0-0.4l0.3-1c0.3-0.9,0.6-1.8,0.9-2.7c0.2-0.7,0.8-0.8,1.2-0.9c1.6-0.4,3.4-0.8,4.9-1.7 c0.8-0.4,1.6-0.3,2,0.4c0.1,0.2,0.2,0.4,0.2,0.6c0,0.5-0.5,0.8-0.8,1l-0.1,0.1c-1.9,1.3-3.9,2.5-5.8,3.8l-2.1,1.4L24.2,162z M32.8,156.2c-0.2-0.2-0.5-0.1-0.7,0c-1.7,0.9-3.6,1.4-5.2,1.8c-0.4,0.1-0.4,0.1-0.5,0.2c-0.3,0.9-0.6,1.8-0.9,2.7l0,0.1l1-0.6 c1.9-1.3,3.9-2.5,5.8-3.8c0.1,0,0.1-0.1,0.2-0.1C32.6,156.4,32.7,156.3,32.8,156.2z"/><path class="st4" d="M49.8,152.2c-2.4,2.6-5.4,3.9-8.9,4c-2.6,0-5-0.5-7.4-1.6c-0.8-0.3-1.3-0.3-2.1,0c-3.2,1.3-6.6,1.9-10,1 c-2.1-0.6-3.9-1.6-5.4-3.2c-0.2-0.2-0.8-0.5-0.3-0.9c0.4-0.3,0.7-0.9,1.5-0.5c1.7,1.1,3.7,1.7,5.6,2.1c3.4,0.6,6.6,0.1,9.6-1.5 c0.6-0.4,1.1-0.3,1.7,0c3.9,1.9,7.9,2.6,12.2,1.2c0.9-0.3,1.9-0.7,2.7-1.3c0.3-0.2,0.6-0.4,0.9,0C50.3,151.8,50,152,49.8,152.2"/><path class="st4" d="M48.8,148.4c0-1.8,1.3-3.2,3-3.3c1.7-0.1,3.2,1.4,3.2,3.2c0,1.7-1.4,3.2-3.1,3.2 C50.2,151.5,48.9,150.2,48.8,148.4"/><path class="st4" d="M47.8,149.8c0.3-0.1,0.5-0.5,0.8,0c0.3,0.5,0,0.6-0.4,0.8c-1.8,1.1-3.8,1.6-6,1.7c-2.9,0-5.7-0.7-8.2-2.1 c-0.5-0.3-0.9-0.3-1.4,0c-4.5,2.8-9.1,2.5-13.8,0.4c-0.4-0.2-0.8-0.3-1.1-0.6c-0.2-0.1-0.8,0.4-0.5-0.4c0.2-0.5,0.3-0.6,0.9-0.4 c1.3,0.6,2.8,0.9,4.2,1.1c3.7,0.4,7.1-0.6,10-2.8c0.7-0.5,1-0.5,1.7,0c2.9,1.9,6,3.2,9.6,3.1C45.1,150.7,46.5,150.4,47.8,149.8"/><path class="st4" d="M51.5,149.1c-0.6-1.1-0.2-2,1.1-2.2c0.3,0,0.6,0.1,0.9-0.3c-1.1-0.8-2.6-0.6-3.3,0.4c-0.6,0.9-0.4,1.9,0.6,2.6 c0.3,0.2,0.6,0.5,0.9,0.2C52,149.7,51.6,149.4,51.5,149.1"/><path class="st4" d="M33.3,190.4c3.2,0,5.9,2.5,5.9,5.6c0,3.1-2.6,5.6-5.9,5.6c-3.2,0-5.9-2.5-5.9-5.6 C27.5,192.9,30.1,190.4,33.3,190.4"/><path class="st4" d="M33.5,202c1.8,0,3.3,1.4,3.3,3.2c0,1.8-1.5,3.2-3.3,3.2c-1.8,0-3.3-1.4-3.3-3.2C30.2,203.4,31.7,202,33.5,202"/><path class="st0" d="M40.1,181.7C40,181.7,40,181.7,40.1,181.7C40,181.7,40,181.7,40.1,181.7z M13.7,149.1c-0.5-1-0.1-1.9,1-2.1 c0.3-0.1,0.7,0.1,1-0.2c-1.1-0.8-2.6-0.6-3.3,0.4c-0.6,0.8-0.4,1.8,0.5,2.5c0.3,0.2,0.7,0.6,1,0.4 C14.2,149.8,13.9,149.4,13.7,149.1 M41.5,149.1c0,0,3.8,0.9,6.3-0.9c0.1-1.1,1.5-6,5.9-4.3c3.2,1.5,4.1,5.4,0.7,8.2 c-2.1,0.6-3.2,0.2-3.2,0.2s-2.3,4.9-11.1,4.8c3.2,7.2,3.7,18.6,1.9,25.3c-1.8,6.6-3.8,9.1-3.8,9.1s2.9,2.6,1.1,7.4 c0,0-0.9,1.7-3.3,2.9l0,0.2c0,0,3,2.7,0.6,5.6c-2.4,3-6.7,0.5-6.9-2c-0.2-2.5,1.6-3.5,1.7-3.5c0.1,0,0-0.5,0-0.5s-4-1-4.2-4.9 c-0.2-3.9,1.2-4,1.2-4s-5.6-5.5-6.1-19.2c0.3-12,2.5-16.3,2.5-16.3s-6.1,0-9.6-4.4c-4.5,0-5.9-3.5-4.9-6c0.9-2.5,4-3.6,5.6-2.8 c1.6,0.8,2.8,2.1,3,4c2.7,1.1,5.4,1.4,6.5,1.1c0-9.7,2-112.9,2-112.9L35,22.6l7,13.8L41.5,149.1z M33.7,204.4 c-0.7-0.5-1.3-0.3-1.7,0.3c-0.5,0.7-0.2,1.4,0.7,1.8C32.4,204.9,32.4,204.9,33.7,204.4 M35.9,27c-0.3,0.2-0.2,0.5-0.2,0.7 c-0.1,4.1-0.1,8.2-0.1,12.3c-0.1,10.2-0.3,20.4-0.4,30.6c-0.1,9.7-0.2,19.3-0.3,29c-0.1,7.4-0.2,14.8-0.3,22.1 c-0.1,7.7-0.2,15.4-0.3,23.1c0,0.5,0,0.9,0.5,1.1c1.5,0.9,3,1.7,4.5,2.6c0.1,0.2,0.3,0.2,0.5,0.1c0.1,0,0.1,0,0.2,0 c0-1.7,0.1-3.4,0.1-5.1c0.1-9.9,0.2-19.7,0.3-29.6c0.1-10.4,0.2-20.8,0.3-31.2c0.1-7.6,0.2-15.3,0.2-22.9c0.1-5.4,0-10.8,0.2-16.2 c0.1-3.5,0-6.9-1.9-10c-0.8-1.3-1.3-2.7-1.9-4C36.7,28.7,36.3,27.9,35.9,27 M26.3,148.6c2.1-0.3,4.1-1,5.8-2.4 c0.4-0.3,0.6-0.7,0.6-1.2c0-2.5,0.1-4.9,0.1-7.4c0.1-6.6,0.3-13.2,0.4-19.7c0.2-8.6,0.3-17.2,0.4-25.7c0.1-6,0.2-12,0.3-18 c0.2-9.6,0.3-19.3,0.5-28.9c0.1-3.1,0.2-6.2,0.1-9.3c0-3-0.1-5.9-0.2-8.8c0,0-0.1,0.1-0.2,0.3c-1.7,3-3.5,6.1-5.2,9.1 c-0.3,0.6-0.4,1.2-0.4,1.8c0,1.5-0.1,3.1-0.1,4.6C28.2,51.9,28,61,27.8,70c-0.1,6.3-0.2,12.6-0.4,19c-0.2,7.6-0.3,15.1-0.5,22.7 c-0.2,10.4-0.4,20.8-0.6,31.2c0,1.7-0.1,3.4-0.2,5.1C26.2,148.2,26,148.5,26.3,148.6 M14.5,151.7c1.6-0.1,3-1.6,3-3.3 c0-1.7-1.5-3.2-3.2-3.1c-1.7,0.1-3.1,1.6-3,3.3C11.3,150.3,12.8,151.8,14.5,151.7 M36.9,197.5c0-0.1,0-0.3-0.1-0.4 c-0.2-0.3-0.5-0.6-0.9-0.5c-0.6,0.1-0.1,0.5-0.1,0.8c0.1,0.7-0.3,1.1-0.9,1.3c-0.2,0.1-0.4,0-0.4,0.3c0,0.2,0.2,0.3,0.5,0.4 C35.8,199.4,36.9,198.5,36.9,197.5 M32.6,196.2c-0.3-0.8,0.2-1.1,0.7-1.4c0.2-0.1,0.6,0,0.5-0.4c-0.1-0.3-0.4-0.3-0.7-0.3 c-0.7,0-1.4,0.5-1.6,1.1c-0.1,0.5-0.1,1,0.3,1.4c0.2,0.2,0.5,0.3,0.7,0.2C32.8,196.6,32.7,196.4,32.6,196.2 M31.4,192.8 c-1.4,0.6-1.9,1.7-2,3.1c-0.1,1.3,0.2,2.4,1.5,3.3c0.1-0.6-0.1-1-0.3-1.4c-0.4-1.2-0.4-2.3,0.4-3.3c0.8-1,1.8-1.2,3-1.1 c0.3,0,0.7,0.2,0.8-0.3c0-0.4-0.3-0.5-0.7-0.6C33.2,192.3,32.3,192.4,31.4,192.8 M39.4,184.9c-2,1.4-4.2,2.5-6.2,4 c-0.5,0.4-0.3,0.6,0.2,0.7c1,0.2,1.9,0.3,2.9,0.7c0.7,0.3,1.5-0.1,1.7-0.8c0.1-0.4,0-0.6-0.5-0.4c-0.4,0.2-0.9,0.5-1.5,0.1 c0.9-0.6,1.8-1.3,2.6-1.8c0.8-0.5,1-1.3,1.2-2.1C39.9,185,39.8,184.6,39.4,184.9 M36.5,183.1c1.7-1.9,3.9-3.4,4.9-6.1 c-0.6,0.1-0.9,0.5-1.2,0.7c-1.1,0.8-2.1,1.7-3.3,2.4c-3.1,2-5.9,4.2-8.3,6.9c-1.1,1.2-1.4,2.1-0.5,3.5c0.5,0.8,0.7,0.9,1.4,0.2 c0.9-0.8,1.7-1.7,2.6-2.5c2-1.7,4.4-3,6.4-4.8c0.6-0.5,1.4-0.9,1.5-1.8h0c0-0.1,0-0.1,0.1-0.2c0,0-0.1,0.1-0.1,0.1 c-0.6,0.3-1.1,0.7-1.7,1C37.2,183.3,37.2,183.3,36.5,183.1 M40.2,172.3c-1.9,1.6-3.9,3-6,4.3c-2.7,1.7-5.2,3.5-7.5,5.7 c-1.4,1.3-1.7,2.6-0.7,4.3c0.4,0.7,0.6,0.8,1.1,0.2c0.8-0.9,1.6-1.8,2.4-2.7c2.5-2.5,5.7-4.2,8.5-6.4c1.1-0.8,2.3-1.4,2.9-2.8 c-0.1-0.1-0.1-0.1-0.2-0.2c-1.6,1-2.9,2.4-4.9,3c1.7-1.8,3.8-3.3,4.8-5.7C40.4,172,40.3,172.2,40.2,172.3 M34.4,172.1 c2.2-2.2,5-4,6.4-7.1c-0.3,0.1-0.5,0.1-0.5,0.2c-1.7,1.7-3.6,3.1-5.7,4.4c-3.5,2.1-7.1,4.1-9.9,7.2c-0.5,0.6-0.8,1.1-0.7,1.9 c0.1,0.8,0.2,1.6,0.4,2.4c0.1,0.3,0,0.8,0.4,1c0.4,0.2,0.6-0.3,0.9-0.5c2.8-2.8,6.1-5,9.5-7.1c2-1.2,3.6-2.8,5.4-4.3 c0.2-0.2,0.4-0.4,0.5-0.6c0.2-0.3,0.2-0.7-0.1-0.9c-0.2-0.2-0.4,0.1-0.6,0.3c-1.5,1.1-2.9,2.3-4.5,3.2 C35.3,172.3,34.9,172.5,34.4,172.1 M39.1,159.9c-0.5,0.3-0.9,0.6-1.4,0.9c-1.6,1.1-3.1,2.3-4.7,3.4c-2.9,1.9-5.7,3.8-8.4,6 c-0.6,0.5-1,1-1,1.8c0,0.9,0,1.9,0.1,2.8c0,0.6,0.2,0.7,0.7,0.3c4-3.4,8.6-6,12.7-9.3c1.1-0.9,2.6-1.6,2.9-3.2c0,0-0.1-0.1-0.1-0.1 c0,0,0.1,0.1,0.1,0.1c0.1-0.1,0.2-0.1,0-0.2c0,0-0.1,0.1-0.1,0.1c-0.3,0-0.5,0.3-0.7,0.5c-1.2,1-2.4,2.1-3.8,2.8 c-0.5,0.2-0.9,0.5-1.5,0.3c0.1-0.4,0.4-0.6,0.7-0.8c1.3-1.2,2.6-2.4,3.9-3.5c0.5-0.4,0.8-0.9,1-1.5 C39.7,159.9,39.4,159.7,39.1,159.9 M34.1,157.4c-1,0.9-1.9,1.8-3.1,2.4c-1.6,0.8-2.8,2-4.2,2.9c-2.3,1.5-2.9,3.5-2.8,6 c0,0.1,0,0.1,0,0.2L24,169L24,169c0,0,0,0.1-0.1,0.1c0,0,0.1-0.1,0.1-0.1c0.7-0.3,1.2-1,1.8-1.4c3.7-2.7,7.4-5.3,11.1-8 c0.4-0.3,0.9-0.6,1-1.1c0.1-0.3,0.2-0.6-0.1-0.8c-0.3-0.1-0.5,0.1-0.6,0.3c-1.3,1.6-3.1,2.5-4.8,3.6c-0.3,0.2-0.6,0.5-1,0 c0.2-0.1,0.4-0.3,0.5-0.4c1.2-0.9,2.3-1.8,3.1-3.1c0.2-0.4,0.6-0.9,0.1-1.3C34.7,156.6,34.4,157.1,34.1,157.4 M33.5,156 c-0.3-0.4-0.8-0.4-1.3-0.2c-1.6,0.9-3.3,1.3-5.1,1.7c-0.4,0.1-0.7,0.2-0.8,0.6c-0.4,1.2-0.8,2.5-1.2,3.7c0.1,0.1,0.1,0.1,0.2,0.2 c2.5-1.7,5.1-3.3,7.6-5C33.3,156.7,33.9,156.5,33.5,156 M50.3,151.4c-0.3-0.4-0.6-0.2-0.9,0c-0.8,0.6-1.7,1-2.7,1.3 c-4.2,1.4-8.3,0.7-12.2-1.2c-0.6-0.3-1.1-0.3-1.7,0c-3,1.7-6.2,2.2-9.6,1.5c-2-0.4-3.9-1-5.6-2.1c-0.8-0.5-1.1,0.2-1.5,0.5 c-0.5,0.4,0.1,0.7,0.3,0.9c1.4,1.6,3.3,2.7,5.4,3.2c3.5,0.9,6.8,0.3,10-1c0.7-0.3,1.3-0.3,2.1,0c2.3,1.1,4.8,1.6,7.4,1.6 c3.5-0.2,6.5-1.4,8.9-4C50.4,152,50.7,151.8,50.3,151.4 M52.3,151.5c1.7,0,3.1-1.5,3.1-3.2c0-1.8-1.5-3.2-3.2-3.2 c-1.7,0.1-3,1.5-3,3.3C49.2,150.2,50.6,151.5,52.3,151.5 M44,150.8c-3.6,0.1-6.7-1.2-9.6-3.1c-0.6-0.4-1-0.5-1.7,0 c-2.9,2.2-6.3,3.2-10,2.8c-1.5-0.2-2.9-0.5-4.2-1.1c-0.5-0.2-0.7-0.1-0.9,0.4c-0.3,0.8,0.4,0.2,0.5,0.4c0.3,0.2,0.7,0.4,1.1,0.6 c4.7,2.1,9.3,2.3,13.8-0.4c0.5-0.3,0.9-0.3,1.4,0c2.6,1.4,5.3,2.1,8.2,2.1c2.1,0,4.1-0.6,6-1.7c0.3-0.2,0.6-0.4,0.4-0.8 c-0.3-0.5-0.6-0.2-0.8,0C46.9,150.4,45.5,150.7,44,150.8 M51.9,149.1c-0.6-1.1-0.2-2,1.1-2.2c0.3,0,0.6,0.1,0.9-0.3 c-1.1-0.8-2.6-0.6-3.3,0.4c-0.6,0.9-0.4,1.9,0.6,2.6c0.3,0.2,0.6,0.5,0.9,0.2C52.4,149.7,52,149.4,51.9,149.1 M30.7,205.2 c0,1.5,1.3,2.7,2.8,2.7c1.5,0,2.8-1.2,2.8-2.7s-1.3-2.7-2.8-2.7C31.9,202.5,30.7,203.7,30.7,205.2 M28.1,196.1 c0,2.9,2.4,5.2,5.3,5.2s5.3-2.3,5.3-5.2c0-2.9-2.4-5.2-5.3-5.2S28.1,193.3,28.1,196.1"/><path class="st2" d="M98.7,48.8C98.7,48.8,98.7,48.8,98.7,48.8C98.7,48.8,98.7,48.8,98.7,48.8z"/><path class="st3" d="M98.7,48.8C98.7,48.8,98.7,48.8,98.7,48.8C98.7,48.8,98.7,48.8,98.7,48.8z"/><polygon class="st2" points="99.1,48.5 98.4,49.2 98.3,49.1 99,48.4"/><polygon class="st3" points="99.1,48.5 98.4,49.2 98.3,49.1 99,48.4"/><path class="st4" d="M125,81.4c0.5,1,0.1,1.9-1,2.1c-0.3,0.1-0.7-0.1-1,0.2c1.1,0.8,2.6,0.6,3.3-0.4c0.6-0.8,0.4-1.8-0.5-2.5 c-0.3-0.2-0.7-0.6-1-0.4C124.5,80.7,124.9,81.1,125,81.4"/><path class="st4" d="M106.1,24c0.9,0.5,1.2,1.1,0.7,1.8c-0.4,0.6-1,0.8-1.7,0.3C106.3,25.6,106.3,25.6,106.1,24"/><path class="st5" d="M101.7,200.9c-0.6-1.4-1.1-2.8-1.9-4c-1.9-3.1-2-6.5-1.9-10c0.1-5.4,0.1-10.8,0.2-16.2 c0.1-7.6,0.2-15.3,0.2-22.9c0.1-10.4,0.2-20.8,0.3-31.2c0.1-9.8,0.2-19.7,0.3-29.6c0-1.7,0.1-3.4,0.1-5.1c0.1,0,0.1,0,0.2,0 c0.2,0,0.3,0,0.5,0.1c1.5,0.9,3,1.7,4.5,2.6c0.4,0.3,0.5,0.7,0.5,1.1c-0.1,7.7-0.2,15.4-0.3,23.1c-0.1,7.4-0.2,14.8-0.3,22.1 c-0.1,9.7-0.2,19.3-0.3,29c-0.1,10.2-0.3,20.4-0.4,30.6c-0.1,4.1-0.1,8.2-0.1,12.3c0,0.2,0.1,0.4-0.2,0.7 C102.5,202.7,102.1,201.8,101.7,200.9"/><path class="st5" d="M105.1,85.6L105.1,85.6c-0.1,4.5-0.1,8.9-0.2,13.2l-0.1,10c0,3.6-0.1,7.3-0.1,10.9c-0.1,3.7-0.1,7.5-0.1,11.2 c-0.1,4.1-0.1,8.2-0.1,12.3c-0.1,5.6-0.1,11.1-0.2,16.7c-0.1,5.9-0.2,11.9-0.2,17.8l-0.2,12.8c0,2.3-0.1,4.5-0.1,6.8 c0,1.8,0,3.7-0.1,5.5c0,0.1,0,0.2,0,0.2c0,0.3-0.1,0.6-0.4,0.8l-0.5,0.4l-1.5-3.2c-0.2-0.4-0.4-0.9-0.6-1.3 c-0.4-0.9-0.8-1.9-1.3-2.7c-1.7-2.9-2-5.9-2-8.7c0-0.5,0-1,0-1.6c0.1-3.7,0.1-7.4,0.1-11.1c0-1.7,0-3.4,0-5.2l0.1-10.2 c0-4.2,0.1-8.5,0.1-12.7l0.3-31.2c0.1-9.8,0.2-19.7,0.3-29.6c0-1.2,0-2.3,0.1-3.5l0-2l0.6-0.1c0.4-0.1,0.7,0.1,0.9,0.2l4.4,2.5 C105,84.5,105.1,85.1,105.1,85.6 M102.6,201.8c0-1.5,0-3,0-4.4c0-2.3,0-4.5,0.1-6.8l0.2-12.8c0.1-5.9,0.2-11.9,0.2-17.8 c0.1-5.6,0.1-11.1,0.2-16.7c0-4.1,0.1-8.2,0.1-12.3c0-3.7,0.1-7.5,0.1-11.2c0-3.6,0.1-7.3,0.1-10.9l0.1-10 c0.1-4.4,0.1-8.8,0.2-13.2l0.5-0.1h-0.5c0-0.4-0.1-0.6-0.2-0.7l-4.4-2.5l0,1c0,1.2-0.1,2.3-0.1,3.5c-0.1,9.9-0.2,19.7-0.3,29.6 l-0.3,31.2c0,4.2-0.1,8.5-0.1,12.7l-0.1,10.2c0,1.7,0,3.4,0,5.2c0,3.6,0,7.4-0.1,11.1c0,0.5,0,1,0,1.5c0,2.7,0.2,5.5,1.8,8.2 c0.5,0.9,1,1.9,1.4,2.8c0.2,0.4,0.4,0.9,0.6,1.3L102.6,201.8z"/><path class="st5" d="M112.6,82.6c-0.1,1.7-0.2,3.4-0.2,5.1c-0.2,10.4-0.4,20.8-0.6,31.2c-0.2,7.6-0.3,15.1-0.5,22.7 c-0.1,6.3-0.3,12.6-0.4,19c-0.2,9-0.4,18.1-0.6,27.2c0,1.5-0.1,3-0.1,4.6c0,0.6-0.1,1.2-0.4,1.8c-1.7,3-3.5,6.1-5.2,9.1 c-0.1,0.1-0.2,0.3-0.2,0.3c-0.1-2.9-0.2-5.9-0.2-8.8c0-3.1,0.1-6.2,0.2-9.3c0.2-9.6,0.3-19.3,0.5-28.9c0.1-6,0.2-12,0.3-18 c0.1-8.6,0.3-17.2,0.4-25.7c0.1-6.6,0.2-13.2,0.4-19.7c0-2.5,0.1-4.9,0.1-7.4c0-0.5,0.2-0.9,0.6-1.2c1.7-1.4,3.6-2.1,5.8-2.4 C112.7,82,112.6,82.3,112.6,82.6"/><path class="st5" d="M113.1,82.5l-0.1,1.7c0,1.2-0.1,2.3-0.1,3.5c-0.1,4.8-0.2,9.6-0.3,14.4c-0.1,5.6-0.2,11.2-0.3,16.7 c-0.1,4.4-0.2,8.7-0.3,13.1c-0.1,3.2-0.1,6.4-0.2,9.6c-0.1,3.3-0.1,6.6-0.2,9.9c-0.1,3-0.1,6.1-0.2,9.1l-0.1,4.2 c-0.2,7.7-0.3,15.3-0.5,23l0,1.2c0,1-0.1,2-0.1,3.1v0.3v0c0,0.8-0.2,1.5-0.5,2c-1,1.8-2.1,3.7-3.1,5.5l-2.1,3.6 c-0.3,0.6-0.6,0.5-0.8,0.5l-0.4-0.1l0-0.4c0-0.9-0.1-1.8-0.1-2.7c-0.1-2-0.1-4.1-0.1-6.2l0-0.5c0-2,0-4,0.1-5.9c0-1,0-1.9,0.1-2.9 l0.1-8.1c0.1-6.9,0.2-13.9,0.4-20.8c0.1-3.2,0.1-6.3,0.1-9.5c0-2.8,0.1-5.7,0.1-8.5c0.1-8.6,0.3-17.2,0.4-25.7 c0.1-5.3,0.2-10.5,0.3-15.8l0.1-6.5c0-1.6,0.1-3.2,0.1-4.9c0-0.6,0.2-1.1,0.8-1.6c1.6-1.4,3.6-2.2,6-2.6l0.2,0l0.2,0.1 c0.4,0.2,0.4,0.7,0.4,0.8L113.1,82.5L113.1,82.5z M109.8,191.9c0-1,0-2.1,0.1-3.1l0-1.2c0.2-7.7,0.4-15.3,0.5-23l0.1-4.2 c0.1-3,0.1-6.1,0.2-9.1c0.1-3.3,0.1-6.6,0.2-9.9c0.1-3.2,0.1-6.4,0.2-9.6c0.1-4.4,0.2-8.7,0.3-13.1c0.1-5.6,0.2-11.2,0.3-16.7 c0.1-4.8,0.2-9.6,0.3-14.4c0-1.2,0.1-2.3,0.1-3.5l0.1-1.6c0-0.1,0-0.1,0-0.2c-2.1,0.4-3.8,1.1-5.1,2.3c-0.3,0.3-0.4,0.5-0.4,0.9 c0,1.6-0.1,3.3-0.1,4.9l-0.1,6.5c-0.1,5.3-0.2,10.5-0.3,15.8c-0.2,8.6-0.3,17.2-0.4,25.7c0,2.8-0.1,5.7-0.1,8.5 c0,3.2-0.1,6.3-0.1,9.5c-0.1,6.9-0.2,13.9-0.4,20.8l-0.1,8.1c0,1,0,1.9-0.1,2.9c0,1.9-0.1,3.9-0.1,5.9l0,0.5c0,2.1,0.1,4.1,0.1,6.2 c0,0.3,0,0.6,0,1l1.4-2.4c1-1.8,2.1-3.7,3.1-5.5c0.2-0.4,0.4-0.9,0.4-1.5V191.9z"/><path class="st4" d="M127.5,82c0,1.7-1.4,3.2-3,3.3c-1.6,0.1-3.1-1.4-3.2-3.1c0-1.7,1.3-3.3,3-3.3C126,78.8,127.5,80.2,127.5,82"/><path class="st4" d="M103.8,31.2c0.2,0,0.4,0.1,0.5,0.4c0,0.3-0.2,0.2-0.4,0.3c-0.6,0.2-1,0.6-0.9,1.3c0,0.3,0.5,0.6-0.1,0.8 c-0.4,0.1-0.7-0.2-0.9-0.5c-0.1-0.1-0.1-0.3-0.1-0.4C101.8,32,102.9,31.1,103.8,31.2"/><path class="st4" d="M106.2,33.8c0.2-0.1,0.5,0,0.7,0.2c0.5,0.4,0.5,0.9,0.3,1.4c-0.1,0.6-0.9,1.1-1.6,1.1c-0.3,0-0.6,0-0.7-0.3 c-0.1-0.4,0.3-0.3,0.5-0.4c0.6-0.3,1-0.7,0.7-1.4C106.1,34.1,106,33.9,106.2,33.8"/><path class="st4" d="M104.6,38c-0.3-0.1-0.7-0.2-0.7-0.6c0-0.5,0.5-0.3,0.8-0.3c1.2,0.1,2.3-0.1,3-1.1c0.8-1,0.8-2.1,0.4-3.3 c-0.1-0.4-0.4-0.8-0.3-1.4c1.3,0.8,1.6,2,1.5,3.3c-0.1,1.4-0.6,2.5-2,3.1C106.5,38.1,105.5,38.2,104.6,38"/><path class="st2" d="M99,45.2c0.2-0.8,0.4-1.6,1.2-2.1c0.9-0.5,1.7-1.1,2.6-1.8c-0.6-0.4-1.1-0.1-1.5,0.1c-0.5,0.2-0.6,0-0.5-0.4 c0.2-0.8,0.9-1.1,1.7-0.8c0.9,0.4,1.9,0.5,2.9,0.7c0.6,0.1,0.8,0.3,0.2,0.7c-1.9,1.5-4.1,2.6-6.2,4C98.9,45.9,98.9,45.5,99,45.2"/><path class="st3" d="M99,45.2c0.2-0.8,0.4-1.6,1.2-2.1c0.9-0.5,1.7-1.1,2.6-1.8c-0.6-0.4-1.1-0.1-1.5,0.1c-0.5,0.2-0.6,0-0.5-0.4 c0.2-0.8,0.9-1.1,1.7-0.8c0.9,0.4,1.9,0.5,2.9,0.7c0.6,0.1,0.8,0.3,0.2,0.7c-1.9,1.5-4.1,2.6-6.2,4C98.9,45.9,98.9,45.5,99,45.2z"/><path class="st2" d="M106.3,41.3c0,0.4-0.3,0.6-0.5,0.8c-1.2,1-2.5,1.7-3.8,2.5c-0.8,0.5-1.6,1-2.4,1.5c-0.4,0.3-0.7,0.2-0.8,0.1 c-0.3-0.2-0.5-0.6-0.3-1.1l0.1-0.2c0.2-0.8,0.4-1.6,1.4-2.2c0.3-0.2,0.7-0.4,1-0.7c-0.1,0-0.3,0-0.4-0.1c-0.1-0.1-0.4-0.4-0.3-1 c0.1-0.5,0.4-0.9,0.9-1.2c0.4-0.2,1-0.2,1.5,0c0.7,0.3,1.4,0.4,2.2,0.6l0.5,0.1C106,40.6,106.3,40.9,106.3,41.3 M99.6,44.9 c0.7-0.4,1.3-0.8,2-1.2c1.2-0.7,2.4-1.5,3.6-2.3l-0.4-0.1c-0.5-0.1-1-0.2-1.5-0.3l0.5,0.3l-0.6,0.4c-0.3,0.2-0.6,0.4-0.8,0.6 c-0.6,0.4-1.2,0.8-1.8,1.2C99.9,43.8,99.7,44.3,99.6,44.9 M101.4,40.9c0.2-0.1,0.5-0.2,0.8-0.2c-0.2-0.1-0.4-0.1-0.6,0 C101.5,40.7,101.4,40.8,101.4,40.9"/><path class="st3" d="M106.3,41.3c0,0.4-0.3,0.6-0.5,0.8c-1.2,1-2.5,1.7-3.8,2.5c-0.8,0.5-1.6,1-2.4,1.5c-0.4,0.3-0.7,0.2-0.8,0.1 c-0.3-0.2-0.5-0.6-0.3-1.1l0.1-0.2c0.2-0.8,0.4-1.6,1.4-2.2c0.3-0.2,0.7-0.4,1-0.7c-0.1,0-0.3,0-0.4-0.1c-0.1-0.1-0.4-0.4-0.3-1 c0.1-0.5,0.4-0.9,0.9-1.2c0.4-0.2,1-0.2,1.5,0c0.7,0.3,1.4,0.4,2.2,0.6l0.5,0.1C106,40.6,106.3,40.9,106.3,41.3z M99.6,44.9 c0.7-0.4,1.3-0.8,2-1.2c1.2-0.7,2.4-1.5,3.6-2.3l-0.4-0.1c-0.5-0.1-1-0.2-1.5-0.3l0.5,0.3l-0.6,0.4c-0.3,0.2-0.6,0.4-0.8,0.6 c-0.6,0.4-1.2,0.8-1.8,1.2C99.9,43.8,99.7,44.3,99.6,44.9z M101.4,40.9c0.2-0.1,0.5-0.2,0.8-0.2c-0.2-0.1-0.4-0.1-0.6,0 C101.5,40.7,101.4,40.8,101.4,40.9z"/><path class="st2" d="M100.5,47.9c-0.6,0.3-1.1,0.7-1.7,1c0,0-0.1,0.1-0.1,0.1c0-0.1,0-0.1,0.1-0.2v0c0.1-0.9,0.9-1.3,1.5-1.8 c2-1.8,4.4-3,6.4-4.8c0.9-0.8,1.8-1.6,2.6-2.5c0.7-0.7,0.9-0.6,1.4,0.2c0.9,1.4,0.6,2.3-0.5,3.5c-2.5,2.7-5.3,4.9-8.3,6.9 c-1.1,0.7-2.2,1.6-3.3,2.4c-0.3,0.2-0.6,0.6-1.2,0.7c1-2.6,3.1-4.2,4.9-6.1C101.5,47.2,101.5,47.2,100.5,47.9"/><path class="st3" d="M100.5,47.9c-0.6,0.3-1.1,0.7-1.7,1c0,0-0.1,0.1-0.1,0.1c0-0.1,0-0.1,0.1-0.2v0c0.1-0.9,0.9-1.3,1.5-1.8 c2-1.8,4.4-3,6.4-4.8c0.9-0.8,1.8-1.6,2.6-2.5c0.7-0.7,0.9-0.6,1.4,0.2c0.9,1.4,0.6,2.3-0.5,3.5c-2.5,2.7-5.3,4.9-8.3,6.9 c-1.1,0.7-2.2,1.6-3.3,2.4c-0.3,0.2-0.6,0.6-1.2,0.7c1-2.6,3.1-4.2,4.9-6.1C101.5,47.2,101.5,47.2,100.5,47.9z"/><path class="st2" d="M111.6,41.4c0,1-0.6,1.8-1.1,2.4c-2.3,2.5-5.1,4.8-8.4,7c-0.7,0.5-1.5,1-2.2,1.6c-0.4,0.3-0.7,0.5-1.1,0.8 c-0.1,0.1-0.1,0.1-0.2,0.2c-0.3,0.2-0.6,0.5-1.2,0.7l-0.9,0.2l0.3-0.8c0.8-2.1,2.2-3.5,3.6-4.9c0,0,0.1-0.1,0.1-0.1L97.8,50 l0.4-1.4c0.1-0.8,0.7-1.3,1.2-1.7c0.1-0.1,0.3-0.2,0.4-0.3c1.1-1,2.3-1.8,3.4-2.6c1-0.7,2-1.4,3-2.2c0.7-0.6,1.3-1.2,1.9-1.8 l0.6-0.6c0.4-0.4,0.7-0.7,1.2-0.6c0.5,0,0.8,0.5,1,0.9C111.5,40.3,111.6,40.8,111.6,41.4 M98.6,52.1c0.2-0.2,0.4-0.3,0.7-0.5 c0.7-0.6,1.5-1.1,2.2-1.6c3.3-2.1,6-4.3,8.2-6.8c1.1-1.2,1.2-1.8,0.5-2.9c-0.1-0.1-0.2-0.3-0.3-0.4c-0.1,0-0.2,0.1-0.4,0.3 l-0.6,0.6c-0.6,0.6-1.3,1.3-2,1.9c-1,0.8-2,1.6-3.1,2.3c-1,0.7-2.1,1.4-3,2.2c0.6-0.3,0.9-0.3,1.5-0.1l0.8,0.2l-0.5,0.6 c-0.4,0.5-0.9,0.9-1.4,1.4C100.3,50.1,99.3,51,98.6,52.1"/><path class="st3" d="M111.6,41.4c0,1-0.6,1.8-1.1,2.4c-2.3,2.5-5.1,4.8-8.4,7c-0.7,0.5-1.5,1-2.2,1.6c-0.4,0.3-0.7,0.5-1.1,0.8 c-0.1,0.1-0.1,0.1-0.2,0.2c-0.3,0.2-0.6,0.5-1.2,0.7l-0.9,0.2l0.3-0.8c0.8-2.1,2.2-3.5,3.6-4.9c0,0,0.1-0.1,0.1-0.1L97.8,50 l0.4-1.4c0.1-0.8,0.7-1.3,1.2-1.7c0.1-0.1,0.3-0.2,0.4-0.3c1.1-1,2.3-1.8,3.4-2.6c1-0.7,2-1.4,3-2.2c0.7-0.6,1.3-1.2,1.9-1.8 l0.6-0.6c0.4-0.4,0.7-0.7,1.2-0.6c0.5,0,0.8,0.5,1,0.9C111.5,40.3,111.6,40.8,111.6,41.4z M98.6,52.1c0.2-0.2,0.4-0.3,0.7-0.5 c0.7-0.6,1.5-1.1,2.2-1.6c3.3-2.1,6-4.3,8.2-6.8c1.1-1.2,1.2-1.8,0.5-2.9c-0.1-0.1-0.2-0.3-0.3-0.4c-0.1,0-0.2,0.1-0.4,0.3 l-0.6,0.6c-0.6,0.6-1.3,1.3-2,1.9c-1,0.8-2,1.6-3.1,2.3c-1,0.7-2.1,1.4-3,2.2c0.6-0.3,0.9-0.3,1.5-0.1l0.8,0.2l-0.5,0.6 c-0.4,0.5-0.9,0.9-1.4,1.4C100.3,50.1,99.3,51,98.6,52.1z"/><path class="st2" d="M98,58.4c1-2.4,3.1-3.9,4.8-5.7c-1.9,0.5-3.3,2-4.9,3c-0.1-0.1-0.1-0.1-0.2-0.2c0.6-1.3,1.8-2,2.9-2.8 c2.8-2.2,6-3.9,8.5-6.4c0.9-0.9,1.7-1.7,2.4-2.7c0.5-0.7,0.7-0.5,1.1,0.2c1.1,1.7,0.7,2.9-0.7,4.3c-2.3,2.2-4.8,4.1-7.5,5.7 c-2.1,1.3-4.1,2.7-6,4.3C98.4,58.3,98.3,58.5,98,58.4"/><path class="st3" d="M98,58.4c1-2.4,3.1-3.9,4.8-5.7c-1.9,0.5-3.3,2-4.9,3c-0.1-0.1-0.1-0.1-0.2-0.2c0.6-1.3,1.8-2,2.9-2.8 c2.8-2.2,6-3.9,8.5-6.4c0.9-0.9,1.7-1.7,2.4-2.7c0.5-0.7,0.7-0.5,1.1,0.2c1.1,1.7,0.7,2.9-0.7,4.3c-2.3,2.2-4.8,4.1-7.5,5.7 c-2.1,1.3-4.1,2.7-6,4.3C98.4,58.3,98.3,58.5,98,58.4z"/><path class="st2" d="M113.7,45.8c0,0.9-0.5,1.8-1.4,2.8c-2.1,2-4.5,3.9-7.5,5.8c-2.2,1.4-4.1,2.7-5.9,4.2c-0.2,0.2-0.5,0.4-1,0.3 l-0.5-0.1l0.2-0.5c0.5-1.3,1.4-2.4,2.3-3.4c-0.1,0-0.1,0.1-0.2,0.1c-0.5,0.4-1,0.8-1.6,1.1l-0.3,0.2l-0.7-0.6l0.1-0.3 c0.5-1.2,1.4-1.8,2.3-2.5c0.2-0.2,0.5-0.3,0.7-0.5c1-0.8,2.1-1.5,3.1-2.2c1.8-1.2,3.7-2.5,5.3-4.1c1-1,1.8-1.8,2.4-2.6 c0.3-0.3,0.6-0.6,1-0.6c0.5,0,0.7,0.4,1,0.8C113.5,44.4,113.7,45.1,113.7,45.8 M99.4,56.9c1.5-1.2,3.1-2.3,4.8-3.4 c2.9-1.8,5.3-3.7,7.4-5.7c1.3-1.3,1.5-2.3,0.6-3.7c0-0.1-0.1-0.2-0.2-0.3c0,0-0.1,0.1-0.1,0.1c-0.7,0.8-1.5,1.7-2.5,2.7 c-1.7,1.6-3.6,3-5.5,4.2c-0.8,0.5-1.6,1.1-2.3,1.6c0.3-0.1,0.6-0.3,1-0.4l1.6-0.5l-1.1,1.2c-0.5,0.6-1,1.1-1.6,1.6 C100.8,55.4,100,56.1,99.4,56.9"/><path class="st3" d="M113.7,45.8c0,0.9-0.5,1.8-1.4,2.8c-2.1,2-4.5,3.9-7.5,5.8c-2.2,1.4-4.1,2.7-5.9,4.2c-0.2,0.2-0.5,0.4-1,0.3 l-0.5-0.1l0.2-0.5c0.5-1.3,1.4-2.4,2.3-3.4c-0.1,0-0.1,0.1-0.2,0.1c-0.5,0.4-1,0.8-1.6,1.1l-0.3,0.2l-0.7-0.6l0.1-0.3 c0.5-1.2,1.4-1.8,2.3-2.5c0.2-0.2,0.5-0.3,0.7-0.5c1-0.8,2.1-1.5,3.1-2.2c1.8-1.2,3.7-2.5,5.3-4.1c1-1,1.8-1.8,2.4-2.6 c0.3-0.3,0.6-0.6,1-0.6c0.5,0,0.7,0.4,1,0.8C113.5,44.4,113.7,45.1,113.7,45.8z M99.4,56.9c1.5-1.2,3.1-2.3,4.8-3.4 c2.9-1.8,5.3-3.7,7.4-5.7c1.3-1.3,1.5-2.3,0.6-3.7c0-0.1-0.1-0.2-0.2-0.3c0,0-0.1,0.1-0.1,0.1c-0.7,0.8-1.5,1.7-2.5,2.7 c-1.7,1.6-3.6,3-5.5,4.2c-0.8,0.5-1.6,1.1-2.3,1.6c0.3-0.1,0.6-0.3,1-0.4l1.6-0.5l-1.1,1.2c-0.5,0.6-1,1.1-1.6,1.6 C100.8,55.4,100,56.1,99.4,56.9z"/><path class="st2" d="M103,58.5c-1.6,0.9-3,2.1-4.5,3.2c-0.2,0.1-0.4,0.5-0.6,0.3c-0.3-0.2-0.2-0.6-0.1-0.9c0.1-0.2,0.3-0.4,0.5-0.6 c1.7-1.5,3.4-3.1,5.4-4.3c3.4-2.1,6.6-4.3,9.5-7.1c0.2-0.2,0.4-0.7,0.9-0.5c0.4,0.2,0.3,0.6,0.4,1c0.2,0.8,0.2,1.6,0.4,2.4 c0.1,0.7-0.1,1.3-0.7,1.9c-2.8,3.1-6.4,5.1-9.9,7.2c-2.1,1.3-4,2.7-5.7,4.4c-0.1,0.1-0.2,0.1-0.5,0.2c1.4-3.2,4.2-4.9,6.4-7.1 C103.8,58,103.4,58.2,103,58.5"/><path class="st3" d="M103,58.5c-1.6,0.9-3,2.1-4.5,3.2c-0.2,0.1-0.4,0.5-0.6,0.3c-0.3-0.2-0.2-0.6-0.1-0.9c0.1-0.2,0.3-0.4,0.5-0.6 c1.7-1.5,3.4-3.1,5.4-4.3c3.4-2.1,6.6-4.3,9.5-7.1c0.2-0.2,0.4-0.7,0.9-0.5c0.4,0.2,0.3,0.6,0.4,1c0.2,0.8,0.2,1.6,0.4,2.4 c0.1,0.7-0.1,1.3-0.7,1.9c-2.8,3.1-6.4,5.1-9.9,7.2c-2.1,1.3-4,2.7-5.7,4.4c-0.1,0.1-0.2,0.1-0.5,0.2c1.4-3.2,4.2-4.9,6.4-7.1 C103.8,58,103.4,58.2,103,58.5z"/><path class="st2" d="M115.3,52.2c0,0.8-0.4,1.4-0.8,1.8c-2.4,2.7-5.5,4.6-8.5,6.4c-0.5,0.3-1,0.6-1.5,0.9c-2.4,1.5-4.1,2.8-5.6,4.3 c-0.1,0.1-0.3,0.2-0.4,0.2c-0.1,0-0.2,0-0.3,0.1L97,66.3l0.5-1c1.1-2.4,2.9-3.9,4.6-5.5c0.3-0.2,0.6-0.5,0.9-0.8 c-1,0.6-1.9,1.3-2.8,2c-0.4,0.3-0.8,0.7-1.3,1c0,0-0.1,0.1-0.1,0.1c-0.4,0.4-0.8,0.5-1.2,0.2c-0.2-0.2-0.4-0.5-0.4-0.8 c0-0.3,0.1-0.5,0.2-0.7c0.2-0.3,0.4-0.6,0.6-0.7c0.3-0.3,0.6-0.5,0.9-0.8c1.4-1.2,2.9-2.5,4.5-3.5c4-2.5,6.9-4.6,9.4-7 c0,0,0.1-0.1,0.1-0.1c0.2-0.2,0.6-0.8,1.3-0.5c0.6,0.2,0.6,0.8,0.6,1.1c0,0.1,0,0.1,0,0.2c0.1,0.5,0.2,1,0.2,1.4 c0,0.3,0.1,0.6,0.1,1C115.2,51.9,115.3,52.1,115.3,52.2 M100,63.3c1.1-0.9,2.4-1.8,4-2.8c0.5-0.3,1-0.6,1.5-0.9 c2.9-1.8,6-3.6,8.3-6.2c0.5-0.5,0.6-0.9,0.5-1.5c-0.1-0.3-0.1-0.7-0.1-1c-0.1-0.5-0.1-0.9-0.2-1.4c0-0.1,0-0.2,0-0.3 c0-0.1,0-0.2,0-0.3c0,0-0.1,0.1-0.1,0.2c-0.1,0.1-0.1,0.2-0.2,0.2c-2.5,2.4-5.4,4.7-9.5,7.2c-1.6,1-3,2.2-4.4,3.4 c-0.3,0.3-0.6,0.5-0.9,0.8c-0.1,0.1-0.3,0.3-0.3,0.4c0.4-0.3,0.8-0.6,1.2-0.9c1-0.8,2.1-1.6,3.3-2.3c0.5-0.3,1.1-0.6,1.9-0.1 l0.5,0.3l-0.4,0.4c-0.6,0.6-1.3,1.2-2,1.8C101.8,61.4,100.8,62.3,100,63.3"/><path class="st3" d="M115.3,52.2c0,0.8-0.4,1.4-0.8,1.8c-2.4,2.7-5.5,4.6-8.5,6.4c-0.5,0.3-1,0.6-1.5,0.9c-2.4,1.5-4.1,2.8-5.6,4.3 c-0.1,0.1-0.3,0.2-0.4,0.2c-0.1,0-0.2,0-0.3,0.1L97,66.3l0.5-1c1.1-2.4,2.9-3.9,4.6-5.5c0.3-0.2,0.6-0.5,0.9-0.8 c-1,0.6-1.9,1.3-2.8,2c-0.4,0.3-0.8,0.7-1.3,1c0,0-0.1,0.1-0.1,0.1c-0.4,0.4-0.8,0.5-1.2,0.2c-0.2-0.2-0.4-0.5-0.4-0.8 c0-0.3,0.1-0.5,0.2-0.7c0.2-0.3,0.4-0.6,0.6-0.7c0.3-0.3,0.6-0.5,0.9-0.8c1.4-1.2,2.9-2.5,4.5-3.5c4-2.5,6.9-4.6,9.4-7 c0,0,0.1-0.1,0.1-0.1c0.2-0.2,0.6-0.8,1.3-0.5c0.6,0.2,0.6,0.8,0.6,1.1c0,0.1,0,0.1,0,0.2c0.1,0.5,0.2,1,0.2,1.4 c0,0.3,0.1,0.6,0.1,1C115.2,51.9,115.3,52.1,115.3,52.2z M100,63.3c1.1-0.9,2.4-1.8,4-2.8c0.5-0.3,1-0.6,1.5-0.9 c2.9-1.8,6-3.6,8.3-6.2c0.5-0.5,0.6-0.9,0.5-1.5c-0.1-0.3-0.1-0.7-0.1-1c-0.1-0.5-0.1-0.9-0.2-1.4c0-0.1,0-0.2,0-0.3 c0-0.1,0-0.2,0-0.3c0,0-0.1,0.1-0.1,0.2c-0.1,0.1-0.1,0.2-0.2,0.2c-2.5,2.4-5.4,4.7-9.5,7.2c-1.6,1-3,2.2-4.4,3.4 c-0.3,0.3-0.6,0.5-0.9,0.8c-0.1,0.1-0.3,0.3-0.3,0.4c0.4-0.3,0.8-0.6,1.2-0.9c1-0.8,2.1-1.6,3.3-2.3c0.5-0.3,1.1-0.6,1.9-0.1 l0.5,0.3l-0.4,0.4c-0.6,0.6-1.3,1.2-2,1.8C101.8,61.4,100.8,62.3,100,63.3z"/><path class="st2" d="M99.2,70.2c0.2-0.6,0.6-1.1,1-1.5c1.3-1.2,2.6-2.4,3.9-3.5c0.3-0.2,0.6-0.4,0.7-0.8c-0.6-0.3-1.1,0-1.5,0.3 c-1.4,0.7-2.6,1.8-3.8,2.8c-0.2,0.2-0.4,0.4-0.7,0.5c0,0-0.1,0.1-0.1,0.1c-0.1-0.1-0.1-0.2,0-0.2c0,0,0.1,0.1,0.1,0.1 c0,0-0.1-0.1-0.1-0.1c0.3-1.6,1.8-2.3,2.9-3.2c4.1-3.3,8.7-5.9,12.7-9.3c0.5-0.4,0.7-0.3,0.7,0.3c0,0.9,0.1,1.9,0.1,2.8 c0,0.8-0.4,1.3-1,1.8c-2.7,2.2-5.5,4.1-8.4,6c-1.6,1.1-3.1,2.3-4.7,3.4c-0.4,0.3-0.9,0.7-1.4,0.9C99.3,70.8,99.1,70.7,99.2,70.2"/><path class="st3" d="M99.2,70.2c0.2-0.6,0.6-1.1,1-1.5c1.3-1.2,2.6-2.4,3.9-3.5c0.3-0.2,0.6-0.4,0.7-0.8c-0.6-0.3-1.1,0-1.5,0.3 c-1.4,0.7-2.6,1.8-3.8,2.8c-0.2,0.2-0.4,0.4-0.7,0.5c0,0-0.1,0.1-0.1,0.1c-0.1-0.1-0.1-0.2,0-0.2c0,0,0.1,0.1,0.1,0.1 c0,0-0.1-0.1-0.1-0.1c0.3-1.6,1.8-2.3,2.9-3.2c4.1-3.3,8.7-5.9,12.7-9.3c0.5-0.4,0.7-0.3,0.7,0.3c0,0.9,0.1,1.9,0.1,2.8 c0,0.8-0.4,1.3-1,1.8c-2.7,2.2-5.5,4.1-8.4,6c-1.6,1.1-3.1,2.3-4.7,3.4c-0.4,0.3-0.9,0.7-1.4,0.9C99.3,70.8,99.1,70.7,99.2,70.2z"/><path class="st2" d="M115.6,58.2l0,0.2c0,1.1-0.7,1.8-1.2,2.2c-2.6,2.1-5.3,4-8.4,6c-1.1,0.7-2.2,1.5-3.2,2.3 c-0.5,0.4-1,0.7-1.4,1.1l-0.2,0.1c-0.4,0.3-0.8,0.6-1.2,0.8c-0.4,0.2-0.7,0.1-0.9,0c-0.3-0.2-0.4-0.6-0.3-1 c0.2-0.6,0.6-1.2,1.2-1.7c1-0.9,2.1-1.9,3.1-2.9l0.5-0.5l0,0c-1.2,0.6-2.1,1.4-3.2,2.3l-0.5,0.4c0,0-0.1,0.1-0.1,0.1 c-0.2,0.1-0.4,0.3-0.7,0.4c-0.3,0.3-0.5,0.2-0.7,0.1c-0.3-0.2-0.3-0.4-0.3-0.5c0-0.1,0-0.3,0.1-0.4c0.3-1.4,1.4-2.1,2.3-2.8 c0.3-0.2,0.5-0.4,0.7-0.5c1.9-1.5,3.9-2.9,5.9-4.3c2.3-1.6,4.6-3.2,6.8-5c0.2-0.1,0.6-0.5,1.1-0.3c0.5,0.2,0.5,0.8,0.5,1l0,0.8 C115.6,57,115.6,57.6,115.6,58.2 M99.9,69.9c0.2-0.1,0.4-0.3,0.6-0.4l0.2-0.2c0.5-0.4,1-0.7,1.4-1.1c1.1-0.8,2.1-1.6,3.3-2.4 c3-2,5.8-3.9,8.3-6c0.6-0.5,0.9-0.9,0.9-1.5l0-0.2c0-0.6,0-1.2,0-1.8l0-0.6c-2.1,1.8-4.5,3.4-6.7,5c-1.7,1.1-3.3,2.3-5,3.5 c0.1,0,0.1-0.1,0.2-0.1l0.1-0.1c0.5-0.3,1.1-0.6,1.9-0.2l0.3,0.2l-0.1,0.4c-0.1,0.5-0.4,0.8-0.7,1c-0.1,0-0.1,0.1-0.2,0.1l-0.8,0.7 c-1,1-2.1,1.9-3.1,2.9C100.3,69.3,100.1,69.6,99.9,69.9"/><path class="st3" d="M115.6,58.2l0,0.2c0,1.1-0.7,1.8-1.2,2.2c-2.6,2.1-5.3,4-8.4,6c-1.1,0.7-2.2,1.5-3.2,2.3 c-0.5,0.4-1,0.7-1.4,1.1l-0.2,0.1c-0.4,0.3-0.8,0.6-1.2,0.8c-0.4,0.2-0.7,0.1-0.9,0c-0.3-0.2-0.4-0.6-0.3-1 c0.2-0.6,0.6-1.2,1.2-1.7c1-0.9,2.1-1.9,3.1-2.9l0.5-0.5l0,0c-1.2,0.6-2.1,1.4-3.2,2.3l-0.5,0.4c0,0-0.1,0.1-0.1,0.1 c-0.2,0.1-0.4,0.3-0.7,0.4c-0.3,0.3-0.5,0.2-0.7,0.1c-0.3-0.2-0.3-0.4-0.3-0.5c0-0.1,0-0.3,0.1-0.4c0.3-1.4,1.4-2.1,2.3-2.8 c0.3-0.2,0.5-0.4,0.7-0.5c1.9-1.5,3.9-2.9,5.9-4.3c2.3-1.6,4.6-3.2,6.8-5c0.2-0.1,0.6-0.5,1.1-0.3c0.5,0.2,0.5,0.8,0.5,1l0,0.8 C115.6,57,115.6,57.6,115.6,58.2z M99.9,69.9c0.2-0.1,0.4-0.3,0.6-0.4l0.2-0.2c0.5-0.4,1-0.7,1.4-1.1c1.1-0.8,2.1-1.6,3.3-2.4 c3-2,5.8-3.9,8.3-6c0.6-0.5,0.9-0.9,0.9-1.5l0-0.2c0-0.6,0-1.2,0-1.8l0-0.6c-2.1,1.8-4.5,3.4-6.7,5c-1.7,1.1-3.3,2.3-5,3.5 c0.1,0,0.1-0.1,0.2-0.1l0.1-0.1c0.5-0.3,1.1-0.6,1.9-0.2l0.3,0.2l-0.1,0.4c-0.1,0.5-0.4,0.8-0.7,1c-0.1,0-0.1,0.1-0.2,0.1l-0.8,0.7 c-1,1-2.1,1.9-3.1,2.9C100.3,69.3,100.1,69.6,99.9,69.9z"/><path class="st2" d="M103.6,73.6c-0.5-0.4-0.1-0.9,0.1-1.3c0.8-1.3,1.9-2.2,3.1-3.1c0.2-0.1,0.3-0.3,0.5-0.4c-0.4-0.4-0.7-0.1-1,0 c-1.7,1-3.5,2-4.8,3.6c-0.2,0.2-0.3,0.5-0.6,0.3c-0.4-0.2-0.2-0.5-0.1-0.8c0.2-0.5,0.6-0.8,1-1.1c3.7-2.7,7.4-5.4,11.1-8 c0.6-0.4,1.1-1.1,1.8-1.4c0,0,0.1-0.1,0.1-0.1c0,0,0,0.1-0.1,0.1c0,0-0.1-0.1-0.1-0.1l0.1,0.1c0,0.1,0,0.1,0,0.2 c0.1,2.5-0.5,4.6-2.8,6c-1.4,0.9-2.7,2.1-4.2,2.9c-1.2,0.6-2.1,1.5-3.1,2.4C104.3,73.4,104,73.9,103.6,73.6"/><path class="st3" d="M103.6,73.6c-0.5-0.4-0.1-0.9,0.1-1.3c0.8-1.3,1.9-2.2,3.1-3.1c0.2-0.1,0.3-0.3,0.5-0.4c-0.4-0.4-0.7-0.1-1,0 c-1.7,1-3.5,2-4.8,3.6c-0.2,0.2-0.3,0.5-0.6,0.3c-0.4-0.2-0.2-0.5-0.1-0.8c0.2-0.5,0.6-0.8,1-1.1c3.7-2.7,7.4-5.4,11.1-8 c0.6-0.4,1.1-1.1,1.8-1.4c0,0,0.1-0.1,0.1-0.1c0,0,0,0.1-0.1,0.1c0,0-0.1-0.1-0.1-0.1l0.1,0.1c0,0.1,0,0.1,0,0.2 c0.1,2.5-0.5,4.6-2.8,6c-1.4,0.9-2.7,2.1-4.2,2.9c-1.2,0.6-2.1,1.5-3.1,2.4C104.3,73.4,104,73.9,103.6,73.6z"/><path class="st2" d="M116.2,60l-0.9,1.7c0,0,0,0.1,0,0.1c0,0.2,0,0.4,0,0.5c0,2.7-1,4.6-3.1,5.9c-0.6,0.4-1.1,0.8-1.6,1.2 c-0.8,0.6-1.7,1.3-2.6,1.8c-1,0.5-1.8,1.2-2.6,2l-0.4,0.4c0,0-0.1,0.1-0.1,0.1c-0.2,0.2-0.8,0.8-1.5,0.3c-0.3-0.2-0.4-0.5-0.4-0.8 c0-0.4,0.2-0.7,0.4-1c0.3-0.5,0.7-1,1.1-1.4c-0.9,0.6-1.7,1.3-2.4,2.1c-0.2,0.2-0.6,0.7-1.2,0.4c-0.3-0.2-0.5-0.4-0.5-0.8 c0-0.2,0.1-0.4,0.1-0.5c0.2-0.7,0.7-1.1,1.1-1.4l2.3-1.7c3-2.1,5.9-4.3,8.9-6.4c0.2-0.2,0.4-0.3,0.6-0.5c0.4-0.4,0.8-0.7,1.3-0.9 l0,0L116.2,60z M103.9,73.2c0.1-0.1,0.1-0.1,0.2-0.2c0.1-0.1,0.1-0.2,0.2-0.2l0.4-0.3c0.9-0.8,1.8-1.6,2.8-2.1 c0.9-0.4,1.7-1.1,2.5-1.7c0.5-0.4,1.1-0.8,1.7-1.2c1.8-1.1,2.6-2.7,2.6-5.1c-0.1,0.1-0.3,0.2-0.4,0.4c-0.2,0.2-0.4,0.4-0.7,0.6 c-2.5,1.8-5.1,3.6-7.6,5.5c0,0,0.1,0,0.1,0l0.5-0.3c0.2-0.2,0.9-0.6,1.5,0.1l0.4,0.4l-0.6,0.4c-0.1,0.1-0.2,0.2-0.4,0.3l-0.2,0.1 c-1.1,0.9-2.1,1.7-2.8,2.8C104,72.8,103.9,73,103.9,73.2C103.9,73.2,103.9,73.2,103.9,73.2"/><path class="st3" d="M116.2,60l-0.9,1.7c0,0,0,0.1,0,0.1c0,0.2,0,0.4,0,0.5c0,2.7-1,4.6-3.1,5.9c-0.6,0.4-1.1,0.8-1.6,1.2 c-0.8,0.6-1.7,1.3-2.6,1.8c-1,0.5-1.8,1.2-2.6,2l-0.4,0.4c0,0-0.1,0.1-0.1,0.1c-0.2,0.2-0.8,0.8-1.5,0.3c-0.3-0.2-0.4-0.5-0.4-0.8 c0-0.4,0.2-0.7,0.4-1c0.3-0.5,0.7-1,1.1-1.4c-0.9,0.6-1.7,1.3-2.4,2.1c-0.2,0.2-0.6,0.7-1.2,0.4c-0.3-0.2-0.5-0.4-0.5-0.8 c0-0.2,0.1-0.4,0.1-0.5c0.2-0.7,0.7-1.1,1.1-1.4l2.3-1.7c3-2.1,5.9-4.3,8.9-6.4c0.2-0.2,0.4-0.3,0.6-0.5c0.4-0.4,0.8-0.7,1.3-0.9 l0,0L116.2,60z M103.9,73.2c0.1-0.1,0.1-0.1,0.2-0.2c0.1-0.1,0.1-0.2,0.2-0.2l0.4-0.3c0.9-0.8,1.8-1.6,2.8-2.1 c0.9-0.4,1.7-1.1,2.5-1.7c0.5-0.4,1.1-0.8,1.7-1.2c1.8-1.1,2.6-2.7,2.6-5.1c-0.1,0.1-0.3,0.2-0.4,0.4c-0.2,0.2-0.4,0.4-0.7,0.6 c-2.5,1.8-5.1,3.6-7.6,5.5c0,0,0.1,0,0.1,0l0.5-0.3c0.2-0.2,0.9-0.6,1.5,0.1l0.4,0.4l-0.6,0.4c-0.1,0.1-0.2,0.2-0.4,0.3l-0.2,0.1 c-1.1,0.9-2.1,1.7-2.8,2.8C104,72.8,103.9,73,103.9,73.2C103.9,73.2,103.9,73.2,103.9,73.2z"/><path class="st2" d="M105.8,73.6c2.5-1.7,5.1-3.3,7.6-5c0.1,0.1,0.1,0.1,0.2,0.2c-0.4,1.2-0.8,2.5-1.2,3.7 c-0.1,0.4-0.5,0.5-0.8,0.6c-1.8,0.4-3.5,0.8-5.1,1.7c-0.5,0.3-1,0.3-1.3-0.2C104.9,74,105.5,73.8,105.8,73.6"/><path class="st3" d="M105.8,73.6c2.5-1.7,5.1-3.3,7.6-5c0.1,0.1,0.1,0.1,0.2,0.2c-0.4,1.2-0.8,2.5-1.2,3.7 c-0.1,0.4-0.5,0.5-0.8,0.6c-1.8,0.4-3.5,0.8-5.1,1.7c-0.5,0.3-1,0.3-1.3-0.2C104.9,74,105.5,73.8,105.8,73.6z"/><path class="st2" d="M114.1,68.5l0,0.4l-0.3,1c-0.3,0.9-0.6,1.8-0.9,2.7c-0.2,0.7-0.8,0.8-1.2,0.9c-1.6,0.4-3.4,0.8-4.9,1.7 c-0.8,0.4-1.6,0.3-2-0.4c-0.1-0.2-0.2-0.4-0.2-0.6c0-0.5,0.5-0.8,0.8-1l0.1-0.1c1.9-1.3,3.9-2.5,5.8-3.8l2.1-1.4L114.1,68.5z M105.6,74.3c0.2,0.2,0.5,0.1,0.7,0c1.7-0.9,3.6-1.4,5.2-1.8c0.4-0.1,0.4-0.1,0.5-0.2c0.3-0.9,0.6-1.8,0.9-2.7l0-0.1l-1,0.6 c-1.9,1.3-3.9,2.5-5.8,3.8c-0.1,0-0.1,0.1-0.2,0.1C105.8,74.2,105.6,74.2,105.6,74.3"/><path class="st3" d="M114.1,68.5l0,0.4l-0.3,1c-0.3,0.9-0.6,1.8-0.9,2.7c-0.2,0.7-0.8,0.8-1.2,0.9c-1.6,0.4-3.4,0.8-4.9,1.7 c-0.8,0.4-1.6,0.3-2-0.4c-0.1-0.2-0.2-0.4-0.2-0.6c0-0.5,0.5-0.8,0.8-1l0.1-0.1c1.9-1.3,3.9-2.5,5.8-3.8l2.1-1.4L114.1,68.5z M105.6,74.3c0.2,0.2,0.5,0.1,0.7,0c1.7-0.9,3.6-1.4,5.2-1.8c0.4-0.1,0.4-0.1,0.5-0.2c0.3-0.9,0.6-1.8,0.9-2.7l0-0.1l-1,0.6 c-1.9,1.3-3.9,2.5-5.8,3.8c-0.1,0-0.1,0.1-0.2,0.1C105.8,74.2,105.6,74.2,105.6,74.3z"/><path class="st4" d="M88.6,78.3c2.4-2.6,5.4-3.9,8.9-4c2.6,0,5,0.5,7.4,1.6c0.8,0.4,1.3,0.3,2.1,0c3.2-1.3,6.6-1.9,10-1 c2.1,0.6,3.9,1.6,5.4,3.2c0.2,0.2,0.8,0.5,0.3,0.9c-0.4,0.3-0.7,0.9-1.5,0.5c-1.7-1.1-3.7-1.7-5.6-2.1c-3.4-0.6-6.6-0.1-9.6,1.5 c-0.6,0.4-1.1,0.3-1.7,0c-3.9-1.9-7.9-2.6-12.2-1.2c-0.9,0.3-1.9,0.7-2.7,1.3c-0.3,0.2-0.6,0.4-0.9,0C88,78.7,88.4,78.5,88.6,78.3"/><path class="st4" d="M89.5,82.1c0,1.8-1.3,3.2-3,3.3c-1.7,0.1-3.2-1.4-3.2-3.2c0-1.7,1.4-3.2,3.1-3.2C88.1,79,89.5,80.3,89.5,82.1"/><path class="st4" d="M90.6,80.7c-0.3,0.1-0.5,0.5-0.8,0c-0.3-0.5,0-0.6,0.4-0.8c1.8-1.1,3.8-1.6,6-1.7c2.9,0,5.7,0.7,8.2,2.1 c0.5,0.3,0.9,0.3,1.4,0c4.5-2.8,9.1-2.5,13.8-0.4c0.4,0.2,0.8,0.3,1.1,0.6c0.2,0.1,0.8-0.4,0.5,0.4c-0.2,0.5-0.3,0.6-0.9,0.4 c-1.3-0.6-2.8-0.9-4.2-1.1c-3.7-0.4-7.1,0.6-10,2.8c-0.7,0.5-1,0.5-1.7,0c-2.9-1.9-6-3.2-9.6-3.1C93.3,79.8,91.9,80.1,90.6,80.7"/><path class="st4" d="M86.9,81.4c0.6,1.1,0.2,2-1.1,2.2c-0.3,0-0.6-0.1-0.9,0.3c1.1,0.8,2.6,0.6,3.3-0.4c0.6-0.9,0.4-1.9-0.6-2.6 c-0.3-0.2-0.6-0.5-0.9-0.2C86.4,80.8,86.7,81.1,86.9,81.4"/><path class="st4" d="M105,40.1c-3.2,0-5.9-2.5-5.9-5.6c0-3.1,2.6-5.6,5.9-5.6c3.2,0,5.9,2.5,5.9,5.6 C110.9,37.6,108.3,40.1,105,40.1"/><path class="st4" d="M104.8,28.5c-1.8,0-3.3-1.4-3.3-3.2c0-1.8,1.5-3.2,3.3-3.2c1.8,0,3.3,1.4,3.3,3.2 C108.2,27.1,106.7,28.5,104.8,28.5"/><path class="st0" d="M98.3,48.8C98.3,48.8,98.4,48.9,98.3,48.8C98.4,48.9,98.3,48.8,98.3,48.8z M124.6,81.4c0.5,1,0.1,1.9-1,2.1 c-0.3,0.1-0.7-0.1-1,0.2c1.1,0.8,2.6,0.6,3.3-0.4c0.6-0.8,0.4-1.8-0.5-2.5c-0.3-0.2-0.7-0.6-1-0.4 C124.1,80.7,124.5,81.1,124.6,81.4 M96.9,81.4c0,0-3.8-0.9-6.3,0.9c-0.1,1.1-1.5,6-5.9,4.3c-3.2-1.5-4.1-5.4-0.7-8.2 c2.1-0.6,3.2-0.2,3.2-0.2s2.3-4.9,11.1-4.8c-3.2-7.2-3.7-18.6-1.9-25.3c1.8-6.6,3.8-9.1,3.8-9.1s-2.9-2.6-1.1-7.4 c0,0,0.9-1.7,3.3-2.9l0-0.2c0,0-3-2.7-0.6-5.6c2.4-3,6.7-0.5,6.9,2c0.2,2.5-1.6,3.5-1.7,3.5c-0.1,0,0,0.5,0,0.5s4,1,4.2,4.9 c0.2,3.9-1.2,4-1.2,4s5.6,5.5,6.1,19.2c-0.3,12-2.5,16.3-2.5,16.3s6.1,0,9.6,4.4c4.5,0,5.9,3.5,4.9,6c-0.9,2.5-4,3.6-5.6,2.8 c-1.6-0.8-2.8-2.1-3-4c-2.7-1.1-5.4-1.4-6.5-1.1c0,9.7-2,112.9-2,112.9l-7.7,13.6l-7-13.8L96.9,81.4z M104.7,26.1 c0.7,0.5,1.3,0.3,1.7-0.3c0.5-0.7,0.2-1.4-0.7-1.8C105.9,25.6,105.9,25.6,104.7,26.1 M102.5,203.6c0.3-0.2,0.2-0.5,0.2-0.7 c0.1-4.1,0.1-8.2,0.1-12.3c0.1-10.2,0.3-20.4,0.4-30.6c0.1-9.7,0.2-19.3,0.3-29c0.1-7.4,0.2-14.8,0.3-22.1 c0.1-7.7,0.2-15.4,0.3-23.1c0-0.5,0-0.9-0.5-1.1c-1.5-0.9-3-1.7-4.5-2.6c-0.1-0.2-0.3-0.2-0.5-0.1c-0.1,0-0.1,0-0.2,0 c0,1.7-0.1,3.4-0.1,5.1c-0.1,9.9-0.2,19.7-0.3,29.6c-0.1,10.4-0.2,20.8-0.3,31.2c-0.1,7.6-0.2,15.3-0.2,22.9 c-0.1,5.4,0,10.8-0.2,16.2c-0.1,3.5,0,6.9,1.9,10c0.8,1.3,1.3,2.7,1.9,4C101.7,201.8,102.1,202.7,102.5,203.6 M112.1,81.9 c-2.1,0.3-4.1,1-5.8,2.4c-0.4,0.3-0.6,0.7-0.6,1.2c0,2.5-0.1,4.9-0.1,7.4c-0.1,6.6-0.3,13.2-0.4,19.7c-0.1,8.6-0.3,17.2-0.4,25.7 c-0.1,6-0.2,12-0.3,18c-0.2,9.6-0.3,19.3-0.5,28.9c-0.1,3.1-0.2,6.2-0.1,9.3c0,3,0.1,5.9,0.2,8.8c0,0,0.1-0.1,0.2-0.3 c1.7-3,3.5-6.1,5.2-9.1c0.3-0.6,0.4-1.2,0.4-1.8c0-1.5,0.1-3.1,0.1-4.6c0.2-9,0.4-18.1,0.6-27.2c0.1-6.3,0.2-12.6,0.4-19 c0.2-7.6,0.3-15.1,0.5-22.7c0.2-10.4,0.4-20.8,0.6-31.2c0-1.7,0.1-3.4,0.2-5.1C112.2,82.3,112.3,82,112.1,81.9 M123.9,78.8 c-1.6,0.1-3,1.6-3,3.3c0,1.7,1.5,3.2,3.2,3.1c1.7-0.1,3.1-1.6,3-3.3C127.1,80.2,125.6,78.8,123.9,78.8 M101.5,33 c0,0.1,0,0.3,0.1,0.4c0.2,0.3,0.5,0.6,0.9,0.5c0.6-0.1,0.1-0.5,0.1-0.8c-0.1-0.7,0.3-1.1,0.9-1.3c0.2-0.1,0.4,0,0.4-0.3 c0-0.2-0.2-0.3-0.5-0.4C102.5,31.1,101.5,32,101.5,33 M105.8,34.3c0.3,0.8-0.2,1.1-0.7,1.4c-0.2,0.1-0.6,0-0.5,0.4 c0.1,0.3,0.4,0.3,0.7,0.3c0.7,0,1.4-0.5,1.6-1.1c0.1-0.5,0.1-1-0.3-1.4c-0.2-0.2-0.5-0.3-0.7-0.2C105.6,33.9,105.7,34.1,105.8,34.3 M107,37.7c1.4-0.6,1.9-1.7,2-3.1c0.1-1.3-0.2-2.4-1.5-3.3c-0.1,0.6,0.1,1,0.3,1.4c0.4,1.2,0.4,2.3-0.4,3.3c-0.8,1-1.8,1.2-3,1.1 c-0.3,0-0.7-0.2-0.8,0.3c0,0.4,0.3,0.5,0.7,0.6C105.2,38.2,106.1,38.1,107,37.7 M99,45.7c2-1.4,4.2-2.5,6.2-4 c0.5-0.4,0.3-0.6-0.2-0.7c-1-0.2-1.9-0.3-2.9-0.7c-0.7-0.3-1.5,0.1-1.7,0.8c-0.1,0.4,0,0.6,0.5,0.4c0.4-0.2,0.9-0.6,1.5-0.1 c-0.9,0.6-1.8,1.3-2.6,1.8c-0.8,0.5-1,1.3-1.2,2.1C98.5,45.5,98.5,45.9,99,45.7 M101.8,47.4c-1.7,1.9-3.9,3.4-4.9,6.1 c0.6-0.1,0.9-0.5,1.2-0.7c1.1-0.8,2.1-1.7,3.3-2.4c3.1-2,5.9-4.2,8.3-6.9c1.1-1.2,1.4-2.1,0.5-3.5c-0.5-0.8-0.7-0.9-1.4-0.2 c-0.9,0.8-1.7,1.7-2.6,2.5c-2,1.7-4.4,3-6.4,4.8c-0.6,0.5-1.4,0.9-1.5,1.8l0,0c0,0.1,0,0.1-0.1,0.2c0,0,0.1-0.1,0.1-0.1 c0.6-0.3,1.1-0.7,1.7-1C101.1,47.2,101.1,47.2,101.8,47.4 M98.2,58.2c1.9-1.6,3.9-3,6-4.3c2.7-1.7,5.2-3.5,7.5-5.7 c1.4-1.3,1.7-2.6,0.7-4.3c-0.4-0.7-0.6-0.8-1.1-0.2c-0.8,0.9-1.6,1.8-2.4,2.7c-2.5,2.5-5.7,4.2-8.5,6.4c-1.1,0.8-2.3,1.4-2.9,2.8 c0.1,0.1,0.1,0.1,0.2,0.2c1.6-1,2.9-2.4,4.9-3c-1.7,1.8-3.8,3.3-4.8,5.7C97.9,58.5,98,58.3,98.2,58.2 M104,58.4 c-2.2,2.2-5,4-6.4,7.1c0.3-0.1,0.5-0.1,0.5-0.2c1.7-1.7,3.6-3.1,5.7-4.4c3.5-2.1,7.1-4.1,9.9-7.2c0.5-0.6,0.8-1.1,0.7-1.9 c-0.1-0.8-0.2-1.6-0.4-2.4c-0.1-0.3,0-0.8-0.4-1c-0.4-0.2-0.6,0.3-0.9,0.5c-2.8,2.8-6.1,5-9.5,7.1c-2,1.2-3.7,2.8-5.4,4.3 c-0.2,0.2-0.4,0.4-0.5,0.6c-0.2,0.3-0.2,0.7,0.1,0.9c0.2,0.2,0.4-0.1,0.6-0.3c1.5-1.1,2.9-2.3,4.5-3.2C103,58.2,103.4,58,104,58.4 M99.3,70.6c0.5-0.3,0.9-0.6,1.4-0.9c1.6-1.1,3.1-2.3,4.7-3.4c2.9-1.9,5.7-3.8,8.4-6c0.6-0.5,1-1,1-1.8c0-0.9,0-1.9-0.1-2.8 c0-0.6-0.2-0.7-0.7-0.3c-4,3.4-8.6,6-12.7,9.3c-1.1,0.9-2.6,1.6-2.9,3.2c0,0,0.1,0.1,0.1,0.1c0,0-0.1-0.1-0.1-0.1 c-0.1,0.1-0.2,0.1,0,0.2c0,0,0.1-0.1,0.1-0.1c0.3,0,0.5-0.3,0.7-0.5c1.2-1,2.4-2.1,3.8-2.8c0.5-0.2,0.9-0.5,1.5-0.3 c-0.1,0.4-0.4,0.6-0.7,0.8c-1.3,1.2-2.6,2.4-3.9,3.5c-0.5,0.4-0.8,0.9-1,1.5C98.7,70.7,98.9,70.8,99.3,70.6 M104.2,73.1 c1-0.9,1.9-1.8,3.1-2.4c1.6-0.8,2.8-2,4.2-2.9c2.3-1.5,2.9-3.5,2.8-6c0-0.1,0-0.1,0-0.2l-0.1,0l0.1,0c0,0,0-0.1,0.1-0.1 c0,0-0.1,0.1-0.1,0.1c-0.7,0.3-1.2,1-1.8,1.4c-3.7,2.7-7.4,5.3-11.1,8c-0.4,0.3-0.9,0.6-1,1.1c-0.1,0.3-0.2,0.6,0.1,0.8 c0.3,0.1,0.5-0.1,0.6-0.3c1.3-1.6,3.1-2.5,4.8-3.6c0.3-0.2,0.6-0.5,1,0c-0.2,0.1-0.4,0.3-0.5,0.4c-1.2,0.9-2.3,1.8-3.1,3.1 c-0.2,0.4-0.6,0.9-0.1,1.3C103.6,73.9,103.9,73.4,104.2,73.1 M104.8,74.5c0.3,0.4,0.8,0.4,1.3,0.2c1.6-0.9,3.3-1.3,5.1-1.7 c0.4-0.1,0.7-0.2,0.8-0.6c0.4-1.2,0.8-2.5,1.2-3.7c-0.1-0.1-0.1-0.1-0.2-0.2c-2.5,1.7-5.1,3.3-7.6,5 C105.1,73.8,104.5,74,104.8,74.5 M88,79.1c0.3,0.4,0.6,0.2,0.9,0c0.8-0.6,1.7-1,2.7-1.3c4.2-1.4,8.3-0.7,12.2,1.2 c0.6,0.3,1.1,0.3,1.7,0c3-1.7,6.2-2.2,9.6-1.5c2,0.4,3.9,1,5.6,2.1c0.8,0.5,1.1-0.2,1.5-0.5c0.5-0.4-0.1-0.7-0.3-0.9 c-1.4-1.6-3.3-2.7-5.4-3.2c-3.5-0.9-6.8-0.3-10,1c-0.7,0.3-1.3,0.3-2.1,0c-2.3-1.1-4.8-1.6-7.4-1.6c-3.5,0.2-6.5,1.4-8.9,4 C88,78.5,87.6,78.7,88,79.1 M86,79c-1.7,0-3.1,1.5-3.1,3.2c0,1.8,1.5,3.2,3.2,3.2c1.7-0.1,3-1.5,3-3.3C89.1,80.3,87.8,79,86,79 M94.3,79.8c3.6-0.1,6.7,1.2,9.6,3.1c0.6,0.4,1,0.5,1.7,0c2.9-2.2,6.3-3.2,10-2.8c1.5,0.2,2.9,0.5,4.2,1.1c0.5,0.2,0.7,0.1,0.9-0.4 c0.3-0.8-0.4-0.2-0.5-0.4c-0.3-0.2-0.7-0.4-1.1-0.6c-4.7-2.1-9.3-2.3-13.8,0.4c-0.5,0.3-0.9,0.3-1.4,0c-2.6-1.4-5.3-2.1-8.2-2.1 c-2.1,0-4.1,0.6-6,1.7c-0.3,0.2-0.6,0.4-0.4,0.8c0.3,0.5,0.6,0.2,0.8,0C91.5,80.1,92.9,79.8,94.3,79.8 M86.5,81.4 c0.6,1.1,0.2,2-1.1,2.2c-0.3,0-0.6-0.1-0.9,0.3c1.1,0.8,2.6,0.6,3.3-0.4c0.6-0.9,0.4-1.9-0.6-2.6c-0.3-0.2-0.6-0.5-0.9-0.2 C86,80.8,86.4,81.1,86.5,81.4 M107.7,25.3c0-1.5-1.3-2.7-2.8-2.7s-2.8,1.2-2.8,2.7c0,1.5,1.3,2.7,2.8,2.7S107.7,26.8,107.7,25.3 M110.2,34.4c0-2.9-2.4-5.2-5.3-5.2c-2.9,0-5.3,2.3-5.3,5.2s2.4,5.2,5.3,5.2C107.8,39.6,110.2,37.2,110.2,34.4"/></svg>