<svg version="1.1" id="Layer_1" xmlns="http://www.w3.org/2000/svg" x="0px" y="0px" viewBox="0 0 141.7 226.8" style="enable-background:new 0 0 141.7 226.8" xml:space="preserve"><style>.st0{fill:#1D1D1B}.st2{fill:#FFDC00}.st3{fill:none;stroke:#1D1D1B;stroke-width:1.5;stroke-miterlimit:10}.st4{fill:none;stroke:#1D1D1B;stroke-miterlimit:10}</style><path class="st0" d="M8.3,12.6v-2.1c1.5-0.6,2.8-1,4-1c0.7,0,1.4,0.1,1.9,0.3c0.6,0.2,1,0.5,1.3,0.9c0.3,0.4,0.5,0.9,0.5,1.4 c0,0.5-0.1,0.9-0.3,1.3c-0.2,0.4-0.5,0.7-0.8,1c-0.4,0.3-0.8,0.6-1.4,0.8v0.1c0.5,0.1,1,0.3,1.4,0.5c0.4,0.3,0.8,0.6,1,1 c0.2,0.4,0.4,0.9,0.4,1.5c0,0.7-0.2,1.3-0.5,1.8c-0.3,0.5-0.8,1-1.5,1.3c-0.7,0.3-1.5,0.5-2.4,0.5c-0.7,0-1.3-0.1-1.9-0.2 c-0.6-0.1-1.2-0.3-1.7-0.5V19h1.6c0.2,0.7,0.4,1.2,0.7,1.5c0.3,0.3,0.7,0.5,1.2,0.5c1.2,0,1.9-0.8,1.9-2.3c0-0.8-0.2-1.5-0.7-1.9 c-0.4-0.4-1.1-0.6-2-0.6h-0.7v-1c1,0,1.8-0.3,2.3-0.7c0.5-0.4,0.8-1.1,0.8-1.9c0-0.7-0.1-1.1-0.4-1.5c-0.3-0.3-0.6-0.5-1.1-0.5 c-0.3,0-0.6,0.1-0.8,0.2c-0.2,0.1-0.5,0.3-0.6,0.7c-0.2,0.3-0.3,0.7-0.4,1.2H8.3z"/><path class="st0" d="M131.8,214.4v2.1c-1.5,0.6-2.8,1-4,1c-0.7,0-1.4-0.1-1.9-0.3c-0.6-0.2-1-0.5-1.3-0.9c-0.3-0.4-0.5-0.9-0.5-1.4 c0-0.5,0.1-0.9,0.3-1.3c0.2-0.4,0.5-0.7,0.8-1c0.4-0.3,0.8-0.6,1.4-0.8v-0.1c-0.5-0.1-1-0.3-1.4-0.5c-0.4-0.3-0.8-0.6-1-1 c-0.2-0.4-0.4-0.9-0.4-1.5c0-0.7,0.2-1.3,0.5-1.8c0.3-0.5,0.8-1,1.5-1.3c0.7-0.3,1.5-0.5,2.4-0.5c0.7,0,1.3,0.1,1.9,0.2 c0.6,0.1,1.2,0.3,1.7,0.5v2.2h-1.6c-0.2-0.7-0.4-1.2-0.7-1.5c-0.3-0.3-0.7-0.5-1.2-0.5c-1.2,0-1.9,0.8-1.9,2.3 c0,0.8,0.2,1.5,0.7,1.9c0.4,0.4,1.1,0.6,2,0.6h0.7v1c-1,0-1.8,0.3-2.3,0.7c-0.5,0.4-0.8,1.1-0.8,1.9c0,0.7,0.1,1.1,0.4,1.5 c0.3,0.3,0.6,0.5,1.1,0.5c0.3,0,0.6-0.1,0.8-0.2c0.2-0.1,0.5-0.3,0.6-0.7c0.2-0.3,0.3-0.7,0.4-1.2H131.8z"/><polygon points="104.9,219.8 82.1,219.8 62.8,219.8 40,219.8 25.3,219.8 5.4,219.8 5.4,7 24.6,7 40,7 62.8,7 82.1,7 104.9,7 118.5,7 136.3,7 136.3,219.8 118.2,219.8" style="fill:none;stroke:#1D1D1B;stroke-width:1.614;stroke-miterlimit:10"/><path class="st2" d="M99.3,88.6c-18.3,0-33.1-14.8-33.1-33.1c0-18.3,14.8-33.1,33.1-33.1c18.3,0,33.1,14.8,33.1,33.1 C132.4,73.8,117.6,88.6,99.3,88.6"/><path class="st3" d="M99.3,88.6c-18.3,0-33.1-14.8-33.1-33.1c0-18.3,14.8-33.1,33.1-33.1c18.3,0,33.1,14.8,33.1,33.1 C132.4,73.8,117.6,88.6,99.3,88.6z"/><path class="st4" d="M99.3,82.1c-14.7,0-26.6-11.9-26.6-26.6S84.6,29,99.3,29c14.7,0,26.6,11.9,26.6,26.6S114,82.1,99.3,82.1z"/><path class="st0" d="M99.2,69.9c-7.9,0-14.4-6.4-14.4-14.4c0-7.9,6.4-14.4,14.4-14.4c7.9,0,14.4,6.4,14.4,14.4 C113.6,63.5,107.2,69.9,99.2,69.9 M125.1,55.3l-10.1-3l8-6.9l-10.5,1.1l4.8-9.4l-9.3,5l0.8-10.5l-6.7,8.2l-3.2-10L96,39.7l-6.8-8 l1,10.5l-9.4-4.8l5,9.3l-10.5-0.8l8.1,6.7l-10,3.3l10.1,3.1l-8,6.9l10.5-1.1l-4.8,9.4l9.3-5l-0.8,10.5l6.7-8.2l3.2,10l3.1-10.1 l6.8,8l-1-10.5l9.4,4.8l-5-9.3l10.5,0.8l-8.1-6.7L125.1,55.3z"/><path class="st0" d="M97,53.2c0,0-1.5-7-5.8-9.9c-3,2.7-3.7,3.5-3.7,3.5S90.9,51.1,97,53.2"/><path class="st0" d="M101.3,58.1c0,0,1.5,7,5.8,9.9c3-2.7,3.7-3.5,3.7-3.5S107.3,60.2,101.3,58.1"/><path class="st0" d="M97.1,58.1c0,0-7,1.5-9.9,5.8c2.7,3,3.5,3.7,3.5,3.7S95,64.2,97.1,58.1"/><path class="st0" d="M101.8,53.4c0,0,7-1.5,9.9-5.8c-2.7-3-3.5-3.7-3.5-3.7S103.9,47.4,101.8,53.4"/><path class="st0" d="M112.7,60.3c0,0-4.1-3.3-6-3.9c3.9-2.1,5.3-3.4,6.2-4.3C113.8,56.7,113.2,58.9,112.7,60.3 M112.9,50.1 l-0.7,0.5c-1,1.2-2.1,1.8-8.7,5.6c3.3,0.6,8.7,6,8.7,6C116,56.8,112.9,50.1,112.9,50.1"/><path class="st0" d="M85.9,51.5c0,0,4,3.3,5.7,4c-3.8,2.1-5.1,3.4-5.9,4.3C84.8,55.3,85.4,53,85.9,51.5 M85.7,61.9l0.7-0.5 c0.9-1.3,2-1.8,8.4-5.7c-3.2-0.6-8.8-6.6-8.8-6.6C82.3,54.7,85.7,61.9,85.7,61.9"/><path class="st0" d="M103.8,41.9c0,0-3.3,4-4,5.7c-2.1-3.8-3.4-5.1-4.3-5.9C100,40.8,102.3,41.5,103.8,41.9 M93.4,41.8l0.5,0.7 c1.3,0.9,1.8,2,5.7,8.4c0.6-3.2,6.1-8.4,6.1-8.4C100.1,38.8,93.4,41.8,93.4,41.8"/><path class="st0" d="M95.3,69.9c0,0,3.3-3.6,4-5.1c2.1,3.4,3.4,4.6,4.3,5.3C99.1,70.9,96.8,70.3,95.3,69.9 M105.7,70l-0.5-0.6 c-1.3-0.8-1.8-1.8-5.7-7.5c-0.6,2.8-6.1,7.5-6.1,7.5C99,72.7,105.7,70,105.7,70"/><path class="st2" d="M42.4,145.3c-18.3,0-33.1-14.8-33.1-33.1c0-18.3,14.8-33.1,33.1-33.1c18.3,0,33.1,14.8,33.1,33.1 C75.5,130.5,60.7,145.3,42.4,145.3"/><circle class="st3" cx="42.4" cy="112.2" r="33.1"/><path class="st4" d="M42.4,138.8c-14.7,0-26.6-11.9-26.6-26.6c0-14.7,11.9-26.6,26.6-26.6S69,97.6,69,112.2 C69,126.9,57.1,138.8,42.4,138.8z"/><path class="st0" d="M42.4,126.6c-7.9,0-14.4-6.4-14.4-14.4c0-7.9,6.4-14.4,14.4-14.4c7.9,0,14.4,6.4,14.4,14.4 C56.8,120.2,50.3,126.6,42.4,126.6 M68.2,112l-10.1-3l8-6.9l-10.5,1.1l4.8-9.4l-9.3,5l0.8-10.5l-6.7,8.2l-3.2-10l-3.1,10.1l-6.8-8 l1,10.5L24,94.1l5,9.3l-10.5-0.8l8.1,6.7l-10,3.3l10.1,3l-8,6.9l10.5-1.1l-4.8,9.4l9.3-5l-0.8,10.5l6.7-8.2l3.2,10l3.1-10.1l6.8,8 l-1-10.5l9.4,4.8l-5-9.3l10.5,0.8l-8.1-6.7L68.2,112z"/><path class="st0" d="M40.1,109.9c0,0-1.5-7-5.8-9.9c-3,2.7-3.7,3.5-3.7,3.5S34,107.8,40.1,109.9"/><path class="st0" d="M44.4,114.8c0,0,1.5,7,5.8,9.9c3-2.7,3.7-3.5,3.7-3.5S50.5,116.9,44.4,114.8"/><path class="st0" d="M40.3,114.8c0,0-7,1.5-9.9,5.8c2.7,3,3.5,3.7,3.5,3.7S38.2,120.9,40.3,114.8"/><path class="st0" d="M45,110.1c0,0,7-1.5,9.9-5.8c-2.7-3-3.5-3.7-3.5-3.7S47.1,104.1,45,110.1"/><path class="st0" d="M55.9,117c0,0-4.1-3.3-6-3.9c3.9-2.1,5.3-3.4,6.2-4.3C57,113.4,56.3,115.6,55.9,117 M56,106.8l-0.7,0.5 c-1,1.2-2.1,1.8-8.7,5.6c3.3,0.6,8.7,6,8.7,6C59.2,113.5,56,106.8,56,106.8"/><path class="st0" d="M29,108.2c0,0,4,3.3,5.7,4c-3.8,2.1-5.1,3.4-5.9,4.3C28,112,28.6,109.7,29,108.2 M28.9,118.6l0.7-0.5 c0.9-1.3,2-1.8,8.4-5.7c-3.2-0.6-8.8-6.6-8.8-6.6C25.5,111.4,28.9,118.6,28.9,118.6"/><path class="st0" d="M46.9,98.6c0,0-3.3,4-4,5.7c-2.1-3.8-3.4-5.1-4.3-5.9C43.2,97.6,45.5,98.2,46.9,98.6 M36.5,98.5l0.5,0.7 c1.3,0.9,1.8,2,5.7,8.4c0.6-3.2,6.1-8.4,6.1-8.4C43.3,95.5,36.5,98.5,36.5,98.5"/><path class="st0" d="M38.5,126.6c0,0,3.3-3.6,4-5.1c2.1,3.4,3.4,4.6,4.3,5.3C42.2,127.6,40,127,38.5,126.6 M48.9,126.7l-0.5-0.6 c-1.3-0.8-1.8-1.8-5.7-7.5c-0.6,2.8-6.1,7.5-6.1,7.5C42.1,129.4,48.9,126.7,48.9,126.7"/><path class="st2" d="M98.5,204.3c-18.3,0-33.1-14.8-33.1-33.1s14.8-33.1,33.1-33.1c18.3,0,33.1,14.8,33.1,33.1 S116.8,204.3,98.5,204.3"/><path class="st3" d="M98.5,204.3c-18.3,0-33.1-14.8-33.1-33.1s14.8-33.1,33.1-33.1c18.3,0,33.1,14.8,33.1,33.1 S116.8,204.3,98.5,204.3z"/><path class="st4" d="M98.5,197.8c-14.7,0-26.6-11.9-26.6-26.6c0-14.7,11.9-26.6,26.6-26.6c14.7,0,26.6,11.9,26.6,26.6 C125.1,185.9,113.2,197.8,98.5,197.8z"/><path class="st0" d="M98.5,185.6c-7.9,0-14.4-6.4-14.4-14.4c0-7.9,6.4-14.4,14.4-14.4s14.4,6.4,14.4,14.4 C112.8,179.2,106.4,185.6,98.5,185.6 M124.3,171l-10.1-3.1l8-6.9l-10.5,1.1l4.8-9.4l-9.3,5l0.8-10.5l-6.7,8.2l-3.2-10l-3.1,10.1 l-6.8-8l1,10.5l-9.4-4.8l5,9.3l-10.5-0.8l8.1,6.7l-10,3.3l10.1,3l-8,6.9l10.5-1.1l-4.8,9.4l9.3-5l-0.8,10.5l6.7-8.2l3.2,10 l3.1-10.1l6.8,8l-1-10.5l9.4,4.8l-5-9.3l10.5,0.8l-8.1-6.7L124.3,171z"/><path class="st0" d="M96.2,168.9c0,0-1.5-7-5.8-9.9c-3,2.7-3.7,3.5-3.7,3.5S90.1,166.8,96.2,168.9"/><path class="st0" d="M100.5,173.8c0,0,1.5,7,5.8,9.9c3-2.7,3.7-3.5,3.7-3.5S106.6,175.9,100.5,173.8"/><path class="st0" d="M96.4,173.8c0,0-7,1.5-9.9,5.8c2.7,3,3.5,3.7,3.5,3.7S94.3,179.9,96.4,173.8"/><path class="st0" d="M101.1,169.2c0,0,7-1.5,9.9-5.8c-2.7-3-3.5-3.7-3.5-3.7S103.2,163.1,101.1,169.2"/><path class="st0" d="M111.9,176.1c0,0-4.1-3.3-6-3.9c3.9-2.1,5.3-3.4,6.2-4.3C113.1,172.4,112.4,174.6,111.9,176.1 M112.1,165.9 l-0.7,0.5c-1,1.2-2.1,1.8-8.7,5.6c3.3,0.6,8.7,6,8.7,6C115.2,172.5,112.1,165.9,112.1,165.9"/><path class="st0" d="M85.1,167.3c0,0,4,3.3,5.7,4c-3.8,2.1-5.1,3.4-5.9,4.3C84,171,84.7,168.7,85.1,167.3 M85,177.6l0.7-0.5 c0.9-1.3,2-1.8,8.4-5.7c-3.2-0.6-8.8-6.6-8.8-6.6C81.5,170.4,85,177.6,85,177.6"/><path class="st0" d="M103,157.7c0,0-3.3,4-4,5.7c-2.1-3.8-3.4-5.1-4.3-5.9C99.2,156.6,101.5,157.2,103,157.7 M92.6,157.5l0.5,0.7 c1.3,0.9,1.8,2,5.7,8.4c0.6-3.2,6.1-8.4,6.1-8.4C99.4,154.5,92.6,157.5,92.6,157.5"/><path class="st0" d="M94.6,185.6c0,0,3.3-3.6,4-5.1c2.1,3.4,3.4,4.6,4.3,5.3C98.3,186.6,96,186,94.6,185.6 M104.9,185.7l-0.5-0.6 c-1.3-0.8-1.8-1.8-5.7-7.5c-0.6,2.8-6.1,7.5-6.1,7.5C98.2,188.5,104.9,185.7,104.9,185.7"/></svg>