<svg version="1.1" id="Layer_1" xmlns="http://www.w3.org/2000/svg" x="0px" y="0px" viewBox="0 0 141.7 226.8" style="enable-background:new 0 0 141.7 226.8" xml:space="preserve"><style>.st0{fill:#1D1D1B}.st1{fill:none;stroke:#1D1D1B;stroke-width:1.612;stroke-miterlimit:10}.st2{fill:#FFDC00}.st3{fill:none;stroke:#FFDC00;stroke-width:0.5;stroke-miterlimit:10}.st4{fill:#DA0812}.st5{fill:none;stroke:#DA0812;stroke-width:0.5;stroke-miterlimit:10}.st6{fill:#0080C8}.st7{fill:none;stroke:#0080C8;stroke-width:0.6;stroke-miterlimit:10}.st8{fill:none;stroke:#DA0812;stroke-width:0.6;stroke-miterlimit:10}.st9{fill:none;stroke:#FFDC00;stroke-linecap:round;stroke-linejoin:round;stroke-miterlimit:10}.st10{fill:none;stroke:#0080C8;stroke-linecap:round;stroke-linejoin:round;stroke-miterlimit:10}.st11{fill:none;stroke:#DA0812;stroke-width:0.5;stroke-linecap:round;stroke-linejoin:round;stroke-miterlimit:10}</style><path class="st0" d="M8.7,21.2V19h1.6c0.1,0.6,0.4,1.1,0.7,1.4c0.3,0.3,0.7,0.5,1.2,0.5c0.6,0,1.1-0.2,1.4-0.6 c0.3-0.4,0.5-1,0.5-1.8c0-0.8-0.2-1.4-0.6-1.9c-0.4-0.4-1-0.6-1.7-0.6c-0.3,0-0.6,0-0.9,0.1c-0.3,0.1-0.6,0.1-0.9,0.2l-0.8-0.5v-6 h5.2c0.2,0,0.4,0,0.5,0c0.1,0,0.2-0.1,0.2-0.1c0.1-0.1,0.1-0.2,0.2-0.4h1L16.1,12h-5.4v3.2c0.4-0.1,0.7-0.2,1.1-0.2 c0.4,0,0.8-0.1,1.3-0.1c0.7,0,1.4,0.1,1.9,0.4c0.5,0.3,1,0.7,1.3,1.2c0.3,0.5,0.5,1.1,0.5,1.8c0,0.8-0.2,1.5-0.5,2 c-0.4,0.6-0.9,1-1.6,1.2c-0.7,0.3-1.5,0.4-2.5,0.4c-0.6,0-1.2-0.1-1.9-0.2C9.7,21.6,9.1,21.5,8.7,21.2"/><path class="st0" d="M133.8,205.7v2.2h-1.6c-0.1-0.6-0.4-1.1-0.7-1.4c-0.3-0.3-0.7-0.5-1.2-0.5c-0.6,0-1.1,0.2-1.4,0.6 c-0.3,0.4-0.5,1-0.5,1.8c0,0.8,0.2,1.4,0.6,1.9c0.4,0.4,1,0.6,1.7,0.6c0.3,0,0.6,0,0.9-0.1c0.3-0.1,0.6-0.1,0.9-0.2l0.8,0.5v6h-5.2 c-0.2,0-0.4,0-0.5,0c-0.1,0-0.2,0.1-0.2,0.1c-0.1,0.1-0.1,0.2-0.2,0.4h-1l0.2-2.8h5.4v-3.2c-0.4,0.1-0.7,0.2-1.1,0.2 c-0.4,0.1-0.8,0.1-1.3,0.1c-0.7,0-1.4-0.1-1.9-0.4c-0.5-0.3-1-0.7-1.3-1.2c-0.3-0.5-0.5-1.1-0.5-1.8c0-0.8,0.2-1.5,0.5-2 c0.4-0.6,0.9-1,1.6-1.2c0.7-0.3,1.5-0.4,2.5-0.4c0.6,0,1.2,0.1,1.9,0.2C132.8,205.3,133.4,205.5,133.8,205.7"/><polyline class="st1" points="38.7,219.7 5.5,219.7 5.5,7 38,7"/><polyline class="st1" points="102.4,7 136.2,7 136.2,219.7 102.2,219.7"/><line class="st1" x1="88.5" y1="219.7" x2="52.6" y2="219.7"/><line class="st1" x1="88.5" y1="7" x2="52.6" y2="7"/><path class="st2" d="M77,49.9c-0.4,0.2-0.2,0.8-0.6,1.1c-0.1-0.1-0.2-0.2-0.2-0.3c-0.3-2.2,1.8-6.1,3.9-7c1.4-0.6,2.9-0.3,3.9,0.9 c0.9,1.1,1,2.7,0.1,3.9C84,48.7,83.8,49,83.7,49c-1.3-0.2-2.5,0.6-3.8,0.3c0.8-0.8,1.6-1.6,2.4-2.4c-1.5,0.3-2.3,1.4-3.1,2.5 c-0.2,0.4-0.5,0.8-0.7,1.2c-0.1,0.2-0.3,0.4-0.5,0.4c-0.3-0.1-0.2-0.4-0.2-0.7c1-1.7,1.8-3.6,3.7-4.8C79.7,45.3,77.9,47.3,77,49.9"/><path class="st3" d="M77,49.9c-0.4,0.2-0.2,0.8-0.6,1.1c-0.1-0.1-0.2-0.2-0.2-0.3c-0.3-2.2,1.8-6.1,3.9-7c1.4-0.6,2.9-0.3,3.9,0.9 c0.9,1.1,1,2.7,0.1,3.9C84,48.7,83.8,49,83.7,49c-1.3-0.2-2.5,0.6-3.8,0.3c0.8-0.8,1.6-1.6,2.4-2.4c-1.5,0.3-2.3,1.4-3.1,2.5 c-0.2,0.4-0.5,0.8-0.7,1.2c-0.1,0.2-0.3,0.4-0.5,0.4c-0.3-0.1-0.2-0.4-0.2-0.7c1-1.7,1.8-3.6,3.7-4.8C79.7,45.3,77.9,47.3,77,49.9z"/><path class="st2" d="M68.8,49.4c0,0.3-0.3,0.4-0.5,0.3c-2-0.5-3.7-1.3-4.5-3.3c-0.9-2.3,0.7-4.8,3.2-4.9c1.4-0.1,1.9,0.4,1.7,1.7 c-0.1,0.6,0,1.1-0.2,1.7c-0.5-0.3-0.7-0.8-1.1-1.3c-0.1,1.1,0.2,1.9,0.7,2.6c0.1,0.2,0.3,0.4,0.5,0.5c0.3,0.3,0.6,0.9,0.3,1.1 c-0.4,0.3-0.7-0.2-1-0.4c-1.1-0.9-1.4-2.4-2.1-3.6c-0.1,1.6,0.3,3.1,1.6,4.2c0,0.1,0.1,0.1,0.2,0.1C67.7,48.8,68.3,49.1,68.8,49.4"/><path class="st3" d="M68.8,49.4c0,0.3-0.3,0.4-0.5,0.3c-2-0.5-3.7-1.3-4.5-3.3c-0.9-2.3,0.7-4.8,3.2-4.9c1.4-0.1,1.9,0.4,1.7,1.7 c-0.1,0.6,0,1.1-0.2,1.7c-0.5-0.3-0.7-0.8-1.1-1.3c-0.1,1.1,0.2,1.9,0.7,2.6c0.1,0.2,0.3,0.4,0.5,0.5c0.3,0.3,0.6,0.9,0.3,1.1 c-0.4,0.3-0.7-0.2-1-0.4c-1.1-0.9-1.4-2.4-2.1-3.6c-0.1,1.6,0.3,3.1,1.6,4.2c0,0.1,0.1,0.1,0.2,0.1C67.7,48.8,68.3,49.1,68.8,49.4z"/><path class="st4" d="M71.6,62.8c-3.1-0.6-5.6-2.9-6.1-5.6c-0.1-0.3-0.5-0.9,0.2-1.1c0.6-0.1,0.6,0.4,0.7,0.8 c0.3,1.1,0.7,2.2,1.4,3.1c1.3,1.6,3.2,2.2,5.2,1.5c-1.6,0-2.8-0.7-3.9-1.6c-1.1-1-1.6-2.2-1.4-3.8c1.3,2.1,2.6,4.1,5.8,3.9 c-1.1-0.4-1.8-0.9-2.5-1.4c-1.1-0.7-1.4-1.7-1.7-2.8c-0.1-0.3-0.2-0.8,0.3-0.9c0.4-0.1,0.6,0.3,0.7,0.6c0.5,1.6,1.6,2.7,3.3,3.2 c0.2,0.1,0.5,0.1,0.7,0.1c0.1,0,0.2,0,0.5-0.1c-1.3-0.5-2.1-1.3-2.9-2.2c-0.4-0.6-0.5-0.8,0.2-1.1c0.4-0.1,0.7-0.5,0.4-0.9 c-0.3-0.5-0.6-0.2-0.9,0.1c-0.7,0.6-0.9-0.4-1.5-0.6c-0.4-0.1-0.1-0.7,0.1-1c0.7-0.8,1.6-1.1,2.6-0.6c0.9,0.5,1.7,0.6,2.6-0.1 c0.8-0.6,1.9,0.1,2.2,1.2c0.8,3.3-0.5,6.5-3.4,8.5c-0.4,0.3-0.8,0.5-1,0.9C72.7,63.4,72.3,62.8,71.6,62.8"/><path class="st5" d="M71.6,62.8c-3.1-0.6-5.6-2.9-6.1-5.6c-0.1-0.3-0.5-0.9,0.2-1.1c0.6-0.1,0.6,0.4,0.7,0.8 c0.3,1.1,0.7,2.2,1.4,3.1c1.3,1.6,3.2,2.2,5.2,1.5c-1.6,0-2.8-0.7-3.9-1.6c-1.1-1-1.6-2.2-1.4-3.8c1.3,2.1,2.6,4.1,5.8,3.9 c-1.1-0.4-1.8-0.9-2.5-1.4c-1.1-0.7-1.4-1.7-1.7-2.8c-0.1-0.3-0.2-0.8,0.3-0.9c0.4-0.1,0.6,0.3,0.7,0.6c0.5,1.6,1.6,2.7,3.3,3.2 c0.2,0.1,0.5,0.1,0.7,0.1c0.1,0,0.2,0,0.5-0.1c-1.3-0.5-2.1-1.3-2.9-2.2c-0.4-0.6-0.5-0.8,0.2-1.1c0.4-0.1,0.7-0.5,0.4-0.9 c-0.3-0.5-0.6-0.2-0.9,0.1c-0.7,0.6-0.9-0.4-1.5-0.6c-0.4-0.1-0.1-0.7,0.1-1c0.7-0.8,1.6-1.1,2.6-0.6c0.9,0.5,1.7,0.6,2.6-0.1 c0.8-0.6,1.9,0.1,2.2,1.2c0.8,3.3-0.5,6.5-3.4,8.5c-0.4,0.3-0.8,0.5-1,0.9C72.7,63.4,72.3,62.8,71.6,62.8z"/><path class="st2" d="M61.4,70.6c-0.6-0.4-1.2-0.8-1.7-1.2c0.2-0.6-0.4-0.6-0.6-0.8c-2.1-1.3-3-3.5-4.1-5.5 c5.7,0.3,11.1,4.3,12.4,9.4c-2.3-2-4.2-3.9-6.7-5.3c1,1.3,2.2,2.3,3.5,3.3c0.1,0.1,0.2,0.1,0.3,0.2v0c0.1,0.3,0.3,0.5,0.6,0.6 c0.4,0.4,0.8,0.8,1.4,1.5c-1.7-0.2-2.8-1.1-4.1-1.6C62.1,70.7,62,70.3,61.4,70.6"/><path class="st3" d="M61.4,70.6c-0.6-0.4-1.2-0.8-1.7-1.2c0.2-0.6-0.4-0.6-0.6-0.8c-2.1-1.3-3-3.5-4.1-5.5 c5.7,0.3,11.1,4.3,12.4,9.4c-2.3-2-4.2-3.9-6.7-5.3c1,1.3,2.2,2.3,3.5,3.3c0.1,0.1,0.2,0.1,0.3,0.2v0c0.1,0.3,0.3,0.5,0.6,0.6 c0.4,0.4,0.8,0.8,1.4,1.5c-1.7-0.2-2.8-1.1-4.1-1.6C62.1,70.7,62,70.3,61.4,70.6z"/><path class="st2" d="M81.8,80.1c-1.2,0.9-2.3,1.9-3.3,3c-1,1.1-1.7,2.3-2.6,3.4c0.2-2.2,1.1-4.1,2.4-5.7c1.4-1.7,3.1-2.9,5.2-3.5 c0.3-0.1,0.6-0.3,0.9-0.3c0.5-0.1,1.1-0.8,1.5-0.4c0.5,0.5-0.2,1.1-0.4,1.6c-1.7,3.1-3.8,5.8-7.1,7.5C78,85.9,77.6,86.2,77,86 c1.5-2.1,3.4-3.8,5-5.8c0.1-0.1,0.2-0.2,0.2-0.3c0.2-0.1,0.3-0.2,0.4-0.4c0,0,0.1-0.1,0.1-0.1c-0.1,0-0.1,0-0.2,0 c0,0.1,0,0.1,0,0.2c-0.3-0.1-0.4,0.1-0.5,0.3C82,79.9,81.9,80,81.8,80.1"/><path class="st3" d="M81.8,80.1c-1.2,0.9-2.3,1.9-3.3,3c-1,1.1-1.7,2.3-2.6,3.4c0.2-2.2,1.1-4.1,2.4-5.7c1.4-1.7,3.1-2.9,5.2-3.5 c0.3-0.1,0.6-0.3,0.9-0.3c0.5-0.1,1.1-0.8,1.5-0.4c0.5,0.5-0.2,1.1-0.4,1.6c-1.7,3.1-3.8,5.8-7.1,7.5C78,85.9,77.6,86.2,77,86 c1.5-2.1,3.4-3.8,5-5.8c0.1-0.1,0.2-0.2,0.2-0.3c0.2-0.1,0.3-0.2,0.4-0.4c0,0,0.1-0.1,0.1-0.1c-0.1,0-0.1,0-0.2,0 c0,0.1,0,0.1,0,0.2c-0.3-0.1-0.4,0.1-0.5,0.3C82,79.9,81.9,80,81.8,80.1z"/><path class="st6" d="M71.6,62.8c0.6-0.1,1.1,0.5,1.7,0.4c-0.2,2.2-0.9,4.4-1.1,6.6c-0.6,6-0.1,11.9,1.3,17.8 c0.7,3.1,1.6,6.2,2.8,9.2c0.1,0.2,0.2,0.5,0,0.7c-0.2,0.2-0.5,0.1-0.8,0c-0.7-0.3-1.1-0.7-1.3-1.4c-2-6.1-3.3-12.3-3.9-18.7 c-0.4-4.2-0.3-8.4,0.6-12.6C71.1,64.2,71.5,63.5,71.6,62.8"/><path class="st7" d="M71.6,62.8c0.6-0.1,1.1,0.5,1.7,0.4c-0.2,2.2-0.9,4.4-1.1,6.6c-0.6,6-0.1,11.9,1.3,17.8 c0.7,3.1,1.6,6.2,2.8,9.2c0.1,0.2,0.2,0.5,0,0.7c-0.2,0.2-0.5,0.1-0.8,0c-0.7-0.3-1.1-0.7-1.3-1.4c-2-6.1-3.3-12.3-3.9-18.7 c-0.4-4.2-0.3-8.4,0.6-12.6C71.1,64.2,71.5,63.5,71.6,62.8z"/><path class="st4" d="M72.1,50.8c-1.9-2.4-2.7-5.1-1.9-8.1c0.5-1.9,2.4-3,4.7-2.8c1.9,0.1,3.2,1.2,3.4,2.9c0.1,0.4,0.1,0.7-0.2,1 c-2,2.1-3.1,4.5-2.9,7.4c0,0.1-0.1,0.2-0.1,0.3c-0.8-1-0.8-1.4,0.2-7.1c-1.2,0.8-1.4,1.8-1.6,6.9c-1.5-2.9-0.9-5.5-0.2-8 C72.3,43.7,71.7,47,72.1,50.8"/><path class="st8" d="M72.1,50.8c-1.9-2.4-2.7-5.1-1.9-8.1c0.5-1.9,2.4-3,4.7-2.8c1.9,0.1,3.2,1.2,3.4,2.9c0.1,0.4,0.1,0.7-0.2,1 c-2,2.1-3.1,4.5-2.9,7.4c0,0.1-0.1,0.2-0.1,0.3c-0.8-1-0.8-1.4,0.2-7.1c-1.2,0.8-1.4,1.8-1.6,6.9c-1.5-2.9-0.9-5.5-0.2-8 C72.3,43.7,71.7,47,72.1,50.8z"/><path class="st4" d="M60.9,82.6c1.7,1.4,3.7,2.3,5.7,2.9c0.6,0.2,1.6,0.4,1.5,1.1c-0.1,0.7-1,0.4-1.7,0.4c-2.8,0-4.9-1.2-6.8-3.1 c-0.9-0.9-1.6-1.9-2.5-2.8c4.6-2.1,8.9-0.6,10.6,3.6c-2.4-0.6-4.5-1.6-6.8-2.4c-0.1-0.2-0.3-0.2-0.5-0.1c-0.1,0-0.1,0-0.2-0.1 c0,0,0.1,0.1,0.1,0.1C60.6,82.5,60.8,82.6,60.9,82.6"/><path class="st8" d="M60.9,82.6c1.7,1.4,3.7,2.3,5.7,2.9c0.6,0.2,1.6,0.4,1.5,1.1c-0.1,0.7-1,0.4-1.7,0.4c-2.8,0-4.9-1.2-6.8-3.1 c-0.9-0.9-1.6-1.9-2.5-2.8c4.6-2.1,8.9-0.6,10.6,3.6c-2.4-0.6-4.5-1.6-6.8-2.4c-0.1-0.2-0.3-0.2-0.5-0.1c-0.1,0-0.1,0-0.2-0.1 c0,0,0.1,0.1,0.1,0.1C60.6,82.5,60.8,82.6,60.9,82.6z"/><path class="st6" d="M65.9,50.9c-0.3,0.7,0.9,0.9,0.4,1.4c-0.4,0.4-1-0.1-1.5-0.3c-0.2-0.1-0.5-0.3-0.6,0c-0.2,0.3,0.2,0.4,0.3,0.5 c0.9,0.6,1.9,0.7,3,0.6c0.5-0.1,1-0.1,1.4,0.4c0.4,0.4,0.4,0.9-0.2,1.1c-2.3,0.9-6.1,0.8-7.7-2.4c-0.6-1.1-0.5-2.2,0.2-3.3 c0.8-1.4,1.4-1.5,2.6-0.3c1.6,1.6,3.5,2.3,5.7,2.4c0.6,0,1.3,0,1.2,0.8c-0.1,0.8-0.7,0.8-1.5,0.7C68,52.1,66.8,51.8,65.9,50.9"/><path class="st7" d="M65.9,50.9c-0.3,0.7,0.9,0.9,0.4,1.4c-0.4,0.4-1-0.1-1.5-0.3c-0.2-0.1-0.5-0.3-0.6,0c-0.2,0.3,0.2,0.4,0.3,0.5 c0.9,0.6,1.9,0.7,3,0.6c0.5-0.1,1-0.1,1.4,0.4c0.4,0.4,0.4,0.9-0.2,1.1c-2.3,0.9-6.1,0.8-7.7-2.4c-0.6-1.1-0.5-2.2,0.2-3.3 c0.8-1.4,1.4-1.5,2.6-0.3c1.6,1.6,3.5,2.3,5.7,2.4c0.6,0,1.3,0,1.2,0.8c-0.1,0.8-0.7,0.8-1.5,0.7C68,52.1,66.8,51.8,65.9,50.9z"/><path class="st4" d="M73.9,76c1.8-3.4,5.1-5.5,6.4-8.9c-1.9,2.3-4,4.4-6.2,6.5c-0.1-2.6,1.9-5.5,8-9.4C83.3,67.7,79.3,73.5,73.9,76"/><path class="st8" d="M73.9,76c1.8-3.4,5.1-5.5,6.4-8.9c-1.9,2.3-4,4.4-6.2,6.5c-0.1-2.6,1.9-5.5,8-9.4C83.3,67.7,79.3,73.5,73.9,76 z"/><path class="st6" d="M84.6,53.7c-1.1-0.5-2.2,0.2-3.5-0.2c1.3-0.7,2.5-1.2,3.8-2.3c-1.6,0-2.6,0.8-3.8,1.1 c-0.6,0.1-1.1,0.4-1.7,0.6c-0.3,0.1-0.6,0.1-0.8-0.2c-0.1-0.3-0.2-0.6,0-0.9c1.2-1.7,4.9-2.4,6.7-1.3c1.3,0.8,1.7,2.2,1.2,3.8 C86,55.6,85,56,83.4,56c-1.3,0-2.5-0.7-3.8-0.7c-0.3,0-0.5-0.1-0.5-0.4c0-0.2,0.1-0.3,0.3-0.4c0.4-0.2,0.9-0.2,1.3-0.2 C82.1,54.4,83.3,54,84.6,53.7"/><path class="st7" d="M84.6,53.7c-1.1-0.5-2.2,0.2-3.5-0.2c1.3-0.7,2.5-1.2,3.8-2.3c-1.6,0-2.6,0.8-3.8,1.1 c-0.6,0.1-1.1,0.4-1.7,0.6c-0.3,0.1-0.6,0.1-0.8-0.2c-0.1-0.3-0.2-0.6,0-0.9c1.2-1.7,4.9-2.4,6.7-1.3c1.3,0.8,1.7,2.2,1.2,3.8 C86,55.6,85,56,83.4,56c-1.3,0-2.5-0.7-3.8-0.7c-0.3,0-0.5-0.1-0.5-0.4c0-0.2,0.1-0.3,0.3-0.4c0.4-0.2,0.9-0.2,1.3-0.2 C82.1,54.4,83.3,54,84.6,53.7z"/><path class="st0" d="M73.2,71.4c0-0.3-0.1-0.5-0.1-0.8c0.1-2.2,0.5-4.4,1.1-6.5c0.2-0.7,0.6-1.3,1.2-1.8c1.7-1.4,3-3.1,3.4-5.3 c0.1-0.9,0.6-1,1.3-0.7c1.1,0.4,2.2,0.6,3.3,0.7c0.7,0.1,1.5,0.2,2.1-0.2c2.6-1.7,3.3-4.6,0.8-6.9c-0.9-0.8-1-1.4-0.7-2.4 c0.8-3.4-1.7-5.8-5.2-4.9c-0.7,0.2-0.8-0.1-1-0.6c-1.6-4.6-6.5-4.1-8.9-1.7c-0.6,0.6-1.1,0.7-1.8,0.3c-2.2-0.9-4.5-0.2-5.7,1.8 c-0.6,1-0.6,2.1-0.6,3.1c0,0.8-0.2,1.1-0.9,1.4c-1.5,0.8-2.2,2-2.2,3.7c-0.1,2.4,1.4,3.8,3.4,4.6c1.1,0.4,1.6,1.2,1.9,2.3 c0.6,2.6,2.2,4.5,4.7,5.5c0.8,0.3,0.9,0.8,0.8,1.5c-0.5,2-0.9,4.1-1.3,6.1c0,0.2,0.1,0.5-0.2,0.6c-0.3,0-0.4-0.2-0.5-0.4 c-0.5-0.8-1.1-1.7-1.6-2.5c-1.7-2.5-3.8-4.4-6.9-5c-2-0.4-4-1-5.8-2c-0.1-0.1-0.3-0.1-0.4,0.1c1.9,5.9,5.9,10,11.7,12.4 c4.1,1.7,3.5,1.3,4.2,5.5c0.3,1.8,0.4,3.5,0.7,5.4c-0.5-0.1-0.7-0.4-0.9-0.7c-0.6-1-1.4-1.8-2.2-2.5c-2.1-1.8-4.4-3-7.3-2.2 c-1.7,0.5-3.4,0.9-5.3,0.5c0,0.6,0.4,0.7,0.7,0.9c1.5,1,2.7,2.2,3.9,3.5c2.5,2.9,5.5,4.3,9.5,3.8c1.2-0.2,2.2,0.5,2.6,1.6 c0.6,1.9,1.2,3.8,1.9,5.7c0.3,0.9,0.4,2,1.5,2.5c0.9,0.4,1.8,0.9,2.8,1.3c0.3,0.1,0.6,0.4,0.9,0.1c0.3-0.3,0.1-0.6,0-0.9 c-0.9-2.6-2-5-2.6-7.6C75,90.3,75,90,75.3,89.6c0.8-1,1.6-2,2.8-2.6c2.2-1.1,4.1-2.7,5.7-4.5c1.8-2,2.9-4.4,3.7-7.2 c-1.9,0.6-3.6,1.3-5.4,1.7c-2.7,0.7-4.4,2.4-5.5,4.8c-0.6,1.3-1,2.6-1.5,3.9c-0.1,0.5-0.2,1-0.8,1.3c-0.7-1.5-0.6-3.2-1.1-4.7 c-1-2.9,0.1-4.9,2.8-6.4c1.7-0.9,3.3-2,4.5-3.5c1.7-2.3,2.3-4.9,2.6-7.7c0.1-1,0.3-2,0-3.1c-0.5,0.7-1,1.2-1.6,1.6 c-1.1,1.1-2.4,2-3.7,2.8C75.8,67.3,74.3,69.2,73.2,71.4 M71.6,62.8c-3.1-0.6-5.6-2.9-6.1-5.6c-0.1-0.3-0.5-0.9,0.2-1.1 c0.6-0.1,0.6,0.4,0.7,0.8c0.3,1.1,0.7,2.2,1.4,3.1c1.3,1.6,3.2,2.2,5.2,1.5c-1.6,0-2.8-0.7-3.9-1.6c-1.1-1-1.6-2.2-1.4-3.8 c1.3,2.1,2.6,4.1,5.8,3.9c-1.1-0.4-1.8-0.9-2.5-1.4c-1.1-0.7-1.4-1.7-1.7-2.8c-0.1-0.3-0.2-0.8,0.3-0.9c0.4-0.1,0.6,0.3,0.7,0.6 c0.5,1.6,1.6,2.7,3.3,3.2c0.2,0.1,0.5,0.1,0.7,0.1c0.1,0,0.2,0,0.5-0.1c-1.3-0.5-2.1-1.3-2.9-2.2c-0.4-0.6-0.5-0.8,0.2-1.1 c0.4-0.1,0.7-0.5,0.4-0.9c-0.3-0.5-0.6-0.2-0.9,0.1c-0.7,0.6-0.9-0.4-1.5-0.6c-0.4-0.1-0.2-0.7,0.1-1c0.7-0.8,1.6-1.1,2.6-0.6 c0.9,0.5,1.7,0.6,2.6-0.1c0.8-0.6,1.9,0.1,2.2,1.2c0.8,3.3-0.5,6.5-3.4,8.5c-0.4,0.3-0.8,0.5-1,0.9C72.7,63.4,72.3,62.8,71.6,62.8 M71.6,62.8c0.6-0.1,1.1,0.5,1.7,0.4c-0.2,2.2-0.9,4.4-1.1,6.6c-0.6,6-0.1,11.9,1.3,17.8c0.7,3.1,1.6,6.2,2.8,9.2 c0.1,0.2,0.2,0.5,0,0.7c-0.2,0.2-0.5,0.1-0.8,0c-0.7-0.3-1.1-0.7-1.3-1.4c-2-6.1-3.3-12.3-3.9-18.7c-0.4-4.2-0.3-8.4,0.6-12.6 C71.1,64.2,71.5,63.5,71.6,62.8 M72.1,50.8c-1.9-2.4-2.7-5.1-1.9-8.1c0.5-1.9,2.4-3,4.7-2.8c1.9,0.1,3.2,1.2,3.4,2.9 c0.1,0.4,0.1,0.7-0.2,1c-1.9,2.1-3.1,4.5-2.9,7.4c0,0.1-0.1,0.2-0.1,0.3c-0.8-1-0.8-1.4,0.2-7.1c-1.2,0.8-1.4,1.8-1.6,6.9 c-1.5-2.9-0.9-5.5-0.2-8C72.3,43.7,71.7,47,72.1,50.8 M61.4,70.6c-0.6-0.4-1.2-0.8-1.7-1.2c0.2-0.6-0.4-0.6-0.6-0.8 c-2.1-1.3-3-3.5-4.1-5.5c5.7,0.3,11.1,4.3,12.4,9.4c-2.3-2-4.2-3.9-6.7-5.3c1,1.3,2.2,2.3,3.5,3.3c0.1,0.1,0.2,0.1,0.3,0.2l0,0 c0.1,0.3,0.3,0.5,0.6,0.6c0.4,0.4,0.8,0.8,1.4,1.5c-1.7-0.2-2.8-1.1-4.1-1.6C62.1,70.7,62,70.3,61.4,70.6 M59.6,66.3 c0,0.4,0.2,0.6,0.5,0.6c0,0,0.2-0.1,0.2-0.2C60.2,66.4,59.9,66.3,59.6,66.3 M60.9,82.6c1.7,1.4,3.7,2.3,5.7,2.9 c0.6,0.2,1.6,0.4,1.5,1.1c-0.1,0.7-1,0.4-1.7,0.4c-2.8,0-4.9-1.2-6.8-3.1c-0.9-0.9-1.6-1.9-2.5-2.8c4.6-2.1,8.9-0.6,10.6,3.6 c-2.4-0.6-4.5-1.6-6.8-2.4c-0.1-0.2-0.3-0.2-0.5-0.1c-0.1,0-0.1,0-0.2-0.1c0,0,0.1,0.1,0.1,0.1C60.6,82.5,60.8,82.6,60.9,82.6 M65.9,50.9c-0.3,0.7,0.9,0.9,0.4,1.4c-0.4,0.4-1-0.1-1.5-0.3c-0.2-0.1-0.5-0.3-0.6,0c-0.2,0.3,0.2,0.4,0.3,0.5 c0.9,0.6,1.9,0.7,3,0.6c0.5-0.1,1-0.1,1.4,0.4c0.4,0.4,0.4,0.9-0.2,1.1c-2.3,0.9-6.1,0.8-7.7-2.4c-0.6-1.1-0.5-2.2,0.2-3.3 c0.8-1.4,1.4-1.5,2.6-0.3c1.6,1.6,3.5,2.3,5.7,2.4c0.6,0,1.3,0,1.2,0.8c-0.1,0.8-0.7,0.8-1.5,0.7C68,52.1,66.8,51.8,65.9,50.9 M81.8,80.1c-1.2,0.9-2.3,1.9-3.3,3c-1,1.1-1.7,2.3-2.6,3.4c0.2-2.2,1.1-4.1,2.4-5.7c1.4-1.7,3.1-2.9,5.2-3.5 c0.3-0.1,0.6-0.3,0.9-0.3c0.5-0.1,1.1-0.8,1.5-0.4c0.5,0.5-0.2,1.1-0.4,1.6c-1.7,3.1-3.8,5.8-7.1,7.5C78,85.9,77.6,86.2,77,86 c1.5-2.1,3.4-3.8,5-5.8c0.1-0.1,0.1-0.2,0.2-0.3c0.2-0.1,0.3-0.2,0.4-0.4c0,0,0.1-0.1,0.1-0.1c-0.1,0-0.1,0-0.2,0 c0,0.1,0,0.1,0,0.2c-0.3-0.1-0.4,0.1-0.5,0.3C82,79.9,81.9,80,81.8,80.1 M73.9,76c1.8-3.4,5.1-5.5,6.4-8.9c-1.9,2.3-4,4.4-6.2,6.5 c-0.1-2.6,1.9-5.5,8-9.4C83.3,67.7,79.3,73.5,73.9,76 M77,49.9c-0.4,0.2-0.2,0.8-0.6,1.1c-0.1-0.1-0.2-0.2-0.2-0.3 c-0.3-2.2,1.8-6.1,3.9-7c1.4-0.6,2.9-0.3,3.9,0.9c0.9,1.1,1,2.7,0.1,3.9C84,48.7,83.8,49,83.7,49c-1.3-0.2-2.5,0.6-3.8,0.3 c0.8-0.8,1.6-1.6,2.4-2.4c-1.5,0.3-2.3,1.4-3.1,2.5c-0.2,0.4-0.5,0.8-0.7,1.2c-0.1,0.2-0.3,0.4-0.5,0.3c-0.3-0.1-0.2-0.4-0.2-0.7 c1-1.7,1.8-3.6,3.7-4.8C79.7,45.3,77.9,47.3,77,49.9 M84.6,53.7c-1.1-0.5-2.2,0.2-3.5-0.2c1.3-0.7,2.5-1.2,3.8-2.3 c-1.6,0-2.6,0.8-3.8,1.1c-0.6,0.1-1.1,0.4-1.7,0.6c-0.3,0.1-0.6,0.1-0.8-0.2c-0.1-0.3-0.2-0.6,0-0.9c1.2-1.7,4.9-2.4,6.7-1.3 c1.3,0.8,1.7,2.2,1.2,3.8C86,55.6,85,56,83.4,56c-1.3,0-2.5-0.7-3.8-0.7c-0.3,0-0.5-0.1-0.5-0.4c0-0.2,0.1-0.3,0.3-0.4 c0.4-0.2,0.9-0.2,1.3-0.2C82.1,54.4,83.3,54,84.6,53.7 M68.8,49.4c0,0.3-0.3,0.4-0.5,0.3c-2-0.5-3.7-1.3-4.5-3.3 c-0.9-2.3,0.7-4.8,3.2-4.9c1.4-0.1,1.9,0.4,1.7,1.7c-0.1,0.6,0,1.1-0.2,1.7c-0.5-0.3-0.7-0.8-1.1-1.3c-0.1,1.1,0.2,1.9,0.7,2.6 c0.1,0.2,0.3,0.4,0.5,0.5c0.3,0.3,0.6,0.9,0.3,1.1c-0.4,0.3-0.7-0.2-1-0.4c-1.1-0.9-1.4-2.4-2.1-3.6c-0.1,1.6,0.3,3.1,1.6,4.2 c0,0.1,0.1,0.1,0.2,0.1C67.7,48.8,68.3,49.1,68.8,49.4"/><path class="st2" d="M65.8,180.4c0.4-0.2,0.2-0.8,0.6-1.1c0.1,0.1,0.2,0.2,0.2,0.3c0.3,2.2-1.8,6.1-3.9,7c-1.4,0.6-2.9,0.3-3.9-0.9 c-0.9-1.1-1-2.7-0.1-3.9c0.1-0.2,0.3-0.5,0.5-0.5c1.3,0.2,2.5-0.6,3.8-0.3c-0.8,0.8-1.6,1.6-2.4,2.4c1.5-0.3,2.3-1.4,3.1-2.5 c0.2-0.4,0.5-0.8,0.7-1.2c0.1-0.2,0.3-0.4,0.5-0.4c0.3,0.1,0.2,0.4,0.2,0.7c-1,1.7-1.8,3.6-3.7,4.8C63.1,185,64.9,183,65.8,180.4"/><path class="st3" d="M65.8,180.4c0.4-0.2,0.2-0.8,0.6-1.1c0.1,0.1,0.2,0.2,0.2,0.3c0.3,2.2-1.8,6.1-3.9,7c-1.4,0.6-2.9,0.3-3.9-0.9 c-0.9-1.1-1-2.7-0.1-3.9c0.1-0.2,0.3-0.5,0.5-0.5c1.3,0.2,2.5-0.6,3.8-0.3c-0.8,0.8-1.6,1.6-2.4,2.4c1.5-0.3,2.3-1.4,3.1-2.5 c0.2-0.4,0.5-0.8,0.7-1.2c0.1-0.2,0.3-0.4,0.5-0.4c0.3,0.1,0.2,0.4,0.2,0.7c-1,1.7-1.8,3.6-3.7,4.8C63.1,185,64.9,183,65.8,180.4z"/><path class="st2" d="M74,180.9c0-0.3,0.3-0.4,0.5-0.3c2,0.5,3.7,1.3,4.5,3.3c0.9,2.3-0.7,4.8-3.2,4.9c-1.4,0.1-1.9-0.4-1.7-1.7 c0.1-0.6,0-1.1,0.2-1.7c0.5,0.3,0.7,0.8,1.1,1.3c0.1-1.1-0.2-1.9-0.7-2.6c-0.1-0.2-0.3-0.4-0.5-0.5c-0.3-0.3-0.6-0.9-0.3-1.1 c0.4-0.3,0.7,0.2,1,0.4c1.1,0.9,1.4,2.4,2.1,3.6c0.1-1.6-0.3-3.1-1.6-4.2c0-0.1-0.1-0.1-0.2-0.1C75.1,181.5,74.6,181.2,74,180.9"/><path class="st3" d="M74,180.9c0-0.3,0.3-0.4,0.5-0.3c2,0.5,3.7,1.3,4.5,3.3c0.9,2.3-0.7,4.8-3.2,4.9c-1.4,0.1-1.9-0.4-1.7-1.7 c0.1-0.6,0-1.1,0.2-1.7c0.5,0.3,0.7,0.8,1.1,1.3c0.1-1.1-0.2-1.9-0.7-2.6c-0.1-0.2-0.3-0.4-0.5-0.5c-0.3-0.3-0.6-0.9-0.3-1.1 c0.4-0.3,0.7,0.2,1,0.4c1.1,0.9,1.4,2.4,2.1,3.6c0.1-1.6-0.3-3.1-1.6-4.2c0-0.1-0.1-0.1-0.2-0.1C75.1,181.5,74.6,181.2,74,180.9z"/><path class="st4" d="M71.2,167.4c3.1,0.6,5.6,2.9,6.1,5.6c0.1,0.3,0.5,0.9-0.2,1.1c-0.6,0.1-0.6-0.4-0.7-0.8 c-0.3-1.1-0.7-2.2-1.4-3.1c-1.3-1.6-3.2-2.2-5.2-1.5c1.6,0,2.8,0.7,3.9,1.6c1.1,1,1.6,2.2,1.4,3.8c-1.3-2.1-2.6-4.1-5.8-3.9 c1.1,0.4,1.8,0.9,2.5,1.4c1.1,0.7,1.4,1.7,1.7,2.8c0.1,0.3,0.2,0.8-0.3,0.9c-0.4,0.1-0.6-0.3-0.7-0.6c-0.5-1.6-1.6-2.7-3.3-3.2 c-0.2-0.1-0.5-0.1-0.7-0.1c-0.1,0-0.2,0-0.5,0.1c1.3,0.5,2.1,1.3,2.8,2.2c0.4,0.6,0.5,0.8-0.2,1.1c-0.4,0.1-0.7,0.5-0.4,0.9 c0.3,0.5,0.6,0.2,0.9-0.1c0.7-0.6,0.9,0.4,1.5,0.6c0.4,0.1,0.2,0.7-0.1,1c-0.7,0.8-1.6,1.1-2.6,0.6c-0.9-0.5-1.7-0.6-2.6,0.1 c-0.8,0.6-1.9-0.1-2.2-1.2c-0.8-3.3,0.5-6.5,3.4-8.5c0.4-0.3,0.8-0.5,1-0.9C70.1,166.9,70.6,167.5,71.2,167.4"/><path class="st5" d="M71.2,167.4c3.1,0.6,5.6,2.9,6.1,5.6c0.1,0.3,0.5,0.9-0.2,1.1c-0.6,0.1-0.6-0.4-0.7-0.8 c-0.3-1.1-0.7-2.2-1.4-3.1c-1.3-1.6-3.2-2.2-5.2-1.5c1.6,0,2.8,0.7,3.9,1.6c1.1,1,1.6,2.2,1.4,3.8c-1.3-2.1-2.6-4.1-5.8-3.9 c1.1,0.4,1.8,0.9,2.5,1.4c1.1,0.7,1.4,1.7,1.7,2.8c0.1,0.3,0.2,0.8-0.3,0.9c-0.4,0.1-0.6-0.3-0.7-0.6c-0.5-1.6-1.6-2.7-3.3-3.2 c-0.2-0.1-0.5-0.1-0.7-0.1c-0.1,0-0.2,0-0.5,0.1c1.3,0.5,2.1,1.3,2.8,2.2c0.4,0.6,0.5,0.8-0.2,1.1c-0.4,0.1-0.7,0.5-0.4,0.9 c0.3,0.5,0.6,0.2,0.9-0.1c0.7-0.6,0.9,0.4,1.5,0.6c0.4,0.1,0.2,0.7-0.1,1c-0.7,0.8-1.6,1.1-2.6,0.6c-0.9-0.5-1.7-0.6-2.6,0.1 c-0.8,0.6-1.9-0.1-2.2-1.2c-0.8-3.3,0.5-6.5,3.4-8.5c0.4-0.3,0.8-0.5,1-0.9C70.1,166.9,70.6,167.5,71.2,167.4z"/><path class="st2" d="M81.4,159.7c0.6,0.4,1.2,0.8,1.7,1.2c-0.2,0.6,0.4,0.6,0.6,0.8c2.1,1.3,3,3.5,4.1,5.5 c-5.7-0.3-11.1-4.3-12.4-9.4c2.3,2,4.2,3.9,6.7,5.3c-1-1.3-2.2-2.3-3.5-3.3c-0.1-0.1-0.2-0.1-0.3-0.2v0c-0.1-0.3-0.3-0.5-0.6-0.6 c-0.4-0.4-0.8-0.8-1.4-1.5c1.7,0.2,2.8,1.1,4.1,1.6C80.7,159.6,80.9,160,81.4,159.7"/><path class="st3" d="M81.4,159.7c0.6,0.4,1.2,0.8,1.7,1.2c-0.2,0.6,0.4,0.6,0.6,0.8c2.1,1.3,3,3.5,4.1,5.5 c-5.7-0.3-11.1-4.3-12.4-9.4c2.3,2,4.2,3.9,6.7,5.3c-1-1.3-2.2-2.3-3.5-3.3c-0.1-0.1-0.2-0.1-0.3-0.2v0c-0.1-0.3-0.3-0.5-0.6-0.6 c-0.4-0.4-0.8-0.8-1.4-1.5c1.7,0.2,2.8,1.1,4.1,1.6C80.7,159.6,80.9,160,81.4,159.7z"/><path class="st2" d="M61,150.2c1.2-0.9,2.3-1.9,3.3-3c1-1.1,1.7-2.3,2.6-3.4c-0.2,2.2-1.1,4.1-2.4,5.7c-1.4,1.7-3.1,2.9-5.2,3.5 c-0.3,0.1-0.6,0.3-0.9,0.3c-0.5,0.1-1.1,0.8-1.5,0.4c-0.5-0.5,0.2-1.1,0.4-1.6c1.7-3.1,3.8-5.8,7.1-7.5c0.4-0.2,0.7-0.5,1.4-0.3 c-1.5,2.1-3.4,3.8-5,5.8c-0.1,0.1-0.2,0.2-0.2,0.3c-0.2,0.1-0.3,0.2-0.4,0.4c0,0-0.1,0.1-0.1,0.1c0.1,0,0.1,0,0.2,0 c0-0.1,0-0.1,0-0.2c0.3,0.1,0.4-0.1,0.5-0.3C60.9,150.3,61,150.3,61,150.2"/><path class="st3" d="M61,150.2c1.2-0.9,2.3-1.9,3.3-3c1-1.1,1.7-2.3,2.6-3.4c-0.2,2.2-1.1,4.1-2.4,5.7c-1.4,1.7-3.1,2.9-5.2,3.5 c-0.3,0.1-0.6,0.3-0.9,0.3c-0.5,0.1-1.1,0.8-1.5,0.4c-0.5-0.5,0.2-1.1,0.4-1.6c1.7-3.1,3.8-5.8,7.1-7.5c0.4-0.2,0.7-0.5,1.4-0.3 c-1.5,2.1-3.4,3.8-5,5.8c-0.1,0.1-0.2,0.2-0.2,0.3c-0.2,0.1-0.3,0.2-0.4,0.4c0,0-0.1,0.1-0.1,0.1c0.1,0,0.1,0,0.2,0 c0-0.1,0-0.1,0-0.2c0.3,0.1,0.4-0.1,0.5-0.3C60.9,150.3,61,150.3,61,150.2z"/><path class="st6" d="M71.2,167.4c-0.6,0.1-1.1-0.5-1.7-0.4c0.2-2.2,0.9-4.4,1.1-6.6c0.6-6,0.1-11.9-1.3-17.8 c-0.7-3.1-1.6-6.2-2.8-9.2c-0.1-0.2-0.2-0.5,0-0.7c0.2-0.2,0.5-0.1,0.8,0c0.7,0.3,1.1,0.7,1.3,1.4c2,6.1,3.3,12.3,3.9,18.7 c0.4,4.2,0.3,8.4-0.6,12.6C71.7,166.1,71.4,166.7,71.2,167.4"/><path class="st7" d="M71.2,167.4c-0.6,0.1-1.1-0.5-1.7-0.4c0.2-2.2,0.9-4.4,1.1-6.6c0.6-6,0.1-11.9-1.3-17.8 c-0.7-3.1-1.6-6.2-2.8-9.2c-0.1-0.2-0.2-0.5,0-0.7c0.2-0.2,0.5-0.1,0.8,0c0.7,0.3,1.1,0.7,1.3,1.4c2,6.1,3.3,12.3,3.9,18.7 c0.4,4.2,0.3,8.4-0.6,12.6C71.7,166.1,71.4,166.7,71.2,167.4z"/><path class="st4" d="M70.7,179.4c1.9,2.4,2.7,5.1,1.9,8.1c-0.5,1.9-2.4,3-4.7,2.8c-1.9-0.1-3.2-1.2-3.4-2.9c-0.1-0.4-0.1-0.7,0.2-1 c2-2.1,3.1-4.5,2.9-7.4c0-0.1,0.1-0.2,0.1-0.3c0.8,1,0.8,1.4-0.2,7.1c1.2-0.8,1.4-1.8,1.6-6.9c1.5,2.9,0.9,5.5,0.2,8 C70.5,186.5,71.1,183.2,70.7,179.4"/><path class="st8" d="M70.7,179.4c1.9,2.4,2.7,5.1,1.9,8.1c-0.5,1.9-2.4,3-4.7,2.8c-1.9-0.1-3.2-1.2-3.4-2.9c-0.1-0.4-0.1-0.7,0.2-1 c2-2.1,3.1-4.5,2.9-7.4c0-0.1,0.1-0.2,0.1-0.3c0.8,1,0.8,1.4-0.2,7.1c1.2-0.8,1.4-1.8,1.6-6.9c1.5,2.9,0.9,5.5,0.2,8 C70.5,186.5,71.1,183.2,70.7,179.4z"/><path class="st4" d="M81.9,147.7c-1.7-1.4-3.7-2.3-5.7-2.9c-0.6-0.2-1.6-0.4-1.5-1.1c0.1-0.7,1-0.4,1.7-0.4c2.8,0,4.9,1.2,6.8,3.1 c0.9,0.9,1.6,1.9,2.5,2.8c-4.6,2.1-8.9,0.6-10.6-3.6c2.4,0.6,4.5,1.6,6.8,2.4c0.1,0.2,0.3,0.2,0.5,0.1c0.1,0,0.1,0,0.2,0.1 c0,0-0.1-0.1-0.1-0.1C82.2,147.8,82.1,147.7,81.9,147.7"/><path class="st8" d="M81.9,147.7c-1.7-1.4-3.7-2.3-5.7-2.9c-0.6-0.2-1.6-0.4-1.5-1.1c0.1-0.7,1-0.4,1.7-0.4c2.8,0,4.9,1.2,6.8,3.1 c0.9,0.9,1.6,1.9,2.5,2.8c-4.6,2.1-8.9,0.6-10.6-3.6c2.4,0.6,4.5,1.6,6.8,2.4c0.1,0.2,0.3,0.2,0.5,0.1c0.1,0,0.1,0,0.2,0.1 c0,0-0.1-0.1-0.1-0.1C82.2,147.8,82.1,147.7,81.9,147.7z"/><path class="st6" d="M76.9,179.3c0.3-0.7-0.9-0.9-0.4-1.4c0.4-0.4,1,0.1,1.5,0.3c0.2,0.1,0.5,0.3,0.6,0c0.2-0.3-0.2-0.4-0.3-0.5 c-0.9-0.6-1.9-0.7-3-0.6c-0.5,0.1-1,0.1-1.4-0.4c-0.4-0.4-0.4-0.9,0.2-1.1c2.3-0.9,6.1-0.8,7.7,2.4c0.6,1.1,0.5,2.2-0.2,3.3 c-0.8,1.4-1.4,1.5-2.6,0.3c-1.6-1.6-3.5-2.3-5.7-2.4c-0.6,0-1.3,0-1.2-0.8c0.1-0.8,0.7-0.8,1.5-0.7C74.9,178.1,76,178.5,76.9,179.3"/><path class="st7" d="M76.9,179.3c0.3-0.7-0.9-0.9-0.4-1.4c0.4-0.4,1,0.1,1.5,0.3c0.2,0.1,0.5,0.3,0.6,0c0.2-0.3-0.2-0.4-0.3-0.5 c-0.9-0.6-1.9-0.7-3-0.6c-0.5,0.1-1,0.1-1.4-0.4c-0.4-0.4-0.4-0.9,0.2-1.1c2.3-0.9,6.1-0.8,7.7,2.4c0.6,1.1,0.5,2.2-0.2,3.3 c-0.8,1.4-1.4,1.5-2.6,0.3c-1.6-1.6-3.5-2.3-5.7-2.4c-0.6,0-1.3,0-1.2-0.8c0.1-0.8,0.7-0.8,1.5-0.7C74.9,178.1,76,178.5,76.9,179.3 z"/><path class="st4" d="M68.9,154.3c-1.8,3.4-5.1,5.5-6.4,8.9c1.9-2.3,4-4.4,6.2-6.5c0.1,2.6-1.9,5.5-8,9.4 C59.5,162.6,63.5,156.7,68.9,154.3"/><path class="st8" d="M68.9,154.3c-1.8,3.4-5.1,5.5-6.4,8.9c1.9-2.3,4-4.4,6.2-6.5c0.1,2.6-1.9,5.5-8,9.4 C59.5,162.6,63.5,156.7,68.9,154.3z"/><path class="st6" d="M58.3,176.5c1.1,0.5,2.2-0.2,3.5,0.2c-1.3,0.7-2.5,1.2-3.8,2.3c1.6,0,2.6-0.8,3.8-1.1c0.6-0.1,1.1-0.4,1.7-0.6 c0.3-0.1,0.6-0.1,0.8,0.2c0.1,0.3,0.2,0.6,0,0.9c-1.2,1.7-4.9,2.4-6.7,1.3c-1.3-0.8-1.7-2.2-1.2-3.8c0.4-1.2,1.5-1.7,3.1-1.6 c1.3,0,2.5,0.7,3.8,0.7c0.3,0,0.5,0.1,0.5,0.4c0,0.2-0.1,0.3-0.3,0.4c-0.4,0.2-0.9,0.2-1.3,0.2C60.8,175.9,59.5,176.2,58.3,176.5"/><path class="st7" d="M58.3,176.5c1.1,0.5,2.2-0.2,3.5,0.2c-1.3,0.7-2.5,1.2-3.8,2.3c1.6,0,2.6-0.8,3.8-1.1c0.6-0.1,1.1-0.4,1.7-0.6 c0.3-0.1,0.6-0.1,0.8,0.2c0.1,0.3,0.2,0.6,0,0.9c-1.2,1.7-4.9,2.4-6.7,1.3c-1.3-0.8-1.7-2.2-1.2-3.8c0.4-1.2,1.5-1.7,3.1-1.6 c1.3,0,2.5,0.7,3.8,0.7c0.3,0,0.5,0.1,0.5,0.4c0,0.2-0.1,0.3-0.3,0.4c-0.4,0.2-0.9,0.2-1.3,0.2C60.8,175.9,59.5,176.2,58.3,176.5z"/><path class="st0" d="M69.6,158.8c0,0.3,0.1,0.5,0.1,0.8c-0.1,2.2-0.5,4.4-1.1,6.5c-0.2,0.7-0.6,1.3-1.2,1.8c-1.7,1.4-3,3.1-3.4,5.3 c-0.1,0.9-0.6,1-1.3,0.7c-1.1-0.4-2.2-0.6-3.3-0.7c-0.7-0.1-1.5-0.2-2.1,0.2c-2.6,1.7-3.3,4.6-0.8,6.9c0.9,0.8,1,1.4,0.7,2.4 c-0.8,3.4,1.7,5.8,5.2,4.9c0.7-0.2,0.8,0.1,1,0.6c1.6,4.6,6.5,4.1,8.9,1.7c0.6-0.6,1.1-0.7,1.8-0.3c2.2,0.9,4.5,0.2,5.7-1.8 c0.6-1,0.6-2.1,0.6-3.1c0-0.8,0.2-1.1,0.9-1.4c1.5-0.8,2.2-2,2.2-3.7c0.1-2.4-1.4-3.8-3.4-4.6c-1.1-0.4-1.6-1.2-1.9-2.3 c-0.6-2.6-2.2-4.5-4.7-5.5c-0.8-0.3-0.9-0.8-0.8-1.5c0.5-2,0.9-4.1,1.3-6.1c0-0.2-0.1-0.5,0.2-0.6c0.3,0,0.4,0.2,0.5,0.4 c0.5,0.8,1.1,1.7,1.6,2.5c1.7,2.5,3.8,4.4,6.9,5c2,0.4,4,1,5.8,2c0.1,0.1,0.3,0.1,0.4-0.1c-1.9-5.9-5.9-10-11.7-12.4 c-4.1-1.7-3.5-1.3-4.2-5.5c-0.3-1.8-0.4-3.5-0.7-5.4c0.5,0.1,0.7,0.4,0.9,0.7c0.6,1,1.4,1.8,2.2,2.5c2.1,1.8,4.4,3,7.3,2.2 c1.7-0.5,3.4-0.9,5.3-0.5c0-0.6-0.4-0.7-0.7-0.9c-1.5-1-2.7-2.2-3.9-3.5c-2.4-2.9-5.5-4.3-9.5-3.8c-1.2,0.2-2.2-0.5-2.6-1.6 c-0.6-1.9-1.2-3.8-1.9-5.7c-0.3-0.9-0.4-2-1.5-2.5c-0.9-0.4-1.8-0.9-2.8-1.3c-0.3-0.1-0.6-0.4-0.9-0.1c-0.3,0.3-0.1,0.6,0,0.9 c0.9,2.6,2,5,2.6,7.6c0.1,0.5,0.2,0.8-0.1,1.2c-0.8,1-1.6,2-2.8,2.6c-2.2,1.1-4.1,2.7-5.7,4.5c-1.8,2-2.9,4.4-3.7,7.2 c1.9-0.6,3.6-1.3,5.4-1.7c2.7-0.7,4.4-2.4,5.5-4.8c0.6-1.3,1-2.6,1.5-3.9c0.1-0.5,0.2-1,0.8-1.3c0.7,1.5,0.6,3.2,1.1,4.7 c1,2.9-0.1,4.9-2.8,6.4c-1.7,0.9-3.3,2-4.5,3.5c-1.7,2.3-2.3,4.9-2.6,7.7c-0.1,1-0.3,2,0,3.1c0.5-0.7,1-1.2,1.6-1.6 c1.1-1.1,2.4-2,3.7-2.8C67.1,162.9,68.5,161.1,69.6,158.8 M71.2,167.4c3.1,0.6,5.6,2.9,6.1,5.6c0.1,0.3,0.5,0.9-0.2,1.1 c-0.6,0.1-0.6-0.4-0.7-0.8c-0.3-1.1-0.7-2.2-1.4-3.1c-1.3-1.6-3.2-2.2-5.2-1.5c1.6,0,2.8,0.7,3.9,1.6c1.1,1,1.6,2.2,1.4,3.8 c-1.3-2.1-2.6-4.1-5.8-3.9c1.1,0.4,1.8,0.9,2.5,1.4c1.1,0.7,1.4,1.7,1.7,2.8c0.1,0.3,0.2,0.8-0.3,0.9c-0.4,0.1-0.6-0.3-0.7-0.6 c-0.5-1.6-1.6-2.7-3.3-3.2c-0.2-0.1-0.5-0.1-0.7-0.1c-0.1,0-0.2,0-0.5,0.1c1.3,0.5,2.1,1.3,2.8,2.2c0.4,0.6,0.5,0.8-0.2,1.1 c-0.4,0.1-0.7,0.5-0.4,0.9c0.3,0.5,0.6,0.2,0.9-0.1c0.7-0.6,0.9,0.4,1.5,0.6c0.4,0.1,0.1,0.7-0.1,1c-0.7,0.8-1.6,1.1-2.6,0.6 c-0.9-0.5-1.7-0.6-2.6,0.1c-0.8,0.6-1.9-0.1-2.2-1.2c-0.8-3.3,0.5-6.5,3.4-8.5c0.4-0.3,0.8-0.5,1-0.9 C70.1,166.9,70.6,167.5,71.2,167.4 M71.2,167.4c-0.6,0.1-1.1-0.5-1.7-0.4c0.2-2.2,0.9-4.4,1.1-6.6c0.6-6,0.1-11.9-1.3-17.8 c-0.7-3.1-1.6-6.2-2.8-9.2c-0.1-0.2-0.2-0.5,0-0.7c0.2-0.2,0.5-0.1,0.8,0c0.7,0.3,1.1,0.7,1.3,1.4c2,6.1,3.3,12.3,3.9,18.7 c0.4,4.2,0.3,8.4-0.6,12.6C71.7,166.1,71.4,166.7,71.2,167.4 M70.7,179.4c1.9,2.4,2.7,5.1,1.9,8.1c-0.5,1.9-2.4,3-4.7,2.8 c-1.9-0.1-3.2-1.2-3.4-2.9c-0.1-0.4-0.1-0.7,0.2-1c1.9-2.1,3.1-4.5,2.9-7.4c0-0.1,0.1-0.2,0.1-0.3c0.8,1,0.8,1.4-0.2,7.1 c1.2-0.8,1.4-1.8,1.6-6.9c1.5,2.9,0.9,5.5,0.2,8C70.5,186.5,71.1,183.2,70.7,179.4 M81.4,159.7c0.6,0.4,1.2,0.8,1.7,1.2 c-0.2,0.6,0.4,0.6,0.6,0.8c2.1,1.3,3,3.5,4.1,5.5c-5.7-0.3-11.1-4.3-12.4-9.4c2.3,2,4.2,3.9,6.7,5.3c-1-1.3-2.2-2.3-3.5-3.3 c-0.1-0.1-0.2-0.1-0.3-0.2l0,0c-0.1-0.3-0.3-0.5-0.6-0.6c-0.4-0.4-0.8-0.8-1.4-1.5c1.7,0.2,2.8,1.1,4.1,1.6 C80.7,159.6,80.9,160,81.4,159.7 M83.2,164c0-0.4-0.2-0.6-0.5-0.6c0,0-0.2,0.1-0.2,0.2C82.7,163.8,82.9,164,83.2,164 M81.9,147.7 c-1.7-1.4-3.7-2.3-5.7-2.9c-0.6-0.2-1.6-0.4-1.5-1.1c0.1-0.7,1-0.4,1.6-0.4c2.8,0,4.9,1.2,6.8,3.1c0.9,0.9,1.6,1.9,2.5,2.8 c-4.6,2.1-8.9,0.6-10.6-3.6c2.4,0.6,4.5,1.6,6.8,2.4c0.1,0.2,0.3,0.2,0.5,0.1c0.1,0,0.1,0,0.2,0.1c0,0-0.1-0.1-0.1-0.1 C82.2,147.8,82.1,147.7,81.9,147.7 M76.9,179.3c0.3-0.7-0.9-0.9-0.4-1.4c0.4-0.4,1,0.1,1.5,0.3c0.2,0.1,0.5,0.3,0.6,0 c0.2-0.3-0.2-0.4-0.3-0.5c-0.9-0.6-1.9-0.7-3-0.6c-0.5,0.1-1,0.1-1.4-0.4c-0.4-0.4-0.4-0.9,0.2-1.1c2.3-0.9,6.1-0.8,7.7,2.4 c0.6,1.1,0.5,2.2-0.2,3.3c-0.8,1.4-1.4,1.5-2.6,0.3c-1.6-1.6-3.5-2.3-5.7-2.4c-0.6,0-1.3,0-1.2-0.8c0.1-0.8,0.7-0.8,1.5-0.7 C74.9,178.1,76,178.5,76.9,179.3 M61,150.2c1.2-0.9,2.3-1.9,3.3-3c1-1.1,1.7-2.3,2.6-3.4c-0.2,2.2-1.1,4.1-2.4,5.7 c-1.4,1.7-3.1,2.9-5.2,3.5c-0.3,0.1-0.6,0.3-0.9,0.3c-0.5,0.1-1.1,0.8-1.5,0.4c-0.5-0.5,0.2-1.1,0.4-1.6c1.7-3.1,3.8-5.8,7.1-7.5 c0.4-0.2,0.7-0.5,1.4-0.3c-1.5,2.1-3.4,3.8-5,5.8c-0.1,0.1-0.2,0.2-0.2,0.3c-0.2,0.1-0.3,0.2-0.4,0.4c0,0-0.1,0.1-0.1,0.1 c0.1,0,0.1,0,0.2,0c0-0.1,0-0.1,0-0.2c0.3,0.1,0.4-0.1,0.5-0.3C60.9,150.3,60.9,150.3,61,150.2 M68.9,154.3 c-1.8,3.4-5.1,5.5-6.4,8.9c1.9-2.3,4-4.4,6.2-6.5c0.1,2.6-1.9,5.5-8,9.4C59.5,162.6,63.5,156.7,68.9,154.3 M65.8,180.4 c0.4-0.2,0.2-0.8,0.6-1.1c0.1,0.1,0.2,0.2,0.2,0.3c0.3,2.2-1.8,6.1-3.9,7c-1.4,0.6-2.9,0.3-3.9-0.9c-0.9-1.1-1-2.7-0.1-3.9 c0.1-0.2,0.3-0.5,0.5-0.5c1.3,0.2,2.5-0.6,3.8-0.3c-0.8,0.8-1.6,1.6-2.4,2.4c1.5-0.3,2.3-1.4,3.1-2.5c0.2-0.4,0.5-0.8,0.7-1.2 c0.1-0.2,0.3-0.4,0.5-0.3c0.3,0.1,0.2,0.4,0.2,0.7c-1,1.7-1.8,3.6-3.7,4.8C63.1,185,64.9,183,65.8,180.4 M58.3,176.5 c1.1,0.5,2.2-0.2,3.5,0.2c-1.3,0.7-2.5,1.2-3.8,2.3c1.6,0,2.6-0.8,3.8-1.1c0.6-0.1,1.1-0.4,1.7-0.6c0.3-0.1,0.6-0.1,0.8,0.2 c0.1,0.3,0.2,0.6,0,0.9c-1.2,1.7-4.9,2.4-6.7,1.3c-1.3-0.8-1.7-2.2-1.2-3.8c0.5-1.2,1.5-1.7,3.1-1.6c1.3,0,2.5,0.7,3.8,0.7 c0.3,0,0.5,0.1,0.5,0.4c0,0.2-0.1,0.3-0.3,0.4c-0.4,0.2-0.9,0.2-1.3,0.2C60.8,175.9,59.5,176.2,58.3,176.5 M74,180.9 c0-0.3,0.3-0.4,0.5-0.3c2,0.5,3.7,1.3,4.5,3.3c0.9,2.3-0.7,4.8-3.2,4.9c-1.4,0.1-1.9-0.4-1.7-1.7c0.1-0.6,0-1.1,0.2-1.7 c0.5,0.3,0.7,0.8,1.1,1.3c0.1-1.1-0.2-1.9-0.7-2.6c-0.1-0.2-0.3-0.4-0.5-0.5c-0.3-0.3-0.6-0.9-0.3-1.1c0.4-0.3,0.7,0.2,1,0.4 c1.1,0.9,1.4,2.4,2.1,3.6c0.1-1.6-0.3-3.1-1.6-4.2c0-0.1-0.1-0.1-0.2-0.1C75.1,181.5,74.6,181.2,74,180.9"/><path class="st2" d="M111.6,54.6c0.9,0.1,1.9,0.2,2.8-0.1c2.7-1,5.3-0.3,7.8,0.7c0.3,0.1,0.6,0.6,1,0.2c0.4-0.5,0-0.9-0.4-1.1 c-1.6-1.2-3.4-1.6-5.3-1.6c-2.1,0.1-3.9,0.9-5.8,1.8c-0.6-0.3-1.2-0.7-1.9-0.9c-3.3-1.2-6.5-1.2-9.6,0.9c-0.4,0.3-0.7,0.5-0.4,1 c0.3,0.6,0.7,0.1,0.9,0c2.2-1.1,4.5-1.5,6.9-1.2C108.9,54.4,110.2,54.9,111.6,54.6"/><path class="st9" d="M111.6,54.6c0.9,0.1,1.9,0.2,2.8-0.1c2.7-1,5.3-0.3,7.8,0.7c0.3,0.1,0.6,0.6,1,0.2c0.4-0.5,0-0.9-0.4-1.1 c-1.6-1.2-3.4-1.6-5.3-1.6c-2.1,0.1-3.9,0.9-5.8,1.8c-0.6-0.3-1.2-0.7-1.9-0.9c-3.3-1.2-6.5-1.2-9.6,0.9c-0.4,0.3-0.7,0.5-0.4,1 c0.3,0.6,0.7,0.1,0.9,0c2.2-1.1,4.5-1.5,6.9-1.2C108.9,54.4,110.2,54.9,111.6,54.6z"/><path class="st6" d="M116.2,91.4c0,0.1,0,0.2,0,0.3c-0.2,1.7,0.2-12.9,0.2-11.2c0,0.2,0,0.4,0,0.5c-0.1,3.9-0.1,7.9-0.2,11.8 c0,1.4,0,2.8,0,4.2c0,1.1-0.8,1.8-1.3,2.8c0,0.1-0.1,0.2-0.1,0.3c-0.2,0.3-0.4,0.6-0.6,0.9c-0.4,0.4-0.7,1-0.9,1.5 c-0.1,0-0.1,0.1-0.1,0.2c-0.1,0.1-0.1,0.1-0.2,0.1c-0.1,0.1-0.3,0.1-0.4,0.2c0-1.4,0-2.7-0.1-4c-0.1-15-0.4-13.8-0.5-28.8 c0-4.6-0.1-9.3-0.1-13.9c0.6-0.8,1.6-0.7,2.4-1.1c0.4-0.2,0.9-0.4,1.4-0.5c0.1,0,0.2,0,0.3,0l0,0c0,0.1,0.1,0.1,0.1,0.2l0,0 c0,0.1,0,0.2,0,0.2c0,0.1,0,0.2,0,0.2c-0.1,2.9-0.2,5.8,0,8.7l0,0c-0.2,0.4-0.1,0.8,0,1.2h0c-0.2,1.9-0.2,3.9,0,5.8v0 c-0.2,0.7-0.1,1.3,0,2c0,0.1,0,0.2,0,0.3c0,0.1,0,0.2,0,0.3c0,0.1,0,0.1,0,0.2C116.1,79.6,116.1,85.5,116.2,91.4"/><path class="st10" d="M116.2,91.4c0,0.1,0,0.2,0,0.3c-0.2,1.7,0.2-12.9,0.2-11.2c0,0.2,0,0.4,0,0.5c-0.1,3.9-0.1,7.9-0.2,11.8 c0,1.4,0,2.8,0,4.2c0,1.1-0.8,1.8-1.3,2.8c0,0.1-0.1,0.2-0.1,0.3c-0.2,0.3-0.4,0.6-0.6,0.9c-0.4,0.4-0.7,1-0.9,1.5 c-0.1,0-0.1,0.1-0.1,0.2c-0.1,0.1-0.1,0.1-0.2,0.1c-0.1,0.1-0.3,0.1-0.4,0.2c0-1.4,0-2.7-0.1-4c-0.1-15-0.4-13.8-0.5-28.8 c0-4.6-0.1-9.3-0.1-13.9c0.6-0.8,1.6-0.7,2.4-1.1c0.4-0.2,0.9-0.4,1.4-0.5c0.1,0,0.2,0,0.3,0l0,0c0,0.1,0.1,0.1,0.1,0.2l0,0 c0,0.1,0,0.2,0,0.2c0,0.1,0,0.2,0,0.2c-0.1,2.9-0.2,5.8,0,8.7l0,0c-0.2,0.4-0.1,0.8,0,1.2h0c-0.2,1.9-0.2,3.9,0,5.8v0 c-0.2,0.7-0.1,1.3,0,2c0,0.1,0,0.2,0,0.3c0,0.1,0,0.2,0,0.3c0,0.1,0,0.1,0,0.2C116.1,79.6,116.1,85.5,116.2,91.4z"/><path class="st6" d="M110.3,101.8c-0.1-0.2-0.2-0.4-0.4-0.6c0-0.4-0.3-0.7-0.5-1c-0.4-0.7-0.5-1.4-0.6-2.2 c-0.3-19.3-0.8-22.5-1.1-41.8c0-0.8,0-1.3,1-0.8c0.7,0.4,1.5,0.6,2.3,0.8c0.3,0.4,0.1,0.8,0.1,1.2c0,4,0.1,8,0.1,12 c0.1,14.6,0.5,13,0.5,27.6c0,2.4,0.2,4.9-0.1,7.3c-0.3-0.6-0.7-1.2-1-1.8C110.6,102.1,110.5,101.9,110.3,101.8"/><path class="st10" d="M110.3,101.8c-0.1-0.2-0.2-0.4-0.4-0.6c0-0.4-0.3-0.7-0.5-1c-0.4-0.7-0.5-1.4-0.6-2.2 c-0.3-19.3-0.8-22.5-1.1-41.8c0-0.8,0-1.3,1-0.8c0.7,0.4,1.5,0.6,2.3,0.8c0.3,0.4,0.1,0.8,0.1,1.2c0,4,0.1,8,0.1,12 c0.1,14.6,0.5,13,0.5,27.6c0,2.4,0.2,4.9-0.1,7.3c-0.3-0.6-0.7-1.2-1-1.8C110.6,102.1,110.5,101.9,110.3,101.8z"/><path class="st2" d="M99.5,52.3c3.3-2.3,6.9-2.6,10.6-1.4c1,0.3,1.8,0.3,2.7,0c4.1-1.4,8-1.1,11.5,1.6c0.2,0.2,0.7,0.4,0.3,0.8 c-0.3,0.3-0.6,0.8-1.2,0.3c-3.3-2.5-6.9-2.3-10.6-0.7c-0.8,0.3-1.4,0.3-2.2,0c-3.7-1.6-7.3-1.6-10.8,0.7c-0.2,0.1-0.5,0.3-0.7,0.4 c-0.4,0.2-0.6-0.2-0.8-0.4c-0.2-0.3,0.1-0.4,0.3-0.5C98.9,52.7,99.2,52.5,99.5,52.3"/><path class="st9" d="M99.5,52.3c3.3-2.3,6.9-2.6,10.6-1.4c1,0.3,1.8,0.3,2.7,0c4.1-1.4,8-1.1,11.5,1.6c0.2,0.2,0.7,0.4,0.3,0.8 c-0.3,0.3-0.6,0.8-1.2,0.3c-3.3-2.5-6.9-2.3-10.6-0.7c-0.8,0.3-1.4,0.3-2.2,0c-3.7-1.6-7.3-1.6-10.8,0.7c-0.2,0.1-0.5,0.3-0.7,0.4 c-0.4,0.2-0.6-0.2-0.8-0.4c-0.2-0.3,0.1-0.4,0.3-0.5C98.9,52.7,99.2,52.5,99.5,52.3z"/><path class="st2" d="M114.6,26.2c1,1.4,0.7,3.3-0.7,4.3c-1.3,1-3.4,0.6-4.3-0.8c-0.9-1.3-0.6-3.3,0.7-4.3 C111.5,24.4,113.6,24.8,114.6,26.2"/><path class="st3" d="M114.6,26.2c1,1.4,0.7,3.3-0.7,4.3c-1.3,1-3.4,0.6-4.3-0.8c-0.9-1.3-0.6-3.3,0.7-4.3 C111.5,24.4,113.6,24.8,114.6,26.2z"/><path class="st4" d="M116.5,37.8c-0.6,2-2,3.4-3.5,4.7c-1.5,1.4-3,2.7-4.4,4.1c-0.2,0.2-0.4,0.5-0.7,0.4c-0.3-0.1-0.2-0.5-0.1-0.7 c0.3-1.4,0.9-2.7,1.8-3.8c1.9-2.4,4.6-4.1,6.5-6.6c-1,3.6-4.6,5.2-6.3,8.3C111.9,41.8,114.7,40.3,116.5,37.8"/><path class="st11" d="M116.5,37.8c-0.6,2-2,3.4-3.5,4.7c-1.5,1.4-3,2.7-4.4,4.1c-0.2,0.2-0.4,0.5-0.7,0.4c-0.3-0.1-0.2-0.5-0.1-0.7 c0.3-1.4,0.9-2.7,1.8-3.8c1.9-2.4,4.6-4.1,6.5-6.6c-1,3.6-4.6,5.2-6.3,8.3C111.9,41.8,114.7,40.3,116.5,37.8z"/><path class="st2" d="M128.4,54.5c0.8,1.1,0.5,2.5-0.5,3.3c-1,0.8-2.6,0.5-3.3-0.5c-0.7-1-0.5-2.5,0.6-3.3 C126.2,53.2,127.6,53.5,128.4,54.5"/><path class="st9" d="M128.4,54.5c0.8,1.1,0.5,2.5-0.5,3.3c-1,0.8-2.6,0.5-3.3-0.5c-0.7-1-0.5-2.5,0.6-3.3 C126.2,53.2,127.6,53.5,128.4,54.5z"/><path class="st2" d="M97.7,58.3c-1.1,0.8-2.5,0.5-3.3-0.5c-0.7-1.1-0.4-2.6,0.6-3.3c1.1-0.7,2.6-0.5,3.3,0.5 C99.1,56.2,98.8,57.6,97.7,58.3"/><path class="st9" d="M97.7,58.3c-1.1,0.8-2.5,0.5-3.3-0.5c-0.7-1.1-0.4-2.6,0.6-3.3c1.1-0.7,2.6-0.5,3.3,0.5 C99.1,56.2,98.8,57.6,97.7,58.3z"/><path class="st4" d="M116.3,40.9c-2.2,2.6-4.7,4.9-6.7,7.7c0.1,0.1,0.1,0.1,0.2,0.2c2.3-2.2,4.5-4.4,6.8-6.6 c-0.8,1.8-2,3.2-3.4,4.4c-0.9,0.8-2.1,1.4-2.9,2.4c-0.5,0.6-1.2,0.3-1.8,0.1c-0.5-0.2,0-0.6,0.2-0.8c1.1-1.5,2.4-2.8,3.8-4 C113.8,43.2,114.9,41.9,116.3,40.9"/><path class="st11" d="M116.3,40.9c-2.2,2.6-4.7,4.9-6.7,7.7c0.1,0.1,0.1,0.1,0.2,0.2c2.3-2.2,4.5-4.4,6.8-6.6 c-0.8,1.8-2,3.2-3.4,4.4c-0.9,0.8-2.1,1.4-2.9,2.4c-0.5,0.6-1.2,0.3-1.8,0.1c-0.5-0.2,0-0.6,0.2-0.8c1.1-1.5,2.4-2.8,3.8-4 C113.8,43.2,114.9,41.9,116.3,40.9z"/><path class="st4" d="M114.9,33.1c-0.6,2.9-3.8,4-4.9,6.6c1.6-1,3-2.4,4.4-3.7c-1.6,2.6-4.3,4.3-6.1,7c-0.5-0.8-0.2-1.4,0.1-2 c0.5-1.1,1.2-2.1,2-3C111.7,36.2,113.4,34.8,114.9,33.1"/><path class="st11" d="M114.9,33.1c-0.6,2.9-3.8,4-4.9,6.6c1.6-1,3-2.4,4.4-3.7c-1.6,2.6-4.3,4.3-6.1,7c-0.5-0.8-0.2-1.4,0.1-2 c0.5-1.1,1.2-2.1,2-3C111.7,36.2,113.4,34.8,114.9,33.1z"/><path class="st4" d="M109.8,35.6c1.5-0.9,2.6-2.3,4-3.3c-1.4,2.2-3.4,3.8-5.2,5.9c-0.3-2.3,1.2-4.6,3.8-5.8 C111.6,33.8,110.3,34.4,109.8,35.6"/><path class="st11" d="M109.8,35.6c1.5-0.9,2.6-2.3,4-3.3c-1.4,2.2-3.4,3.8-5.2,5.9c-0.3-2.3,1.2-4.6,3.8-5.8 C111.6,33.8,110.3,34.4,109.8,35.6z"/><path class="st2" d="M113.4,22.7c-0.2-0.4-0.2-0.9-0.7-1.1c-0.2,0.1-0.2,0.3-0.2,0.4c0,0.9-0.7,1.3-1.5,1.6 c-0.5,0.2-0.7-0.3-0.9-0.7c-0.3-0.7-0.3-1.4,0.3-2c0.7-0.7,1.6-0.9,2.4-0.3C113.7,21.1,113.9,21.9,113.4,22.7"/><path class="st3" d="M113.4,22.7c-0.2-0.4-0.2-0.9-0.7-1.1c-0.2,0.1-0.2,0.3-0.2,0.4c0,0.9-0.7,1.3-1.5,1.6 c-0.5,0.2-0.7-0.3-0.9-0.7c-0.3-0.7-0.3-1.4,0.3-2c0.7-0.7,1.6-0.9,2.4-0.3C113.7,21.1,113.9,21.9,113.4,22.7z"/><path class="st4" d="M117.1,43.9c0.3,0.6,0.1,1-0.2,1.2c-1.4,1.5-2.9,3-4.3,4.5c-0.3,0.3-0.7,0.7-1.1,0.2c-0.4-0.5,0.2-0.7,0.4-0.9 C113.7,47.3,115.4,45.7,117.1,43.9"/><path class="st11" d="M117.1,43.9c0.3,0.6,0.1,1-0.2,1.2c-1.4,1.5-2.9,3-4.3,4.5c-0.3,0.3-0.7,0.7-1.1,0.2 c-0.4-0.5,0.2-0.7,0.4-0.9C113.7,47.3,115.4,45.7,117.1,43.9z"/><path class="st4" d="M116.7,46.7c-0.6,1.2-1.7,1.9-2.8,2.5C114.4,47.9,115.7,47.5,116.7,46.7"/><path class="st11" d="M116.7,46.7c-0.6,1.2-1.7,1.9-2.8,2.5C114.4,47.9,115.7,47.5,116.7,46.7z"/><path class="st4" d="M116.6,48.3c0.3-0.2,0.5-0.3,0.7-0.1c0.2,0.2,0.2,0.5-0.1,0.7c-0.2,0.2-0.5,0.2-0.7-0.1 C116.4,48.7,116.6,48.5,116.6,48.3"/><path class="st4" d="M116.4,40.5c0.1-0.3,0.1-0.6,0.5-0.8C117,40.2,116.9,40.4,116.4,40.5"/><path class="st11" d="M116.4,40.5c0.1-0.3,0.1-0.6,0.5-0.8C117,40.2,116.9,40.4,116.4,40.5z"/><path class="st0" d="M112.4,107.3c1.5-2.8,2.9-5.7,4.4-8.5c0.3-0.5,0.5-1.1,0.3-1.7c0.2-5.3,0.3-10.6,0.2-15.8 c0.2-3.1-0.1,10-0.2,6.9c0-0.1,0-0.2,0-0.4c0-0.1,0-0.2,0-0.2l0-2.3c0-0.1,0-0.1,0-0.2c0-0.1,0-0.2,0-0.4c0.1-1.3,0.1-2.6,0.1-3.9 c0-3.5,0-6.9,0.2-10.4c0.1-2.1,0-4.1,0.1-6.2c0.2-2.2,0.2-4.4,0-6.6c-0.1-2.2,0.1-2.5,2.2-1.9c1.5,0.5,3.1,0.8,3.9,2.4 c0.7,1.3,2.5,1.6,3.8,1.1c1.5-0.7,2.3-2.1,2-4c-0.1-1.2-1.4-2.2-2.8-2.4c-0.5-0.1-0.9-0.1-1.4-0.5c-1.7-1.6-3.7-2.6-6-2.9 c-0.7-0.1-1-0.4-1-1.2c0.2-2.9,0-5.9-0.3-8.8c-0.4-2.8-1-5.5-2.7-7.8c-0.4-0.5-0.4-0.7-0.1-1.2c1.3-1.9,1-4.3-0.9-5.7 c-0.6-0.4-0.6-0.7-0.2-1.2c0.8-1.4,0.2-3.1-1.1-3.8c-1.3-0.7-2.6-0.4-3.6,0.7c-0.9,1-0.9,2.4-0.1,3.5c0.3,0.3,0.4,0.5,0,0.9 c-2.1,2-2.1,4.3,0,6.3c0.3,0.3,0.4,0.4,0.1,0.7c-1.3,1.4-1.8,3.1-2.2,4.9c-0.8,3.7-0.9,7.4-0.8,11.2c0,1-0.2,1.3-1.2,1.3 c-3,0.1-5.6,1.2-7.8,3.3c-0.4,0.4-0.8,0.6-1.4,0.6c-2,0.2-2.9,1.4-3.1,3.2c-0.2,1.5,0.9,2.9,2.4,3.3c1.8,0.4,3.3-0.3,4.1-1.9 c0.2-0.4,0.2-0.7,0.6-0.9c1.9-1.1,3.8-1.7,6-1.7c0.5,0,0.7,0.2,0.7,0.7c0,1,0,2,0,3c0.2,13.6,0.8,11.1,1,24.7 c0.1,5.1,0.2,10.2,0.3,15.3c0,0.1,0,0.2,0,0.2c0.1,0.2,0.2,0.4,0.3,0.6c-0.1,0.2,0,0.4,0.1,0.5c0.1,0.1,0.2,0.3,0.2,0.4 c-0.1,0.2,0,0.3,0.1,0.5c0.1,0.1,0.2,0.3,0.2,0.4c0,0.3,0.1,0.5,0.2,0.6c0.2,0.4,0.2,1,0.6,1.3c0,0.1,0,0.1,0,0.2 c0.1,0.2,0.2,0.5,0.3,0.7c0,0.4,0.1,0.6,0.4,0.8c0.1,0.4,0.2,0.8,0.5,1.1c-0.1,0.2,0,0.3,0.1,0.5c0.1,0.1,0.2,0.3,0.2,0.4 c0,0.4,0.1,0.7,0.4,0.8C112.3,107.9,112.4,107.5,112.4,107.3 M112.5,22.1c0,0.9-0.7,1.3-1.5,1.6c-0.5,0.2-0.7-0.3-0.9-0.7 c-0.3-0.7-0.3-1.4,0.3-2c0.7-0.7,1.6-0.9,2.4-0.3c0.8,0.5,1,1.3,0.5,2.1c-0.2-0.4-0.2-0.9-0.7-1.1 C112.5,21.8,112.6,21.9,112.5,22.1 M116.4,63.9L116.4,63.9c-0.2,0.4-0.1,0.8,0,1.2l0,0c-0.2,1.9-0.2,3.9,0,5.8l0,0 c-0.2,0.7-0.1,1.3,0,2c0,0.1,0,0.2,0,0.3c0,0.1,0,0.2,0,0.3c0,0.1,0,0.1,0,0.2c-0.2,5.9-0.2,11.8-0.1,17.7c0,0.1,0,0.2,0,0.3 c-0.2,1.7,0.2-12.9,0.2-11.2c0,0.2,0,0.4,0,0.5c-0.1,3.9-0.1,7.9-0.2,11.8c0,1.4,0,2.8,0,4.2c0,1.1-0.8,1.8-1.3,2.8 c0,0.1-0.1,0.2-0.1,0.3c-0.2,0.3-0.4,0.6-0.6,0.9c-0.4,0.4-0.7,1-0.9,1.5c-0.1,0-0.1,0.1-0.1,0.2c-0.1,0-0.1,0.1-0.2,0.1 c-0.1,0.1-0.3,0.1-0.4,0.2c0-1.3,0-2.7-0.1-4c-0.1-15-0.4-13.8-0.5-28.8c0-4.6-0.1-9.3-0.1-13.9c0.6-0.8,1.6-0.7,2.4-1.1 c0.4-0.2,0.9-0.4,1.4-0.5c0.1,0,0.2,0,0.3,0l0,0c0,0.1,0.1,0.1,0.1,0.2l0,0c0,0.1,0,0.2,0,0.2c0,0.1,0,0.2,0,0.2 C116.3,58.1,116.3,61,116.4,63.9 M128.4,54.5c0.8,1.1,0.5,2.5-0.5,3.3c-1,0.8-2.6,0.5-3.3-0.5c-0.7-1-0.5-2.5,0.6-3.3 C126.2,53.2,127.6,53.5,128.4,54.5 M117.3,48.2c0.2,0.2,0.2,0.5-0.1,0.7c-0.2,0.2-0.5,0.2-0.7-0.1c-0.2-0.2,0-0.4,0.1-0.5 C116.9,48.1,117.2,48.1,117.3,48.2 M116.7,46.7c-0.6,1.2-1.7,1.9-2.8,2.5C114.4,47.9,115.7,47.5,116.7,46.7 M116.9,45.1 c-1.4,1.5-2.9,3-4.3,4.5c-0.3,0.3-0.7,0.7-1.1,0.2c-0.4-0.5,0.2-0.7,0.4-0.9c1.8-1.5,3.5-3.1,5.1-5 C117.3,44.5,117.2,44.8,116.9,45.1 M117,39.8c0,0.4-0.1,0.7-0.5,0.8C116.5,40.2,116.6,39.9,117,39.8 M109.6,29.7 c-0.9-1.3-0.6-3.3,0.7-4.3c1.3-1,3.3-0.6,4.3,0.8c1,1.4,0.7,3.3-0.7,4.3C112.6,31.4,110.5,31.1,109.6,29.7 M112.3,32.4 c-0.7,1.4-2,2-2.6,3.2c1.5-0.9,2.6-2.3,4-3.3c-1.4,2.2-3.4,3.8-5.2,5.9C108.3,35.9,109.8,33.6,112.3,32.4 M108.3,41 c0.5-1.1,1.2-2.1,2-3c1.4-1.7,3.1-3.2,4.6-4.9c-0.6,2.9-3.8,4-4.9,6.6c1.7-1,3-2.4,4.4-3.7c-1.6,2.6-4.3,4.3-6.1,7 C107.7,42.2,108,41.6,108.3,41 M108,47c-0.3-0.1-0.2-0.5-0.1-0.7c0.3-1.4,0.9-2.7,1.8-3.8c1.9-2.4,4.6-4.1,6.5-6.6 c-1,3.6-4.6,5.2-6.3,8.3c2.1-2.3,4.9-3.8,6.7-6.4c-0.6,2-2,3.4-3.5,4.7c-1.5,1.4-3,2.7-4.4,4.1C108.5,46.8,108.3,47.1,108,47 M112.5,44.2c1.3-1.1,2.4-2.3,3.8-3.3c-2.2,2.6-4.7,4.9-6.7,7.7c0.1,0.1,0.1,0.1,0.2,0.2c2.3-2.2,4.5-4.4,6.8-6.6 c-0.8,1.8-2,3.2-3.4,4.4c-0.9,0.8-2.1,1.4-2.9,2.4c-0.5,0.6-1.2,0.3-1.8,0.1c-0.5-0.2,0-0.6,0.2-0.8 C109.7,46.7,111,45.4,112.5,44.2 M110.1,50.9c1,0.3,1.8,0.3,2.7,0c4.1-1.4,8-1.1,11.5,1.6c0.2,0.2,0.7,0.4,0.3,0.8 c-0.3,0.3-0.6,0.8-1.2,0.3c-3.3-2.5-6.9-2.3-10.6-0.7c-0.8,0.3-1.4,0.3-2.2,0c-3.7-1.6-7.3-1.6-10.8,0.7c-0.2,0.1-0.5,0.3-0.7,0.4 c-0.4,0.2-0.6-0.2-0.8-0.4c-0.2-0.3,0.1-0.4,0.3-0.5c0.3-0.3,0.6-0.5,0.9-0.7C102.8,50,106.4,49.7,110.1,50.9 M94.5,57.8 c-0.7-1.1-0.4-2.6,0.6-3.3c1.1-0.7,2.6-0.5,3.3,0.5c0.8,1.1,0.5,2.5-0.6,3.3C96.6,59.1,95.2,58.9,94.5,57.8 M107.6,54.2 c-2.4-0.3-4.7,0.1-6.9,1.2c-0.2,0.1-0.6,0.7-0.9,0c-0.3-0.5,0.1-0.8,0.4-1c3.1-2.1,6.3-2.1,9.6-0.9c0.6,0.2,1.2,0.6,1.9,0.9 c1.9-0.8,3.7-1.7,5.8-1.8c2-0.1,3.8,0.4,5.3,1.6c0.4,0.3,0.8,0.6,0.4,1.1c-0.3,0.5-0.7-0.1-1-0.2c-2.5-1-5-1.7-7.8-0.7 c-0.9,0.3-1.8,0.2-2.8,0.1C110.2,54.9,108.9,54.4,107.6,54.2 M110.6,102.4c0-0.3-0.1-0.5-0.3-0.6c-0.1-0.2-0.2-0.4-0.4-0.6 c0-0.4-0.3-0.7-0.5-1c-0.4-0.7-0.5-1.4-0.6-2.2c-0.3-19.3-0.8-22.5-1.1-41.8c0-0.8,0-1.3,1-0.8c0.7,0.4,1.5,0.6,2.3,0.8 c0.3,0.4,0.1,0.8,0.1,1.2c0,4,0.1,8,0.1,12c0.1,14.6,0.5,13,0.5,27.6c0,2.4,0.2,4.9-0.1,7.3C111.3,103.6,110.9,103,110.6,102.4"/><path class="st0" d="M114.6,27.8c-0.1-0.7-0.5-1.3-1.3-1.4c0.6,0.8,1,1.5,0.3,2.4c-0.6,0.9-1.6,0.6-2.5,1c1,0.6,1.7,0.6,2.5,0.1 C114.3,29.4,114.7,28.7,114.6,27.8"/><path class="st2" d="M111.6,156.4c0.9,0.1,1.9,0.2,2.8-0.1c2.7-1,5.3-0.3,7.8,0.7c0.3,0.1,0.6,0.6,1,0.2c0.4-0.5,0-0.9-0.4-1.1 c-1.6-1.2-3.4-1.6-5.3-1.6c-2.1,0.1-3.9,0.9-5.8,1.8c-0.6-0.3-1.2-0.7-1.9-0.9c-3.3-1.2-6.5-1.2-9.6,0.9c-0.4,0.3-0.7,0.5-0.4,1 c0.3,0.6,0.7,0.1,0.9,0c2.2-1.1,4.5-1.5,6.9-1.2C108.9,156.2,110.2,156.7,111.6,156.4"/><path class="st9" d="M111.6,156.4c0.9,0.1,1.9,0.2,2.8-0.1c2.7-1,5.3-0.3,7.8,0.7c0.3,0.1,0.6,0.6,1,0.2c0.4-0.5,0-0.9-0.4-1.1 c-1.6-1.2-3.4-1.6-5.3-1.6c-2.1,0.1-3.9,0.9-5.8,1.8c-0.6-0.3-1.2-0.7-1.9-0.9c-3.3-1.2-6.5-1.2-9.6,0.9c-0.4,0.3-0.7,0.5-0.4,1 c0.3,0.6,0.7,0.1,0.9,0c2.2-1.1,4.5-1.5,6.9-1.2C108.9,156.2,110.2,156.7,111.6,156.4z"/><path class="st6" d="M116.2,193.2c0,0.1,0,0.2,0,0.3c-0.2,1.7,0.2-12.9,0.2-11.2c0,0.2,0,0.4,0,0.5c-0.1,3.9-0.1,7.9-0.2,11.8 c0,1.4,0,2.8,0,4.2c0,1.1-0.8,1.8-1.3,2.8c0,0.1-0.1,0.2-0.1,0.3c-0.2,0.3-0.4,0.6-0.6,0.9c-0.4,0.4-0.7,1-0.9,1.5 c-0.1,0-0.1,0.1-0.1,0.2c-0.1,0-0.1,0.1-0.2,0.1c-0.1,0.1-0.3,0.1-0.4,0.2c0-1.3,0-2.7-0.1-4c-0.1-15-0.4-13.8-0.5-28.8 c0-4.6-0.1-9.3-0.1-13.9c0.6-0.8,1.6-0.7,2.4-1.1c0.4-0.2,0.9-0.4,1.4-0.5c0.1,0,0.2,0,0.3,0l0,0c0,0.1,0.1,0.1,0.1,0.2l0,0 c0,0.1,0,0.2,0,0.2c0,0.1,0,0.2,0,0.2c-0.1,2.9-0.2,5.8,0,8.7l0,0c-0.2,0.4-0.1,0.8,0,1.2h0c-0.2,1.9-0.2,3.9,0,5.8v0 c-0.2,0.7-0.1,1.3,0,2c0,0.1,0,0.2,0,0.3c0,0.1,0,0.2,0,0.3c0,0.1,0,0.1,0,0.2C116.1,181.4,116.1,187.3,116.2,193.2"/><path class="st10" d="M116.2,193.2c0,0.1,0,0.2,0,0.3c-0.2,1.7,0.2-12.9,0.2-11.2c0,0.2,0,0.4,0,0.5c-0.1,3.9-0.1,7.9-0.2,11.8 c0,1.4,0,2.8,0,4.2c0,1.1-0.8,1.8-1.3,2.8c0,0.1-0.1,0.2-0.1,0.3c-0.2,0.3-0.4,0.6-0.6,0.9c-0.4,0.4-0.7,1-0.9,1.5 c-0.1,0-0.1,0.1-0.1,0.2c-0.1,0-0.1,0.1-0.2,0.1c-0.1,0.1-0.3,0.1-0.4,0.2c0-1.3,0-2.7-0.1-4c-0.1-15-0.4-13.8-0.5-28.8 c0-4.6-0.1-9.3-0.1-13.9c0.6-0.8,1.6-0.7,2.4-1.1c0.4-0.2,0.9-0.4,1.4-0.5c0.1,0,0.2,0,0.3,0l0,0c0,0.1,0.1,0.1,0.1,0.2l0,0 c0,0.1,0,0.2,0,0.2c0,0.1,0,0.2,0,0.2c-0.1,2.9-0.2,5.8,0,8.7l0,0c-0.2,0.4-0.1,0.8,0,1.2h0c-0.2,1.9-0.2,3.9,0,5.8v0 c-0.2,0.7-0.1,1.3,0,2c0,0.1,0,0.2,0,0.3c0,0.1,0,0.2,0,0.3c0,0.1,0,0.1,0,0.2C116.1,181.4,116.1,187.3,116.2,193.2z"/><path class="st6" d="M110.3,203.6c-0.1-0.2-0.2-0.4-0.4-0.6c0-0.4-0.3-0.7-0.5-1c-0.4-0.7-0.5-1.4-0.6-2.2 c-0.3-19.3-0.8-22.5-1.1-41.8c0-0.8,0-1.3,1-0.8c0.7,0.4,1.5,0.6,2.3,0.8c0.3,0.4,0.1,0.8,0.1,1.2c0,4,0.1,8,0.1,12 c0.1,14.6,0.5,13,0.5,27.6c0,2.4,0.2,4.9-0.1,7.3c-0.3-0.6-0.7-1.2-1-1.8C110.6,203.9,110.5,203.7,110.3,203.6"/><path class="st10" d="M110.3,203.6c-0.1-0.2-0.2-0.4-0.4-0.6c0-0.4-0.3-0.7-0.5-1c-0.4-0.7-0.5-1.4-0.6-2.2 c-0.3-19.3-0.8-22.5-1.1-41.8c0-0.8,0-1.3,1-0.8c0.7,0.4,1.5,0.6,2.3,0.8c0.3,0.4,0.1,0.8,0.1,1.2c0,4,0.1,8,0.1,12 c0.1,14.6,0.5,13,0.5,27.6c0,2.4,0.2,4.9-0.1,7.3c-0.3-0.6-0.7-1.2-1-1.8C110.6,203.9,110.5,203.7,110.3,203.6z"/><path class="st2" d="M99.5,154.1c3.3-2.3,6.9-2.6,10.6-1.4c1,0.3,1.8,0.3,2.7,0c4.1-1.4,8-1.1,11.5,1.6c0.2,0.2,0.7,0.4,0.3,0.8 c-0.3,0.3-0.6,0.8-1.2,0.3c-3.3-2.5-6.9-2.3-10.6-0.7c-0.8,0.3-1.4,0.3-2.2,0c-3.7-1.6-7.3-1.6-10.8,0.7c-0.2,0.1-0.5,0.3-0.7,0.4 c-0.4,0.2-0.6-0.2-0.8-0.4c-0.2-0.3,0.1-0.4,0.3-0.5C98.9,154.5,99.2,154.3,99.5,154.1"/><path class="st9" d="M99.5,154.1c3.3-2.3,6.9-2.6,10.6-1.4c1,0.3,1.8,0.3,2.7,0c4.1-1.4,8-1.1,11.5,1.6c0.2,0.2,0.7,0.4,0.3,0.8 c-0.3,0.3-0.6,0.8-1.2,0.3c-3.3-2.5-6.9-2.3-10.6-0.7c-0.8,0.3-1.4,0.3-2.2,0c-3.7-1.6-7.3-1.6-10.8,0.7c-0.2,0.1-0.5,0.3-0.7,0.4 c-0.4,0.2-0.6-0.2-0.8-0.4c-0.2-0.3,0.1-0.4,0.3-0.5C98.9,154.5,99.2,154.3,99.5,154.1z"/><path class="st2" d="M114.6,128c1,1.4,0.7,3.3-0.7,4.3c-1.3,1-3.4,0.6-4.3-0.8c-0.9-1.3-0.6-3.3,0.7-4.3 C111.5,126.2,113.6,126.6,114.6,128"/><path class="st3" d="M114.6,128c1,1.4,0.7,3.3-0.7,4.3c-1.3,1-3.4,0.6-4.3-0.8c-0.9-1.3-0.6-3.3,0.7-4.3 C111.5,126.2,113.6,126.6,114.6,128z"/><path class="st4" d="M116.5,139.6c-0.6,2-2,3.4-3.5,4.7c-1.5,1.4-3,2.7-4.4,4.1c-0.2,0.2-0.4,0.5-0.7,0.4c-0.3-0.1-0.2-0.5-0.1-0.7 c0.3-1.4,0.9-2.7,1.8-3.8c1.9-2.4,4.6-4.1,6.5-6.6c-1,3.6-4.6,5.2-6.3,8.3C111.9,143.6,114.7,142.1,116.5,139.6"/><path class="st11" d="M116.5,139.6c-0.6,2-2,3.4-3.5,4.7c-1.5,1.4-3,2.7-4.4,4.1c-0.2,0.2-0.4,0.5-0.7,0.4 c-0.3-0.1-0.2-0.5-0.1-0.7c0.3-1.4,0.9-2.7,1.8-3.8c1.9-2.4,4.6-4.1,6.5-6.6c-1,3.6-4.6,5.2-6.3,8.3 C111.9,143.6,114.7,142.1,116.5,139.6z"/><path class="st2" d="M128.4,156.3c0.8,1.1,0.5,2.5-0.5,3.3c-1,0.8-2.6,0.5-3.3-0.5c-0.7-1-0.5-2.5,0.6-3.3 C126.2,155,127.6,155.3,128.4,156.3"/><path class="st9" d="M128.4,156.3c0.8,1.1,0.5,2.5-0.5,3.3c-1,0.8-2.6,0.5-3.3-0.5c-0.7-1-0.5-2.5,0.6-3.3 C126.2,155,127.6,155.3,128.4,156.3z"/><path class="st2" d="M97.7,160.1c-1.1,0.8-2.5,0.5-3.3-0.5c-0.7-1.1-0.4-2.6,0.6-3.3c1.1-0.7,2.6-0.5,3.3,0.5 C99.1,158,98.8,159.4,97.7,160.1"/><path class="st9" d="M97.7,160.1c-1.1,0.8-2.5,0.5-3.3-0.5c-0.7-1.1-0.4-2.6,0.6-3.3c1.1-0.7,2.6-0.5,3.3,0.5 C99.1,158,98.8,159.4,97.7,160.1z"/><path class="st4" d="M116.3,142.7c-2.2,2.6-4.7,4.9-6.7,7.7c0.1,0.1,0.1,0.1,0.2,0.2c2.3-2.2,4.5-4.4,6.8-6.6 c-0.8,1.8-2,3.2-3.4,4.4c-0.9,0.8-2.1,1.4-2.9,2.4c-0.5,0.6-1.2,0.3-1.8,0.1c-0.5-0.2,0-0.6,0.2-0.8c1.1-1.5,2.4-2.8,3.8-4 C113.8,145,114.9,143.7,116.3,142.7"/><path class="st11" d="M116.3,142.7c-2.2,2.6-4.7,4.9-6.7,7.7c0.1,0.1,0.1,0.1,0.2,0.2c2.3-2.2,4.5-4.4,6.8-6.6 c-0.8,1.8-2,3.2-3.4,4.4c-0.9,0.8-2.1,1.4-2.9,2.4c-0.5,0.6-1.2,0.3-1.8,0.1c-0.5-0.2,0-0.6,0.2-0.8c1.1-1.5,2.4-2.8,3.8-4 C113.8,145,114.9,143.7,116.3,142.7z"/><path class="st4" d="M114.9,134.9c-0.6,2.9-3.8,4-4.9,6.6c1.6-1,3-2.4,4.4-3.7c-1.6,2.6-4.3,4.3-6.1,7c-0.5-0.8-0.2-1.4,0.1-2 c0.5-1.1,1.2-2.1,2-3C111.7,138,113.4,136.6,114.9,134.9"/><path class="st11" d="M114.9,134.9c-0.6,2.9-3.8,4-4.9,6.6c1.6-1,3-2.4,4.4-3.7c-1.6,2.6-4.3,4.3-6.1,7c-0.5-0.8-0.2-1.4,0.1-2 c0.5-1.1,1.2-2.1,2-3C111.7,138,113.4,136.6,114.9,134.9z"/><path class="st4" d="M109.8,137.4c1.5-0.9,2.6-2.3,4-3.3c-1.4,2.2-3.4,3.8-5.2,5.9c-0.3-2.3,1.2-4.6,3.8-5.8 C111.6,135.6,110.3,136.2,109.8,137.4"/><path class="st11" d="M109.8,137.4c1.5-0.9,2.6-2.3,4-3.3c-1.4,2.2-3.4,3.8-5.2,5.9c-0.3-2.3,1.2-4.6,3.8-5.8 C111.6,135.6,110.3,136.2,109.8,137.4z"/><path class="st2" d="M113.4,124.5c-0.2-0.4-0.2-0.9-0.7-1.1c-0.2,0.1-0.2,0.3-0.2,0.4c0,0.9-0.7,1.3-1.5,1.6 c-0.5,0.2-0.7-0.3-0.9-0.7c-0.3-0.7-0.3-1.4,0.3-2c0.7-0.7,1.6-0.9,2.4-0.3C113.7,122.9,113.9,123.6,113.4,124.5"/><path class="st3" d="M113.4,124.5c-0.2-0.4-0.2-0.9-0.7-1.1c-0.2,0.1-0.2,0.3-0.2,0.4c0,0.9-0.7,1.3-1.5,1.6 c-0.5,0.2-0.7-0.3-0.9-0.7c-0.3-0.7-0.3-1.4,0.3-2c0.7-0.7,1.6-0.9,2.4-0.3C113.7,122.9,113.9,123.6,113.4,124.5z"/><path class="st4" d="M117.1,145.7c0.3,0.6,0.1,1-0.2,1.2c-1.4,1.5-2.9,3-4.3,4.5c-0.3,0.3-0.7,0.7-1.1,0.2 c-0.4-0.5,0.2-0.7,0.4-0.9C113.7,149.1,115.4,147.5,117.1,145.7"/><path class="st11" d="M117.1,145.7c0.3,0.6,0.1,1-0.2,1.2c-1.4,1.5-2.9,3-4.3,4.5c-0.3,0.3-0.7,0.7-1.1,0.2 c-0.4-0.5,0.2-0.7,0.4-0.9C113.7,149.1,115.4,147.5,117.1,145.7z"/><path class="st4" d="M116.7,148.5c-0.6,1.2-1.7,1.9-2.8,2.5C114.4,149.7,115.7,149.3,116.7,148.5"/><path class="st11" d="M116.7,148.5c-0.6,1.2-1.7,1.9-2.8,2.5C114.4,149.7,115.7,149.3,116.7,148.5z"/><path class="st4" d="M116.6,150.1c0.3-0.2,0.5-0.3,0.7-0.1c0.2,0.2,0.2,0.5-0.1,0.7c-0.2,0.2-0.5,0.2-0.7-0.1 C116.4,150.5,116.6,150.3,116.6,150.1"/><path class="st4" d="M116.4,142.3c0.1-0.3,0.1-0.6,0.5-0.8C117,142,116.9,142.2,116.4,142.3"/><path class="st11" d="M116.4,142.3c0.1-0.3,0.1-0.6,0.5-0.8C117,142,116.9,142.2,116.4,142.3z"/><path class="st0" d="M112.4,209.1c1.5-2.8,2.9-5.7,4.4-8.5c0.3-0.5,0.5-1.1,0.3-1.7c0.2-5.3,0.3-10.6,0.2-15.8 c0.2-3.1-0.1,10-0.2,6.9c0-0.1,0-0.2,0-0.3c0-0.1,0-0.2,0-0.2l0-2.3c0-0.1,0-0.1,0-0.2c0-0.1,0-0.2,0-0.4c0.1-1.3,0.1-2.6,0.1-3.9 c0-3.5,0-6.9,0.2-10.4c0.1-2.1,0-4.1,0.1-6.2c0.2-2.2,0.2-4.4,0-6.6c-0.1-2.2,0.1-2.5,2.2-1.9c1.5,0.5,3.1,0.8,3.9,2.4 c0.7,1.3,2.5,1.6,3.8,1.1c1.5-0.7,2.3-2.1,2-4c-0.1-1.2-1.4-2.2-2.8-2.4c-0.5-0.1-0.9-0.1-1.4-0.5c-1.7-1.6-3.7-2.6-6-2.9 c-0.7-0.1-1-0.4-1-1.2c0.2-2.9,0-5.9-0.3-8.8c-0.4-2.8-1-5.5-2.7-7.8c-0.4-0.5-0.4-0.7-0.1-1.2c1.3-1.9,1-4.3-0.9-5.7 c-0.6-0.4-0.6-0.7-0.2-1.2c0.8-1.4,0.2-3.1-1.1-3.8c-1.3-0.7-2.6-0.4-3.6,0.7c-0.9,1-0.9,2.4-0.1,3.5c0.3,0.3,0.4,0.5,0,0.9 c-2.1,2-2.1,4.3,0,6.3c0.3,0.3,0.4,0.4,0.1,0.7c-1.3,1.4-1.8,3.1-2.2,4.9c-0.8,3.7-0.9,7.4-0.8,11.2c0,1-0.2,1.3-1.2,1.3 c-3,0.1-5.6,1.2-7.8,3.3c-0.4,0.4-0.8,0.6-1.4,0.6c-2,0.2-2.9,1.4-3.1,3.2c-0.2,1.5,0.9,2.9,2.4,3.3c1.8,0.4,3.3-0.3,4.1-1.9 c0.2-0.4,0.2-0.7,0.6-0.9c1.9-1.1,3.8-1.7,6-1.7c0.5,0,0.7,0.2,0.7,0.7c0,1,0,2,0,3c0.2,13.6,0.8,11.1,1,24.7 c0.1,5.1,0.2,10.2,0.3,15.3c0,0.1,0,0.2,0,0.2c0.1,0.2,0.2,0.4,0.3,0.6c-0.1,0.2,0,0.4,0.1,0.5c0.1,0.1,0.2,0.3,0.2,0.4 c-0.1,0.2,0,0.3,0.1,0.5c0.1,0.1,0.2,0.3,0.2,0.4c0,0.3,0.1,0.5,0.2,0.6c0.2,0.4,0.2,1,0.6,1.3c0,0.1,0,0.1,0,0.2 c0.1,0.2,0.2,0.5,0.3,0.7c0,0.4,0.1,0.6,0.4,0.8c0.1,0.4,0.2,0.8,0.5,1.1c-0.1,0.2,0,0.3,0.1,0.5c0.1,0.1,0.2,0.3,0.2,0.4 c0,0.4,0.1,0.7,0.4,0.8C112.3,209.7,112.4,209.3,112.4,209.1 M112.5,123.9c0,0.9-0.7,1.3-1.5,1.6c-0.5,0.2-0.7-0.3-0.9-0.7 c-0.3-0.7-0.3-1.4,0.3-2c0.7-0.7,1.6-0.9,2.4-0.3c0.8,0.5,1,1.3,0.5,2.1c-0.2-0.4-0.2-0.9-0.7-1.1 C112.5,123.6,112.6,123.7,112.5,123.9 M116.4,165.7L116.4,165.7c-0.2,0.4-0.1,0.8,0,1.2l0,0c-0.2,1.9-0.2,3.9,0,5.8l0,0 c-0.2,0.7-0.1,1.3,0,2c0,0.1,0,0.2,0,0.3c0,0.1,0,0.2,0,0.3c0,0.1,0,0.1,0,0.2c-0.2,5.9-0.2,11.8-0.1,17.7c0,0.1,0,0.2,0,0.3 c-0.2,1.7,0.2-12.9,0.2-11.2c0,0.2,0,0.4,0,0.5c-0.1,3.9-0.1,7.9-0.2,11.8c0,1.4,0,2.8,0,4.2c0,1.1-0.8,1.8-1.3,2.8 c0,0.1-0.1,0.2-0.1,0.3c-0.2,0.3-0.4,0.6-0.6,0.9c-0.4,0.4-0.7,1-0.9,1.5c-0.1,0-0.1,0.1-0.1,0.2c-0.1,0-0.1,0.1-0.2,0.1 c-0.1,0.1-0.3,0.1-0.4,0.2c0-1.3,0-2.7-0.1-4c-0.1-15-0.4-13.8-0.5-28.8c0-4.6-0.1-9.3-0.1-13.9c0.6-0.8,1.6-0.7,2.4-1.1 c0.4-0.2,0.9-0.4,1.4-0.5c0.1,0,0.2,0,0.3,0l0,0c0,0.1,0.1,0.1,0.1,0.2l0,0c0,0.1,0,0.2,0,0.2c0,0.1,0,0.2,0,0.2 C116.3,159.9,116.3,162.8,116.4,165.7 M128.4,156.3c0.8,1.1,0.5,2.5-0.5,3.3c-1,0.8-2.6,0.5-3.3-0.5c-0.7-1-0.5-2.5,0.6-3.3 C126.2,155,127.6,155.3,128.4,156.3 M117.3,150c0.2,0.2,0.2,0.5-0.1,0.7c-0.2,0.2-0.5,0.2-0.7-0.1c-0.2-0.2,0-0.4,0.1-0.5 C116.9,149.9,117.2,149.9,117.3,150 M116.7,148.5c-0.6,1.2-1.7,1.9-2.8,2.5C114.4,149.7,115.7,149.3,116.7,148.5 M116.9,146.9 c-1.4,1.5-2.9,3-4.3,4.5c-0.3,0.3-0.7,0.7-1.1,0.2c-0.4-0.5,0.2-0.7,0.4-0.9c1.8-1.5,3.5-3.1,5.1-5 C117.3,146.3,117.2,146.6,116.9,146.9 M117,141.6c0,0.4-0.1,0.7-0.5,0.8C116.5,142,116.6,141.7,117,141.6 M109.6,131.5 c-0.9-1.3-0.6-3.3,0.7-4.3c1.3-1,3.3-0.6,4.3,0.8c1,1.4,0.7,3.3-0.7,4.3C112.6,133.2,110.5,132.9,109.6,131.5 M112.3,134.2 c-0.7,1.4-2,2-2.6,3.2c1.5-0.9,2.6-2.3,4-3.3c-1.4,2.2-3.4,3.8-5.2,5.9C108.3,137.7,109.8,135.4,112.3,134.2 M108.3,142.8 c0.5-1.1,1.2-2.1,2-3c1.4-1.7,3.1-3.2,4.6-4.9c-0.6,2.9-3.8,4-4.9,6.6c1.7-1,3-2.4,4.4-3.7c-1.6,2.6-4.3,4.3-6.1,7 C107.7,144,108,143.4,108.3,142.8 M108,148.8c-0.3-0.1-0.2-0.5-0.1-0.7c0.3-1.4,0.9-2.7,1.8-3.8c1.9-2.4,4.6-4.1,6.5-6.6 c-1,3.6-4.6,5.2-6.3,8.3c2.1-2.3,4.9-3.8,6.7-6.4c-0.6,2-2,3.4-3.5,4.7c-1.5,1.4-3,2.7-4.4,4.1C108.5,148.6,108.3,148.9,108,148.8 M112.5,146c1.3-1.1,2.4-2.3,3.8-3.3c-2.2,2.6-4.7,4.9-6.7,7.7c0.1,0.1,0.1,0.1,0.2,0.2c2.3-2.2,4.5-4.4,6.8-6.6 c-0.8,1.8-2,3.2-3.4,4.4c-0.9,0.8-2.1,1.4-2.9,2.4c-0.5,0.6-1.2,0.3-1.8,0.1c-0.5-0.2,0-0.6,0.2-0.8 C109.7,148.5,111,147.2,112.5,146 M110.1,152.7c1,0.3,1.8,0.3,2.7,0c4.1-1.4,8-1.1,11.5,1.6c0.2,0.2,0.7,0.4,0.3,0.8 c-0.3,0.3-0.6,0.8-1.2,0.3c-3.3-2.5-6.9-2.3-10.6-0.7c-0.8,0.3-1.4,0.3-2.2,0c-3.7-1.6-7.3-1.6-10.8,0.7c-0.2,0.1-0.5,0.3-0.7,0.4 c-0.4,0.2-0.6-0.2-0.8-0.4c-0.2-0.3,0.1-0.4,0.3-0.5c0.3-0.3,0.6-0.5,0.9-0.7C102.8,151.8,106.4,151.5,110.1,152.7 M94.5,159.6 c-0.7-1.1-0.4-2.6,0.6-3.3c1.1-0.7,2.6-0.5,3.3,0.5c0.8,1.1,0.5,2.5-0.6,3.3C96.6,160.9,95.2,160.7,94.5,159.6 M107.6,156 c-2.4-0.3-4.7,0.1-6.9,1.2c-0.2,0.1-0.6,0.7-0.9,0c-0.3-0.5,0.1-0.8,0.4-1c3.1-2.1,6.3-2.1,9.6-0.9c0.6,0.2,1.2,0.6,1.9,0.9 c1.9-0.8,3.7-1.7,5.8-1.8c2-0.1,3.8,0.4,5.3,1.6c0.4,0.3,0.8,0.6,0.4,1.1c-0.3,0.5-0.7-0.1-1-0.2c-2.5-1-5-1.7-7.8-0.7 c-0.9,0.3-1.8,0.2-2.8,0.1C110.2,156.7,108.9,156.2,107.6,156 M110.6,204.2c0-0.3-0.1-0.5-0.3-0.6c-0.1-0.2-0.2-0.4-0.4-0.6 c0-0.4-0.3-0.7-0.5-1c-0.4-0.7-0.5-1.4-0.6-2.2c-0.3-19.3-0.8-22.5-1.1-41.8c0-0.8,0-1.3,1-0.8c0.7,0.4,1.5,0.6,2.3,0.8 c0.3,0.4,0.1,0.8,0.1,1.2c0,4,0.1,8,0.1,12c0.1,14.6,0.5,13,0.5,27.6c0,2.4,0.2,4.9-0.1,7.3C111.3,205.4,110.9,204.8,110.6,204.2"/><path class="st0" d="M114.6,129.6c-0.1-0.7-0.5-1.3-1.3-1.4c0.6,0.8,1,1.5,0.3,2.4c-0.6,0.9-1.6,0.6-2.5,1c1,0.6,1.7,0.6,2.5,0.1 C114.3,131.2,114.7,130.5,114.6,129.6"/><path class="st2" d="M30.2,176.5c-0.9-0.1-1.9-0.2-2.8,0.1c-2.7,1-5.3,0.3-7.8-0.7c-0.3-0.1-0.6-0.6-1-0.2c-0.4,0.5,0,0.9,0.4,1.1 c1.6,1.2,3.4,1.6,5.3,1.6c2.1-0.1,3.9-0.9,5.8-1.8c0.6,0.3,1.2,0.7,1.9,0.9c3.3,1.2,6.5,1.2,9.6-0.9c0.4-0.3,0.7-0.5,0.4-1 c-0.3-0.6-0.7-0.1-0.9,0c-2.2,1.1-4.5,1.5-6.9,1.2C32.9,176.7,31.6,176.2,30.2,176.5"/><path class="st9" d="M30.2,176.5c-0.9-0.1-1.9-0.2-2.8,0.1c-2.7,1-5.3,0.3-7.8-0.7c-0.3-0.1-0.6-0.6-1-0.2c-0.4,0.5,0,0.9,0.4,1.1 c1.6,1.2,3.4,1.6,5.3,1.6c2.1-0.1,3.9-0.9,5.8-1.8c0.6,0.3,1.2,0.7,1.9,0.9c3.3,1.2,6.5,1.2,9.6-0.9c0.4-0.3,0.7-0.5,0.4-1 c-0.3-0.6-0.7-0.1-0.9,0c-2.2,1.1-4.5,1.5-6.9,1.2C32.9,176.7,31.6,176.2,30.2,176.5z"/><path class="st6" d="M25.6,139.7c0-0.1,0-0.2,0-0.3c0.2-1.7-0.2,12.9-0.2,11.2c0-0.2,0-0.4,0-0.5c0.1-3.9,0.1-7.9,0.2-11.8 c0-1.4,0-2.8,0-4.2c0-1.1,0.8-1.8,1.3-2.8c0-0.1,0.1-0.2,0.1-0.3c0.2-0.3,0.4-0.6,0.6-0.9c0.4-0.4,0.7-1,0.9-1.5 c0.1,0,0.1-0.1,0.1-0.2c0.1,0,0.1-0.1,0.2-0.1c0.1-0.1,0.3-0.1,0.4-0.2c0,1.4,0,2.7,0.1,4c0.1,15,0.4,13.8,0.5,28.8 c0,4.6,0.1,9.3,0.1,13.9c-0.6,0.8-1.6,0.7-2.4,1.1c-0.4,0.2-0.9,0.4-1.4,0.5c-0.1,0-0.2,0-0.3,0l0,0c0-0.1-0.1-0.1-0.1-0.2l0,0 c0-0.1,0-0.2,0-0.2c0-0.1,0-0.2,0-0.2c0.1-2.9,0.2-5.8,0-8.7l0,0c0.2-0.4,0.1-0.8,0-1.2h0c0.2-1.9,0.2-3.9,0-5.8v0 c0.2-0.7,0.1-1.3,0-2c0-0.1,0-0.2,0-0.3c0-0.1,0-0.2,0-0.3c0-0.1,0-0.1,0-0.2C25.6,151.5,25.7,145.6,25.6,139.7"/><path class="st10" d="M25.6,139.7c0-0.1,0-0.2,0-0.3c0.2-1.7-0.2,12.9-0.2,11.2c0-0.2,0-0.4,0-0.5c0.1-3.9,0.1-7.9,0.2-11.8 c0-1.4,0-2.8,0-4.2c0-1.1,0.8-1.8,1.3-2.8c0-0.1,0.1-0.2,0.1-0.3c0.2-0.3,0.4-0.6,0.6-0.9c0.4-0.4,0.7-1,0.9-1.5 c0.1,0,0.1-0.1,0.1-0.2c0.1,0,0.1-0.1,0.2-0.1c0.1-0.1,0.3-0.1,0.4-0.2c0,1.4,0,2.7,0.1,4c0.1,15,0.4,13.8,0.5,28.8 c0,4.6,0.1,9.3,0.1,13.9c-0.6,0.8-1.6,0.7-2.4,1.1c-0.4,0.2-0.9,0.4-1.4,0.5c-0.1,0-0.2,0-0.3,0l0,0c0-0.1-0.1-0.1-0.1-0.2l0,0 c0-0.1,0-0.2,0-0.2c0-0.1,0-0.2,0-0.2c0.1-2.9,0.2-5.8,0-8.7l0,0c0.2-0.4,0.1-0.8,0-1.2h0c0.2-1.9,0.2-3.9,0-5.8v0 c0.2-0.7,0.1-1.3,0-2c0-0.1,0-0.2,0-0.3c0-0.1,0-0.2,0-0.3c0-0.1,0-0.1,0-0.2C25.6,151.5,25.7,145.6,25.6,139.7z"/><path class="st6" d="M31.5,129.3c0.1,0.2,0.2,0.4,0.4,0.6c0,0.4,0.3,0.7,0.5,1c0.4,0.7,0.5,1.4,0.6,2.2c0.3,19.3,0.8,22.5,1.1,41.8 c0,0.8,0,1.3-1,0.8c-0.7-0.4-1.5-0.6-2.3-0.8c-0.3-0.4-0.1-0.8-0.1-1.2c0-4-0.1-8-0.1-12c-0.1-14.6-0.5-13-0.5-27.6 c0-2.4-0.2-4.9,0.1-7.3c0.3,0.6,0.7,1.2,1,1.8C31.1,129,31.3,129.2,31.5,129.3"/><path class="st10" d="M31.5,129.3c0.1,0.2,0.2,0.4,0.4,0.6c0,0.4,0.3,0.7,0.5,1c0.4,0.7,0.5,1.4,0.6,2.2 c0.3,19.3,0.8,22.5,1.1,41.8c0,0.8,0,1.3-1,0.8c-0.7-0.4-1.5-0.6-2.3-0.8c-0.3-0.4-0.1-0.8-0.1-1.2c0-4-0.1-8-0.1-12 c-0.1-14.6-0.5-13-0.5-27.6c0-2.4-0.2-4.9,0.1-7.3c0.3,0.6,0.7,1.2,1,1.8C31.1,129,31.3,129.2,31.5,129.3z"/><path class="st2" d="M42.2,178.8c-3.3,2.3-6.9,2.6-10.6,1.4c-1-0.3-1.8-0.3-2.7,0c-4.1,1.4-8,1.1-11.5-1.6 c-0.2-0.2-0.7-0.4-0.3-0.8c0.3-0.3,0.6-0.8,1.2-0.3c3.3,2.5,6.9,2.3,10.6,0.7c0.8-0.3,1.4-0.3,2.2,0c3.7,1.6,7.3,1.6,10.8-0.7 c0.2-0.1,0.5-0.3,0.7-0.4c0.4-0.2,0.6,0.2,0.8,0.4c0.2,0.3-0.1,0.4-0.3,0.5C42.9,178.4,42.6,178.6,42.2,178.8"/><path class="st9" d="M42.2,178.8c-3.3,2.3-6.9,2.6-10.6,1.4c-1-0.3-1.8-0.3-2.7,0c-4.1,1.4-8,1.1-11.5-1.6 c-0.2-0.2-0.7-0.4-0.3-0.8c0.3-0.3,0.6-0.8,1.2-0.3c3.3,2.5,6.9,2.3,10.6,0.7c0.8-0.3,1.4-0.3,2.2,0c3.7,1.6,7.3,1.6,10.8-0.7 c0.2-0.1,0.5-0.3,0.7-0.4c0.4-0.2,0.6,0.2,0.8,0.4c0.2,0.3-0.1,0.4-0.3,0.5C42.9,178.4,42.6,178.6,42.2,178.8z"/><path class="st2" d="M27.2,204.9c-1-1.4-0.7-3.3,0.7-4.3c1.3-1,3.4-0.6,4.3,0.8c0.9,1.3,0.6,3.3-0.7,4.3 C30.2,206.7,28.2,206.3,27.2,204.9"/><path class="st3" d="M27.2,204.9c-1-1.4-0.7-3.3,0.7-4.3c1.3-1,3.4-0.6,4.3,0.8c0.9,1.3,0.6,3.3-0.7,4.3 C30.2,206.7,28.2,206.3,27.2,204.9z"/><path class="st4" d="M25.2,193.3c0.6-2,2-3.4,3.5-4.7c1.5-1.4,3-2.7,4.4-4.1c0.2-0.2,0.4-0.5,0.7-0.4c0.3,0.1,0.2,0.5,0.1,0.7 c-0.3,1.4-0.9,2.7-1.8,3.8c-1.9,2.4-4.6,4.1-6.5,6.6c1-3.6,4.6-5.2,6.3-8.3C29.9,189.3,27,190.8,25.2,193.3"/><path class="st11" d="M25.2,193.3c0.6-2,2-3.4,3.5-4.7c1.5-1.4,3-2.7,4.4-4.1c0.2-0.2,0.4-0.5,0.7-0.4c0.3,0.1,0.2,0.5,0.1,0.7 c-0.3,1.4-0.9,2.7-1.8,3.8c-1.9,2.4-4.6,4.1-6.5,6.6c1-3.6,4.6-5.2,6.3-8.3C29.9,189.3,27,190.8,25.2,193.3z"/><path class="st2" d="M13.4,176.6c-0.8-1.1-0.5-2.5,0.5-3.3c1-0.8,2.6-0.5,3.3,0.5c0.7,1,0.5,2.5-0.6,3.3 C15.6,177.8,14.2,177.6,13.4,176.6"/><path class="st9" d="M13.4,176.6c-0.8-1.1-0.5-2.5,0.5-3.3c1-0.8,2.6-0.5,3.3,0.5c0.7,1,0.5,2.5-0.6,3.3 C15.6,177.8,14.2,177.6,13.4,176.6z"/><path class="st2" d="M44,172.7c1.1-0.8,2.5-0.5,3.3,0.5c0.7,1.1,0.4,2.6-0.6,3.3c-1.1,0.7-2.6,0.5-3.3-0.5 C42.6,174.9,42.9,173.5,44,172.7"/><path class="st9" d="M44,172.7c1.1-0.8,2.5-0.5,3.3,0.5c0.7,1.1,0.4,2.6-0.6,3.3c-1.1,0.7-2.6,0.5-3.3-0.5 C42.6,174.9,42.9,173.5,44,172.7z"/><path class="st4" d="M25.5,190.2c2.2-2.6,4.7-4.9,6.7-7.7c-0.1-0.1-0.1-0.1-0.2-0.2c-2.3,2.2-4.5,4.4-6.8,6.6 c0.8-1.8,2-3.2,3.4-4.4c0.9-0.8,2.1-1.4,2.9-2.4c0.5-0.6,1.2-0.3,1.8-0.1c0.5,0.2,0,0.6-0.2,0.8c-1.1,1.5-2.4,2.8-3.8,4 C28,187.9,26.9,189.2,25.5,190.2"/><path class="st11" d="M25.5,190.2c2.2-2.6,4.7-4.9,6.7-7.7c-0.1-0.1-0.1-0.1-0.2-0.2c-2.3,2.2-4.5,4.4-6.8,6.6 c0.8-1.8,2-3.2,3.4-4.4c0.9-0.8,2.1-1.4,2.9-2.4c0.5-0.6,1.2-0.3,1.8-0.1c0.5,0.2,0,0.6-0.2,0.8c-1.1,1.5-2.4,2.8-3.8,4 C28,187.9,26.9,189.2,25.5,190.2z"/><path class="st4" d="M26.9,198c0.6-2.9,3.8-4,4.9-6.6c-1.6,1-3,2.4-4.4,3.7c1.6-2.6,4.3-4.3,6.1-7c0.5,0.8,0.2,1.4-0.1,2 c-0.5,1.1-1.2,2.1-2,3C30.1,194.9,28.4,196.3,26.9,198"/><path class="st11" d="M26.9,198c0.6-2.9,3.8-4,4.9-6.6c-1.6,1-3,2.4-4.4,3.7c1.6-2.6,4.3-4.3,6.1-7c0.5,0.8,0.2,1.4-0.1,2 c-0.5,1.1-1.2,2.1-2,3C30.1,194.9,28.4,196.3,26.9,198z"/><path class="st4" d="M32,195.4c-1.5,0.9-2.6,2.3-4,3.3c1.4-2.2,3.4-3.8,5.2-5.9c0.3,2.3-1.2,4.6-3.8,5.8 C30.2,197.3,31.5,196.7,32,195.4"/><path class="st11" d="M32,195.4c-1.5,0.9-2.6,2.3-4,3.3c1.4-2.2,3.4-3.8,5.2-5.9c0.3,2.3-1.2,4.6-3.8,5.8 C30.2,197.3,31.5,196.7,32,195.4z"/><path class="st2" d="M28.4,208.4c0.2,0.4,0.2,0.9,0.7,1.1c0.2-0.1,0.2-0.3,0.2-0.4c0-0.9,0.7-1.3,1.5-1.6c0.5-0.2,0.7,0.3,0.9,0.7 c0.3,0.7,0.3,1.4-0.3,2c-0.7,0.7-1.6,0.9-2.4,0.3C28.1,210,27.8,209.2,28.4,208.4"/><path class="st3" d="M28.4,208.4c0.2,0.4,0.2,0.9,0.7,1.1c0.2-0.1,0.2-0.3,0.2-0.4c0-0.9,0.7-1.3,1.5-1.6c0.5-0.2,0.7,0.3,0.9,0.7 c0.3,0.7,0.3,1.4-0.3,2c-0.7,0.7-1.6,0.9-2.4,0.3C28.1,210,27.8,209.2,28.4,208.4z"/><path class="st4" d="M24.7,187.2c-0.3-0.6-0.1-1,0.2-1.2c1.4-1.5,2.9-3,4.3-4.5c0.3-0.3,0.7-0.7,1.1-0.2c0.4,0.5-0.2,0.7-0.4,0.9 C28,183.7,26.3,185.4,24.7,187.2"/><path class="st11" d="M24.7,187.2c-0.3-0.6-0.1-1,0.2-1.2c1.4-1.5,2.9-3,4.3-4.5c0.3-0.3,0.7-0.7,1.1-0.2c0.4,0.5-0.2,0.7-0.4,0.9 C28,183.7,26.3,185.4,24.7,187.2z"/><path class="st4" d="M25.1,184.4c0.6-1.2,1.7-1.9,2.8-2.5C27.4,183.2,26,183.6,25.1,184.4"/><path class="st11" d="M25.1,184.4c0.6-1.2,1.7-1.9,2.8-2.5C27.4,183.2,26,183.6,25.1,184.4z"/><path class="st4" d="M25.1,182.7c-0.3,0.2-0.5,0.3-0.7,0.1c-0.2-0.2-0.2-0.5,0.1-0.7c0.2-0.2,0.5-0.2,0.7,0.1 C25.4,182.4,25.2,182.6,25.1,182.7"/><path class="st4" d="M25.3,190.6c-0.1,0.3-0.1,0.6-0.5,0.8C24.8,190.9,24.9,190.7,25.3,190.6"/><path class="st11" d="M25.3,190.6c-0.1,0.3-0.1,0.6-0.5,0.8C24.8,190.9,24.9,190.7,25.3,190.6z"/><path class="st0" d="M29.3,123.8c-1.5,2.8-2.9,5.7-4.4,8.5c-0.3,0.5-0.5,1.1-0.3,1.7c-0.2,5.3-0.3,10.6-0.2,15.8 c-0.2,3.1,0.1-10,0.2-6.9c0,0.1,0,0.2,0,0.4c0,0.1,0,0.2,0,0.2l0,2.3c0,0.1,0,0.1,0,0.2c0,0.1,0,0.2,0,0.4 c-0.1,1.3-0.1,2.6-0.1,3.9c0,3.5,0,6.9-0.2,10.4c-0.1,2.1,0,4.1-0.1,6.2c-0.2,2.2-0.2,4.4,0,6.6c0.1,2.2-0.1,2.5-2.2,1.9 c-1.5-0.5-3.1-0.8-3.9-2.4c-0.7-1.3-2.5-1.6-3.8-1.1c-1.5,0.7-2.3,2.1-2,4c0.1,1.2,1.4,2.2,2.8,2.4c0.5,0.1,0.9,0.1,1.4,0.5 c1.7,1.6,3.7,2.6,6,2.9c0.7,0.1,1,0.4,1,1.2c-0.2,2.9,0,5.9,0.3,8.8c0.4,2.8,1,5.5,2.7,7.8c0.4,0.5,0.4,0.7,0.1,1.2 c-1.3,1.9-1,4.3,0.9,5.7c0.6,0.4,0.6,0.7,0.2,1.2c-0.8,1.4-0.2,3.1,1.1,3.8c1.3,0.7,2.6,0.4,3.6-0.7c0.9-1,0.9-2.4,0.1-3.5 c-0.3-0.3-0.4-0.5,0-0.9c2.1-2,2.1-4.3,0-6.3c-0.3-0.3-0.4-0.4-0.1-0.7c1.3-1.4,1.8-3.1,2.2-4.9c0.8-3.7,0.9-7.4,0.8-11.2 c0-1,0.2-1.3,1.3-1.3c3-0.1,5.6-1.2,7.8-3.3c0.4-0.4,0.8-0.6,1.4-0.6c2-0.2,2.9-1.4,3.1-3.2c0.2-1.5-0.9-2.9-2.4-3.3 c-1.8-0.4-3.3,0.3-4.1,1.9c-0.2,0.4-0.2,0.7-0.6,0.9c-1.9,1.1-3.8,1.7-6,1.7c-0.5,0-0.7-0.2-0.7-0.7c0-1,0-2,0-3 c-0.2-13.6-0.8-11.1-1-24.7c-0.1-5.1-0.2-10.2-0.3-15.3c0-0.1,0-0.2,0-0.2c-0.1-0.2-0.2-0.4-0.3-0.6c0.1-0.2,0-0.4-0.1-0.5 c-0.1-0.1-0.2-0.3-0.2-0.4c0.1-0.2,0-0.3-0.1-0.5c-0.1-0.1-0.2-0.3-0.2-0.4c0-0.3-0.1-0.5-0.2-0.6c-0.2-0.4-0.2-1-0.6-1.3 c0-0.1,0-0.1,0-0.2c-0.1-0.2-0.2-0.5-0.3-0.7c0-0.4-0.1-0.6-0.4-0.8c-0.1-0.4-0.2-0.8-0.5-1.1c0.1-0.2,0-0.3-0.1-0.5 c-0.1-0.1-0.2-0.3-0.2-0.4c0-0.4-0.1-0.7-0.4-0.8C29.5,123.2,29.3,123.6,29.3,123.8 M29.2,209c0-0.9,0.7-1.3,1.5-1.6 c0.5-0.2,0.7,0.3,0.9,0.7c0.3,0.7,0.3,1.4-0.3,2c-0.7,0.7-1.6,0.9-2.4,0.3c-0.8-0.5-1-1.3-0.5-2.1c0.2,0.4,0.2,0.9,0.7,1.1 C29.3,209.3,29.2,209.2,29.2,209 M25.4,167.2L25.4,167.2c0.2-0.4,0.1-0.8,0-1.2l0,0c0.2-1.9,0.2-3.9,0-5.8l0,0c0.2-0.7,0.1-1.3,0-2 c0-0.1,0-0.2,0-0.3c0-0.1,0-0.2,0-0.3c0-0.1,0-0.1,0-0.2c0.2-5.9,0.2-11.8,0.1-17.7c0-0.1,0-0.2,0-0.3c0.2-1.7-0.2,12.9-0.2,11.2 c0-0.2,0-0.4,0-0.5c0.1-3.9,0.1-7.9,0.2-11.8c0-1.4,0-2.8,0-4.2c0-1.1,0.8-1.8,1.3-2.8c0-0.1,0.1-0.2,0.1-0.3 c0.2-0.3,0.4-0.6,0.6-0.9c0.4-0.4,0.7-1,0.9-1.5c0.1,0,0.1-0.1,0.1-0.2c0.1,0,0.1-0.1,0.2-0.1c0.1-0.1,0.3-0.1,0.4-0.2 c0,1.3,0,2.7,0.1,4c0.1,15,0.4,13.8,0.5,28.8c0,4.6,0.1,9.3,0.1,13.9c-0.6,0.8-1.6,0.7-2.4,1.1c-0.4,0.2-0.9,0.4-1.4,0.5 c-0.1,0-0.2,0-0.3,0l0,0c0-0.1-0.1-0.1-0.1-0.2l0,0c0-0.1,0-0.2,0-0.2c0-0.1,0-0.2,0-0.2C25.5,172.9,25.5,170.1,25.4,167.2 M13.4,176.6c-0.8-1.1-0.5-2.5,0.5-3.3c1-0.8,2.6-0.5,3.3,0.5c0.7,1,0.5,2.5-0.6,3.3C15.6,177.8,14.2,177.6,13.4,176.6 M24.4,182.8 c-0.2-0.2-0.2-0.5,0.1-0.7c0.2-0.2,0.5-0.2,0.7,0.1c0.2,0.2,0,0.4-0.1,0.5C24.8,183,24.6,183,24.4,182.8 M25.1,184.4 c0.6-1.2,1.7-1.9,2.8-2.5C27.4,183.2,26,183.6,25.1,184.4 M24.9,186c1.4-1.5,2.9-3,4.3-4.5c0.3-0.3,0.7-0.7,1.1-0.2 c0.4,0.5-0.2,0.7-0.4,0.9c-1.8,1.5-3.5,3.1-5.1,5C24.4,186.6,24.6,186.3,24.9,186 M24.8,191.3c0-0.4,0.1-0.7,0.5-0.8 C25.2,190.9,25.2,191.2,24.8,191.3 M32.2,201.4c0.9,1.3,0.6,3.3-0.7,4.3c-1.3,1-3.3,0.6-4.3-0.8c-1-1.4-0.7-3.3,0.7-4.3 C29.2,199.6,31.2,200,32.2,201.4 M29.4,198.7c0.7-1.4,2-2,2.6-3.2c-1.5,0.9-2.6,2.3-4,3.3c1.4-2.2,3.4-3.8,5.2-5.9 C33.5,195.2,32,197.5,29.4,198.7 M33.5,190.1c-0.5,1.1-1.2,2.1-2,3c-1.4,1.7-3.1,3.2-4.6,4.9c0.6-2.9,3.8-4,4.9-6.6 c-1.7,1-3,2.4-4.4,3.7c1.6-2.6,4.3-4.3,6.1-7C34,188.9,33.7,189.5,33.5,190.1 M33.7,184.1c0.3,0.1,0.2,0.5,0.1,0.7 c-0.3,1.4-0.9,2.7-1.8,3.8c-1.9,2.4-4.5,4.1-6.5,6.6c1-3.6,4.6-5.2,6.3-8.3c-2.1,2.3-4.9,3.8-6.7,6.4c0.6-2,2-3.4,3.5-4.7 c1.5-1.4,3-2.7,4.4-4.1C33.2,184.3,33.4,184,33.7,184.1 M29.3,186.9c-1.3,1.1-2.4,2.3-3.8,3.3c2.2-2.6,4.7-4.9,6.7-7.7 c-0.1-0.1-0.1-0.1-0.2-0.2c-2.3,2.2-4.5,4.4-6.8,6.6c0.8-1.8,2-3.2,3.4-4.4c0.9-0.8,2.1-1.4,2.9-2.4c0.5-0.6,1.2-0.3,1.8-0.1 c0.5,0.2,0,0.6-0.2,0.8C32,184.4,30.7,185.7,29.3,186.9 M31.7,180.2c-1-0.3-1.8-0.3-2.7,0c-4.1,1.4-8,1.1-11.5-1.6 c-0.2-0.2-0.7-0.4-0.3-0.8c0.3-0.3,0.6-0.8,1.2-0.3c3.3,2.5,6.9,2.3,10.6,0.7c0.8-0.3,1.4-0.3,2.2,0c3.7,1.6,7.3,1.6,10.8-0.7 c0.2-0.1,0.5-0.3,0.7-0.4c0.4-0.2,0.6,0.2,0.8,0.4c0.2,0.3-0.1,0.4-0.3,0.5c-0.3,0.3-0.6,0.5-0.9,0.7 C38.9,181.1,35.3,181.4,31.7,180.2 M47.3,173.3c0.7,1.1,0.4,2.6-0.6,3.3c-1.1,0.7-2.6,0.5-3.3-0.5c-0.8-1.1-0.5-2.5,0.6-3.3 C45.1,172,46.6,172.2,47.3,173.3 M34.2,176.9c2.4,0.3,4.7-0.1,6.9-1.2c0.2-0.1,0.6-0.7,0.9,0c0.3,0.5-0.1,0.8-0.4,1 c-3.1,2.1-6.3,2.1-9.6,0.9c-0.6-0.2-1.2-0.6-1.9-0.9c-1.9,0.8-3.7,1.7-5.8,1.8c-2,0.1-3.8-0.4-5.3-1.6c-0.4-0.3-0.8-0.6-0.4-1.1 c0.3-0.5,0.7,0.1,1,0.2c2.5,1,5,1.7,7.8,0.7c0.9-0.3,1.8-0.2,2.8-0.1C31.6,176.2,32.9,176.7,34.2,176.9 M31.2,128.7 c0,0.3,0.1,0.5,0.3,0.6c0.1,0.2,0.2,0.4,0.4,0.6c0,0.4,0.3,0.7,0.5,1c0.4,0.7,0.5,1.4,0.6,2.2c0.3,19.3,0.8,22.5,1.1,41.8 c0,0.8,0,1.3-1,0.8c-0.7-0.4-1.5-0.6-2.3-0.8c-0.3-0.4-0.1-0.8-0.1-1.2c0-4-0.1-8-0.1-12c-0.1-14.6-0.5-13-0.5-27.6 c0-2.4-0.2-4.9,0.1-7.3C30.5,127.5,30.8,128.1,31.2,128.7"/><path class="st0" d="M27.2,203.3c0.1,0.7,0.5,1.3,1.3,1.4c-0.6-0.8-1-1.5-0.3-2.4c0.6-0.9,1.6-0.6,2.5-1c-1-0.6-1.7-0.6-2.5-0.1 C27.4,201.7,27.1,202.4,27.2,203.3"/><path class="st2" d="M44.2,114.2c0.1-1,0.2-2-0.1-2.9c-1-2.9-0.4-5.5,0.7-8.1c0.1-0.3,0.7-0.7,0.2-1c-0.5-0.4-0.9,0-1.2,0.4 c-1.2,1.6-1.7,3.5-1.6,5.6c0.1,2.2,1,4.1,1.9,6.1c-0.3,0.6-0.7,1.3-1,1.9c-1.3,3.5-1.3,6.8,1,10c0.3,0.4,0.5,0.7,1.1,0.5 c0.7-0.3,0.1-0.8,0-1c-1.2-2.3-1.6-4.8-1.3-7.3C44,117,44.5,115.6,44.2,114.2"/><path class="st9" d="M44.2,114.2c0.1-1,0.2-2-0.1-2.9c-1-2.9-0.4-5.5,0.7-8.1c0.1-0.3,0.7-0.7,0.2-1c-0.5-0.4-0.9,0-1.2,0.4 c-1.2,1.6-1.7,3.5-1.6,5.6c0.1,2.2,1,4.1,1.9,6.1c-0.3,0.6-0.7,1.3-1,1.9c-1.3,3.5-1.3,6.8,1,10c0.3,0.4,0.5,0.7,1.1,0.5 c0.7-0.3,0.1-0.8,0-1c-1.2-2.3-1.6-4.8-1.3-7.3C44,117,44.5,115.6,44.2,114.2z"/><path class="st6" d="M82.7,109.4c0.1,0,0.2,0,0.3,0c1.7,0.2-13.4-0.2-11.7-0.3c0.2,0,0.4,0,0.6,0c4.1,0.1,8.2,0.1,12.3,0.2 c1.4,0,29.6,0.1,31,0c1.1,0,1.9,0.9,2.9,1.3c0.1,0,0.2,0.1,0.3,0.1c0.3,0.2,0.7,0.4,1,0.6c0.5,0.4,1,0.7,1.6,0.9 c0,0.1,0.1,0.1,0.2,0.2c0.1,0.1,0.1,0.1,0.2,0.2c0.1,0.1,0.1,0.3,0.2,0.4c-1.4,0-2.8,0-4.2,0c-15.7,0-41.1,0.3-56.8,0.4 c-4.8,0-9.7,0.1-14.5,0.1c-0.9-0.6-0.7-1.7-1.2-2.5c-0.2-0.5-0.4-1-0.6-1.5c0-0.1,0-0.2,0-0.3l0,0c0.1,0,0.1-0.1,0.2-0.1l0,0 c0.1,0,0.2,0,0.2,0c0.1,0,0.2,0,0.2,0c3,0.2,6,0.2,9.1,0.1l0,0c0.4,0.2,0.8,0.1,1.2,0l0,0c2,0.2,4.1,0.2,6.1,0.1h0 c0.7,0.2,1.4,0.2,2.1,0.1c0.1,0,0.2,0,0.3,0c0.1,0,0.2,0,0.3,0c0.1,0,0.1,0,0.2,0C70.4,109.5,76.5,109.5,82.7,109.4"/><path class="st10" d="M82.7,109.4c0.1,0,0.2,0,0.3,0c1.7,0.2-13.4-0.2-11.7-0.3c0.2,0,0.4,0,0.6,0c4.1,0.1,8.2,0.1,12.3,0.2 c1.4,0,29.6,0.1,31,0c1.1,0,1.9,0.9,2.9,1.3c0.1,0,0.2,0.1,0.3,0.1c0.3,0.2,0.7,0.4,1,0.6c0.5,0.4,1,0.7,1.6,0.9 c0,0.1,0.1,0.1,0.2,0.2c0.1,0.1,0.1,0.1,0.2,0.2c0.1,0.1,0.1,0.3,0.2,0.4c-1.4,0-2.8,0-4.2,0c-15.7,0-41.1,0.3-56.8,0.4 c-4.8,0-9.7,0.1-14.5,0.1c-0.9-0.6-0.7-1.7-1.2-2.5c-0.2-0.5-0.4-1-0.6-1.5c0-0.1,0-0.2,0-0.3l0,0c0.1,0,0.1-0.1,0.2-0.1l0,0 c0.1,0,0.2,0,0.2,0c0.1,0,0.2,0,0.2,0c3,0.2,6,0.2,9.1,0.1l0,0c0.4,0.2,0.8,0.1,1.2,0l0,0c2,0.2,4.1,0.2,6.1,0.1h0 c0.7,0.2,1.4,0.2,2.1,0.1c0.1,0,0.2,0,0.3,0c0.1,0,0.2,0,0.3,0c0.1,0,0.1,0,0.2,0C70.4,109.5,76.5,109.5,82.7,109.4z"/><path class="st6" d="M120.2,115.7c-0.2,0.1-0.4,0.2-0.7,0.4c-0.4,0-0.8,0.3-1.1,0.6c-0.7,0.4-1.5,0.6-2.3,0.6 c-20.2,0.2-50.2,0.8-70.4,1c-0.8,0-1.4,0-0.8-1.1c0.4-0.7,0.6-1.6,0.9-2.4c0.4-0.3,0.9-0.1,1.3-0.1c4.2,0,8.3,0,12.5-0.1 c15.2,0,40.2-0.4,55.5-0.4c2.5,0,5.1-0.2,7.6,0.2c-0.6,0.4-1.3,0.7-1.9,1.1C120.6,115.4,120.4,115.5,120.2,115.7"/><path class="st10" d="M120.2,115.7c-0.2,0.1-0.4,0.2-0.7,0.4c-0.4,0-0.8,0.3-1.1,0.6c-0.7,0.4-1.5,0.6-2.3,0.6 c-20.2,0.2-50.2,0.8-70.4,1c-0.8,0-1.4,0-0.8-1.1c0.4-0.7,0.6-1.6,0.9-2.4c0.4-0.3,0.9-0.1,1.3-0.1c4.2,0,8.3,0,12.5-0.1 c15.2,0,40.2-0.4,55.5-0.4c2.5,0,5.1-0.2,7.6,0.2c-0.6,0.4-1.3,0.7-1.9,1.1C120.6,115.4,120.4,115.5,120.2,115.7z"/><path class="st2" d="M41.8,126.8c-2.4-3.5-2.7-7.2-1.5-11.1c0.3-1,0.3-1.8-0.1-2.8c-1.4-4.3-1.2-8.4,1.6-12 c0.2-0.2,0.4-0.8,0.8-0.3c0.3,0.3,0.8,0.6,0.3,1.2c-2.6,3.5-2.3,7.3-0.7,11.1c0.4,0.8,0.4,1.5,0,2.3c-1.7,3.8-1.6,7.6,0.7,11.3 c0.2,0.2,0.3,0.5,0.4,0.8c0.2,0.4-0.2,0.6-0.4,0.8c-0.3,0.2-0.4-0.1-0.5-0.3C42.3,127.5,42.1,127.1,41.8,126.8"/><path class="st9" d="M41.8,126.8c-2.4-3.5-2.7-7.2-1.5-11.1c0.3-1,0.3-1.8-0.1-2.8c-1.4-4.3-1.2-8.4,1.6-12 c0.2-0.2,0.4-0.8,0.8-0.3c0.3,0.3,0.8,0.6,0.3,1.2c-2.6,3.5-2.3,7.3-0.7,11.1c0.4,0.8,0.4,1.5,0,2.3c-1.7,3.8-1.6,7.6,0.7,11.3 c0.2,0.2,0.3,0.5,0.4,0.8c0.2,0.4-0.2,0.6-0.4,0.8c-0.3,0.2-0.4-0.1-0.5-0.3C42.3,127.5,42.1,127.1,41.8,126.8z"/><path class="st2" d="M14.5,111c1.5-1.1,3.4-0.8,4.5,0.7c1,1.4,0.6,3.5-0.8,4.5c-1.4,1-3.5,0.6-4.5-0.7 C12.7,114.1,13.1,112,14.5,111"/><path class="st3" d="M14.5,111c1.5-1.1,3.4-0.8,4.5,0.7c1,1.4,0.6,3.5-0.8,4.5c-1.4,1-3.5,0.6-4.5-0.7 C12.7,114.1,13.1,112,14.5,111z"/><path class="st4" d="M26.6,108.9c2.1,0.7,3.5,2.1,4.9,3.6c1.4,1.5,2.8,3.1,4.3,4.6c0.2,0.2,0.5,0.4,0.4,0.7 c-0.1,0.3-0.5,0.2-0.8,0.1c-1.5-0.3-2.8-0.9-4-1.9c-2.5-2-4.3-4.8-6.9-6.8c3.8,1,5.5,4.8,8.7,6.6C30.9,113.8,29.3,110.8,26.6,108.9"/><path class="st11" d="M26.6,108.9c2.1,0.7,3.5,2.1,4.9,3.6c1.4,1.5,2.8,3.1,4.3,4.6c0.2,0.2,0.5,0.4,0.4,0.7 c-0.1,0.3-0.5,0.2-0.8,0.1c-1.5-0.3-2.8-0.9-4-1.9c-2.5-2-4.3-4.8-6.9-6.8c3.8,1,5.5,4.8,8.7,6.6C30.9,113.8,29.3,110.8,26.6,108.9 z"/><path class="st2" d="M44.1,96.6c1.1-0.8,2.6-0.6,3.4,0.6c0.8,1.1,0.6,2.7-0.5,3.5c-1.1,0.8-2.7,0.5-3.5-0.6 C42.8,98.9,43,97.4,44.1,96.6"/><path class="st9" d="M44.1,96.6c1.1-0.8,2.6-0.6,3.4,0.6c0.8,1.1,0.6,2.7-0.5,3.5c-1.1,0.8-2.7,0.5-3.5-0.6 C42.8,98.9,43,97.4,44.1,96.6z"/><path class="st2" d="M48.2,128.7c0.8,1.1,0.6,2.7-0.5,3.4c-1.1,0.8-2.7,0.5-3.4-0.6c-0.8-1.1-0.5-2.7,0.6-3.5 C45.9,127.2,47.3,127.5,48.2,128.7"/><path class="st9" d="M48.2,128.7c0.8,1.1,0.6,2.7-0.5,3.4c-1.1,0.8-2.7,0.5-3.4-0.6c-0.8-1.1-0.5-2.7,0.6-3.5 C45.9,127.2,47.3,127.5,48.2,128.7z"/><path class="st4" d="M29.9,109.2c2.7,2.3,5.2,4.9,8,7c0.1-0.1,0.1-0.1,0.2-0.2l-7-7.1c1.8,0.8,3.3,2.1,4.7,3.6 c0.9,1,1.5,2.2,2.5,3.1c0.6,0.5,0.3,1.3,0.1,1.8c-0.2,0.5-0.6,0-0.9-0.2c-1.6-1.1-2.9-2.5-4.2-4C32.3,111.8,30.9,110.7,29.9,109.2"/><path class="st11" d="M29.9,109.2c2.7,2.3,5.2,4.9,8,7c0.1-0.1,0.1-0.1,0.2-0.2l-7-7.1c1.8,0.8,3.3,2.1,4.7,3.6 c0.9,1,1.5,2.2,2.5,3.1c0.6,0.5,0.3,1.3,0.1,1.8c-0.2,0.5-0.6,0-0.9-0.2c-1.6-1.1-2.9-2.5-4.2-4C32.3,111.8,30.9,110.7,29.9,109.2z"/><path class="st4" d="M21.7,110.7c3,0.7,4.2,4,6.9,5.2c-1.1-1.7-2.5-3.1-3.8-4.6c2.8,1.7,4.5,4.5,7.3,6.4c-0.8,0.5-1.5,0.2-2.1-0.1 c-1.2-0.5-2.2-1.3-3.2-2.1C25,114,23.5,112.2,21.7,110.7"/><path class="st11" d="M21.7,110.7c3,0.7,4.2,4,6.9,5.2c-1.1-1.7-2.5-3.1-3.8-4.6c2.8,1.7,4.5,4.5,7.3,6.4c-0.8,0.5-1.5,0.2-2.1-0.1 c-1.2-0.5-2.2-1.3-3.2-2.1C25,114,23.5,112.2,21.7,110.7z"/><path class="st4" d="M24.4,116c-0.9-1.6-2.4-2.7-3.4-4.2c2.3,1.4,4,3.5,6.1,5.4c-2.4,0.3-4.8-1.3-6.1-3.9 C22.5,114.1,23.1,115.5,24.4,116"/><path class="st11" d="M24.4,116c-0.9-1.6-2.4-2.7-3.4-4.2c2.3,1.4,4,3.5,6.1,5.4c-2.4,0.3-4.8-1.3-6.1-3.9 C22.5,114.1,23.1,115.5,24.4,116z"/><path class="st2" d="M10.9,112.2c-0.4,0.2-0.9,0.2-1.1,0.7c0.1,0.2,0.3,0.2,0.4,0.2c1,0,1.4,0.8,1.7,1.6c0.2,0.6-0.4,0.8-0.7,1 c-0.7,0.4-1.5,0.3-2.1-0.3c-0.8-0.8-0.9-1.7-0.3-2.6C9.2,111.9,10,111.6,10.9,112.2"/><path class="st3" d="M10.9,112.2c-0.4,0.2-0.9,0.2-1.1,0.7c0.1,0.2,0.3,0.2,0.4,0.2c1,0,1.4,0.8,1.7,1.6c0.2,0.6-0.4,0.8-0.7,1 c-0.7,0.4-1.5,0.3-2.1-0.3c-0.8-0.8-0.9-1.7-0.3-2.6C9.2,111.9,10,111.6,10.9,112.2z"/><path class="st4" d="M33,108.4c0.6-0.3,1-0.1,1.3,0.2c1.6,1.5,3.1,3,4.7,4.6c0.3,0.3,0.7,0.7,0.2,1.1c-0.5,0.4-0.7-0.2-0.9-0.5 C36.6,111.9,34.9,110.1,33,108.4"/><path class="st11" d="M33,108.4c0.6-0.3,1-0.1,1.3,0.2c1.6,1.5,3.1,3,4.7,4.6c0.3,0.3,0.7,0.7,0.2,1.1c-0.5,0.4-0.7-0.2-0.9-0.5 C36.6,111.9,34.9,110.1,33,108.4z"/><path class="st4" d="M36,108.8c1.2,0.6,2,1.7,2.7,2.9C37.2,111.2,36.8,109.8,36,108.8"/><path class="st11" d="M36,108.8c1.2,0.6,2,1.7,2.7,2.9C37.2,111.2,36.8,109.8,36,108.8z"/><path class="st4" d="M37.7,108.9c-0.2-0.3-0.3-0.6-0.1-0.7c0.2-0.2,0.6-0.2,0.8,0.1c0.2,0.2,0.2,0.6-0.1,0.8 C38,109.1,37.8,108.9,37.7,108.9"/><path class="st4" d="M29.5,109c-0.3-0.1-0.7-0.1-0.8-0.6C29.1,108.5,29.4,108.6,29.5,109"/><path class="st11" d="M29.5,109c-0.3-0.1-0.7-0.1-0.8-0.6C29.1,108.5,29.4,108.6,29.5,109z"/><path class="st0" d="M126,113.5c-3-1.5-6-3.1-8.9-4.6c-0.6-0.3-1.2-0.5-1.8-0.4c-5.5-0.2-37.7-0.4-43.2-0.4 c-3.2-0.2,10.4,0.1,7.2,0.2c-0.1,0-0.2,0-0.4,0c-0.1,0-0.2,0-0.2,0c-0.8,0-1.6,0-2.5,0c-0.1,0-0.2,0-0.2,0c-0.1,0-0.2,0-0.4,0 c-1.4-0.2-2.7-0.1-4.1-0.1c-3.6,0-7.2-0.1-10.9-0.2c-2.2-0.1-4.3,0-6.5-0.2c-2.3-0.2-4.6-0.2-6.9-0.1c-2.3,0.1-2.6-0.1-2-2.3 c0.5-1.6,0.8-3.2,2.5-4.1c1.3-0.7,1.7-2.6,1.1-4c-0.7-1.6-2.2-2.4-4.2-2.2c-1.2,0.1-2.3,1.4-2.5,2.9c-0.1,0.5-0.1,1-0.5,1.4 c-1.6,1.8-2.7,3.9-3,6.3c-0.1,0.7-0.4,1.1-1.2,1c-3.1-0.2-6.1,0-9.2,0.3c-2.9,0.4-5.8,1-8.2,2.8c-0.5,0.4-0.7,0.4-1.3,0.1 c-2-1.4-4.5-1-5.9,0.9c-0.5,0.6-0.7,0.6-1.3,0.2c-1.4-0.8-3.2-0.3-3.9,1.1c-0.7,1.4-0.4,2.7,0.7,3.8c1,0.9,2.5,1,3.7,0.1 c0.4-0.3,0.5-0.5,0.9,0c2.1,2.2,4.5,2.2,6.6,0c0.3-0.3,0.4-0.4,0.8-0.1c1.5,1.4,3.3,1.9,5.2,2.3c3.9,0.8,7.8,1,11.7,0.9 c1,0,1.3,0.2,1.4,1.3c0.1,3.1,1.3,5.9,3.5,8.2c0.4,0.4,0.6,0.9,0.7,1.5c0.2,2.1,1.4,3,3.3,3.3c1.5,0.2,3.1-1,3.4-2.5 c0.4-1.8-0.4-3.5-2-4.3c-0.4-0.2-0.8-0.3-1-0.7c-1.1-2-1.8-4-1.8-6.3c0-0.5,0.2-0.7,0.7-0.7c1,0,2.1,0,3.1,0 c14.2-0.2,11.6-0.8,25.8-1c5.3-0.1,37.3-0.1,42.6-0.2c0.1,0,0.2,0,0.2,0c0.2-0.1,0.4-0.2,0.7-0.3c0.2,0.1,0.4,0,0.5-0.1 c0.1-0.1,0.3-0.2,0.4-0.3c0.2,0.1,0.3,0,0.5-0.1c0.2-0.1,0.3-0.2,0.5-0.2c0.3,0,0.5-0.1,0.7-0.3c0.4-0.2,1-0.2,1.4-0.6 c0.1,0,0.1,0,0.2-0.1c0.2-0.1,0.5-0.2,0.7-0.3c0.4,0,0.6-0.2,0.9-0.4c0.4-0.1,0.8-0.2,1.1-0.5c0.2,0.1,0.4,0,0.5-0.1 c0.1-0.1,0.3-0.2,0.4-0.2c0.4,0,0.8-0.1,0.8-0.5C126.6,113.6,126.2,113.5,126,113.5 M10.2,113.1c1,0,1.4,0.8,1.7,1.6 c0.2,0.6-0.4,0.8-0.7,1c-0.7,0.4-1.5,0.3-2.1-0.3c-0.8-0.8-0.9-1.7-0.3-2.5c0.5-0.8,1.3-1.1,2.2-0.5c-0.4,0.2-0.9,0.2-1.1,0.7 C9.9,113.1,10.1,113.1,10.2,113.1 M54,109.1L54,109.1c0.4,0.2,0.8,0.1,1.2,0l0,0c2,0.2,4.1,0.2,6.1,0.1h0c0.7,0.2,1.4,0.2,2.1,0.1 c0.1,0,0.2,0,0.3,0c0.1,0,0.2,0,0.3,0c0.1,0,0.1,0,0.2,0c6.2,0.2,12.3,0.3,18.5,0.2c0.1,0,0.2,0,0.3,0c1.7,0.2-13.4-0.2-11.7-0.3 c0.2,0,0.4,0,0.6,0c4.1,0.1,8.2,0.1,12.3,0.2c1.4,0,29.6,0.1,31,0.1c1.1,0,1.9,0.9,2.9,1.3c0.1,0,0.2,0.1,0.3,0.1 c0.3,0.2,0.7,0.4,1,0.6c0.5,0.4,1,0.7,1.6,0.9c0,0.1,0.1,0.1,0.2,0.2c0.1,0.1,0.1,0.1,0.2,0.2c0.1,0.1,0.1,0.3,0.2,0.4 c-1.4,0-2.8,0-4.2,0c-15.7,0-41.1,0.3-56.8,0.4c-4.8,0-9.7,0.1-14.5,0.1c-0.9-0.6-0.7-1.7-1.2-2.5c-0.2-0.5-0.4-1-0.6-1.5 c0-0.1,0-0.2,0-0.3l0,0c0.1,0,0.1-0.1,0.2-0.1l0,0c0.1,0,0.2,0,0.2,0c0.1,0,0.2,0,0.2,0C47.9,109.2,50.9,109.3,54,109.1 M44.1,96.6 c1.1-0.8,2.6-0.6,3.4,0.6c0.8,1.1,0.6,2.7-0.5,3.5c-1.1,0.8-2.7,0.5-3.5-0.6C42.8,98.9,43,97.4,44.1,96.6 M37.6,108.1 c0.2-0.2,0.6-0.2,0.8,0.1c0.2,0.2,0.2,0.6-0.1,0.8c-0.2,0.2-0.4,0-0.6-0.1C37.4,108.6,37.4,108.3,37.6,108.1 M36,108.8 c1.2,0.6,2,1.7,2.7,2.9C37.2,111.2,36.8,109.8,36,108.8 M34.3,108.6c1.6,1.5,3.1,3,4.7,4.6c0.3,0.3,0.7,0.7,0.2,1.1 c-0.5,0.4-0.7-0.2-0.9-0.5c-1.6-1.9-3.3-3.7-5.2-5.4C33.6,108.1,34,108.3,34.3,108.6 M28.7,108.5c0.4,0,0.7,0.1,0.8,0.6 C29.2,108.9,28.8,108.9,28.7,108.5 M18.2,116.2c-1.4,1-3.5,0.6-4.5-0.7c-1-1.4-0.7-3.5,0.8-4.5c1.5-1.1,3.4-0.8,4.5,0.7 C20,113.1,19.6,115.2,18.2,116.2 M21.1,113.3c1.4,0.8,2.1,2.1,3.4,2.7c-0.9-1.6-2.4-2.7-3.4-4.2c2.3,1.4,4,3.5,6.1,5.4 C24.7,117.6,22.3,116,21.1,113.3 M30,117.6c-1.2-0.5-2.2-1.3-3.2-2.1c-1.8-1.5-3.3-3.3-5.1-4.8c3,0.7,4.2,4,6.9,5.2 c-1.1-1.7-2.5-3.1-3.8-4.6c2.8,1.7,4.5,4.5,7.3,6.4C31.3,118.1,30.6,117.9,30,117.6 M36.3,117.9c-0.1,0.3-0.5,0.2-0.8,0.2 c-1.4-0.3-2.8-1-4-1.9c-2.5-2-4.3-4.8-6.9-6.8c3.8,1,5.5,4.8,8.7,6.6c-2.4-2.2-4-5.1-6.7-7c2.1,0.7,3.5,2.1,4.9,3.6 c1.4,1.5,2.8,3.1,4.3,4.6C36.1,117.3,36.4,117.5,36.3,117.9 M33.4,113.2c-1.1-1.4-2.5-2.5-3.5-4c2.7,2.3,5.2,4.9,8,7 c0.1-0.1,0.1-0.1,0.2-0.2c-2.3-2.4-4.6-4.7-7-7.1c1.8,0.8,3.3,2.1,4.7,3.6c0.9,1,1.5,2.2,2.5,3.1c0.6,0.5,0.3,1.3,0.1,1.8 c-0.2,0.5-0.6,0-0.9-0.2C36,116.1,34.6,114.7,33.4,113.2 M40.4,115.7c0.3-1,0.3-1.8-0.1-2.8c-1.4-4.3-1.2-8.4,1.6-12 c0.2-0.2,0.4-0.8,0.8-0.3c0.3,0.3,0.8,0.6,0.3,1.2c-2.6,3.5-2.3,7.3-0.7,11.1c0.4,0.8,0.4,1.5,0,2.3c-1.6,3.8-1.6,7.6,0.7,11.3 c0.2,0.2,0.3,0.5,0.4,0.8c0.2,0.4-0.2,0.6-0.4,0.8c-0.3,0.2-0.4-0.1-0.5-0.3c-0.3-0.3-0.5-0.7-0.7-1 C39.4,123.3,39.1,119.6,40.4,115.7 M47.6,132.1c-1.1,0.8-2.7,0.5-3.4-0.6c-0.8-1.1-0.5-2.7,0.6-3.5c1.1-0.8,2.6-0.5,3.4,0.7 C49,129.8,48.8,131.3,47.6,132.1 M43.8,118.4c-0.3,2.5,0.1,5,1.3,7.3c0.1,0.2,0.7,0.7,0,1c-0.5,0.3-0.8-0.1-1.1-0.5 c-2.2-3.2-2.3-6.6-1-10c0.2-0.7,0.6-1.3,1-1.9c-0.9-1.9-1.8-3.9-1.9-6.1c-0.1-2.1,0.4-3.9,1.6-5.6c0.3-0.4,0.7-0.8,1.2-0.4 c0.5,0.4-0.1,0.7-0.2,1c-1,2.6-1.7,5.3-0.7,8.1c0.3,0.9,0.2,1.9,0.1,2.9C44.5,115.6,44,117,43.8,118.4 M120.9,115.4 c-0.3,0-0.5,0.1-0.7,0.3c-0.2,0.1-0.4,0.2-0.7,0.4c-0.4,0-0.8,0.3-1.1,0.6c-0.7,0.4-1.5,0.6-2.3,0.6c-20.2,0.2-50.2,0.8-70.4,1 c-0.8,0-1.4,0-0.8-1.1c0.4-0.7,0.6-1.6,0.9-2.4c0.4-0.3,0.9-0.1,1.3-0.1c4.2,0,8.3,0,12.5-0.1c15.2,0,40.2-0.4,55.5-0.4 c2.5,0,5.1-0.2,7.6,0.2C122.1,114.7,121.5,115,120.9,115.4"/><path class="st0" d="M16.2,110.9c-0.8,0.1-1.4,0.5-1.5,1.4c0.8-0.6,1.5-1,2.5-0.3c0.9,0.6,0.7,1.6,1,2.6c0.6-1,0.6-1.8,0.1-2.7 C17.9,111.2,17.1,110.8,16.2,110.9"/><path class="st2" d="M30.2,69c-0.9-0.1-1.9-0.2-2.8,0.1c-2.7,1-5.3,0.3-7.8-0.7c-0.3-0.1-0.6-0.6-1-0.2c-0.4,0.5,0,0.9,0.4,1.1 c1.6,1.2,3.4,1.6,5.3,1.6c2.1-0.1,3.9-0.9,5.8-1.8c0.6,0.3,1.2,0.7,1.9,0.9c3.3,1.2,6.5,1.2,9.6-0.9c0.4-0.3,0.7-0.5,0.4-1 c-0.3-0.6-0.7-0.1-0.9,0c-2.2,1.1-4.5,1.5-6.9,1.2C32.9,69.2,31.6,68.7,30.2,69"/><path class="st9" d="M30.2,69c-0.9-0.1-1.9-0.2-2.8,0.1c-2.7,1-5.3,0.3-7.8-0.7c-0.3-0.1-0.6-0.6-1-0.2c-0.4,0.5,0,0.9,0.4,1.1 c1.6,1.2,3.4,1.6,5.3,1.6c2.1-0.1,3.9-0.9,5.8-1.8c0.6,0.3,1.2,0.7,1.9,0.9c3.3,1.2,6.5,1.2,9.6-0.9c0.4-0.3,0.7-0.5,0.4-1 c-0.3-0.6-0.7-0.1-0.9,0c-2.2,1.1-4.5,1.5-6.9,1.2C32.9,69.2,31.6,68.7,30.2,69z"/><path class="st6" d="M25.6,32.2c0-0.1,0-0.2,0-0.3c0.2-1.7-0.2,12.9-0.2,11.2c0-0.2,0-0.4,0-0.5c0.1-3.9,0.1-7.9,0.2-11.8 c0-1.4,0-2.8,0-4.2c0-1.1,0.8-1.8,1.3-2.8c0-0.1,0.1-0.2,0.1-0.3c0.2-0.3,0.4-0.6,0.6-0.9c0.4-0.4,0.7-1,0.9-1.5 c0.1,0,0.1-0.1,0.1-0.2c0.1-0.1,0.1-0.1,0.2-0.1c0.1-0.1,0.3-0.1,0.4-0.2c0,1.4,0,2.7,0.1,4c0.1,15,0.4,13.8,0.5,28.8 c0,4.6,0.1,9.3,0.1,13.9c-0.6,0.8-1.6,0.7-2.4,1.1c-0.4,0.2-0.9,0.4-1.4,0.5c-0.1,0-0.2,0-0.3,0l0,0c0-0.1-0.1-0.1-0.1-0.2l0,0 c0-0.1,0-0.2,0-0.2c0-0.1,0-0.2,0-0.2c0.1-2.9,0.2-5.8,0-8.7l0,0c0.2-0.4,0.1-0.8,0-1.2h0c0.2-1.9,0.2-3.9,0-5.8v0 c0.2-0.7,0.1-1.3,0-2c0-0.1,0-0.2,0-0.3c0-0.1,0-0.2,0-0.3c0-0.1,0-0.1,0-0.2C25.6,44,25.7,38.1,25.6,32.2"/><path class="st10" d="M25.6,32.2c0-0.1,0-0.2,0-0.3c0.2-1.7-0.2,12.9-0.2,11.2c0-0.2,0-0.4,0-0.5c0.1-3.9,0.1-7.9,0.2-11.8 c0-1.4,0-2.8,0-4.2c0-1.1,0.8-1.8,1.3-2.8c0-0.1,0.1-0.2,0.1-0.3c0.2-0.3,0.4-0.6,0.6-0.9c0.4-0.4,0.7-1,0.9-1.5 c0.1,0,0.1-0.1,0.1-0.2c0.1-0.1,0.1-0.1,0.2-0.1c0.1-0.1,0.3-0.1,0.4-0.2c0,1.4,0,2.7,0.1,4c0.1,15,0.4,13.8,0.5,28.8 c0,4.6,0.1,9.3,0.1,13.9c-0.6,0.8-1.6,0.7-2.4,1.1c-0.4,0.2-0.9,0.4-1.4,0.5c-0.1,0-0.2,0-0.3,0l0,0c0-0.1-0.1-0.1-0.1-0.2l0,0 c0-0.1,0-0.2,0-0.2c0-0.1,0-0.2,0-0.2c0.1-2.9,0.2-5.8,0-8.7l0,0c0.2-0.4,0.1-0.8,0-1.2h0c0.2-1.9,0.2-3.9,0-5.8v0 c0.2-0.7,0.1-1.3,0-2c0-0.1,0-0.2,0-0.3c0-0.1,0-0.2,0-0.3c0-0.1,0-0.1,0-0.2C25.6,44,25.7,38.1,25.6,32.2z"/><path class="st6" d="M31.5,21.8c0.1,0.2,0.2,0.4,0.4,0.6c0,0.4,0.3,0.7,0.5,1c0.4,0.7,0.5,1.4,0.6,2.2C33.2,45,33.8,48.2,34,67.5 c0,0.8,0,1.3-1,0.8c-0.7-0.4-1.5-0.6-2.3-0.8c-0.3-0.4-0.1-0.8-0.1-1.2c0-4-0.1-8-0.1-12c-0.1-14.6-0.5-13-0.5-27.6 c0-2.4-0.2-4.9,0.1-7.3c0.3,0.6,0.7,1.2,1,1.8C31.1,21.5,31.3,21.7,31.5,21.8"/><path class="st10" d="M31.5,21.8c0.1,0.2,0.2,0.4,0.4,0.6c0,0.4,0.3,0.7,0.5,1c0.4,0.7,0.5,1.4,0.6,2.2C33.2,45,33.8,48.2,34,67.5 c0,0.8,0,1.3-1,0.8c-0.7-0.4-1.5-0.6-2.3-0.8c-0.3-0.4-0.1-0.8-0.1-1.2c0-4-0.1-8-0.1-12c-0.1-14.6-0.5-13-0.5-27.6 c0-2.4-0.2-4.9,0.1-7.3c0.3,0.6,0.7,1.2,1,1.8C31.1,21.5,31.3,21.7,31.5,21.8z"/><path class="st2" d="M42.2,71.3c-3.3,2.3-6.9,2.6-10.6,1.4c-1-0.3-1.8-0.3-2.7,0c-4.1,1.4-8,1.1-11.5-1.6c-0.2-0.2-0.7-0.4-0.3-0.8 c0.3-0.3,0.6-0.8,1.2-0.3c3.3,2.5,6.9,2.3,10.6,0.7c0.8-0.3,1.4-0.3,2.2,0c3.7,1.6,7.3,1.6,10.8-0.7c0.2-0.1,0.5-0.3,0.7-0.4 c0.4-0.2,0.6,0.2,0.8,0.4c0.2,0.3-0.1,0.4-0.3,0.5C42.9,70.9,42.6,71.1,42.2,71.3"/><path class="st9" d="M42.2,71.3c-3.3,2.3-6.9,2.6-10.6,1.4c-1-0.3-1.8-0.3-2.7,0c-4.1,1.4-8,1.1-11.5-1.6c-0.2-0.2-0.7-0.4-0.3-0.8 c0.3-0.3,0.6-0.8,1.2-0.3c3.3,2.5,6.9,2.3,10.6,0.7c0.8-0.3,1.4-0.3,2.2,0c3.7,1.6,7.3,1.6,10.8-0.7c0.2-0.1,0.5-0.3,0.7-0.4 c0.4-0.2,0.6,0.2,0.8,0.4c0.2,0.3-0.1,0.4-0.3,0.5C42.9,70.9,42.6,71.1,42.2,71.3z"/><path class="st2" d="M27.2,97.4c-1-1.4-0.7-3.3,0.7-4.3c1.3-1,3.4-0.6,4.3,0.8c0.9,1.3,0.6,3.3-0.7,4.3 C30.2,99.2,28.2,98.8,27.2,97.4"/><path class="st3" d="M27.2,97.4c-1-1.4-0.7-3.3,0.7-4.3c1.3-1,3.4-0.6,4.3,0.8c0.9,1.3,0.6,3.3-0.7,4.3 C30.2,99.2,28.2,98.8,27.2,97.4z"/><path class="st4" d="M25.2,85.8c0.6-2,2-3.4,3.5-4.7c1.5-1.4,3-2.7,4.4-4.1c0.2-0.2,0.4-0.5,0.7-0.4c0.3,0.1,0.2,0.5,0.1,0.7 c-0.3,1.4-0.9,2.7-1.8,3.8c-1.9,2.4-4.6,4.1-6.5,6.6c1-3.6,4.6-5.2,6.3-8.3C29.9,81.8,27,83.3,25.2,85.8"/><path class="st11" d="M25.2,85.8c0.6-2,2-3.4,3.5-4.7c1.5-1.4,3-2.7,4.4-4.1c0.2-0.2,0.4-0.5,0.7-0.4c0.3,0.1,0.2,0.5,0.1,0.7 c-0.3,1.4-0.9,2.7-1.8,3.8c-1.9,2.4-4.6,4.1-6.5,6.6c1-3.6,4.6-5.2,6.3-8.3C29.9,81.8,27,83.3,25.2,85.8z"/><path class="st2" d="M13.4,69.1c-0.8-1.1-0.5-2.5,0.5-3.3c1-0.8,2.6-0.5,3.3,0.5c0.7,1,0.5,2.5-0.6,3.3 C15.6,70.3,14.2,70.1,13.4,69.1"/><path class="st9" d="M13.4,69.1c-0.8-1.1-0.5-2.5,0.5-3.3c1-0.8,2.6-0.5,3.3,0.5c0.7,1,0.5,2.5-0.6,3.3 C15.6,70.3,14.2,70.1,13.4,69.1z"/><path class="st2" d="M44,65.2c1.1-0.8,2.5-0.5,3.3,0.5c0.7,1.1,0.4,2.6-0.6,3.3c-1.1,0.7-2.6,0.5-3.3-0.5 C42.6,67.4,42.9,66,44,65.2"/><path class="st9" d="M44,65.2c1.1-0.8,2.5-0.5,3.3,0.5c0.7,1.1,0.4,2.6-0.6,3.3c-1.1,0.7-2.6,0.5-3.3-0.5 C42.6,67.4,42.9,66,44,65.2z"/><path class="st4" d="M25.5,82.7c2.2-2.6,4.7-4.9,6.7-7.7C32.1,75,32,74.9,32,74.8c-2.3,2.2-4.5,4.4-6.8,6.6c0.8-1.8,2-3.2,3.4-4.4 c0.9-0.8,2.1-1.4,2.9-2.4c0.5-0.6,1.2-0.3,1.8-0.1c0.5,0.2,0,0.6-0.2,0.8c-1.1,1.5-2.4,2.8-3.8,4C28,80.4,26.9,81.7,25.5,82.7"/><path class="st11" d="M25.5,82.7c2.2-2.6,4.7-4.9,6.7-7.7C32.1,75,32,74.9,32,74.8c-2.3,2.2-4.5,4.4-6.8,6.6c0.8-1.8,2-3.2,3.4-4.4 c0.9-0.8,2.1-1.4,2.9-2.4c0.5-0.6,1.2-0.3,1.8-0.1c0.5,0.2,0,0.6-0.2,0.8c-1.1,1.5-2.4,2.8-3.8,4C28,80.4,26.9,81.7,25.5,82.7z"/><path class="st4" d="M26.9,90.5c0.6-2.9,3.8-4,4.9-6.6c-1.6,1-3,2.4-4.4,3.7c1.6-2.6,4.3-4.3,6.1-7c0.5,0.8,0.2,1.4-0.1,2 c-0.5,1.1-1.2,2.1-2,3C30.1,87.4,28.4,88.8,26.9,90.5"/><path class="st11" d="M26.9,90.5c0.6-2.9,3.8-4,4.9-6.6c-1.6,1-3,2.4-4.4,3.7c1.6-2.6,4.3-4.3,6.1-7c0.5,0.8,0.2,1.4-0.1,2 c-0.5,1.1-1.2,2.1-2,3C30.1,87.4,28.4,88.8,26.9,90.5z"/><path class="st4" d="M32,87.9c-1.5,0.9-2.6,2.3-4,3.3c1.4-2.2,3.4-3.8,5.2-5.9c0.3,2.3-1.2,4.6-3.8,5.8 C30.2,89.8,31.5,89.2,32,87.9"/><path class="st11" d="M32,87.9c-1.5,0.9-2.6,2.3-4,3.3c1.4-2.2,3.4-3.8,5.2-5.9c0.3,2.3-1.2,4.6-3.8,5.8 C30.2,89.8,31.5,89.2,32,87.9z"/><path class="st2" d="M28.4,100.9c0.2,0.4,0.2,0.9,0.7,1.1c0.2-0.1,0.2-0.3,0.2-0.4c0-0.9,0.7-1.3,1.5-1.6c0.5-0.2,0.7,0.3,0.9,0.7 c0.3,0.7,0.3,1.4-0.3,2c-0.7,0.7-1.6,0.9-2.4,0.3C28.1,102.5,27.8,101.7,28.4,100.9"/><path class="st3" d="M28.4,100.9c0.2,0.4,0.2,0.9,0.7,1.1c0.2-0.1,0.2-0.3,0.2-0.4c0-0.9,0.7-1.3,1.5-1.6c0.5-0.2,0.7,0.3,0.9,0.7 c0.3,0.7,0.3,1.4-0.3,2c-0.7,0.7-1.6,0.9-2.4,0.3C28.1,102.5,27.8,101.7,28.4,100.9z"/><path class="st4" d="M24.7,79.7c-0.3-0.6-0.1-1,0.2-1.2c1.4-1.5,2.9-3,4.3-4.5c0.3-0.3,0.7-0.7,1.1-0.2c0.4,0.5-0.2,0.7-0.4,0.9 C28,76.2,26.3,77.9,24.7,79.7"/><path class="st11" d="M24.7,79.7c-0.3-0.6-0.1-1,0.2-1.2c1.4-1.5,2.9-3,4.3-4.5c0.3-0.3,0.7-0.7,1.1-0.2c0.4,0.5-0.2,0.7-0.4,0.9 C28,76.2,26.3,77.9,24.7,79.7z"/><path class="st4" d="M25.1,76.9c0.6-1.2,1.7-1.9,2.8-2.5C27.4,75.7,26,76.1,25.1,76.9"/><path class="st11" d="M25.1,76.9c0.6-1.2,1.7-1.9,2.8-2.5C27.4,75.7,26,76.1,25.1,76.9z"/><path class="st4" d="M25.1,75.3c-0.3,0.2-0.5,0.3-0.7,0.1c-0.2-0.2-0.2-0.5,0.1-0.7c0.2-0.2,0.5-0.2,0.7,0.1 C25.4,74.9,25.2,75.1,25.1,75.3"/><path class="st4" d="M25.3,83.1c-0.1,0.3-0.1,0.6-0.5,0.8C24.8,83.4,24.9,83.2,25.3,83.1"/><path class="st11" d="M25.3,83.1c-0.1,0.3-0.1,0.6-0.5,0.8C24.8,83.4,24.9,83.2,25.3,83.1z"/><path class="st0" d="M29.3,16.3c-1.5,2.8-2.9,5.7-4.4,8.5c-0.3,0.5-0.5,1.1-0.3,1.7c-0.2,5.3-0.3,10.6-0.2,15.8 c-0.2,3.1,0.1-10,0.2-6.9c0,0.1,0,0.2,0,0.4c0,0.1,0,0.2,0,0.2l0,2.3c0,0.1,0,0.1,0,0.2c0,0.1,0,0.2,0,0.4 c-0.1,1.3-0.1,2.6-0.1,3.9c0,3.5,0,6.9-0.2,10.4c-0.1,2.1,0,4.1-0.1,6.2c-0.2,2.2-0.2,4.4,0,6.6c0.1,2.2-0.1,2.5-2.2,1.9 c-1.5-0.5-3.1-0.8-3.9-2.4c-0.7-1.3-2.5-1.6-3.8-1.1c-1.5,0.7-2.3,2.1-2,4c0.1,1.2,1.4,2.2,2.8,2.4c0.5,0.1,0.9,0.1,1.4,0.5 c1.7,1.6,3.7,2.6,6,2.9c0.7,0.1,1,0.4,1,1.2c-0.2,2.9,0,5.9,0.3,8.8c0.4,2.8,1,5.5,2.7,7.8c0.4,0.5,0.4,0.7,0.1,1.2 c-1.3,1.9-1,4.3,0.9,5.7c0.6,0.4,0.6,0.7,0.2,1.2c-0.8,1.4-0.2,3.1,1.1,3.8c1.3,0.7,2.6,0.4,3.6-0.7c0.9-1,0.9-2.4,0.1-3.5 c-0.3-0.3-0.4-0.5,0-0.9c2.1-2,2.1-4.3,0-6.3c-0.3-0.3-0.4-0.4-0.1-0.7c1.3-1.4,1.8-3.1,2.2-4.9c0.8-3.7,0.9-7.4,0.8-11.2 c0-1,0.2-1.3,1.3-1.3c3-0.1,5.6-1.2,7.8-3.3c0.4-0.4,0.8-0.6,1.4-0.6c2-0.2,2.9-1.4,3.1-3.2c0.2-1.5-0.9-2.9-2.4-3.3 c-1.8-0.4-3.3,0.3-4.1,1.9c-0.2,0.4-0.2,0.7-0.6,0.9c-1.9,1.1-3.8,1.7-6,1.7c-0.5,0-0.7-0.2-0.7-0.7c0-1,0-2,0-3 c-0.2-13.6-0.8-11.1-1-24.7c-0.1-5.1-0.2-10.2-0.3-15.3c0-0.1,0-0.2,0-0.2c-0.1-0.2-0.2-0.4-0.3-0.6c0.1-0.2,0-0.4-0.1-0.5 c-0.1-0.1-0.2-0.3-0.2-0.4c0.1-0.2,0-0.3-0.1-0.5c-0.1-0.1-0.2-0.3-0.2-0.4c0-0.3-0.1-0.5-0.2-0.6c-0.2-0.4-0.2-1-0.6-1.3 c0-0.1,0-0.1,0-0.2c-0.1-0.2-0.2-0.5-0.3-0.7c0-0.4-0.1-0.6-0.4-0.8c-0.1-0.4-0.2-0.8-0.5-1.1c0.1-0.2,0-0.3-0.1-0.5 c-0.1-0.1-0.2-0.3-0.2-0.4c0-0.4-0.1-0.7-0.4-0.8C29.5,15.7,29.3,16.1,29.3,16.3 M29.2,101.5c0-0.9,0.7-1.3,1.5-1.6 c0.5-0.2,0.7,0.3,0.9,0.7c0.3,0.7,0.3,1.4-0.3,2c-0.7,0.7-1.6,0.9-2.4,0.3c-0.8-0.5-1-1.3-0.5-2.1c0.2,0.4,0.2,0.9,0.7,1.1 C29.3,101.8,29.2,101.7,29.2,101.5 M25.4,59.7L25.4,59.7c0.2-0.4,0.1-0.8,0-1.2l0,0c0.2-1.9,0.2-3.9,0-5.8l0,0c0.2-0.7,0.1-1.3,0-2 c0-0.1,0-0.2,0-0.3c0-0.1,0-0.2,0-0.3c0-0.1,0-0.1,0-0.2c0.2-5.9,0.2-11.8,0.1-17.7c0-0.1,0-0.2,0-0.3c0.2-1.7-0.2,12.9-0.2,11.2 c0-0.2,0-0.4,0-0.5c0.1-3.9,0.1-7.9,0.2-11.8c0-1.4,0-2.8,0-4.2c0-1.1,0.8-1.8,1.3-2.8c0-0.1,0.1-0.2,0.1-0.3 c0.2-0.3,0.4-0.6,0.6-0.9c0.4-0.4,0.7-1,0.9-1.5c0.1,0,0.1-0.1,0.1-0.2c0.1,0,0.1-0.1,0.2-0.1c0.1-0.1,0.3-0.1,0.4-0.2 c0,1.3,0,2.7,0.1,4c0.1,15,0.4,13.8,0.5,28.8c0,4.6,0.1,9.3,0.1,13.9c-0.6,0.8-1.6,0.7-2.4,1.1c-0.4,0.2-0.9,0.4-1.4,0.5 c-0.1,0-0.2,0-0.3,0l0,0c0-0.1-0.1-0.1-0.1-0.2l0,0c0-0.1,0-0.2,0-0.2c0-0.1,0-0.2,0-0.2C25.5,65.5,25.5,62.6,25.4,59.7 M13.4,69.1 c-0.8-1.1-0.5-2.5,0.5-3.3c1-0.8,2.6-0.5,3.3,0.5c0.7,1,0.5,2.5-0.6,3.3C15.6,70.3,14.2,70.1,13.4,69.1 M24.4,75.3 c-0.2-0.2-0.2-0.5,0.1-0.7c0.2-0.2,0.5-0.2,0.7,0.1c0.2,0.2,0,0.4-0.1,0.5C24.8,75.5,24.6,75.5,24.4,75.3 M25.1,76.9 c0.6-1.2,1.7-1.9,2.8-2.5C27.4,75.7,26,76.1,25.1,76.9 M24.9,78.5c1.4-1.5,2.9-3,4.3-4.5c0.3-0.3,0.7-0.7,1.1-0.2 c0.4,0.5-0.2,0.7-0.4,0.9c-1.8,1.5-3.5,3.1-5.1,5C24.4,79.1,24.6,78.8,24.9,78.5 M24.8,83.8c0-0.4,0.1-0.7,0.5-0.8 C25.2,83.4,25.2,83.7,24.8,83.8 M32.2,93.9c0.9,1.3,0.6,3.3-0.7,4.3c-1.3,1-3.3,0.6-4.3-0.8c-1-1.4-0.7-3.3,0.7-4.3 C29.2,92.2,31.2,92.5,32.2,93.9 M29.4,91.2c0.7-1.4,2-2,2.6-3.2c-1.5,0.9-2.6,2.3-4,3.3c1.4-2.2,3.4-3.8,5.2-5.9 C33.5,87.7,32,90,29.4,91.2 M33.5,82.6c-0.5,1.1-1.2,2.1-2,3c-1.4,1.7-3.1,3.2-4.6,4.9c0.6-2.9,3.8-4,4.9-6.6c-1.7,1-3,2.4-4.4,3.7 c1.6-2.6,4.3-4.3,6.1-7C34,81.4,33.7,82,33.5,82.6 M33.7,76.6c0.3,0.1,0.2,0.5,0.1,0.7c-0.3,1.4-0.9,2.7-1.8,3.8 c-1.9,2.4-4.5,4.1-6.5,6.6c1-3.6,4.6-5.2,6.3-8.3c-2.1,2.3-4.9,3.8-6.7,6.4c0.6-2,2-3.4,3.5-4.7c1.5-1.4,3-2.7,4.4-4.1 C33.2,76.8,33.4,76.5,33.7,76.6 M29.3,79.4c-1.3,1.1-2.4,2.3-3.8,3.3c2.2-2.6,4.7-4.9,6.7-7.7C32.1,75,32,74.9,32,74.8 c-2.3,2.2-4.5,4.4-6.8,6.6c0.8-1.8,2-3.2,3.4-4.4c0.9-0.8,2.1-1.4,2.9-2.4c0.5-0.6,1.2-0.3,1.8-0.1c0.5,0.2,0,0.6-0.2,0.8 C32,76.9,30.7,78.2,29.3,79.4 M31.7,72.7c-1-0.3-1.8-0.3-2.7,0c-4.1,1.4-8,1.1-11.5-1.6c-0.2-0.2-0.7-0.4-0.3-0.8 c0.3-0.3,0.6-0.8,1.2-0.3c3.3,2.5,6.9,2.3,10.6,0.7c0.8-0.3,1.4-0.3,2.2,0c3.7,1.6,7.3,1.6,10.8-0.7c0.2-0.1,0.5-0.3,0.7-0.4 c0.4-0.2,0.6,0.2,0.8,0.4c0.2,0.3-0.1,0.4-0.3,0.5c-0.3,0.3-0.6,0.5-0.9,0.7C38.9,73.6,35.3,73.9,31.7,72.7 M47.3,65.8 c0.7,1.1,0.4,2.6-0.6,3.3c-1.1,0.7-2.6,0.5-3.3-0.5c-0.8-1.1-0.5-2.5,0.6-3.3C45.1,64.5,46.6,64.7,47.3,65.8 M34.2,69.4 c2.4,0.3,4.7-0.1,6.9-1.2c0.2-0.1,0.6-0.7,0.9,0c0.3,0.5-0.1,0.8-0.4,1c-3.1,2.1-6.3,2.1-9.6,0.9c-0.6-0.2-1.2-0.6-1.9-0.9 c-1.9,0.8-3.7,1.7-5.8,1.8c-2,0.1-3.8-0.4-5.3-1.6c-0.4-0.3-0.8-0.6-0.4-1.1c0.3-0.5,0.7,0.1,1,0.2c2.5,1,5,1.7,7.8,0.7 c0.9-0.3,1.8-0.2,2.8-0.1C31.6,68.7,32.9,69.2,34.2,69.4 M31.2,21.2c0,0.3,0.1,0.5,0.3,0.6c0.1,0.2,0.2,0.4,0.4,0.6 c0,0.4,0.3,0.7,0.5,1c0.4,0.7,0.5,1.4,0.6,2.2C33.2,45,33.8,48.2,34,67.5c0,0.8,0,1.3-1,0.8c-0.7-0.4-1.5-0.6-2.3-0.8 c-0.3-0.4-0.1-0.8-0.1-1.2c0-4-0.1-8-0.1-12c-0.1-14.6-0.5-13-0.5-27.6c0-2.4-0.2-4.9,0.1-7.3C30.5,20,30.8,20.6,31.2,21.2"/><path class="st0" d="M27.2,95.8c0.1,0.7,0.5,1.3,1.3,1.4c-0.6-0.8-1-1.5-0.3-2.4c0.6-0.9,1.6-0.6,2.5-1c-1-0.6-1.7-0.6-2.5-0.1 C27.4,94.2,27.1,94.9,27.2,95.8"/></svg>