<svg version="1.1" id="Layer_1" xmlns="http://www.w3.org/2000/svg" x="0px" y="0px" viewBox="0 0 141.7 226.8" style="enable-background:new 0 0 141.7 226.8" xml:space="preserve"><style>.st0{fill:#1D1D1B}.st2{fill:#FFDC00}</style><path class="st0" d="M17.9,10.3L13,21.8h-1.8v-0.6l4.4-9v-0.1h-3.9c-0.3,0-0.5,0-0.6,0.1c-0.2,0-0.3,0.1-0.4,0.2 c-0.1,0.1-0.2,0.2-0.2,0.4c-0.1,0.1-0.1,0.4-0.2,0.7h-1l0.2-3.7h8.4V10.3z"/><path class="st0" d="M125.1,217l4.9-11.5h1.8v0.6l-4.4,9v0.1h3.9c0.3,0,0.5,0,0.6-0.1c0.2,0,0.3-0.1,0.4-0.2 c0.1-0.1,0.2-0.2,0.2-0.4c0.1-0.1,0.1-0.4,0.2-0.7h1l-0.2,3.7h-8.4V217z"/><polygon points="104.8,219.7 82.1,219.7 62.8,219.7 40.1,219.7 25.4,219.7 5.5,219.7 5.5,7 24.7,7 40.1,7 62.8,7 82.1,7 104.8,7 118.4,7 136.2,7 136.2,219.7 118.2,219.7" style="fill:none;stroke:#1D1D1B;stroke-width:1.612;stroke-miterlimit:10"/><path class="st2" d="M108.1,68.7c-11.8,0-21.3-9.6-21.3-21.3c0-11.8,9.6-21.3,21.3-21.3c11.8,0,21.3,9.5,21.3,21.3 C129.4,59.2,119.8,68.7,108.1,68.7"/><path class="st0" d="M86.2,47.4c0-12,9.8-21.8,21.8-21.8c12,0,21.8,9.8,21.8,21.8s-9.8,21.8-21.8,21.8C96,69.2,86.2,59.4,86.2,47.4 M128.9,47.4c0-11.5-9.4-20.8-20.8-20.8c-11.5,0-20.8,9.4-20.8,20.8c0,11.5,9.4,20.8,20.8,20.8C119.6,68.2,128.9,58.9,128.9,47.4"/><path class="st0" d="M90.6,47.4c0-9.6,7.8-17.5,17.5-17.5s17.5,7.8,17.5,17.5c0,9.6-7.8,17.5-17.5,17.5S90.6,57,90.6,47.4 M124.9,47.4c0-9.3-7.5-16.8-16.8-16.8s-16.8,7.5-16.8,16.8c0,9.3,7.5,16.8,16.8,16.8S124.9,56.7,124.9,47.4"/><path class="st0" d="M108,56.7c-5.1,0-9.3-4.1-9.3-9.3c0-5.1,4.1-9.3,9.3-9.3c5.1,0,9.3,4.1,9.3,9.3 C117.3,52.5,113.1,56.7,108,56.7 M124.7,47.2l-6.5-2l5.2-4.4l-6.8,0.7l3.1-6.1l-6,3.2l0.5-6.8l-4.3,5.3l-2.1-6.5l-2,6.5l-4.4-5.2 l0.7,6.8l-6-3.1l3.2,6l-6.8-0.5l5.2,4.3l-6.5,2.1l6.5,2L92.7,54l6.8-0.7l-3.1,6.1l6-3.2l-0.5,6.8l4.3-5.3l2.1,6.5l2-6.5l4.4,5.2 l-0.7-6.8l6,3.1l-3.2-6l6.8,0.5l-5.2-4.3L124.7,47.2z"/><path class="st0" d="M106.6,45.9c0,0-0.9-4.5-3.8-6.4c-2,1.7-2.4,2.3-2.4,2.3S102.6,44.5,106.6,45.9"/><path class="st0" d="M109.3,49.1c0,0,0.9,4.5,3.8,6.4c2-1.7,2.4-2.3,2.4-2.3S113.3,50.4,109.3,49.1"/><path class="st0" d="M106.7,49.1c0,0-4.5,0.9-6.4,3.8c1.7,2,2.3,2.4,2.3,2.4S105.3,53,106.7,49.1"/><path class="st0" d="M109.7,46c0,0,4.5-0.9,6.4-3.8c-1.7-2-2.3-2.4-2.3-2.4S111.1,42.1,109.7,46"/><path class="st0" d="M116.7,50.5c0,0-2.7-2.1-3.8-2.5c2.5-1.3,3.4-2.2,4-2.7C117.5,48.1,117,49.6,116.7,50.5 M116.8,43.9l-0.5,0.3 c-0.6,0.8-1.3,1.1-5.6,3.6c2.1,0.4,5.6,3.9,5.6,3.9C118.9,48.2,116.8,43.9,116.8,43.9"/><path class="st0" d="M99.4,44.8c0,0,2.6,2.1,3.7,2.6c-2.4,1.4-3.3,2.2-3.8,2.8C98.7,47.2,99.1,45.8,99.4,44.8 M99.3,51.5l0.4-0.3 c0.6-0.8,1.3-1.2,5.4-3.7c-2-0.4-5.6-4.2-5.6-4.2C97.1,46.8,99.3,51.5,99.3,51.5"/><path class="st0" d="M110.9,38.6c0,0-2.1,2.6-2.6,3.7c-1.4-2.4-2.2-3.3-2.8-3.8C108.5,37.9,110,38.3,110.9,38.6 M104.3,38.5 l0.3,0.4c0.8,0.6,1.2,1.3,3.7,5.4c0.4-2,3.9-5.4,3.9-5.4C108.6,36.6,104.3,38.5,104.3,38.5"/><path class="st0" d="M105.5,56.7c0,0,2.1-2.3,2.6-3.3c1.4,2.2,2.2,2.9,2.8,3.4C107.9,57.3,106.5,56.9,105.5,56.7 M112.2,56.7 l-0.3-0.4c-0.8-0.5-1.2-1.1-3.7-4.8c-0.4,1.8-3.9,4.8-3.9,4.8C107.9,58.5,112.2,56.7,112.2,56.7"/><path class="st2" d="M31.8,68.7c-11.8,0-21.3-9.6-21.3-21.3c0-11.8,9.5-21.3,21.3-21.3c11.8,0,21.3,9.5,21.3,21.3 C53.2,59.2,43.6,68.7,31.8,68.7"/><path class="st0" d="M10,47.4c0-12,9.8-21.8,21.8-21.8c12,0,21.8,9.8,21.8,21.8s-9.8,21.8-21.8,21.8C19.8,69.2,10,59.4,10,47.4 M52.7,47.4c0-11.5-9.4-20.8-20.8-20.8S11,35.9,11,47.4c0,11.5,9.4,20.8,20.8,20.8S52.7,58.9,52.7,47.4"/><path class="st0" d="M14.4,47.4c0-9.6,7.8-17.5,17.5-17.5c9.6,0,17.5,7.8,17.5,17.5c0,9.6-7.8,17.5-17.5,17.5 C22.2,64.9,14.4,57,14.4,47.4 M48.6,47.4c0-9.3-7.5-16.8-16.8-16.8S15,38.1,15,47.4c0,9.3,7.5,16.8,16.8,16.8S48.6,56.7,48.6,47.4"/><path class="st0" d="M31.8,56.7c-5.1,0-9.3-4.1-9.3-9.3c0-5.1,4.1-9.3,9.3-9.3s9.3,4.1,9.3,9.3C41.1,52.5,36.9,56.7,31.8,56.7 M48.5,47.2l-6.5-2l5.2-4.4l-6.8,0.7l3.1-6.1l-6,3.2l0.5-6.8l-4.3,5.3l-2.1-6.5l-2,6.5L25.3,32l0.7,6.8l-6-3.1l3.2,6l-6.8-0.5 l5.2,4.3l-6.5,2.1l6.5,2L16.5,54l6.8-0.7l-3.1,6.1l6-3.2l-0.5,6.8l4.3-5.3l2.1,6.5l2-6.5l4.4,5.2L37.6,56l6,3.1l-3.2-6l6.8,0.5 L42,49.3L48.5,47.2z"/><path class="st0" d="M30.3,45.9c0,0-0.9-4.5-3.8-6.4c-2,1.7-2.4,2.3-2.4,2.3S26.4,44.5,30.3,45.9"/><path class="st0" d="M33.1,49.1c0,0,0.9,4.5,3.8,6.4c2-1.7,2.4-2.3,2.4-2.3S37,50.4,33.1,49.1"/><path class="st0" d="M30.4,49.1c0,0-4.5,0.9-6.4,3.8c1.7,2,2.3,2.4,2.3,2.4S29.1,53,30.4,49.1"/><path class="st0" d="M33.5,46c0,0,4.5-0.9,6.4-3.8c-1.7-2-2.3-2.4-2.3-2.4S34.8,42.1,33.5,46"/><path class="st0" d="M40.5,50.5c0,0-2.7-2.1-3.8-2.5c2.5-1.3,3.4-2.2,4-2.7C41.2,48.1,40.8,49.6,40.5,50.5 M40.6,43.9l-0.5,0.3 c-0.6,0.8-1.3,1.1-5.6,3.6c2.1,0.4,5.6,3.9,5.6,3.9C42.6,48.2,40.6,43.9,40.6,43.9"/><path class="st0" d="M23.2,44.8c0,0,2.6,2.1,3.7,2.6c-2.4,1.4-3.3,2.2-3.8,2.8C22.5,47.2,22.9,45.8,23.2,44.8 M23.1,51.5l0.4-0.3 c0.6-0.8,1.3-1.2,5.4-3.7c-2-0.4-5.6-4.2-5.6-4.2C20.9,46.8,23.1,51.5,23.1,51.5"/><path class="st0" d="M34.7,38.6c0,0-2.1,2.6-2.6,3.7c-1.4-2.4-2.2-3.3-2.8-3.8C32.3,37.9,33.8,38.3,34.7,38.6 M28,38.5l0.3,0.4 c0.8,0.6,1.2,1.3,3.7,5.4c0.4-2,3.9-5.4,3.9-5.4C32.4,36.6,28,38.5,28,38.5"/><path class="st0" d="M29.3,56.7c0,0,2.1-2.3,2.6-3.3c1.4,2.2,2.2,2.9,2.8,3.4C31.7,57.3,30.2,56.9,29.3,56.7 M36,56.7l-0.3-0.4 c-0.8-0.5-1.2-1.1-3.7-4.8c-0.4,1.8-3.9,4.8-3.9,4.8C31.6,58.5,36,56.7,36,56.7"/><path class="st2" d="M108.1,156.5c-11.8,0-21.3-9.5-21.3-21.3c0-11.8,9.6-21.3,21.3-21.3c11.8,0,21.3,9.5,21.3,21.3 C129.4,147,119.8,156.5,108.1,156.5"/><path class="st0" d="M86.2,135.2c0-12,9.8-21.8,21.8-21.8c12,0,21.8,9.8,21.8,21.8c0,12-9.8,21.8-21.8,21.8 C96,157,86.2,147.2,86.2,135.2 M128.9,135.2c0-11.5-9.4-20.8-20.8-20.8c-11.5,0-20.8,9.4-20.8,20.8s9.4,20.8,20.8,20.8 C119.6,156,128.9,146.7,128.9,135.2"/><path class="st0" d="M90.6,135.2c0-9.6,7.8-17.5,17.5-17.5s17.5,7.8,17.5,17.5c0,9.6-7.8,17.5-17.5,17.5S90.6,144.8,90.6,135.2 M124.9,135.2c0-9.3-7.5-16.8-16.8-16.8s-16.8,7.5-16.8,16.8c0,9.3,7.5,16.8,16.8,16.8S124.9,144.5,124.9,135.2"/><path class="st0" d="M108,144.5c-5.1,0-9.3-4.1-9.3-9.3c0-5.1,4.1-9.3,9.3-9.3c5.1,0,9.3,4.1,9.3,9.3 C117.3,140.3,113.1,144.5,108,144.5 M124.7,135l-6.5-2l5.2-4.4l-6.8,0.7l3.1-6.1l-6,3.2l0.5-6.8l-4.3,5.3l-2.1-6.5l-2,6.5l-4.4-5.2 l0.7,6.8l-6-3.1l3.2,6l-6.8-0.5l5.2,4.3l-6.5,2.1l6.5,2l-5.2,4.4l6.8-0.7l-3.1,6.1l6-3.2l-0.5,6.8l4.3-5.3l2.1,6.5l2-6.5l4.4,5.2 l-0.7-6.8l6,3.1l-3.2-6l6.8,0.5l-5.2-4.3L124.7,135z"/><path class="st0" d="M106.6,133.7c0,0-0.9-4.5-3.8-6.4c-2,1.7-2.4,2.3-2.4,2.3S102.6,132.3,106.6,133.7"/><path class="st0" d="M109.3,136.9c0,0,0.9,4.5,3.8,6.4c2-1.7,2.4-2.3,2.4-2.3S113.3,138.2,109.3,136.9"/><path class="st0" d="M106.7,136.9c0,0-4.5,0.9-6.4,3.8c1.7,2,2.3,2.4,2.3,2.4S105.3,140.8,106.7,136.9"/><path class="st0" d="M109.7,133.8c0,0,4.5-0.9,6.4-3.8c-1.7-2-2.3-2.4-2.3-2.4S111.1,129.9,109.7,133.8"/><path class="st0" d="M116.7,138.3c0,0-2.7-2.1-3.8-2.5c2.5-1.3,3.4-2.2,4-2.7C117.5,135.9,117,137.4,116.7,138.3 M116.8,131.7 l-0.5,0.3c-0.6,0.8-1.3,1.1-5.6,3.6c2.1,0.4,5.6,3.9,5.6,3.9C118.9,136,116.8,131.7,116.8,131.7"/><path class="st0" d="M99.4,132.6c0,0,2.6,2.1,3.7,2.6c-2.4,1.4-3.3,2.2-3.8,2.8C98.7,135,99.1,133.6,99.4,132.6 M99.3,139.3 l0.4-0.3c0.6-0.8,1.3-1.2,5.4-3.7c-2-0.4-5.6-4.2-5.6-4.2C97.1,134.6,99.3,139.3,99.3,139.3"/><path class="st0" d="M110.9,126.4c0,0-2.1,2.6-2.6,3.7c-1.4-2.4-2.2-3.3-2.8-3.8C108.5,125.7,110,126.1,110.9,126.4 M104.3,126.3 l0.3,0.4c0.8,0.6,1.2,1.3,3.7,5.4c0.4-2,3.9-5.4,3.9-5.4C108.6,124.4,104.3,126.3,104.3,126.3"/><path class="st0" d="M105.5,144.5c0,0,2.1-2.3,2.6-3.3c1.4,2.2,2.2,2.9,2.8,3.4C107.9,145.1,106.5,144.7,105.5,144.5 M112.2,144.5 l-0.3-0.4c-0.8-0.5-1.2-1.1-3.7-4.8c-0.4,1.8-3.9,4.8-3.9,4.8C107.9,146.3,112.2,144.5,112.2,144.5"/><path class="st2" d="M31.8,156.5c-11.8,0-21.3-9.5-21.3-21.3c0-11.8,9.5-21.3,21.3-21.3c11.8,0,21.3,9.5,21.3,21.3 C53.2,147,43.6,156.5,31.8,156.5"/><path class="st0" d="M10,135.2c0-12,9.8-21.8,21.8-21.8c12,0,21.8,9.8,21.8,21.8c0,12-9.8,21.8-21.8,21.8 C19.8,157,10,147.2,10,135.2 M52.7,135.2c0-11.5-9.4-20.8-20.8-20.8S11,123.7,11,135.2S20.3,156,31.8,156S52.7,146.7,52.7,135.2"/><path class="st0" d="M14.4,135.2c0-9.6,7.8-17.5,17.5-17.5c9.6,0,17.5,7.8,17.5,17.5c0,9.6-7.8,17.5-17.5,17.5 C22.2,152.7,14.4,144.8,14.4,135.2 M48.6,135.2c0-9.3-7.5-16.8-16.8-16.8S15,125.9,15,135.2c0,9.3,7.5,16.8,16.8,16.8 S48.6,144.5,48.6,135.2"/><path class="st0" d="M31.8,144.5c-5.1,0-9.3-4.1-9.3-9.3c0-5.1,4.1-9.3,9.3-9.3s9.3,4.1,9.3,9.3C41.1,140.3,36.9,144.5,31.8,144.5 M48.5,135l-6.5-2l5.2-4.4l-6.8,0.7l3.1-6.1l-6,3.2l0.5-6.8l-4.3,5.3l-2.1-6.5l-2,6.5l-4.4-5.2l0.7,6.8l-6-3.1l3.2,6l-6.8-0.5 l5.2,4.3l-6.5,2.1l6.5,2l-5.2,4.4l6.8-0.7l-3.1,6.1l6-3.2l-0.5,6.8l4.3-5.3l2.1,6.5l2-6.5l4.4,5.2l-0.7-6.8l6,3.1l-3.2-6l6.8,0.5 l-5.2-4.3L48.5,135z"/><path class="st0" d="M30.3,133.7c0,0-0.9-4.5-3.8-6.4c-2,1.7-2.4,2.3-2.4,2.3S26.4,132.3,30.3,133.7"/><path class="st0" d="M33.1,136.9c0,0,0.9,4.5,3.8,6.4c2-1.7,2.4-2.3,2.4-2.3S37,138.2,33.1,136.9"/><path class="st0" d="M30.4,136.9c0,0-4.5,0.9-6.4,3.8c1.7,2,2.3,2.4,2.3,2.4S29.1,140.8,30.4,136.9"/><path class="st0" d="M33.5,133.8c0,0,4.5-0.9,6.4-3.8c-1.7-2-2.3-2.4-2.3-2.4S34.8,129.9,33.5,133.8"/><path class="st0" d="M40.5,138.3c0,0-2.7-2.1-3.8-2.5c2.5-1.3,3.4-2.2,4-2.7C41.2,135.9,40.8,137.4,40.5,138.3 M40.6,131.7 l-0.5,0.3c-0.6,0.8-1.3,1.1-5.6,3.6c2.1,0.4,5.6,3.9,5.6,3.9C42.6,136,40.6,131.7,40.6,131.7"/><path class="st0" d="M23.2,132.6c0,0,2.6,2.1,3.7,2.6c-2.4,1.4-3.3,2.2-3.8,2.8C22.5,135,22.9,133.6,23.2,132.6 M23.1,139.3 l0.4-0.3c0.6-0.8,1.3-1.2,5.4-3.7c-2-0.4-5.6-4.2-5.6-4.2C20.9,134.6,23.1,139.3,23.1,139.3"/><path class="st0" d="M34.7,126.4c0,0-2.1,2.6-2.6,3.7c-1.4-2.4-2.2-3.3-2.8-3.8C32.3,125.7,33.8,126.1,34.7,126.4 M28,126.3 l0.3,0.4c0.8,0.6,1.2,1.3,3.7,5.4c0.4-2,3.9-5.4,3.9-5.4C32.4,124.4,28,126.3,28,126.3"/><path class="st0" d="M29.3,144.5c0,0,2.1-2.3,2.6-3.3c1.4,2.2,2.2,2.9,2.8,3.4C31.7,145.1,30.2,144.7,29.3,144.5 M36,144.5 l-0.3-0.4c-0.8-0.5-1.2-1.1-3.7-4.8c-0.4,1.8-3.9,4.8-3.9,4.8C31.6,146.3,36,144.5,36,144.5"/><path class="st2" d="M69.5,112.4c-11.8,0-21.3-9.5-21.3-21.3c0-11.8,9.5-21.3,21.3-21.3c11.8,0,21.3,9.5,21.3,21.3 C90.9,102.8,81.3,112.4,69.5,112.4"/><path class="st0" d="M47.7,91c0-12,9.8-21.8,21.8-21.8c12,0,21.8,9.8,21.8,21.8c0,12-9.8,21.8-21.8,21.8 C57.5,112.8,47.7,103.1,47.7,91 M90.4,91c0-11.5-9.4-20.8-20.8-20.8C58,70.2,48.7,79.5,48.7,91s9.4,20.8,20.8,20.8 C81,111.9,90.4,102.5,90.4,91"/><path class="st0" d="M52.1,91c0-9.6,7.8-17.5,17.5-17.5S87,81.4,87,91s-7.8,17.5-17.5,17.5S52.1,100.7,52.1,91 M86.3,91 c0-9.3-7.5-16.8-16.8-16.8c-9.3,0-16.8,7.5-16.8,16.8c0,9.3,7.5,16.8,16.8,16.8C78.8,107.8,86.3,100.3,86.3,91"/><path class="st0" d="M69.5,100.3c-5.1,0-9.3-4.1-9.3-9.3c0-5.1,4.1-9.3,9.3-9.3c5.1,0,9.3,4.1,9.3,9.3 C78.8,96.1,74.6,100.3,69.5,100.3 M86.2,90.9l-6.5-2l5.2-4.4l-6.8,0.7l3.1-6.1l-6,3.2l0.5-6.8l-4.3,5.3l-2.1-6.5l-2,6.5L63,75.6 l0.7,6.8l-6-3.1l3.2,6L54,84.8l5.2,4.3l-6.5,2.1l6.5,2l-5.2,4.4l6.8-0.7l-3.1,6.1l6-3.2l-0.5,6.8l4.3-5.3l2.1,6.5l2-6.5l4.4,5.2 l-0.7-6.8l6,3.1l-3.2-6l6.8,0.5L79.7,93L86.2,90.9z"/><path class="st0" d="M68,89.5c0,0-0.9-4.5-3.8-6.4c-2,1.7-2.4,2.3-2.4,2.3S64.1,88.1,68,89.5"/><path class="st0" d="M70.8,92.7c0,0,0.9,4.5,3.8,6.4c2-1.7,2.4-2.3,2.4-2.3S74.7,94,70.8,92.7"/><path class="st0" d="M68.1,92.7c0,0-4.5,0.9-6.4,3.8c1.7,2,2.3,2.4,2.3,2.4S66.8,96.6,68.1,92.7"/><path class="st0" d="M71.2,89.7c0,0,4.5-0.9,6.4-3.8c-1.7-2-2.3-2.4-2.3-2.4S72.5,85.7,71.2,89.7"/><path class="st0" d="M78.2,94.1c0,0-2.7-2.1-3.8-2.5c2.5-1.3,3.4-2.2,4-2.7C78.9,91.7,78.5,93.2,78.2,94.1 M78.3,87.5l-0.5,0.3 c-0.6,0.8-1.3,1.1-5.6,3.6c2.1,0.4,5.6,3.9,5.6,3.9C80.3,91.8,78.3,87.5,78.3,87.5"/><path class="st0" d="M60.9,88.4c0,0,2.6,2.1,3.7,2.6c-2.4,1.4-3.3,2.2-3.8,2.8C60.2,90.9,60.6,89.4,60.9,88.4 M60.8,95.1l0.4-0.3 c0.6-0.8,1.3-1.2,5.4-3.7c-2-0.4-5.6-4.2-5.6-4.2C58.6,90.5,60.8,95.1,60.8,95.1"/><path class="st0" d="M72.4,82.2c0,0-2.1,2.6-2.6,3.7c-1.4-2.4-2.2-3.3-2.8-3.8C70,81.6,71.5,82,72.4,82.2 M65.7,82.2l0.3,0.4 c0.8,0.6,1.2,1.3,3.7,5.4c0.4-2,3.9-5.4,3.9-5.4C70.1,80.2,65.7,82.2,65.7,82.2"/><path class="st0" d="M67,100.3c0,0,2.1-2.3,2.6-3.3c1.4,2.2,2.2,2.9,2.8,3.4C69.4,100.9,67.9,100.5,67,100.3 M73.7,100.4l-0.3-0.4 c-0.8-0.5-1.2-1.1-3.7-4.8c-0.4,1.8-3.9,4.8-3.9,4.8C69.3,102.1,73.7,100.4,73.7,100.4"/><path class="st2" d="M108.1,206.5c-11.8,0-21.3-9.5-21.3-21.3c0-11.8,9.6-21.3,21.3-21.3c11.8,0,21.3,9.5,21.3,21.3 C129.4,196.9,119.8,206.5,108.1,206.5"/><path class="st0" d="M86.2,185.1c0-12,9.8-21.8,21.8-21.8c12,0,21.8,9.8,21.8,21.8c0,12-9.8,21.8-21.8,21.8 C96,207,86.2,197.2,86.2,185.1 M128.9,185.1c0-11.5-9.4-20.8-20.8-20.8c-11.5,0-20.8,9.4-20.8,20.8c0,11.5,9.4,20.8,20.8,20.8 C119.6,206,128.9,196.6,128.9,185.1"/><path class="st0" d="M90.6,185.1c0-9.6,7.8-17.5,17.5-17.5s17.5,7.8,17.5,17.5c0,9.6-7.8,17.5-17.5,17.5S90.6,194.8,90.6,185.1 M124.9,185.1c0-9.3-7.5-16.8-16.8-16.8s-16.8,7.5-16.8,16.8c0,9.3,7.5,16.8,16.8,16.8S124.9,194.4,124.9,185.1"/><path class="st0" d="M108,194.4c-5.1,0-9.3-4.1-9.3-9.3c0-5.1,4.1-9.3,9.3-9.3c5.1,0,9.3,4.1,9.3,9.3 C117.3,190.3,113.1,194.4,108,194.4 M124.7,185l-6.5-2l5.2-4.4l-6.8,0.7l3.1-6.1l-6,3.2l0.5-6.8l-4.3,5.3l-2.1-6.5l-2,6.5l-4.4-5.2 l0.7,6.8l-6-3.1l3.2,6l-6.8-0.5l5.2,4.3l-6.5,2.1l6.5,2l-5.2,4.4l6.8-0.7l-3.1,6.1l6-3.2l-0.5,6.8l4.3-5.3l2.1,6.5l2-6.5l4.4,5.2 l-0.7-6.8l6,3.1l-3.2-6l6.8,0.5l-5.2-4.3L124.7,185z"/><path class="st0" d="M106.6,183.6c0,0-0.9-4.5-3.8-6.4c-2,1.7-2.4,2.3-2.4,2.3S102.6,182.3,106.6,183.6"/><path class="st0" d="M109.3,186.8c0,0,0.9,4.5,3.8,6.4c2-1.7,2.4-2.3,2.4-2.3S113.3,188.2,109.3,186.8"/><path class="st0" d="M106.7,186.8c0,0-4.5,0.9-6.4,3.8c1.7,2,2.3,2.4,2.3,2.4S105.3,190.7,106.7,186.8"/><path class="st0" d="M109.7,183.8c0,0,4.5-0.9,6.4-3.8c-1.7-2-2.3-2.4-2.3-2.4S111.1,179.9,109.7,183.8"/><path class="st0" d="M116.7,188.2c0,0-2.7-2.1-3.8-2.5c2.5-1.3,3.4-2.2,4-2.7C117.5,185.9,117,187.3,116.7,188.2 M116.8,181.7 l-0.5,0.3c-0.6,0.8-1.3,1.1-5.6,3.6c2.1,0.4,5.6,3.9,5.6,3.9C118.9,185.9,116.8,181.7,116.8,181.7"/><path class="st0" d="M99.4,182.6c0,0,2.6,2.1,3.7,2.6c-2.4,1.4-3.3,2.2-3.8,2.8C98.7,185,99.1,183.5,99.4,182.6 M99.3,189.2 l0.4-0.3c0.6-0.8,1.3-1.2,5.4-3.7c-2-0.4-5.6-4.2-5.6-4.2C97.1,184.6,99.3,189.2,99.3,189.2"/><path class="st0" d="M110.9,176.4c0,0-2.1,2.6-2.6,3.7c-1.4-2.4-2.2-3.3-2.8-3.8C108.5,175.7,110,176.1,110.9,176.4 M104.3,176.3 l0.3,0.4c0.8,0.6,1.2,1.3,3.7,5.4c0.4-2,3.9-5.4,3.9-5.4C108.6,174.3,104.3,176.3,104.3,176.3"/><path class="st0" d="M105.5,194.4c0,0,2.1-2.3,2.6-3.3c1.4,2.2,2.2,2.9,2.8,3.4C107.9,195,106.5,194.7,105.5,194.4 M112.2,194.5 l-0.3-0.4c-0.8-0.5-1.2-1.1-3.7-4.8c-0.4,1.8-3.9,4.8-3.9,4.8C107.9,196.2,112.2,194.5,112.2,194.5"/><path class="st2" d="M31.8,206.5c-11.8,0-21.3-9.5-21.3-21.3c0-11.8,9.5-21.3,21.3-21.3c11.8,0,21.3,9.5,21.3,21.3 C53.2,196.9,43.6,206.5,31.8,206.5"/><path class="st0" d="M10,185.1c0-12,9.8-21.8,21.8-21.8c12,0,21.8,9.8,21.8,21.8c0,12-9.8,21.8-21.8,21.8 C19.8,207,10,197.2,10,185.1 M52.7,185.1c0-11.5-9.4-20.8-20.8-20.8S11,173.6,11,185.1c0,11.5,9.4,20.8,20.8,20.8 S52.7,196.6,52.7,185.1"/><path class="st0" d="M14.4,185.1c0-9.6,7.8-17.5,17.5-17.5c9.6,0,17.5,7.8,17.5,17.5c0,9.6-7.8,17.5-17.5,17.5 C22.2,202.6,14.4,194.8,14.4,185.1 M48.6,185.1c0-9.3-7.5-16.8-16.8-16.8S15,175.9,15,185.1c0,9.3,7.5,16.8,16.8,16.8 S48.6,194.4,48.6,185.1"/><path class="st0" d="M31.8,194.4c-5.1,0-9.3-4.1-9.3-9.3c0-5.1,4.1-9.3,9.3-9.3s9.3,4.1,9.3,9.3C41.1,190.3,36.9,194.4,31.8,194.4 M48.5,185l-6.5-2l5.2-4.4l-6.8,0.7l3.1-6.1l-6,3.2l0.5-6.8l-4.3,5.3l-2.1-6.5l-2,6.5l-4.4-5.2l0.7,6.8l-6-3.1l3.2,6l-6.8-0.5 l5.2,4.3l-6.5,2.1l6.5,2l-5.2,4.4l6.8-0.7l-3.1,6.1l6-3.2l-0.5,6.8l4.3-5.3l2.1,6.5l2-6.5l4.4,5.2l-0.7-6.8l6,3.1l-3.2-6l6.8,0.5 l-5.2-4.3L48.5,185z"/><path class="st0" d="M30.3,183.6c0,0-0.9-4.5-3.8-6.4c-2,1.7-2.4,2.3-2.4,2.3S26.4,182.3,30.3,183.6"/><path class="st0" d="M33.1,186.8c0,0,0.9,4.5,3.8,6.4c2-1.7,2.4-2.3,2.4-2.3S37,188.2,33.1,186.8"/><path class="st0" d="M30.4,186.8c0,0-4.5,0.9-6.4,3.8c1.7,2,2.3,2.4,2.3,2.4S29.1,190.7,30.4,186.8"/><path class="st0" d="M33.5,183.8c0,0,4.5-0.9,6.4-3.8c-1.7-2-2.3-2.4-2.3-2.4S34.8,179.9,33.5,183.8"/><path class="st0" d="M40.5,188.2c0,0-2.7-2.1-3.8-2.5c2.5-1.3,3.4-2.2,4-2.7C41.2,185.9,40.8,187.3,40.5,188.2 M40.6,181.7 l-0.5,0.3c-0.6,0.8-1.3,1.1-5.6,3.6c2.1,0.4,5.6,3.9,5.6,3.9C42.6,185.9,40.6,181.7,40.6,181.7"/><path class="st0" d="M23.2,182.6c0,0,2.6,2.1,3.7,2.6c-2.4,1.4-3.3,2.2-3.8,2.8C22.5,185,22.9,183.5,23.2,182.6 M23.1,189.2 l0.4-0.3c0.6-0.8,1.3-1.2,5.4-3.7c-2-0.4-5.6-4.2-5.6-4.2C20.9,184.6,23.1,189.2,23.1,189.2"/><path class="st0" d="M34.7,176.4c0,0-2.1,2.6-2.6,3.7c-1.4-2.4-2.2-3.3-2.8-3.8C32.3,175.7,33.8,176.1,34.7,176.4 M28,176.3 l0.3,0.4c0.8,0.6,1.2,1.3,3.7,5.4c0.4-2,3.9-5.4,3.9-5.4C32.4,174.3,28,176.3,28,176.3"/><path class="st0" d="M29.3,194.4c0,0,2.1-2.3,2.6-3.3c1.4,2.2,2.2,2.9,2.8,3.4C31.7,195,30.2,194.7,29.3,194.4 M36,194.5l-0.3-0.4 c-0.8-0.5-1.2-1.1-3.7-4.8c-0.4,1.8-3.9,4.8-3.9,4.8C31.6,196.2,36,194.5,36,194.5"/></svg>